M48
;Layer_Color=9474304
;FILE_FORMAT=2:4
INCH,LZ
;TYPE=PLATED
T1F00S00C0.0118
T2F00S00C0.0197
T3F00S00C0.0236
T5F00S00C0.0280
T6F00S00C0.0300
T7F00S00C0.0310
T8F00S00C0.0354
T9F00S00C0.0360
T10F00S00C0.0374
T11F00S00C0.0394
T12F00S00C0.0400
T13F00S00C0.0402
T14F00S00C0.0433
T16F00S00C0.0512
T17F00S00C0.0600
T18F00S00C0.0866
T19F00S00C0.1260
T20F00S00C0.1299
;TYPE=NON_PLATED
T21F00S00C0.0394
%
T01
X0779Y045613
Y045923
T02
X03365Y013
X03565Y01305
X03735Y013
X0393
X0413
X0385Y0176
X037Y01965
Y0211
X03395Y0241
X0403Y02495
X03925Y02985
X036576Y029726
X04585Y02445
X032847Y0179
X0301Y0208
X0296Y02145
X0261Y025
Y0281
X02275Y02575
X0199Y02715
X0202Y029
X01845Y02605
X01745
X0165Y02565
X017444Y024406
X01615Y02365
X01695Y02135
X016361Y019039
X0158Y01765
X01945Y021944
X01925Y02405
X0158Y02715
X01575Y0281
X0152Y02555
X01465Y02605
X01445Y02465
X013226Y024676
X0149Y02355
X01145
Y0266
X0144Y01905
X015Y0173
X0154Y0169
X01415Y0439
X0165Y0439
X01645Y04325
X016963Y041887
X01705Y04045
X023494Y03655
X02755Y0354
X02775Y0435
X027303Y044
X0339Y0438
X0386Y0412
X03925Y0377
X0376Y0373
X03555Y03685
X03335Y0368
X0338Y0348
X0333Y03305
X03645Y0336
X03685Y03525
X04625Y03595
X04175Y043
X03865Y04665
X0571Y04345
X057769Y041481
X0587Y04185
X05975Y043
X06075Y0426
X06135Y0422
X0582Y03985
X06295Y04035
X0634Y04075
X062588Y041138
X071032Y039582
X072051Y039199
X07395Y0383
X073017Y037167
X0764Y04445
X07965Y0422
X07975Y0361
X06492Y04943
X063745Y049353
X06215Y0489
X02575Y049247
X02485Y0486
T03
X0759Y0361
T05
X0585Y0149
X0625Y01485
X06455Y01505
X0673Y0151
X07025
X0729
X04145Y0159
X04085
X0402
X0396
X0316Y0182
X03335Y0205
Y0254
X0365Y0259
X03725Y02445
X0414Y02615
X0419
Y02675
X0414
X03165Y0274
X02565Y02395
Y0208
X0248Y01985
X02245Y02075
X0277Y0163
X0182Y02955
X01145Y0182
X0193Y03425
X02355Y03965
X03315Y04105
X0322Y0422
X0346Y04235
X0372
X04285Y0407
X03835Y03395
X037797
Y03335
X03835
X05315Y03165
X07035Y03565
X0699Y0378
X0689Y0389
X06755Y0437
X0759Y04185
X0779Y04405
X080185Y044085
Y047685
X077907Y0477
X0769Y047
T06
X01625Y05135
X01725
X01975
X02075
X02175
X01525
T07
X04835Y02215
X0506Y02205
X0526
X04635Y02215
X0443Y0284
Y0304
X0464Y03215
X0478Y03355
X0508
X0494Y03215
X01265Y04755
Y04955
T08
X018717Y011968
X019717
X020717
X021717
X022717
X023717
X024717
X025717
X026717
X027717
X032433
X033433
X034433
X035433
X036433
X037433
X038433
X039433
X040433
X041433
X042433
X043433
X044433
X045433
X045047Y051339
X044047
X043047
X042047
X041047
X040047
X039047
X038047
X037047
X036047
X035047
X034047
X033047
X032047
T09
X01875Y01365
Y01465
X01975
X02075
X02074Y01365
X01975
X04311Y03745
X04409
X0451
X02175Y0492
X02074
X0195
X01849
X0172
X01619
T10
X064612Y01845
X067368
X070124
X07288
X075635
X074257Y020419
X071502
X068746
X06599
X063234
X064612Y0282
X067368
X070124
X07288
X075635
X074257Y030168
X071502
X068746
X06599
X063234
X060478
X057722
X054966
X05221
X049454
X050832Y0282
X048076
X053588
X056344
X0591
X061856
X060478Y020419
X057722
X054966
X05221
X049454
X050832Y01845
X048076
X053588
X056344
X0591
X061856
X046698Y020419
Y030168
T11
X057564Y037133
X058655
X059745
X060836
X061381Y038251
X060291
X0592
X058109
X057019
X078941Y045044
Y046776
T12
X0431Y0187
Y0197
Y0207
X04455
Y0197
Y0187
X0455Y0453
Y0463
X0469
Y0453
Y0473
X0455
T13
X052913Y04425
Y04525
Y04625
Y04725
T14
X043Y0283
Y0324
X03865Y042978
X063244Y050358
Y051358
X064244
Y050358
X065244
Y051358
X066244
Y050358
X071024Y050398
X072024
X073024
X074024
X075024
Y051398
X074024
X073024
X072024
X071024
X062244Y051358
X061244
X060244
X059244
X058244
X057244
Y050358
X058244
X059244
X060244
X061244
X062244
X03005Y050339
Y051339
X02905
X02805
X02705
X02605
X02505
Y050339
X02605
X02705
X02805
X02905
T16
X03865Y04475
T17
X01235Y03065
Y03215
T18
X029586Y017402
Y045906
T19
X011968Y011968
X051339
X078898Y015906
Y051339
X051339
X011968
T20
X054281Y037692
X064119
T21
X079857Y037208
Y04035
M30
