G04*
G04 #@! TF.GenerationSoftware,Altium Limited,Altium Designer,20.1.7 (139)*
G04*
G04 Layer_Physical_Order=1*
G04 Layer_Color=255*
%FSTAX24Y24*%
%MOIN*%
G70*
G04*
G04 #@! TF.SameCoordinates,F0BF9DC0-9546-437B-B132-7D81F4AFA61C*
G04*
G04*
G04 #@! TF.FilePolarity,Positive*
G04*
G01*
G75*
%ADD16C,0.0100*%
%ADD17C,0.0197*%
%ADD20R,0.0315X0.0157*%
%ADD21R,0.0984X0.0787*%
%ADD22R,0.0886X0.0197*%
%ADD23R,0.0550X0.0394*%
%ADD24R,0.0492X0.0236*%
%ADD25R,0.0394X0.0550*%
%ADD26R,0.0600X0.1000*%
%ADD27R,0.1378X0.0984*%
%ADD28R,0.0787X0.0591*%
%ADD29R,0.0866X0.0276*%
%ADD30R,0.0551X0.0472*%
%ADD31R,0.0866X0.0472*%
%ADD32R,0.0551X0.0630*%
%ADD33R,0.0591X0.0354*%
%ADD34R,0.0550X0.0500*%
%ADD35R,0.0354X0.0472*%
%ADD36R,0.0354X0.0472*%
%ADD37R,0.0315X0.0236*%
%ADD38R,0.0591X0.0512*%
%ADD90C,0.0138*%
%ADD91C,0.0394*%
%ADD92C,0.0152*%
%ADD93C,0.0081*%
%ADD94C,0.0650*%
%ADD95R,0.0650X0.0650*%
%ADD96C,0.0640*%
%ADD97R,0.0640X0.0640*%
%ADD98R,0.0650X0.0650*%
%ADD99C,0.0700*%
%ADD100C,0.0197*%
%ADD101C,0.0787*%
%ADD102R,0.0787X0.0787*%
%ADD103C,0.1949*%
%ADD104C,0.0591*%
%ADD105C,0.0630*%
%ADD106R,0.0630X0.0630*%
G04:AMPARAMS|DCode=107|XSize=118.1mil|YSize=118.1mil|CornerRadius=29.5mil|HoleSize=0mil|Usage=FLASHONLY|Rotation=90.000|XOffset=0mil|YOffset=0mil|HoleType=Round|Shape=RoundedRectangle|*
%AMROUNDEDRECTD107*
21,1,0.1181,0.0591,0,0,90.0*
21,1,0.0591,0.1181,0,0,90.0*
1,1,0.0591,0.0295,0.0295*
1,1,0.0591,0.0295,-0.0295*
1,1,0.0591,-0.0295,-0.0295*
1,1,0.0591,-0.0295,0.0295*
%
%ADD107ROUNDEDRECTD107*%
G04:AMPARAMS|DCode=108|XSize=35.4mil|YSize=118.1mil|CornerRadius=8.9mil|HoleSize=0mil|Usage=FLASHONLY|Rotation=90.000|XOffset=0mil|YOffset=0mil|HoleType=Round|Shape=RoundedRectangle|*
%AMROUNDEDRECTD108*
21,1,0.0354,0.1004,0,0,90.0*
21,1,0.0177,0.1181,0,0,90.0*
1,1,0.0177,0.0502,0.0089*
1,1,0.0177,0.0502,-0.0089*
1,1,0.0177,-0.0502,-0.0089*
1,1,0.0177,-0.0502,0.0089*
%
%ADD108ROUNDEDRECTD108*%
%ADD109R,0.0650X0.0900*%
%ADD110O,0.0650X0.0900*%
%ADD111C,0.0598*%
%ADD112R,0.0598X0.0598*%
%ADD113R,0.0750X0.0750*%
%ADD114O,0.0750X0.0630*%
%ADD115C,0.0750*%
%ADD116C,0.2362*%
%ADD117O,0.0650X0.0750*%
%ADD118C,0.0600*%
%ADD119R,0.0591X0.0591*%
%ADD120O,0.0800X0.0750*%
%ADD121O,0.1200X0.1100*%
%ADD122C,0.0394*%
%ADD123C,0.0500*%
%ADD124C,0.0472*%
G36*
X071221Y051814D02*
X071228Y0517D01*
X071231Y051679D01*
X071235Y051662D01*
X07124Y051648D01*
X071245Y051637D01*
X071251Y05163D01*
X070796D01*
X070802Y051637D01*
X070807Y051648D01*
X070812Y051662D01*
X070816Y051679D01*
X070819Y0517D01*
X070824Y051751D01*
X070826Y051814D01*
X070827Y051851D01*
X07122D01*
X071221Y051814D01*
D02*
G37*
G36*
X057572Y050658D02*
X057583Y050636D01*
X057603Y050617D01*
X057631Y050601D01*
X057666Y050587D01*
X057709Y050575D01*
X057761Y050567D01*
X05782Y05056D01*
X057872Y050558D01*
X057942Y050563D01*
X057962Y050566D01*
X05798Y05057D01*
X057994Y050575D01*
X058005Y05058D01*
X058012Y050586D01*
Y050131D01*
X058005Y050137D01*
X057994Y050142D01*
X05798Y050146D01*
X057962Y05015D01*
X057942Y050154D01*
X057891Y050159D01*
X057876Y050159D01*
X057761Y05015D01*
X057709Y050141D01*
X057666Y05013D01*
X057631Y050116D01*
X057603Y050099D01*
X057583Y05008D01*
X057572Y050059D01*
X057568Y050035D01*
Y050682D01*
X057572Y050658D01*
D02*
G37*
G36*
X05692Y050035D02*
X056917Y050059D01*
X056905Y05008D01*
X056885Y050099D01*
X056858Y050116D01*
X056822Y05013D01*
X056779Y050141D01*
X056728Y05015D01*
X056669Y050156D01*
X056527Y050161D01*
Y050555D01*
X056602Y050556D01*
X056728Y050567D01*
X056779Y050575D01*
X056822Y050587D01*
X056858Y050601D01*
X056885Y050617D01*
X056905Y050636D01*
X056917Y050658D01*
X05692Y050682D01*
Y050035D01*
D02*
G37*
G36*
X030047Y050024D02*
X030001Y050023D01*
X029918Y050018D01*
X029882Y050013D01*
X029849Y050006D01*
X029819Y049998D01*
X029792Y049988D01*
X029769Y049977D01*
X029749Y049964D01*
X029732Y04995D01*
X029661Y05002D01*
X029676Y050037D01*
X029689Y050057D01*
X0297Y050081D01*
X02971Y050107D01*
X029718Y050137D01*
X029724Y05017D01*
X029729Y050207D01*
X029735Y050289D01*
X029735Y050335D01*
X030047Y050024D01*
D02*
G37*
G36*
X025365Y050289D02*
X025371Y050207D01*
X025376Y05017D01*
X025382Y050137D01*
X02539Y050107D01*
X0254Y050081D01*
X025411Y050057D01*
X025424Y050037D01*
X025439Y05002D01*
X025368Y04995D01*
X025351Y049964D01*
X025331Y049977D01*
X025308Y049988D01*
X025281Y049998D01*
X025251Y050006D01*
X025218Y050013D01*
X025182Y050018D01*
X025099Y050023D01*
X025053Y050024D01*
X025365Y050335D01*
X025365Y050289D01*
D02*
G37*
G36*
X055209Y050874D02*
X055221Y050807D01*
X055241Y050748D01*
X055268Y050697D01*
X055304Y050654D01*
X055347Y050618D01*
X055398Y050591D01*
X055457Y050571D01*
X055524Y050559D01*
X055599Y050555D01*
X055484Y050161D01*
X055406Y050159D01*
X055331Y05015D01*
X055258Y050136D01*
X055187Y050117D01*
X055119Y050092D01*
X055053Y050061D01*
X054989Y050025D01*
X054927Y049983D01*
X054868Y049936D01*
X054811Y049883D01*
X054533Y050161D01*
X054586Y050218D01*
X054633Y050277D01*
X054675Y050339D01*
X054711Y050403D01*
X054742Y050469D01*
X054767Y050537D01*
X054786Y050608D01*
X0548Y050681D01*
X054809Y050756D01*
X054811Y050834D01*
X055205Y050949D01*
X055209Y050874D01*
D02*
G37*
G36*
X06475Y049672D02*
X064763Y049662D01*
X064778Y049654D01*
X064794Y049646D01*
X064812Y04964D01*
X06483Y049635D01*
X06485Y049631D01*
X064872Y049628D01*
X064894Y049627D01*
X064918Y049627D01*
X064723Y049432D01*
X064723Y049456D01*
X064722Y049478D01*
X064719Y0495D01*
X064715Y04952D01*
X06471Y049538D01*
X064704Y049556D01*
X064696Y049572D01*
X064688Y049587D01*
X064678Y0496D01*
X064667Y049613D01*
X064737Y049683D01*
X06475Y049672D01*
D02*
G37*
G36*
X025801Y049539D02*
X025804Y049522D01*
X025808Y049506D01*
X025814Y049489D01*
X025822Y049472D01*
X025832Y049456D01*
X025843Y049439D01*
X025856Y049422D01*
X025871Y049405D01*
X025888Y049387D01*
X025612D01*
X025629Y049405D01*
X025644Y049422D01*
X025657Y049439D01*
X025668Y049456D01*
X025678Y049472D01*
X025686Y049489D01*
X025692Y049506D01*
X025696Y049522D01*
X025699Y049539D01*
X0257Y049555D01*
X0258D01*
X025801Y049539D01*
D02*
G37*
G36*
X063604Y049215D02*
X063587Y049232D01*
X06357Y049247D01*
X063553Y04926D01*
X063536Y049272D01*
X063519Y049281D01*
X063503Y049289D01*
X063486Y049295D01*
X063469Y0493D01*
X063453Y049302D01*
X063437Y049303D01*
Y049403D01*
X063453Y049404D01*
X063469Y049407D01*
X063486Y049411D01*
X063503Y049417D01*
X063519Y049425D01*
X063536Y049435D01*
X063553Y049446D01*
X06357Y049459D01*
X063587Y049474D01*
X063604Y049491D01*
Y049215D01*
D02*
G37*
G36*
X038145Y049149D02*
X038125Y049128D01*
X038094Y049092D01*
X038082Y049075D01*
X038074Y04906D01*
X038068Y049047D01*
X038065Y049035D01*
Y049024D01*
X038068Y049015D01*
X038074Y049007D01*
X037932Y049149D01*
X03794Y049143D01*
X037949Y04914D01*
X03796D01*
X037972Y049143D01*
X037985Y049149D01*
X038Y049157D01*
X038017Y049169D01*
X038034Y049183D01*
X038074Y04922D01*
X038145Y049149D01*
D02*
G37*
G36*
X035695D02*
X035675Y049128D01*
X035644Y049092D01*
X035632Y049075D01*
X035624Y04906D01*
X035618Y049047D01*
X035615Y049035D01*
Y049024D01*
X035618Y049015D01*
X035624Y049007D01*
X035482Y049149D01*
X03549Y049143D01*
X035499Y04914D01*
X03551D01*
X035522Y049143D01*
X035535Y049149D01*
X03555Y049157D01*
X035567Y049169D01*
X035584Y049183D01*
X035624Y04922D01*
X035695Y049149D01*
D02*
G37*
G36*
X037527Y048703D02*
X037525Y048722D01*
X037519Y048739D01*
X03751Y048753D01*
X037496Y048766D01*
X037478Y048777D01*
X037456Y048786D01*
X03743Y048793D01*
X037401Y048798D01*
X0374Y048798D01*
X0374Y048798D01*
X03737Y048793D01*
X037345Y048786D01*
X037323Y048777D01*
X037305Y048767D01*
X037292Y048754D01*
X037282Y048739D01*
X037276Y048723D01*
X037274Y048704D01*
Y049096D01*
X037276Y049077D01*
X037282Y049061D01*
X037292Y049046D01*
X037305Y049033D01*
X037323Y049023D01*
X037345Y049014D01*
X03737Y049007D01*
X0374Y049002D01*
X0374Y049002D01*
X037401Y049002D01*
X03743Y049007D01*
X037456Y049014D01*
X037478Y049023D01*
X037496Y049034D01*
X03751Y049047D01*
X037519Y049061D01*
X037525Y049078D01*
X037527Y049097D01*
Y048703D01*
D02*
G37*
G36*
X035077Y048678D02*
X035075Y048697D01*
X035069Y048714D01*
X03506Y048728D01*
X035046Y048741D01*
X035028Y048752D01*
X035006Y048761D01*
X03498Y048768D01*
X034951Y048773D01*
X034925Y048775D01*
X034899Y048773D01*
X03487Y048768D01*
X034844Y048761D01*
X034822Y048752D01*
X034804Y048741D01*
X034791Y048728D01*
X034781Y048714D01*
X034775Y048697D01*
X034773Y048678D01*
X034774Y049046D01*
X034776Y049032D01*
X034782Y04902D01*
X034792Y049009D01*
X034805Y048999D01*
X034823Y048991D01*
X034845Y048985D01*
X03487Y04898D01*
X0349Y048976D01*
X034922Y048975D01*
X034951Y048977D01*
X03498Y048982D01*
X035006Y048989D01*
X035028Y048998D01*
X035046Y049009D01*
X03506Y049022D01*
X035069Y049036D01*
X035075Y049053D01*
X035077Y049072D01*
Y048678D01*
D02*
G37*
G36*
X039676Y049078D02*
X039682Y049061D01*
X039692Y049047D01*
X039705Y049034D01*
X039723Y049023D01*
X039745Y049014D01*
X03977Y049007D01*
X0398Y049002D01*
X039825Y049D01*
X03985Y049002D01*
X03988Y049007D01*
X039905Y049014D01*
X039927Y049023D01*
X039945Y049033D01*
X039958Y049046D01*
X039968Y049061D01*
X039974Y049077D01*
X039976Y049096D01*
Y048704D01*
X039974Y048723D01*
X039968Y048739D01*
X039958Y048754D01*
X039945Y048767D01*
X039927Y048777D01*
X039905Y048786D01*
X03988Y048793D01*
X03985Y048798D01*
X039825Y0488D01*
X0398Y048798D01*
X03977Y048793D01*
X039745Y048786D01*
X039723Y048777D01*
X039705Y048766D01*
X039692Y048753D01*
X039682Y048739D01*
X039676Y048722D01*
X039674Y048703D01*
Y049097D01*
X039676Y049078D01*
D02*
G37*
G36*
X062148Y048703D02*
X062124Y048703D01*
X062101Y048701D01*
X06208Y048699D01*
X06206Y048695D01*
X062041Y04869D01*
X062024Y048683D01*
X062008Y048676D01*
X061993Y048667D01*
X061979Y048657D01*
X061967Y048646D01*
X061897Y048717D01*
X061907Y048729D01*
X061917Y048743D01*
X061926Y048758D01*
X061933Y048774D01*
X06194Y048791D01*
X061945Y04881D01*
X061949Y04883D01*
X061951Y048851D01*
X061953Y048874D01*
X061953Y048898D01*
X062148Y048703D01*
D02*
G37*
G36*
X040518Y048838D02*
X040515Y048829D01*
Y048818D01*
X040518Y048806D01*
X040524Y048793D01*
X040532Y048778D01*
X040544Y048762D01*
X040558Y048744D01*
X040595Y048704D01*
X040524Y048634D01*
X040503Y048653D01*
X040467Y048685D01*
X04045Y048696D01*
X040435Y048704D01*
X040422Y04871D01*
X04041Y048713D01*
X040399D01*
X04039Y04871D01*
X040382Y048704D01*
X040524Y048846D01*
X040518Y048838D01*
D02*
G37*
G36*
X025008Y048721D02*
X025025Y048706D01*
X025042Y048693D01*
X025059Y048682D01*
X025076Y048672D01*
X025092Y048664D01*
X025109Y048658D01*
X025126Y048654D01*
X025142Y048651D01*
X025159Y04865D01*
Y04855D01*
X025142Y048549D01*
X025126Y048546D01*
X025109Y048542D01*
X025092Y048536D01*
X025076Y048528D01*
X025059Y048518D01*
X025042Y048507D01*
X025025Y048494D01*
X025008Y048479D01*
X024991Y048462D01*
Y048738D01*
X025008Y048721D01*
D02*
G37*
G36*
X04345Y0484D02*
X043431Y048399D01*
X043414Y048396D01*
X043399Y048391D01*
X043386Y048384D01*
X043375Y048375D01*
X043366Y048364D01*
X043359Y048351D01*
X043354Y048336D01*
X043351Y048319D01*
X04335Y0483D01*
X04325D01*
X043249Y048319D01*
X043246Y048336D01*
X043241Y048351D01*
X043234Y048364D01*
X043225Y048375D01*
X043214Y048384D01*
X043201Y048391D01*
X043186Y048396D01*
X043169Y048399D01*
X04315Y0484D01*
X0433Y0485D01*
X04345Y0484D01*
D02*
G37*
G36*
X0403Y048276D02*
X040302Y048259D01*
X040304Y048244D01*
X040308Y048231D01*
X040312Y04822D01*
X040318Y048211D01*
X040325Y048204D01*
X040332Y048198D01*
X04034Y048195D01*
X04035Y048194D01*
X040303D01*
X04031Y048097D01*
X040313Y048084D01*
X040316Y048075D01*
X04032Y04807D01*
X04018D01*
X040184Y048075D01*
X040187Y048084D01*
X04019Y048097D01*
X040193Y048113D01*
X040197Y048155D01*
X040198Y048194D01*
X04015D01*
X04016Y048195D01*
X040168Y048198D01*
X040175Y048204D01*
X040182Y048211D01*
X040188Y04822D01*
X040192Y048231D01*
X040195Y048244D01*
X040198Y048259D01*
X040199Y048276D01*
X0402Y048296D01*
X0403D01*
X0403Y048276D01*
D02*
G37*
G36*
X040526Y048177D02*
X040532Y048161D01*
X040542Y048146D01*
X040555Y048133D01*
X040573Y048123D01*
X040595Y048114D01*
X04062Y048107D01*
X04065Y048102D01*
X040683Y048099D01*
X040721Y048098D01*
Y047902D01*
X040683Y047901D01*
X04065Y047898D01*
X04062Y047893D01*
X040595Y047886D01*
X040573Y047877D01*
X040555Y047867D01*
X040542Y047854D01*
X040532Y047839D01*
X040526Y047823D01*
X040524Y047804D01*
Y048196D01*
X040526Y048177D01*
D02*
G37*
G36*
X039127Y047803D02*
X039125Y047822D01*
X039119Y047839D01*
X03911Y047853D01*
X039096Y047866D01*
X039078Y047877D01*
X039056Y047886D01*
X03903Y047893D01*
X039001Y047898D01*
X038967Y047901D01*
X038929Y047902D01*
Y048098D01*
X038967Y048099D01*
X039001Y048102D01*
X03903Y048107D01*
X039056Y048114D01*
X039078Y048123D01*
X039096Y048134D01*
X03911Y048147D01*
X039119Y048161D01*
X039125Y048178D01*
X039127Y048197D01*
Y047803D01*
D02*
G37*
G36*
X038076Y048178D02*
X038082Y048161D01*
X038092Y048147D01*
X038105Y048134D01*
X038123Y048123D01*
X038145Y048114D01*
X03817Y048107D01*
X0382Y048102D01*
X038233Y048099D01*
X038271Y048098D01*
Y047902D01*
X038233Y047901D01*
X0382Y047898D01*
X03817Y047893D01*
X038145Y047886D01*
X038123Y047877D01*
X038105Y047866D01*
X038092Y047853D01*
X038082Y047839D01*
X038076Y047822D01*
X038074Y047803D01*
Y048197D01*
X038076Y048178D01*
D02*
G37*
G36*
X037178Y047804D02*
X037161Y047798D01*
X037147Y047788D01*
X037134Y047774D01*
X037123Y047756D01*
X037114Y047734D01*
X037107Y047708D01*
X037102Y047679D01*
X037099Y047645D01*
X037098Y047607D01*
X036902D01*
X036901Y047645D01*
X036898Y047679D01*
X036893Y047708D01*
X036886Y047734D01*
X036877Y047756D01*
X036866Y047774D01*
X036853Y047788D01*
X036839Y047798D01*
X036822Y047804D01*
X036803Y047806D01*
X037197D01*
X037178Y047804D01*
D02*
G37*
G36*
X034678Y047754D02*
X034661Y047748D01*
X034647Y047738D01*
X034634Y047724D01*
X034623Y047706D01*
X034614Y047684D01*
X034607Y047659D01*
X034602Y047629D01*
X034599Y047595D01*
X034598Y047558D01*
X034402D01*
X034401Y047595D01*
X034398Y047629D01*
X034393Y047659D01*
X034386Y047684D01*
X034377Y047706D01*
X034366Y047724D01*
X034353Y047738D01*
X034339Y047748D01*
X034322Y047754D01*
X034303Y047756D01*
X034697D01*
X034678Y047754D01*
D02*
G37*
G36*
X035528Y04775D02*
X035511Y047744D01*
X035497Y047735D01*
X035484Y047721D01*
X035473Y047703D01*
X035464Y047681D01*
X035457Y047655D01*
X035452Y047626D01*
X035449Y047592D01*
X035448Y047554D01*
X035252D01*
X035251Y047592D01*
X035248Y047626D01*
X035243Y047655D01*
X035236Y047681D01*
X035227Y047703D01*
X035216Y047721D01*
X035203Y047735D01*
X035189Y047744D01*
X035172Y04775D01*
X035153Y047752D01*
X035547D01*
X035528Y04775D01*
D02*
G37*
G36*
X033201Y047105D02*
X033202Y047088D01*
X033205Y047073D01*
X033208Y04706D01*
X033213Y047049D01*
X033218Y04704D01*
X033225Y047033D01*
X033232Y047028D01*
X033241Y047025D01*
X03325Y047024D01*
X03305D01*
X03306Y047025D01*
X033068Y047028D01*
X033076Y047033D01*
X033082Y04704D01*
X033088Y047049D01*
X033092Y04706D01*
X033096Y047073D01*
X033098Y047088D01*
X0331Y047105D01*
X0331Y047124D01*
X0332D01*
X033201Y047105D01*
D02*
G37*
G36*
X07623Y045927D02*
X076226Y045925D01*
X076223Y045922D01*
X07622Y045917D01*
X076218Y045911D01*
X076216Y045904D01*
X076214Y045896D01*
X076213Y045886D01*
X076212Y045876D01*
X076212Y045863D01*
X076131D01*
X07613Y045876D01*
X076129Y045896D01*
X076127Y045904D01*
X076125Y045911D01*
X076123Y045917D01*
X07612Y045922D01*
X076116Y045925D01*
X076113Y045927D01*
X076109Y045927D01*
X076234D01*
X07623Y045927D01*
D02*
G37*
G36*
X075087D02*
X075084Y045925D01*
X07508Y045922D01*
X075077Y045917D01*
X075075Y045911D01*
X075073Y045904D01*
X075071Y045896D01*
X07507Y045886D01*
X07507Y045876D01*
X075069Y045863D01*
X074988D01*
X074988Y045876D01*
X074986Y045896D01*
X074984Y045904D01*
X074982Y045911D01*
X07498Y045917D01*
X074977Y045922D01*
X074974Y045925D01*
X07497Y045927D01*
X074966Y045927D01*
X075092D01*
X075087Y045927D01*
D02*
G37*
G36*
X053004Y045964D02*
X052993Y045957D01*
X052984Y04595D01*
X052976Y045941D01*
X052969Y045931D01*
X052964Y04592D01*
X05296Y045908D01*
X052957Y045894D01*
X052955Y045879D01*
X052954Y045863D01*
X052873D01*
X052872Y045879D01*
X05287Y045894D01*
X052867Y045908D01*
X052863Y04592D01*
X052857Y045931D01*
X052851Y045941D01*
X052843Y04595D01*
X052833Y045957D01*
X052823Y045964D01*
X052811Y045969D01*
X053015D01*
X053004Y045964D01*
D02*
G37*
G36*
X033096Y045577D02*
X033088Y045583D01*
X033079Y045586D01*
X033068Y045586D01*
X033056Y045583D01*
X033043Y045577D01*
X033028Y045568D01*
X033012Y045557D01*
X032994Y045542D01*
X032954Y045505D01*
X032884Y045576D01*
X032904Y045597D01*
X032935Y045634D01*
X032946Y04565D01*
X032955Y045665D01*
X032961Y045678D01*
X032964Y04569D01*
X032964Y045701D01*
X032961Y04571D01*
X032956Y045718D01*
X033096Y045577D01*
D02*
G37*
G36*
X076212Y045625D02*
X076214Y045605D01*
X076216Y045596D01*
X076218Y045589D01*
X07622Y045584D01*
X076223Y045579D01*
X076226Y045576D01*
X07623Y045574D01*
X076234Y045574D01*
X076109D01*
X076113Y045574D01*
X076116Y045576D01*
X07612Y045579D01*
X076123Y045584D01*
X076125Y045589D01*
X076127Y045596D01*
X076129Y045605D01*
X07613Y045614D01*
X07613Y045625D01*
X076131Y045637D01*
X076212D01*
X076212Y045625D01*
D02*
G37*
G36*
X07507D02*
X075071Y045605D01*
X075073Y045596D01*
X075075Y045589D01*
X075077Y045584D01*
X07508Y045579D01*
X075084Y045576D01*
X075087Y045574D01*
X075092Y045574D01*
X074966D01*
X07497Y045574D01*
X074974Y045576D01*
X074977Y045579D01*
X07498Y045584D01*
X074982Y045589D01*
X074984Y045596D01*
X074986Y045605D01*
X074987Y045614D01*
X074988Y045625D01*
X074988Y045637D01*
X075069D01*
X07507Y045625D01*
D02*
G37*
G36*
X052955Y045621D02*
X052957Y045606D01*
X05296Y045592D01*
X052964Y04558D01*
X052969Y045569D01*
X052976Y045559D01*
X052984Y04555D01*
X052993Y045543D01*
X053004Y045536D01*
X053015Y045531D01*
X052811D01*
X052823Y045536D01*
X052833Y045543D01*
X052843Y04555D01*
X052851Y045559D01*
X052857Y045569D01*
X052863Y04558D01*
X052867Y045592D01*
X05287Y045606D01*
X052872Y045621D01*
X052873Y045637D01*
X052954D01*
X052955Y045621D01*
D02*
G37*
G36*
X041799Y0454D02*
X041802Y045366D01*
X041807Y045337D01*
X041814Y045311D01*
X041823Y045289D01*
X041834Y045271D01*
X041847Y045258D01*
X041861Y045248D01*
X041878Y045242D01*
X041897Y04524D01*
X041503D01*
X041522Y045242D01*
X041539Y045248D01*
X041553Y045258D01*
X041566Y045271D01*
X041577Y045289D01*
X041586Y045311D01*
X041593Y045337D01*
X041598Y045366D01*
X041601Y0454D01*
X041602Y045438D01*
X041798D01*
X041799Y0454D01*
D02*
G37*
G36*
X077363Y045193D02*
X077362Y045193D01*
X077357Y045192D01*
X077217Y045192D01*
Y045343D01*
X077245Y045344D01*
X077292Y045347D01*
X077311Y04535D01*
X077327Y045354D01*
X07734Y045359D01*
X07735Y045365D01*
X077357Y045371D01*
X077362Y045379D01*
X077363Y045387D01*
Y045193D01*
D02*
G37*
G36*
X035108Y044753D02*
X035106Y044772D01*
X0351Y044789D01*
X03509Y044803D01*
X035076Y044816D01*
X035059Y044827D01*
X035037Y044836D01*
X035011Y044843D01*
X034982Y044848D01*
X034948Y044851D01*
X034911Y044852D01*
Y045048D01*
X034948Y045049D01*
X034982Y045052D01*
X035011Y045057D01*
X035037Y045064D01*
X035059Y045073D01*
X035076Y045084D01*
X03509Y045097D01*
X0351Y045111D01*
X035106Y045128D01*
X035108Y045147D01*
Y044753D01*
D02*
G37*
G36*
X033346Y045128D02*
X033352Y045111D01*
X033362Y045097D01*
X033376Y045084D01*
X033394Y045073D01*
X033416Y045064D01*
X033442Y045057D01*
X033471Y045052D01*
X033505Y045049D01*
X033543Y045048D01*
Y044852D01*
X033505Y044851D01*
X033471Y044848D01*
X033442Y044843D01*
X033416Y044836D01*
X033394Y044827D01*
X033376Y044816D01*
X033362Y044803D01*
X033352Y044789D01*
X033346Y044772D01*
X033344Y044753D01*
Y045147D01*
X033346Y045128D01*
D02*
G37*
G36*
X07686Y044803D02*
X07681Y044752D01*
X076663Y044583D01*
X076639Y044549D01*
X076621Y044519D01*
X076607Y044493D01*
X076599Y04447D01*
X076597Y04445D01*
X0764Y044647D01*
X07642Y04465D01*
X076443Y044657D01*
X076469Y044671D01*
X076499Y044689D01*
X076533Y044713D01*
X076611Y044776D01*
X076702Y04486D01*
X076753Y04491D01*
X07686Y044803D01*
D02*
G37*
G36*
X053215Y044529D02*
X053227Y044512D01*
X053247Y044496D01*
X053274Y044483D01*
X05331Y044472D01*
X053353Y044463D01*
X053404Y044456D01*
X05353Y044448D01*
X053605Y044447D01*
Y044053D01*
X05353Y044052D01*
X053353Y044037D01*
X05331Y044028D01*
X053274Y044017D01*
X053247Y044004D01*
X053227Y043988D01*
X053215Y043971D01*
X053211Y043952D01*
Y044548D01*
X053215Y044529D01*
D02*
G37*
G36*
X027243Y043813D02*
X02722Y04382D01*
X02712Y043844D01*
X027103Y043847D01*
X027072Y04385D01*
X027058Y04385D01*
X026995Y04395D01*
X027013Y043951D01*
X027029Y043954D01*
X027044Y043959D01*
X027058Y043966D01*
X027071Y043974D01*
X027082Y043985D01*
X027091Y043998D01*
X0271Y044012D01*
X027107Y044029D01*
X027112Y044047D01*
X027243Y043813D01*
D02*
G37*
G36*
X035894Y044178D02*
X0359Y044161D01*
X03591Y044147D01*
X035923Y044134D01*
X035941Y044123D01*
X035963Y044114D01*
X035989Y044107D01*
X036018Y044102D01*
X036052Y044099D01*
X03609Y044098D01*
Y043902D01*
X036052Y043901D01*
X036018Y043898D01*
X035989Y043893D01*
X035963Y043886D01*
X035941Y043877D01*
X035923Y043866D01*
X03591Y043853D01*
X0359Y043839D01*
X035894Y043822D01*
X035892Y043803D01*
Y044197D01*
X035894Y044178D01*
D02*
G37*
G36*
X016658Y044021D02*
X016675Y044006D01*
X016692Y043993D01*
X016709Y043982D01*
X016726Y043972D01*
X016742Y043964D01*
X016759Y043958D01*
X016776Y043954D01*
X016792Y043951D01*
X016809Y04395D01*
Y04385D01*
X016792Y043849D01*
X016776Y043847D01*
X016759Y043842D01*
X016742Y043836D01*
X016726Y043828D01*
X016709Y043818D01*
X016692Y043807D01*
X016675Y043794D01*
X016658Y043779D01*
X016641Y043762D01*
Y044038D01*
X016658Y044021D01*
D02*
G37*
G36*
X014275Y043746D02*
X014263Y043731D01*
X014253Y043716D01*
X014244Y043701D01*
X014236Y043685D01*
X01423Y043669D01*
X014225Y043652D01*
X014222Y043634D01*
X01422Y043616D01*
X014219Y043597D01*
X014081D01*
X01408Y043616D01*
X014078Y043634D01*
X014075Y043652D01*
X01407Y043669D01*
X014064Y043685D01*
X014056Y043701D01*
X014047Y043716D01*
X014037Y043731D01*
X014025Y043746D01*
X014012Y043759D01*
X014288D01*
X014275Y043746D01*
D02*
G37*
G36*
X027609Y043362D02*
X027592Y043379D01*
X027575Y043394D01*
X027558Y043407D01*
X027541Y043418D01*
X027524Y043428D01*
X027508Y043436D01*
X027491Y043442D01*
X027474Y043446D01*
X027458Y043449D01*
X027441Y04345D01*
Y04355D01*
X027458Y043551D01*
X027474Y043554D01*
X027491Y043558D01*
X027508Y043564D01*
X027524Y043572D01*
X027541Y043582D01*
X027558Y043593D01*
X027575Y043606D01*
X027592Y043621D01*
X027609Y043638D01*
Y043362D01*
D02*
G37*
G36*
X056959Y043312D02*
X056942Y043329D01*
X056925Y043344D01*
X056908Y043357D01*
X056891Y043368D01*
X056874Y043378D01*
X056858Y043386D01*
X056841Y043392D01*
X056824Y043396D01*
X056808Y043399D01*
X056792Y0434D01*
Y0435D01*
X056808Y043501D01*
X056824Y043504D01*
X056841Y043508D01*
X056858Y043514D01*
X056874Y043522D01*
X056891Y043532D01*
X056908Y043543D01*
X056925Y043556D01*
X056942Y043571D01*
X056959Y043588D01*
Y043312D01*
D02*
G37*
G36*
X016571Y043092D02*
X016556Y043075D01*
X016543Y043058D01*
X016532Y043041D01*
X016522Y043024D01*
X016514Y043008D01*
X016508Y042991D01*
X016504Y042974D01*
X016501Y042958D01*
X0165Y042941D01*
X0164D01*
X016399Y042958D01*
X016396Y042974D01*
X016392Y042991D01*
X016386Y043008D01*
X016378Y043024D01*
X016368Y043041D01*
X016357Y043058D01*
X016344Y043075D01*
X016329Y043092D01*
X016312Y043109D01*
X016588D01*
X016571Y043092D01*
D02*
G37*
G36*
X059609Y042862D02*
X059592Y042879D01*
X059575Y042894D01*
X059558Y042907D01*
X059541Y042918D01*
X059524Y042928D01*
X059508Y042936D01*
X059491Y042942D01*
X059474Y042946D01*
X059458Y042949D01*
X059441Y04295D01*
Y04305D01*
X059458Y043051D01*
X059474Y043054D01*
X059491Y043058D01*
X059508Y043064D01*
X059524Y043072D01*
X059541Y043082D01*
X059558Y043093D01*
X059575Y043106D01*
X059592Y043121D01*
X059609Y043138D01*
Y042862D01*
D02*
G37*
G36*
X035894Y043178D02*
X0359Y043161D01*
X03591Y043147D01*
X035923Y043134D01*
X035941Y043123D01*
X035963Y043114D01*
X035989Y043107D01*
X036018Y043102D01*
X036052Y043099D01*
X03609Y043098D01*
Y042902D01*
X036052Y042901D01*
X036018Y042898D01*
X035989Y042893D01*
X035963Y042886D01*
X035941Y042877D01*
X035923Y042866D01*
X03591Y042853D01*
X0359Y042839D01*
X035894Y042822D01*
X035892Y042803D01*
Y043197D01*
X035894Y043178D01*
D02*
G37*
G36*
X060609Y042462D02*
X060592Y042479D01*
X060575Y042494D01*
X060558Y042507D01*
X060541Y042518D01*
X060524Y042528D01*
X060508Y042536D01*
X060491Y042542D01*
X060474Y042546D01*
X060458Y042549D01*
X060441Y04255D01*
Y04265D01*
X060458Y042651D01*
X060474Y042654D01*
X060491Y042658D01*
X060508Y042664D01*
X060524Y042672D01*
X060541Y042682D01*
X060558Y042693D01*
X060575Y042706D01*
X060592Y042721D01*
X060609Y042738D01*
Y042462D01*
D02*
G37*
G36*
X061209Y042062D02*
X061192Y042079D01*
X061175Y042094D01*
X061158Y042107D01*
X061141Y042118D01*
X061124Y042128D01*
X061108Y042136D01*
X061091Y042142D01*
X061074Y042146D01*
X061058Y042149D01*
X061041Y04215D01*
Y04225D01*
X061058Y042251D01*
X061074Y042254D01*
X061091Y042258D01*
X061108Y042264D01*
X061124Y042272D01*
X061141Y042282D01*
X061158Y042293D01*
X061175Y042306D01*
X061192Y042321D01*
X061209Y042338D01*
Y042062D01*
D02*
G37*
G36*
X017217Y042069D02*
X017206Y042057D01*
X017196Y042044D01*
X017187Y042029D01*
X01718Y042013D01*
X017174Y041995D01*
X017169Y041977D01*
X017165Y041956D01*
X017162Y041935D01*
X017161Y041913D01*
X01716Y041889D01*
X016965Y042083D01*
X016989Y042084D01*
X017012Y042085D01*
X017033Y042088D01*
X017053Y042092D01*
X017072Y042097D01*
X017089Y042103D01*
X017106Y042111D01*
X01712Y042119D01*
X017134Y042129D01*
X017146Y04214D01*
X017217Y042069D01*
D02*
G37*
G36*
X058559Y041712D02*
X058542Y041729D01*
X058525Y041744D01*
X058508Y041757D01*
X058491Y041768D01*
X058474Y041778D01*
X058458Y041786D01*
X058441Y041792D01*
X058424Y041796D01*
X058408Y041799D01*
X058391Y0418D01*
Y0419D01*
X058408Y041901D01*
X058424Y041904D01*
X058441Y041908D01*
X058458Y041914D01*
X058474Y041922D01*
X058491Y041932D01*
X058508Y041943D01*
X058525Y041956D01*
X058542Y041971D01*
X058559Y041988D01*
Y041712D01*
D02*
G37*
G36*
X057629Y041343D02*
X057612Y04136D01*
X057594Y041375D01*
X057577Y041388D01*
X057561Y041399D01*
X057544Y041409D01*
X057527Y041417D01*
X05751Y041423D01*
X057494Y041427D01*
X057477Y04143D01*
X057461Y041431D01*
Y041531D01*
X057477Y041532D01*
X057494Y041534D01*
X05751Y041539D01*
X057527Y041545D01*
X057544Y041553D01*
X057561Y041562D01*
X057577Y041574D01*
X057594Y041587D01*
X057612Y041602D01*
X057629Y041619D01*
Y041343D01*
D02*
G37*
G36*
X06245Y040997D02*
X062433Y041014D01*
X062398Y041041D01*
X062381Y041053D01*
X062364Y041062D01*
X062347Y04107D01*
X06233Y041076D01*
X062313Y04108D01*
X062297Y041083D01*
X062281Y041084D01*
X062278Y041184D01*
X062295Y041185D01*
X062311Y041187D01*
X062328Y041192D01*
X062345Y041198D01*
X062361Y041206D01*
X062378Y041216D01*
X062394Y041227D01*
X062411Y041241D01*
X062428Y041256D01*
X062445Y041273D01*
X06245Y040997D01*
D02*
G37*
G36*
X063259Y040612D02*
X063242Y040629D01*
X063225Y040644D01*
X063208Y040657D01*
X063191Y040668D01*
X063174Y040678D01*
X063158Y040686D01*
X063141Y040692D01*
X063124Y040696D01*
X063108Y040699D01*
X063092Y0407D01*
Y0408D01*
X063108Y040801D01*
X063124Y040804D01*
X063141Y040808D01*
X063158Y040814D01*
X063174Y040822D01*
X063191Y040832D01*
X063208Y040843D01*
X063225Y040856D01*
X063242Y040871D01*
X063259Y040888D01*
Y040612D01*
D02*
G37*
G36*
X042847Y04045D02*
X042814Y04045D01*
X042752Y040445D01*
X042725Y040441D01*
X0427Y040435D01*
X042677Y040428D01*
X042656Y040419D01*
X042637Y040409D01*
X04262Y040398D01*
X042606Y040385D01*
X042535Y040456D01*
X042548Y04047D01*
X042559Y040487D01*
X042569Y040506D01*
X042578Y040527D01*
X042585Y04055D01*
X042591Y040575D01*
X042595Y040602D01*
X042598Y040632D01*
X0426Y040697D01*
X042847Y04045D01*
D02*
G37*
G36*
X062809Y040212D02*
X062792Y040229D01*
X062775Y040244D01*
X062758Y040257D01*
X062741Y040268D01*
X062724Y040278D01*
X062708Y040286D01*
X062691Y040292D01*
X062674Y040296D01*
X062658Y040299D01*
X062642Y0403D01*
Y0404D01*
X062658Y040401D01*
X062674Y040404D01*
X062691Y040408D01*
X062708Y040414D01*
X062724Y040422D01*
X062741Y040432D01*
X062758Y040443D01*
X062775Y040456D01*
X062792Y040471D01*
X062809Y040488D01*
Y040212D01*
D02*
G37*
G36*
X075175Y039482D02*
X075174Y039491D01*
X075171Y0395D01*
X075166Y039507D01*
X075159Y039514D01*
X07515Y039519D01*
X075138Y039524D01*
X075125Y039527D01*
X07511Y03953D01*
X075093Y039531D01*
X075074Y039532D01*
Y039632D01*
X075093Y039632D01*
X07511Y039634D01*
X075125Y039636D01*
X075138Y03964D01*
X07515Y039644D01*
X075159Y03965D01*
X075166Y039656D01*
X075171Y039664D01*
X075174Y039672D01*
X075175Y039682D01*
Y039482D01*
D02*
G37*
G36*
X07119Y039703D02*
X071207Y039688D01*
X071224Y039675D01*
X071241Y039664D01*
X071257Y039654D01*
X071274Y039646D01*
X071291Y03964D01*
X071307Y039635D01*
X071324Y039633D01*
X07134Y039632D01*
Y039532D01*
X071324Y039531D01*
X071307Y039528D01*
X071291Y039524D01*
X071274Y039518D01*
X071257Y03951D01*
X071241Y0395D01*
X071224Y039489D01*
X071207Y039476D01*
X07119Y039461D01*
X071172Y039444D01*
Y03972D01*
X07119Y039703D01*
D02*
G37*
G36*
X075175Y0391D02*
X075174Y039109D01*
X075171Y039118D01*
X075166Y039125D01*
X075158Y039132D01*
X075149Y039137D01*
X075138Y039142D01*
X075125Y039146D01*
X07511Y039148D01*
X075093Y039149D01*
X075074Y03915D01*
Y03925D01*
X075093Y03925D01*
X075125Y039253D01*
X075138Y039256D01*
X075149Y039259D01*
X075158Y039263D01*
X075165Y039267D01*
X07517Y039273D01*
X075173Y039279D01*
X075174Y039285D01*
X075175Y0391D01*
D02*
G37*
G36*
X072208Y039321D02*
X072225Y039306D01*
X072243Y039293D01*
X07226Y039281D01*
X072276Y039272D01*
X072293Y039264D01*
X07231Y039258D01*
X072326Y039253D01*
X072343Y039251D01*
X072359Y03925D01*
X07236Y03915D01*
X072344Y039149D01*
X072327Y039146D01*
X07231Y039142D01*
X072294Y039136D01*
X072277Y039128D01*
X07226Y039118D01*
X072243Y039107D01*
X072227Y039094D01*
X07221Y039079D01*
X072193Y039062D01*
X072191Y039337D01*
X072208Y039321D01*
D02*
G37*
G36*
X074327Y038653D02*
X074325Y038672D01*
X074319Y038689D01*
X074309Y038703D01*
X074296Y038716D01*
X074278Y038727D01*
X074256Y038736D01*
X07423Y038743D01*
X074201Y038748D01*
X074167Y038751D01*
X074129Y038752D01*
Y038948D01*
X074326Y038949D01*
X074327Y038653D01*
D02*
G37*
G36*
X074876Y038878D02*
X074882Y038861D01*
X074892Y038847D01*
X074905Y038834D01*
X074923Y038823D01*
X074945Y038814D01*
X07497Y038807D01*
X075Y038802D01*
X075028Y0388D01*
X075077Y038803D01*
X075103Y038807D01*
X075124Y038812D01*
X075142Y038818D01*
X075156Y038825D01*
X075166Y038833D01*
X075172Y038842D01*
X075174Y038852D01*
Y038579D01*
X075172Y038583D01*
X075166Y038587D01*
X075156Y038591D01*
X075142Y038593D01*
X075124Y038596D01*
X075077Y0386D01*
X075032Y0386D01*
X075Y038598D01*
X07497Y038593D01*
X074945Y038586D01*
X074923Y038577D01*
X074905Y038566D01*
X074892Y038553D01*
X074882Y038539D01*
X074876Y038522D01*
X074874Y038503D01*
Y038897D01*
X074876Y038878D01*
D02*
G37*
G36*
X07347Y03878D02*
X073428Y038738D01*
X073305Y038598D01*
X073285Y03857D01*
X073269Y038544D01*
X073257Y038522D01*
X07325Y038502D01*
X073246Y038485D01*
X073035Y038696D01*
X073052Y0387D01*
X073072Y038707D01*
X073094Y038719D01*
X07312Y038735D01*
X073148Y038755D01*
X073213Y038808D01*
X073288Y038878D01*
X07333Y03892D01*
X07347Y03878D01*
D02*
G37*
G36*
X030726Y038496D02*
X030729Y038487D01*
X030734Y03848D01*
X030742Y038473D01*
X030751Y038468D01*
X030762Y038463D01*
X030776Y03846D01*
X030791Y038458D01*
X030809Y038456D01*
X030828Y038456D01*
Y038356D01*
X030809Y038355D01*
X030791Y038354D01*
X030776Y038351D01*
X030762Y038348D01*
X030751Y038343D01*
X030742Y038338D01*
X030734Y038331D01*
X030729Y038324D01*
X030726Y038315D01*
X030725Y038306D01*
Y038505D01*
X030726Y038496D01*
D02*
G37*
G36*
X075175Y0382D02*
X075174Y03821D01*
X075171Y038218D01*
X075166Y038226D01*
X075159Y038232D01*
X07515Y038238D01*
X075138Y038242D01*
X075125Y038245D01*
X07511Y038248D01*
X075093Y038249D01*
X075074Y03825D01*
Y03835D01*
X075093Y038351D01*
X07511Y038352D01*
X075125Y038354D01*
X075138Y038358D01*
X07515Y038363D01*
X075159Y038368D01*
X075166Y038375D01*
X075171Y038382D01*
X075174Y038391D01*
X075175Y0384D01*
Y0382D01*
D02*
G37*
G36*
X074111Y038416D02*
X074128Y038401D01*
X074144Y038388D01*
X074161Y038376D01*
X074177Y038366D01*
X074194Y038358D01*
X07421Y038352D01*
X074227Y038347D01*
X074243Y038345D01*
X07426Y038344D01*
X074257Y038244D01*
X07424Y038243D01*
X074224Y03824D01*
X074207Y038236D01*
X074191Y03823D01*
X074174Y038222D01*
X074156Y038213D01*
X074139Y038202D01*
X074122Y038189D01*
X074104Y038174D01*
X074086Y038158D01*
X074095Y038433D01*
X074111Y038416D01*
D02*
G37*
G36*
X036896Y038228D02*
X036902Y038211D01*
X036912Y038197D01*
X036926Y038184D01*
X036944Y038173D01*
X036966Y038164D01*
X036992Y038157D01*
X037021Y038152D01*
X037055Y038149D01*
X037093Y038148D01*
Y037952D01*
X037055Y037951D01*
X037021Y037948D01*
X036992Y037943D01*
X036966Y037936D01*
X036944Y037927D01*
X036926Y037916D01*
X036912Y037903D01*
X036902Y037889D01*
X036896Y037872D01*
X036894Y037853D01*
Y038247D01*
X036896Y038228D01*
D02*
G37*
G36*
X030726Y037996D02*
X030729Y037987D01*
X030734Y03798D01*
X030742Y037973D01*
X030751Y037968D01*
X030762Y037963D01*
X030776Y03796D01*
X030791Y037957D01*
X030809Y037956D01*
X030828Y037956D01*
Y037856D01*
X030809Y037855D01*
X030791Y037854D01*
X030776Y037851D01*
X030762Y037848D01*
X030751Y037843D01*
X030742Y037838D01*
X030734Y037831D01*
X030729Y037824D01*
X030726Y037815D01*
X030725Y037806D01*
Y038005D01*
X030726Y037996D01*
D02*
G37*
G36*
X074876Y038028D02*
X074882Y038011D01*
X074892Y037996D01*
X074905Y037983D01*
X074923Y037973D01*
X074945Y037964D01*
X07497Y037957D01*
X075Y037952D01*
X075029Y037949D01*
X075103Y037954D01*
X075124Y037958D01*
X075142Y037962D01*
X075156Y037967D01*
X075166Y037972D01*
X075172Y037979D01*
X075174Y037986D01*
Y037713D01*
X075172Y03772D01*
X075166Y037727D01*
X075156Y037732D01*
X075142Y037737D01*
X075124Y037742D01*
X075103Y037745D01*
X075077Y037748D01*
X075031Y03775D01*
X075Y037747D01*
X07497Y037742D01*
X074945Y037735D01*
X074923Y037727D01*
X074905Y037716D01*
X074892Y037703D01*
X074882Y037688D01*
X074876Y037671D01*
X074874Y037653D01*
Y038046D01*
X074876Y038028D01*
D02*
G37*
G36*
X070094Y03796D02*
X070111Y037947D01*
X070128Y037936D01*
X070147Y037926D01*
X070166Y037918D01*
X070187Y037911D01*
X070209Y037905D01*
X070231Y037901D01*
X070255Y037899D01*
X07028Y037898D01*
Y037702D01*
X070255Y037701D01*
X070231Y037699D01*
X070209Y037695D01*
X070187Y037689D01*
X070166Y037682D01*
X070147Y037674D01*
X070128Y037664D01*
X070111Y037653D01*
X070094Y03764D01*
X070079Y037625D01*
Y037975D01*
X070094Y03796D01*
D02*
G37*
G36*
X074327Y037603D02*
X074325Y037622D01*
X074319Y037639D01*
X07431Y037653D01*
X074296Y037666D01*
X074278Y037677D01*
X074256Y037686D01*
X07423Y037693D01*
X074201Y037698D01*
X074167Y037701D01*
X074129Y037702D01*
Y037898D01*
X074167Y037899D01*
X074201Y037902D01*
X07423Y037907D01*
X074256Y037914D01*
X074278Y037923D01*
X074296Y037934D01*
X07431Y037947D01*
X074319Y037961D01*
X074325Y037978D01*
X074327Y037997D01*
Y037603D01*
D02*
G37*
G36*
X035971Y037775D02*
X035955Y037769D01*
X03594Y037759D01*
X035927Y037746D01*
X035916Y037728D01*
X035907Y037706D01*
X035901Y03768D01*
X035896Y037651D01*
X035893Y037617D01*
X035892Y037579D01*
X035695D01*
X035694Y037617D01*
X035691Y03765D01*
X035687Y03768D01*
X03568Y037705D01*
X035672Y037727D01*
X035662Y037745D01*
X035651Y037758D01*
X035637Y037768D01*
X035622Y037774D01*
X035604Y037776D01*
X03599Y037777D01*
X035971Y037775D01*
D02*
G37*
G36*
X038599Y037655D02*
X038602Y037621D01*
X038607Y037591D01*
X038614Y037566D01*
X038623Y037544D01*
X038634Y037526D01*
X038647Y037512D01*
X038661Y037502D01*
X038678Y037496D01*
X038697Y037494D01*
X038303D01*
X038322Y037496D01*
X038339Y037502D01*
X038353Y037512D01*
X038366Y037526D01*
X038377Y037544D01*
X038386Y037566D01*
X038393Y037591D01*
X038398Y037621D01*
X038401Y037655D01*
X038402Y037692D01*
X038598D01*
X038599Y037655D01*
D02*
G37*
G36*
X0393Y03756D02*
X0393Y037559D01*
X039388D01*
X039371Y037542D01*
X039356Y037525D01*
X039343Y037508D01*
X039332Y037491D01*
X039322Y037474D01*
X039314Y037458D01*
X039313Y037456D01*
X039318Y037448D01*
X039325Y037441D01*
X039332Y037436D01*
X039341Y037433D01*
X03935Y037432D01*
X039308D01*
X03931Y037412D01*
X039313Y037399D01*
X039316Y03739D01*
X03932Y037385D01*
X03918D01*
X039184Y03739D01*
X039187Y037399D01*
X03919Y037412D01*
X039193Y037428D01*
X039193Y037432D01*
X03915D01*
X03916Y037433D01*
X039168Y037436D01*
X039176Y037441D01*
X039182Y037448D01*
X039187Y037456D01*
X039186Y037458D01*
X039178Y037474D01*
X039168Y037491D01*
X039157Y037508D01*
X039144Y037525D01*
X039129Y037542D01*
X039112Y037559D01*
X0392D01*
X0392Y03756D01*
X0392Y037597D01*
X0393D01*
X0393Y03756D01*
D02*
G37*
G36*
X075175Y037317D02*
X075174Y037326D01*
X075171Y037335D01*
X075166Y037342D01*
X075159Y037349D01*
X07515Y037354D01*
X075138Y037359D01*
X075125Y037362D01*
X07511Y037365D01*
X075093Y037366D01*
X075074Y037367D01*
Y037467D01*
X075093Y037467D01*
X07511Y037469D01*
X075125Y037471D01*
X075138Y037475D01*
X07515Y037479D01*
X075159Y037485D01*
X075166Y037491D01*
X075171Y037499D01*
X075174Y037507D01*
X075175Y037517D01*
Y037317D01*
D02*
G37*
G36*
X030726Y037496D02*
X030729Y037487D01*
X030734Y03748D01*
X030742Y037473D01*
X030751Y037468D01*
X030762Y037463D01*
X030776Y03746D01*
X030791Y037457D01*
X030809Y037456D01*
X030828Y037456D01*
Y037356D01*
X030809Y037355D01*
X030791Y037354D01*
X030776Y037351D01*
X030762Y037348D01*
X030751Y037343D01*
X030742Y037338D01*
X030734Y037331D01*
X030729Y037324D01*
X030726Y037315D01*
X030725Y037306D01*
Y037505D01*
X030726Y037496D01*
D02*
G37*
G36*
X038776Y037479D02*
X038782Y037463D01*
X038792Y03745D01*
X038805Y037438D01*
X038823Y037428D01*
X038845Y03742D01*
X03887Y037414D01*
X0389Y037409D01*
X038933Y037407D01*
X038941Y037407D01*
X039062Y037415D01*
X039076Y037419D01*
X039086Y037423D01*
X039092Y037427D01*
X039094Y037432D01*
Y037198D01*
X039092Y0372D01*
X039086Y037202D01*
X039076Y037204D01*
X039062Y037205D01*
X038997Y037208D01*
X038951Y037209D01*
X038933Y037208D01*
X0389Y037205D01*
X03887Y0372D01*
X038845Y037193D01*
X038823Y037184D01*
X038805Y037174D01*
X038792Y037161D01*
X038782Y037146D01*
X038776Y037129D01*
X038774Y037111D01*
Y037496D01*
X038776Y037479D01*
D02*
G37*
G36*
X037055Y037147D02*
X037018Y037147D01*
X036929Y037141D01*
X036907Y037138D01*
X03689Y037134D01*
X036876Y037129D01*
X036866Y037123D01*
X03686Y037116D01*
X036858Y037109D01*
Y037343D01*
X037055Y037344D01*
Y037147D01*
D02*
G37*
G36*
X037326Y037104D02*
X037324Y037113D01*
X037318Y03712D01*
X037308Y037126D01*
X037295Y037132D01*
X037277Y037137D01*
X037255Y03714D01*
X03723Y037143D01*
X037167Y037147D01*
X037129Y037147D01*
Y037344D01*
X037167Y037345D01*
X0372Y037348D01*
X03723Y037353D01*
X037255Y03736D01*
X037277Y037369D01*
X037295Y03738D01*
X037308Y037392D01*
X037318Y037407D01*
X037324Y037424D01*
X037326Y037443D01*
Y037104D01*
D02*
G37*
G36*
X073184Y037275D02*
X073199Y037259D01*
X073215Y037245D01*
X07323Y037233D01*
X073246Y037223D01*
X073263Y037215D01*
X073279Y037208D01*
X073295Y037204D01*
X073312Y037201D01*
X073329Y0372D01*
X07332Y0371D01*
X073304Y037099D01*
X073288Y037097D01*
X073271Y037093D01*
X073254Y037087D01*
X073237Y037079D01*
X073219Y03707D01*
X073201Y03706D01*
X073183Y037047D01*
X073145Y037017D01*
X073168Y037292D01*
X073184Y037275D01*
D02*
G37*
G36*
X035893Y037126D02*
X035896Y037093D01*
X035901Y037063D01*
X035907Y037038D01*
X035916Y037016D01*
X035927Y036998D01*
X03594Y036985D01*
X035955Y036975D01*
X035971Y036969D01*
X03599Y036967D01*
X035596D01*
X035615Y036969D01*
X035632Y036975D01*
X035647Y036985D01*
X035659Y036998D01*
X03567Y037016D01*
X035679Y037038D01*
X035686Y037063D01*
X035691Y037093D01*
X035694Y037126D01*
X035695Y037164D01*
X035892D01*
X035893Y037126D01*
D02*
G37*
G36*
X035724Y036774D02*
X035716Y036779D01*
X035707Y036784D01*
X035695Y036787D01*
X035681Y036791D01*
X035665Y036794D01*
X035626Y036798D01*
X035577Y0368D01*
X03555Y0368D01*
Y0369D01*
X035577Y0369D01*
X035665Y036906D01*
X035681Y036909D01*
X035695Y036913D01*
X035707Y036916D01*
X035716Y036921D01*
X035724Y036926D01*
Y036774D01*
D02*
G37*
G36*
X023729Y036759D02*
X023718Y036746D01*
X023708Y036732D01*
X0237Y036717D01*
X023693Y036701D01*
X023688Y036684D01*
X023685Y036666D01*
X023683Y036647D01*
X023683Y036627D01*
X023685Y036605D01*
X023688Y036583D01*
X023465Y036745D01*
X02349Y036749D01*
X023535Y036759D01*
X023555Y036766D01*
X023574Y036772D01*
X023592Y03678D01*
X023608Y036788D01*
X023622Y036797D01*
X023635Y036807D01*
X023647Y036818D01*
X023729Y036759D01*
D02*
G37*
G36*
X039094Y036802D02*
Y036568D01*
X039092Y036575D01*
X039088Y036582D01*
X039081Y036588D01*
X039072Y036593D01*
X039059Y036597D01*
X039044Y0366D01*
X039027Y036603D01*
X039006Y036605D01*
X038957Y036606D01*
Y036803D01*
X039094Y036802D01*
D02*
G37*
G36*
X038227Y036374D02*
X038226Y036384D01*
X038223Y036392D01*
X038218Y0364D01*
X038211Y036406D01*
X038202Y036412D01*
X038191Y036416D01*
X038178Y03642D01*
X038163Y036422D01*
X038145Y036424D01*
X038126Y036424D01*
Y036524D01*
X038145Y036525D01*
X038163Y036526D01*
X038178Y036529D01*
X038191Y036532D01*
X038202Y036537D01*
X038211Y036542D01*
X038218Y036549D01*
X038223Y036556D01*
X038226Y036565D01*
X038227Y036574D01*
Y036374D01*
D02*
G37*
G36*
X037874Y036565D02*
X037877Y036556D01*
X037882Y036549D01*
X037889Y036542D01*
X037898Y036537D01*
X037909Y036532D01*
X037922Y036529D01*
X037937Y036526D01*
X037955Y036525D01*
X037974Y036524D01*
Y036424D01*
X037955Y036424D01*
X037937Y036422D01*
X037922Y03642D01*
X037909Y036416D01*
X037898Y036412D01*
X037889Y036406D01*
X037882Y0364D01*
X037877Y036392D01*
X037874Y036384D01*
X037873Y036374D01*
Y036574D01*
X037874Y036565D01*
D02*
G37*
G36*
X037326Y036374D02*
X037325Y036384D01*
X037322Y036392D01*
X037317Y0364D01*
X03731Y036406D01*
X037301Y036412D01*
X03729Y036416D01*
X037277Y03642D01*
X037262Y036422D01*
X037245Y036424D01*
X037226Y036424D01*
Y036524D01*
X037245Y036525D01*
X037262Y036526D01*
X037277Y036529D01*
X03729Y036532D01*
X037301Y036537D01*
X03731Y036542D01*
X037317Y036549D01*
X037322Y036556D01*
X037325Y036565D01*
X037326Y036574D01*
Y036374D01*
D02*
G37*
G36*
X036858Y036565D02*
X036861Y036556D01*
X036866Y036549D01*
X036873Y036542D01*
X036882Y036537D01*
X036893Y036532D01*
X036907Y036529D01*
X036922Y036526D01*
X036939Y036525D01*
X036958Y036524D01*
Y036424D01*
X036939Y036424D01*
X036922Y036422D01*
X036907Y03642D01*
X036893Y036416D01*
X036882Y036412D01*
X036873Y036406D01*
X036866Y0364D01*
X036861Y036392D01*
X036858Y036384D01*
X036857Y036374D01*
Y036574D01*
X036858Y036565D01*
D02*
G37*
G36*
X034878Y0363D02*
X034861Y036294D01*
X034847Y036285D01*
X034834Y036271D01*
X034823Y036253D01*
X034814Y036231D01*
X034807Y036205D01*
X034802Y036176D01*
X034799Y036142D01*
X034798Y036104D01*
X034602D01*
X034601Y036142D01*
X034598Y036176D01*
X034593Y036205D01*
X034586Y036231D01*
X034577Y036253D01*
X034566Y036271D01*
X034553Y036285D01*
X034539Y036294D01*
X034522Y0363D01*
X034503Y036302D01*
X034897D01*
X034878Y0363D01*
D02*
G37*
G36*
X034799Y035883D02*
X034802Y03585D01*
X034807Y03582D01*
X034814Y035795D01*
X034823Y035773D01*
X034833Y035755D01*
X034846Y035742D01*
X034861Y035732D01*
X034877Y035726D01*
X034896Y035724D01*
X034504D01*
X034523Y035726D01*
X034539Y035732D01*
X034554Y035742D01*
X034567Y035755D01*
X034577Y035773D01*
X034586Y035795D01*
X034593Y03582D01*
X034598Y03585D01*
X034601Y035883D01*
X034602Y035921D01*
X034798D01*
X034799Y035883D01*
D02*
G37*
G36*
X027409Y035262D02*
X027396Y035275D01*
X027381Y035287D01*
X027366Y035297D01*
X027351Y035306D01*
X027335Y035314D01*
X027319Y03532D01*
X027302Y035325D01*
X027284Y035328D01*
X027266Y03533D01*
X027247Y035331D01*
Y035469D01*
X027266Y03547D01*
X027284Y035472D01*
X027302Y035475D01*
X027319Y03548D01*
X027335Y035486D01*
X027351Y035494D01*
X027366Y035503D01*
X027381Y035513D01*
X027396Y035525D01*
X027409Y035538D01*
Y035262D01*
D02*
G37*
G36*
X033977Y035174D02*
X033961Y035168D01*
X033946Y035158D01*
X033933Y035145D01*
X033923Y035127D01*
X033914Y035105D01*
X033907Y03508D01*
X033902Y03505D01*
X033901Y035038D01*
X033902Y035029D01*
X033905Y035012D01*
X033908Y034997D01*
X033913Y034983D01*
X033918Y03497D01*
X033924Y034959D01*
X03393Y034949D01*
X033938Y034941D01*
X033662Y034941D01*
X03367Y034949D01*
X033676Y034959D01*
X033682Y03497D01*
X033687Y034983D01*
X033692Y034997D01*
X033695Y035012D01*
X033698Y035029D01*
X033699Y035037D01*
X033698Y03505D01*
X033693Y03508D01*
X033686Y035105D01*
X033677Y035127D01*
X033667Y035145D01*
X033654Y035158D01*
X033639Y035168D01*
X033623Y035174D01*
X033604Y035176D01*
X033996D01*
X033977Y035174D01*
D02*
G37*
G36*
X036074Y033737D02*
X036079Y033725D01*
X036086Y033713D01*
X036097Y033703D01*
X036111Y033695D01*
X036128Y033688D01*
X036148Y033683D01*
X036171Y033679D01*
X036183Y033678D01*
X036188Y033678D01*
X036206Y033681D01*
X036223Y033686D01*
X036239Y033691D01*
X036255Y033698D01*
X03627Y033706D01*
X036284Y033716D01*
X036297Y033726D01*
X036309Y033738D01*
Y033462D01*
X036297Y033474D01*
X036284Y033484D01*
X03627Y033494D01*
X036255Y033502D01*
X036239Y033509D01*
X036223Y033514D01*
X036206Y033519D01*
X036188Y033522D01*
X036183Y033522D01*
X036171Y033521D01*
X036148Y033517D01*
X036128Y033512D01*
X036111Y033505D01*
X036097Y033497D01*
X036086Y033487D01*
X036079Y033475D01*
X036074Y033463D01*
X036073Y033448D01*
Y033752D01*
X036074Y033737D01*
D02*
G37*
G36*
X048111Y033305D02*
X048087Y033266D01*
X048066Y033223D01*
X048047Y033176D01*
X048032Y033126D01*
X048019Y033073D01*
X048009Y033016D01*
X048002Y032956D01*
X047997Y032824D01*
X047603D01*
X047602Y032892D01*
X047591Y033016D01*
X047581Y033073D01*
X047568Y033126D01*
X047553Y033176D01*
X047534Y033223D01*
X047513Y033266D01*
X047489Y033305D01*
X047463Y033341D01*
X048137D01*
X048111Y033305D01*
D02*
G37*
G36*
X030726Y032996D02*
X030729Y032987D01*
X030734Y03298D01*
X030742Y032973D01*
X030751Y032968D01*
X030762Y032963D01*
X030776Y03296D01*
X030791Y032957D01*
X030809Y032956D01*
X030828Y032956D01*
Y032856D01*
X030809Y032855D01*
X030791Y032854D01*
X030776Y032851D01*
X030762Y032848D01*
X030751Y032843D01*
X030742Y032838D01*
X030734Y032831D01*
X030729Y032824D01*
X030726Y032815D01*
X030725Y032806D01*
Y033005D01*
X030726Y032996D01*
D02*
G37*
G36*
X035Y032878D02*
X035006Y032861D01*
X035016Y032847D01*
X035029Y032834D01*
X035047Y032823D01*
X035069Y032814D01*
X035095Y032807D01*
X035124Y032802D01*
X035158Y032799D01*
X035196Y032798D01*
Y032602D01*
X035158Y032601D01*
X035125Y032598D01*
X035095Y032593D01*
X03507Y032587D01*
X035048Y032579D01*
X03503Y032569D01*
X035017Y032557D01*
X035007Y032544D01*
X035001Y032528D01*
X034999Y032511D01*
X034998Y032897D01*
X035Y032878D01*
D02*
G37*
G36*
X035526Y032504D02*
X035524Y032523D01*
X035518Y032539D01*
X035508Y032554D01*
X035495Y032567D01*
X035477Y032577D01*
X035455Y032586D01*
X03543Y032593D01*
X0354Y032598D01*
X035367Y032601D01*
X035329Y032602D01*
Y032798D01*
X035367Y032799D01*
X0354Y032802D01*
X03543Y032807D01*
X035455Y032814D01*
X035477Y032823D01*
X035495Y032833D01*
X035508Y032846D01*
X035518Y032861D01*
X035524Y032877D01*
X035526Y032896D01*
Y032504D01*
D02*
G37*
G36*
X046598Y032808D02*
X046609Y032684D01*
X046619Y032627D01*
X046632Y032574D01*
X046647Y032524D01*
X046666Y032477D01*
X046687Y032434D01*
X046711Y032395D01*
X046737Y032359D01*
X046063D01*
X046089Y032395D01*
X046113Y032434D01*
X046134Y032477D01*
X046153Y032524D01*
X046168Y032574D01*
X046181Y032627D01*
X046191Y032684D01*
X046198Y032744D01*
X046203Y032876D01*
X046597D01*
X046598Y032808D01*
D02*
G37*
G36*
X030726Y032496D02*
X030729Y032487D01*
X030734Y03248D01*
X030742Y032473D01*
X030751Y032468D01*
X030762Y032463D01*
X030776Y03246D01*
X030791Y032457D01*
X030809Y032456D01*
X030828Y032456D01*
Y032356D01*
X030809Y032355D01*
X030791Y032354D01*
X030776Y032351D01*
X030762Y032348D01*
X030751Y032343D01*
X030742Y032338D01*
X030734Y032331D01*
X030729Y032324D01*
X030726Y032315D01*
X030725Y032306D01*
Y032505D01*
X030726Y032496D01*
D02*
G37*
G36*
X036436Y029588D02*
X036427Y029596D01*
X036417Y029603D01*
X036406Y029608D01*
X036393Y029614D01*
X036379Y029618D01*
X036364Y029621D01*
X036347Y029624D01*
X036328Y029626D01*
X036288Y029628D01*
Y029825D01*
X036309Y029825D01*
X036347Y029828D01*
X036364Y029831D01*
X036379Y029834D01*
X036393Y029839D01*
X036406Y029844D01*
X036417Y02985D01*
X036427Y029856D01*
X036436Y029864D01*
Y029588D01*
D02*
G37*
G36*
X039375Y029696D02*
X039363Y029681D01*
X039353Y029666D01*
X039344Y029651D01*
X039336Y029635D01*
X03933Y029619D01*
X039325Y029602D01*
X039322Y029584D01*
X03932Y029566D01*
X039319Y029547D01*
X039181D01*
X03918Y029566D01*
X039178Y029584D01*
X039175Y029602D01*
X03917Y029619D01*
X039164Y029635D01*
X039156Y029651D01*
X039147Y029666D01*
X039137Y029681D01*
X039125Y029696D01*
X039112Y029709D01*
X039388D01*
X039375Y029696D01*
D02*
G37*
G36*
X036049Y029904D02*
X036055Y029888D01*
X036065Y029873D01*
X036078Y02986D01*
X036096Y029849D01*
X036118Y02984D01*
X036143Y029833D01*
X036173Y029829D01*
X036206Y029826D01*
X036244Y029825D01*
Y029628D01*
X036206Y029627D01*
X036173Y029624D01*
X036143Y029619D01*
X036118Y029612D01*
X036096Y029603D01*
X036078Y029592D01*
X036065Y029579D01*
X036055Y029565D01*
X036049Y029548D01*
X036047Y029529D01*
Y029923D01*
X036049Y029904D01*
D02*
G37*
G36*
X033122Y029308D02*
X033121Y029318D01*
X033118Y029326D01*
X033113Y029334D01*
X033106Y02934D01*
X033097Y029346D01*
X033085Y02935D01*
X033072Y029354D01*
X033057Y029356D01*
X03304Y029358D01*
X033021Y029358D01*
Y029458D01*
X03304Y029459D01*
X033057Y02946D01*
X033072Y029463D01*
X033085Y029466D01*
X033097Y029471D01*
X033106Y029476D01*
X033113Y029483D01*
X033118Y02949D01*
X033121Y029499D01*
X033122Y029508D01*
Y029308D01*
D02*
G37*
G36*
X034931Y02957D02*
X034937Y029557D01*
X034947Y029545D01*
X034961Y029535D01*
X034979Y029526D01*
X035Y029519D01*
X035026Y029514D01*
X035055Y02951D01*
X035089Y029508D01*
X035126Y029507D01*
Y02931D01*
X035089Y029309D01*
X035026Y029303D01*
X035Y029298D01*
X034979Y029291D01*
X034961Y029282D01*
X034947Y029272D01*
X034937Y02926D01*
X034931Y029247D01*
X034929Y029232D01*
Y029584D01*
X034931Y02957D01*
D02*
G37*
G36*
X020059Y028862D02*
X020042Y028879D01*
X020025Y028894D01*
X020008Y028907D01*
X019991Y028918D01*
X019974Y028928D01*
X019958Y028936D01*
X019941Y028942D01*
X019924Y028946D01*
X019908Y028949D01*
X019891Y02895D01*
Y02905D01*
X019908Y029051D01*
X019924Y029054D01*
X019941Y029058D01*
X019958Y029064D01*
X019974Y029072D01*
X019991Y029082D01*
X020008Y029093D01*
X020025Y029106D01*
X020042Y029121D01*
X020059Y029138D01*
Y028862D01*
D02*
G37*
G36*
X0354Y029328D02*
X035479Y029261D01*
X035513Y029237D01*
X035543Y029219D01*
X035568Y029209D01*
X035591Y029204D01*
X035609Y029207D01*
X035623Y029216D01*
X035634Y029232D01*
X03546Y028851D01*
X035466Y028872D01*
X035465Y028895D01*
X035459Y028922D01*
X035447Y028952D01*
X035429Y028985D01*
X035405Y029022D01*
X035375Y029061D01*
X035298Y02915D01*
X03525Y029199D01*
X035355Y029372D01*
X0354Y029328D01*
D02*
G37*
G36*
X033122Y028751D02*
X033121Y028761D01*
X033118Y028769D01*
X033113Y028777D01*
X033106Y028783D01*
X033097Y028789D01*
X033085Y028793D01*
X033072Y028797D01*
X033057Y028799D01*
X03304Y028801D01*
X033021Y028801D01*
Y028901D01*
X03304Y028902D01*
X033057Y028903D01*
X033072Y028906D01*
X033085Y028909D01*
X033097Y028914D01*
X033106Y028919D01*
X033113Y028926D01*
X033118Y028933D01*
X033121Y028942D01*
X033122Y028951D01*
Y028751D01*
D02*
G37*
G36*
X034342Y02875D02*
X034341Y02876D01*
X034338Y028768D01*
X034333Y028776D01*
X034326Y028782D01*
X034317Y028788D01*
X034306Y028792D01*
X034293Y028796D01*
X034278Y028798D01*
X03426Y0288D01*
X034241Y0288D01*
Y0289D01*
X03426Y028901D01*
X034278Y028902D01*
X034293Y028905D01*
X034306Y028908D01*
X034317Y028913D01*
X034326Y028918D01*
X034333Y028925D01*
X034338Y028932D01*
X034341Y028941D01*
X034342Y02895D01*
Y02875D01*
D02*
G37*
G36*
X025959Y027962D02*
X025942Y027979D01*
X025925Y027994D01*
X025908Y028007D01*
X025891Y028018D01*
X025874Y028028D01*
X025858Y028036D01*
X025841Y028042D01*
X025824Y028046D01*
X025808Y028049D01*
X025791Y02805D01*
Y02815D01*
X025808Y028151D01*
X025824Y028154D01*
X025841Y028158D01*
X025858Y028164D01*
X025874Y028172D01*
X025891Y028182D01*
X025908Y028193D01*
X025925Y028206D01*
X025942Y028221D01*
X025959Y028238D01*
Y027962D01*
D02*
G37*
G36*
X015908Y028221D02*
X015925Y028206D01*
X015942Y028193D01*
X015959Y028182D01*
X015976Y028172D01*
X015992Y028164D01*
X016009Y028158D01*
X016026Y028154D01*
X016042Y028151D01*
X016059Y02815D01*
Y02805D01*
X016042Y028049D01*
X016026Y028046D01*
X016009Y028042D01*
X015992Y028036D01*
X015976Y028028D01*
X015959Y028018D01*
X015942Y028007D01*
X015925Y027994D01*
X015908Y027979D01*
X015891Y027962D01*
Y028238D01*
X015908Y028221D01*
D02*
G37*
G36*
X019759Y027012D02*
X019751Y02702D01*
X019741Y027026D01*
X01973Y027032D01*
X019717Y027037D01*
X019703Y027042D01*
X019688Y027045D01*
X019671Y027048D01*
X019652Y02705D01*
X019611Y027052D01*
Y027248D01*
X019633Y027249D01*
X019671Y027252D01*
X019688Y027255D01*
X019703Y027258D01*
X019717Y027263D01*
X01973Y027268D01*
X019741Y027274D01*
X019751Y02728D01*
X019759Y027288D01*
Y027012D01*
D02*
G37*
G36*
X015949Y02728D02*
X015959Y027274D01*
X01597Y027268D01*
X015983Y027263D01*
X015997Y027258D01*
X016012Y027255D01*
X016029Y027252D01*
X016048Y02725D01*
X016089Y027248D01*
Y027052D01*
X016067Y027051D01*
X016029Y027048D01*
X016012Y027045D01*
X015997Y027042D01*
X015983Y027037D01*
X01597Y027032D01*
X015959Y027026D01*
X015949Y02702D01*
X015941Y027012D01*
Y027288D01*
X015949Y02728D01*
D02*
G37*
G36*
X011599Y02673D02*
X011609Y026724D01*
X01162Y026718D01*
X011633Y026713D01*
X011647Y026708D01*
X011662Y026705D01*
X011679Y026702D01*
X011698Y0267D01*
X011739Y026698D01*
Y026502D01*
X011717Y026501D01*
X011679Y026498D01*
X011662Y026495D01*
X011647Y026492D01*
X011633Y026487D01*
X01162Y026482D01*
X011609Y026476D01*
X011599Y02647D01*
X011591Y026462D01*
Y026738D01*
X011599Y02673D01*
D02*
G37*
G36*
X017331Y026309D02*
X01736Y026284D01*
X017374Y026274D01*
X017387Y026266D01*
X0174Y026259D01*
X017413Y026254D01*
X017425Y02625D01*
X017437Y026248D01*
X017448Y026247D01*
X017253Y026052D01*
X017252Y026063D01*
X01725Y026075D01*
X017246Y026087D01*
X017241Y0261D01*
X017234Y026113D01*
X017226Y026126D01*
X017216Y02614D01*
X017204Y026154D01*
X017176Y026184D01*
X017316Y026324D01*
X017331Y026309D01*
D02*
G37*
G36*
X036825Y026127D02*
X03681Y026111D01*
X036797Y026094D01*
X036786Y026075D01*
X036776Y026055D01*
X036768Y026033D01*
X036761Y02601D01*
X036756Y025985D01*
X036753Y025959D01*
X03675Y025931D01*
X03675Y025903D01*
X036675Y025977D01*
X036598Y0259D01*
X0365Y025998D01*
X036502Y026D01*
X036523Y026021D01*
X036577Y026075D01*
X036577Y026075D01*
X036502Y02615D01*
X036531Y02615D01*
X036559Y026153D01*
X036585Y026156D01*
X03661Y026161D01*
X036633Y026168D01*
X036655Y026176D01*
X036675Y026186D01*
X036694Y026197D01*
X036711Y02621D01*
X036727Y026225D01*
X036825Y026127D01*
D02*
G37*
G36*
X014601Y025859D02*
X0146Y025859D01*
X014597Y025856D01*
X01458Y02584D01*
X01452Y02578D01*
X01438Y02592D01*
X014459Y026001D01*
X014601Y025859D01*
D02*
G37*
G36*
X018648Y026037D02*
X01865Y026025D01*
X018654Y026013D01*
X018659Y026D01*
X018666Y025987D01*
X018674Y025974D01*
X018684Y02596D01*
X018696Y025946D01*
X018724Y025916D01*
X018584Y025776D01*
X018569Y025791D01*
X01854Y025816D01*
X018526Y025826D01*
X018513Y025834D01*
X0185Y025841D01*
X018487Y025846D01*
X018475Y02585D01*
X018463Y025852D01*
X018452Y025853D01*
X018647Y026048D01*
X018648Y026037D01*
D02*
G37*
G36*
X018448Y025853D02*
X018437Y025852D01*
X018425Y02585D01*
X018413Y025846D01*
X0184Y025841D01*
X018387Y025834D01*
X018374Y025826D01*
X01836Y025816D01*
X018346Y025804D01*
X018316Y025776D01*
X018176Y025916D01*
X018191Y025931D01*
X018216Y02596D01*
X018226Y025974D01*
X018234Y025987D01*
X018241Y026D01*
X018246Y026013D01*
X01825Y026025D01*
X018252Y026037D01*
X018253Y026048D01*
X018448Y025853D01*
D02*
G37*
G36*
X036126Y026077D02*
X036132Y026061D01*
X036142Y026046D01*
X036155Y026033D01*
X036173Y026023D01*
X036195Y026014D01*
X03621Y02601D01*
X036213Y026011D01*
X036234Y026018D01*
X036253Y026026D01*
X036272Y026036D01*
X036289Y026047D01*
X036306Y02606D01*
X036321Y026075D01*
X036321Y025725D01*
X036306Y02574D01*
X036289Y025753D01*
X036272Y025764D01*
X036253Y025774D01*
X036234Y025782D01*
X036213Y025789D01*
X03621Y02579D01*
X036195Y025786D01*
X036173Y025777D01*
X036155Y025767D01*
X036142Y025754D01*
X036132Y025739D01*
X036126Y025723D01*
X036124Y025704D01*
Y025801D01*
X03612Y025802D01*
X03612Y025998D01*
X036124Y025999D01*
Y026096D01*
X036126Y026077D01*
D02*
G37*
G36*
X0422Y0257D02*
X041Y0257D01*
X040998Y03305D01*
X0373Y03305D01*
Y0343D01*
X0422D01*
Y0257D01*
D02*
G37*
G36*
X022609Y025612D02*
X022601Y02562D01*
X022591Y025626D01*
X02258Y025632D01*
X022567Y025637D01*
X022553Y025642D01*
X022538Y025645D01*
X022521Y025648D01*
X022502Y02565D01*
X022461Y025652D01*
Y025848D01*
X022483Y025849D01*
X022521Y025852D01*
X022538Y025855D01*
X022553Y025858D01*
X022567Y025863D01*
X02258Y025868D01*
X022591Y025874D01*
X022601Y02588D01*
X022609Y025888D01*
Y025612D01*
D02*
G37*
G36*
X016649Y02578D02*
X016659Y025774D01*
X01667Y025768D01*
X016683Y025763D01*
X016697Y025758D01*
X016712Y025755D01*
X016729Y025752D01*
X016748Y02575D01*
X016789Y025748D01*
Y025552D01*
X016767Y025551D01*
X016729Y025548D01*
X016712Y025545D01*
X016697Y025542D01*
X016683Y025537D01*
X01667Y025532D01*
X016659Y025526D01*
X016649Y02552D01*
X016641Y025512D01*
Y025788D01*
X016649Y02578D01*
D02*
G37*
G36*
X015349Y02568D02*
X015359Y025674D01*
X01537Y025668D01*
X015383Y025663D01*
X015397Y025658D01*
X015412Y025655D01*
X015429Y025652D01*
X015448Y02565D01*
X015489Y025648D01*
Y025452D01*
X015467Y025451D01*
X015429Y025448D01*
X015412Y025445D01*
X015397Y025442D01*
X015383Y025437D01*
X01537Y025432D01*
X015359Y025426D01*
X015349Y02542D01*
X015341Y025412D01*
Y025688D01*
X015349Y02568D01*
D02*
G37*
G36*
X035Y025277D02*
X035006Y02526D01*
X035016Y025245D01*
X035029Y025232D01*
X035047Y025221D01*
X035069Y025213D01*
X035095Y025206D01*
X035124Y025201D01*
X035158Y025198D01*
X035196Y025197D01*
Y025D01*
X035158Y024999D01*
X035095Y024994D01*
X03507Y024989D01*
X035048Y024983D01*
X03503Y024975D01*
X035017Y024966D01*
X035007Y024956D01*
X035001Y024944D01*
X034999Y024931D01*
X034998Y025295D01*
X035Y025277D01*
D02*
G37*
G36*
X035576Y025196D02*
Y024902D01*
X035574Y02492D01*
X035568Y024937D01*
X035558Y024952D01*
X035545Y024965D01*
X035527Y024975D01*
X035505Y024984D01*
X03548Y024991D01*
X03545Y024996D01*
X035417Y024999D01*
X035379Y025D01*
Y025197D01*
X035576Y025196D01*
D02*
G37*
G36*
X025959Y024862D02*
X025942Y024879D01*
X025925Y024894D01*
X025908Y024907D01*
X025891Y024918D01*
X025874Y024928D01*
X025858Y024936D01*
X025841Y024942D01*
X025824Y024946D01*
X025808Y024949D01*
X025791Y02495D01*
Y02505D01*
X025808Y025051D01*
X025824Y025054D01*
X025841Y025058D01*
X025858Y025064D01*
X025874Y025072D01*
X025891Y025082D01*
X025908Y025093D01*
X025925Y025106D01*
X025942Y025121D01*
X025959Y025138D01*
Y024862D01*
D02*
G37*
G36*
X014549Y024917D02*
X014552Y024879D01*
X014555Y024862D01*
X014558Y024847D01*
X014563Y024833D01*
X014568Y02482D01*
X014574Y024809D01*
X01458Y024799D01*
X014588Y024791D01*
X014312D01*
X01432Y024799D01*
X014326Y024809D01*
X014332Y02482D01*
X014337Y024833D01*
X014342Y024847D01*
X014345Y024862D01*
X014348Y024879D01*
X01435Y024898D01*
X014352Y024939D01*
X014548D01*
X014549Y024917D01*
D02*
G37*
G36*
X013085Y024538D02*
X013068Y024555D01*
X013051Y02457D01*
X013034Y024583D01*
X013017Y024594D01*
X013Y024604D01*
X012984Y024612D01*
X012967Y024618D01*
X01295Y024622D01*
X012934Y024625D01*
X012917Y024626D01*
Y024726D01*
X012934Y024727D01*
X01295Y024729D01*
X012967Y024734D01*
X012984Y02474D01*
X013Y024748D01*
X013017Y024758D01*
X013034Y024769D01*
X013051Y024782D01*
X013068Y024797D01*
X013085Y024814D01*
Y024538D01*
D02*
G37*
G36*
X017698Y024589D02*
X017687Y024576D01*
X017677Y024563D01*
X017668Y024548D01*
X017661Y024532D01*
X017654Y024515D01*
X017649Y024496D01*
X017646Y024476D01*
X017643Y024454D01*
X017641Y024432D01*
X017641Y024408D01*
X017446Y024603D01*
X01747Y024603D01*
X017493Y024605D01*
X017514Y024607D01*
X017534Y024611D01*
X017553Y024616D01*
X01757Y024623D01*
X017586Y02463D01*
X017601Y024639D01*
X017615Y024648D01*
X017627Y024659D01*
X017698Y024589D01*
D02*
G37*
G36*
X037248Y0242D02*
X037226Y024199D01*
X037205Y024197D01*
X037185Y024193D01*
X037165Y024186D01*
X037145Y024179D01*
X037125Y024169D01*
X037106Y024157D01*
X037087Y024144D01*
X037069Y024129D01*
X037051Y024112D01*
X036912Y024251D01*
X036929Y024269D01*
X036944Y024287D01*
X036957Y024306D01*
X036969Y024325D01*
X036979Y024345D01*
X036986Y024365D01*
X036993Y024385D01*
X036997Y024405D01*
X036999Y024426D01*
X037Y024448D01*
X037248Y0242D01*
D02*
G37*
G36*
X016249Y023917D02*
X016252Y023879D01*
X016255Y023862D01*
X016258Y023847D01*
X016263Y023833D01*
X016268Y02382D01*
X016274Y023809D01*
X01628Y023799D01*
X016288Y023791D01*
X016012D01*
X01602Y023799D01*
X016026Y023809D01*
X016032Y02382D01*
X016037Y023833D01*
X016042Y023847D01*
X016045Y023862D01*
X016048Y023879D01*
X01605Y023898D01*
X016052Y023939D01*
X016248D01*
X016249Y023917D01*
D02*
G37*
G36*
X035999Y022505D02*
X036002Y022471D01*
X036007Y022441D01*
X036014Y022416D01*
X036023Y022394D01*
X036034Y022376D01*
X036047Y022362D01*
X036061Y022352D01*
X036078Y022346D01*
X036097Y022344D01*
X035703D01*
X035722Y022346D01*
X035739Y022352D01*
X035753Y022362D01*
X035766Y022376D01*
X035777Y022394D01*
X035786Y022416D01*
X035793Y022441D01*
X035798Y022471D01*
X035801Y022505D01*
X035802Y022543D01*
X035998D01*
X035999Y022505D01*
D02*
G37*
G36*
X035Y021428D02*
X035006Y021411D01*
X035016Y021397D01*
X035029Y021384D01*
X035047Y021373D01*
X035069Y021364D01*
X035095Y021357D01*
X035124Y021352D01*
X035158Y021349D01*
X035196Y021348D01*
Y021152D01*
X034999Y021141D01*
X034998Y021447D01*
X035Y021428D01*
D02*
G37*
G36*
X043545Y021074D02*
X043525Y021053D01*
X043493Y021016D01*
X043482Y021D01*
X043473Y020985D01*
X043467Y020972D01*
X043464Y02096D01*
X043464Y020949D01*
X043467Y02094D01*
X043473Y020932D01*
X043332Y021073D01*
X04334Y021067D01*
X043349Y021064D01*
X04336Y021064D01*
X043372Y021067D01*
X043385Y021073D01*
X0434Y021082D01*
X043416Y021093D01*
X043434Y021107D01*
X043474Y021145D01*
X043545Y021074D01*
D02*
G37*
G36*
X035626Y021054D02*
X035624Y021073D01*
X035618Y021089D01*
X035608Y021104D01*
X035595Y021117D01*
X035577Y021127D01*
X035555Y021136D01*
X03553Y021143D01*
X0355Y021148D01*
X035467Y021151D01*
X035429Y021152D01*
Y021348D01*
X035467Y021349D01*
X0355Y021352D01*
X03553Y021357D01*
X035555Y021364D01*
X035577Y021373D01*
X035595Y021383D01*
X035608Y021396D01*
X035618Y021411D01*
X035624Y021427D01*
X035626Y021446D01*
Y021054D01*
D02*
G37*
G36*
X033528Y02114D02*
X033511Y021134D01*
X033497Y021125D01*
X033484Y021111D01*
X033473Y021093D01*
X033464Y021071D01*
X033457Y021045D01*
X033452Y021016D01*
X033449Y020982D01*
X033448Y020944D01*
X033252D01*
X033251Y020982D01*
X033248Y021016D01*
X033243Y021045D01*
X033236Y021071D01*
X033227Y021093D01*
X033216Y021111D01*
X033203Y021125D01*
X033189Y021134D01*
X033172Y02114D01*
X033153Y021142D01*
X033547D01*
X033528Y02114D01*
D02*
G37*
G36*
X033449Y020855D02*
X033451Y020831D01*
X033455Y020809D01*
X033461Y020787D01*
X033468Y020766D01*
X033476Y020747D01*
X033486Y020728D01*
X033497Y020711D01*
X03351Y020694D01*
X033525Y020679D01*
X033175D01*
X03319Y020694D01*
X033203Y020711D01*
X033214Y020728D01*
X033224Y020747D01*
X033232Y020766D01*
X033239Y020787D01*
X033245Y020809D01*
X033249Y020831D01*
X033251Y020855D01*
X033252Y02088D01*
X033448D01*
X033449Y020855D01*
D02*
G37*
G36*
X02549Y020608D02*
X025473Y020621D01*
X025455Y020633D01*
X025437Y020643D01*
X025417Y020652D01*
X025397Y020659D01*
X025376Y020666D01*
X025354Y02067D01*
X025331Y020674D01*
X025307Y020676D01*
X025283Y020677D01*
X025261Y020873D01*
X025286Y020874D01*
X02531Y020877D01*
X025332Y020881D01*
X025353Y020887D01*
X025373Y020894D01*
X025392Y020903D01*
X02541Y020914D01*
X025426Y020926D01*
X025441Y020941D01*
X025455Y020956D01*
X02549Y020608D01*
D02*
G37*
G36*
X022627Y020929D02*
X022645Y020917D01*
X022663Y020907D01*
X022683Y020898D01*
X022703Y020891D01*
X022724Y020884D01*
X022746Y02088D01*
X022769Y020876D01*
X022793Y020874D01*
X022817Y020873D01*
X022839Y020677D01*
X022814Y020676D01*
X02279Y020673D01*
X022768Y020669D01*
X022747Y020663D01*
X022727Y020656D01*
X022708Y020647D01*
X02269Y020636D01*
X022674Y020624D01*
X022659Y020609D01*
X022645Y020594D01*
X02261Y020942D01*
X022627Y020929D01*
D02*
G37*
G36*
X044924Y020518D02*
X044926Y020511D01*
X044931Y020504D01*
X044938Y020499D01*
X044946Y020494D01*
X044956Y02049D01*
X044969Y020487D01*
X044983Y020485D01*
X044999Y020484D01*
X045016Y020484D01*
Y020384D01*
X044999Y020383D01*
X044983Y020382D01*
X044969Y02038D01*
X044956Y020377D01*
X044946Y020373D01*
X044938Y020368D01*
X044931Y020363D01*
X044926Y020356D01*
X044924Y020349D01*
X044923Y020341D01*
Y020526D01*
X044924Y020518D01*
D02*
G37*
G36*
X055035Y020031D02*
X054969Y020019D01*
X054759Y019968D01*
X054721Y019955D01*
X054688Y019941D01*
X05466Y019928D01*
X054638Y019914D01*
X054621Y0199D01*
X054537Y019958D01*
X054555Y019979D01*
X05457Y020005D01*
X054583Y020034D01*
X054591Y020067D01*
X054597Y020103D01*
X0546Y020144D01*
X0546Y020188D01*
X054596Y020236D01*
X05459Y020287D01*
X05458Y020342D01*
X055035Y020031D01*
D02*
G37*
G36*
X028704Y019449D02*
X028699Y019487D01*
X028687Y01952D01*
X028666Y019549D01*
X028638Y019575D01*
X0286Y019597D01*
X028555Y019614D01*
X028501Y019628D01*
X028439Y019638D01*
X028369Y019644D01*
X028291Y019646D01*
Y020039D01*
X028369Y020041D01*
X028439Y020047D01*
X028501Y020057D01*
X028555Y020071D01*
X0286Y020089D01*
X028638Y02011D01*
X028666Y020136D01*
X028687Y020165D01*
X028699Y020199D01*
X028704Y020236D01*
Y019449D01*
D02*
G37*
G36*
X014553Y019176D02*
X014562Y019169D01*
X014574Y019163D01*
X014586Y019158D01*
X0146Y019153D01*
X014616Y019149D01*
X014633Y019147D01*
X014651Y019144D01*
X014692Y019143D01*
X014685Y018946D01*
X014664Y018946D01*
X014626Y018943D01*
X014609Y01894D01*
X014593Y018937D01*
X014579Y018932D01*
X014566Y018927D01*
X014555Y018922D01*
X014545Y018915D01*
X014537Y018908D01*
X014544Y019184D01*
X014553Y019176D01*
D02*
G37*
G36*
X016217Y018905D02*
X016208Y018913D01*
X016199Y01892D01*
X016188Y018926D01*
X016175Y018931D01*
X016161Y018936D01*
X016146Y018939D01*
X016129Y018942D01*
X01611Y018944D01*
X01607Y018946D01*
X016076Y019143D01*
X016097Y019143D01*
X016135Y019146D01*
X016152Y019149D01*
X016168Y019152D01*
X016182Y019156D01*
X016195Y019161D01*
X016206Y019167D01*
X016216Y019173D01*
X016225Y019181D01*
X016217Y018905D01*
D02*
G37*
G36*
X053947Y018618D02*
X053965Y018594D01*
X053985Y018572D01*
X054005Y018553D01*
X054027Y018537D01*
X054049Y018523D01*
X054073Y018513D01*
X054098Y018506D01*
X054123Y018501D01*
X05415Y0185D01*
Y0184D01*
X054123Y018399D01*
X054098Y018394D01*
X054073Y018387D01*
X054049Y018377D01*
X054027Y018363D01*
X054005Y018347D01*
X053985Y018328D01*
X053965Y018306D01*
X053947Y018282D01*
X05393Y018254D01*
Y018646D01*
X053947Y018618D01*
D02*
G37*
G36*
X033052Y017991D02*
X033062Y017986D01*
X033079Y01798D01*
X033096Y017975D01*
X033113Y017972D01*
X033131Y01797D01*
X03315Y017969D01*
Y017831D01*
X033131Y01783D01*
X033113Y017828D01*
X033096Y017825D01*
X033079Y01782D01*
X033062Y017814D01*
X033052Y017809D01*
Y017762D01*
X033051Y017775D01*
X033047Y017787D01*
X03304Y017797D01*
X033036Y017801D01*
X033031Y017797D01*
X033016Y017787D01*
X033002Y017775D01*
X032988Y017762D01*
Y017824D01*
X032984Y017825D01*
X032963Y017828D01*
X03294Y01783D01*
X032913Y017831D01*
Y017969D01*
X03294Y01797D01*
X032963Y017972D01*
X032984Y017975D01*
X032988Y017976D01*
Y018038D01*
X033002Y018025D01*
X033016Y018013D01*
X033031Y018003D01*
X033036Y017999D01*
X03304Y018003D01*
X033047Y018013D01*
X033051Y018025D01*
X033052Y018038D01*
Y017991D01*
D02*
G37*
G36*
X035676Y017754D02*
X035674Y017773D01*
X035668Y017789D01*
X035658Y017804D01*
X035645Y017817D01*
X035627Y017827D01*
X035605Y017836D01*
X03558Y017843D01*
X03555Y017848D01*
X035517Y017851D01*
X035479Y017852D01*
Y018048D01*
X035517Y018049D01*
X03555Y018052D01*
X03558Y018057D01*
X035605Y018064D01*
X035627Y018073D01*
X035645Y018083D01*
X035658Y018096D01*
X035668Y018111D01*
X035674Y018127D01*
X035676Y018146D01*
Y017754D01*
D02*
G37*
G36*
X035Y018128D02*
X035006Y018111D01*
X035015Y018097D01*
X035029Y018084D01*
X035047Y018073D01*
X035069Y018064D01*
X035095Y018057D01*
X035124Y018052D01*
X035158Y018049D01*
X035196Y018048D01*
Y017852D01*
X035158Y017851D01*
X035124Y017848D01*
X035095Y017843D01*
X035069Y017836D01*
X035047Y017827D01*
X035029Y017816D01*
X035015Y017803D01*
X035006Y017789D01*
X035Y017772D01*
X034998Y017753D01*
Y018147D01*
X035Y018128D01*
D02*
G37*
G36*
X015958Y017771D02*
X015975Y017756D01*
X015992Y017743D01*
X016009Y017732D01*
X016026Y017722D01*
X016042Y017714D01*
X016059Y017708D01*
X016076Y017704D01*
X016092Y017701D01*
X016109Y0177D01*
Y0176D01*
X016092Y017599D01*
X016076Y017596D01*
X016059Y017592D01*
X016042Y017586D01*
X016026Y017578D01*
X016009Y017568D01*
X015992Y017557D01*
X015975Y017544D01*
X015958Y017529D01*
X015941Y017512D01*
Y017788D01*
X015958Y017771D01*
D02*
G37*
G36*
X015158Y017421D02*
X015175Y017406D01*
X015192Y017393D01*
X015209Y017382D01*
X015226Y017372D01*
X015242Y017364D01*
X015259Y017358D01*
X015276Y017354D01*
X015292Y017351D01*
X015309Y01735D01*
Y01725D01*
X015292Y017249D01*
X015276Y017246D01*
X015259Y017242D01*
X015242Y017236D01*
X015226Y017228D01*
X015209Y017218D01*
X015192Y017207D01*
X015175Y017194D01*
X015158Y017179D01*
X015141Y017162D01*
Y017438D01*
X015158Y017421D01*
D02*
G37*
G36*
X015558Y017021D02*
X015575Y017006D01*
X015592Y016993D01*
X015609Y016982D01*
X015626Y016972D01*
X015642Y016964D01*
X015659Y016958D01*
X015676Y016954D01*
X015692Y016951D01*
X015709Y01695D01*
Y01685D01*
X015692Y016849D01*
X015676Y016846D01*
X015659Y016842D01*
X015642Y016836D01*
X015626Y016828D01*
X015609Y016818D01*
X015592Y016807D01*
X015575Y016794D01*
X015558Y016779D01*
X015541Y016762D01*
Y017038D01*
X015558Y017021D01*
D02*
G37*
G36*
X036128Y016854D02*
X036111Y016848D01*
X036097Y016838D01*
X036084Y016824D01*
X036073Y016806D01*
X036064Y016784D01*
X036057Y016759D01*
X036052Y016729D01*
X036049Y016695D01*
X036048Y016658D01*
X035852D01*
X035851Y016695D01*
X035848Y016729D01*
X035843Y016759D01*
X035836Y016784D01*
X035827Y016806D01*
X035816Y016824D01*
X035803Y016838D01*
X035789Y016848D01*
X035772Y016854D01*
X035753Y016856D01*
X036147D01*
X036128Y016854D01*
D02*
G37*
G36*
X027922Y016419D02*
X027935Y016404D01*
X02795Y016391D01*
X027967Y01638D01*
X027984Y01637D01*
X028004Y016362D01*
X028024Y016356D01*
X028047Y016352D01*
X02807Y016349D01*
X028095Y016348D01*
X028051Y016152D01*
X028027Y016151D01*
X02798Y016146D01*
X027958Y016142D01*
X027936Y016137D01*
X027915Y01613D01*
X027895Y016123D01*
X027876Y016114D01*
X027858Y016104D01*
X02784Y016093D01*
X02791Y016436D01*
X027922Y016419D01*
D02*
G37*
G36*
X0486Y026325D02*
X048591Y026303D01*
X045003D01*
X045Y022D01*
X04495Y02195D01*
X0418D01*
X04175Y0219D01*
X04175Y01545D01*
X03925Y01545D01*
X03925Y02455D01*
X03935Y02465D01*
X0424D01*
X04245Y0247D01*
Y02905D01*
X0486D01*
Y026325D01*
D02*
G37*
G36*
X020465Y015008D02*
X020485Y014995D01*
X020507Y014984D01*
X020532Y014975D01*
X02056Y014967D01*
X020592Y01496D01*
X020626Y014956D01*
X020704Y01495D01*
X020747Y01495D01*
X02045Y014653D01*
X02045Y014696D01*
X020444Y014774D01*
X02044Y014808D01*
X020433Y01484D01*
X020425Y014868D01*
X020416Y014893D01*
X020405Y014915D01*
X020392Y014935D01*
X020378Y014951D01*
X020449Y015022D01*
X020465Y015008D01*
D02*
G37*
G36*
X019465D02*
X019485Y014995D01*
X019507Y014984D01*
X019532Y014975D01*
X01956Y014967D01*
X019592Y01496D01*
X019626Y014956D01*
X019704Y01495D01*
X019747Y01495D01*
X01945Y014653D01*
X01945Y014696D01*
X019444Y014774D01*
X01944Y014808D01*
X019433Y01484D01*
X019425Y014868D01*
X019416Y014893D01*
X019405Y014915D01*
X019392Y014935D01*
X019378Y014951D01*
X019449Y015022D01*
X019465Y015008D01*
D02*
G37*
G36*
X018465D02*
X018485Y014995D01*
X018507Y014984D01*
X018532Y014975D01*
X01856Y014967D01*
X018592Y01496D01*
X018626Y014956D01*
X018704Y01495D01*
X018747Y01495D01*
X01845Y014653D01*
X01845Y014696D01*
X018444Y014774D01*
X01844Y014808D01*
X018433Y01484D01*
X018425Y014868D01*
X018416Y014893D01*
X018405Y014915D01*
X018392Y014935D01*
X018378Y014951D01*
X018449Y015022D01*
X018465Y015008D01*
D02*
G37*
G36*
X03461Y012813D02*
X034595Y012807D01*
X034582Y012797D01*
X034571Y012783D01*
X034561Y012766D01*
X034554Y012744D01*
X034548Y012719D01*
X034543Y012689D01*
X034541Y012656D01*
X03454Y012618D01*
X034343D01*
X034342Y012656D01*
X034337Y012719D01*
X034332Y012744D01*
X034326Y012766D01*
X034318Y012783D01*
X034309Y012797D01*
X034299Y012807D01*
X034287Y012813D01*
X034274Y012815D01*
X034626D01*
X03461Y012813D01*
D02*
G37*
G36*
X03261Y012763D02*
X032595Y012757D01*
X032582Y012747D01*
X032571Y012733D01*
X032561Y012716D01*
X032554Y012694D01*
X032548Y012669D01*
X032543Y012639D01*
X032541Y012606D01*
X03254Y012568D01*
X032343D01*
X032342Y012606D01*
X032337Y012669D01*
X032332Y012694D01*
X032326Y012716D01*
X032318Y012733D01*
X032309Y012747D01*
X032299Y012757D01*
X032287Y012763D01*
X032274Y012765D01*
X032626D01*
X03261Y012763D01*
D02*
G37*
G36*
X04058Y012724D02*
X040567Y012718D01*
X040554Y012708D01*
X040544Y012695D01*
X040535Y012677D01*
X040528Y012655D01*
X040522Y01263D01*
X040518Y0126D01*
X040516Y012567D01*
X040515Y012529D01*
X040318D01*
X040317Y012567D01*
X040314Y0126D01*
X040309Y01263D01*
X040302Y012655D01*
X040293Y012677D01*
X040283Y012695D01*
X04027Y012708D01*
X040255Y012718D01*
X040238Y012724D01*
X04022Y012726D01*
X040596D01*
X04058Y012724D01*
D02*
G37*
G36*
X03858D02*
X038567Y012718D01*
X038554Y012708D01*
X038544Y012695D01*
X038535Y012677D01*
X038528Y012655D01*
X038522Y01263D01*
X038518Y0126D01*
X038516Y012567D01*
X038515Y012529D01*
X038318D01*
X038317Y012567D01*
X038314Y0126D01*
X038309Y01263D01*
X038302Y012655D01*
X038293Y012677D01*
X038283Y012695D01*
X03827Y012708D01*
X038255Y012718D01*
X038238Y012724D01*
X03822Y012726D01*
X038596D01*
X03858Y012724D01*
D02*
G37*
G36*
X03662D02*
X036603Y012718D01*
X036588Y012708D01*
X036575Y012695D01*
X036565Y012677D01*
X036556Y012655D01*
X036549Y01263D01*
X036544Y0126D01*
X036541Y012567D01*
X03654Y012529D01*
X036343D01*
X036342Y012567D01*
X03634Y0126D01*
X036335Y01263D01*
X036329Y012655D01*
X036321Y012677D01*
X036311Y012695D01*
X0363Y012708D01*
X036286Y012718D01*
X036271Y012724D01*
X036254Y012726D01*
X036638D01*
X03662Y012724D01*
D02*
G37*
G36*
X03654Y012462D02*
X036541Y012434D01*
X036545Y012405D01*
X036551Y012377D01*
X03656Y01235D01*
X036571Y012322D01*
X036584Y012295D01*
X0366Y012269D01*
X036619Y012243D01*
X03664Y012217D01*
X036663Y012191D01*
X036215Y012203D01*
X036239Y012227D01*
X036261Y012252D01*
X03628Y012277D01*
X036297Y012302D01*
X036311Y012329D01*
X036323Y012355D01*
X036332Y012383D01*
X036338Y01241D01*
X036342Y012439D01*
X036343Y012468D01*
X03654Y012462D01*
D02*
G37*
G36*
X03454Y012462D02*
X034541Y012434D01*
X034545Y012405D01*
X034551Y012377D01*
X03456Y01235D01*
X034571Y012322D01*
X034584Y012295D01*
X0346Y012269D01*
X034619Y012243D01*
X03464Y012217D01*
X034663Y012191D01*
X034215Y012203D01*
X034239Y012227D01*
X034261Y012252D01*
X03428Y012277D01*
X034297Y012302D01*
X034311Y012329D01*
X034323Y012355D01*
X034332Y012383D01*
X034338Y01241D01*
X034342Y012439D01*
X034343Y012468D01*
X03454Y012462D01*
D02*
G37*
G36*
X03254D02*
X032541Y012434D01*
X032545Y012405D01*
X032551Y012377D01*
X03256Y01235D01*
X032571Y012322D01*
X032584Y012295D01*
X0326Y012269D01*
X032619Y012243D01*
X03264Y012217D01*
X032663Y012191D01*
X032215Y012203D01*
X032239Y012227D01*
X032261Y012252D01*
X03228Y012277D01*
X032297Y012302D01*
X032311Y012329D01*
X032323Y012355D01*
X032332Y012383D01*
X032338Y01241D01*
X032342Y012439D01*
X032343Y012468D01*
X03254Y012462D01*
D02*
G37*
G36*
X040516Y012441D02*
X04052Y012412D01*
X040527Y012385D01*
X040536Y012358D01*
X040547Y012331D01*
X040562Y012305D01*
X040579Y01228D01*
X040598Y012256D01*
X04062Y012232D01*
X040645Y012208D01*
X040198Y012185D01*
X04022Y012211D01*
X040241Y012238D01*
X040259Y012265D01*
X040275Y012292D01*
X040288Y012319D01*
X040299Y012347D01*
X040307Y012374D01*
X040313Y012402D01*
X040317Y012431D01*
X040318Y012459D01*
X040515Y01247D01*
X040516Y012441D01*
D02*
G37*
G36*
X038516D02*
X03852Y012412D01*
X038527Y012385D01*
X038536Y012358D01*
X038547Y012331D01*
X038562Y012305D01*
X038579Y01228D01*
X038598Y012256D01*
X03862Y012232D01*
X038645Y012208D01*
X038198Y012185D01*
X03822Y012211D01*
X038241Y012238D01*
X038259Y012265D01*
X038275Y012292D01*
X038288Y012319D01*
X038299Y012347D01*
X038307Y012374D01*
X038313Y012402D01*
X038317Y012431D01*
X038318Y012459D01*
X038515Y01247D01*
X038516Y012441D01*
D02*
G37*
G36*
X045671Y01165D02*
X04564Y011672D01*
X045604Y011683D01*
X045562D01*
X045515Y011672D01*
X045462Y01165D01*
X045404Y011616D01*
X04534Y011572D01*
X04527Y011516D01*
X045114Y011371D01*
X044836Y01165D01*
X044914Y01173D01*
X045036Y011875D01*
X045081Y011939D01*
X045114Y011998D01*
X045137Y012051D01*
X045148Y012098D01*
Y01214D01*
X045137Y012176D01*
X045114Y012206D01*
X045671Y01165D01*
D02*
G37*
G36*
X027988Y012201D02*
X027977Y012164D01*
Y012123D01*
X027988Y012075D01*
X028011Y012022D01*
X028044Y011964D01*
X028089Y0119D01*
X028144Y01183D01*
X028289Y011674D01*
X028011Y011396D01*
X02793Y011474D01*
X027785Y011596D01*
X027721Y011641D01*
X027663Y011674D01*
X02761Y011697D01*
X027562Y011708D01*
X027521D01*
X027484Y011697D01*
X027454Y011674D01*
X028011Y012231D01*
X027988Y012201D01*
D02*
G37*
D16*
X01705Y04045D02*
Y0412D01*
X01895Y0431D01*
X027125D01*
X01645Y04025D02*
X0175Y0392D01*
X01645Y04025D02*
Y04325D01*
X0175Y0392D02*
X0312D01*
X033772Y042978D02*
X0355D01*
X0327Y04405D02*
Y045322D01*
Y04405D02*
X033772Y042978D01*
X04255Y0404D02*
X04285Y0407D01*
X0324Y0404D02*
X04255D01*
X0312Y0392D02*
X0324Y0404D01*
X0467Y04035D02*
X06295D01*
X03925Y037315D02*
Y0377D01*
X0456Y0202D02*
Y021D01*
X04625Y01955D02*
X0531D01*
X0456Y0202D02*
X04625Y01955D01*
X045264Y021336D02*
X0456Y021D01*
X043736Y021336D02*
X045264D01*
X04575Y0197D02*
Y0197D01*
X044816Y020434D02*
X045016D01*
X04455Y0207D02*
X044816Y020434D01*
X045016D02*
X04575Y0197D01*
Y0197D02*
X04615Y0193D01*
X05395D01*
X0546Y02105D02*
X05555D01*
X0531Y01955D02*
X0546Y02105D01*
X05395Y0193D02*
X054966Y020316D01*
X0558Y0201D02*
Y0208D01*
X053588Y01845D02*
X05415D01*
X0558Y0201D01*
X05555Y02105D02*
X0558Y0208D01*
X054966Y020316D02*
Y020419D01*
X0431Y0207D02*
X043736Y021336D01*
X0433Y04845D02*
X0617D01*
X040778D02*
X0433D01*
Y0424D02*
Y04845D01*
X043Y0421D02*
X0433Y0424D01*
X03785Y0421D02*
X043D01*
X0374Y04165D02*
X03785Y0421D01*
X027125Y0431D02*
X028575Y04165D01*
X0374D01*
X06465Y0497D02*
X06492Y04943D01*
Y04943D02*
Y04943D01*
X06195Y0497D02*
X06465D01*
X0612Y04895D02*
X06195Y0497D01*
X0617Y04845D02*
X06215Y0489D01*
X040988Y049563D02*
X0416Y04895D01*
X036037Y049563D02*
X040988D01*
X0416Y04895D02*
X0612D01*
X035375Y0489D02*
X036037Y049563D01*
X063742Y04935D02*
X063745Y049353D01*
X038275Y04935D02*
X0408D01*
X037825Y0489D02*
X038275Y04935D01*
X0408D02*
X04145Y0487D01*
X062003Y049353D02*
X063745D01*
X06135Y0487D02*
X062003Y049353D01*
X04145Y0487D02*
X06135D01*
X04025Y0489D02*
X040328D01*
X040778Y04845D01*
X0413Y013D02*
X0413D01*
X027245Y0439D02*
X027303Y043959D01*
Y044D01*
X04675Y04075D02*
X0634D01*
X0448Y0388D02*
X04675Y04075D01*
X04495Y0386D02*
X0467Y04035D01*
X034Y0386D02*
X04495D01*
X03385Y0388D02*
X0448D01*
X0324Y037D02*
X034Y0386D01*
X0324Y03135D02*
Y037D01*
Y03135D02*
X03405Y0297D01*
Y029D02*
Y0297D01*
Y029D02*
X0342Y02885D01*
X034635D01*
X046825Y041134D02*
X062584D01*
X062588Y041138D01*
X044691Y039D02*
X046825Y041134D01*
X04455Y0392D02*
X046831Y041481D01*
X057769D01*
X04685Y04185D02*
X0587D01*
X0444Y0394D02*
X04685Y04185D01*
X03365Y039D02*
X044691D01*
X0321Y03705D02*
X03385Y0388D01*
X031835Y037185D02*
X03365Y039D01*
X031835Y029715D02*
Y037185D01*
X0316Y033D02*
Y0373D01*
X0333Y0394D02*
X0444D01*
X03135Y033256D02*
Y03745D01*
X0331Y0396D02*
X04425D01*
X0316Y0373D02*
X0335Y0392D01*
X030906Y037406D02*
X0331Y0396D01*
X030295Y037406D02*
X030906D01*
X0335Y0392D02*
X04455D01*
X03135Y03745D02*
X0333Y0394D01*
X031835Y029715D02*
X032699Y028851D01*
X033415D01*
X0321Y030117D02*
X032808Y029408D01*
X0321Y030117D02*
Y03705D01*
X04685Y0422D02*
X06135D01*
X0469Y0426D02*
X06075D01*
X0329Y0398D02*
X0441D01*
X04425Y0396D02*
X04685Y0422D01*
X0441Y0398D02*
X0469Y0426D01*
X031006Y037906D02*
X0329Y0398D01*
X04395Y04D02*
X04695Y043D01*
X031106Y038406D02*
X0327Y04D01*
X04395D01*
X03255Y0402D02*
X0438D01*
X0313Y03895D02*
X03255Y0402D01*
X0438D02*
X04705Y04345D01*
X03555Y03685D02*
X035787D01*
X016963Y041887D02*
X018577Y0435D01*
X02775D01*
X028311Y0486D02*
X03005Y050339D01*
X02485Y0486D02*
X028311D01*
X02575Y049247D02*
Y049639D01*
X036613Y036474D02*
X038426D01*
X0385Y0364D01*
X032808Y029408D02*
X033415D01*
X031006Y032406D02*
X0316Y033D01*
X030295Y032406D02*
X031006D01*
X04695Y043D02*
X05975D01*
X031Y032906D02*
X03135Y033256D01*
X030295Y032906D02*
X031D01*
X04705Y04345D02*
X0571D01*
X030295Y037906D02*
X031006D01*
X030295Y038406D02*
X031106D01*
X02585Y03895D02*
X0313D01*
X023494Y036594D02*
X02585Y03895D01*
X02505Y050339D02*
X02575Y049639D01*
X0748Y03715D02*
X075067Y037417D01*
X075724D01*
X07305Y03715D02*
X0748D01*
X07499Y038294D02*
X074996Y0383D01*
X07395D02*
X073956Y038294D01*
X07499D01*
X072051Y039149D02*
X072102Y0392D01*
X075672D02*
X075724Y039149D01*
X072102Y0392D02*
X075672D01*
X074996Y0383D02*
X075706D01*
X075724Y038283D01*
X071032Y039582D02*
X075724D01*
X011009Y029D02*
X0202D01*
X01095Y02485D02*
X011124Y024676D01*
X01095Y02485D02*
Y028941D01*
X011009Y029D01*
X017444Y024406D02*
X018038Y025D01*
X0261D01*
X023494Y03655D02*
Y036594D01*
X04306Y0374D02*
X04311Y03745D01*
X01575Y0281D02*
X0261D01*
X040191Y0485D02*
X04025Y048441D01*
X03355Y04835D02*
X034954D01*
X035098Y048494D02*
X03974D01*
X04025Y048D02*
Y048441D01*
X03315Y04795D02*
X03355Y04835D01*
X039746Y0485D02*
X040191D01*
X03974Y048494D02*
X039746Y0485D01*
X034954Y04835D02*
X035098Y048494D01*
X0165Y0439D02*
X027245D01*
X03535Y0489D02*
X035375D01*
X0378Y0489D02*
X037825D01*
X011124Y024676D02*
X013226D01*
X03315Y045772D02*
Y04585D01*
X0327Y045322D02*
X03315Y045772D01*
Y04675D02*
Y04795D01*
X0158Y01765D02*
X01775D01*
X02075Y01465D01*
X015Y0173D02*
X0171D01*
X01975Y01465D01*
X0165Y0169D02*
X01875Y01465D01*
X0154Y0169D02*
X0165D01*
D17*
X03845Y04665D02*
Y048016D01*
X03855Y04665D02*
Y048D01*
X0359Y02215D02*
Y0231D01*
X03725Y02445D01*
X041585Y048D02*
X0417Y047885D01*
Y044884D02*
Y047885D01*
X04025Y048D02*
X041585D01*
X03735Y013D02*
X03735D01*
X0745Y03885D02*
X07465Y0387D01*
X075708D01*
X0746D02*
X07465D01*
X0769Y0467D02*
X07707Y04653D01*
X0769Y0467D02*
Y047D01*
X07707Y04653D02*
X077785D01*
X0348Y01795D02*
X03595D01*
X0347Y01785D02*
X0348Y01795D01*
X03335Y0205D02*
Y02164D01*
Y0254D02*
Y02543D01*
X03585Y0259D02*
X03585Y0259D01*
X0365D01*
X0365Y0259D01*
X034635Y029408D02*
X03518D01*
X035503Y029086D01*
X035595D01*
X035753Y028928D01*
X0385Y0373D02*
Y0378D01*
X03825Y03805D02*
X0385Y0378D01*
X0367Y03805D02*
X03825D01*
X035787Y03685D02*
X035793Y036857D01*
Y038043D01*
X0358Y03805D01*
X036613Y037226D02*
X036633Y037246D01*
X037546D01*
X0376Y0373D01*
X035753Y029726D02*
X036576D01*
X0338Y03545D02*
X0338Y03545D01*
Y0348D02*
Y03545D01*
X0338Y0348D02*
X0338Y0348D01*
X0338Y03545D02*
X0338Y03545D01*
X034902Y0327D02*
X0358D01*
X0347Y032902D02*
X034902Y0327D01*
X0347Y032902D02*
Y03301D01*
Y0368D02*
X0347Y0368D01*
Y03545D02*
Y0368D01*
X0393Y013D02*
X0393D01*
X034902Y02125D02*
X0359D01*
X0347Y021452D02*
X034902Y02125D01*
X0347Y021452D02*
Y02164D01*
Y0253D02*
Y02543D01*
Y0253D02*
X034902Y025098D01*
X035752D02*
X03585Y025D01*
X034902Y025098D02*
X035752D01*
X023717Y011968D02*
X023768D01*
X0404Y013D02*
X040417Y012983D01*
Y011985D02*
Y012983D01*
Y011985D02*
X040433Y011968D01*
X0355Y042994D02*
X035534Y043028D01*
X0355Y042894D02*
X035534Y042928D01*
X07465Y0378D02*
X0747Y03785D01*
X075724D01*
X0699Y0378D02*
X07465D01*
X075708Y0387D02*
X075724Y038716D01*
X0378Y048D02*
X03855D01*
X07305Y0385D02*
X0734Y03885D01*
X0745D01*
X03595Y01625D02*
Y01705D01*
X02775Y01625D02*
X03595D01*
X0277Y0163D02*
X02775Y01625D01*
X03923Y036705D02*
X03925Y036685D01*
X038957Y036705D02*
X03923D01*
X038811Y03685D02*
X038957Y036705D01*
X038128Y03685D02*
X038811D01*
X037678Y0373D02*
X038128Y03685D01*
X02245Y02075D02*
X022475Y020775D01*
X025625D01*
X02565Y0208D01*
X01635Y01905D02*
X016361Y019039D01*
X0144Y01905D02*
X014425Y019075D01*
X014406Y019044D02*
X016344D01*
X01635Y01905D01*
X03705Y043D02*
X037289Y043239D01*
X035584Y043D02*
X03705D01*
X03555Y04395D02*
X0356Y044D01*
X03635D02*
X0365Y04415D01*
X0356Y044D02*
X03635D01*
X035534Y04495D02*
X03555Y044934D01*
X0346Y04495D02*
X035534D01*
X037289Y043239D02*
Y046861D01*
X037Y04715D02*
X037289Y046861D01*
X0365Y04415D02*
Y0452D01*
X03535Y04635D02*
X0365Y0452D01*
X037Y04715D02*
Y048D01*
X01615Y02365D02*
Y025435D01*
X01875Y02575D02*
X02275D01*
X01845Y02605D02*
X01875Y02575D01*
X039243Y037307D02*
X03925Y037315D01*
X038507Y037307D02*
X039243D01*
X0385Y0373D02*
X038507Y037307D01*
X032442Y012992D02*
X03245Y013D01*
X032442Y011977D02*
Y012992D01*
X032433Y011968D02*
X032442Y011977D01*
Y013008D02*
X03245Y013D01*
X034417Y013083D02*
X03445Y01305D01*
X034442Y013042D02*
X03445Y01305D01*
X034442Y011977D02*
Y013042D01*
X034433Y011968D02*
X034442Y011977D01*
X036442Y012992D02*
X03645Y013D01*
X036442Y011977D02*
Y012992D01*
X036433Y011968D02*
X036442Y011977D01*
X0384Y013D02*
X038417Y012983D01*
Y011985D02*
Y012983D01*
Y011985D02*
X038433Y011968D01*
X036442Y013008D02*
X03645Y013D01*
X0384D02*
X038417Y013017D01*
X01145Y0266D02*
X01205D01*
X0169D01*
X03535Y04635D02*
Y048D01*
X03855D02*
X0394D01*
X0158Y02715D02*
X0199D01*
X0165Y02565D02*
X01805D01*
X01845Y02605D01*
X037Y0489D02*
X037Y0489D01*
X0378D01*
X0394Y0489D02*
X0394Y0489D01*
X04025D01*
X0345Y04505D02*
X0346Y04495D01*
X03315D02*
X0346D01*
X0345Y04505D02*
Y04795D01*
Y04885D02*
X034525Y048875D01*
X035325D01*
X03535Y0489D01*
X01445Y02585D02*
X01465Y02605D01*
X01445Y02465D02*
Y02585D01*
X014425Y024625D02*
X01445Y02465D01*
X0169Y0266D02*
X01745Y02605D01*
X0144Y01905D02*
X014406Y019044D01*
X016035Y02555D02*
X01615Y025435D01*
X0152Y02555D02*
X016035D01*
D20*
X073146Y045593D02*
D03*
Y045907D02*
D03*
X073854D02*
D03*
Y045593D02*
D03*
D21*
X077925Y044138D02*
D03*
X080185Y044137D02*
D03*
Y04768D02*
D03*
X077925Y047682D02*
D03*
D22*
X077805Y04529D02*
D03*
X0778Y0456D02*
D03*
X077795Y04591D02*
D03*
X07779Y04622D02*
D03*
X077785Y04653D02*
D03*
D23*
X0359Y02215D02*
D03*
Y02125D02*
D03*
X0358Y0336D02*
D03*
Y0327D02*
D03*
X06865Y0437D02*
D03*
Y0428D02*
D03*
X0696Y0428D02*
D03*
Y0437D02*
D03*
X0385Y0364D02*
D03*
Y0373D02*
D03*
X03595Y01705D02*
D03*
Y01795D02*
D03*
X0376Y0364D02*
D03*
Y0373D02*
D03*
X04025Y048D02*
D03*
Y0489D02*
D03*
X037Y048D02*
D03*
Y0489D02*
D03*
X0345Y04885D02*
D03*
Y04795D02*
D03*
X03585Y025D02*
D03*
Y0259D02*
D03*
D24*
X035787Y03685D02*
D03*
X036613Y037226D02*
D03*
Y036474D02*
D03*
D25*
X0367Y03805D02*
D03*
X0358D02*
D03*
X0413Y013D02*
D03*
X0404D02*
D03*
X07515Y0453D02*
D03*
X07605D02*
D03*
X07515Y0462D02*
D03*
X07605D02*
D03*
X03735Y013D02*
D03*
X03645D02*
D03*
X0393D02*
D03*
X0384D02*
D03*
X0338Y03545D02*
D03*
X0347D02*
D03*
X03315Y04495D02*
D03*
X03225D02*
D03*
X03315Y04585D02*
D03*
X03225D02*
D03*
X03315Y04675D02*
D03*
X03225D02*
D03*
D26*
X03335Y01785D02*
D03*
X0347D02*
D03*
Y03301D02*
D03*
X03335D02*
D03*
X0347Y0368D02*
D03*
X03335D02*
D03*
X0347Y02164D02*
D03*
X03335D02*
D03*
X0347Y02543D02*
D03*
X03335D02*
D03*
D27*
X03865Y041305D02*
D03*
Y04662D02*
D03*
D28*
X0355Y043963D02*
D03*
Y042978D02*
D03*
Y044947D02*
D03*
X0418D02*
D03*
Y042978D02*
D03*
D29*
X075606Y03655D02*
D03*
Y036983D02*
D03*
Y037417D02*
D03*
Y03785D02*
D03*
Y038283D02*
D03*
Y038716D02*
D03*
Y039149D02*
D03*
Y039582D02*
D03*
Y040015D02*
D03*
D30*
X07592Y036098D02*
D03*
D31*
X0797D02*
D03*
Y0422D02*
D03*
D32*
X07592Y041846D02*
D03*
D33*
X034635Y02885D02*
D03*
Y029408D02*
D03*
X033415Y028851D02*
D03*
Y029408D02*
D03*
D34*
X0746Y0378D02*
D03*
Y0387D02*
D03*
X0394Y0489D02*
D03*
Y048D02*
D03*
X0378Y0489D02*
D03*
Y048D02*
D03*
X03535Y0489D02*
D03*
Y048D02*
D03*
D35*
X03365Y013D02*
D03*
X03565Y01305D02*
D03*
D36*
X03245Y013D02*
D03*
X03445Y01305D02*
D03*
D37*
X03925Y036685D02*
D03*
Y037315D02*
D03*
D38*
X035753Y029726D02*
D03*
Y028978D02*
D03*
D90*
X0797Y036098D02*
X079748D01*
X07975Y0361D01*
X07965Y0422D02*
X0797D01*
X0339Y0438D02*
X035338D01*
X0355Y043963D01*
X041772Y042978D02*
X0418D01*
X04175Y043D02*
X041772Y042978D01*
X0386Y0412D02*
Y041255D01*
X03865Y041305D01*
Y04662D02*
Y04665D01*
X032847Y0179D02*
X0333D01*
X03335Y01785D01*
X03334Y03301D02*
X03335D01*
X0333Y03305D02*
X03334Y03301D01*
X0365Y0259D02*
X03925Y02865D01*
Y02985D01*
X0154Y0354D02*
X02755D01*
X01415Y03665D02*
Y0439D01*
Y03665D02*
X0154Y0354D01*
D91*
X02495Y04105D02*
X03315D01*
X02355Y03965D02*
X02495Y04105D01*
X04625Y03595D02*
X0464Y0358D01*
Y03215D02*
Y0358D01*
X0273Y0238D02*
X03365D01*
X03395Y0241D01*
X02565Y0208D02*
X0301D01*
X01705Y02145D02*
X0296D01*
X044483Y04945D02*
X0541D01*
X055008Y050358D01*
X043883Y05005D02*
X044483Y04945D01*
X03225Y0489D02*
X0334Y05005D01*
X043883D01*
X03225Y04675D02*
Y0489D01*
X032242Y0422D02*
X03225Y042208D01*
Y04495D01*
Y04585D01*
X052913Y04425D02*
X06095D01*
X0478Y028583D02*
Y03355D01*
Y028583D02*
X048076Y028307D01*
Y0282D02*
Y028307D01*
X080185Y044085D02*
Y044137D01*
Y04768D02*
Y047685D01*
X077907Y0477D02*
X077925Y047682D01*
X06755Y0437D02*
X06865D01*
X0689Y0389D02*
X07005D01*
X07045Y0385D01*
X07305D01*
X06095Y04425D02*
X0624Y0428D01*
X06865D01*
X068728Y0428D02*
X0696D01*
X068728Y0428D02*
X068728Y0428D01*
X06865Y0428D02*
X068728D01*
X0737Y04445D02*
X0764D01*
X07295Y0437D02*
X0737Y04445D01*
X0696Y0437D02*
X07295D01*
X044315Y01085D02*
X045433Y011968D01*
X028835Y01085D02*
X044315D01*
X027717Y011968D02*
X028835Y01085D01*
X0193Y03425D02*
X01935Y0343D01*
X02645D01*
X02685Y0339D01*
Y02425D02*
Y0339D01*
Y02425D02*
X0273Y0238D01*
X01055Y02445D02*
X01145Y02355D01*
X010781Y0295D02*
X01815D01*
X01055Y029269D02*
X010781Y0295D01*
X01055Y02445D02*
Y029269D01*
X01815Y0295D02*
X0182Y02955D01*
X05545Y0524D02*
X070793D01*
X071024Y051398D02*
Y052169D01*
X070793Y0524D02*
X071024Y052169D01*
X055008Y051958D02*
X05545Y0524D01*
X055008Y050358D02*
Y051958D01*
X02555Y02405D02*
X02565Y02395D01*
X01925Y02405D02*
X02555D01*
X01695Y02135D02*
X01705Y02145D01*
X024807Y019843D02*
X029275D01*
X0248Y01985D02*
X024807Y019843D01*
X01145Y0182D02*
X0316D01*
X055008Y050358D02*
X057244D01*
X058244D01*
X01145Y02355D02*
X0149D01*
X03225Y04585D02*
Y04675D01*
D92*
X0764Y04445D02*
X077217Y045268D01*
X077772D01*
X0358Y0336D02*
X03645D01*
D93*
X076219Y045684D02*
X076648D01*
X076649Y045686D01*
X07727D01*
X077268Y045817D02*
X077303Y045852D01*
X076594Y045817D02*
X077268D01*
X076593Y045816D02*
X076594Y045817D01*
X076219Y045816D02*
X076593D01*
X07727Y045686D02*
X077298Y045658D01*
X077742D01*
X077303Y045852D02*
X077737D01*
X076171Y045863D02*
Y046079D01*
X07605Y0462D02*
X076171Y046079D01*
X077742Y045658D02*
X0778Y0456D01*
X077737Y045852D02*
X077795Y04591D01*
X076171Y045863D02*
X076219Y045816D01*
X07605Y0453D02*
X076171Y045421D01*
Y045637D01*
X076219Y045684D01*
X073933Y045907D02*
X074022Y045818D01*
Y045682D02*
X074073D01*
X074075Y045684D01*
X074073Y045818D02*
X074075Y045816D01*
X074022Y045818D02*
X074073D01*
X073854Y045907D02*
X073933D01*
X075029Y045421D02*
Y045637D01*
Y045421D02*
X07515Y0453D01*
X074981Y045816D02*
X075029Y045863D01*
X074075Y045816D02*
X074981D01*
X073933Y045593D02*
X074022Y045682D01*
X073854Y045593D02*
X073933D01*
X075029Y046079D02*
X07515Y0462D01*
X075029Y045863D02*
Y046079D01*
X074075Y045684D02*
X074981D01*
X075029Y045637D01*
X052913Y045863D02*
X052961Y045816D01*
X072978Y045682D02*
X073067Y045593D01*
X073146D01*
X072978Y045818D02*
X073067Y045907D01*
X072927Y045818D02*
X072978D01*
X072925Y045816D02*
X072927Y045818D01*
X073067Y045907D02*
X073146D01*
X052961Y045816D02*
X072925D01*
X052913Y045863D02*
Y04625D01*
Y045637D02*
X052961Y045684D01*
X052913Y04525D02*
Y045637D01*
X052961Y045684D02*
X072925D01*
X072927Y045682D01*
X072978D01*
D94*
X043Y0283D02*
D03*
X075024Y051398D02*
D03*
Y050398D02*
D03*
X074024Y051398D02*
D03*
Y050398D02*
D03*
X073024Y051398D02*
D03*
Y050398D02*
D03*
X072024Y051398D02*
D03*
Y050398D02*
D03*
X071024Y051398D02*
D03*
X057244Y051358D02*
D03*
X058244Y050358D02*
D03*
Y051358D02*
D03*
X059244Y050358D02*
D03*
Y051358D02*
D03*
X060244Y050358D02*
D03*
Y051358D02*
D03*
X061244Y050358D02*
D03*
Y051358D02*
D03*
X062244Y050358D02*
D03*
Y051358D02*
D03*
X063244Y050358D02*
D03*
Y051358D02*
D03*
X064244Y050358D02*
D03*
Y051358D02*
D03*
X065244Y050358D02*
D03*
Y051358D02*
D03*
X066244Y050358D02*
D03*
Y051358D02*
D03*
D95*
X043Y0324D02*
D03*
D96*
X032433Y011968D02*
D03*
X033433D02*
D03*
X034433D02*
D03*
X035433D02*
D03*
X036433D02*
D03*
X037433D02*
D03*
X038433D02*
D03*
X039433D02*
D03*
X040433D02*
D03*
X041433D02*
D03*
X042433D02*
D03*
X043433D02*
D03*
X044433D02*
D03*
X045047Y051339D02*
D03*
X044047D02*
D03*
X043047D02*
D03*
X042047D02*
D03*
X041047D02*
D03*
X040047D02*
D03*
X039047D02*
D03*
X038047D02*
D03*
X037047D02*
D03*
X036047D02*
D03*
X035047D02*
D03*
X034047D02*
D03*
X033047D02*
D03*
D97*
X045433Y011968D02*
D03*
X032047Y051339D02*
D03*
D98*
X071024Y050398D02*
D03*
X057244Y050358D02*
D03*
D99*
X0506Y02205D02*
D03*
X0526D02*
D03*
X04835Y02215D02*
D03*
X04635D02*
D03*
X0443Y0284D02*
D03*
Y0304D02*
D03*
D100*
X079857Y04035D02*
D03*
Y037208D02*
D03*
X0779Y045923D02*
D03*
Y045613D02*
D03*
D101*
X061856Y01845D02*
D03*
X07288D02*
D03*
X064612D02*
D03*
X067368D02*
D03*
X070124D02*
D03*
X05221Y020419D02*
D03*
X054966D02*
D03*
X049454D02*
D03*
X048076Y01845D02*
D03*
X0591D02*
D03*
X050832D02*
D03*
X053588D02*
D03*
X056344D02*
D03*
X057722Y020419D02*
D03*
X063234D02*
D03*
X06599D02*
D03*
X068746D02*
D03*
X071502D02*
D03*
X060478D02*
D03*
X075635Y01845D02*
D03*
X074257Y020419D02*
D03*
X061856Y0282D02*
D03*
X07288D02*
D03*
X064612D02*
D03*
X067368D02*
D03*
X070124D02*
D03*
X05221Y030168D02*
D03*
X054966D02*
D03*
X049454D02*
D03*
X048076Y0282D02*
D03*
X0591D02*
D03*
X050832D02*
D03*
X053588D02*
D03*
X056344D02*
D03*
X057722Y030168D02*
D03*
X063234D02*
D03*
X06599D02*
D03*
X068746D02*
D03*
X071502D02*
D03*
X060478D02*
D03*
X075635Y0282D02*
D03*
X074257Y030168D02*
D03*
D102*
X046698Y020419D02*
D03*
Y030168D02*
D03*
D103*
X064119Y037692D02*
D03*
X054281D02*
D03*
D104*
X057564Y037133D02*
D03*
X058655D02*
D03*
X059745D02*
D03*
X060836D02*
D03*
X057019Y038251D02*
D03*
X058109D02*
D03*
X0592D02*
D03*
X060291D02*
D03*
X061381D02*
D03*
X026717Y011968D02*
D03*
X024717D02*
D03*
X023717D02*
D03*
X022717D02*
D03*
X021717D02*
D03*
X020717D02*
D03*
X019717D02*
D03*
X018717D02*
D03*
X025717D02*
D03*
D105*
X02505Y051339D02*
D03*
X02605D02*
D03*
X02705D02*
D03*
X02805D02*
D03*
X02905D02*
D03*
X02505Y050339D02*
D03*
X02605D02*
D03*
X02705D02*
D03*
X02805D02*
D03*
X02905D02*
D03*
X03005D02*
D03*
D106*
Y051339D02*
D03*
D107*
X029275Y043465D02*
D03*
Y019843D02*
D03*
D108*
X030137Y037906D02*
D03*
Y037406D02*
D03*
Y036406D02*
D03*
Y034906D02*
D03*
Y033906D02*
D03*
Y033406D02*
D03*
Y032406D02*
D03*
Y030906D02*
D03*
Y029906D02*
D03*
Y029406D02*
D03*
Y028406D02*
D03*
Y026906D02*
D03*
Y025906D02*
D03*
Y025406D02*
D03*
Y038406D02*
D03*
Y036906D02*
D03*
Y035906D02*
D03*
Y035406D02*
D03*
Y034406D02*
D03*
Y032906D02*
D03*
Y031906D02*
D03*
Y031406D02*
D03*
Y030406D02*
D03*
Y028906D02*
D03*
Y027906D02*
D03*
Y027406D02*
D03*
Y026406D02*
D03*
Y024906D02*
D03*
D109*
X01975Y05135D02*
D03*
X01525D02*
D03*
D110*
X02075D02*
D03*
X02175D02*
D03*
X01625D02*
D03*
X01725D02*
D03*
D111*
X052913Y04725D02*
D03*
Y04625D02*
D03*
Y04525D02*
D03*
D112*
Y04425D02*
D03*
D113*
X0469Y0473D02*
D03*
X0431Y0207D02*
D03*
X04455D02*
D03*
X0455Y0453D02*
D03*
D114*
X0469Y0463D02*
D03*
Y0453D02*
D03*
X0455Y0473D02*
D03*
Y0463D02*
D03*
D115*
X01265Y04955D02*
D03*
Y04755D02*
D03*
X0431Y0187D02*
D03*
Y0197D02*
D03*
X04455Y0187D02*
D03*
Y0197D02*
D03*
D116*
X051339Y011968D02*
D03*
X078898Y015906D02*
D03*
X011968Y011968D02*
D03*
Y051339D02*
D03*
X078898D02*
D03*
X051339D02*
D03*
D117*
X04311Y03745D02*
D03*
X04409D02*
D03*
X0451D02*
D03*
X01619Y0492D02*
D03*
X0172D02*
D03*
X0195D02*
D03*
X01849D02*
D03*
X02074D02*
D03*
X02175D02*
D03*
D118*
X01975Y01465D02*
D03*
X02075D02*
D03*
X01875D02*
D03*
X02074Y01365D02*
D03*
X01975D02*
D03*
X01875D02*
D03*
D119*
X027717Y011968D02*
D03*
D120*
X0478Y03355D02*
D03*
X0508D02*
D03*
X0464Y03215D02*
D03*
X0494D02*
D03*
D121*
X01235Y03065D02*
D03*
Y03215D02*
D03*
D122*
X01705Y04045D02*
D03*
X0376Y0373D02*
D03*
X07975Y0361D02*
D03*
X07965Y0422D02*
D03*
X0339Y0438D02*
D03*
X04175Y043D02*
D03*
X0386Y0412D02*
D03*
X03865Y04665D02*
D03*
X0385Y0176D02*
D03*
X037Y0211D02*
D03*
X032847Y0179D02*
D03*
X0333Y03305D02*
D03*
X03685Y03525D02*
D03*
X0403Y02495D02*
D03*
X04585Y02445D02*
D03*
X04625Y03595D02*
D03*
X03395Y0241D02*
D03*
X06295Y04035D02*
D03*
X03925Y0377D02*
D03*
Y02985D02*
D03*
X0301Y0208D02*
D03*
X0296Y02145D02*
D03*
X037Y01965D02*
D03*
X02755Y0354D02*
D03*
X01415Y0439D02*
D03*
X06215Y0489D02*
D03*
X03735Y013D02*
D03*
X0413D02*
D03*
X0764Y04445D02*
D03*
X027303Y044D02*
D03*
X02775Y0435D02*
D03*
X0582Y03985D02*
D03*
X03645Y0336D02*
D03*
X0634Y04075D02*
D03*
X062588Y041138D02*
D03*
X03555Y03685D02*
D03*
X036576Y029726D02*
D03*
X0338Y0348D02*
D03*
X016963Y041887D02*
D03*
X02485Y0486D02*
D03*
X02575Y049247D02*
D03*
X03335Y0368D02*
D03*
X057769Y041481D02*
D03*
X0587Y04185D02*
D03*
X06135Y0422D02*
D03*
X05975Y043D02*
D03*
X0571Y04345D02*
D03*
X06075Y0426D02*
D03*
X0393Y013D02*
D03*
X03565Y01305D02*
D03*
X03365Y013D02*
D03*
X0759Y0361D02*
D03*
X07395Y0383D02*
D03*
X072051Y039199D02*
D03*
X073017Y037167D02*
D03*
X071032Y039582D02*
D03*
X01945Y021944D02*
D03*
X01695Y02135D02*
D03*
X016361Y019039D02*
D03*
X023494Y03655D02*
D03*
X01645Y04325D02*
D03*
X0202Y029D02*
D03*
X0261Y0281D02*
D03*
X01575D02*
D03*
X0261Y025D02*
D03*
X017444Y024406D02*
D03*
X0165Y0439D02*
D03*
X063745Y049353D02*
D03*
X06492Y04943D02*
D03*
X0149Y02355D02*
D03*
X01145D02*
D03*
X01615Y02365D02*
D03*
X02275Y02575D02*
D03*
X01145Y0266D02*
D03*
X013226Y024676D02*
D03*
X0199Y02715D02*
D03*
X0165Y02565D02*
D03*
X015Y0173D02*
D03*
X0154Y0169D02*
D03*
X0158Y01765D02*
D03*
X01465Y02605D02*
D03*
X0144Y01905D02*
D03*
X0158Y02715D02*
D03*
X01445Y02465D02*
D03*
X01925Y02405D02*
D03*
X01745Y02605D02*
D03*
X01845D02*
D03*
X0152Y02555D02*
D03*
D123*
X03315Y04105D02*
D03*
X04285Y0407D02*
D03*
X0759Y04185D02*
D03*
X04085Y0159D02*
D03*
X0625Y01485D02*
D03*
X0585Y0149D02*
D03*
X04145Y0159D02*
D03*
X0402D02*
D03*
X0396D02*
D03*
X06455Y01505D02*
D03*
X0673Y0151D02*
D03*
X07025D02*
D03*
X0729D02*
D03*
X0322Y0422D02*
D03*
X0769Y047D02*
D03*
X0779Y04405D02*
D03*
X03335Y0205D02*
D03*
Y0254D02*
D03*
X0365Y0259D02*
D03*
X03725Y02445D02*
D03*
X037797Y03395D02*
D03*
Y03335D02*
D03*
X03835D02*
D03*
Y03395D02*
D03*
X0372Y04235D02*
D03*
X0346D02*
D03*
X05315Y03165D02*
D03*
X03165Y0274D02*
D03*
X02355Y03965D02*
D03*
X0414Y02615D02*
D03*
Y02675D02*
D03*
X0419D02*
D03*
Y02615D02*
D03*
X080185Y044085D02*
D03*
Y047685D02*
D03*
X077907Y0477D02*
D03*
X06755Y0437D02*
D03*
X0689Y0389D02*
D03*
X07035Y03565D02*
D03*
X0699Y0378D02*
D03*
X0277Y0163D02*
D03*
X0193Y03425D02*
D03*
X0182Y02955D02*
D03*
X02245Y02075D02*
D03*
X02565Y0208D02*
D03*
Y02395D02*
D03*
X0248Y01985D02*
D03*
X0316Y0182D02*
D03*
X01145D02*
D03*
D124*
X078941Y046776D02*
D03*
Y045044D02*
D03*
M02*
