M48
;Layer_Color=9474304
;FILE_FORMAT=2:4
INCH,LZ
;TYPE=PLATED
T4F00S00C0.0236
T15F00S00C0.0472
;TYPE=NON_PLATED
%
G90
G05
T04
G00X030354Y024906
M15
G01X030236
M16
G00X030354Y025406
M15
G01X030236
M16
G00X030354Y025906
M15
G01X030236
M16
G00X030354Y026406
M15
G01X030236
M16
G00X030354Y026906
M15
G01X030236
M16
G00X030354Y027406
M15
G01X030236
M16
G00X030354Y027906
M15
G01X030236
M16
G00X030354Y028406
M15
G01X030236
M16
G00X030354Y028906
M15
G01X030236
M16
G00X030354Y029406
M15
G01X030236
M16
G00X030354Y029906
M15
G01X030236
M16
G00X030354Y030406
M15
G01X030236
M16
G00X030354Y030906
M15
G01X030236
M16
G00X030354Y031406
M15
G01X030236
M16
G00X030354Y031906
M15
G01X030236
M16
G00X030354Y032406
M15
G01X030236
M16
G00X030354Y032906
M15
G01X030236
M16
G00X030354Y033406
M15
G01X030236
M16
G00X030354Y033906
M15
G01X030236
M16
G00X030354Y034406
M15
G01X030236
M16
G00X030354Y034906
M15
G01X030236
M16
G00X030354Y035406
M15
G01X030236
M16
G00X030354Y035906
M15
G01X030236
M16
G00X030354Y036406
M15
G01X030236
M16
G00X030354Y036906
M15
G01X030236
M16
G00X030354Y037406
M15
G01X030236
M16
G00X030354Y037906
M15
G01X030236
M16
G00X030354Y038406
M15
G01X030236
M16
T15
G00X029275Y019685
M15
G01Y02
M16
G00X029275Y043307
M15
G01Y043622
M16
M17
M30
