G04*
G04 #@! TF.GenerationSoftware,Altium Limited,Altium Designer,20.1.7 (139)*
G04*
G04 Layer_Color=32896*
%FSTAX24Y24*%
%MOIN*%
G70*
G04*
G04 #@! TF.SameCoordinates,F0BF9DC0-9546-437B-B132-7D81F4AFA61C*
G04*
G04*
G04 #@! TF.FilePolarity,Positive*
G04*
G01*
G75*
%ADD10C,0.0040*%
%ADD11C,0.0079*%
%ADD13C,0.0070*%
%ADD14C,0.0050*%
%ADD15C,0.0039*%
%ADD19C,0.0060*%
%ADD91C,0.0394*%
%ADD184C,0.0315*%
%ADD185R,0.0310X0.1181*%
%ADD186R,0.1181X0.0310*%
G36*
X013025Y0314D02*
X012775Y03115D01*
Y0313D01*
X012525D01*
Y0315D01*
X012775D01*
Y03165D01*
X013025Y0314D01*
D02*
G37*
D10*
X01573Y0408D02*
X01607D01*
X01573Y0413D02*
X01607D01*
X0708Y03593D02*
Y03627D01*
X0713Y03593D02*
Y03627D01*
X03675Y01903D02*
Y01937D01*
X03725Y01903D02*
Y01937D01*
X04123Y0191D02*
X04157D01*
X04123Y0196D02*
X04157D01*
X03928D02*
X03962D01*
X03928Y0191D02*
X03962D01*
X01513Y04365D02*
X01547D01*
X01513Y04415D02*
X01547D01*
X03735Y03508D02*
Y03542D01*
X03785Y03508D02*
Y03542D01*
X01365Y04218D02*
Y04252D01*
X01415Y04218D02*
Y04252D01*
X041Y03533D02*
Y03567D01*
X0415Y03533D02*
Y03567D01*
X04363Y0172D02*
X04397D01*
X04363Y0177D02*
X04397D01*
X03555Y0215D02*
X03725D01*
Y0207D02*
Y0215D01*
X03555Y0207D02*
X03725D01*
X03555D02*
Y0215D01*
X046Y03688D02*
Y03722D01*
X0465Y03688D02*
Y03722D01*
X0382Y03513D02*
Y03547D01*
X0387Y03513D02*
Y03547D01*
X04118Y03255D02*
X04152D01*
X04118Y03205D02*
X04152D01*
X03968Y02805D02*
X04002D01*
X03968Y02755D02*
X04002D01*
X03948Y03255D02*
X03982D01*
X03948Y03205D02*
X03982D01*
X03813Y02805D02*
X03847D01*
X03813Y02755D02*
X03847D01*
X03813Y02935D02*
X03847D01*
X03813Y02885D02*
X03847D01*
X03818Y03065D02*
X03852D01*
X03818Y03015D02*
X03852D01*
X0743Y03593D02*
Y03627D01*
X0738Y03593D02*
Y03627D01*
X07335Y03593D02*
Y03627D01*
X07285Y03593D02*
Y03627D01*
X07235Y03593D02*
Y03627D01*
X07185Y03593D02*
Y03627D01*
X01793Y0219D02*
X01827D01*
X01793Y0214D02*
X01827D01*
X02213Y0227D02*
X02247D01*
X02213Y0232D02*
X02247D01*
X02213Y0218D02*
X02247D01*
X02213Y0223D02*
X02247D01*
X03958Y03665D02*
X03992D01*
X03958Y03615D02*
X03992D01*
X04695Y03688D02*
Y03722D01*
X04745Y03688D02*
Y03722D01*
X03968Y03375D02*
X04002D01*
X03968Y03425D02*
X04002D01*
X0417Y02143D02*
Y02177D01*
X0422Y02143D02*
Y02177D01*
X0407Y02143D02*
Y02177D01*
X0412Y02143D02*
Y02177D01*
X03975Y02143D02*
Y02177D01*
X04025Y02143D02*
Y02177D01*
X0417Y02303D02*
Y02337D01*
X0422Y02303D02*
Y02337D01*
X03765Y02208D02*
Y02242D01*
X03815Y02208D02*
Y02242D01*
X03765Y02383D02*
Y02417D01*
X03815Y02383D02*
Y02417D01*
X0212Y04233D02*
Y04267D01*
X0207Y04233D02*
Y04267D01*
X02018Y0453D02*
X02052D01*
X02018Y0458D02*
X02052D01*
X01848Y0453D02*
X01882D01*
X01848Y0458D02*
X01882D01*
X01853Y04175D02*
X01887D01*
X01853Y04225D02*
X01887D01*
X0212Y04403D02*
Y04437D01*
X0207Y04403D02*
Y04437D01*
X02165Y04403D02*
Y04437D01*
X02215Y04403D02*
Y04437D01*
X0219Y02893D02*
Y02927D01*
X0224Y02893D02*
Y02927D01*
X02323Y03215D02*
X02357D01*
X02323Y03165D02*
X02357D01*
X02323Y03125D02*
X02357D01*
X02323Y03075D02*
X02357D01*
X0249Y02933D02*
Y02967D01*
X0244Y02933D02*
Y02967D01*
X02333Y0279D02*
X02367D01*
X02333Y0284D02*
X02367D01*
X02333Y02625D02*
X02367D01*
X02333Y02675D02*
X02367D01*
X02333Y02705D02*
X02367D01*
X02333Y02755D02*
X02367D01*
X0188Y02018D02*
Y02052D01*
X0183Y02018D02*
Y02052D01*
X0179Y02018D02*
Y02052D01*
X0174Y02018D02*
Y02052D01*
X01645Y02013D02*
Y02047D01*
X01695Y02013D02*
Y02047D01*
X0192Y02018D02*
Y02052D01*
X0197Y02018D02*
Y02052D01*
X0207Y02328D02*
Y02362D01*
X0212Y02328D02*
Y02362D01*
X01775Y02633D02*
Y02667D01*
X01725Y02633D02*
Y02667D01*
X01768Y0276D02*
X01802D01*
X01768Y0281D02*
X01802D01*
X0187Y02633D02*
Y02667D01*
X0182Y02633D02*
Y02667D01*
X0195Y02633D02*
Y02667D01*
X019Y02633D02*
Y02667D01*
X01328Y0266D02*
X01362D01*
X01328Y0271D02*
X01362D01*
X01328Y02605D02*
X01362D01*
X01328Y02555D02*
X01362D01*
X01178Y02835D02*
X01212D01*
X01178Y02785D02*
X01212D01*
X01343Y0224D02*
X01377D01*
X01343Y0219D02*
X01377D01*
X01173Y0224D02*
X01207D01*
X01173Y0219D02*
X01207D01*
X01518Y0239D02*
X01552D01*
X01518Y0234D02*
X01552D01*
X0167Y04528D02*
Y04562D01*
X0162Y04528D02*
Y04562D01*
X02798Y0231D02*
X02832D01*
X02798Y0236D02*
X02832D01*
X02798Y0222D02*
X02832D01*
X02798Y0227D02*
X02832D01*
X02783Y036D02*
X02817D01*
X02783Y0365D02*
X02817D01*
X02783Y0368D02*
X02817D01*
X02783Y0373D02*
X02817D01*
X02803Y0244D02*
X02837D01*
X02803Y0249D02*
X02837D01*
X02803Y0252D02*
X02837D01*
X02803Y0257D02*
X02837D01*
X02803Y026D02*
X02837D01*
X02803Y0265D02*
X02837D01*
X02803Y0268D02*
X02837D01*
X02803Y0273D02*
X02837D01*
X02803Y0276D02*
X02837D01*
X02803Y0281D02*
X02837D01*
X02803Y029D02*
X02837D01*
X02803Y0285D02*
X02837D01*
X02803Y0299D02*
X02837D01*
X02803Y0294D02*
X02837D01*
X02803Y0307D02*
X02837D01*
X02803Y0302D02*
X02837D01*
X02803Y0315D02*
X02837D01*
X02803Y031D02*
X02837D01*
X02803Y0323D02*
X02837D01*
X02803Y0318D02*
X02837D01*
X0213Y01868D02*
Y01902D01*
X0218Y01868D02*
Y01902D01*
X0222Y01868D02*
Y01902D01*
X0227Y01868D02*
Y01902D01*
X0202Y02328D02*
Y02362D01*
X0197Y02328D02*
Y02362D01*
D11*
X039995Y017026D02*
X042005D01*
X039995Y018074D02*
X042005D01*
X043Y0283D02*
Y029046D01*
Y031565D02*
Y0323D01*
X042362Y030928D02*
X043Y031565D01*
X042362D02*
X043638D01*
Y029046D02*
Y031565D01*
X042362Y029046D02*
X043638D01*
X042362D02*
Y031565D01*
X031933Y011468D02*
Y012469D01*
Y011468D02*
X045933D01*
X031933Y012469D02*
X045933D01*
Y011468D02*
Y012469D01*
X045547Y050839D02*
Y051839D01*
X031547D02*
X045547D01*
X031547Y050839D02*
X045547D01*
X031547D02*
Y051839D01*
X062374Y024495D02*
Y026505D01*
X061326Y024495D02*
Y026505D01*
X0539Y03215D02*
X054215D01*
X0539Y03115D02*
X054215D01*
X050476Y014945D02*
Y016955D01*
X051524Y014945D02*
Y016955D01*
X066776Y014895D02*
Y016905D01*
X067824Y014895D02*
Y016905D01*
X064026Y014895D02*
Y016905D01*
X065074Y014895D02*
Y016905D01*
X069676Y014945D02*
Y016955D01*
X070724Y014945D02*
Y016955D01*
X072376Y014895D02*
Y016905D01*
X073424Y014895D02*
Y016905D01*
X065476Y024538D02*
Y026548D01*
X066524Y024538D02*
Y026548D01*
X063976Y024545D02*
Y026555D01*
X065024Y024545D02*
Y026555D01*
X068126Y024545D02*
Y026555D01*
X069174Y024545D02*
Y026555D01*
X059826Y033738D02*
Y035748D01*
X060874Y033738D02*
Y035748D01*
X048926Y014945D02*
Y016955D01*
X049974Y014945D02*
Y016955D01*
X05795Y015625D02*
Y01594D01*
X05895Y015625D02*
Y01594D01*
X056276Y014845D02*
Y016855D01*
X057324Y014845D02*
Y016855D01*
X035258Y017713D02*
Y019662D01*
X036242Y017595D02*
Y019662D01*
X036471Y04754D02*
Y04756D01*
X035329D02*
X036471D01*
X035329Y04754D02*
Y04756D01*
Y04754D02*
X036471D01*
X036491Y04691D02*
Y047402D01*
X015893Y041641D02*
Y042133D01*
X014725Y04227D02*
X015875D01*
X014725D02*
Y04233D01*
X015875D01*
Y04227D02*
Y04233D01*
X06195Y015625D02*
Y01594D01*
X06295Y015625D02*
Y01594D01*
X039682Y035871D02*
X039918D01*
X039682Y034729D02*
Y035871D01*
Y034729D02*
X039918D01*
Y035871D01*
X040056Y03593D02*
X040528D01*
X059324Y033745D02*
Y035755D01*
X058276Y033745D02*
Y035755D01*
X058274Y024495D02*
Y026505D01*
X057226Y024495D02*
Y026505D01*
X061174Y014795D02*
Y016805D01*
X060126Y014795D02*
Y016805D01*
X075024Y024545D02*
Y026555D01*
X073976Y024545D02*
Y026555D01*
X073474Y024545D02*
Y026555D01*
X072426Y024545D02*
Y026555D01*
X048424Y014945D02*
Y016955D01*
X047376Y014945D02*
Y016955D01*
X070724Y024545D02*
Y026555D01*
X069676Y024545D02*
Y026555D01*
X0451Y032525D02*
Y03284D01*
X0441Y032525D02*
Y03284D01*
X017853Y019398D02*
X018168D01*
X017863Y018408D02*
X018178D01*
X079424Y045652D02*
Y045948D01*
Y045652D02*
X080576D01*
Y045948D01*
X079424D02*
X080576D01*
X07937Y046085D02*
Y046538D01*
X039194Y025809D02*
Y025937D01*
X041006Y025809D02*
Y025937D01*
X039194Y026863D02*
Y026991D01*
X041006Y026863D02*
Y026991D01*
X039194Y025809D02*
X041006D01*
X039194Y026991D02*
X041006D01*
X038632Y022534D02*
X039232D01*
X03937Y022585D02*
Y024515D01*
X04063D01*
Y022585D02*
Y024515D01*
X03937Y022585D02*
X04063D01*
X012531Y023882D02*
Y024118D01*
X011369D02*
X012531D01*
X011369Y023882D02*
Y024118D01*
Y023882D02*
X012531D01*
X012541Y023272D02*
Y023744D01*
X036437Y021041D02*
Y021159D01*
X036338Y0211D02*
X036535Y020903D01*
X036338Y0211D02*
X036535Y021297D01*
Y020903D02*
Y021297D01*
X036496Y020982D02*
Y021218D01*
X036299Y020903D02*
Y021297D01*
X032998Y020949D02*
X034802D01*
X032998Y018351D02*
X034802D01*
X032998D02*
Y020949D01*
X034802Y018351D02*
Y020949D01*
X041226Y034142D02*
X043174D01*
X041107Y033158D02*
X043174D01*
X039585Y029552D02*
Y030812D01*
Y029552D02*
X041515D01*
Y030812D01*
X039585D02*
X041515D01*
X039534Y03095D02*
Y03155D01*
X043813Y022294D02*
X043941D01*
X043813Y024106D02*
X043941D01*
X042759Y022294D02*
X042887D01*
X042759Y024106D02*
X042887D01*
X043941Y022294D02*
Y024106D01*
X042759Y022294D02*
Y024106D01*
X02403Y028822D02*
Y029294D01*
X022829Y029432D02*
X023971D01*
X022829D02*
Y029668D01*
X023971D01*
Y029432D02*
Y029668D01*
X016082Y029619D02*
X016318D01*
Y030781D01*
X016082D02*
X016318D01*
X016082Y029619D02*
Y030781D01*
X015472Y029609D02*
X015944D01*
X016716Y023222D02*
Y024678D01*
Y023222D02*
X018684D01*
Y024678D01*
X016716D02*
X018684D01*
X016706Y024816D02*
Y025397D01*
X015643Y022414D02*
Y023063D01*
X015957Y022414D02*
Y022886D01*
X013009Y024156D02*
Y024628D01*
X013019Y024018D02*
X014181D01*
Y023782D02*
Y024018D01*
X013019Y023782D02*
X014181D01*
X013019D02*
Y024018D01*
X015059Y025306D02*
Y025778D01*
X015069Y025168D02*
X016231D01*
Y024932D02*
Y025168D01*
X015069Y024932D02*
X016231D01*
X015069D02*
Y025168D01*
X018597Y044295D02*
X019502D01*
X018597Y042705D02*
Y044295D01*
Y042705D02*
X019502D01*
Y044295D01*
X01964Y044366D02*
X020201D01*
D13*
X0506Y02245D02*
G03*
X0506Y02165I0J-0004D01*
G01*
X0526D02*
G03*
X0526Y02245I0J0004D01*
G01*
X04835Y02175D02*
G03*
X04835Y02255I0J0004D01*
G01*
X04635D02*
G03*
X04635Y02175I0J-0004D01*
G01*
X0439Y0284D02*
G03*
X0447Y0284I0004J0D01*
G01*
Y0304D02*
G03*
X0439Y0304I-0004J0D01*
G01*
X0511Y02205D02*
X0514D01*
X05185D02*
X05215D01*
X0514Y0218D02*
Y02235D01*
X05185Y0218D02*
Y02235D01*
X0506Y02165D02*
X0526D01*
X0506Y02245D02*
X0526D01*
X04755Y02215D02*
X04785D01*
X0468D02*
X0471D01*
X04755Y02185D02*
Y0224D01*
X0471Y02185D02*
Y0224D01*
X04635Y02255D02*
X04835D01*
X04635Y02175D02*
X04835D01*
X0447Y0284D02*
Y0304D01*
X0439Y0284D02*
Y0304D01*
X04405Y02915D02*
X0446D01*
X04405Y0296D02*
X0446D01*
X0443Y02885D02*
Y02915D01*
Y0296D02*
Y0299D01*
X01015Y02965D02*
Y03315D01*
Y03095D02*
X01035D01*
Y03175D01*
X01015D02*
X01035D01*
X01015Y03315D02*
X01415D01*
Y02965D02*
Y03315D01*
X01015Y02965D02*
X01415D01*
X013D02*
Y03315D01*
X01355Y02965D02*
Y03315D01*
D14*
X0152Y04139D02*
X0166D01*
Y04072D02*
Y04139D01*
X0152Y04072D02*
X0166D01*
X0152D02*
Y04139D01*
X07139Y0354D02*
Y0368D01*
X07072Y0354D02*
X07139D01*
X07072D02*
Y0368D01*
X07139D01*
X03734Y01844D02*
Y01997D01*
X03667Y01844D02*
X03734D01*
X03667D02*
Y01997D01*
X03734D01*
X04063Y01969D02*
X04216D01*
Y01902D02*
Y01969D01*
X04063Y01902D02*
X04216D01*
X04063D02*
Y01969D01*
X03869Y01901D02*
X04022D01*
X03869D02*
Y01968D01*
X04022D01*
Y01901D02*
Y01968D01*
X016Y04356D02*
Y04423D01*
X0146D02*
X016D01*
X0146Y04356D02*
Y04423D01*
Y04356D02*
X016D01*
X03726Y03448D02*
X03793D01*
Y03601D01*
X03726D02*
X03793D01*
X03726Y03448D02*
Y03601D01*
X01424Y04165D02*
Y04305D01*
X01357Y04165D02*
X01424D01*
X01357D02*
Y04305D01*
X01424D01*
X04091Y03473D02*
X04158D01*
Y03626D01*
X04091D02*
X04158D01*
X04091Y03473D02*
Y03626D01*
X04303Y01779D02*
X04456D01*
Y01712D02*
Y01779D01*
X04303Y01712D02*
X04456D01*
X04303D02*
Y01779D01*
X04591Y03635D02*
X04658D01*
Y03775D01*
X04591D02*
X04658D01*
X04591Y03635D02*
Y03775D01*
X03811Y0346D02*
X03878D01*
Y036D01*
X03811D02*
X03878D01*
X03811Y0346D02*
Y036D01*
X04065Y03197D02*
Y03264D01*
Y03197D02*
X04205D01*
Y03264D01*
X04065D02*
X04205D01*
X03915Y02747D02*
Y02814D01*
Y02747D02*
X04055D01*
Y02814D01*
X03915D02*
X04055D01*
X03889Y03196D02*
X04042D01*
X03889D02*
Y03263D01*
X04042D01*
Y03196D02*
Y03263D01*
X0376Y02747D02*
Y02814D01*
Y02747D02*
X039D01*
Y02814D01*
X0376D02*
X039D01*
X0376Y02877D02*
Y02944D01*
Y02877D02*
X039D01*
Y02944D01*
X0376D02*
X039D01*
X03765Y03007D02*
Y03074D01*
Y03007D02*
X03905D01*
Y03074D01*
X03765D02*
X03905D01*
X07372Y0368D02*
X07439D01*
X07372Y0354D02*
Y0368D01*
Y0354D02*
X07439D01*
Y0368D01*
X07277D02*
X07344D01*
X07277Y0354D02*
Y0368D01*
Y0354D02*
X07344D01*
Y0368D01*
X07177D02*
X07244D01*
X07177Y0354D02*
Y0368D01*
Y0354D02*
X07244D01*
Y0368D01*
X01734Y02131D02*
X01887D01*
X01734D02*
Y02198D01*
X01887D01*
Y02131D02*
Y02198D01*
X0216Y02329D02*
X023D01*
Y02262D02*
Y02329D01*
X0216Y02262D02*
X023D01*
X0216D02*
Y02329D01*
Y02239D02*
X023D01*
Y02172D02*
Y02239D01*
X0216Y02172D02*
X023D01*
X0216D02*
Y02239D01*
X03905Y03607D02*
Y03674D01*
Y03607D02*
X04045D01*
Y03674D01*
X03905D02*
X04045D01*
X04686Y03635D02*
X04753D01*
Y03775D01*
X04686D02*
X04753D01*
X04686Y03635D02*
Y03775D01*
X03908Y03434D02*
X04061D01*
Y03367D02*
Y03434D01*
X03908Y03367D02*
X04061D01*
X03908D02*
Y03434D01*
X04161Y0209D02*
X04228D01*
Y0223D01*
X04161D02*
X04228D01*
X04161Y0209D02*
Y0223D01*
X04061Y0209D02*
X04128D01*
Y0223D01*
X04061D02*
X04128D01*
X04061Y0209D02*
Y0223D01*
X03966Y0209D02*
X04033D01*
Y0223D01*
X03966D02*
X04033D01*
X03966Y0209D02*
Y0223D01*
X04161Y0225D02*
X04228D01*
Y0239D01*
X04161D02*
X04228D01*
X04161Y0225D02*
Y0239D01*
X03824Y02149D02*
Y02302D01*
X03757Y02149D02*
X03824D01*
X03757D02*
Y02302D01*
X03824D01*
X03756Y0233D02*
X03823D01*
Y0247D01*
X03756D02*
X03823D01*
X03756Y0233D02*
Y0247D01*
X02061Y04173D02*
Y04326D01*
X02128D01*
Y04173D02*
Y04326D01*
X02061Y04173D02*
X02128D01*
X01958Y04589D02*
X02111D01*
Y04522D02*
Y04589D01*
X01958Y04522D02*
X02111D01*
X01958D02*
Y04589D01*
X01788D02*
X01941D01*
Y04522D02*
Y04589D01*
X01788Y04522D02*
X01941D01*
X01788D02*
Y04589D01*
X01793Y04234D02*
X01946D01*
Y04167D02*
Y04234D01*
X01793Y04167D02*
X01946D01*
X01793D02*
Y04234D01*
X02061Y04343D02*
Y04496D01*
X02128D01*
Y04343D02*
Y04496D01*
X02061Y04343D02*
X02128D01*
X02224Y04344D02*
Y04497D01*
X02157Y04344D02*
X02224D01*
X02157D02*
Y04497D01*
X02224D01*
X02249Y02834D02*
Y02987D01*
X02182Y02834D02*
X02249D01*
X02182D02*
Y02987D01*
X02249D01*
X02264Y03156D02*
X02417D01*
X02264D02*
Y03223D01*
X02417D01*
Y03156D02*
Y03223D01*
X0227Y03067D02*
Y03134D01*
Y03067D02*
X0241D01*
Y03134D01*
X0227D02*
X0241D01*
X02432Y0302D02*
X02499D01*
X02432Y0288D02*
Y0302D01*
Y0288D02*
X02499D01*
Y0302D01*
X02273Y02849D02*
X02426D01*
Y02782D02*
Y02849D01*
X02273Y02782D02*
X02426D01*
X02273D02*
Y02849D01*
X0242Y02616D02*
Y02683D01*
X0228D02*
X0242D01*
X0228Y02616D02*
Y02683D01*
Y02616D02*
X0242D01*
X0242Y02696D02*
Y02763D01*
X0228D02*
X0242D01*
X0228Y02696D02*
Y02763D01*
Y02696D02*
X0242D01*
X01821Y01965D02*
Y02105D01*
X01888D01*
Y01965D02*
Y02105D01*
X01821Y01965D02*
X01888D01*
X01731D02*
Y02105D01*
X01798D01*
Y01965D02*
Y02105D01*
X01731Y01965D02*
X01798D01*
X01636Y01953D02*
X01703D01*
Y02106D01*
X01636D02*
X01703D01*
X01636Y01953D02*
Y02106D01*
X01911Y01958D02*
X01978D01*
Y02111D01*
X01911D02*
X01978D01*
X01911Y01958D02*
Y02111D01*
X02129Y02275D02*
Y02415D01*
X02062Y02275D02*
X02129D01*
X02062D02*
Y02415D01*
X02129D01*
X01717Y02727D02*
X01784D01*
X01717Y02574D02*
Y02727D01*
Y02574D02*
X01784D01*
Y02727D01*
X01715Y02819D02*
X01855D01*
Y02752D02*
Y02819D01*
X01715Y02752D02*
X01855D01*
X01715D02*
Y02819D01*
X01812Y02727D02*
X01879D01*
X01812Y02574D02*
Y02727D01*
Y02574D02*
X01879D01*
Y02727D01*
X01892D02*
X01959D01*
X01892Y02574D02*
Y02727D01*
Y02574D02*
X01959D01*
Y02727D01*
X01275Y02719D02*
X01415D01*
Y02652D02*
Y02719D01*
X01275Y02652D02*
X01415D01*
X01275D02*
Y02719D01*
Y02546D02*
X01415D01*
X01275D02*
Y02613D01*
X01415D01*
Y02546D02*
Y02613D01*
X01125Y02776D02*
X01265D01*
X01125D02*
Y02843D01*
X01265D01*
Y02776D02*
Y02843D01*
X0129Y02181D02*
X0143D01*
X0129D02*
Y02248D01*
X0143D01*
Y02181D02*
Y02248D01*
X0112Y02181D02*
X0126D01*
X0112D02*
Y02248D01*
X0126D01*
Y02181D02*
Y02248D01*
X01465Y02331D02*
X01605D01*
X01465D02*
Y02398D01*
X01605D01*
Y02331D02*
Y02398D01*
X01612Y04615D02*
X01679D01*
X01612Y04475D02*
Y04615D01*
Y04475D02*
X01679D01*
Y04615D01*
X02885Y02301D02*
Y02368D01*
X02745D02*
X02885D01*
X02745Y02301D02*
Y02368D01*
Y02301D02*
X02885D01*
Y02211D02*
Y02278D01*
X02745D02*
X02885D01*
X02745Y02211D02*
Y02278D01*
Y02211D02*
X02885D01*
X0287Y03591D02*
Y03658D01*
X0273D02*
X0287D01*
X0273Y03591D02*
Y03658D01*
Y03591D02*
X0287D01*
X0287Y03671D02*
Y03738D01*
X0273D02*
X0287D01*
X0273Y03671D02*
Y03738D01*
Y03671D02*
X0287D01*
X02743Y02499D02*
X02896D01*
Y02432D02*
Y02499D01*
X02743Y02432D02*
X02896D01*
X02743D02*
Y02499D01*
Y02579D02*
X02896D01*
Y02512D02*
Y02579D01*
X02743Y02512D02*
X02896D01*
X02743D02*
Y02579D01*
Y02659D02*
X02896D01*
Y02592D02*
Y02659D01*
X02743Y02592D02*
X02896D01*
X02743D02*
Y02659D01*
Y02739D02*
X02896D01*
Y02672D02*
Y02739D01*
X02743Y02672D02*
X02896D01*
X02743D02*
Y02739D01*
Y02819D02*
X02896D01*
Y02752D02*
Y02819D01*
X02743Y02752D02*
X02896D01*
X02743D02*
Y02819D01*
X02744Y02841D02*
X02897D01*
X02744D02*
Y02908D01*
X02897D01*
Y02841D02*
Y02908D01*
X02744Y02931D02*
X02897D01*
X02744D02*
Y02998D01*
X02897D01*
Y02931D02*
Y02998D01*
X02744Y03011D02*
X02897D01*
X02744D02*
Y03078D01*
X02897D01*
Y03011D02*
Y03078D01*
X02744Y03091D02*
X02897D01*
X02744D02*
Y03158D01*
X02897D01*
Y03091D02*
Y03158D01*
X02744Y03171D02*
X02897D01*
X02744D02*
Y03238D01*
X02897D01*
Y03171D02*
Y03238D01*
X02121Y01815D02*
X02188D01*
Y01955D01*
X02121D02*
X02188D01*
X02121Y01815D02*
Y01955D01*
X02211Y01815D02*
X02278D01*
Y01955D01*
X02211D02*
X02278D01*
X02211Y01815D02*
Y01955D01*
X01962Y02415D02*
X02029D01*
X01962Y02275D02*
Y02415D01*
Y02275D02*
X02029D01*
Y02415D01*
D15*
X050022Y025384D02*
X050377D01*
X048723D02*
X049078D01*
X050022Y023416D02*
X050377D01*
X048723D02*
X049078D01*
X05545Y0309D02*
Y0324D01*
X0527Y0309D02*
X05545D01*
X0527D02*
Y0324D01*
X05545D01*
X0577Y017175D02*
X0592D01*
Y014425D02*
Y017175D01*
X0577Y014425D02*
X0592D01*
X0577D02*
Y017175D01*
X036372Y042734D02*
X036727D01*
X035073D02*
X035428D01*
X036372Y040766D02*
X036727D01*
X035073D02*
X035428D01*
X0617Y017175D02*
X0632D01*
Y014425D02*
Y017175D01*
X0617Y014425D02*
X0632D01*
X0617D02*
Y017175D01*
X04385Y031325D02*
Y034075D01*
Y031325D02*
X04535D01*
Y034075D01*
X04385D02*
X04535D01*
X017096Y01827D02*
X018946D01*
Y01953D01*
X017096D02*
X018946D01*
X017096Y01827D02*
Y01953D01*
X01569Y03127D02*
X01821D01*
Y03253D01*
X01569D02*
X01821D01*
X01569Y03127D02*
Y03253D01*
D19*
X04819Y04478D02*
X04825Y04472D01*
Y0446D01*
X04819Y04454D01*
X04795D01*
X04789Y0446D01*
Y04472D01*
X04795Y04478D01*
X04825Y04508D02*
Y04496D01*
X04819Y0449D01*
X04795D01*
X04789Y04496D01*
Y04508D01*
X04795Y04514D01*
X04819D01*
X04825Y04508D01*
X04789Y04526D02*
X04825D01*
X04813Y04538D01*
X04825Y0455D01*
X04789D01*
Y04586D02*
Y04562D01*
X04813Y04586D01*
X04819D01*
X04825Y0458D01*
Y04568D01*
X04819Y04562D01*
X047914Y046369D02*
X048274D01*
Y046549D01*
X048214Y046609D01*
X048094D01*
X048034Y046549D01*
Y046369D01*
Y046489D02*
X047914Y046609D01*
X048214Y046969D02*
X048274Y046909D01*
Y046789D01*
X048214Y046729D01*
X048154D01*
X048094Y046789D01*
Y046909D01*
X048034Y046969D01*
X047974D01*
X047914Y046909D01*
Y046789D01*
X047974Y046729D01*
X047914Y047269D02*
X048274D01*
X048094Y047089D01*
Y047329D01*
X048214Y047449D02*
X048274Y047509D01*
Y047628D01*
X048214Y047688D01*
X048154D01*
X048094Y047628D01*
X048034Y047688D01*
X047974D01*
X047914Y047628D01*
Y047509D01*
X047974Y047449D01*
X048034D01*
X048094Y047509D01*
X048154Y047449D01*
X048214D01*
X048094Y047509D02*
Y047628D01*
X048274Y048048D02*
Y047808D01*
X048094D01*
X048154Y047928D01*
Y047988D01*
X048094Y048048D01*
X047974D01*
X047914Y047988D01*
Y047868D01*
X047974Y047808D01*
X01619Y04167D02*
Y04203D01*
X01601D01*
X01595Y04197D01*
Y04185D01*
X01601Y04179D01*
X01619D01*
X01607D02*
X01595Y04167D01*
X01559Y04203D02*
X01571Y04197D01*
X01583Y04185D01*
Y04173D01*
X01577Y04167D01*
X01565D01*
X01559Y04173D01*
Y04179D01*
X01565Y04185D01*
X01583D01*
X01547Y04203D02*
X01523D01*
Y04197D01*
X01547Y04173D01*
Y04167D01*
X07113Y03707D02*
Y03743D01*
X07095D01*
X07089Y03737D01*
Y03725D01*
X07095Y03719D01*
X07113D01*
X07101D02*
X07089Y03707D01*
X07077Y03737D02*
X07071Y03743D01*
X07059D01*
X07053Y03737D01*
Y03731D01*
X07059Y03725D01*
X07065D01*
X07059D01*
X07053Y03719D01*
Y03713D01*
X07059Y03707D01*
X07071D01*
X07077Y03713D01*
X07041Y03737D02*
X07035Y03743D01*
X07023D01*
X07017Y03737D01*
Y03731D01*
X07023Y03725D01*
X07017Y03719D01*
Y03713D01*
X07023Y03707D01*
X07035D01*
X07041Y03713D01*
Y03719D01*
X07035Y03725D01*
X07041Y03731D01*
Y03737D01*
X07035Y03725D02*
X07023D01*
X03935Y01803D02*
Y01767D01*
X03917D01*
X03911Y01773D01*
Y01797D01*
X03917Y01803D01*
X03935D01*
X03899Y01767D02*
X03887D01*
X03893D01*
Y01803D01*
X03899Y01797D01*
X03869D02*
X03863Y01803D01*
X03851D01*
X03845Y01797D01*
Y01773D01*
X03851Y01767D01*
X03863D01*
X03869Y01773D01*
Y01797D01*
X0431Y02788D02*
Y02752D01*
X04292D01*
X04286Y02758D01*
Y02782D01*
X04292Y02788D01*
X0431D01*
X0425Y02752D02*
X04274D01*
X0425Y02776D01*
Y02782D01*
X04256Y02788D01*
X04268D01*
X04274Y02782D01*
X05077Y02316D02*
X05083Y02322D01*
X05095D01*
X05101Y02316D01*
Y02292D01*
X05095Y02286D01*
X05083D01*
X05077Y02292D01*
X05065Y02316D02*
X05059Y02322D01*
X05047D01*
X05041Y02316D01*
Y0231D01*
X05047Y02304D01*
X05053D01*
X05047D01*
X05041Y02298D01*
Y02292D01*
X05047Y02286D01*
X05059D01*
X05065Y02292D01*
X05029Y02322D02*
X05005D01*
Y02316D01*
X05029Y02292D01*
Y02286D01*
X06221Y02747D02*
Y02711D01*
X06203D01*
X06197Y02717D01*
Y02741D01*
X06203Y02747D01*
X06221D01*
X06161Y02711D02*
X06185D01*
X06161Y02735D01*
Y02741D01*
X06167Y02747D01*
X06179D01*
X06185Y02741D01*
X06149D02*
X06143Y02747D01*
X06131D01*
X06125Y02741D01*
Y02735D01*
X06131Y02729D01*
X06137D01*
X06131D01*
X06125Y02723D01*
Y02717D01*
X06131Y02711D01*
X06143D01*
X06149Y02717D01*
X04806Y02654D02*
Y02624D01*
X048Y02618D01*
X04788D01*
X04782Y02624D01*
Y02654D01*
X0477Y02618D02*
X04758D01*
X04764D01*
Y02654D01*
X0477Y02648D01*
X04658Y02315D02*
X04664Y02321D01*
X04676D01*
X04682Y02315D01*
Y02291D01*
X04676Y02285D01*
X04664D01*
X04658Y02291D01*
X04622Y02285D02*
X04646D01*
X04622Y02309D01*
Y02315D01*
X04628Y02321D01*
X0464D01*
X04646Y02315D01*
X04592Y02285D02*
Y02321D01*
X0461Y02303D01*
X04586D01*
X0531Y03304D02*
X05334D01*
Y03286D01*
X05322D01*
X05334D01*
Y03268D01*
X05274D02*
X05298D01*
X05274Y03292D01*
Y03298D01*
X0528Y03304D01*
X05292D01*
X05298Y03298D01*
X051Y01792D02*
Y01756D01*
X05082D01*
X05076Y01762D01*
Y01786D01*
X05082Y01792D01*
X051D01*
X05064Y01786D02*
X05058Y01792D01*
X05046D01*
X0504Y01786D01*
Y0178D01*
X05046Y01774D01*
X05052D01*
X05046D01*
X0504Y01768D01*
Y01762D01*
X05046Y01756D01*
X05058D01*
X05064Y01762D01*
X0673Y01787D02*
Y01751D01*
X06712D01*
X06706Y01757D01*
Y01781D01*
X06712Y01787D01*
X0673D01*
X0667D02*
X06694D01*
Y01769D01*
X06682Y01775D01*
X06676D01*
X0667Y01769D01*
Y01757D01*
X06676Y01751D01*
X06688D01*
X06694Y01757D01*
X06455Y01787D02*
Y01751D01*
X06437D01*
X06431Y01757D01*
Y01781D01*
X06437Y01787D01*
X06455D01*
X06419D02*
X06395D01*
Y01781D01*
X06419Y01757D01*
Y01751D01*
X0702Y01792D02*
Y01756D01*
X07002D01*
X06996Y01762D01*
Y01786D01*
X07002Y01792D01*
X0702D01*
X06984Y01786D02*
X06978Y01792D01*
X06966D01*
X0696Y01786D01*
Y0178D01*
X06966Y01774D01*
X0696Y01768D01*
Y01762D01*
X06966Y01756D01*
X06978D01*
X06984Y01762D01*
Y01768D01*
X06978Y01774D01*
X06984Y0178D01*
Y01786D01*
X06978Y01774D02*
X06966D01*
X0729Y01787D02*
Y01751D01*
X07272D01*
X07266Y01757D01*
Y01781D01*
X07272Y01787D01*
X0729D01*
X0723D02*
X07242Y01781D01*
X07254Y01769D01*
Y01757D01*
X07248Y01751D01*
X07236D01*
X0723Y01757D01*
Y01763D01*
X07236Y01769D01*
X07254D01*
X06618Y02751D02*
Y02715D01*
X066D01*
X06594Y02721D01*
Y02745D01*
X066Y02751D01*
X06618D01*
X06582Y02715D02*
X0657D01*
X06576D01*
Y02751D01*
X06582Y02745D01*
X06552Y02715D02*
X0654D01*
X06546D01*
Y02751D01*
X06552Y02745D01*
X0645Y02752D02*
Y02716D01*
X06432D01*
X06426Y02722D01*
Y02746D01*
X06432Y02752D01*
X0645D01*
X06414Y02722D02*
X06408Y02716D01*
X06396D01*
X0639Y02722D01*
Y02746D01*
X06396Y02752D01*
X06408D01*
X06414Y02746D01*
Y0274D01*
X06408Y02734D01*
X0639D01*
X06895Y02752D02*
Y02716D01*
X06877D01*
X06871Y02722D01*
Y02746D01*
X06877Y02752D01*
X06895D01*
X06859Y02716D02*
X06847D01*
X06853D01*
Y02752D01*
X06859Y02746D01*
X06805Y02716D02*
X06829D01*
X06805Y0274D01*
Y02746D01*
X06811Y02752D01*
X06823D01*
X06829Y02746D01*
X06065Y03671D02*
Y03635D01*
X06047D01*
X06041Y03641D01*
Y03665D01*
X06047Y03671D01*
X06065D01*
X06029Y03635D02*
X06017D01*
X06023D01*
Y03671D01*
X06029Y03665D01*
X05999Y03641D02*
X05993Y03635D01*
X05981D01*
X05975Y03641D01*
Y03665D01*
X05981Y03671D01*
X05993D01*
X05999Y03665D01*
Y03659D01*
X05993Y03653D01*
X05975D01*
X04981Y01792D02*
Y01756D01*
X04963D01*
X04957Y01762D01*
Y01786D01*
X04963Y01792D01*
X04981D01*
X04921Y01756D02*
X04945D01*
X04921Y0178D01*
Y01786D01*
X04927Y01792D01*
X04939D01*
X04945Y01786D01*
X04885Y01756D02*
X04909D01*
X04885Y0178D01*
Y01786D01*
X04891Y01792D01*
X04903D01*
X04909Y01786D01*
X0581Y01781D02*
X05834D01*
Y01763D01*
X05822D01*
X05834D01*
Y01745D01*
X05798Y01775D02*
X05792Y01781D01*
X0578D01*
X05774Y01775D01*
Y01769D01*
X0578Y01763D01*
X05786D01*
X0578D01*
X05774Y01757D01*
Y01751D01*
X0578Y01745D01*
X05792D01*
X05798Y01751D01*
X0574Y01782D02*
Y01746D01*
X05722D01*
X05716Y01752D01*
Y01776D01*
X05722Y01782D01*
X0574D01*
X05704Y01746D02*
X05692D01*
X05698D01*
Y01782D01*
X05704Y01776D01*
X0565Y01782D02*
X05662Y01776D01*
X05674Y01764D01*
Y01752D01*
X05668Y01746D01*
X05656D01*
X0565Y01752D01*
Y01758D01*
X05656Y01764D01*
X05674D01*
X0374Y02022D02*
Y02058D01*
X03722D01*
X03716Y02052D01*
Y0204D01*
X03722Y02034D01*
X0374D01*
X03728D02*
X03716Y02022D01*
X03704D02*
X03692D01*
X03698D01*
Y02058D01*
X03704Y02052D01*
X03674Y02022D02*
X03662D01*
X03668D01*
Y02058D01*
X03674Y02052D01*
X03644Y02028D02*
X03638Y02022D01*
X03626D01*
X0362Y02028D01*
Y02052D01*
X03626Y02058D01*
X03638D01*
X03644Y02052D01*
Y02046D01*
X03638Y0204D01*
X0362D01*
X03583Y02058D02*
Y02022D01*
X03565D01*
X03559Y02028D01*
Y02052D01*
X03565Y02058D01*
X03583D01*
X03523Y02022D02*
X03547D01*
X03523Y02046D01*
Y02052D01*
X03529Y02058D01*
X03541D01*
X03547Y02052D01*
X03511Y02058D02*
X03487D01*
Y02052D01*
X03511Y02028D01*
Y02022D01*
X04189Y01877D02*
X04195Y01883D01*
X04207D01*
X04213Y01877D01*
Y01853D01*
X04207Y01847D01*
X04195D01*
X04189Y01853D01*
X04153Y01847D02*
X04177D01*
X04153Y01871D01*
Y01877D01*
X04159Y01883D01*
X04171D01*
X04177Y01877D01*
X04117Y01847D02*
X04141D01*
X04117Y01871D01*
Y01877D01*
X04123Y01883D01*
X04135D01*
X04141Y01877D01*
X04008Y01837D02*
Y01873D01*
X0399D01*
X03984Y01867D01*
Y01855D01*
X0399Y01849D01*
X04008D01*
X03996D02*
X03984Y01837D01*
X03972D02*
X0396D01*
X03966D01*
Y01873D01*
X03972Y01867D01*
X03918Y01837D02*
X03942D01*
X03918Y01861D01*
Y01867D01*
X03924Y01873D01*
X03936D01*
X03942Y01867D01*
X03906D02*
X039Y01873D01*
X03888D01*
X03882Y01867D01*
Y01843D01*
X03888Y01837D01*
X039D01*
X03906Y01843D01*
Y01867D01*
X03787Y04389D02*
Y04359D01*
X03781Y04353D01*
X03769D01*
X03763Y04359D01*
Y04389D01*
X03727Y04353D02*
X03751D01*
X03727Y04377D01*
Y04383D01*
X03733Y04389D01*
X03745D01*
X03751Y04383D01*
X03654Y048914D02*
Y048554D01*
X03636D01*
X0363Y048614D01*
Y048854D01*
X03636Y048914D01*
X03654D01*
X03594Y048554D02*
X03618D01*
X03594Y048794D01*
Y048854D01*
X036Y048914D01*
X03612D01*
X03618Y048854D01*
X03558Y048914D02*
X0357Y048854D01*
X03582Y048734D01*
Y048614D01*
X03576Y048554D01*
X03564D01*
X03558Y048614D01*
Y048674D01*
X03564Y048734D01*
X03582D01*
X037082Y047104D02*
X036842D01*
X036962D01*
Y046744D01*
X036722Y047104D02*
Y046744D01*
X036543D01*
X036483Y046804D01*
Y046864D01*
X036543Y046924D01*
X036722D01*
X036543D01*
X036483Y046984D01*
Y047044D01*
X036543Y047104D01*
X036722D01*
X036363D02*
Y046804D01*
X036303Y046744D01*
X036183D01*
X036123Y046804D01*
Y047104D01*
X036003Y046744D02*
X035883D01*
X035943D01*
Y047104D01*
X036003Y047044D01*
X01501Y043383D02*
Y043623D01*
X01507Y043683D01*
X01519D01*
X01525Y043623D01*
Y043383D01*
X01519Y043323D01*
X01507D01*
X01513Y043443D02*
X01501Y043323D01*
X01507D02*
X01501Y043383D01*
X01465Y043323D02*
X01489D01*
X01465Y043563D01*
Y043623D01*
X01471Y043683D01*
X01483D01*
X01489Y043623D01*
X01559Y04451D02*
Y04487D01*
X01541D01*
X01535Y04481D01*
Y04469D01*
X01541Y04463D01*
X01559D01*
X01547D02*
X01535Y04451D01*
X01505D02*
Y04487D01*
X01523Y04469D01*
X01499D01*
X01487Y04487D02*
X01463D01*
Y04481D01*
X01487Y04457D01*
Y04451D01*
X0621Y01781D02*
X06234D01*
Y01763D01*
X06222D01*
X06234D01*
Y01745D01*
X0618D02*
Y01781D01*
X06198Y01763D01*
X06174D01*
X03801Y03659D02*
X03807Y03665D01*
X03819D01*
X03825Y03659D01*
Y03635D01*
X03819Y03629D01*
X03807D01*
X03801Y03635D01*
X03765Y03629D02*
X03789D01*
X03765Y03653D01*
Y03659D01*
X03771Y03665D01*
X03783D01*
X03789Y03659D01*
X03753D02*
X03747Y03665D01*
X03735D01*
X03729Y03659D01*
Y03653D01*
X03735Y03647D01*
X03741D01*
X03735D01*
X03729Y03641D01*
Y03635D01*
X03735Y03629D01*
X03747D01*
X03753Y03635D01*
X04131Y02715D02*
X04107D01*
X04119Y02727D02*
Y02703D01*
X0426Y02441D02*
Y02417D01*
X04248Y02429D02*
X04272D01*
X0724Y03708D02*
Y03744D01*
X07222D01*
X07216Y03738D01*
Y03726D01*
X07222Y0372D01*
X0724D01*
X07228D02*
X07216Y03708D01*
X07204Y03738D02*
X07198Y03744D01*
X07186D01*
X0718Y03738D01*
Y03732D01*
X07186Y03726D01*
X07192D01*
X07186D01*
X0718Y0372D01*
Y03714D01*
X07186Y03708D01*
X07198D01*
X07204Y03714D01*
X07168Y03744D02*
X07144D01*
Y03738D01*
X07168Y03714D01*
Y03708D01*
X07297Y03427D02*
X07333D01*
Y03445D01*
X07327Y03451D01*
X07315D01*
X07309Y03445D01*
Y03427D01*
Y03439D02*
X07297Y03451D01*
X07327Y03463D02*
X07333Y03469D01*
Y03481D01*
X07327Y03487D01*
X07321D01*
X07315Y03481D01*
Y03475D01*
Y03481D01*
X07309Y03487D01*
X07303D01*
X07297Y03481D01*
Y03469D01*
X07303Y03463D01*
X07333Y03523D02*
X07327Y03511D01*
X07315Y03499D01*
X07303D01*
X07297Y03505D01*
Y03517D01*
X07303Y03523D01*
X07309D01*
X07315Y03517D01*
Y03499D01*
X0742Y038018D02*
X07384D01*
Y037838D01*
X0739Y037778D01*
X07402D01*
X07408Y037838D01*
Y038018D01*
Y037898D02*
X0742Y037778D01*
X0739Y037658D02*
X07384Y037598D01*
Y037478D01*
X0739Y037418D01*
X07396D01*
X07402Y037478D01*
Y037538D01*
Y037478D01*
X07408Y037418D01*
X07414D01*
X0742Y037478D01*
Y037598D01*
X07414Y037658D01*
X07384Y037058D02*
Y037298D01*
X07402D01*
X07396Y037178D01*
Y037118D01*
X07402Y037058D01*
X07414D01*
X0742Y037118D01*
Y037238D01*
X07414Y037298D01*
X01944Y03042D02*
X0195Y03048D01*
X01962D01*
X01968Y03042D01*
Y03036D01*
X01962Y0303D01*
X0195D01*
X01944Y03024D01*
Y03018D01*
X0195Y03012D01*
X01962D01*
X01968Y03018D01*
X01932Y03048D02*
Y03012D01*
X01914D01*
X01908Y03018D01*
Y03024D01*
X01914Y0303D01*
X01932D01*
X01914D01*
X01908Y03036D01*
Y03042D01*
X01914Y03048D01*
X01932D01*
X01878Y03012D02*
Y03048D01*
X01896Y0303D01*
X01872D01*
X01388Y0338D02*
X014D01*
X01394D01*
Y0335D01*
X014Y03344D01*
X01406D01*
X01412Y0335D01*
X01376Y03344D02*
X01364D01*
X0137D01*
Y0338D01*
X01376Y03374D01*
X01346D02*
X0134Y0338D01*
X01328D01*
X01322Y03374D01*
Y0335D01*
X01328Y03344D01*
X0134D01*
X01346Y0335D01*
Y03374D01*
X01499Y02882D02*
X01505Y02888D01*
X01517D01*
X01523Y02882D01*
Y02876D01*
X01517Y0287D01*
X01505D01*
X01499Y02864D01*
Y02858D01*
X01505Y02852D01*
X01517D01*
X01523Y02858D01*
X01487Y02888D02*
Y02852D01*
X01469D01*
X01463Y02858D01*
Y02864D01*
X01469Y0287D01*
X01487D01*
X01469D01*
X01463Y02876D01*
Y02882D01*
X01469Y02888D01*
X01487D01*
X01451Y02882D02*
X01445Y02888D01*
X01433D01*
X01427Y02882D01*
Y02876D01*
X01433Y0287D01*
X01439D01*
X01433D01*
X01427Y02864D01*
Y02858D01*
X01433Y02852D01*
X01445D01*
X01451Y02858D01*
X01094Y02702D02*
X011Y02708D01*
X01112D01*
X01118Y02702D01*
Y02696D01*
X01112Y0269D01*
X011D01*
X01094Y02684D01*
Y02678D01*
X011Y02672D01*
X01112D01*
X01118Y02678D01*
X01082Y02708D02*
Y02672D01*
X01064D01*
X01058Y02678D01*
Y02684D01*
X01064Y0269D01*
X01082D01*
X01064D01*
X01058Y02696D01*
Y02702D01*
X01064Y02708D01*
X01082D01*
X01022Y02672D02*
X01046D01*
X01022Y02696D01*
Y02702D01*
X01028Y02708D01*
X0104D01*
X01046Y02702D01*
X01098Y02612D02*
X01104Y02618D01*
X01116D01*
X01122Y02612D01*
Y02606D01*
X01116Y026D01*
X01104D01*
X01098Y02594D01*
Y02588D01*
X01104Y02582D01*
X01116D01*
X01122Y02588D01*
X01086Y02618D02*
Y02582D01*
X01068D01*
X01062Y02588D01*
Y02594D01*
X01068Y026D01*
X01086D01*
X01068D01*
X01062Y02606D01*
Y02612D01*
X01068Y02618D01*
X01086D01*
X0105Y02582D02*
X01038D01*
X01044D01*
Y02618D01*
X0105Y02612D01*
X04108Y02078D02*
X04072D01*
Y0206D01*
X04078Y02054D01*
X0409D01*
X04096Y0206D01*
Y02078D01*
Y02066D02*
X04108Y02054D01*
X04078Y02042D02*
X04072Y02036D01*
Y02024D01*
X04078Y02018D01*
X04084D01*
X0409Y02024D01*
Y0203D01*
Y02024D01*
X04096Y02018D01*
X04102D01*
X04108Y02024D01*
Y02036D01*
X04102Y02042D01*
X04078Y02006D02*
X04072Y02D01*
Y01988D01*
X04078Y01982D01*
X04084D01*
X0409Y01988D01*
Y01994D01*
Y01988D01*
X04096Y01982D01*
X04102D01*
X04108Y01988D01*
Y02D01*
X04102Y02006D01*
X04208Y02078D02*
X04172D01*
Y0206D01*
X04178Y02054D01*
X0419D01*
X04196Y0206D01*
Y02078D01*
Y02066D02*
X04208Y02054D01*
X04178Y02042D02*
X04172Y02036D01*
Y02024D01*
X04178Y02018D01*
X04184D01*
X0419Y02024D01*
Y0203D01*
Y02024D01*
X04196Y02018D01*
X04202D01*
X04208Y02024D01*
Y02036D01*
X04202Y02042D01*
X04208Y01982D02*
Y02006D01*
X04184Y01982D01*
X04178D01*
X04172Y01988D01*
Y02D01*
X04178Y02006D01*
X04213Y02492D02*
X04177D01*
Y02474D01*
X04183Y02468D01*
X04195D01*
X04201Y02474D01*
Y02492D01*
Y0248D02*
X04213Y02468D01*
X04183Y02456D02*
X04177Y0245D01*
Y02438D01*
X04183Y02432D01*
X04189D01*
X04195Y02438D01*
Y02444D01*
Y02438D01*
X04201Y02432D01*
X04207D01*
X04213Y02438D01*
Y0245D01*
X04207Y02456D01*
X04213Y0242D02*
Y02408D01*
Y02414D01*
X04177D01*
X04183Y0242D01*
X04018Y02078D02*
X03982D01*
Y0206D01*
X03988Y02054D01*
X04D01*
X04006Y0206D01*
Y02078D01*
Y02066D02*
X04018Y02054D01*
X03988Y02042D02*
X03982Y02036D01*
Y02024D01*
X03988Y02018D01*
X03994D01*
X04Y02024D01*
Y0203D01*
Y02024D01*
X04006Y02018D01*
X04012D01*
X04018Y02024D01*
Y02036D01*
X04012Y02042D01*
X03988Y02006D02*
X03982Y02D01*
Y01988D01*
X03988Y01982D01*
X04012D01*
X04018Y01988D01*
Y02D01*
X04012Y02006D01*
X03988D01*
X03819Y02498D02*
Y02534D01*
X03801D01*
X03795Y02528D01*
Y02516D01*
X03801Y0251D01*
X03819D01*
X03807D02*
X03795Y02498D01*
X03759D02*
X03783D01*
X03759Y02522D01*
Y02528D01*
X03765Y02534D01*
X03777D01*
X03783Y02528D01*
X03747Y02504D02*
X03741Y02498D01*
X03729D01*
X03723Y02504D01*
Y02528D01*
X03729Y02534D01*
X03741D01*
X03747Y02528D01*
Y02522D01*
X03741Y02516D01*
X03723D01*
X04142Y02526D02*
X0413D01*
X04136D01*
Y0249D01*
X04142D01*
X0413D01*
X04088Y0252D02*
X04094Y02526D01*
X04106D01*
X04112Y0252D01*
Y02496D01*
X04106Y0249D01*
X04094D01*
X04088Y02496D01*
X04076D02*
X0407Y0249D01*
X04058D01*
X04052Y02496D01*
Y0252D01*
X04058Y02526D01*
X0407D01*
X04076Y0252D01*
Y02514D01*
X0407Y02508D01*
X04052D01*
X03797Y0236D02*
X03803Y02366D01*
X03815D01*
X03821Y0236D01*
Y02336D01*
X03815Y0233D01*
X03803D01*
X03797Y02336D01*
X03767Y0233D02*
Y02366D01*
X03785Y02348D01*
X03761D01*
X03749Y0236D02*
X03743Y02366D01*
X03731D01*
X03725Y0236D01*
Y02354D01*
X03731Y02348D01*
X03725Y02342D01*
Y02336D01*
X03731Y0233D01*
X03743D01*
X03749Y02336D01*
Y02342D01*
X03743Y02348D01*
X03749Y02354D01*
Y0236D01*
X03743Y02348D02*
X03731D01*
X01675Y04644D02*
Y0468D01*
X01657D01*
X01651Y04674D01*
Y04662D01*
X01657Y04656D01*
X01675D01*
X01663D02*
X01651Y04644D01*
X01615D02*
X01639D01*
X01615Y04668D01*
Y04674D01*
X01621Y0468D01*
X01633D01*
X01639Y04674D01*
X01603Y0468D02*
X01579D01*
Y04674D01*
X01603Y0465D01*
Y04644D01*
X04622Y03632D02*
X04658D01*
Y0365D01*
X04652Y03656D01*
X0464D01*
X04634Y0365D01*
Y03632D01*
Y03644D02*
X04622Y03656D01*
Y03692D02*
Y03668D01*
X04646Y03692D01*
X04652D01*
X04658Y03686D01*
Y03674D01*
X04652Y03668D01*
X04658Y03728D02*
X04652Y03716D01*
X0464Y03704D01*
X04628D01*
X04622Y0371D01*
Y03722D01*
X04628Y03728D01*
X04634D01*
X0464Y03722D01*
Y03704D01*
X04708Y03728D02*
X04672D01*
Y0371D01*
X04678Y03704D01*
X0469D01*
X04696Y0371D01*
Y03728D01*
Y03716D02*
X04708Y03704D01*
Y03668D02*
Y03692D01*
X04684Y03668D01*
X04678D01*
X04672Y03674D01*
Y03686D01*
X04678Y03692D01*
X04672Y03632D02*
Y03656D01*
X0469D01*
X04684Y03644D01*
Y03638D01*
X0469Y03632D01*
X04702D01*
X04708Y03638D01*
Y0365D01*
X04702Y03656D01*
X04042Y03702D02*
Y03738D01*
X04024D01*
X04018Y03732D01*
Y0372D01*
X04024Y03714D01*
X04042D01*
X0403D02*
X04018Y03702D01*
X03982D02*
X04006D01*
X03982Y03726D01*
Y03732D01*
X03988Y03738D01*
X04D01*
X04006Y03732D01*
X03952Y03702D02*
Y03738D01*
X0397Y0372D01*
X03946D01*
X03928Y03548D02*
X03892D01*
Y0353D01*
X03898Y03524D01*
X0391D01*
X03916Y0353D01*
Y03548D01*
Y03536D02*
X03928Y03524D01*
Y03488D02*
Y03512D01*
X03904Y03488D01*
X03898D01*
X03892Y03494D01*
Y03506D01*
X03898Y03512D01*
Y03476D02*
X03892Y0347D01*
Y03458D01*
X03898Y03452D01*
X03904D01*
X0391Y03458D01*
Y03464D01*
Y03458D01*
X03916Y03452D01*
X03922D01*
X03928Y03458D01*
Y0347D01*
X03922Y03476D01*
X0393Y03683D02*
X03918D01*
X03924D01*
Y03647D01*
X0393D01*
X03918D01*
X03876Y03677D02*
X03882Y03683D01*
X03894D01*
X039Y03677D01*
Y03653D01*
X03894Y03647D01*
X03882D01*
X03876Y03653D01*
X03864Y03677D02*
X03858Y03683D01*
X03846D01*
X0384Y03677D01*
Y03671D01*
X03846Y03665D01*
X03852D01*
X03846D01*
X0384Y03659D01*
Y03653D01*
X03846Y03647D01*
X03858D01*
X03864Y03653D01*
X04133Y03682D02*
X04139Y03688D01*
X04151D01*
X04157Y03682D01*
Y03658D01*
X04151Y03652D01*
X04139D01*
X04133Y03658D01*
X04097Y03652D02*
X04121D01*
X04097Y03676D01*
Y03682D01*
X04103Y03688D01*
X04115D01*
X04121Y03682D01*
X04085Y03652D02*
X04073D01*
X04079D01*
Y03688D01*
X04085Y03682D01*
X03859Y03417D02*
X03865Y03423D01*
X03877D01*
X03883Y03417D01*
Y03393D01*
X03877Y03387D01*
X03865D01*
X03859Y03393D01*
X03823Y03387D02*
X03847D01*
X03823Y03411D01*
Y03417D01*
X03829Y03423D01*
X03841D01*
X03847Y03417D01*
X03811D02*
X03805Y03423D01*
X03793D01*
X03787Y03417D01*
Y03393D01*
X03793Y03387D01*
X03805D01*
X03811Y03393D01*
Y03417D01*
X03733Y02892D02*
Y02928D01*
X03715D01*
X03709Y02922D01*
Y0291D01*
X03715Y02904D01*
X03733D01*
X03721D02*
X03709Y02892D01*
X03673D02*
X03697D01*
X03673Y02916D01*
Y02922D01*
X03679Y02928D01*
X03691D01*
X03697Y02922D01*
X03637Y02892D02*
X03661D01*
X03637Y02916D01*
Y02922D01*
X03643Y02928D01*
X03655D01*
X03661Y02922D01*
X03732Y02767D02*
Y02803D01*
X03714D01*
X03708Y02797D01*
Y02785D01*
X03714Y02779D01*
X03732D01*
X0372D02*
X03708Y02767D01*
X03672D02*
X03696D01*
X03672Y02791D01*
Y02797D01*
X03678Y02803D01*
X0369D01*
X03696Y02797D01*
X0366Y02767D02*
X03648D01*
X03654D01*
Y02803D01*
X0366Y02797D01*
X04173Y02762D02*
Y02798D01*
X04155D01*
X04149Y02792D01*
Y0278D01*
X04155Y02774D01*
X04173D01*
X04161D02*
X04149Y02762D01*
X04113D02*
X04137D01*
X04113Y02786D01*
Y02792D01*
X04119Y02798D01*
X04131D01*
X04137Y02792D01*
X04101D02*
X04095Y02798D01*
X04083D01*
X04077Y02792D01*
Y02768D01*
X04083Y02762D01*
X04095D01*
X04101Y02768D01*
Y02792D01*
X0374Y03027D02*
Y03063D01*
X03722D01*
X03716Y03057D01*
Y03045D01*
X03722Y03039D01*
X0374D01*
X03728D02*
X03716Y03027D01*
X03704D02*
X03692D01*
X03698D01*
Y03063D01*
X03704Y03057D01*
X03674Y03033D02*
X03668Y03027D01*
X03656D01*
X0365Y03033D01*
Y03057D01*
X03656Y03063D01*
X03668D01*
X03674Y03057D01*
Y03051D01*
X03668Y03045D01*
X0365D01*
X04205Y03277D02*
Y03313D01*
X04187D01*
X04181Y03307D01*
Y03295D01*
X04187Y03289D01*
X04205D01*
X04193D02*
X04181Y03277D01*
X04169D02*
X04157D01*
X04163D01*
Y03313D01*
X04169Y03307D01*
X04139D02*
X04133Y03313D01*
X04121D01*
X04115Y03307D01*
Y03301D01*
X04121Y03295D01*
X04115Y03289D01*
Y03283D01*
X04121Y03277D01*
X04133D01*
X04139Y03283D01*
Y03289D01*
X04133Y03295D01*
X04139Y03301D01*
Y03307D01*
X04133Y03295D02*
X04121D01*
X03935Y03153D02*
X03923D01*
X03929D01*
Y03117D01*
X03935D01*
X03923D01*
X03881Y03147D02*
X03887Y03153D01*
X03899D01*
X03905Y03147D01*
Y03123D01*
X03899Y03117D01*
X03887D01*
X03881Y03123D01*
X03845Y03117D02*
X03869D01*
X03845Y03141D01*
Y03147D01*
X03851Y03153D01*
X03863D01*
X03869Y03147D01*
X03831Y02692D02*
X03837Y02698D01*
X03849D01*
X03855Y02692D01*
Y02668D01*
X03849Y02662D01*
X03837D01*
X03831Y02668D01*
X03819Y02662D02*
X03807D01*
X03813D01*
Y02698D01*
X03819Y02692D01*
X03789Y02698D02*
X03765D01*
Y02692D01*
X03789Y02668D01*
Y02662D01*
X0161Y02198D02*
X01586D01*
Y02192D01*
X0161Y02168D01*
Y02162D01*
X01586D01*
X01574Y02192D02*
X01568Y02198D01*
X01556D01*
X0155Y02192D01*
Y02186D01*
X01556Y0218D01*
X01562D01*
X01556D01*
X0155Y02174D01*
Y02168D01*
X01556Y02162D01*
X01568D01*
X01574Y02168D01*
X02308Y04331D02*
X02344D01*
Y04349D01*
X02338Y04355D01*
X02326D01*
X0232Y04349D01*
Y04331D01*
Y04343D02*
X02308Y04355D01*
X02332Y04367D02*
X02308D01*
X0232D01*
X02326Y04373D01*
X02332Y04379D01*
Y04385D01*
Y04409D02*
Y04421D01*
X02326Y04427D01*
X02308D01*
Y04409D01*
X02314Y04403D01*
X0232Y04409D01*
Y04427D01*
X02308Y04439D02*
X02332D01*
Y04457D01*
X02326Y04463D01*
X02308D01*
X02296Y04487D02*
Y04493D01*
X02302Y04499D01*
X02332D01*
Y04481D01*
X02326Y04475D01*
X02314D01*
X02308Y04481D01*
Y04499D01*
Y04529D02*
Y04517D01*
X02314Y04511D01*
X02326D01*
X02332Y04517D01*
Y04529D01*
X02326Y04535D01*
X0232D01*
Y04511D01*
X02308Y04547D02*
Y04559D01*
Y04553D01*
X02344D01*
X02338Y04547D01*
X01979Y04108D02*
Y04144D01*
X01961D01*
X01955Y04138D01*
Y04126D01*
X01961Y0412D01*
X01979D01*
X01967D02*
X01955Y04108D01*
X01943Y04096D02*
Y04132D01*
X01925D01*
X01919Y04126D01*
Y04114D01*
X01925Y04108D01*
X01943D01*
X01889D02*
X01901D01*
X01907Y04114D01*
Y04126D01*
X01901Y04132D01*
X01889D01*
X01883Y04126D01*
Y0412D01*
X01907D01*
X01871Y04132D02*
Y04108D01*
Y0412D01*
X01865Y04126D01*
X01859Y04132D01*
X01853D01*
X01835Y04108D02*
X01823D01*
X01829D01*
Y04132D01*
X01835D01*
X01799Y04108D02*
X01787D01*
X01781Y04114D01*
Y04126D01*
X01787Y04132D01*
X01799D01*
X01805Y04126D01*
Y04114D01*
X01799Y04108D01*
X01745Y04144D02*
Y04108D01*
X01763D01*
X01769Y04114D01*
Y04126D01*
X01763Y04132D01*
X01745D01*
X01733Y04108D02*
X01721D01*
X01727D01*
Y04144D01*
X01733Y04138D01*
X02128Y04618D02*
Y04654D01*
X0211D01*
X02104Y04648D01*
Y04636D01*
X0211Y0463D01*
X02128D01*
X02116D02*
X02104Y04618D01*
X02092D02*
X0208D01*
X02086D01*
Y04654D01*
X02092D01*
X02056Y04618D02*
X02044D01*
X02038Y04624D01*
Y04636D01*
X02044Y04642D01*
X02056D01*
X02062Y04636D01*
Y04624D01*
X02056Y04618D01*
X02026D02*
Y04642D01*
X02008D01*
X02002Y04636D01*
Y04618D01*
X01978Y04606D02*
X01972D01*
X01966Y04612D01*
Y04642D01*
X01984D01*
X0199Y04636D01*
Y04624D01*
X01984Y04618D01*
X01966D01*
X01954D02*
X01942D01*
X01948D01*
Y04654D01*
X01954Y04648D01*
X02247Y04347D02*
X02283D01*
Y04365D01*
X02277Y04371D01*
X02265D01*
X02259Y04365D01*
Y04347D01*
Y04359D02*
X02247Y04371D01*
X02271Y04407D02*
Y04389D01*
X02265Y04383D01*
X02253D01*
X02247Y04389D01*
Y04407D01*
Y04425D02*
Y04437D01*
X02253Y04443D01*
X02265D01*
X02271Y04437D01*
Y04425D01*
X02265Y04419D01*
X02253D01*
X02247Y04425D01*
Y04455D02*
X02271D01*
Y04461D01*
X02265Y04467D01*
X02247D01*
X02265D01*
X02271Y04473D01*
X02265Y04479D01*
X02247D01*
Y04491D02*
Y04503D01*
Y04497D01*
X02283D01*
X02277Y04491D01*
X04452Y01657D02*
Y01693D01*
X04434D01*
X04428Y01687D01*
Y01675D01*
X04434Y01669D01*
X04452D01*
X0444D02*
X04428Y01657D01*
X04416D02*
X04404D01*
X0441D01*
Y01693D01*
X04416Y01687D01*
X04362Y01657D02*
X04386D01*
X04362Y01681D01*
Y01687D01*
X04368Y01693D01*
X0438D01*
X04386Y01687D01*
X0435Y01657D02*
X04338D01*
X04344D01*
Y01693D01*
X0435Y01687D01*
X01852Y02848D02*
Y02884D01*
X01834D01*
X01828Y02878D01*
Y02866D01*
X01834Y0286D01*
X01852D01*
X0184D02*
X01828Y02848D01*
X01792Y02884D02*
X01804Y02878D01*
X01816Y02866D01*
Y02854D01*
X0181Y02848D01*
X01798D01*
X01792Y02854D01*
Y0286D01*
X01798Y02866D01*
X01816D01*
X0178Y02878D02*
X01774Y02884D01*
X01762D01*
X01756Y02878D01*
Y02872D01*
X01762Y02866D01*
X01768D01*
X01762D01*
X01756Y0286D01*
Y02854D01*
X01762Y02848D01*
X01774D01*
X0178Y02854D01*
X01408Y04143D02*
X01372D01*
Y04125D01*
X01378Y04119D01*
X0139D01*
X01396Y04125D01*
Y04143D01*
Y04131D02*
X01408Y04119D01*
X01372Y04083D02*
X01378Y04095D01*
X0139Y04107D01*
X01402D01*
X01408Y04101D01*
Y04089D01*
X01402Y04083D01*
X01396D01*
X0139Y04089D01*
Y04107D01*
X01408Y04047D02*
Y04071D01*
X01384Y04047D01*
X01378D01*
X01372Y04053D01*
Y04065D01*
X01378Y04071D01*
X01997Y02023D02*
X02033D01*
Y02041D01*
X02027Y02047D01*
X02015D01*
X02009Y02041D01*
Y02023D01*
Y02035D02*
X01997Y02047D01*
X02033Y02083D02*
X02027Y02071D01*
X02015Y02059D01*
X02003D01*
X01997Y02065D01*
Y02077D01*
X02003Y02083D01*
X02009D01*
X02015Y02077D01*
Y02059D01*
X01997Y02095D02*
Y02107D01*
Y02101D01*
X02033D01*
X02027Y02095D01*
X01983Y01877D02*
Y01913D01*
X01965D01*
X01959Y01907D01*
Y01895D01*
X01965Y01889D01*
X01983D01*
X01971D02*
X01959Y01877D01*
X01923Y01913D02*
X01935Y01907D01*
X01947Y01895D01*
Y01883D01*
X01941Y01877D01*
X01929D01*
X01923Y01883D01*
Y01889D01*
X01929Y01895D01*
X01947D01*
X01911Y01907D02*
X01905Y01913D01*
X01893D01*
X01887Y01907D01*
Y01883D01*
X01893Y01877D01*
X01905D01*
X01911Y01883D01*
Y01907D01*
X01577Y01997D02*
X01613D01*
Y02015D01*
X01607Y02021D01*
X01595D01*
X01589Y02015D01*
Y01997D01*
Y02009D02*
X01577Y02021D01*
X01613Y02057D02*
Y02033D01*
X01595D01*
X01601Y02045D01*
Y02051D01*
X01595Y02057D01*
X01583D01*
X01577Y02051D01*
Y02039D01*
X01583Y02033D01*
Y02069D02*
X01577Y02075D01*
Y02087D01*
X01583Y02093D01*
X01607D01*
X01613Y02087D01*
Y02075D01*
X01607Y02069D01*
X01601D01*
X01595Y02075D01*
Y02093D01*
X01854Y03285D02*
Y03321D01*
X01836D01*
X0183Y03315D01*
Y03303D01*
X01836Y03297D01*
X01854D01*
X01842D02*
X0183Y03285D01*
X01794Y03321D02*
X01818D01*
Y03303D01*
X01806Y03309D01*
X018D01*
X01794Y03303D01*
Y03291D01*
X018Y03285D01*
X01812D01*
X01818Y03291D01*
X01782Y03315D02*
X01776Y03321D01*
X01764D01*
X01758Y03315D01*
Y03309D01*
X01764Y03303D01*
X01758Y03297D01*
Y03291D01*
X01764Y03285D01*
X01776D01*
X01782Y03291D01*
Y03297D01*
X01776Y03303D01*
X01782Y03309D01*
Y03315D01*
X01776Y03303D02*
X01764D01*
X02026Y02444D02*
Y0248D01*
X02008D01*
X02002Y02474D01*
Y02462D01*
X02008Y02456D01*
X02026D01*
X02014D02*
X02002Y02444D01*
X01966Y0248D02*
X0199D01*
Y02462D01*
X01978Y02468D01*
X01972D01*
X01966Y02462D01*
Y0245D01*
X01972Y02444D01*
X01984D01*
X0199Y0245D01*
X01954Y0248D02*
X0193D01*
Y02474D01*
X01954Y0245D01*
Y02444D01*
X02233Y02442D02*
Y02478D01*
X02215D01*
X02209Y02472D01*
Y0246D01*
X02215Y02454D01*
X02233D01*
X02221D02*
X02209Y02442D01*
X02173Y02478D02*
X02197D01*
Y0246D01*
X02185Y02466D01*
X02179D01*
X02173Y0246D01*
Y02448D01*
X02179Y02442D01*
X02191D01*
X02197Y02448D01*
X02137Y02478D02*
X02149Y02472D01*
X02161Y0246D01*
Y02448D01*
X02155Y02442D01*
X02143D01*
X02137Y02448D01*
Y02454D01*
X02143Y0246D01*
X02161D01*
X02418Y02192D02*
Y02228D01*
X024D01*
X02394Y02222D01*
Y0221D01*
X024Y02204D01*
X02418D01*
X02406D02*
X02394Y02192D01*
X02358Y02228D02*
X02382D01*
Y0221D01*
X0237Y02216D01*
X02364D01*
X02358Y0221D01*
Y02198D01*
X02364Y02192D01*
X02376D01*
X02382Y02198D01*
X02322Y02228D02*
X02346D01*
Y0221D01*
X02334Y02216D01*
X02328D01*
X02322Y0221D01*
Y02198D01*
X02328Y02192D01*
X0234D01*
X02346Y02198D01*
X02413Y02277D02*
Y02313D01*
X02395D01*
X02389Y02307D01*
Y02295D01*
X02395Y02289D01*
X02413D01*
X02401D02*
X02389Y02277D01*
X02353Y02313D02*
X02377D01*
Y02295D01*
X02365Y02301D01*
X02359D01*
X02353Y02295D01*
Y02283D01*
X02359Y02277D01*
X02371D01*
X02377Y02283D01*
X02323Y02277D02*
Y02313D01*
X02341Y02295D01*
X02317D01*
X01268Y02862D02*
Y02898D01*
X0125D01*
X01244Y02892D01*
Y0288D01*
X0125Y02874D01*
X01268D01*
X01256D02*
X01244Y02862D01*
X01208Y02898D02*
X01232D01*
Y0288D01*
X0122Y02886D01*
X01214D01*
X01208Y0288D01*
Y02868D01*
X01214Y02862D01*
X01226D01*
X01232Y02868D01*
X01196Y02892D02*
X0119Y02898D01*
X01178D01*
X01172Y02892D01*
Y02886D01*
X01178Y0288D01*
X01184D01*
X01178D01*
X01172Y02874D01*
Y02868D01*
X01178Y02862D01*
X0119D01*
X01196Y02868D01*
X01413Y02737D02*
Y02773D01*
X01395D01*
X01389Y02767D01*
Y02755D01*
X01395Y02749D01*
X01413D01*
X01401D02*
X01389Y02737D01*
X01353Y02773D02*
X01377D01*
Y02755D01*
X01365Y02761D01*
X01359D01*
X01353Y02755D01*
Y02743D01*
X01359Y02737D01*
X01371D01*
X01377Y02743D01*
X01317Y02737D02*
X01341D01*
X01317Y02761D01*
Y02767D01*
X01323Y02773D01*
X01335D01*
X01341Y02767D01*
X02184Y01984D02*
Y0202D01*
X02166D01*
X0216Y02014D01*
Y02002D01*
X02166Y01996D01*
X02184D01*
X02172D02*
X0216Y01984D01*
X02124Y0202D02*
X02148D01*
Y02002D01*
X02136Y02008D01*
X0213D01*
X02124Y02002D01*
Y0199D01*
X0213Y01984D01*
X02142D01*
X02148Y0199D01*
X02112Y01984D02*
X021D01*
X02106D01*
Y0202D01*
X02112Y02014D01*
X02274Y01984D02*
Y0202D01*
X02256D01*
X0225Y02014D01*
Y02002D01*
X02256Y01996D01*
X02274D01*
X02262D02*
X0225Y01984D01*
X02214Y0202D02*
X02238D01*
Y02002D01*
X02226Y02008D01*
X0222D01*
X02214Y02002D01*
Y0199D01*
X0222Y01984D01*
X02232D01*
X02238Y0199D01*
X02202Y02014D02*
X02196Y0202D01*
X02184D01*
X02178Y02014D01*
Y0199D01*
X02184Y01984D01*
X02196D01*
X02202Y0199D01*
Y02014D01*
X01377Y02533D02*
Y02497D01*
X01395D01*
X01401Y02503D01*
Y02515D01*
X01395Y02521D01*
X01377D01*
X01389D02*
X01401Y02533D01*
X01431D02*
Y02497D01*
X01413Y02515D01*
X01437D01*
X01449Y02527D02*
X01455Y02533D01*
X01467D01*
X01473Y02527D01*
Y02503D01*
X01467Y02497D01*
X01455D01*
X01449Y02503D01*
Y02509D01*
X01455Y02515D01*
X01473D01*
X01378Y02262D02*
Y02298D01*
X0136D01*
X01354Y02292D01*
Y0228D01*
X0136Y02274D01*
X01378D01*
X01366D02*
X01354Y02262D01*
X01324D02*
Y02298D01*
X01342Y0228D01*
X01318D01*
X01306Y02292D02*
X013Y02298D01*
X01288D01*
X01282Y02292D01*
Y02286D01*
X01288Y0228D01*
X01282Y02274D01*
Y02268D01*
X01288Y02262D01*
X013D01*
X01306Y02268D01*
Y02274D01*
X013Y0228D01*
X01306Y02286D01*
Y02292D01*
X013Y0228D02*
X01288D01*
X01538Y02277D02*
Y02313D01*
X0152D01*
X01514Y02307D01*
Y02295D01*
X0152Y02289D01*
X01538D01*
X01526D02*
X01514Y02277D01*
X01484D02*
Y02313D01*
X01502Y02295D01*
X01478D01*
X01442Y02313D02*
X01454Y02307D01*
X01466Y02295D01*
Y02283D01*
X0146Y02277D01*
X01448D01*
X01442Y02283D01*
Y02289D01*
X01448Y02295D01*
X01466D01*
X01213Y02262D02*
Y02298D01*
X01195D01*
X01189Y02292D01*
Y0228D01*
X01195Y02274D01*
X01213D01*
X01201D02*
X01189Y02262D01*
X01159D02*
Y02298D01*
X01177Y0228D01*
X01153D01*
X01123Y02262D02*
Y02298D01*
X01141Y0228D01*
X01117D01*
X02515Y03032D02*
Y03068D01*
X02497D01*
X02491Y03062D01*
Y0305D01*
X02497Y03044D01*
X02515D01*
X02503D02*
X02491Y03032D01*
X02479D02*
X02467D01*
X02473D01*
Y03068D01*
X02479Y03062D01*
X02449D02*
X02443Y03068D01*
X02431D01*
X02425Y03062D01*
Y03038D01*
X02431Y03032D01*
X02443D01*
X02449Y03038D01*
Y03062D01*
X0249Y03092D02*
Y03128D01*
X02472D01*
X02466Y03122D01*
Y0311D01*
X02472Y03104D01*
X0249D01*
X02478D02*
X02466Y03092D01*
X02454Y03098D02*
X02448Y03092D01*
X02436D01*
X0243Y03098D01*
Y03122D01*
X02436Y03128D01*
X02448D01*
X02454Y03122D01*
Y03116D01*
X02448Y0311D01*
X0243D01*
X02505Y02622D02*
Y02658D01*
X02487D01*
X02481Y02652D01*
Y0264D01*
X02487Y02634D01*
X02505D01*
X02493D02*
X02481Y02622D01*
X02445Y02658D02*
X02457Y02652D01*
X02469Y0264D01*
Y02628D01*
X02463Y02622D01*
X02451D01*
X02445Y02628D01*
Y02634D01*
X02451Y0264D01*
X02469D01*
X02505Y02707D02*
Y02743D01*
X02487D01*
X02481Y02737D01*
Y02725D01*
X02487Y02719D01*
X02505D01*
X02493D02*
X02481Y02707D01*
X02445Y02743D02*
X02469D01*
Y02725D01*
X02457Y02731D01*
X02451D01*
X02445Y02725D01*
Y02713D01*
X02451Y02707D01*
X02463D01*
X02469Y02713D01*
X0272Y02232D02*
Y02268D01*
X02702D01*
X02696Y02262D01*
Y0225D01*
X02702Y02244D01*
X0272D01*
X02708D02*
X02696Y02232D01*
X02666D02*
Y02268D01*
X02684Y0225D01*
X0266D01*
X0272Y02322D02*
Y02358D01*
X02702D01*
X02696Y02352D01*
Y0234D01*
X02702Y02334D01*
X0272D01*
X02708D02*
X02696Y02322D01*
X02684Y02352D02*
X02678Y02358D01*
X02666D01*
X0266Y02352D01*
Y02346D01*
X02666Y0234D01*
X02672D01*
X02666D01*
X0266Y02334D01*
Y02328D01*
X02666Y02322D01*
X02678D01*
X02684Y02328D01*
X02695Y03607D02*
Y03643D01*
X02677D01*
X02671Y03637D01*
Y03625D01*
X02677Y03619D01*
X02695D01*
X02683D02*
X02671Y03607D01*
X02635D02*
X02659D01*
X02635Y03631D01*
Y03637D01*
X02641Y03643D01*
X02653D01*
X02659Y03637D01*
X02694Y03687D02*
Y03723D01*
X02676D01*
X0267Y03717D01*
Y03705D01*
X02676Y03699D01*
X02694D01*
X02682D02*
X0267Y03687D01*
X02658D02*
X02646D01*
X02652D01*
Y03723D01*
X02658Y03717D01*
X01496Y03048D02*
Y03072D01*
X01502Y03078D01*
X01514D01*
X0152Y03072D01*
Y03048D01*
X01514Y03042D01*
X01502D01*
X01508Y03054D02*
X01496Y03042D01*
X01502D02*
X01496Y03048D01*
X0146Y03078D02*
X01472Y03072D01*
X01484Y0306D01*
Y03048D01*
X01478Y03042D01*
X01466D01*
X0146Y03048D01*
Y03054D01*
X01466Y0306D01*
X01484D01*
X01402Y02506D02*
Y0253D01*
X01408Y02536D01*
X0142D01*
X01426Y0253D01*
Y02506D01*
X0142Y025D01*
X01408D01*
X01414Y02512D02*
X01402Y025D01*
X01408D02*
X01402Y02506D01*
X01366Y02536D02*
X0139D01*
Y02518D01*
X01378Y02524D01*
X01372D01*
X01366Y02518D01*
Y02506D01*
X01372Y025D01*
X01384D01*
X0139Y02506D01*
X02696Y02528D02*
Y02552D01*
X02702Y02558D01*
X02714D01*
X0272Y02552D01*
Y02528D01*
X02714Y02522D01*
X02702D01*
X02708Y02534D02*
X02696Y02522D01*
X02702D02*
X02696Y02528D01*
X02666Y02522D02*
Y02558D01*
X02684Y0254D01*
X0266D01*
X01607Y02621D02*
Y02645D01*
X01613Y02651D01*
X01625D01*
X01631Y02645D01*
Y02621D01*
X01625Y02615D01*
X01613D01*
X01619Y02627D02*
X01607Y02615D01*
X01613D02*
X01607Y02621D01*
X01595Y02645D02*
X01589Y02651D01*
X01577D01*
X01571Y02645D01*
Y02639D01*
X01577Y02633D01*
X01583D01*
X01577D01*
X01571Y02627D01*
Y02621D01*
X01577Y02615D01*
X01589D01*
X01595Y02621D01*
X03462Y02253D02*
X0345D01*
X03456D01*
Y02217D01*
X03462D01*
X0345D01*
X03408Y02247D02*
X03414Y02253D01*
X03426D01*
X03432Y02247D01*
Y02241D01*
X03426Y02235D01*
X03414D01*
X03408Y02229D01*
Y02223D01*
X03414Y02217D01*
X03426D01*
X03432Y02223D01*
X03378Y02253D02*
X0339D01*
X03396Y02247D01*
Y02223D01*
X0339Y02217D01*
X03378D01*
X03372Y02223D01*
Y02247D01*
X03378Y02253D01*
X0336Y02217D02*
X03348D01*
X03354D01*
Y02253D01*
X0336Y02247D01*
X01933Y0228D02*
Y02292D01*
Y02286D01*
X01897D01*
Y0228D01*
Y02292D01*
X01927Y02334D02*
X01933Y02328D01*
Y02316D01*
X01927Y0231D01*
X01903D01*
X01897Y02316D01*
Y02328D01*
X01903Y02334D01*
X01933Y0237D02*
X01927Y02358D01*
X01915Y02346D01*
X01903D01*
X01897Y02352D01*
Y02364D01*
X01903Y0237D01*
X01909D01*
X01915Y02364D01*
Y02346D01*
X02025Y04504D02*
X02013D01*
X02019D01*
Y04468D01*
X02025D01*
X02013D01*
X01971Y04498D02*
X01977Y04504D01*
X01989D01*
X01995Y04498D01*
Y04474D01*
X01989Y04468D01*
X01977D01*
X01971Y04474D01*
X01935Y04504D02*
X01959D01*
Y04486D01*
X01947Y04492D01*
X01941D01*
X01935Y04486D01*
Y04474D01*
X01941Y04468D01*
X01953D01*
X01959Y04474D01*
X02249Y03053D02*
X02237D01*
X02243D01*
Y03017D01*
X02249D01*
X02237D01*
X02195Y03047D02*
X02201Y03053D01*
X02213D01*
X02219Y03047D01*
Y03023D01*
X02213Y03017D01*
X02201D01*
X02195Y03023D01*
X02183Y03017D02*
X02171D01*
X02177D01*
Y03053D01*
X02183Y03047D01*
X04507Y03471D02*
X04531D01*
Y03453D01*
X04519D01*
X04531D01*
Y03435D01*
X04495D02*
X04483D01*
X04489D01*
Y03471D01*
X04495Y03465D01*
X03721Y02214D02*
Y02178D01*
X03703D01*
X03697Y02184D01*
Y02208D01*
X03703Y02214D01*
X03721D01*
X03685D02*
X03673D01*
X03679D01*
Y02178D01*
X03685D01*
X03673D01*
X03637Y02214D02*
X03649D01*
X03655Y02208D01*
Y02184D01*
X03649Y02178D01*
X03637D01*
X03631Y02184D01*
Y02208D01*
X03637Y02214D01*
X03619Y02208D02*
X03613Y02214D01*
X03601D01*
X03595Y02208D01*
Y02202D01*
X03601Y02196D01*
X03607D01*
X03601D01*
X03595Y0219D01*
Y02184D01*
X03601Y02178D01*
X03613D01*
X03619Y02184D01*
X0594Y03672D02*
Y03636D01*
X05922D01*
X05916Y03642D01*
Y03666D01*
X05922Y03672D01*
X0594D01*
X0588Y03636D02*
X05904D01*
X0588Y0366D01*
Y03666D01*
X05886Y03672D01*
X05898D01*
X05904Y03666D01*
X05868Y03636D02*
X05856D01*
X05862D01*
Y03672D01*
X05868Y03666D01*
X05835Y02747D02*
Y02711D01*
X05817D01*
X05811Y02717D01*
Y02741D01*
X05817Y02747D01*
X05835D01*
X05775Y02711D02*
X05799D01*
X05775Y02735D01*
Y02741D01*
X05781Y02747D01*
X05793D01*
X05799Y02741D01*
X05763D02*
X05757Y02747D01*
X05745D01*
X05739Y02741D01*
Y02717D01*
X05745Y02711D01*
X05757D01*
X05763Y02717D01*
Y02741D01*
X06125Y01777D02*
Y01741D01*
X06107D01*
X06101Y01747D01*
Y01771D01*
X06107Y01777D01*
X06125D01*
X06089Y01741D02*
X06077D01*
X06083D01*
Y01777D01*
X06089Y01771D01*
X06059D02*
X06053Y01777D01*
X06041D01*
X06035Y01771D01*
Y01765D01*
X06041Y01759D01*
X06035Y01753D01*
Y01747D01*
X06041Y01741D01*
X06053D01*
X06059Y01747D01*
Y01753D01*
X06053Y01759D01*
X06059Y01765D01*
Y01771D01*
X06053Y01759D02*
X06041D01*
X0751Y02752D02*
Y02716D01*
X07492D01*
X07486Y02722D01*
Y02746D01*
X07492Y02752D01*
X0751D01*
X07474Y02716D02*
X07462D01*
X07468D01*
Y02752D01*
X07474Y02746D01*
X07444Y02752D02*
X0742D01*
Y02746D01*
X07444Y02722D01*
Y02716D01*
X073547Y02752D02*
Y02716D01*
X073367D01*
X073307Y02722D01*
Y02746D01*
X073367Y02752D01*
X073547D01*
X073187Y02716D02*
X073067D01*
X073127D01*
Y02752D01*
X073187Y02746D01*
X072647Y02752D02*
X072887D01*
Y02734D01*
X072767Y0274D01*
X072707D01*
X072647Y02734D01*
Y02722D01*
X072707Y02716D01*
X072827D01*
X072887Y02722D01*
X0485Y01792D02*
Y01756D01*
X04832D01*
X04826Y01762D01*
Y01786D01*
X04832Y01792D01*
X0485D01*
X04814Y01756D02*
X04802D01*
X04808D01*
Y01792D01*
X04814Y01786D01*
X04766Y01756D02*
Y01792D01*
X04784Y01774D01*
X0476D01*
X0708Y02752D02*
Y02716D01*
X07062D01*
X07056Y02722D01*
Y02746D01*
X07062Y02752D01*
X0708D01*
X07044Y02716D02*
X07032D01*
X07038D01*
Y02752D01*
X07044Y02746D01*
X07014D02*
X07008Y02752D01*
X06996D01*
X0699Y02746D01*
Y0274D01*
X06996Y02734D01*
X07002D01*
X06996D01*
X0699Y02728D01*
Y02722D01*
X06996Y02716D01*
X07008D01*
X07014Y02722D01*
X04315Y03473D02*
Y03437D01*
X04297D01*
X04291Y03443D01*
Y03467D01*
X04297Y03473D01*
X04315D01*
X04261Y03437D02*
Y03473D01*
X04279Y03455D01*
X04255D01*
X01902Y02781D02*
X01908Y02775D01*
Y02763D01*
X01902Y02757D01*
X01878D01*
X01872Y02763D01*
Y02775D01*
X01878Y02781D01*
X01902Y02793D02*
X01908Y02799D01*
Y02811D01*
X01902Y02817D01*
X01896D01*
X0189Y02811D01*
Y02805D01*
Y02811D01*
X01884Y02817D01*
X01878D01*
X01872Y02811D01*
Y02799D01*
X01878Y02793D01*
X01872Y02847D02*
X01908D01*
X0189Y02829D01*
Y02853D01*
X01957Y02786D02*
X01963Y0278D01*
Y02768D01*
X01957Y02762D01*
X01933D01*
X01927Y02768D01*
Y0278D01*
X01933Y02786D01*
X01957Y02798D02*
X01963Y02804D01*
Y02816D01*
X01957Y02822D01*
X01951D01*
X01945Y02816D01*
Y0281D01*
Y02816D01*
X01939Y02822D01*
X01933D01*
X01927Y02816D01*
Y02804D01*
X01933Y02798D01*
X01957Y02834D02*
X01963Y0284D01*
Y02852D01*
X01957Y02858D01*
X01951D01*
X01945Y02852D01*
Y02846D01*
Y02852D01*
X01939Y02858D01*
X01933D01*
X01927Y02852D01*
Y0284D01*
X01933Y02834D01*
X01552Y02016D02*
X01558Y0201D01*
Y01998D01*
X01552Y01992D01*
X01528D01*
X01522Y01998D01*
Y0201D01*
X01528Y02016D01*
X01552Y02028D02*
X01558Y02034D01*
Y02046D01*
X01552Y02052D01*
X01546D01*
X0154Y02046D01*
Y0204D01*
Y02046D01*
X01534Y02052D01*
X01528D01*
X01522Y02046D01*
Y02034D01*
X01528Y02028D01*
X01522Y02088D02*
Y02064D01*
X01546Y02088D01*
X01552D01*
X01558Y02082D01*
Y0207D01*
X01552Y02064D01*
X02077Y02042D02*
X02083Y02036D01*
Y02024D01*
X02077Y02018D01*
X02053D01*
X02047Y02024D01*
Y02036D01*
X02053Y02042D01*
X02077Y02054D02*
X02083Y0206D01*
Y02072D01*
X02077Y02078D01*
X02071D01*
X02065Y02072D01*
Y02066D01*
Y02072D01*
X02059Y02078D01*
X02053D01*
X02047Y02072D01*
Y0206D01*
X02053Y02054D01*
X02047Y0209D02*
Y02102D01*
Y02096D01*
X02083D01*
X02077Y0209D01*
X04594Y02842D02*
X046Y02848D01*
X04612D01*
X04618Y02842D01*
Y02818D01*
X04612Y02812D01*
X046D01*
X04594Y02818D01*
X04582Y02842D02*
X04576Y02848D01*
X04564D01*
X04558Y02842D01*
Y02836D01*
X04564Y0283D01*
X0457D01*
X04564D01*
X04558Y02824D01*
Y02818D01*
X04564Y02812D01*
X04576D01*
X04582Y02818D01*
X04546Y02842D02*
X0454Y02848D01*
X04528D01*
X04522Y02842D01*
Y02818D01*
X04528Y02812D01*
X0454D01*
X04546Y02818D01*
Y02842D01*
X01699Y02182D02*
X01705Y02188D01*
X01717D01*
X01723Y02182D01*
Y02158D01*
X01717Y02152D01*
X01705D01*
X01699Y02158D01*
X01663Y02152D02*
X01687D01*
X01663Y02176D01*
Y02182D01*
X01669Y02188D01*
X01681D01*
X01687Y02182D01*
X01651D02*
X01645Y02188D01*
X01633D01*
X01627Y02182D01*
Y02176D01*
X01633Y0217D01*
X01627Y02164D01*
Y02158D01*
X01633Y02152D01*
X01645D01*
X01651Y02158D01*
Y02164D01*
X01645Y0217D01*
X01651Y02176D01*
Y02182D01*
X01645Y0217D02*
X01633D01*
X02124Y04152D02*
X0213Y04158D01*
X02142D01*
X02148Y04152D01*
Y04128D01*
X02142Y04122D01*
X0213D01*
X02124Y04128D01*
X02088Y04122D02*
X02112D01*
X02088Y04146D01*
Y04152D01*
X02094Y04158D01*
X02106D01*
X02112Y04152D01*
X02076Y04158D02*
X02052D01*
Y04152D01*
X02076Y04128D01*
Y04122D01*
X01687Y02646D02*
X01693Y0264D01*
Y02628D01*
X01687Y02622D01*
X01663D01*
X01657Y02628D01*
Y0264D01*
X01663Y02646D01*
X01657Y02682D02*
Y02658D01*
X01681Y02682D01*
X01687D01*
X01693Y02676D01*
Y02664D01*
X01687Y02658D01*
X01693Y02718D02*
X01687Y02706D01*
X01675Y02694D01*
X01663D01*
X01657Y027D01*
Y02712D01*
X01663Y02718D01*
X01669D01*
X01675Y02712D01*
Y02694D01*
X01864Y04647D02*
X0187Y04653D01*
X01882D01*
X01888Y04647D01*
Y04623D01*
X01882Y04617D01*
X0187D01*
X01864Y04623D01*
X01828Y04617D02*
X01852D01*
X01828Y04641D01*
Y04647D01*
X01834Y04653D01*
X01846D01*
X01852Y04647D01*
X01792Y04653D02*
X01816D01*
Y04635D01*
X01804Y04641D01*
X01798D01*
X01792Y04635D01*
Y04623D01*
X01798Y04617D01*
X0181D01*
X01816Y04623D01*
X03836Y03237D02*
X03842Y03243D01*
X03854D01*
X0386Y03237D01*
Y03213D01*
X03854Y03207D01*
X03842D01*
X03836Y03213D01*
X03824Y03207D02*
X03812D01*
X03818D01*
Y03243D01*
X03824Y03237D01*
X03794D02*
X03788Y03243D01*
X03776D01*
X0377Y03237D01*
Y03231D01*
X03776Y03225D01*
X0377Y03219D01*
Y03213D01*
X03776Y03207D01*
X03788D01*
X03794Y03213D01*
Y03219D01*
X03788Y03225D01*
X03794Y03231D01*
Y03237D01*
X03788Y03225D02*
X03776D01*
X02516Y02822D02*
X02522Y02828D01*
X02534D01*
X0254Y02822D01*
Y02798D01*
X02534Y02792D01*
X02522D01*
X02516Y02798D01*
X02504Y02792D02*
X02492D01*
X02498D01*
Y02828D01*
X02504Y02822D01*
X02456Y02792D02*
Y02828D01*
X02474Y0281D01*
X0245D01*
X02511Y03202D02*
X02517Y03208D01*
X02529D01*
X02535Y03202D01*
Y03178D01*
X02529Y03172D01*
X02517D01*
X02511Y03178D01*
X02499Y03172D02*
X02487D01*
X02493D01*
Y03208D01*
X02499Y03202D01*
X02445Y03172D02*
X02469D01*
X02445Y03196D01*
Y03202D01*
X02451Y03208D01*
X02463D01*
X02469Y03202D01*
X02235Y02807D02*
X02241Y02813D01*
X02253D01*
X02259Y02807D01*
Y02783D01*
X02253Y02777D01*
X02241D01*
X02235Y02783D01*
X02223Y02777D02*
X02211D01*
X02217D01*
Y02813D01*
X02223Y02807D01*
X02193Y02777D02*
X02181D01*
X02187D01*
Y02813D01*
X02193Y02807D01*
X02691Y02472D02*
X02697Y02478D01*
X02709D01*
X02715Y02472D01*
Y02448D01*
X02709Y02442D01*
X02697D01*
X02691Y02448D01*
X02679Y02442D02*
X02667D01*
X02673D01*
Y02478D01*
X02679Y02472D01*
X02649D02*
X02643Y02478D01*
X02631D01*
X02625Y02472D01*
Y02448D01*
X02631Y02442D01*
X02643D01*
X02649Y02448D01*
Y02472D01*
X02696Y03137D02*
X02702Y03143D01*
X02714D01*
X0272Y03137D01*
Y03113D01*
X02714Y03107D01*
X02702D01*
X02696Y03113D01*
X02684D02*
X02678Y03107D01*
X02666D01*
X0266Y03113D01*
Y03137D01*
X02666Y03143D01*
X02678D01*
X02684Y03137D01*
Y03131D01*
X02678Y03125D01*
X0266D01*
X02696Y02552D02*
X02702Y02558D01*
X02714D01*
X0272Y02552D01*
Y02528D01*
X02714Y02522D01*
X02702D01*
X02696Y02528D01*
X02684Y02552D02*
X02678Y02558D01*
X02666D01*
X0266Y02552D01*
Y02546D01*
X02666Y0254D01*
X0266Y02534D01*
Y02528D01*
X02666Y02522D01*
X02678D01*
X02684Y02528D01*
Y02534D01*
X02678Y0254D01*
X02684Y02546D01*
Y02552D01*
X02678Y0254D02*
X02666D01*
X02701Y03217D02*
X02707Y03223D01*
X02719D01*
X02725Y03217D01*
Y03193D01*
X02719Y03187D01*
X02707D01*
X02701Y03193D01*
X02689Y03223D02*
X02665D01*
Y03217D01*
X02689Y03193D01*
Y03187D01*
X02701Y02887D02*
X02707Y02893D01*
X02719D01*
X02725Y02887D01*
Y02863D01*
X02719Y02857D01*
X02707D01*
X02701Y02863D01*
X02665Y02893D02*
X02677Y02887D01*
X02689Y02875D01*
Y02863D01*
X02683Y02857D01*
X02671D01*
X02665Y02863D01*
Y02869D01*
X02671Y02875D01*
X02689D01*
X02696Y02637D02*
X02702Y02643D01*
X02714D01*
X0272Y02637D01*
Y02613D01*
X02714Y02607D01*
X02702D01*
X02696Y02613D01*
X0266Y02643D02*
X02684D01*
Y02625D01*
X02672Y02631D01*
X02666D01*
X0266Y02625D01*
Y02613D01*
X02666Y02607D01*
X02678D01*
X02684Y02613D01*
X02701Y02972D02*
X02707Y02978D01*
X02719D01*
X02725Y02972D01*
Y02948D01*
X02719Y02942D01*
X02707D01*
X02701Y02948D01*
X02671Y02942D02*
Y02978D01*
X02689Y0296D01*
X02665D01*
X02696Y02712D02*
X02702Y02718D01*
X02714D01*
X0272Y02712D01*
Y02688D01*
X02714Y02682D01*
X02702D01*
X02696Y02688D01*
X02684Y02712D02*
X02678Y02718D01*
X02666D01*
X0266Y02712D01*
Y02706D01*
X02666Y027D01*
X02672D01*
X02666D01*
X0266Y02694D01*
Y02688D01*
X02666Y02682D01*
X02678D01*
X02684Y02688D01*
X02701Y03047D02*
X02707Y03053D01*
X02719D01*
X02725Y03047D01*
Y03023D01*
X02719Y03017D01*
X02707D01*
X02701Y03023D01*
X02665Y03017D02*
X02689D01*
X02665Y03041D01*
Y03047D01*
X02671Y03053D01*
X02683D01*
X02689Y03047D01*
X02695Y02797D02*
X02701Y02803D01*
X02713D01*
X02719Y02797D01*
Y02773D01*
X02713Y02767D01*
X02701D01*
X02695Y02773D01*
X02683Y02767D02*
X02671D01*
X02677D01*
Y02803D01*
X02683Y02797D01*
X01753Y0188D02*
X01729Y01856D01*
X01753D02*
X01729Y0188D01*
X01753Y01868D02*
X01729D01*
X01741Y01856D02*
Y0188D01*
D91*
X033339Y02065D02*
G03*
X033339Y02065I-000039J0D01*
G01*
D184*
X036984Y046327D02*
D03*
D185*
X040885Y0264D02*
D03*
D186*
X04335Y023985D02*
D03*
M02*
