G04*
G04 #@! TF.GenerationSoftware,Altium Limited,Altium Designer,20.1.7 (139)*
G04*
G04 Layer_Color=8421504*
%FSTAX24Y24*%
%MOIN*%
G70*
G04*
G04 #@! TF.SameCoordinates,F0BF9DC0-9546-437B-B132-7D81F4AFA61C*
G04*
G04*
G04 #@! TF.FilePolarity,Positive*
G04*
G01*
G75*
%ADD20R,0.0315X0.0157*%
%ADD21R,0.0984X0.0787*%
%ADD22R,0.0886X0.0197*%
%ADD23R,0.0550X0.0394*%
%ADD24R,0.0492X0.0236*%
%ADD25R,0.0394X0.0550*%
%ADD26R,0.0600X0.1000*%
%ADD27R,0.1378X0.0984*%
%ADD28R,0.0787X0.0591*%
%ADD29R,0.0866X0.0276*%
%ADD30R,0.0551X0.0472*%
%ADD31R,0.0866X0.0472*%
%ADD32R,0.0551X0.0630*%
%ADD33R,0.0591X0.0354*%
%ADD34R,0.0550X0.0500*%
%ADD35R,0.0354X0.0472*%
%ADD36R,0.0354X0.0472*%
%ADD37R,0.0315X0.0236*%
%ADD38R,0.0591X0.0512*%
D20*
X073146Y045593D02*
D03*
Y045907D02*
D03*
X073854D02*
D03*
Y045593D02*
D03*
D21*
X077925Y044138D02*
D03*
X080185Y044137D02*
D03*
Y04768D02*
D03*
X077925Y047682D02*
D03*
D22*
X077805Y04529D02*
D03*
X0778Y0456D02*
D03*
X077795Y04591D02*
D03*
X07779Y04622D02*
D03*
X077785Y04653D02*
D03*
D23*
X0359Y02215D02*
D03*
Y02125D02*
D03*
X0358Y0336D02*
D03*
Y0327D02*
D03*
X06865Y0437D02*
D03*
Y0428D02*
D03*
X0696Y0428D02*
D03*
Y0437D02*
D03*
X0385Y0364D02*
D03*
Y0373D02*
D03*
X03595Y01705D02*
D03*
Y01795D02*
D03*
X0376Y0364D02*
D03*
Y0373D02*
D03*
X04025Y048D02*
D03*
Y0489D02*
D03*
X037Y048D02*
D03*
Y0489D02*
D03*
X0345Y04885D02*
D03*
Y04795D02*
D03*
X03585Y025D02*
D03*
Y0259D02*
D03*
D24*
X035787Y03685D02*
D03*
X036613Y037226D02*
D03*
Y036474D02*
D03*
D25*
X0367Y03805D02*
D03*
X0358D02*
D03*
X0413Y013D02*
D03*
X0404D02*
D03*
X07515Y0453D02*
D03*
X07605D02*
D03*
X07515Y0462D02*
D03*
X07605D02*
D03*
X03735Y013D02*
D03*
X03645D02*
D03*
X0393D02*
D03*
X0384D02*
D03*
X0338Y03545D02*
D03*
X0347D02*
D03*
X03315Y04495D02*
D03*
X03225D02*
D03*
X03315Y04585D02*
D03*
X03225D02*
D03*
X03315Y04675D02*
D03*
X03225D02*
D03*
D26*
X03335Y01785D02*
D03*
X0347D02*
D03*
Y03301D02*
D03*
X03335D02*
D03*
X0347Y0368D02*
D03*
X03335D02*
D03*
X0347Y02164D02*
D03*
X03335D02*
D03*
X0347Y02543D02*
D03*
X03335D02*
D03*
D27*
X03865Y041305D02*
D03*
Y04662D02*
D03*
D28*
X0355Y043963D02*
D03*
Y042978D02*
D03*
Y044947D02*
D03*
X0418D02*
D03*
Y042978D02*
D03*
D29*
X075606Y03655D02*
D03*
Y036983D02*
D03*
Y037417D02*
D03*
Y03785D02*
D03*
Y038283D02*
D03*
Y038716D02*
D03*
Y039149D02*
D03*
Y039582D02*
D03*
Y040015D02*
D03*
D30*
X07592Y036098D02*
D03*
D31*
X0797D02*
D03*
Y0422D02*
D03*
D32*
X07592Y041846D02*
D03*
D33*
X034635Y02885D02*
D03*
Y029408D02*
D03*
X033415Y028851D02*
D03*
Y029408D02*
D03*
D34*
X0746Y0378D02*
D03*
Y0387D02*
D03*
X0394Y0489D02*
D03*
Y048D02*
D03*
X0378Y0489D02*
D03*
Y048D02*
D03*
X03535Y0489D02*
D03*
Y048D02*
D03*
D35*
X03365Y013D02*
D03*
X03565Y01305D02*
D03*
D36*
X03245Y013D02*
D03*
X03445Y01305D02*
D03*
D37*
X03925Y036685D02*
D03*
Y037315D02*
D03*
D38*
X035753Y029726D02*
D03*
Y028978D02*
D03*
M02*
