G04*
G04 #@! TF.GenerationSoftware,Altium Limited,Altium Designer,20.1.7 (139)*
G04*
G04 Layer_Color=16711935*
%FSTAX24Y24*%
%MOIN*%
G70*
G04*
G04 #@! TF.SameCoordinates,F0BF9DC0-9546-437B-B132-7D81F4AFA61C*
G04*
G04*
G04 #@! TF.FilePolarity,Negative*
G04*
G01*
G75*
%ADD42R,0.0630X0.0474*%
%ADD44R,0.0474X0.0630*%
%ADD53R,0.0630X0.0580*%
%ADD54R,0.0434X0.0552*%
%ADD55R,0.0434X0.0552*%
%ADD58C,0.0730*%
%ADD59R,0.0730X0.0730*%
%ADD60C,0.0720*%
%ADD61R,0.0720X0.0720*%
%ADD62R,0.0730X0.0730*%
%ADD63C,0.0780*%
%ADD64C,0.0080*%
%ADD65C,0.0277*%
%ADD66C,0.0867*%
%ADD67R,0.0867X0.0867*%
%ADD68C,0.2029*%
%ADD69C,0.0671*%
%ADD70C,0.0710*%
%ADD71R,0.0710X0.0710*%
G04:AMPARAMS|DCode=72|XSize=126.1mil|YSize=126.1mil|CornerRadius=33.5mil|HoleSize=0mil|Usage=FLASHONLY|Rotation=90.000|XOffset=0mil|YOffset=0mil|HoleType=Round|Shape=RoundedRectangle|*
%AMROUNDEDRECTD72*
21,1,0.1261,0.0591,0,0,90.0*
21,1,0.0591,0.1261,0,0,90.0*
1,1,0.0671,0.0295,0.0295*
1,1,0.0671,0.0295,-0.0295*
1,1,0.0671,-0.0295,-0.0295*
1,1,0.0671,-0.0295,0.0295*
%
%ADD72ROUNDEDRECTD72*%
G04:AMPARAMS|DCode=73|XSize=43.4mil|YSize=126.1mil|CornerRadius=12.9mil|HoleSize=0mil|Usage=FLASHONLY|Rotation=90.000|XOffset=0mil|YOffset=0mil|HoleType=Round|Shape=RoundedRectangle|*
%AMROUNDEDRECTD73*
21,1,0.0434,0.1004,0,0,90.0*
21,1,0.0177,0.1261,0,0,90.0*
1,1,0.0257,0.0502,0.0089*
1,1,0.0257,0.0502,-0.0089*
1,1,0.0257,-0.0502,-0.0089*
1,1,0.0257,-0.0502,0.0089*
%
%ADD73ROUNDEDRECTD73*%
%ADD74R,0.0730X0.0980*%
%ADD75O,0.0730X0.0980*%
%ADD76C,0.0678*%
%ADD77R,0.0678X0.0678*%
%ADD78R,0.0830X0.0830*%
%ADD79O,0.0830X0.0710*%
%ADD80C,0.0830*%
%ADD81C,0.2442*%
%ADD82O,0.0730X0.0830*%
%ADD83C,0.0680*%
%ADD84R,0.0671X0.0671*%
%ADD85O,0.0880X0.0830*%
%ADD86O,0.1280X0.1180*%
%ADD87C,0.0474*%
%ADD88C,0.0580*%
%ADD89C,0.0552*%
%ADD156R,0.0946X0.0690*%
%ADD157R,0.0690X0.0946*%
%ADD158R,0.0710X0.2285*%
%ADD159R,0.0789X0.1458*%
%ADD160R,0.1458X0.0789*%
%ADD161R,0.0690X0.0966*%
%ADD162R,0.0580X0.0630*%
%ADD163R,0.0316X0.0572*%
%ADD164R,0.0867X0.0808*%
%ADD165R,0.0867X0.0395*%
%ADD166R,0.0552X0.0316*%
G04:AMPARAMS|DCode=167|XSize=27.7mil|YSize=27.7mil|CornerRadius=8.9mil|HoleSize=0mil|Usage=FLASHONLY|Rotation=90.000|XOffset=0mil|YOffset=0mil|HoleType=Round|Shape=RoundedRectangle|*
%AMROUNDEDRECTD167*
21,1,0.0277,0.0098,0,0,90.0*
21,1,0.0098,0.0277,0,0,90.0*
1,1,0.0178,0.0049,0.0049*
1,1,0.0178,0.0049,-0.0049*
1,1,0.0178,-0.0049,-0.0049*
1,1,0.0178,-0.0049,0.0049*
%
%ADD167ROUNDEDRECTD167*%
G04:AMPARAMS|DCode=168|XSize=27.7mil|YSize=27.7mil|CornerRadius=8.9mil|HoleSize=0mil|Usage=FLASHONLY|Rotation=0.000|XOffset=0mil|YOffset=0mil|HoleType=Round|Shape=RoundedRectangle|*
%AMROUNDEDRECTD168*
21,1,0.0277,0.0098,0,0,0.0*
21,1,0.0098,0.0277,0,0,0.0*
1,1,0.0178,0.0049,-0.0049*
1,1,0.0178,-0.0049,-0.0049*
1,1,0.0178,-0.0049,0.0049*
1,1,0.0178,0.0049,0.0049*
%
%ADD168ROUNDEDRECTD168*%
G04:AMPARAMS|DCode=169|XSize=19.8mil|YSize=68mil|CornerRadius=7mil|HoleSize=0mil|Usage=FLASHONLY|Rotation=90.000|XOffset=0mil|YOffset=0mil|HoleType=Round|Shape=RoundedRectangle|*
%AMROUNDEDRECTD169*
21,1,0.0198,0.0541,0,0,90.0*
21,1,0.0059,0.0680,0,0,90.0*
1,1,0.0139,0.0270,0.0030*
1,1,0.0139,0.0270,-0.0030*
1,1,0.0139,-0.0270,-0.0030*
1,1,0.0139,-0.0270,0.0030*
%
%ADD169ROUNDEDRECTD169*%
%ADD170R,0.0592X0.1143*%
%ADD171R,0.0316X0.0533*%
%ADD172R,0.1045X0.0690*%
%ADD173R,0.0680X0.0336*%
%ADD174R,0.0316X0.0552*%
%ADD175O,0.0592X0.0946*%
%ADD176R,0.0966X0.0690*%
%ADD177R,0.0336X0.0680*%
%ADD178R,0.0690X0.1045*%
%ADD179R,0.0257X0.0661*%
%ADD180R,0.0245X0.0297*%
%ADD181R,0.0789X0.1379*%
%ADD182R,0.0641X0.0257*%
%ADD183R,0.0854X0.0363*%
G36*
X011705Y02624D02*
X01171Y026239D01*
X011715Y026237D01*
X01172Y026235D01*
X011724Y026232D01*
X011728Y026228D01*
X011928Y026028D01*
X011932Y026024D01*
X011935Y02602D01*
X011936Y026017D01*
X011937Y026015D01*
X011939Y02601D01*
X01194Y026005D01*
X01194Y026D01*
X01194Y025995D01*
X011939Y02599D01*
X011937Y025985D01*
X011935Y02598D01*
X011932Y025976D01*
X011928Y025972D01*
X011728Y025772D01*
X011724Y025768D01*
X01172Y025765D01*
X011715Y025763D01*
X01171Y025761D01*
X011705Y02576D01*
X0117Y02576D01*
X0114D01*
X011395Y02576D01*
X01139Y025761D01*
X011385Y025763D01*
X01138Y025765D01*
X011376Y025768D01*
X011372Y025772D01*
X011368Y025776D01*
X011365Y02578D01*
X011363Y025785D01*
X011361Y02579D01*
X01136Y025795D01*
X01136Y0258D01*
Y0262D01*
X01136Y026205D01*
X011361Y02621D01*
X011363Y026215D01*
X011365Y02622D01*
X011368Y026224D01*
X011372Y026228D01*
X011376Y026232D01*
X01138Y026235D01*
X011385Y026237D01*
X01139Y026239D01*
X011395Y02624D01*
X0114Y02624D01*
X0117D01*
X011705Y02624D01*
D02*
G37*
G36*
X012355Y02624D02*
X01236Y026239D01*
X012365Y026237D01*
X01237Y026235D01*
X012374Y026232D01*
X012378Y026228D01*
X012382Y026224D01*
X012385Y02622D01*
X012387Y026215D01*
X012389Y02621D01*
X01239Y026205D01*
X01239Y0262D01*
Y0258D01*
Y0258D01*
D01*
X01239Y025795D01*
X012389Y02579D01*
X012387Y025785D01*
X012385Y02578D01*
X012383Y025777D01*
X012382Y025776D01*
X012378Y025772D01*
X012378D01*
Y025772D01*
X012374Y025768D01*
X012373Y025767D01*
X01237Y025765D01*
X012365Y025763D01*
X01236Y025761D01*
X012355Y02576D01*
X01235Y02576D01*
D01*
X01235D01*
X0119Y02576D01*
X011895Y02576D01*
X01189Y025761D01*
X011885Y025763D01*
X01188Y025765D01*
X011877Y025767D01*
X011876Y025768D01*
X011872Y025772D01*
Y025772D01*
X011872D01*
X011868Y025776D01*
X011867Y025777D01*
X011865Y02578D01*
X011863Y025785D01*
X011861Y02579D01*
X01186Y025795D01*
X01186Y0258D01*
D01*
Y0258D01*
X01186Y025805D01*
X011861Y02581D01*
X011863Y025815D01*
X011865Y02582D01*
X011867Y025823D01*
X011868Y025824D01*
X011872Y025828D01*
X012043Y026D01*
X011872Y026172D01*
X011868Y026176D01*
X011865Y02618D01*
X011863Y026185D01*
X011861Y02619D01*
X01186Y026195D01*
X01186Y0262D01*
X01186Y026205D01*
X011861Y02621D01*
X011863Y026215D01*
X011865Y02622D01*
X011868Y026224D01*
X011872Y026228D01*
X011876Y026232D01*
X01188Y026235D01*
X011885Y026237D01*
X01189Y026239D01*
X011895Y02624D01*
X0119Y02624D01*
X01235D01*
X012355Y02624D01*
D02*
G37*
G36*
X011705Y02714D02*
X01171Y027139D01*
X011715Y027137D01*
X01172Y027135D01*
X011724Y027132D01*
X011728Y027128D01*
X011928Y026928D01*
X011932Y026924D01*
X011935Y02692D01*
X011936Y026917D01*
X011937Y026915D01*
X011939Y02691D01*
X01194Y026905D01*
X01194Y0269D01*
X01194Y026895D01*
X011939Y02689D01*
X011937Y026885D01*
X011935Y02688D01*
X011932Y026876D01*
X011928Y026872D01*
X011728Y026672D01*
X011724Y026668D01*
X01172Y026665D01*
X011715Y026663D01*
X01171Y026661D01*
X011705Y02666D01*
X0117Y02666D01*
X0114D01*
X011395Y02666D01*
X01139Y026661D01*
X011385Y026663D01*
X01138Y026665D01*
X011376Y026668D01*
X011372Y026672D01*
X011368Y026676D01*
X011365Y02668D01*
X011363Y026685D01*
X011361Y02669D01*
X01136Y026695D01*
X01136Y0267D01*
Y0271D01*
X01136Y027105D01*
X011361Y02711D01*
X011363Y027115D01*
X011365Y02712D01*
X011368Y027124D01*
X011372Y027128D01*
X011376Y027132D01*
X01138Y027135D01*
X011385Y027137D01*
X01139Y027139D01*
X011395Y02714D01*
X0114Y02714D01*
X0117D01*
X011705Y02714D01*
D02*
G37*
G36*
X012355Y02714D02*
X01236Y027139D01*
X012365Y027137D01*
X01237Y027135D01*
X012374Y027132D01*
X012378Y027128D01*
X012382Y027124D01*
X012385Y02712D01*
X012387Y027115D01*
X012389Y02711D01*
X01239Y027105D01*
X01239Y0271D01*
Y0267D01*
Y0267D01*
D01*
X01239Y026695D01*
X012389Y02669D01*
X012387Y026685D01*
X012385Y02668D01*
X012383Y026677D01*
X012382Y026676D01*
X012378Y026672D01*
X012378D01*
Y026672D01*
X012374Y026668D01*
X012373Y026667D01*
X01237Y026665D01*
X012365Y026663D01*
X01236Y026661D01*
X012355Y02666D01*
X01235Y02666D01*
D01*
X01235D01*
X0119Y02666D01*
X011895Y02666D01*
X01189Y026661D01*
X011885Y026663D01*
X01188Y026665D01*
X011877Y026667D01*
X011876Y026668D01*
X011872Y026672D01*
Y026672D01*
X011872D01*
X011868Y026676D01*
X011867Y026677D01*
X011865Y02668D01*
X011863Y026685D01*
X011861Y02669D01*
X01186Y026695D01*
X01186Y0267D01*
D01*
Y0267D01*
X01186Y026705D01*
X011861Y02671D01*
X011863Y026715D01*
X011865Y02672D01*
X011867Y026723D01*
X011868Y026724D01*
X011872Y026728D01*
X012043Y0269D01*
X011872Y027072D01*
X011868Y027076D01*
X011865Y02708D01*
X011863Y027085D01*
X011861Y02709D01*
X01186Y027095D01*
X01186Y0271D01*
X01186Y027105D01*
X011861Y02711D01*
X011863Y027115D01*
X011865Y02712D01*
X011868Y027124D01*
X011872Y027128D01*
X011876Y027132D01*
X01188Y027135D01*
X011885Y027137D01*
X01189Y027139D01*
X011895Y02714D01*
X0119Y02714D01*
X01235D01*
X012355Y02714D01*
D02*
G37*
G36*
X015555Y02859D02*
X01556Y028589D01*
X015565Y028587D01*
X01557Y028585D01*
X015573Y028583D01*
X015574Y028582D01*
X015578Y028578D01*
X01575Y028407D01*
X015922Y028578D01*
X015926Y028582D01*
X01593Y028585D01*
X015935Y028587D01*
X01594Y028589D01*
X015945Y02859D01*
X01595Y02859D01*
X015955Y02859D01*
X01596Y028589D01*
X015965Y028587D01*
X01597Y028585D01*
X015974Y028582D01*
X015978Y028578D01*
X015982Y028574D01*
X015985Y02857D01*
X015987Y028565D01*
X015989Y02856D01*
X01599Y028555D01*
X01599Y02855D01*
Y0281D01*
X01599Y028095D01*
X015989Y02809D01*
X015987Y028085D01*
X015985Y02808D01*
X015982Y028076D01*
X015978Y028072D01*
X015974Y028068D01*
X01597Y028065D01*
X015965Y028063D01*
X01596Y028061D01*
X015955Y02806D01*
X01595Y02806D01*
X01555D01*
X01555D01*
D01*
X015545Y02806D01*
X01554Y028061D01*
X015535Y028063D01*
X01553Y028065D01*
X015527Y028067D01*
X015526Y028068D01*
X015522Y028072D01*
Y028072D01*
X015522D01*
X015518Y028076D01*
X015517Y028077D01*
X015515Y02808D01*
X015513Y028085D01*
X015511Y02809D01*
X01551Y028095D01*
X01551Y0281D01*
D01*
Y0281D01*
X01551Y02855D01*
X01551Y028555D01*
X015511Y02856D01*
X015513Y028565D01*
X015515Y02857D01*
X015517Y028573D01*
X015518Y028574D01*
X015522Y028578D01*
X015522D01*
Y028578D01*
X015526Y028582D01*
X015527Y028583D01*
X01553Y028585D01*
X015535Y028587D01*
X01554Y028589D01*
X015545Y02859D01*
X01555Y02859D01*
D01*
X01555D01*
X015555Y02859D01*
D02*
G37*
G36*
X015955Y02909D02*
X01596Y029089D01*
X015965Y029087D01*
X01597Y029085D01*
X015974Y029082D01*
X015978Y029078D01*
X015982Y029074D01*
X015985Y02907D01*
X015987Y029065D01*
X015989Y02906D01*
X01599Y029055D01*
X01599Y02905D01*
Y02875D01*
X01599Y028745D01*
X015989Y02874D01*
X015987Y028735D01*
X015985Y02873D01*
X015982Y028726D01*
X015978Y028722D01*
X015778Y028522D01*
X015774Y028518D01*
X01577Y028515D01*
X015767Y028514D01*
X015765Y028513D01*
X01576Y028511D01*
X015755Y02851D01*
X01575Y02851D01*
X015745Y02851D01*
X01574Y028511D01*
X015735Y028513D01*
X01573Y028515D01*
X015726Y028518D01*
X015722Y028522D01*
X015522Y028722D01*
X015518Y028726D01*
X015515Y02873D01*
X015513Y028735D01*
X015511Y02874D01*
X01551Y028745D01*
X01551Y02875D01*
Y02905D01*
X01551Y029055D01*
X015511Y02906D01*
X015513Y029065D01*
X015515Y02907D01*
X015518Y029074D01*
X015522Y029078D01*
X015526Y029082D01*
X01553Y029085D01*
X015535Y029087D01*
X01554Y029089D01*
X015545Y02909D01*
X01555Y02909D01*
X01595D01*
X015955Y02909D01*
D02*
G37*
G36*
X018405Y03064D02*
X01841Y030639D01*
X018415Y030637D01*
X01842Y030635D01*
X018423Y030633D01*
X018424Y030632D01*
X018428Y030628D01*
Y030628D01*
X018428D01*
X018432Y030624D01*
X018433Y030623D01*
X018435Y03062D01*
X018437Y030615D01*
X018439Y03061D01*
X01844Y030605D01*
X01844Y0306D01*
D01*
Y0306D01*
X01844Y03015D01*
X01844Y030145D01*
X018439Y03014D01*
X018437Y030135D01*
X018435Y03013D01*
X018433Y030127D01*
X018432Y030126D01*
X018428Y030122D01*
X018428D01*
Y030122D01*
X018424Y030118D01*
X018423Y030117D01*
X01842Y030115D01*
X018415Y030113D01*
X01841Y030111D01*
X018405Y03011D01*
X0184Y03011D01*
D01*
X0184D01*
X018395Y03011D01*
X01839Y030111D01*
X018385Y030113D01*
X01838Y030115D01*
X018377Y030117D01*
X018376Y030118D01*
X018372Y030122D01*
X0182Y030293D01*
X018028Y030122D01*
X018024Y030118D01*
X01802Y030115D01*
X018015Y030113D01*
X01801Y030111D01*
X018005Y03011D01*
X018Y03011D01*
X017995Y03011D01*
X01799Y030111D01*
X017985Y030113D01*
X01798Y030115D01*
X017976Y030118D01*
X017972Y030122D01*
X017968Y030126D01*
X017965Y03013D01*
X017963Y030135D01*
X017961Y03014D01*
X01796Y030145D01*
X01796Y03015D01*
Y0306D01*
X01796Y030605D01*
X017961Y03061D01*
X017963Y030615D01*
X017965Y03062D01*
X017968Y030624D01*
X017972Y030628D01*
X017976Y030632D01*
X01798Y030635D01*
X017985Y030637D01*
X01799Y030639D01*
X017995Y03064D01*
X018Y03064D01*
X0184D01*
X0184D01*
D01*
X018405Y03064D01*
D02*
G37*
G36*
X018205Y03019D02*
X01821Y030189D01*
X018215Y030187D01*
X01822Y030185D01*
X018224Y030182D01*
X018228Y030178D01*
X018428Y029978D01*
X018432Y029974D01*
X018435Y02997D01*
X018437Y029965D01*
X018439Y02996D01*
X01844Y029955D01*
X01844Y02995D01*
Y02965D01*
X01844Y029645D01*
X018439Y02964D01*
X018437Y029635D01*
X018435Y02963D01*
X018432Y029626D01*
X018428Y029622D01*
X018424Y029618D01*
X01842Y029615D01*
X018415Y029613D01*
X01841Y029611D01*
X018405Y02961D01*
X0184Y02961D01*
X018D01*
X017995Y02961D01*
X01799Y029611D01*
X017985Y029613D01*
X01798Y029615D01*
X017976Y029618D01*
X017972Y029622D01*
X017968Y029626D01*
X017965Y02963D01*
X017963Y029635D01*
X017961Y02964D01*
X01796Y029645D01*
X01796Y02965D01*
Y02995D01*
X01796Y029955D01*
X017961Y02996D01*
X017963Y029965D01*
X017965Y02997D01*
X017968Y029974D01*
X017972Y029978D01*
X018172Y030178D01*
X018176Y030182D01*
X01818Y030185D01*
X018183Y030186D01*
X018185Y030187D01*
X01819Y030189D01*
X018195Y03019D01*
X0182Y03019D01*
X018205Y03019D01*
D02*
G37*
D42*
X07105Y03565D02*
D03*
Y03655D02*
D03*
X0139Y0419D02*
D03*
Y0428D02*
D03*
X04625Y0366D02*
D03*
Y0375D02*
D03*
X03845Y03485D02*
D03*
Y03575D02*
D03*
X07405Y03655D02*
D03*
Y03565D02*
D03*
X0731Y03655D02*
D03*
Y03565D02*
D03*
X0721Y03655D02*
D03*
Y03565D02*
D03*
X0472Y0366D02*
D03*
Y0375D02*
D03*
X04195Y02115D02*
D03*
Y02205D02*
D03*
X04095Y02115D02*
D03*
Y02205D02*
D03*
X04Y02115D02*
D03*
Y02205D02*
D03*
X04195Y02275D02*
D03*
Y02365D02*
D03*
X0379Y02355D02*
D03*
Y02445D02*
D03*
X02465Y02995D02*
D03*
Y02905D02*
D03*
X01855Y0208D02*
D03*
Y0199D02*
D03*
X01765Y0208D02*
D03*
Y0199D02*
D03*
X02095Y023D02*
D03*
Y0239D02*
D03*
X01645Y0459D02*
D03*
Y045D02*
D03*
X02155Y0184D02*
D03*
Y0193D02*
D03*
X02245Y0184D02*
D03*
Y0193D02*
D03*
X01995Y0239D02*
D03*
Y023D02*
D03*
D44*
X01635Y04105D02*
D03*
X01545D02*
D03*
X01575Y0439D02*
D03*
X01485D02*
D03*
X0409Y0323D02*
D03*
X0418D02*
D03*
X0394Y0278D02*
D03*
X0403D02*
D03*
X03785D02*
D03*
X03875D02*
D03*
X03785Y0291D02*
D03*
X03875D02*
D03*
X0379Y0304D02*
D03*
X0388D02*
D03*
X02275Y02295D02*
D03*
X02185D02*
D03*
X02275Y02205D02*
D03*
X02185D02*
D03*
X0393Y0364D02*
D03*
X0402D02*
D03*
X02295Y031D02*
D03*
X02385D02*
D03*
X02395Y0265D02*
D03*
X02305D02*
D03*
X02395Y0273D02*
D03*
X02305D02*
D03*
X0183Y02785D02*
D03*
X0174D02*
D03*
X0139Y02685D02*
D03*
X013D02*
D03*
X013Y0258D02*
D03*
X0139D02*
D03*
X0115Y0281D02*
D03*
X0124D02*
D03*
X01315Y02215D02*
D03*
X01405D02*
D03*
X01145D02*
D03*
X01235D02*
D03*
X0149Y02365D02*
D03*
X0158D02*
D03*
X0286Y02335D02*
D03*
X0277D02*
D03*
X0286Y02245D02*
D03*
X0277D02*
D03*
X02845Y03625D02*
D03*
X02755D02*
D03*
X02845Y03705D02*
D03*
X02755D02*
D03*
D53*
X037Y01875D02*
D03*
Y01965D02*
D03*
X0376Y0348D02*
D03*
Y0357D02*
D03*
X04125Y03505D02*
D03*
Y03595D02*
D03*
X0379Y0218D02*
D03*
Y0227D02*
D03*
X02095Y04295D02*
D03*
Y04205D02*
D03*
Y04465D02*
D03*
Y04375D02*
D03*
X0219D02*
D03*
Y04465D02*
D03*
X02215Y02865D02*
D03*
Y02955D02*
D03*
X0167Y01985D02*
D03*
Y02075D02*
D03*
X01945Y0199D02*
D03*
Y0208D02*
D03*
X0175Y02695D02*
D03*
Y02605D02*
D03*
X01845Y02695D02*
D03*
Y02605D02*
D03*
X01925Y02695D02*
D03*
Y02605D02*
D03*
D54*
X037Y0211D02*
D03*
D55*
X0358D02*
D03*
D58*
X043Y0283D02*
D03*
X075024Y051398D02*
D03*
Y050398D02*
D03*
X074024Y051398D02*
D03*
Y050398D02*
D03*
X073024Y051398D02*
D03*
Y050398D02*
D03*
X072024Y051398D02*
D03*
Y050398D02*
D03*
X071024Y051398D02*
D03*
X057244Y051358D02*
D03*
X058244Y050358D02*
D03*
Y051358D02*
D03*
X059244Y050358D02*
D03*
Y051358D02*
D03*
X060244Y050358D02*
D03*
Y051358D02*
D03*
X061244Y050358D02*
D03*
Y051358D02*
D03*
X062244Y050358D02*
D03*
Y051358D02*
D03*
X063244Y050358D02*
D03*
Y051358D02*
D03*
X064244Y050358D02*
D03*
Y051358D02*
D03*
X065244Y050358D02*
D03*
Y051358D02*
D03*
X066244Y050358D02*
D03*
Y051358D02*
D03*
D59*
X043Y0324D02*
D03*
D60*
X032433Y011968D02*
D03*
X033433D02*
D03*
X034433D02*
D03*
X035433D02*
D03*
X036433D02*
D03*
X037433D02*
D03*
X038433D02*
D03*
X039433D02*
D03*
X040433D02*
D03*
X041433D02*
D03*
X042433D02*
D03*
X043433D02*
D03*
X044433D02*
D03*
X045047Y051339D02*
D03*
X044047D02*
D03*
X043047D02*
D03*
X042047D02*
D03*
X041047D02*
D03*
X040047D02*
D03*
X039047D02*
D03*
X038047D02*
D03*
X037047D02*
D03*
X036047D02*
D03*
X035047D02*
D03*
X034047D02*
D03*
X033047D02*
D03*
D61*
X045433Y011968D02*
D03*
X032047Y051339D02*
D03*
D62*
X071024Y050398D02*
D03*
X057244Y050358D02*
D03*
D63*
X0506Y02205D02*
D03*
X0526D02*
D03*
X04835Y02215D02*
D03*
X04635D02*
D03*
X0443Y0284D02*
D03*
Y0304D02*
D03*
D64*
X03865Y042978D02*
D03*
Y04475D02*
D03*
X029586Y045906D02*
D03*
Y017402D02*
D03*
D65*
X079857Y04035D02*
D03*
Y037208D02*
D03*
X0779Y045923D02*
D03*
Y045613D02*
D03*
D66*
X061856Y01845D02*
D03*
X07288D02*
D03*
X064612D02*
D03*
X067368D02*
D03*
X070124D02*
D03*
X05221Y020419D02*
D03*
X054966D02*
D03*
X049454D02*
D03*
X048076Y01845D02*
D03*
X0591D02*
D03*
X050832D02*
D03*
X053588D02*
D03*
X056344D02*
D03*
X057722Y020419D02*
D03*
X063234D02*
D03*
X06599D02*
D03*
X068746D02*
D03*
X071502D02*
D03*
X060478D02*
D03*
X075635Y01845D02*
D03*
X074257Y020419D02*
D03*
X061856Y0282D02*
D03*
X07288D02*
D03*
X064612D02*
D03*
X067368D02*
D03*
X070124D02*
D03*
X05221Y030168D02*
D03*
X054966D02*
D03*
X049454D02*
D03*
X048076Y0282D02*
D03*
X0591D02*
D03*
X050832D02*
D03*
X053588D02*
D03*
X056344D02*
D03*
X057722Y030168D02*
D03*
X063234D02*
D03*
X06599D02*
D03*
X068746D02*
D03*
X071502D02*
D03*
X060478D02*
D03*
X075635Y0282D02*
D03*
X074257Y030168D02*
D03*
D67*
X046698Y020419D02*
D03*
Y030168D02*
D03*
D68*
X064119Y037692D02*
D03*
X054281D02*
D03*
D69*
X057564Y037133D02*
D03*
X058655D02*
D03*
X059745D02*
D03*
X060836D02*
D03*
X057019Y038251D02*
D03*
X058109D02*
D03*
X0592D02*
D03*
X060291D02*
D03*
X061381D02*
D03*
X026717Y011968D02*
D03*
X024717D02*
D03*
X023717D02*
D03*
X022717D02*
D03*
X021717D02*
D03*
X020717D02*
D03*
X019717D02*
D03*
X018717D02*
D03*
X025717D02*
D03*
D70*
X02505Y051339D02*
D03*
X02605D02*
D03*
X02705D02*
D03*
X02805D02*
D03*
X02905D02*
D03*
X02505Y050339D02*
D03*
X02605D02*
D03*
X02705D02*
D03*
X02805D02*
D03*
X02905D02*
D03*
X03005D02*
D03*
D71*
Y051339D02*
D03*
D72*
X029275Y043465D02*
D03*
Y019843D02*
D03*
D73*
X030137Y037906D02*
D03*
Y037406D02*
D03*
Y036406D02*
D03*
Y034906D02*
D03*
Y033906D02*
D03*
Y033406D02*
D03*
Y032406D02*
D03*
Y030906D02*
D03*
Y029906D02*
D03*
Y029406D02*
D03*
Y028406D02*
D03*
Y026906D02*
D03*
Y025906D02*
D03*
Y025406D02*
D03*
Y038406D02*
D03*
Y036906D02*
D03*
Y035906D02*
D03*
Y035406D02*
D03*
Y034406D02*
D03*
Y032906D02*
D03*
Y031906D02*
D03*
Y031406D02*
D03*
Y030406D02*
D03*
Y028906D02*
D03*
Y027906D02*
D03*
Y027406D02*
D03*
Y026406D02*
D03*
Y024906D02*
D03*
D74*
X01975Y05135D02*
D03*
X01525D02*
D03*
D75*
X02075D02*
D03*
X02175D02*
D03*
X01625D02*
D03*
X01725D02*
D03*
D76*
X052913Y04725D02*
D03*
Y04625D02*
D03*
Y04525D02*
D03*
D77*
Y04425D02*
D03*
D78*
X0469Y0473D02*
D03*
X0431Y0207D02*
D03*
X04455D02*
D03*
X0455Y0453D02*
D03*
D79*
X0469Y0463D02*
D03*
Y0453D02*
D03*
X0455Y0473D02*
D03*
Y0463D02*
D03*
D80*
X01265Y04955D02*
D03*
Y04755D02*
D03*
X0431Y0187D02*
D03*
Y0197D02*
D03*
X04455Y0187D02*
D03*
Y0197D02*
D03*
D81*
X051339Y011968D02*
D03*
X078898Y015906D02*
D03*
X011968Y011968D02*
D03*
Y051339D02*
D03*
X078898D02*
D03*
X051339D02*
D03*
D82*
X04311Y03745D02*
D03*
X04409D02*
D03*
X0451D02*
D03*
X01619Y0492D02*
D03*
X0172D02*
D03*
X0195D02*
D03*
X01849D02*
D03*
X02074D02*
D03*
X02175D02*
D03*
D83*
X01975Y01465D02*
D03*
X02075D02*
D03*
X01875D02*
D03*
X02074Y01365D02*
D03*
X01975D02*
D03*
X01875D02*
D03*
D84*
X027717Y011968D02*
D03*
D85*
X0478Y03355D02*
D03*
X0508D02*
D03*
X0464Y03215D02*
D03*
X0494D02*
D03*
D86*
X01235Y03065D02*
D03*
Y03215D02*
D03*
D87*
X01705Y04045D02*
D03*
X0376Y0373D02*
D03*
X07975Y0361D02*
D03*
X07965Y0422D02*
D03*
X0339Y0438D02*
D03*
X04175Y043D02*
D03*
X0386Y0412D02*
D03*
X03865Y04665D02*
D03*
X0385Y0176D02*
D03*
X037Y0211D02*
D03*
X032847Y0179D02*
D03*
X0333Y03305D02*
D03*
X03685Y03525D02*
D03*
X0403Y02495D02*
D03*
X04585Y02445D02*
D03*
X04625Y03595D02*
D03*
X03395Y0241D02*
D03*
X06295Y04035D02*
D03*
X03925Y0377D02*
D03*
Y02985D02*
D03*
X0301Y0208D02*
D03*
X0296Y02145D02*
D03*
X037Y01965D02*
D03*
X02755Y0354D02*
D03*
X01415Y0439D02*
D03*
X06215Y0489D02*
D03*
X03735Y013D02*
D03*
X0413D02*
D03*
X0764Y04445D02*
D03*
X027303Y044D02*
D03*
X02775Y0435D02*
D03*
X0582Y03985D02*
D03*
X03645Y0336D02*
D03*
X0634Y04075D02*
D03*
X062588Y041138D02*
D03*
X03555Y03685D02*
D03*
X036576Y029726D02*
D03*
X0338Y0348D02*
D03*
X016963Y041887D02*
D03*
X02485Y0486D02*
D03*
X02575Y049247D02*
D03*
X03335Y0368D02*
D03*
X057769Y041481D02*
D03*
X0587Y04185D02*
D03*
X06135Y0422D02*
D03*
X05975Y043D02*
D03*
X0571Y04345D02*
D03*
X06075Y0426D02*
D03*
X0393Y013D02*
D03*
X03565Y01305D02*
D03*
X03365Y013D02*
D03*
X0759Y0361D02*
D03*
X07395Y0383D02*
D03*
X072051Y039199D02*
D03*
X073017Y037167D02*
D03*
X071032Y039582D02*
D03*
X01945Y021944D02*
D03*
X01695Y02135D02*
D03*
X016361Y019039D02*
D03*
X023494Y03655D02*
D03*
X01645Y04325D02*
D03*
X0202Y029D02*
D03*
X0261Y0281D02*
D03*
X01575D02*
D03*
X0261Y025D02*
D03*
X017444Y024406D02*
D03*
X0165Y0439D02*
D03*
X063745Y049353D02*
D03*
X06492Y04943D02*
D03*
X0149Y02355D02*
D03*
X01145D02*
D03*
X01615Y02365D02*
D03*
X02275Y02575D02*
D03*
X01145Y0266D02*
D03*
X013226Y024676D02*
D03*
X0199Y02715D02*
D03*
X0165Y02565D02*
D03*
X015Y0173D02*
D03*
X0154Y0169D02*
D03*
X0158Y01765D02*
D03*
X01465Y02605D02*
D03*
X0144Y01905D02*
D03*
X0158Y02715D02*
D03*
X01445Y02465D02*
D03*
X01925Y02405D02*
D03*
X01745Y02605D02*
D03*
X01845D02*
D03*
X0152Y02555D02*
D03*
D88*
X03315Y04105D02*
D03*
X04285Y0407D02*
D03*
X0759Y04185D02*
D03*
X04085Y0159D02*
D03*
X0625Y01485D02*
D03*
X0585Y0149D02*
D03*
X04145Y0159D02*
D03*
X0402D02*
D03*
X0396D02*
D03*
X06455Y01505D02*
D03*
X0673Y0151D02*
D03*
X07025D02*
D03*
X0729D02*
D03*
X0322Y0422D02*
D03*
X0769Y047D02*
D03*
X0779Y04405D02*
D03*
X03335Y0205D02*
D03*
Y0254D02*
D03*
X0365Y0259D02*
D03*
X03725Y02445D02*
D03*
X037797Y03395D02*
D03*
Y03335D02*
D03*
X03835D02*
D03*
Y03395D02*
D03*
X0372Y04235D02*
D03*
X0346D02*
D03*
X05315Y03165D02*
D03*
X03165Y0274D02*
D03*
X02355Y03965D02*
D03*
X0414Y02615D02*
D03*
Y02675D02*
D03*
X0419D02*
D03*
Y02615D02*
D03*
X080185Y044085D02*
D03*
Y047685D02*
D03*
X077907Y0477D02*
D03*
X06755Y0437D02*
D03*
X0689Y0389D02*
D03*
X07035Y03565D02*
D03*
X0699Y0378D02*
D03*
X0277Y0163D02*
D03*
X0193Y03425D02*
D03*
X0182Y02955D02*
D03*
X02245Y02075D02*
D03*
X02565Y0208D02*
D03*
Y02395D02*
D03*
X0248Y01985D02*
D03*
X0316Y0182D02*
D03*
X01145D02*
D03*
D89*
X078941Y046776D02*
D03*
Y045044D02*
D03*
D156*
X040193Y01755D02*
D03*
X041807D02*
D03*
D157*
X06185Y024693D02*
D03*
Y026307D02*
D03*
X051Y016757D02*
D03*
Y015143D02*
D03*
X0673Y016707D02*
D03*
Y015093D02*
D03*
X06455Y016707D02*
D03*
Y015093D02*
D03*
X0702Y016757D02*
D03*
Y015143D02*
D03*
X0729Y016707D02*
D03*
Y015093D02*
D03*
X066Y02635D02*
D03*
Y024736D02*
D03*
X0645Y026357D02*
D03*
Y024743D02*
D03*
X06865Y026357D02*
D03*
Y024743D02*
D03*
X06035Y03555D02*
D03*
Y033936D02*
D03*
X04945Y016757D02*
D03*
Y015143D02*
D03*
X0568Y016657D02*
D03*
Y015043D02*
D03*
X0588Y033943D02*
D03*
Y035557D02*
D03*
X05775Y024693D02*
D03*
Y026307D02*
D03*
X06065Y014993D02*
D03*
Y016607D02*
D03*
X0745Y024743D02*
D03*
Y026357D02*
D03*
X07295Y024743D02*
D03*
Y026357D02*
D03*
X0479Y015143D02*
D03*
Y016757D02*
D03*
X0702Y024743D02*
D03*
Y026357D02*
D03*
D158*
X050849Y0244D02*
D03*
X04955D02*
D03*
X048251D02*
D03*
X037199Y04175D02*
D03*
X0359D02*
D03*
X034601D02*
D03*
D159*
X055Y03165D02*
D03*
X05315D02*
D03*
D160*
X05845Y016725D02*
D03*
Y014875D02*
D03*
X06245Y016725D02*
D03*
Y014875D02*
D03*
X0446Y031775D02*
D03*
Y033625D02*
D03*
D161*
X03575Y019475D02*
D03*
Y0179D02*
D03*
D162*
X04185Y01935D02*
D03*
X04095D02*
D03*
X039D02*
D03*
X0399D02*
D03*
X04425Y01745D02*
D03*
X04335D02*
D03*
X0392Y0323D02*
D03*
X0401D02*
D03*
X01765Y02165D02*
D03*
X01855D02*
D03*
X0403Y034D02*
D03*
X0394D02*
D03*
X0208Y04555D02*
D03*
X0199D02*
D03*
X0191D02*
D03*
X0182D02*
D03*
X01915Y042D02*
D03*
X01825D02*
D03*
X02295Y0319D02*
D03*
X02385D02*
D03*
X02395Y02815D02*
D03*
X02305D02*
D03*
X02865Y02465D02*
D03*
X02775D02*
D03*
X02865Y02545D02*
D03*
X02775D02*
D03*
X02865Y02625D02*
D03*
X02775D02*
D03*
X02865Y02705D02*
D03*
X02775D02*
D03*
X02865Y02785D02*
D03*
X02775D02*
D03*
Y02875D02*
D03*
X02865D02*
D03*
X02775Y02965D02*
D03*
X02865D02*
D03*
X02775Y03045D02*
D03*
X02865D02*
D03*
X02775Y03125D02*
D03*
X02865D02*
D03*
X02775Y03205D02*
D03*
X02865D02*
D03*
D163*
X036274Y047156D02*
D03*
X035526D02*
D03*
X0359Y047944D02*
D03*
X0153Y042713D02*
D03*
X014924Y041887D02*
D03*
X015676D02*
D03*
D164*
X03535Y045844D02*
D03*
X036452D02*
D03*
X03535Y04425D02*
D03*
X036452D02*
D03*
D165*
Y045047D02*
D03*
X03535D02*
D03*
D166*
X040292Y035674D02*
D03*
Y0353D02*
D03*
Y034926D02*
D03*
X039308D02*
D03*
Y0353D02*
D03*
Y035674D02*
D03*
X015708Y029826D02*
D03*
Y030574D02*
D03*
X016692Y0302D02*
D03*
D167*
X0122Y026D02*
D03*
X0115D02*
D03*
X0122Y0269D02*
D03*
X0115D02*
D03*
D168*
X01575Y02825D02*
D03*
Y02895D02*
D03*
X0182Y03045D02*
D03*
Y02975D02*
D03*
D169*
X01725Y0182D02*
D03*
X01685D02*
D03*
D170*
X018592Y0189D02*
D03*
X01745D02*
D03*
D171*
X079626Y046312D02*
D03*
X08D02*
D03*
X080374D02*
D03*
Y045288D02*
D03*
X08D02*
D03*
X079626D02*
D03*
D172*
X04101Y0264D02*
D03*
X0392D02*
D03*
D173*
X041068Y0228D02*
D03*
Y0233D02*
D03*
Y0238D02*
D03*
Y0243D02*
D03*
X038932D02*
D03*
Y0238D02*
D03*
Y0233D02*
D03*
Y0228D02*
D03*
D174*
X012324Y023508D02*
D03*
X011576D02*
D03*
X01195Y024492D02*
D03*
X023774Y030042D02*
D03*
X0234D02*
D03*
X023026D02*
D03*
Y029058D02*
D03*
X0234D02*
D03*
X023774D02*
D03*
X0136Y023408D02*
D03*
X013974Y024392D02*
D03*
X013226D02*
D03*
X01565Y024558D02*
D03*
X016024Y025542D02*
D03*
X015276D02*
D03*
D175*
X0334Y02145D02*
D03*
X0344D02*
D03*
Y01785D02*
D03*
X0334D02*
D03*
D176*
X042987Y03365D02*
D03*
X041413D02*
D03*
D177*
X0398Y03125D02*
D03*
X0403D02*
D03*
X0408D02*
D03*
X0413D02*
D03*
Y029115D02*
D03*
X0408D02*
D03*
X0403D02*
D03*
X0398D02*
D03*
D178*
X04335Y02411D02*
D03*
Y0223D02*
D03*
D179*
X016932Y025107D02*
D03*
X017188D02*
D03*
X017444D02*
D03*
X0177D02*
D03*
X017956D02*
D03*
X018212D02*
D03*
X018468D02*
D03*
Y022793D02*
D03*
X018212D02*
D03*
X017956D02*
D03*
X0177D02*
D03*
X017444D02*
D03*
X017188D02*
D03*
X016932D02*
D03*
D180*
X0158Y022955D02*
D03*
Y022345D02*
D03*
D181*
X01821Y0319D02*
D03*
X01569D02*
D03*
D182*
X01992Y04414D02*
D03*
Y043884D02*
D03*
Y043628D02*
D03*
Y043372D02*
D03*
Y043116D02*
D03*
Y04286D02*
D03*
X018179D02*
D03*
Y043116D02*
D03*
Y043372D02*
D03*
Y043628D02*
D03*
Y043884D02*
D03*
Y04414D02*
D03*
D183*
X036447Y046335D02*
D03*
X035347Y043785D02*
D03*
X036447D02*
D03*
X035347Y046335D02*
D03*
M02*
