G04*
G04 #@! TF.GenerationSoftware,Altium Limited,Altium Designer,20.1.7 (139)*
G04*
G04 Layer_Physical_Order=3*
G04 Layer_Color=16440176*
%FSTAX24Y24*%
%MOIN*%
G70*
G04*
G04 #@! TF.SameCoordinates,F0BF9DC0-9546-437B-B132-7D81F4AFA61C*
G04*
G04*
G04 #@! TF.FilePolarity,Positive*
G04*
G01*
G75*
%ADD16C,0.0100*%
%ADD90C,0.0138*%
%ADD91C,0.0394*%
%ADD94C,0.0650*%
%ADD96C,0.0640*%
%ADD97R,0.0640X0.0640*%
%ADD101C,0.0787*%
%ADD102R,0.0787X0.0787*%
%ADD103C,0.1949*%
%ADD104C,0.0591*%
%ADD105C,0.0630*%
G04:AMPARAMS|DCode=107|XSize=118.1mil|YSize=118.1mil|CornerRadius=29.5mil|HoleSize=0mil|Usage=FLASHONLY|Rotation=90.000|XOffset=0mil|YOffset=0mil|HoleType=Round|Shape=RoundedRectangle|*
%AMROUNDEDRECTD107*
21,1,0.1181,0.0591,0,0,90.0*
21,1,0.0591,0.1181,0,0,90.0*
1,1,0.0591,0.0295,0.0295*
1,1,0.0591,0.0295,-0.0295*
1,1,0.0591,-0.0295,-0.0295*
1,1,0.0591,-0.0295,0.0295*
%
%ADD107ROUNDEDRECTD107*%
G04:AMPARAMS|DCode=108|XSize=35.4mil|YSize=118.1mil|CornerRadius=8.9mil|HoleSize=0mil|Usage=FLASHONLY|Rotation=90.000|XOffset=0mil|YOffset=0mil|HoleType=Round|Shape=RoundedRectangle|*
%AMROUNDEDRECTD108*
21,1,0.0354,0.1004,0,0,90.0*
21,1,0.0177,0.1181,0,0,90.0*
1,1,0.0177,0.0502,0.0089*
1,1,0.0177,0.0502,-0.0089*
1,1,0.0177,-0.0502,-0.0089*
1,1,0.0177,-0.0502,0.0089*
%
%ADD108ROUNDEDRECTD108*%
%ADD110O,0.0650X0.0900*%
%ADD111C,0.0598*%
%ADD113R,0.0750X0.0750*%
%ADD114O,0.0750X0.0630*%
%ADD115C,0.0750*%
%ADD122C,0.0394*%
%ADD123C,0.0500*%
G36*
X080713Y010153D02*
X010153D01*
Y053154D01*
X080713D01*
Y010153D01*
D02*
G37*
%LPC*%
G36*
X0208Y051897D02*
Y0514D01*
X021179D01*
Y051475D01*
X021164Y051586D01*
X021121Y051689D01*
X021053Y051778D01*
X020964Y051846D01*
X020861Y051889D01*
X0208Y051897D01*
D02*
G37*
G36*
X0207D02*
X020639Y051889D01*
X020536Y051846D01*
X020447Y051778D01*
X020379Y051689D01*
X020336Y051586D01*
X020321Y051475D01*
Y0514D01*
X0207D01*
Y051897D01*
D02*
G37*
G36*
X0163D02*
Y0514D01*
X016679D01*
Y051475D01*
X016664Y051586D01*
X016621Y051689D01*
X016553Y051778D01*
X016464Y051846D01*
X016361Y051889D01*
X0163Y051897D01*
D02*
G37*
G36*
X0162D02*
X016139Y051889D01*
X016036Y051846D01*
X015947Y051778D01*
X015879Y051689D01*
X015836Y051586D01*
X015821Y051475D01*
Y0514D01*
X0162D01*
Y051897D01*
D02*
G37*
G36*
X045097Y051756D02*
Y051389D01*
X045464D01*
X045456Y051448D01*
X045414Y05155D01*
X045347Y051638D01*
X045259Y051705D01*
X045157Y051748D01*
X045097Y051756D01*
D02*
G37*
G36*
X044997D02*
X044938Y051748D01*
X044835Y051705D01*
X044748Y051638D01*
X04468Y05155D01*
X044638Y051448D01*
X04463Y051389D01*
X044997D01*
Y051756D01*
D02*
G37*
G36*
X075024Y051826D02*
X074913Y051812D01*
X074809Y051769D01*
X074721Y051701D01*
X074653Y051612D01*
X07461Y051509D01*
X074595Y051398D01*
X07461Y051287D01*
X074653Y051183D01*
X074721Y051095D01*
X074809Y051027D01*
X074913Y050984D01*
X075024Y050969D01*
X075135Y050984D01*
X075238Y051027D01*
X075327Y051095D01*
X075395Y051183D01*
X075437Y051287D01*
X075452Y051398D01*
X075437Y051509D01*
X075395Y051612D01*
X075327Y051701D01*
X075238Y051769D01*
X075135Y051812D01*
X075024Y051826D01*
D02*
G37*
G36*
X074024D02*
X073913Y051812D01*
X073809Y051769D01*
X073721Y051701D01*
X073653Y051612D01*
X07361Y051509D01*
X073595Y051398D01*
X07361Y051287D01*
X073653Y051183D01*
X073721Y051095D01*
X073809Y051027D01*
X073913Y050984D01*
X074024Y050969D01*
X074135Y050984D01*
X074238Y051027D01*
X074327Y051095D01*
X074395Y051183D01*
X074437Y051287D01*
X074452Y051398D01*
X074437Y051509D01*
X074395Y051612D01*
X074327Y051701D01*
X074238Y051769D01*
X074135Y051812D01*
X074024Y051826D01*
D02*
G37*
G36*
X073024D02*
X072913Y051812D01*
X072809Y051769D01*
X072721Y051701D01*
X072653Y051612D01*
X07261Y051509D01*
X072595Y051398D01*
X07261Y051287D01*
X072653Y051183D01*
X072721Y051095D01*
X072809Y051027D01*
X072913Y050984D01*
X073024Y050969D01*
X073135Y050984D01*
X073238Y051027D01*
X073327Y051095D01*
X073395Y051183D01*
X073437Y051287D01*
X073452Y051398D01*
X073437Y051509D01*
X073395Y051612D01*
X073327Y051701D01*
X073238Y051769D01*
X073135Y051812D01*
X073024Y051826D01*
D02*
G37*
G36*
X071024D02*
X070913Y051812D01*
X070809Y051769D01*
X070721Y051701D01*
X070653Y051612D01*
X07061Y051509D01*
X070595Y051398D01*
X07061Y051287D01*
X070653Y051183D01*
X070721Y051095D01*
X070809Y051027D01*
X070913Y050984D01*
X071024Y050969D01*
X071135Y050984D01*
X071238Y051027D01*
X071327Y051095D01*
X071395Y051183D01*
X071437Y051287D01*
X071452Y051398D01*
X071437Y051509D01*
X071395Y051612D01*
X071327Y051701D01*
X071238Y051769D01*
X071135Y051812D01*
X071024Y051826D01*
D02*
G37*
G36*
X066244Y051787D02*
X066133Y051772D01*
X06603Y051729D01*
X065941Y051661D01*
X065873Y051572D01*
X06583Y051469D01*
X065816Y051358D01*
X06583Y051247D01*
X065873Y051144D01*
X065941Y051055D01*
X06603Y050987D01*
X066133Y050944D01*
X066244Y05093D01*
X066355Y050944D01*
X066458Y050987D01*
X066547Y051055D01*
X066615Y051144D01*
X066658Y051247D01*
X066673Y051358D01*
X066658Y051469D01*
X066615Y051572D01*
X066547Y051661D01*
X066458Y051729D01*
X066355Y051772D01*
X066244Y051787D01*
D02*
G37*
G36*
X065244D02*
X065133Y051772D01*
X06503Y051729D01*
X064941Y051661D01*
X064873Y051572D01*
X06483Y051469D01*
X064816Y051358D01*
X06483Y051247D01*
X064873Y051144D01*
X064941Y051055D01*
X06503Y050987D01*
X065133Y050944D01*
X065244Y05093D01*
X065355Y050944D01*
X065458Y050987D01*
X065547Y051055D01*
X065615Y051144D01*
X065658Y051247D01*
X065673Y051358D01*
X065658Y051469D01*
X065615Y051572D01*
X065547Y051661D01*
X065458Y051729D01*
X065355Y051772D01*
X065244Y051787D01*
D02*
G37*
G36*
X064244D02*
X064133Y051772D01*
X06403Y051729D01*
X063941Y051661D01*
X063873Y051572D01*
X06383Y051469D01*
X063816Y051358D01*
X06383Y051247D01*
X063873Y051144D01*
X063941Y051055D01*
X06403Y050987D01*
X064133Y050944D01*
X064244Y05093D01*
X064355Y050944D01*
X064458Y050987D01*
X064547Y051055D01*
X064615Y051144D01*
X064658Y051247D01*
X064673Y051358D01*
X064658Y051469D01*
X064615Y051572D01*
X064547Y051661D01*
X064458Y051729D01*
X064355Y051772D01*
X064244Y051787D01*
D02*
G37*
G36*
X063244D02*
X063133Y051772D01*
X06303Y051729D01*
X062941Y051661D01*
X062873Y051572D01*
X06283Y051469D01*
X062816Y051358D01*
X06283Y051247D01*
X062873Y051144D01*
X062941Y051055D01*
X06303Y050987D01*
X063133Y050944D01*
X063244Y05093D01*
X063355Y050944D01*
X063458Y050987D01*
X063547Y051055D01*
X063615Y051144D01*
X063658Y051247D01*
X063673Y051358D01*
X063658Y051469D01*
X063615Y051572D01*
X063547Y051661D01*
X063458Y051729D01*
X063355Y051772D01*
X063244Y051787D01*
D02*
G37*
G36*
X062244D02*
X062133Y051772D01*
X06203Y051729D01*
X061941Y051661D01*
X061873Y051572D01*
X06183Y051469D01*
X061816Y051358D01*
X06183Y051247D01*
X061873Y051144D01*
X061941Y051055D01*
X06203Y050987D01*
X062133Y050944D01*
X062244Y05093D01*
X062355Y050944D01*
X062458Y050987D01*
X062547Y051055D01*
X062615Y051144D01*
X062658Y051247D01*
X062673Y051358D01*
X062658Y051469D01*
X062615Y051572D01*
X062547Y051661D01*
X062458Y051729D01*
X062355Y051772D01*
X062244Y051787D01*
D02*
G37*
G36*
X061244D02*
X061133Y051772D01*
X06103Y051729D01*
X060941Y051661D01*
X060873Y051572D01*
X06083Y051469D01*
X060816Y051358D01*
X06083Y051247D01*
X060873Y051144D01*
X060941Y051055D01*
X06103Y050987D01*
X061133Y050944D01*
X061244Y05093D01*
X061355Y050944D01*
X061458Y050987D01*
X061547Y051055D01*
X061615Y051144D01*
X061658Y051247D01*
X061673Y051358D01*
X061658Y051469D01*
X061615Y051572D01*
X061547Y051661D01*
X061458Y051729D01*
X061355Y051772D01*
X061244Y051787D01*
D02*
G37*
G36*
X060244D02*
X060133Y051772D01*
X06003Y051729D01*
X059941Y051661D01*
X059873Y051572D01*
X05983Y051469D01*
X059816Y051358D01*
X05983Y051247D01*
X059873Y051144D01*
X059941Y051055D01*
X06003Y050987D01*
X060133Y050944D01*
X060244Y05093D01*
X060355Y050944D01*
X060458Y050987D01*
X060547Y051055D01*
X060615Y051144D01*
X060658Y051247D01*
X060673Y051358D01*
X060658Y051469D01*
X060615Y051572D01*
X060547Y051661D01*
X060458Y051729D01*
X060355Y051772D01*
X060244Y051787D01*
D02*
G37*
G36*
X059244D02*
X059133Y051772D01*
X05903Y051729D01*
X058941Y051661D01*
X058873Y051572D01*
X05883Y051469D01*
X058816Y051358D01*
X05883Y051247D01*
X058873Y051144D01*
X058941Y051055D01*
X05903Y050987D01*
X059133Y050944D01*
X059244Y05093D01*
X059355Y050944D01*
X059458Y050987D01*
X059547Y051055D01*
X059615Y051144D01*
X059658Y051247D01*
X059673Y051358D01*
X059658Y051469D01*
X059615Y051572D01*
X059547Y051661D01*
X059458Y051729D01*
X059355Y051772D01*
X059244Y051787D01*
D02*
G37*
G36*
X058244D02*
X058133Y051772D01*
X05803Y051729D01*
X057941Y051661D01*
X057873Y051572D01*
X05783Y051469D01*
X057816Y051358D01*
X05783Y051247D01*
X057873Y051144D01*
X057941Y051055D01*
X05803Y050987D01*
X058133Y050944D01*
X058244Y05093D01*
X058355Y050944D01*
X058458Y050987D01*
X058547Y051055D01*
X058615Y051144D01*
X058658Y051247D01*
X058673Y051358D01*
X058658Y051469D01*
X058615Y051572D01*
X058547Y051661D01*
X058458Y051729D01*
X058355Y051772D01*
X058244Y051787D01*
D02*
G37*
G36*
X057244D02*
X057133Y051772D01*
X05703Y051729D01*
X056941Y051661D01*
X056873Y051572D01*
X05683Y051469D01*
X056816Y051358D01*
X05683Y051247D01*
X056873Y051144D01*
X056941Y051055D01*
X05703Y050987D01*
X057133Y050944D01*
X057244Y05093D01*
X057355Y050944D01*
X057458Y050987D01*
X057547Y051055D01*
X057615Y051144D01*
X057658Y051247D01*
X057673Y051358D01*
X057658Y051469D01*
X057615Y051572D01*
X057547Y051661D01*
X057458Y051729D01*
X057355Y051772D01*
X057244Y051787D01*
D02*
G37*
G36*
X045464Y051289D02*
X045097D01*
Y050922D01*
X045157Y050929D01*
X045259Y050972D01*
X045347Y051039D01*
X045414Y051127D01*
X045456Y051229D01*
X045464Y051289D01*
D02*
G37*
G36*
X044997D02*
X04463D01*
X044638Y051229D01*
X04468Y051127D01*
X044748Y051039D01*
X044835Y050972D01*
X044938Y050929D01*
X044997Y050922D01*
Y051289D01*
D02*
G37*
G36*
X025819Y052996D02*
X024081D01*
X024003Y052986D01*
X023961Y052968D01*
X023931Y052956D01*
X023869Y052908D01*
X023638Y052678D01*
X023591Y052616D01*
X023561Y052543D01*
X023551Y052466D01*
Y047681D01*
X023561Y047603D01*
X023591Y047531D01*
X023638Y047469D01*
X023869Y047238D01*
X023931Y047191D01*
X023961Y047178D01*
X024003Y047161D01*
X024081Y047151D01*
X029326D01*
X033301Y043176D01*
Y0422D01*
X033311Y042123D01*
X033341Y04205D01*
X033388Y041988D01*
X034882Y040495D01*
X034944Y040447D01*
X034974Y040435D01*
X035016Y040417D01*
X035094Y040407D01*
X03952D01*
X040338Y039589D01*
Y027961D01*
X037169Y024792D01*
X037159Y024791D01*
X037073Y024756D01*
X037Y0247D01*
X036944Y024627D01*
X036909Y024541D01*
X036897Y02445D01*
X036909Y024359D01*
X036944Y024273D01*
X037Y0242D01*
X037073Y024144D01*
X037159Y024109D01*
X03725Y024097D01*
X037341Y024109D01*
X037427Y024144D01*
X0375Y0242D01*
X037556Y024273D01*
X037591Y024359D01*
X037592Y024369D01*
X040849Y027625D01*
X040896Y027687D01*
X040926Y027759D01*
X040936Y027837D01*
Y039713D01*
X040926Y039791D01*
X040896Y039863D01*
X040849Y039925D01*
X039855Y040918D01*
X039793Y040966D01*
X039721Y040996D01*
X039644Y041006D01*
X035218D01*
X033899Y042324D01*
Y0433D01*
X033889Y043377D01*
X033872Y04342D01*
X033859Y04345D01*
X033812Y043512D01*
X029662Y047662D01*
X0296Y047709D01*
X029527Y047739D01*
X02945Y047749D01*
X024205D01*
X024149Y047805D01*
Y052342D01*
X024205Y052397D01*
X025695D01*
X025751Y052342D01*
Y051747D01*
X025749Y051681D01*
X025746Y051638D01*
X025744Y051625D01*
X025743Y05162D01*
X025688Y051548D01*
X025646Y051447D01*
X025631Y051339D01*
X025646Y05123D01*
X025688Y051129D01*
X025754Y051043D01*
X025841Y050976D01*
X025942Y050934D01*
X02605Y05092D01*
X026158Y050934D01*
X026259Y050976D01*
X026346Y051043D01*
X026412Y051129D01*
X026454Y05123D01*
X026469Y051339D01*
X026454Y051447D01*
X026412Y051548D01*
X026357Y05162D01*
X026357Y051621D01*
X026349Y051735D01*
Y052466D01*
X026339Y052543D01*
X026322Y052586D01*
X026309Y052616D01*
X026262Y052678D01*
X026031Y052908D01*
X025969Y052956D01*
X025897Y052986D01*
X025819Y052996D01*
D02*
G37*
G36*
X043047Y051762D02*
X042938Y051748D01*
X042835Y051705D01*
X042748Y051638D01*
X04268Y05155D01*
X042638Y051448D01*
X042624Y051339D01*
X042638Y051229D01*
X04268Y051127D01*
X042748Y051039D01*
X042835Y050972D01*
X042938Y050929D01*
X043047Y050915D01*
X043157Y050929D01*
X043259Y050972D01*
X043347Y051039D01*
X043414Y051127D01*
X043456Y051229D01*
X043471Y051339D01*
X043456Y051448D01*
X043414Y05155D01*
X043347Y051638D01*
X043259Y051705D01*
X043157Y051748D01*
X043047Y051762D01*
D02*
G37*
G36*
X038047D02*
X037938Y051748D01*
X037835Y051705D01*
X037748Y051638D01*
X03768Y05155D01*
X037638Y051448D01*
X037624Y051339D01*
X037638Y051229D01*
X03768Y051127D01*
X037748Y051039D01*
X037835Y050972D01*
X037938Y050929D01*
X038047Y050915D01*
X038157Y050929D01*
X038259Y050972D01*
X038347Y051039D01*
X038414Y051127D01*
X038456Y051229D01*
X038471Y051339D01*
X038456Y051448D01*
X038414Y05155D01*
X038347Y051638D01*
X038259Y051705D01*
X038157Y051748D01*
X038047Y051762D01*
D02*
G37*
G36*
X037047D02*
X036938Y051748D01*
X036835Y051705D01*
X036748Y051638D01*
X03668Y05155D01*
X036638Y051448D01*
X036624Y051339D01*
X036638Y051229D01*
X03668Y051127D01*
X036748Y051039D01*
X036835Y050972D01*
X036938Y050929D01*
X037047Y050915D01*
X037157Y050929D01*
X037259Y050972D01*
X037347Y051039D01*
X037414Y051127D01*
X037456Y051229D01*
X037471Y051339D01*
X037456Y051448D01*
X037414Y05155D01*
X037347Y051638D01*
X037259Y051705D01*
X037157Y051748D01*
X037047Y051762D01*
D02*
G37*
G36*
X021179Y0513D02*
X0208D01*
Y050803D01*
X020861Y050811D01*
X020964Y050854D01*
X021053Y050922D01*
X021121Y051011D01*
X021164Y051114D01*
X021179Y051225D01*
Y0513D01*
D02*
G37*
G36*
X0207D02*
X020321D01*
Y051225D01*
X020336Y051114D01*
X020379Y051011D01*
X020447Y050922D01*
X020536Y050854D01*
X020639Y050811D01*
X0207Y050803D01*
Y0513D01*
D02*
G37*
G36*
X016679D02*
X0163D01*
Y050803D01*
X016361Y050811D01*
X016464Y050854D01*
X016553Y050922D01*
X016621Y051011D01*
X016664Y051114D01*
X016679Y051225D01*
Y0513D01*
D02*
G37*
G36*
X0162D02*
X015821D01*
Y051225D01*
X015836Y051114D01*
X015879Y051011D01*
X015947Y050922D01*
X016036Y050854D01*
X016139Y050811D01*
X0162Y050803D01*
Y0513D01*
D02*
G37*
G36*
X020175Y0519D02*
X019325D01*
Y0508D01*
X020175D01*
Y0519D01*
D02*
G37*
G36*
X015675D02*
X014825D01*
Y0508D01*
X015675D01*
Y0519D01*
D02*
G37*
G36*
X02175Y051904D02*
X021639Y051889D01*
X021536Y051846D01*
X021447Y051778D01*
X021379Y051689D01*
X021336Y051586D01*
X021321Y051475D01*
Y051225D01*
X021336Y051114D01*
X021379Y051011D01*
X021447Y050922D01*
X021536Y050854D01*
X021639Y050811D01*
X02175Y050796D01*
X021861Y050811D01*
X021964Y050854D01*
X022053Y050922D01*
X022121Y051011D01*
X022164Y051114D01*
X022179Y051225D01*
Y051475D01*
X022164Y051586D01*
X022121Y051689D01*
X022053Y051778D01*
X021964Y051846D01*
X021861Y051889D01*
X02175Y051904D01*
D02*
G37*
G36*
X01725D02*
X017139Y051889D01*
X017036Y051846D01*
X016947Y051778D01*
X016879Y051689D01*
X016836Y051586D01*
X016821Y051475D01*
Y051225D01*
X016836Y051114D01*
X016879Y051011D01*
X016947Y050922D01*
X017036Y050854D01*
X017139Y050811D01*
X01725Y050796D01*
X017361Y050811D01*
X017464Y050854D01*
X017553Y050922D01*
X017621Y051011D01*
X017664Y051114D01*
X017679Y051225D01*
Y051475D01*
X017664Y051586D01*
X017621Y051689D01*
X017553Y051778D01*
X017464Y051846D01*
X017361Y051889D01*
X01725Y051904D01*
D02*
G37*
G36*
X03085Y052949D02*
X027281D01*
X027203Y052939D01*
X027161Y052922D01*
X027131Y052909D01*
X027069Y052862D01*
X026838Y052631D01*
X026791Y052569D01*
X026761Y052497D01*
X026751Y052419D01*
Y05163D01*
X026688Y051548D01*
X026646Y051447D01*
X026631Y051339D01*
X026646Y05123D01*
X026688Y051129D01*
X026754Y051043D01*
X026841Y050976D01*
X026942Y050934D01*
X02705Y05092D01*
X027158Y050934D01*
X027259Y050976D01*
X027346Y051043D01*
X027412Y051129D01*
X027454Y05123D01*
X027469Y051339D01*
X027454Y051447D01*
X027412Y051548D01*
X027349Y05163D01*
Y052295D01*
X027405Y052351D01*
X027986D01*
X028035Y052232D01*
X027883Y052081D01*
X027836Y052019D01*
X027806Y051947D01*
X027796Y051869D01*
Y051775D01*
X027795Y051741D01*
X027791Y051691D01*
X027789Y051675D01*
X027787Y051662D01*
X027786Y051659D01*
X027754Y051635D01*
X027688Y051548D01*
X027646Y051447D01*
X027631Y051339D01*
X027646Y05123D01*
X027688Y051129D01*
X027754Y051043D01*
X027841Y050976D01*
X027942Y050934D01*
X02805Y05092D01*
X028158Y050934D01*
X028259Y050976D01*
X028346Y051043D01*
X028412Y051129D01*
X028454Y05123D01*
X028469Y051339D01*
X028454Y051447D01*
X028412Y051548D01*
X028401Y051563D01*
X028395Y051705D01*
X028476Y051801D01*
X029536D01*
X029635Y051754D01*
X029635Y051682D01*
Y050924D01*
X030382D01*
X030465Y050924D01*
X030501Y05082D01*
Y050627D01*
X030382Y050587D01*
X030346Y050635D01*
X030259Y050701D01*
X030158Y050743D01*
X03005Y050757D01*
X029942Y050743D01*
X029841Y050701D01*
X029754Y050635D01*
X029688Y050548D01*
X029646Y050447D01*
X029631Y050339D01*
X029646Y05023D01*
X029688Y050129D01*
X029754Y050043D01*
X029841Y049976D01*
X029942Y049934D01*
X03005Y04992D01*
X030158Y049934D01*
X030259Y049976D01*
X030346Y050043D01*
X030382Y05009D01*
X030501Y05005D01*
Y0476D01*
X030511Y047523D01*
X030541Y04745D01*
X030588Y047388D01*
X036495Y041482D01*
X036557Y041434D01*
X036586Y041422D01*
X036629Y041404D01*
X036706Y041394D01*
X046082D01*
X050001Y037476D01*
Y03525D01*
X050011Y035173D01*
X050041Y0351D01*
X050088Y035038D01*
X051012Y034114D01*
X050952Y034017D01*
X050946Y034013D01*
X050825Y034029D01*
X050775D01*
X050651Y034013D01*
X050535Y033965D01*
X050436Y033889D01*
X05036Y03379D01*
X050312Y033674D01*
X050296Y03355D01*
X050312Y033426D01*
X05036Y03331D01*
X050436Y033211D01*
X050535Y033135D01*
X050651Y033087D01*
X050775Y033071D01*
X050825D01*
X050949Y033087D01*
X051065Y033135D01*
X051164Y033211D01*
X05124Y03331D01*
X051288Y033426D01*
X051304Y03355D01*
X051288Y033671D01*
X051292Y033677D01*
X051389Y033737D01*
X05283Y032296D01*
Y031793D01*
X052809Y031741D01*
X052797Y03165D01*
X052809Y031559D01*
X052844Y031473D01*
X0529Y0314D01*
X052973Y031344D01*
X053059Y031309D01*
X05315Y031297D01*
X053241Y031309D01*
X053327Y031344D01*
X0534Y0314D01*
X053456Y031473D01*
X053491Y031559D01*
X053503Y03165D01*
X053491Y031741D01*
X053456Y031827D01*
X053429Y031861D01*
Y03242D01*
X053419Y032498D01*
X053389Y03257D01*
X053387Y032572D01*
X053476Y03265D01*
X054688Y031438D01*
X05475Y031391D01*
X054823Y031361D01*
X0549Y031351D01*
X055476D01*
X056045Y030782D01*
Y028763D01*
X056042Y028703D01*
X056039Y028672D01*
X056035Y028644D01*
X056029Y02862D01*
X056023Y0286D01*
X056016Y028583D01*
X056009Y02857D01*
X056003Y028561D01*
X056002Y02856D01*
X055992Y028552D01*
X055913Y028449D01*
X055863Y028329D01*
X055846Y0282D01*
X055863Y028071D01*
X055913Y027951D01*
X055992Y027848D01*
X056095Y027769D01*
X056215Y027719D01*
X056344Y027702D01*
X056473Y027719D01*
X056593Y027769D01*
X056696Y027848D01*
X056775Y027951D01*
X056825Y028071D01*
X056842Y0282D01*
X056825Y028329D01*
X056775Y028449D01*
X056696Y028552D01*
X056686Y02856D01*
X056685Y028561D01*
X056679Y02857D01*
X056672Y028583D01*
X056665Y0286D01*
X056659Y02862D01*
X056654Y028644D01*
X056649Y028671D01*
X056644Y02874D01*
X056644Y028746D01*
Y030906D01*
X056633Y030983D01*
X056616Y031026D01*
X056603Y031056D01*
X056556Y031118D01*
X055812Y031862D01*
X05575Y031909D01*
X055677Y031939D01*
X0556Y031949D01*
X055024D01*
X051351Y035622D01*
X05136Y035657D01*
X051491Y035693D01*
X054992Y032192D01*
X055041Y032159D01*
X0551Y032147D01*
X061537D01*
X061697Y031987D01*
Y028819D01*
X061697Y028817D01*
X061693Y028803D01*
X061686Y028784D01*
X061674Y02876D01*
X061658Y028732D01*
X061638Y028703D01*
X061543Y028589D01*
X061516Y028561D01*
X061504Y028552D01*
X061425Y028449D01*
X061375Y028329D01*
X061358Y0282D01*
X061375Y028071D01*
X061425Y027951D01*
X061504Y027848D01*
X061607Y027769D01*
X061727Y027719D01*
X061856Y027702D01*
X061985Y027719D01*
X062105Y027769D01*
X062208Y027848D01*
X062287Y027951D01*
X062337Y028071D01*
X062354Y0282D01*
X062337Y028329D01*
X062287Y028449D01*
X062208Y028552D01*
X062193Y028564D01*
X062157Y028598D01*
X062089Y028673D01*
X062063Y028705D01*
X062042Y028735D01*
X062025Y028762D01*
X062014Y028785D01*
X062007Y028804D01*
X062003Y028818D01*
X062003Y028821D01*
Y03205D01*
X061991Y032109D01*
X061958Y032158D01*
X061787Y032329D01*
X061836Y032447D01*
X064087D01*
X064459Y032075D01*
Y02882D01*
X064459Y028817D01*
X064455Y028803D01*
X064448Y028784D01*
X064436Y028761D01*
X06442Y028734D01*
X0644Y028705D01*
X064304Y028594D01*
X064273Y028563D01*
X06426Y028552D01*
X064181Y028449D01*
X064131Y028329D01*
X064114Y0282D01*
X064131Y028071D01*
X064181Y027951D01*
X06426Y027848D01*
X064363Y027769D01*
X064483Y027719D01*
X064612Y027702D01*
X064741Y027719D01*
X064861Y027769D01*
X064964Y027848D01*
X065043Y027951D01*
X065093Y028071D01*
X06511Y0282D01*
X065093Y028329D01*
X065043Y028449D01*
X064964Y028552D01*
X06495Y028563D01*
X064919Y028594D01*
X064851Y028671D01*
X064825Y028703D01*
X064804Y028734D01*
X064787Y028761D01*
X064776Y028784D01*
X064768Y028803D01*
X064765Y028817D01*
X064765Y02882D01*
Y032138D01*
X064753Y032197D01*
X06472Y032246D01*
X064337Y032629D01*
X064386Y032747D01*
X065287D01*
X065837Y032197D01*
Y030788D01*
X065837Y030786D01*
X065833Y030772D01*
X065826Y030753D01*
X065814Y030729D01*
X065798Y030702D01*
X065778Y030674D01*
X065682Y030562D01*
X065651Y030531D01*
X065638Y030521D01*
X065559Y030417D01*
X065509Y030297D01*
X065492Y030168D01*
X065509Y03004D01*
X065559Y02992D01*
X065638Y029816D01*
X065741Y029737D01*
X065861Y029688D01*
X06599Y029671D01*
X066119Y029688D01*
X066239Y029737D01*
X066342Y029816D01*
X066421Y02992D01*
X066471Y03004D01*
X066488Y030168D01*
X066471Y030297D01*
X066421Y030417D01*
X066342Y030521D01*
X066328Y030531D01*
X066297Y030563D01*
X066229Y030639D01*
X066203Y030672D01*
X066182Y030702D01*
X066165Y030729D01*
X066154Y030753D01*
X066146Y030772D01*
X066143Y030786D01*
X066143Y030788D01*
Y03226D01*
X066131Y032319D01*
X066098Y032368D01*
X065537Y032929D01*
X065586Y033047D01*
X068237D01*
X068593Y032691D01*
Y030788D01*
X068593Y030786D01*
X068589Y030772D01*
X068582Y030753D01*
X06857Y030729D01*
X068554Y030702D01*
X068534Y030674D01*
X068438Y030562D01*
X068407Y030531D01*
X068394Y030521D01*
X068314Y030417D01*
X068265Y030297D01*
X068248Y030168D01*
X068265Y03004D01*
X068314Y02992D01*
X068394Y029816D01*
X068497Y029737D01*
X068617Y029688D01*
X068746Y029671D01*
X068875Y029688D01*
X068995Y029737D01*
X069098Y029816D01*
X069177Y02992D01*
X069227Y03004D01*
X069244Y030168D01*
X069227Y030297D01*
X069177Y030417D01*
X069098Y030521D01*
X069084Y030531D01*
X069053Y030563D01*
X068984Y030639D01*
X068959Y030672D01*
X068938Y030702D01*
X068921Y030729D01*
X068909Y030753D01*
X068902Y030772D01*
X068899Y030786D01*
X068899Y030788D01*
Y032754D01*
X068887Y032813D01*
X068854Y032862D01*
X068487Y033229D01*
X068536Y033347D01*
X068837D01*
X069971Y032213D01*
Y02882D01*
X06997Y028817D01*
X069967Y028803D01*
X06996Y028784D01*
X069948Y028761D01*
X069932Y028734D01*
X069912Y028705D01*
X069816Y028594D01*
X069785Y028563D01*
X069772Y028552D01*
X069692Y028449D01*
X069643Y028329D01*
X069626Y0282D01*
X069643Y028071D01*
X069692Y027951D01*
X069772Y027848D01*
X069875Y027769D01*
X069995Y027719D01*
X070124Y027702D01*
X070253Y027719D01*
X070373Y027769D01*
X070476Y027848D01*
X070555Y027951D01*
X070605Y028071D01*
X070622Y0282D01*
X070605Y028329D01*
X070555Y028449D01*
X070476Y028552D01*
X070462Y028563D01*
X070431Y028594D01*
X070362Y028671D01*
X070337Y028703D01*
X070316Y028734D01*
X070299Y028761D01*
X070287Y028784D01*
X07028Y028803D01*
X070277Y028817D01*
X070277Y02882D01*
Y032276D01*
X070265Y032335D01*
X070232Y032385D01*
X069037Y033579D01*
X069078Y033694D01*
X06908Y033697D01*
X071787D01*
X072727Y032757D01*
Y02882D01*
X072726Y028817D01*
X072723Y028803D01*
X072716Y028784D01*
X072704Y028761D01*
X072688Y028734D01*
X072668Y028705D01*
X072572Y028594D01*
X072541Y028563D01*
X072527Y028552D01*
X072448Y028449D01*
X072399Y028329D01*
X072382Y0282D01*
X072399Y028071D01*
X072448Y027951D01*
X072527Y027848D01*
X072631Y027769D01*
X072751Y027719D01*
X07288Y027702D01*
X073008Y027719D01*
X073129Y027769D01*
X073232Y027848D01*
X073311Y027951D01*
X073361Y028071D01*
X073377Y0282D01*
X073361Y028329D01*
X073311Y028449D01*
X073232Y028552D01*
X073218Y028563D01*
X073187Y028594D01*
X073118Y028671D01*
X073093Y028703D01*
X073071Y028734D01*
X073055Y028761D01*
X073043Y028784D01*
X073036Y028803D01*
X073033Y028817D01*
X073032Y02882D01*
Y03282D01*
X073021Y032879D01*
X072988Y032929D01*
X071987Y033929D01*
X072028Y034044D01*
X07203Y034047D01*
X072837D01*
X074105Y032779D01*
Y030788D01*
X074104Y030786D01*
X074101Y030772D01*
X074094Y030753D01*
X074082Y030729D01*
X074066Y030702D01*
X074046Y030674D01*
X07395Y030562D01*
X073919Y030531D01*
X073905Y030521D01*
X073826Y030417D01*
X073776Y030297D01*
X07376Y030168D01*
X073776Y03004D01*
X073826Y02992D01*
X073905Y029816D01*
X074008Y029737D01*
X074129Y029688D01*
X074257Y029671D01*
X074386Y029688D01*
X074506Y029737D01*
X07461Y029816D01*
X074689Y02992D01*
X074738Y03004D01*
X074755Y030168D01*
X074738Y030297D01*
X074689Y030417D01*
X07461Y030521D01*
X074596Y030531D01*
X074564Y030563D01*
X074496Y030639D01*
X074471Y030672D01*
X074449Y030702D01*
X074433Y030729D01*
X074421Y030753D01*
X074414Y030772D01*
X074411Y030786D01*
X07441Y030788D01*
Y032843D01*
X074399Y032901D01*
X074366Y032951D01*
X073008Y034308D01*
X072959Y034341D01*
X0729Y034353D01*
X057263D01*
X056603Y035013D01*
Y03885D01*
X056591Y038909D01*
X056558Y038958D01*
X055937Y039579D01*
X055978Y039694D01*
X05598Y039697D01*
X0579D01*
X057903Y039697D01*
X05791Y039695D01*
X057918Y039692D01*
X057927Y039688D01*
X057937Y039682D01*
X057948Y039674D01*
X05796Y039665D01*
X057973Y039654D01*
X057986Y039642D01*
X057988Y039638D01*
X05805Y039591D01*
X058123Y039561D01*
X0582Y039551D01*
X058277Y039561D01*
X05835Y039591D01*
X058412Y039638D01*
X058459Y0397D01*
X058489Y039773D01*
X058499Y03985D01*
X058489Y039927D01*
X058589Y039994D01*
X059047Y039537D01*
Y038711D01*
X059045Y038702D01*
X059041Y03869D01*
X059034Y038674D01*
X059024Y038656D01*
X05901Y038635D01*
X058994Y038613D01*
X058948Y038561D01*
X058927Y038539D01*
X058918Y038533D01*
X058855Y03845D01*
X058815Y038354D01*
X058801Y038251D01*
X058815Y038148D01*
X058855Y038051D01*
X058918Y037969D01*
X059001Y037906D01*
X059097Y037866D01*
X0592Y037852D01*
X059303Y037866D01*
X059399Y037906D01*
X059482Y037969D01*
X059545Y038051D01*
X059585Y038148D01*
X059599Y038251D01*
X059585Y038354D01*
X059545Y03845D01*
X059482Y038533D01*
X059473Y038539D01*
X059452Y038561D01*
X059406Y038613D01*
X05939Y038635D01*
X059376Y038656D01*
X059366Y038674D01*
X059359Y03869D01*
X059355Y038702D01*
X059353Y038711D01*
Y0396D01*
X059341Y039659D01*
X059308Y039708D01*
X058608Y040408D01*
X058559Y040441D01*
X0585Y040453D01*
X053413D01*
X051303Y042563D01*
Y04655D01*
X051291Y046609D01*
X051258Y046658D01*
X048875Y049041D01*
X04892Y049151D01*
X058336D01*
X058413Y049161D01*
X058486Y049191D01*
X058548Y049238D01*
X05924Y04993D01*
X059244Y04993D01*
X059355Y049944D01*
X059458Y049987D01*
X059539Y050049D01*
X059545Y05005D01*
X059558Y050052D01*
X059659Y050059D01*
X059833D01*
X059884Y050057D01*
X059929Y050053D01*
X059943Y05005D01*
X05995Y050049D01*
X06003Y049987D01*
X060133Y049944D01*
X060244Y04993D01*
X060355Y049944D01*
X060458Y049987D01*
X060547Y050055D01*
X060615Y050144D01*
X060658Y050247D01*
X060673Y050358D01*
X060658Y050469D01*
X060615Y050573D01*
X060547Y050661D01*
X060458Y050729D01*
X060355Y050772D01*
X060244Y050787D01*
X060133Y050772D01*
X06003Y050729D01*
X05995Y050668D01*
X059943Y050666D01*
X05993Y050664D01*
X059829Y050658D01*
X059655D01*
X059604Y05066D01*
X059559Y050664D01*
X059545Y050666D01*
X059539Y050668D01*
X059458Y050729D01*
X059355Y050772D01*
X059244Y050787D01*
X059133Y050772D01*
X05903Y050729D01*
X058941Y050661D01*
X058873Y050573D01*
X05883Y050469D01*
X058826Y050434D01*
X058786Y050402D01*
X058674Y050441D01*
X05866Y050456D01*
X058658Y050469D01*
X058615Y050573D01*
X058547Y050661D01*
X058458Y050729D01*
X058355Y050772D01*
X058244Y050787D01*
X058133Y050772D01*
X05803Y050729D01*
X057941Y050661D01*
X057873Y050573D01*
X05783Y050469D01*
X057816Y050358D01*
X05783Y050247D01*
X057873Y050144D01*
X057941Y050055D01*
X05803Y049987D01*
X058133Y049944D01*
X058207Y049935D01*
X058254Y049826D01*
X05819Y049749D01*
X044402D01*
X044347Y049805D01*
Y051039D01*
X044347Y051039D01*
X044414Y051127D01*
X044456Y051229D01*
X044471Y051339D01*
X044456Y051448D01*
X044414Y05155D01*
X044347Y051638D01*
X044259Y051705D01*
X044157Y051748D01*
X044047Y051762D01*
X043938Y051748D01*
X043835Y051705D01*
X043748Y051638D01*
X04368Y05155D01*
X043638Y051448D01*
X043624Y051339D01*
X043638Y051229D01*
X04368Y051127D01*
X043748Y051039D01*
X043748Y051039D01*
Y049681D01*
X043758Y049603D01*
X043788Y049531D01*
X043836Y049469D01*
X043983Y049321D01*
X043934Y049203D01*
X043563D01*
X0422Y050566D01*
Y050838D01*
X042202Y050849D01*
X042207Y050863D01*
X042216Y050881D01*
X042227Y050901D01*
X042243Y050924D01*
X042262Y050949D01*
X042313Y051007D01*
X042337Y051031D01*
X042347Y051039D01*
X042414Y051127D01*
X042456Y051229D01*
X042471Y051339D01*
X042456Y051448D01*
X042414Y05155D01*
X042347Y051638D01*
X042259Y051705D01*
X042157Y051748D01*
X042047Y051762D01*
X041938Y051748D01*
X041835Y051705D01*
X041748Y051638D01*
X04168Y05155D01*
X041638Y051448D01*
X041624Y051339D01*
X041638Y051229D01*
X04168Y051127D01*
X041748Y051039D01*
X041758Y051031D01*
X041782Y051007D01*
X041833Y050949D01*
X041852Y050924D01*
X041867Y050901D01*
X041879Y050881D01*
X041887Y050863D01*
X041892Y050849D01*
X041894Y050838D01*
Y050503D01*
X041898Y050486D01*
X041789Y050427D01*
X041292Y050924D01*
X041296Y050939D01*
X041304Y050959D01*
X041314Y05098D01*
X041325Y051001D01*
X041358Y051051D01*
X041378Y051076D01*
X041381Y051083D01*
X041385Y051088D01*
X041386Y051091D01*
X041414Y051127D01*
X041456Y051229D01*
X041471Y051339D01*
X041456Y051448D01*
X041414Y05155D01*
X041347Y051638D01*
X041259Y051705D01*
X041157Y051748D01*
X041047Y051762D01*
X040938Y051748D01*
X040835Y051705D01*
X040748Y051638D01*
X04068Y05155D01*
X040638Y051448D01*
X040624Y051339D01*
X040638Y051229D01*
X04068Y051127D01*
X040748Y051039D01*
X040835Y050972D01*
X040881Y050953D01*
X040883Y050951D01*
X040889Y050949D01*
X040894Y050945D01*
X040919Y050935D01*
X040936Y050926D01*
X04095Y050917D01*
X04096Y050909D01*
X040967Y050902D01*
X040972Y050896D01*
X040975Y05089D01*
X040977Y050884D01*
X040978Y050878D01*
Y050869D01*
X04098Y050863D01*
X04098Y050862D01*
X04098Y05086D01*
X04099Y05081D01*
X041023Y05076D01*
X04297Y048814D01*
X042931Y048685D01*
X042919Y048683D01*
X040509Y051093D01*
X040503Y051102D01*
X040497Y051116D01*
X04049Y051134D01*
X040484Y051157D01*
X040479Y051184D01*
X040474Y051214D01*
X040469Y051292D01*
X040469Y051326D01*
X040471Y051339D01*
X040456Y051448D01*
X040414Y05155D01*
X040347Y051638D01*
X040259Y051705D01*
X040157Y051748D01*
X040047Y051762D01*
X039938Y051748D01*
X039835Y051705D01*
X039748Y051638D01*
X03968Y05155D01*
X039638Y051448D01*
X039624Y051339D01*
X039638Y051229D01*
X03968Y051127D01*
X039748Y051039D01*
X039835Y050972D01*
X039938Y050929D01*
X040047Y050915D01*
X04006Y050917D01*
X040094Y050916D01*
X040171Y050911D01*
X040202Y050907D01*
X040229Y050902D01*
X040252Y050896D01*
X04027Y050889D01*
X040284Y050882D01*
X040293Y050877D01*
X042707Y048462D01*
X042662Y048353D01*
X042249D01*
X039509Y051093D01*
X039503Y051102D01*
X039497Y051116D01*
X03949Y051134D01*
X039484Y051157D01*
X039479Y051184D01*
X039474Y051214D01*
X039469Y051292D01*
X039469Y051326D01*
X039471Y051339D01*
X039456Y051448D01*
X039414Y05155D01*
X039347Y051638D01*
X039259Y051705D01*
X039157Y051748D01*
X039047Y051762D01*
X038938Y051748D01*
X038835Y051705D01*
X038748Y051638D01*
X03868Y05155D01*
X038638Y051448D01*
X038624Y051339D01*
X038638Y051229D01*
X03868Y051127D01*
X038748Y051039D01*
X038835Y050972D01*
X038938Y050929D01*
X039047Y050915D01*
X03906Y050917D01*
X039094Y050916D01*
X039171Y050911D01*
X039202Y050907D01*
X039229Y050902D01*
X039252Y050896D01*
X03927Y050889D01*
X039284Y050882D01*
X039293Y050877D01*
X042078Y048092D01*
X042127Y048059D01*
X042186Y048047D01*
X048087D01*
X050042Y046092D01*
X050043Y046049D01*
X050034Y045974D01*
X049929Y045937D01*
X049458Y046408D01*
X049409Y046441D01*
X04935Y046453D01*
X047346D01*
X047346Y046453D01*
X047323Y046509D01*
X047256Y046596D01*
X047169Y046662D01*
X047068Y046704D01*
X047049Y046707D01*
X047056Y046825D01*
X047375D01*
Y047775D01*
X046425D01*
Y046825D01*
X046744D01*
X046751Y046707D01*
X046732Y046704D01*
X046631Y046662D01*
X046544Y046596D01*
X046477Y046509D01*
X046436Y046408D01*
X046429Y046355D01*
X046306Y046311D01*
X046208Y046408D01*
X046159Y046441D01*
X0461Y046453D01*
X045946D01*
X045946Y046453D01*
X045923Y046509D01*
X045856Y046596D01*
X045769Y046662D01*
X045668Y046704D01*
X04556Y046719D01*
X04544D01*
X045332Y046704D01*
X045231Y046662D01*
X045144Y046596D01*
X045077Y046509D01*
X045036Y046408D01*
X045021Y0463D01*
X045036Y046192D01*
X045077Y046091D01*
X045015Y045978D01*
X041624D01*
X036509Y051093D01*
X036503Y051102D01*
X036497Y051116D01*
X03649Y051134D01*
X036484Y051157D01*
X036479Y051184D01*
X036474Y051214D01*
X036469Y051292D01*
X036469Y051326D01*
X036471Y051339D01*
X036456Y051448D01*
X036414Y05155D01*
X036347Y051638D01*
X036259Y051705D01*
X036157Y051748D01*
X036047Y051762D01*
X035938Y051748D01*
X035835Y051705D01*
X035748Y051638D01*
X03568Y05155D01*
X035638Y051448D01*
X035624Y051339D01*
X035638Y051229D01*
X03568Y051127D01*
X035748Y051039D01*
X035835Y050972D01*
X035938Y050929D01*
X036047Y050915D01*
X03606Y050917D01*
X036094Y050916D01*
X036171Y050911D01*
X036202Y050907D01*
X036229Y050902D01*
X036252Y050896D01*
X03627Y050889D01*
X036284Y050882D01*
X036293Y050877D01*
X041453Y045717D01*
X041502Y045684D01*
X041561Y045672D01*
X045025D01*
Y045453D01*
X041149D01*
X035509Y051093D01*
X035503Y051102D01*
X035497Y051116D01*
X03549Y051134D01*
X035484Y051157D01*
X035479Y051184D01*
X035474Y051214D01*
X035469Y051292D01*
X035469Y051326D01*
X035471Y051339D01*
X035456Y051448D01*
X035414Y05155D01*
X035347Y051638D01*
X035259Y051705D01*
X035157Y051748D01*
X035047Y051762D01*
X034938Y051748D01*
X034835Y051705D01*
X034748Y051638D01*
X03468Y05155D01*
X034638Y051448D01*
X034624Y051339D01*
X034638Y051229D01*
X03467Y051152D01*
X03457Y051085D01*
X034448Y051207D01*
X034456Y051229D01*
X034471Y051339D01*
X034456Y051448D01*
X034414Y05155D01*
X034347Y051638D01*
X034259Y051705D01*
X034157Y051748D01*
X034047Y051762D01*
X033938Y051748D01*
X033835Y051705D01*
X033748Y051638D01*
X03368Y05155D01*
X033638Y051448D01*
X033624Y051339D01*
X033638Y051229D01*
X03368Y051127D01*
X033748Y051039D01*
X033835Y050972D01*
X033938Y050929D01*
X034047Y050915D01*
X034157Y050929D01*
X034253Y050969D01*
X03756Y047662D01*
X03761Y047629D01*
X037668Y047618D01*
X037957D01*
X041332Y044242D01*
X041364Y044221D01*
X041357Y04414D01*
X041344Y044103D01*
X040499D01*
X033509Y051093D01*
X033503Y051102D01*
X033497Y051116D01*
X03349Y051134D01*
X033484Y051157D01*
X033479Y051184D01*
X033474Y051214D01*
X033469Y051292D01*
X033469Y051326D01*
X033471Y051339D01*
X033456Y051448D01*
X033414Y05155D01*
X033347Y051638D01*
X033259Y051705D01*
X033157Y051748D01*
X033047Y051762D01*
X032938Y051748D01*
X032835Y051705D01*
X032748Y051638D01*
X03268Y05155D01*
X032638Y051448D01*
X032624Y051339D01*
X032638Y051229D01*
X03268Y051127D01*
X032748Y051039D01*
X032835Y050972D01*
X032938Y050929D01*
X033047Y050915D01*
X03306Y050917D01*
X033094Y050916D01*
X033171Y050911D01*
X033202Y050907D01*
X033229Y050902D01*
X033252Y050896D01*
X03327Y050889D01*
X033284Y050882D01*
X033293Y050877D01*
X040328Y043842D01*
X040359Y043821D01*
X040353Y04374D01*
X040339Y043703D01*
X038963D01*
X037903Y044763D01*
Y045636D01*
X037891Y045694D01*
X037858Y045744D01*
X032492Y05111D01*
X032477Y051126D01*
X032468Y051138D01*
X032467Y051139D01*
Y051157D01*
X032468Y051161D01*
X032467Y051165D01*
Y051759D01*
X031649D01*
Y05215D01*
X031639Y052228D01*
X031609Y0523D01*
X031562Y052362D01*
X031062Y052862D01*
X031Y052909D01*
X030928Y052939D01*
X03085Y052949D01*
D02*
G37*
G36*
X062294Y05078D02*
Y050408D01*
X062666D01*
X062658Y050469D01*
X062615Y050573D01*
X062547Y050661D01*
X062458Y050729D01*
X062355Y050772D01*
X062294Y05078D01*
D02*
G37*
G36*
X062194D02*
X062133Y050772D01*
X06203Y050729D01*
X061941Y050661D01*
X061873Y050573D01*
X06183Y050469D01*
X061822Y050408D01*
X062194D01*
Y05078D01*
D02*
G37*
G36*
X061294D02*
Y050408D01*
X061666D01*
X061658Y050469D01*
X061615Y050573D01*
X061547Y050661D01*
X061458Y050729D01*
X061355Y050772D01*
X061294Y05078D01*
D02*
G37*
G36*
X061194D02*
X061133Y050772D01*
X06103Y050729D01*
X060941Y050661D01*
X060873Y050573D01*
X06083Y050469D01*
X060822Y050408D01*
X061194D01*
Y05078D01*
D02*
G37*
G36*
X078898Y052624D02*
X078697Y052608D01*
X078501Y052561D01*
X078314Y052484D01*
X078142Y052378D01*
X077989Y052247D01*
X077858Y052094D01*
X077753Y051922D01*
X077675Y051736D01*
X077628Y05154D01*
X077613Y051339D01*
X077628Y051138D01*
X077675Y050941D01*
X077753Y050755D01*
X077858Y050583D01*
X077989Y05043D01*
X078142Y050299D01*
X078314Y050194D01*
X078501Y050116D01*
X078697Y050069D01*
X078898Y050054D01*
X079099Y050069D01*
X079295Y050116D01*
X079481Y050194D01*
X079653Y050299D01*
X079806Y05043D01*
X079937Y050583D01*
X080043Y050755D01*
X08012Y050941D01*
X080167Y051138D01*
X080183Y051339D01*
X080167Y05154D01*
X08012Y051736D01*
X080043Y051922D01*
X079937Y052094D01*
X079806Y052247D01*
X079653Y052378D01*
X079481Y052484D01*
X079295Y052561D01*
X079099Y052608D01*
X078898Y052624D01*
D02*
G37*
G36*
X051339D02*
X051138Y052608D01*
X050941Y052561D01*
X050755Y052484D01*
X050583Y052378D01*
X05043Y052247D01*
X050299Y052094D01*
X050194Y051922D01*
X050116Y051736D01*
X050069Y05154D01*
X050054Y051339D01*
X050069Y051138D01*
X050116Y050941D01*
X050194Y050755D01*
X050299Y050583D01*
X05043Y05043D01*
X050583Y050299D01*
X050755Y050194D01*
X050941Y050116D01*
X051138Y050069D01*
X051339Y050054D01*
X05154Y050069D01*
X051736Y050116D01*
X051922Y050194D01*
X052094Y050299D01*
X052247Y05043D01*
X052378Y050583D01*
X052484Y050755D01*
X052561Y050941D01*
X052608Y051138D01*
X052624Y051339D01*
X052608Y05154D01*
X052561Y051736D01*
X052484Y051922D01*
X052378Y052094D01*
X052247Y052247D01*
X052094Y052378D01*
X051922Y052484D01*
X051736Y052561D01*
X05154Y052608D01*
X051339Y052624D01*
D02*
G37*
G36*
X011968D02*
X011767Y052608D01*
X011571Y052561D01*
X011385Y052484D01*
X011213Y052378D01*
X01106Y052247D01*
X010929Y052094D01*
X010824Y051922D01*
X010746Y051736D01*
X010699Y05154D01*
X010683Y051339D01*
X010699Y051138D01*
X010746Y050941D01*
X010824Y050755D01*
X010929Y050583D01*
X01106Y05043D01*
X011213Y050299D01*
X011385Y050194D01*
X011571Y050116D01*
X011767Y050069D01*
X011968Y050054D01*
X01217Y050069D01*
X012366Y050116D01*
X012552Y050194D01*
X012724Y050299D01*
X012877Y05043D01*
X013008Y050583D01*
X013113Y050755D01*
X013191Y050941D01*
X013238Y051138D01*
X013254Y051339D01*
X013238Y05154D01*
X013191Y051736D01*
X013113Y051922D01*
X013008Y052094D01*
X012877Y052247D01*
X012724Y052378D01*
X012552Y052484D01*
X012366Y052561D01*
X01217Y052608D01*
X011968Y052624D01*
D02*
G37*
G36*
X071448Y050822D02*
X070599D01*
Y049973D01*
X071448D01*
Y050822D01*
D02*
G37*
G36*
X075024Y050826D02*
X074913Y050812D01*
X074809Y050769D01*
X074721Y050701D01*
X074653Y050612D01*
X07461Y050509D01*
X074595Y050398D01*
X07461Y050287D01*
X074653Y050183D01*
X074721Y050095D01*
X074809Y050027D01*
X074913Y049984D01*
X075024Y049969D01*
X075135Y049984D01*
X075238Y050027D01*
X075327Y050095D01*
X075395Y050183D01*
X075437Y050287D01*
X075452Y050398D01*
X075437Y050509D01*
X075395Y050612D01*
X075327Y050701D01*
X075238Y050769D01*
X075135Y050812D01*
X075024Y050826D01*
D02*
G37*
G36*
X074024D02*
X073913Y050812D01*
X073809Y050769D01*
X073721Y050701D01*
X073653Y050612D01*
X07361Y050509D01*
X073595Y050398D01*
X07361Y050287D01*
X073653Y050183D01*
X073721Y050095D01*
X073809Y050027D01*
X073913Y049984D01*
X074024Y049969D01*
X074135Y049984D01*
X074238Y050027D01*
X074327Y050095D01*
X074395Y050183D01*
X074437Y050287D01*
X074452Y050398D01*
X074437Y050509D01*
X074395Y050612D01*
X074327Y050701D01*
X074238Y050769D01*
X074135Y050812D01*
X074024Y050826D01*
D02*
G37*
G36*
X073024D02*
X072913Y050812D01*
X072809Y050769D01*
X072721Y050701D01*
X072653Y050612D01*
X07261Y050509D01*
X072595Y050398D01*
X07261Y050287D01*
X072653Y050183D01*
X072721Y050095D01*
X072809Y050027D01*
X072913Y049984D01*
X073024Y049969D01*
X073135Y049984D01*
X073238Y050027D01*
X073327Y050095D01*
X073395Y050183D01*
X073437Y050287D01*
X073452Y050398D01*
X073437Y050509D01*
X073395Y050612D01*
X073327Y050701D01*
X073238Y050769D01*
X073135Y050812D01*
X073024Y050826D01*
D02*
G37*
G36*
X072024D02*
X071913Y050812D01*
X071809Y050769D01*
X071721Y050701D01*
X071653Y050612D01*
X07161Y050509D01*
X071595Y050398D01*
X07161Y050287D01*
X071653Y050183D01*
X071721Y050095D01*
X071809Y050027D01*
X071913Y049984D01*
X072024Y049969D01*
X072135Y049984D01*
X072238Y050027D01*
X072327Y050095D01*
X072395Y050183D01*
X072437Y050287D01*
X072452Y050398D01*
X072437Y050509D01*
X072395Y050612D01*
X072327Y050701D01*
X072238Y050769D01*
X072135Y050812D01*
X072024Y050826D01*
D02*
G37*
G36*
X062666Y050308D02*
X062294D01*
Y049936D01*
X062355Y049944D01*
X062458Y049987D01*
X062547Y050055D01*
X062615Y050144D01*
X062658Y050247D01*
X062666Y050308D01*
D02*
G37*
G36*
X062194D02*
X061822D01*
X06183Y050247D01*
X061873Y050144D01*
X061941Y050055D01*
X06203Y049987D01*
X062133Y049944D01*
X062194Y049936D01*
Y050308D01*
D02*
G37*
G36*
X061666D02*
X061294D01*
Y049936D01*
X061355Y049944D01*
X061458Y049987D01*
X061547Y050055D01*
X061615Y050144D01*
X061658Y050247D01*
X061666Y050308D01*
D02*
G37*
G36*
X061194D02*
X060822D01*
X06083Y050247D01*
X060873Y050144D01*
X060941Y050055D01*
X06103Y049987D01*
X061133Y049944D01*
X061194Y049936D01*
Y050308D01*
D02*
G37*
G36*
X057669Y050783D02*
X056819D01*
Y049933D01*
X057669D01*
Y050783D01*
D02*
G37*
G36*
X066244Y050787D02*
X066133Y050772D01*
X06603Y050729D01*
X065941Y050661D01*
X065873Y050573D01*
X06583Y050469D01*
X065816Y050358D01*
X06583Y050247D01*
X065873Y050144D01*
X065941Y050055D01*
X06603Y049987D01*
X066133Y049944D01*
X066244Y04993D01*
X066355Y049944D01*
X066458Y049987D01*
X066547Y050055D01*
X066615Y050144D01*
X066658Y050247D01*
X066673Y050358D01*
X066658Y050469D01*
X066615Y050573D01*
X066547Y050661D01*
X066458Y050729D01*
X066355Y050772D01*
X066244Y050787D01*
D02*
G37*
G36*
X065244D02*
X065133Y050772D01*
X06503Y050729D01*
X064941Y050661D01*
X064873Y050573D01*
X06483Y050469D01*
X064816Y050358D01*
X06483Y050247D01*
X064873Y050144D01*
X064941Y050055D01*
X06503Y049987D01*
X065133Y049944D01*
X065244Y04993D01*
X065355Y049944D01*
X065458Y049987D01*
X065547Y050055D01*
X065615Y050144D01*
X065658Y050247D01*
X065673Y050358D01*
X065658Y050469D01*
X065615Y050573D01*
X065547Y050661D01*
X065458Y050729D01*
X065355Y050772D01*
X065244Y050787D01*
D02*
G37*
G36*
X064244D02*
X064133Y050772D01*
X06403Y050729D01*
X063941Y050661D01*
X063873Y050573D01*
X06383Y050469D01*
X063816Y050358D01*
X06383Y050247D01*
X063873Y050144D01*
X063941Y050055D01*
X06403Y049987D01*
X064133Y049944D01*
X064244Y04993D01*
X064355Y049944D01*
X064458Y049987D01*
X064547Y050055D01*
X064615Y050144D01*
X064658Y050247D01*
X064673Y050358D01*
X064658Y050469D01*
X064615Y050573D01*
X064547Y050661D01*
X064458Y050729D01*
X064355Y050772D01*
X064244Y050787D01*
D02*
G37*
G36*
X063244D02*
X063133Y050772D01*
X06303Y050729D01*
X062941Y050661D01*
X062873Y050573D01*
X06283Y050469D01*
X062816Y050358D01*
X06283Y050247D01*
X062873Y050144D01*
X062941Y050055D01*
X06303Y049987D01*
X063133Y049944D01*
X063244Y04993D01*
X063355Y049944D01*
X063458Y049987D01*
X063547Y050055D01*
X063615Y050144D01*
X063658Y050247D01*
X063673Y050358D01*
X063658Y050469D01*
X063615Y050573D01*
X063547Y050661D01*
X063458Y050729D01*
X063355Y050772D01*
X063244Y050787D01*
D02*
G37*
G36*
X02905Y050757D02*
X028942Y050743D01*
X028841Y050701D01*
X028754Y050635D01*
X028688Y050548D01*
X028646Y050447D01*
X028631Y050339D01*
X028646Y05023D01*
X028688Y050129D01*
X028754Y050043D01*
X028841Y049976D01*
X028942Y049934D01*
X02905Y04992D01*
X029158Y049934D01*
X029259Y049976D01*
X029346Y050043D01*
X029412Y050129D01*
X029454Y05023D01*
X029469Y050339D01*
X029454Y050447D01*
X029412Y050548D01*
X029346Y050635D01*
X029259Y050701D01*
X029158Y050743D01*
X02905Y050757D01*
D02*
G37*
G36*
X02805D02*
X027942Y050743D01*
X027841Y050701D01*
X027754Y050635D01*
X027688Y050548D01*
X027646Y050447D01*
X027631Y050339D01*
X027646Y05023D01*
X027688Y050129D01*
X027754Y050043D01*
X027841Y049976D01*
X027942Y049934D01*
X02805Y04992D01*
X028158Y049934D01*
X028259Y049976D01*
X028346Y050043D01*
X028412Y050129D01*
X028454Y05023D01*
X028469Y050339D01*
X028454Y050447D01*
X028412Y050548D01*
X028346Y050635D01*
X028259Y050701D01*
X028158Y050743D01*
X02805Y050757D01*
D02*
G37*
G36*
X02705D02*
X026942Y050743D01*
X026841Y050701D01*
X026754Y050635D01*
X026688Y050548D01*
X026646Y050447D01*
X026631Y050339D01*
X026646Y05023D01*
X026688Y050129D01*
X026754Y050043D01*
X026841Y049976D01*
X026942Y049934D01*
X02705Y04992D01*
X027158Y049934D01*
X027259Y049976D01*
X027346Y050043D01*
X027412Y050129D01*
X027454Y05023D01*
X027469Y050339D01*
X027454Y050447D01*
X027412Y050548D01*
X027346Y050635D01*
X027259Y050701D01*
X027158Y050743D01*
X02705Y050757D01*
D02*
G37*
G36*
X02605D02*
X025942Y050743D01*
X025841Y050701D01*
X025754Y050635D01*
X025688Y050548D01*
X025646Y050447D01*
X025631Y050339D01*
X025646Y05023D01*
X025688Y050129D01*
X025754Y050043D01*
X025841Y049976D01*
X025942Y049934D01*
X02605Y04992D01*
X026158Y049934D01*
X026259Y049976D01*
X026346Y050043D01*
X026412Y050129D01*
X026454Y05023D01*
X026469Y050339D01*
X026454Y050447D01*
X026412Y050548D01*
X026346Y050635D01*
X026259Y050701D01*
X026158Y050743D01*
X02605Y050757D01*
D02*
G37*
G36*
X02505D02*
X024942Y050743D01*
X024841Y050701D01*
X024754Y050635D01*
X024688Y050548D01*
X024646Y050447D01*
X024631Y050339D01*
X024646Y05023D01*
X024688Y050129D01*
X024754Y050043D01*
X024841Y049976D01*
X024942Y049934D01*
X02505Y04992D01*
X025158Y049934D01*
X025259Y049976D01*
X025346Y050043D01*
X025412Y050129D01*
X025454Y05023D01*
X025469Y050339D01*
X025454Y050447D01*
X025412Y050548D01*
X025346Y050635D01*
X025259Y050701D01*
X025158Y050743D01*
X02505Y050757D01*
D02*
G37*
G36*
X0127Y050023D02*
Y0496D01*
X013123D01*
X013113Y049674D01*
X013065Y04979D01*
X012989Y049889D01*
X01289Y049965D01*
X012774Y050013D01*
X0127Y050023D01*
D02*
G37*
G36*
X0126D02*
X012526Y050013D01*
X01241Y049965D01*
X012311Y049889D01*
X012235Y04979D01*
X012187Y049674D01*
X012177Y0496D01*
X0126D01*
Y050023D01*
D02*
G37*
G36*
X06492Y049729D02*
X064843Y049719D01*
X064771Y049689D01*
X064709Y049641D01*
X064661Y049579D01*
X064631Y049507D01*
X064621Y04943D01*
X064631Y049352D01*
X064661Y04928D01*
X064709Y049218D01*
X064771Y04917D01*
X064843Y049141D01*
X06492Y04913D01*
X064998Y049141D01*
X06507Y04917D01*
X065132Y049218D01*
X06518Y04928D01*
X065209Y049352D01*
X06522Y04943D01*
X065209Y049507D01*
X06518Y049579D01*
X065132Y049641D01*
X06507Y049689D01*
X064998Y049719D01*
X06492Y049729D01*
D02*
G37*
G36*
X013123Y0495D02*
X0127D01*
Y049077D01*
X012774Y049087D01*
X01289Y049135D01*
X012989Y049211D01*
X013065Y04931D01*
X013113Y049426D01*
X013123Y0495D01*
D02*
G37*
G36*
X0126D02*
X012177D01*
X012187Y049426D01*
X012235Y04931D01*
X012311Y049211D01*
X01241Y049135D01*
X012526Y049087D01*
X0126Y049077D01*
Y0495D01*
D02*
G37*
G36*
X063745Y049653D02*
X063668Y049642D01*
X063595Y049612D01*
X063533Y049565D01*
X063486Y049503D01*
X063456Y049431D01*
X063446Y049353D01*
X063456Y049276D01*
X063486Y049203D01*
X063533Y049141D01*
X063595Y049094D01*
X063668Y049064D01*
X063745Y049054D01*
X063823Y049064D01*
X063895Y049094D01*
X063957Y049141D01*
X064004Y049203D01*
X064034Y049276D01*
X064044Y049353D01*
X064034Y049431D01*
X064004Y049503D01*
X063957Y049565D01*
X063895Y049612D01*
X063823Y049642D01*
X063745Y049653D01*
D02*
G37*
G36*
X02575Y049546D02*
X025673Y049536D01*
X0256Y049506D01*
X025538Y049459D01*
X025491Y049397D01*
X025461Y049324D01*
X025451Y049247D01*
X025461Y049169D01*
X025491Y049097D01*
X025538Y049035D01*
X0256Y048988D01*
X025673Y048958D01*
X02575Y048947D01*
X025827Y048958D01*
X0259Y048988D01*
X025962Y049035D01*
X026009Y049097D01*
X026039Y049169D01*
X026049Y049247D01*
X026039Y049324D01*
X026009Y049397D01*
X025962Y049459D01*
X0259Y049506D01*
X025827Y049536D01*
X02575Y049546D01*
D02*
G37*
G36*
X02175Y049679D02*
X021639Y049664D01*
X021536Y049621D01*
X021447Y049553D01*
X021379Y049464D01*
X021336Y049361D01*
X021321Y04925D01*
Y04915D01*
X021336Y049039D01*
X021379Y048936D01*
X021447Y048847D01*
X021536Y048779D01*
X021639Y048736D01*
X02175Y048721D01*
X021861Y048736D01*
X021964Y048779D01*
X022053Y048847D01*
X022121Y048936D01*
X022164Y049039D01*
X022179Y04915D01*
Y04925D01*
X022164Y049361D01*
X022121Y049464D01*
X022053Y049553D01*
X021964Y049621D01*
X021861Y049664D01*
X02175Y049679D01*
D02*
G37*
G36*
X02074D02*
X020629Y049664D01*
X020526Y049621D01*
X020437Y049553D01*
X020369Y049464D01*
X020326Y049361D01*
X020311Y04925D01*
Y04915D01*
X020326Y049039D01*
X020369Y048936D01*
X020437Y048847D01*
X020526Y048779D01*
X020629Y048736D01*
X02074Y048721D01*
X020851Y048736D01*
X020954Y048779D01*
X021043Y048847D01*
X021111Y048936D01*
X021154Y049039D01*
X021169Y04915D01*
Y04925D01*
X021154Y049361D01*
X021111Y049464D01*
X021043Y049553D01*
X020954Y049621D01*
X020851Y049664D01*
X02074Y049679D01*
D02*
G37*
G36*
X0195D02*
X019389Y049664D01*
X019286Y049621D01*
X019197Y049553D01*
X019129Y049464D01*
X019086Y049361D01*
X019071Y04925D01*
Y04915D01*
X019086Y049039D01*
X019129Y048936D01*
X019197Y048847D01*
X019286Y048779D01*
X019389Y048736D01*
X0195Y048721D01*
X019611Y048736D01*
X019714Y048779D01*
X019803Y048847D01*
X019871Y048936D01*
X019914Y049039D01*
X019929Y04915D01*
Y04925D01*
X019914Y049361D01*
X019871Y049464D01*
X019803Y049553D01*
X019714Y049621D01*
X019611Y049664D01*
X0195Y049679D01*
D02*
G37*
G36*
X01849D02*
X018379Y049664D01*
X018276Y049621D01*
X018187Y049553D01*
X018119Y049464D01*
X018076Y049361D01*
X018061Y04925D01*
Y04915D01*
X018076Y049039D01*
X018119Y048936D01*
X018187Y048847D01*
X018276Y048779D01*
X018379Y048736D01*
X01849Y048721D01*
X018601Y048736D01*
X018704Y048779D01*
X018793Y048847D01*
X018861Y048936D01*
X018904Y049039D01*
X018919Y04915D01*
Y04925D01*
X018904Y049361D01*
X018861Y049464D01*
X018793Y049553D01*
X018704Y049621D01*
X018601Y049664D01*
X01849Y049679D01*
D02*
G37*
G36*
X0172D02*
X017089Y049664D01*
X016986Y049621D01*
X016897Y049553D01*
X016829Y049464D01*
X016786Y049361D01*
X016771Y04925D01*
Y04915D01*
X016786Y049039D01*
X016829Y048936D01*
X016897Y048847D01*
X016986Y048779D01*
X017089Y048736D01*
X0172Y048721D01*
X017311Y048736D01*
X017414Y048779D01*
X017503Y048847D01*
X017571Y048936D01*
X017614Y049039D01*
X017629Y04915D01*
Y04925D01*
X017614Y049361D01*
X017571Y049464D01*
X017503Y049553D01*
X017414Y049621D01*
X017311Y049664D01*
X0172Y049679D01*
D02*
G37*
G36*
X01619D02*
X016079Y049664D01*
X015976Y049621D01*
X015887Y049553D01*
X015819Y049464D01*
X015776Y049361D01*
X015761Y04925D01*
Y04915D01*
X015776Y049039D01*
X015819Y048936D01*
X015887Y048847D01*
X015976Y048779D01*
X016079Y048736D01*
X01619Y048721D01*
X016301Y048736D01*
X016404Y048779D01*
X016493Y048847D01*
X016561Y048936D01*
X016604Y049039D01*
X016619Y04915D01*
Y04925D01*
X016604Y049361D01*
X016561Y049464D01*
X016493Y049553D01*
X016404Y049621D01*
X016301Y049664D01*
X01619Y049679D01*
D02*
G37*
G36*
X06215Y049199D02*
X062073Y049189D01*
X062Y049159D01*
X061938Y049112D01*
X061891Y04905D01*
X061861Y048977D01*
X061851Y0489D01*
X061861Y048823D01*
X061891Y04875D01*
X061938Y048688D01*
X062Y048641D01*
X062073Y048611D01*
X06215Y048601D01*
X062227Y048611D01*
X0623Y048641D01*
X062362Y048688D01*
X062409Y04875D01*
X062439Y048823D01*
X062449Y0489D01*
X062439Y048977D01*
X062409Y04905D01*
X062362Y049112D01*
X0623Y049159D01*
X062227Y049189D01*
X06215Y049199D01*
D02*
G37*
G36*
X02485Y048899D02*
X024773Y048889D01*
X0247Y048859D01*
X024638Y048812D01*
X024591Y04875D01*
X024561Y048677D01*
X024551Y0486D01*
X024561Y048523D01*
X024591Y04845D01*
X024638Y048388D01*
X0247Y048341D01*
X024773Y048311D01*
X02485Y048301D01*
X024927Y048311D01*
X025Y048341D01*
X025062Y048388D01*
X025109Y04845D01*
X025139Y048523D01*
X025149Y0486D01*
X025139Y048677D01*
X025109Y04875D01*
X025062Y048812D01*
X025Y048859D01*
X024927Y048889D01*
X02485Y048899D01*
D02*
G37*
G36*
X077907Y048053D02*
X077815Y048041D01*
X07773Y048006D01*
X077657Y04795D01*
X077601Y047877D01*
X077566Y047791D01*
X077554Y0477D01*
X077566Y047609D01*
X077601Y047523D01*
X077657Y04745D01*
X07773Y047394D01*
X077815Y047359D01*
X077907Y047347D01*
X077998Y047359D01*
X078083Y047394D01*
X078156Y04745D01*
X078212Y047523D01*
X078248Y047609D01*
X07826Y0477D01*
X078248Y047791D01*
X078212Y047877D01*
X078156Y04795D01*
X078083Y048006D01*
X077998Y048041D01*
X077907Y048053D01*
D02*
G37*
G36*
X080185Y048038D02*
X080094Y048026D01*
X080008Y047991D01*
X079935Y047935D01*
X079879Y047862D01*
X079844Y047776D01*
X079832Y047685D01*
X079844Y047594D01*
X079879Y047508D01*
X079935Y047435D01*
X080008Y047379D01*
X080094Y047344D01*
X080185Y047332D01*
X080276Y047344D01*
X080362Y047379D01*
X080435Y047435D01*
X080491Y047508D01*
X080526Y047594D01*
X080538Y047685D01*
X080526Y047776D01*
X080491Y047862D01*
X080435Y047935D01*
X080362Y047991D01*
X080276Y048026D01*
X080185Y048038D01*
D02*
G37*
G36*
X01265Y048029D02*
X012526Y048013D01*
X01241Y047965D01*
X012311Y047889D01*
X012235Y04779D01*
X012187Y047674D01*
X012171Y04755D01*
X012187Y047426D01*
X012235Y04731D01*
X012311Y047211D01*
X01241Y047135D01*
X012526Y047087D01*
X01265Y047071D01*
X012774Y047087D01*
X01289Y047135D01*
X012989Y047211D01*
X013065Y04731D01*
X013113Y047426D01*
X013129Y04755D01*
X013113Y047674D01*
X013065Y04779D01*
X012989Y047889D01*
X01289Y047965D01*
X012774Y048013D01*
X01265Y048029D01*
D02*
G37*
G36*
X04556Y047719D02*
X04544D01*
X045332Y047704D01*
X045231Y047662D01*
X045144Y047596D01*
X045077Y047509D01*
X045036Y047408D01*
X045021Y0473D01*
X045036Y047192D01*
X045077Y047091D01*
X045144Y047004D01*
X045231Y046938D01*
X045332Y046896D01*
X04544Y046881D01*
X04556D01*
X045668Y046896D01*
X045769Y046938D01*
X045856Y047004D01*
X045923Y047091D01*
X045964Y047192D01*
X045979Y0473D01*
X045964Y047408D01*
X045923Y047509D01*
X045856Y047596D01*
X045769Y047662D01*
X045668Y047704D01*
X04556Y047719D01*
D02*
G37*
G36*
X078941Y047115D02*
X078853Y047104D01*
X078771Y04707D01*
X078701Y047016D01*
X078647Y046946D01*
X078613Y046864D01*
X078602Y046776D01*
X078613Y046688D01*
X078647Y046607D01*
X078701Y046536D01*
X078771Y046482D01*
X078853Y046449D01*
X078941Y046437D01*
X079029Y046449D01*
X07911Y046482D01*
X079181Y046536D01*
X079234Y046607D01*
X079268Y046688D01*
X07928Y046776D01*
X079268Y046864D01*
X079234Y046946D01*
X079181Y047016D01*
X07911Y04707D01*
X079029Y047104D01*
X078941Y047115D01*
D02*
G37*
G36*
X052913Y046653D02*
X052809Y046639D01*
X052712Y046599D01*
X052629Y046535D01*
X052565Y046451D01*
X052524Y046354D01*
X052511Y04625D01*
X052524Y046146D01*
X052565Y046049D01*
X052629Y045965D01*
X052712Y045901D01*
X052809Y045861D01*
X052913Y045847D01*
X053018Y045861D01*
X053115Y045901D01*
X053198Y045965D01*
X053262Y046049D01*
X053302Y046146D01*
X053316Y04625D01*
X053302Y046354D01*
X053262Y046451D01*
X053198Y046535D01*
X053115Y046599D01*
X053018Y046639D01*
X052913Y046653D01*
D02*
G37*
G36*
X0779Y046125D02*
X077823Y04611D01*
X077757Y046066D01*
X077713Y046001D01*
X077698Y045923D01*
X077713Y045846D01*
X077751Y045768D01*
X077713Y045691D01*
X077698Y045613D01*
X077713Y045536D01*
X077757Y04547D01*
X077823Y045426D01*
X0779Y045411D01*
X077977Y045426D01*
X078043Y04547D01*
X078087Y045536D01*
X078102Y045613D01*
X078087Y045691D01*
X078049Y045768D01*
X078087Y045846D01*
X078102Y045923D01*
X078087Y046001D01*
X078043Y046066D01*
X077977Y04611D01*
X0779Y046125D01*
D02*
G37*
G36*
X029586Y046443D02*
X029447Y046425D01*
X029317Y046371D01*
X029206Y046286D01*
X029121Y046174D01*
X029067Y046045D01*
X029049Y045906D01*
X029067Y045766D01*
X029121Y045637D01*
X029206Y045525D01*
X029317Y04544D01*
X029447Y045386D01*
X029586Y045368D01*
X029725Y045386D01*
X029855Y04544D01*
X029966Y045525D01*
X030052Y045637D01*
X030106Y045766D01*
X030124Y045906D01*
X030106Y046045D01*
X030052Y046174D01*
X029966Y046286D01*
X029855Y046371D01*
X029725Y046425D01*
X029586Y046443D01*
D02*
G37*
G36*
X052913Y045653D02*
X052809Y045639D01*
X052712Y045599D01*
X052629Y045535D01*
X052565Y045451D01*
X052524Y045354D01*
X052511Y04525D01*
X052524Y045146D01*
X052565Y045049D01*
X052629Y044965D01*
X052712Y044901D01*
X052809Y044861D01*
X052913Y044847D01*
X053018Y044861D01*
X053115Y044901D01*
X053198Y044965D01*
X053262Y045049D01*
X053302Y045146D01*
X053316Y04525D01*
X053302Y045354D01*
X053262Y045451D01*
X053198Y045535D01*
X053115Y045599D01*
X053018Y045639D01*
X052913Y045653D01*
D02*
G37*
G36*
X078941Y045383D02*
X078853Y045371D01*
X078771Y045338D01*
X078701Y045284D01*
X078647Y045213D01*
X078613Y045132D01*
X078602Y045044D01*
X078613Y044956D01*
X078647Y044874D01*
X078701Y044804D01*
X078771Y04475D01*
X078853Y044716D01*
X078941Y044705D01*
X079029Y044716D01*
X07911Y04475D01*
X079181Y044804D01*
X079234Y044874D01*
X079268Y044956D01*
X07928Y045044D01*
X079268Y045132D01*
X079234Y045213D01*
X079181Y045284D01*
X07911Y045338D01*
X079029Y045371D01*
X078941Y045383D01*
D02*
G37*
G36*
X03865Y045109D02*
X038557Y045097D01*
X038471Y045061D01*
X038396Y045004D01*
X038339Y044929D01*
X038303Y044843D01*
X038291Y04475D01*
X038303Y044657D01*
X038339Y044571D01*
X038396Y044496D01*
X038471Y044439D01*
X038557Y044403D01*
X03865Y044391D01*
X038743Y044403D01*
X038829Y044439D01*
X038904Y044496D01*
X038961Y044571D01*
X038997Y044657D01*
X039009Y04475D01*
X038997Y044843D01*
X038961Y044929D01*
X038904Y045004D01*
X038829Y045061D01*
X038743Y045097D01*
X03865Y045109D01*
D02*
G37*
G36*
X0764Y044749D02*
X076323Y044739D01*
X07625Y044709D01*
X076188Y044662D01*
X076141Y0446D01*
X076111Y044527D01*
X076101Y04445D01*
X076111Y044373D01*
X076141Y0443D01*
X076188Y044238D01*
X07625Y044191D01*
X076323Y044161D01*
X0764Y044151D01*
X076477Y044161D01*
X07655Y044191D01*
X076612Y044238D01*
X076659Y0443D01*
X076689Y044373D01*
X076699Y04445D01*
X076689Y044527D01*
X076659Y0446D01*
X076612Y044662D01*
X07655Y044709D01*
X076477Y044739D01*
X0764Y044749D01*
D02*
G37*
G36*
X053313Y044649D02*
X052514D01*
Y043851D01*
X053313D01*
Y044649D01*
D02*
G37*
G36*
X080185Y044438D02*
X080094Y044426D01*
X080008Y044391D01*
X079935Y044335D01*
X079879Y044262D01*
X079844Y044176D01*
X079832Y044085D01*
X079844Y043994D01*
X079879Y043908D01*
X079935Y043835D01*
X080008Y043779D01*
X080094Y043744D01*
X080185Y043732D01*
X080276Y043744D01*
X080362Y043779D01*
X080435Y043835D01*
X080491Y043908D01*
X080526Y043994D01*
X080538Y044085D01*
X080526Y044176D01*
X080491Y044262D01*
X080435Y044335D01*
X080362Y044391D01*
X080276Y044426D01*
X080185Y044438D01*
D02*
G37*
G36*
X0779Y044403D02*
X077809Y044391D01*
X077723Y044356D01*
X07765Y0443D01*
X077594Y044227D01*
X077559Y044141D01*
X077547Y04405D01*
X077559Y043959D01*
X077594Y043873D01*
X07765Y0438D01*
X077723Y043744D01*
X077809Y043709D01*
X0779Y043697D01*
X077991Y043709D01*
X078077Y043744D01*
X07815Y0438D01*
X078206Y043873D01*
X078241Y043959D01*
X078253Y04405D01*
X078241Y044141D01*
X078206Y044227D01*
X07815Y0443D01*
X078077Y044356D01*
X077991Y044391D01*
X0779Y044403D01*
D02*
G37*
G36*
X01415Y044199D02*
X014073Y044189D01*
X014Y044159D01*
X013938Y044112D01*
X013891Y04405D01*
X013861Y043977D01*
X013851Y0439D01*
X013861Y043823D01*
X013891Y04375D01*
X013938Y043688D01*
X014Y043641D01*
X014073Y043611D01*
X01415Y043601D01*
X014227Y043611D01*
X0143Y043641D01*
X014362Y043688D01*
X014409Y04375D01*
X014439Y043823D01*
X014449Y0439D01*
X014439Y043977D01*
X014409Y04405D01*
X014362Y044112D01*
X0143Y044159D01*
X014227Y044189D01*
X01415Y044199D01*
D02*
G37*
G36*
X027303Y044299D02*
X027226Y044289D01*
X027153Y044259D01*
X027091Y044212D01*
X027044Y04415D01*
X027014Y044077D01*
X027004Y044D01*
X027014Y043923D01*
X027044Y04385D01*
X027091Y043788D01*
X027153Y043741D01*
X027226Y043711D01*
X027303Y043701D01*
X027381Y043711D01*
X027396Y043717D01*
X027432Y043692D01*
X02748Y043624D01*
X027461Y043577D01*
X027451Y0435D01*
X027461Y043423D01*
X027491Y04335D01*
X027538Y043288D01*
X0276Y043241D01*
X027673Y043211D01*
X02775Y043201D01*
X027827Y043211D01*
X0279Y043241D01*
X027962Y043288D01*
X028009Y04335D01*
X028039Y043423D01*
X028049Y0435D01*
X028039Y043577D01*
X028009Y04365D01*
X027962Y043712D01*
X0279Y043759D01*
X027827Y043789D01*
X02775Y043799D01*
X027673Y043789D01*
X027657Y043783D01*
X027621Y043808D01*
X027573Y043876D01*
X027592Y043923D01*
X027603Y044D01*
X027592Y044077D01*
X027562Y04415D01*
X027515Y044212D01*
X027453Y044259D01*
X027381Y044289D01*
X027303Y044299D01*
D02*
G37*
G36*
X0571Y043749D02*
X057023Y043739D01*
X05695Y043709D01*
X056888Y043662D01*
X056841Y0436D01*
X056811Y043527D01*
X056801Y04345D01*
X056811Y043373D01*
X056841Y0433D01*
X056888Y043238D01*
X05695Y043191D01*
X057023Y043161D01*
X0571Y043151D01*
X057177Y043161D01*
X05725Y043191D01*
X057312Y043238D01*
X057359Y0433D01*
X057389Y043373D01*
X057399Y04345D01*
X057389Y043527D01*
X057359Y0436D01*
X057312Y043662D01*
X05725Y043709D01*
X057177Y043739D01*
X0571Y043749D01*
D02*
G37*
G36*
X0165Y044199D02*
X016423Y044189D01*
X01635Y044159D01*
X016288Y044112D01*
X016241Y04405D01*
X016211Y043978D01*
X016201Y0439D01*
X016211Y043823D01*
X016241Y04375D01*
X016288Y043688D01*
X01634Y043648D01*
X016343Y043599D01*
X01633Y043521D01*
X0163Y043509D01*
X016238Y043462D01*
X016191Y0434D01*
X016161Y043327D01*
X016151Y04325D01*
X016161Y043173D01*
X016191Y0431D01*
X016238Y043038D01*
X0163Y042991D01*
X016373Y042961D01*
X01645Y042951D01*
X016527Y042961D01*
X0166Y042991D01*
X016662Y043038D01*
X016709Y0431D01*
X016739Y043173D01*
X016749Y04325D01*
X016739Y043327D01*
X016709Y0434D01*
X016662Y043462D01*
X01661Y043502D01*
X016607Y043551D01*
X01662Y043629D01*
X01665Y043641D01*
X016712Y043688D01*
X016759Y04375D01*
X016789Y043823D01*
X016799Y0439D01*
X016789Y043978D01*
X016759Y04405D01*
X016712Y044112D01*
X01665Y044159D01*
X016578Y044189D01*
X0165Y044199D01*
D02*
G37*
G36*
X05975Y043299D02*
X059673Y043289D01*
X0596Y043259D01*
X059538Y043212D01*
X059491Y04315D01*
X059461Y043077D01*
X059451Y043D01*
X059461Y042923D01*
X059491Y04285D01*
X059538Y042788D01*
X0596Y042741D01*
X059673Y042711D01*
X05975Y042701D01*
X059827Y042711D01*
X0599Y042741D01*
X059962Y042788D01*
X060009Y04285D01*
X060039Y042923D01*
X060049Y043D01*
X060039Y043077D01*
X060009Y04315D01*
X059962Y043212D01*
X0599Y043259D01*
X059827Y043289D01*
X05975Y043299D01*
D02*
G37*
G36*
X06075Y042899D02*
X060673Y042889D01*
X0606Y042859D01*
X060538Y042812D01*
X060491Y04275D01*
X060461Y042677D01*
X060451Y0426D01*
X060461Y042523D01*
X060491Y04245D01*
X060538Y042388D01*
X0606Y042341D01*
X060673Y042311D01*
X06075Y042301D01*
X060827Y042311D01*
X0609Y042341D01*
X060962Y042388D01*
X061009Y04245D01*
X061039Y042523D01*
X061049Y0426D01*
X061039Y042677D01*
X061009Y04275D01*
X060962Y042812D01*
X0609Y042859D01*
X060827Y042889D01*
X06075Y042899D01*
D02*
G37*
G36*
X0346Y042703D02*
X034509Y042691D01*
X034423Y042656D01*
X03435Y0426D01*
X034294Y042527D01*
X034259Y042441D01*
X034247Y04235D01*
X034259Y042259D01*
X034294Y042173D01*
X03435Y0421D01*
X034423Y042044D01*
X034509Y042009D01*
X0346Y041997D01*
X034691Y042009D01*
X034777Y042044D01*
X03485Y0421D01*
X034906Y042173D01*
X034941Y042259D01*
X034953Y04235D01*
X034941Y042441D01*
X034906Y042527D01*
X03485Y0426D01*
X034777Y042656D01*
X034691Y042691D01*
X0346Y042703D01*
D02*
G37*
G36*
X06135Y042499D02*
X061273Y042489D01*
X0612Y042459D01*
X061138Y042412D01*
X061091Y04235D01*
X061061Y042277D01*
X061051Y0422D01*
X061061Y042123D01*
X061091Y04205D01*
X061138Y041988D01*
X0612Y041941D01*
X061273Y041911D01*
X06135Y041901D01*
X061427Y041911D01*
X0615Y041941D01*
X061562Y041988D01*
X061609Y04205D01*
X061639Y042123D01*
X061649Y0422D01*
X061639Y042277D01*
X061609Y04235D01*
X061562Y042412D01*
X0615Y042459D01*
X061427Y042489D01*
X06135Y042499D01*
D02*
G37*
G36*
X0322Y042553D02*
X032109Y042541D01*
X032023Y042506D01*
X03195Y04245D01*
X031894Y042377D01*
X031859Y042291D01*
X031847Y0422D01*
X031859Y042109D01*
X031894Y042023D01*
X03195Y04195D01*
X032023Y041894D01*
X032109Y041859D01*
X0322Y041847D01*
X032291Y041859D01*
X032377Y041894D01*
X03245Y04195D01*
X032506Y042023D01*
X032541Y042109D01*
X032553Y0422D01*
X032541Y042291D01*
X032506Y042377D01*
X03245Y04245D01*
X032377Y042506D01*
X032291Y042541D01*
X0322Y042553D01*
D02*
G37*
G36*
X016963Y042186D02*
X016886Y042176D01*
X016814Y042146D01*
X016752Y042098D01*
X016704Y042036D01*
X016674Y041964D01*
X016664Y041887D01*
X016674Y041809D01*
X016704Y041737D01*
X016752Y041675D01*
X016814Y041627D01*
X016886Y041597D01*
X016963Y041587D01*
X017041Y041597D01*
X017113Y041627D01*
X017175Y041675D01*
X017223Y041737D01*
X017253Y041809D01*
X017263Y041887D01*
X017253Y041964D01*
X017223Y042036D01*
X017175Y042098D01*
X017113Y042146D01*
X017041Y042176D01*
X016963Y042186D01*
D02*
G37*
G36*
X0587Y042149D02*
X058623Y042139D01*
X05855Y042109D01*
X058488Y042062D01*
X058441Y042D01*
X058411Y041927D01*
X058401Y04185D01*
X058411Y041773D01*
X058441Y0417D01*
X058488Y041638D01*
X05855Y041591D01*
X058623Y041561D01*
X0587Y041551D01*
X058777Y041561D01*
X05885Y041591D01*
X058912Y041638D01*
X058959Y0417D01*
X058989Y041773D01*
X058999Y04185D01*
X058989Y041927D01*
X058959Y042D01*
X058912Y042062D01*
X05885Y042109D01*
X058777Y042139D01*
X0587Y042149D01*
D02*
G37*
G36*
X057769Y04178D02*
X057692Y04177D01*
X05762Y04174D01*
X057558Y041692D01*
X05751Y04163D01*
X05748Y041558D01*
X05747Y041481D01*
X05748Y041403D01*
X05751Y041331D01*
X057558Y041269D01*
X05762Y041221D01*
X057692Y041192D01*
X057769Y041181D01*
X057847Y041192D01*
X057919Y041221D01*
X057981Y041269D01*
X058029Y041331D01*
X058059Y041403D01*
X058069Y041481D01*
X058059Y041558D01*
X058029Y04163D01*
X057981Y041692D01*
X057919Y04174D01*
X057847Y04177D01*
X057769Y04178D01*
D02*
G37*
G36*
X062588Y041437D02*
X06251Y041427D01*
X062438Y041397D01*
X062376Y04135D01*
X062329Y041288D01*
X062299Y041215D01*
X062288Y041138D01*
X062299Y04106D01*
X062329Y040988D01*
X062376Y040926D01*
X062438Y040879D01*
X06251Y040849D01*
X062588Y040838D01*
X062665Y040849D01*
X062738Y040879D01*
X0628Y040926D01*
X062847Y040988D01*
X062877Y04106D01*
X062887Y041138D01*
X062877Y041215D01*
X062847Y041288D01*
X0628Y04135D01*
X062738Y041397D01*
X062665Y041427D01*
X062588Y041437D01*
D02*
G37*
G36*
X03315Y041403D02*
X033059Y041391D01*
X032973Y041356D01*
X0329Y0413D01*
X032844Y041227D01*
X032809Y041141D01*
X032797Y04105D01*
X032809Y040959D01*
X032844Y040873D01*
X0329Y0408D01*
X032973Y040744D01*
X033059Y040709D01*
X03315Y040697D01*
X033241Y040709D01*
X033327Y040744D01*
X0334Y0408D01*
X033456Y040873D01*
X033491Y040959D01*
X033503Y04105D01*
X033491Y041141D01*
X033456Y041227D01*
X0334Y0413D01*
X033327Y041356D01*
X033241Y041391D01*
X03315Y041403D01*
D02*
G37*
G36*
X0634Y041049D02*
X063323Y041039D01*
X06325Y041009D01*
X063188Y040962D01*
X063141Y0409D01*
X063111Y040827D01*
X063101Y04075D01*
X063102Y040736D01*
X063071Y040695D01*
X063002Y040643D01*
X063002Y040643D01*
X06295Y040649D01*
X062873Y040639D01*
X0628Y040609D01*
X062738Y040562D01*
X062691Y0405D01*
X062661Y040427D01*
X062651Y04035D01*
X062661Y040273D01*
X062691Y0402D01*
X062738Y040138D01*
X0628Y040091D01*
X062873Y040061D01*
X06295Y040051D01*
X063027Y040061D01*
X0631Y040091D01*
X063162Y040138D01*
X063209Y0402D01*
X063239Y040273D01*
X063249Y04035D01*
X063248Y040364D01*
X063279Y040405D01*
X063348Y040457D01*
X063348Y040457D01*
X0634Y040451D01*
X063477Y040461D01*
X06355Y040491D01*
X063612Y040538D01*
X063659Y0406D01*
X063689Y040673D01*
X063699Y04075D01*
X063689Y040827D01*
X063659Y0409D01*
X063612Y040962D01*
X06355Y041009D01*
X063477Y041039D01*
X0634Y041049D01*
D02*
G37*
G36*
X04285Y041053D02*
X042759Y041041D01*
X042673Y041006D01*
X0426Y04095D01*
X042544Y040877D01*
X042509Y040791D01*
X042497Y0407D01*
X042509Y040609D01*
X042544Y040523D01*
X0426Y04045D01*
X042673Y040394D01*
X042759Y040359D01*
X04285Y040347D01*
X042941Y040359D01*
X043027Y040394D01*
X0431Y04045D01*
X043156Y040523D01*
X043191Y040609D01*
X043203Y0407D01*
X043191Y040791D01*
X043156Y040877D01*
X0431Y04095D01*
X043027Y041006D01*
X042941Y041041D01*
X04285Y041053D01*
D02*
G37*
G36*
X01705Y040749D02*
X016973Y040739D01*
X0169Y040709D01*
X016838Y040662D01*
X016791Y0406D01*
X016761Y040527D01*
X016751Y04045D01*
X016761Y040373D01*
X016791Y0403D01*
X016838Y040238D01*
X0169Y040191D01*
X016973Y040161D01*
X01705Y040151D01*
X017127Y040161D01*
X0172Y040191D01*
X017262Y040238D01*
X017309Y0403D01*
X017339Y040373D01*
X017349Y04045D01*
X017339Y040527D01*
X017309Y0406D01*
X017262Y040662D01*
X0172Y040709D01*
X017127Y040739D01*
X01705Y040749D01*
D02*
G37*
G36*
X079857Y040649D02*
X07978Y040639D01*
X079708Y040609D01*
X079646Y040561D01*
X079598Y040499D01*
X079568Y040427D01*
X079558Y04035D01*
X079568Y040272D01*
X079598Y0402D01*
X079646Y040138D01*
X079708Y04009D01*
X07978Y04006D01*
X079857Y04005D01*
X079935Y04006D01*
X080007Y04009D01*
X080069Y040138D01*
X080117Y0402D01*
X080147Y040272D01*
X080157Y04035D01*
X080147Y040427D01*
X080117Y040499D01*
X080069Y040561D01*
X080007Y040609D01*
X079935Y040639D01*
X079857Y040649D01*
D02*
G37*
G36*
X02355Y040003D02*
X023459Y039991D01*
X023373Y039956D01*
X0233Y0399D01*
X023244Y039827D01*
X023209Y039741D01*
X023197Y03965D01*
X023209Y039559D01*
X023244Y039473D01*
X0233Y0394D01*
X023373Y039344D01*
X023459Y039309D01*
X02355Y039297D01*
X023641Y039309D01*
X023727Y039344D01*
X0238Y0394D01*
X023856Y039473D01*
X023891Y039559D01*
X023903Y03965D01*
X023891Y039741D01*
X023856Y039827D01*
X0238Y0399D01*
X023727Y039956D01*
X023641Y039991D01*
X02355Y040003D01*
D02*
G37*
G36*
X071032Y039881D02*
X070954Y039871D01*
X070882Y039841D01*
X07082Y039794D01*
X070773Y039732D01*
X070743Y039659D01*
X070732Y039582D01*
X070743Y039504D01*
X070773Y039432D01*
X07082Y03937D01*
X070882Y039323D01*
X070954Y039293D01*
X071032Y039282D01*
X071109Y039293D01*
X071182Y039323D01*
X071244Y03937D01*
X071291Y039432D01*
X071321Y039504D01*
X071331Y039582D01*
X071321Y039659D01*
X071291Y039732D01*
X071244Y039794D01*
X071182Y039841D01*
X071109Y039871D01*
X071032Y039881D01*
D02*
G37*
G36*
X072051Y039498D02*
X071974Y039488D01*
X071901Y039458D01*
X071839Y039411D01*
X071792Y039349D01*
X071762Y039276D01*
X071752Y039199D01*
X071762Y039121D01*
X071792Y039049D01*
X071839Y038987D01*
X071901Y03894D01*
X071974Y03891D01*
X072051Y038899D01*
X072129Y03891D01*
X072201Y03894D01*
X072263Y038987D01*
X07231Y039049D01*
X07234Y039121D01*
X072351Y039199D01*
X07234Y039276D01*
X07231Y039349D01*
X072263Y039411D01*
X072201Y039458D01*
X072129Y039488D01*
X072051Y039498D01*
D02*
G37*
G36*
X0689Y039253D02*
X068809Y039241D01*
X068723Y039206D01*
X06865Y03915D01*
X068594Y039077D01*
X068559Y038991D01*
X068547Y0389D01*
X068559Y038809D01*
X068594Y038723D01*
X06865Y03865D01*
X068723Y038594D01*
X068809Y038559D01*
X0689Y038547D01*
X068991Y038559D01*
X069077Y038594D01*
X06915Y03865D01*
X069206Y038723D01*
X069241Y038809D01*
X069253Y0389D01*
X069241Y038991D01*
X069206Y039077D01*
X06915Y03915D01*
X069077Y039206D01*
X068991Y039241D01*
X0689Y039253D01*
D02*
G37*
G36*
X07395Y038599D02*
X073873Y038589D01*
X0738Y038559D01*
X073738Y038512D01*
X073691Y03845D01*
X073661Y038377D01*
X073651Y0383D01*
X073661Y038223D01*
X073691Y03815D01*
X073738Y038088D01*
X0738Y038041D01*
X073873Y038011D01*
X07395Y038001D01*
X074027Y038011D01*
X0741Y038041D01*
X074162Y038088D01*
X074209Y03815D01*
X074239Y038223D01*
X074249Y0383D01*
X074239Y038377D01*
X074209Y03845D01*
X074162Y038512D01*
X0741Y038559D01*
X074027Y038589D01*
X07395Y038599D01*
D02*
G37*
G36*
X061381Y038649D02*
X061278Y038636D01*
X061182Y038596D01*
X061099Y038533D01*
X061036Y03845D01*
X060996Y038354D01*
X060982Y038251D01*
X060996Y038148D01*
X061036Y038051D01*
X061099Y037969D01*
X061182Y037906D01*
X061278Y037866D01*
X061381Y037852D01*
X061484Y037866D01*
X06158Y037906D01*
X061663Y037969D01*
X061726Y038051D01*
X061766Y038148D01*
X06178Y038251D01*
X061766Y038354D01*
X061726Y03845D01*
X061663Y038533D01*
X06158Y038596D01*
X061484Y038636D01*
X061381Y038649D01*
D02*
G37*
G36*
X060291D02*
X060187Y038636D01*
X060091Y038596D01*
X060009Y038533D01*
X059945Y03845D01*
X059905Y038354D01*
X059892Y038251D01*
X059905Y038148D01*
X059945Y038051D01*
X060009Y037969D01*
X060091Y037906D01*
X060187Y037866D01*
X060291Y037852D01*
X060394Y037866D01*
X06049Y037906D01*
X060572Y037969D01*
X060636Y038051D01*
X060676Y038148D01*
X060689Y038251D01*
X060676Y038354D01*
X060636Y03845D01*
X060572Y038533D01*
X06049Y038596D01*
X060394Y038636D01*
X060291Y038649D01*
D02*
G37*
G36*
X058109D02*
X058006Y038636D01*
X05791Y038596D01*
X057828Y038533D01*
X057764Y03845D01*
X057724Y038354D01*
X057711Y038251D01*
X057724Y038148D01*
X057764Y038051D01*
X057828Y037969D01*
X05791Y037906D01*
X058006Y037866D01*
X058109Y037852D01*
X058213Y037866D01*
X058309Y037906D01*
X058391Y037969D01*
X058455Y038051D01*
X058495Y038148D01*
X058508Y038251D01*
X058495Y038354D01*
X058455Y03845D01*
X058391Y038533D01*
X058309Y038596D01*
X058213Y038636D01*
X058109Y038649D01*
D02*
G37*
G36*
X03925Y037999D02*
X039173Y037989D01*
X0391Y037959D01*
X039038Y037912D01*
X038991Y03785D01*
X038961Y037777D01*
X038951Y0377D01*
X038961Y037623D01*
X038991Y03755D01*
X039038Y037488D01*
X0391Y037441D01*
X039173Y037411D01*
X03925Y037401D01*
X039327Y037411D01*
X0394Y037441D01*
X039462Y037488D01*
X039509Y03755D01*
X039539Y037623D01*
X039549Y0377D01*
X039539Y037777D01*
X039509Y03785D01*
X039462Y037912D01*
X0394Y037959D01*
X039327Y037989D01*
X03925Y037999D01*
D02*
G37*
G36*
X0451Y037929D02*
X044989Y037914D01*
X044886Y037871D01*
X044797Y037803D01*
X044729Y037714D01*
X044686Y037611D01*
X044671Y0375D01*
Y0374D01*
X044686Y037289D01*
X044729Y037186D01*
X044797Y037097D01*
X044886Y037029D01*
X044989Y036986D01*
X0451Y036971D01*
X045211Y036986D01*
X045314Y037029D01*
X045403Y037097D01*
X045471Y037186D01*
X045514Y037289D01*
X045529Y0374D01*
Y0375D01*
X045514Y037611D01*
X045471Y037714D01*
X045403Y037803D01*
X045314Y037871D01*
X045211Y037914D01*
X0451Y037929D01*
D02*
G37*
G36*
X04409D02*
X043979Y037914D01*
X043876Y037871D01*
X043787Y037803D01*
X043719Y037714D01*
X043676Y037611D01*
X043661Y0375D01*
Y0374D01*
X043676Y037289D01*
X043719Y037186D01*
X043787Y037097D01*
X043876Y037029D01*
X043979Y036986D01*
X04409Y036971D01*
X044201Y036986D01*
X044304Y037029D01*
X044393Y037097D01*
X044461Y037186D01*
X044504Y037289D01*
X044519Y0374D01*
Y0375D01*
X044504Y037611D01*
X044461Y037714D01*
X044393Y037803D01*
X044304Y037871D01*
X044201Y037914D01*
X04409Y037929D01*
D02*
G37*
G36*
X04311D02*
X042999Y037914D01*
X042896Y037871D01*
X042807Y037803D01*
X042739Y037714D01*
X042696Y037611D01*
X042681Y0375D01*
Y0374D01*
X042696Y037289D01*
X042739Y037186D01*
X042807Y037097D01*
X042896Y037029D01*
X042999Y036986D01*
X04311Y036971D01*
X043221Y036986D01*
X043324Y037029D01*
X043413Y037097D01*
X043481Y037186D01*
X043524Y037289D01*
X043539Y0374D01*
Y0375D01*
X043524Y037611D01*
X043481Y037714D01*
X043413Y037803D01*
X043324Y037871D01*
X043221Y037914D01*
X04311Y037929D01*
D02*
G37*
G36*
X079857Y037507D02*
X07978Y037497D01*
X079708Y037467D01*
X079646Y03742D01*
X079598Y037358D01*
X079568Y037285D01*
X079558Y037208D01*
X079568Y03713D01*
X079598Y037058D01*
X079646Y036996D01*
X079708Y036949D01*
X07978Y036919D01*
X079857Y036908D01*
X079935Y036919D01*
X080007Y036949D01*
X080069Y036996D01*
X080117Y037058D01*
X080147Y03713D01*
X080157Y037208D01*
X080147Y037285D01*
X080117Y037358D01*
X080069Y03742D01*
X080007Y037467D01*
X079935Y037497D01*
X079857Y037507D01*
D02*
G37*
G36*
X073017Y037466D02*
X072939Y037456D01*
X072867Y037426D01*
X072805Y037378D01*
X072757Y037316D01*
X072727Y037244D01*
X072717Y037167D01*
X072727Y037089D01*
X072757Y037017D01*
X072805Y036955D01*
X072867Y036907D01*
X072939Y036877D01*
X073017Y036867D01*
X073094Y036877D01*
X073166Y036907D01*
X073228Y036955D01*
X073276Y037017D01*
X073306Y037089D01*
X073316Y037167D01*
X073306Y037244D01*
X073276Y037316D01*
X073228Y037378D01*
X073166Y037426D01*
X073094Y037456D01*
X073017Y037466D01*
D02*
G37*
G36*
X060836Y037531D02*
X060733Y037518D01*
X060636Y037478D01*
X060554Y037415D01*
X060491Y037332D01*
X060451Y037236D01*
X060437Y037133D01*
X060451Y037029D01*
X060491Y036933D01*
X060554Y036851D01*
X060636Y036787D01*
X060733Y036748D01*
X060836Y036734D01*
X060939Y036748D01*
X061035Y036787D01*
X061118Y036851D01*
X061181Y036933D01*
X061221Y037029D01*
X061235Y037133D01*
X061221Y037236D01*
X061181Y037332D01*
X061118Y037415D01*
X061035Y037478D01*
X060939Y037518D01*
X060836Y037531D01*
D02*
G37*
G36*
X059745D02*
X059642Y037518D01*
X059546Y037478D01*
X059463Y037415D01*
X0594Y037332D01*
X05936Y037236D01*
X059347Y037133D01*
X05936Y037029D01*
X0594Y036933D01*
X059463Y036851D01*
X059546Y036787D01*
X059642Y036748D01*
X059745Y036734D01*
X059848Y036748D01*
X059945Y036787D01*
X060027Y036851D01*
X060091Y036933D01*
X06013Y037029D01*
X060144Y037133D01*
X06013Y037236D01*
X060091Y037332D01*
X060027Y037415D01*
X059945Y037478D01*
X059848Y037518D01*
X059745Y037531D01*
D02*
G37*
G36*
X058655D02*
X058552Y037518D01*
X058455Y037478D01*
X058373Y037415D01*
X058309Y037332D01*
X05827Y037236D01*
X058256Y037133D01*
X05827Y037029D01*
X058309Y036933D01*
X058373Y036851D01*
X058455Y036787D01*
X058552Y036748D01*
X058655Y036734D01*
X058758Y036748D01*
X058854Y036787D01*
X058937Y036851D01*
X059Y036933D01*
X05904Y037029D01*
X059053Y037133D01*
X05904Y037236D01*
X059Y037332D01*
X058937Y037415D01*
X058854Y037478D01*
X058758Y037518D01*
X058655Y037531D01*
D02*
G37*
G36*
X057564D02*
X057461Y037518D01*
X057365Y037478D01*
X057282Y037415D01*
X057219Y037332D01*
X057179Y037236D01*
X057165Y037133D01*
X057179Y037029D01*
X057219Y036933D01*
X057282Y036851D01*
X057365Y036787D01*
X057461Y036748D01*
X057564Y036734D01*
X057667Y036748D01*
X057764Y036787D01*
X057846Y036851D01*
X057909Y036933D01*
X057949Y037029D01*
X057963Y037133D01*
X057949Y037236D01*
X057909Y037332D01*
X057846Y037415D01*
X057764Y037478D01*
X057667Y037518D01*
X057564Y037531D01*
D02*
G37*
G36*
X03555Y037149D02*
X035473Y037139D01*
X0354Y037109D01*
X035338Y037062D01*
X035291Y037D01*
X035261Y036927D01*
X035251Y03685D01*
X035261Y036773D01*
X035291Y0367D01*
X035338Y036638D01*
X0354Y036591D01*
X035473Y036561D01*
X03555Y036551D01*
X035627Y036561D01*
X0357Y036591D01*
X035762Y036638D01*
X035809Y0367D01*
X035839Y036773D01*
X035849Y03685D01*
X035839Y036927D01*
X035809Y037D01*
X035762Y037062D01*
X0357Y037109D01*
X035627Y037139D01*
X03555Y037149D01*
D02*
G37*
G36*
X03335Y037099D02*
X033273Y037089D01*
X0332Y037059D01*
X033138Y037012D01*
X033091Y03695D01*
X033061Y036877D01*
X033051Y0368D01*
X033061Y036723D01*
X033091Y03665D01*
X033138Y036588D01*
X0332Y036541D01*
X033273Y036511D01*
X03335Y036501D01*
X033427Y036511D01*
X0335Y036541D01*
X033562Y036588D01*
X033609Y03665D01*
X033639Y036723D01*
X033649Y0368D01*
X033639Y036877D01*
X033609Y03695D01*
X033562Y037012D01*
X0335Y037059D01*
X033427Y037089D01*
X03335Y037099D01*
D02*
G37*
G36*
X023494Y036849D02*
X023416Y036839D01*
X023344Y036809D01*
X023282Y036762D01*
X023234Y0367D01*
X023204Y036627D01*
X023194Y03655D01*
X023204Y036473D01*
X023234Y0364D01*
X023282Y036338D01*
X023344Y036291D01*
X023416Y036261D01*
X023494Y036251D01*
X023571Y036261D01*
X023643Y036291D01*
X023705Y036338D01*
X023753Y0364D01*
X023783Y036473D01*
X023793Y03655D01*
X023783Y036627D01*
X023753Y0367D01*
X023705Y036762D01*
X023643Y036809D01*
X023571Y036839D01*
X023494Y036849D01*
D02*
G37*
G36*
X04625Y036249D02*
X046173Y036239D01*
X0461Y036209D01*
X046038Y036162D01*
X045991Y0361D01*
X045961Y036027D01*
X045951Y03595D01*
X045961Y035873D01*
X045991Y0358D01*
X046038Y035738D01*
X0461Y035691D01*
X046173Y035661D01*
X04625Y035651D01*
X046327Y035661D01*
X0464Y035691D01*
X046462Y035738D01*
X046509Y0358D01*
X046539Y035873D01*
X046549Y03595D01*
X046539Y036027D01*
X046509Y0361D01*
X046462Y036162D01*
X0464Y036209D01*
X046327Y036239D01*
X04625Y036249D01*
D02*
G37*
G36*
X07035Y036003D02*
X070259Y035991D01*
X070174Y035956D01*
X0701Y0359D01*
X070044Y035827D01*
X070009Y035741D01*
X069997Y03565D01*
X070009Y035559D01*
X070044Y035474D01*
X0701Y0354D01*
X070174Y035344D01*
X070259Y035309D01*
X07035Y035297D01*
X070441Y035309D01*
X070527Y035344D01*
X0706Y0354D01*
X070656Y035474D01*
X070691Y035559D01*
X070703Y03565D01*
X070691Y035741D01*
X070656Y035827D01*
X0706Y0359D01*
X070527Y035956D01*
X070441Y035991D01*
X07035Y036003D01*
D02*
G37*
G36*
X02755Y035699D02*
X027473Y035689D01*
X0274Y035659D01*
X027338Y035612D01*
X027291Y03555D01*
X027261Y035477D01*
X027251Y0354D01*
X027261Y035323D01*
X027291Y03525D01*
X027338Y035188D01*
X0274Y035141D01*
X027473Y035111D01*
X02755Y035101D01*
X027627Y035111D01*
X0277Y035141D01*
X027762Y035188D01*
X027809Y03525D01*
X027839Y035323D01*
X027849Y0354D01*
X027839Y035477D01*
X027809Y03555D01*
X027762Y035612D01*
X0277Y035659D01*
X027627Y035689D01*
X02755Y035699D01*
D02*
G37*
G36*
X03685Y035549D02*
X036773Y035539D01*
X0367Y035509D01*
X036638Y035462D01*
X036591Y0354D01*
X036561Y035327D01*
X036551Y03525D01*
X036561Y035173D01*
X036591Y0351D01*
X036638Y035038D01*
X0367Y034991D01*
X036773Y034961D01*
X03685Y034951D01*
X036927Y034961D01*
X037Y034991D01*
X037062Y035038D01*
X037109Y0351D01*
X037139Y035173D01*
X037149Y03525D01*
X037139Y035327D01*
X037109Y0354D01*
X037062Y035462D01*
X037Y035509D01*
X036927Y035539D01*
X03685Y035549D01*
D02*
G37*
G36*
X0338Y035099D02*
X033723Y035089D01*
X03365Y035059D01*
X033588Y035012D01*
X033541Y03495D01*
X033511Y034877D01*
X033501Y0348D01*
X033511Y034723D01*
X033541Y03465D01*
X033588Y034588D01*
X03365Y034541D01*
X033723Y034511D01*
X0338Y034501D01*
X033877Y034511D01*
X03395Y034541D01*
X034012Y034588D01*
X034059Y03465D01*
X034089Y034723D01*
X034099Y0348D01*
X034089Y034877D01*
X034059Y03495D01*
X034012Y035012D01*
X03395Y035059D01*
X033877Y035089D01*
X0338Y035099D01*
D02*
G37*
G36*
X03835Y034303D02*
X038259Y034291D01*
X038173Y034256D01*
X0381Y0342D01*
X038046D01*
X037973Y034256D01*
X037888Y034291D01*
X037797Y034303D01*
X037705Y034291D01*
X03762Y034256D01*
X037547Y0342D01*
X037491Y034127D01*
X037456Y034041D01*
X037444Y03395D01*
X037456Y033859D01*
X037491Y033773D01*
X037524Y033731D01*
X037538Y03365D01*
X037524Y033569D01*
X037491Y033527D01*
X037456Y033441D01*
X037444Y03335D01*
X037456Y033259D01*
X037491Y033173D01*
X037547Y0331D01*
X03762Y033044D01*
X037705Y033009D01*
X037797Y032997D01*
X037888Y033009D01*
X037973Y033044D01*
X038046Y0331D01*
X0381D01*
X038173Y033044D01*
X038259Y033009D01*
X03835Y032997D01*
X038441Y033009D01*
X038527Y033044D01*
X0386Y0331D01*
X038656Y033173D01*
X038691Y033259D01*
X038703Y03335D01*
X038691Y033441D01*
X038656Y033527D01*
X038623Y033569D01*
X038609Y03365D01*
X038623Y033731D01*
X038656Y033773D01*
X038691Y033859D01*
X038703Y03395D01*
X038691Y034041D01*
X038656Y034127D01*
X0386Y0342D01*
X038527Y034256D01*
X038441Y034291D01*
X03835Y034303D01*
D02*
G37*
G36*
X0193Y034603D02*
X019209Y034591D01*
X019123Y034556D01*
X01905Y0345D01*
X018994Y034427D01*
X018959Y034341D01*
X018947Y03425D01*
X018959Y034159D01*
X018994Y034073D01*
X01905Y034D01*
X019123Y033944D01*
X019209Y033909D01*
X0193Y033897D01*
X019391Y033909D01*
X019477Y033944D01*
X01955Y034D01*
X019606Y034073D01*
X019641Y034159D01*
X019653Y03425D01*
X019641Y034341D01*
X019606Y034427D01*
X01955Y0345D01*
X019477Y034556D01*
X019391Y034591D01*
X0193Y034603D01*
D02*
G37*
G36*
X03645Y033899D02*
X036373Y033889D01*
X0363Y033859D01*
X036238Y033812D01*
X036191Y03375D01*
X036161Y033677D01*
X036151Y0336D01*
X036161Y033523D01*
X036191Y03345D01*
X036238Y033388D01*
X0363Y033341D01*
X036373Y033311D01*
X03645Y033301D01*
X036527Y033311D01*
X0366Y033341D01*
X036662Y033388D01*
X036709Y03345D01*
X036739Y033523D01*
X036749Y0336D01*
X036739Y033677D01*
X036709Y03375D01*
X036662Y033812D01*
X0366Y033859D01*
X036527Y033889D01*
X03645Y033899D01*
D02*
G37*
G36*
X047825Y034029D02*
X047775D01*
X047651Y034013D01*
X047535Y033965D01*
X047436Y033889D01*
X04736Y03379D01*
X047312Y033674D01*
X047296Y03355D01*
X047312Y033426D01*
X04736Y03331D01*
X047436Y033211D01*
X047535Y033135D01*
X047651Y033087D01*
X047775Y033071D01*
X047825D01*
X047949Y033087D01*
X048065Y033135D01*
X048164Y033211D01*
X04824Y03331D01*
X048288Y033426D01*
X048304Y03355D01*
X048288Y033674D01*
X04824Y03379D01*
X048164Y033889D01*
X048065Y033965D01*
X047949Y034013D01*
X047825Y034029D01*
D02*
G37*
G36*
X043425Y032825D02*
X042575D01*
Y031975D01*
X043425D01*
Y032825D01*
D02*
G37*
G36*
X049425Y032629D02*
X049375D01*
X049251Y032613D01*
X049135Y032565D01*
X049036Y032489D01*
X04896Y03239D01*
X048912Y032274D01*
X048896Y03215D01*
X048912Y032026D01*
X04896Y03191D01*
X049036Y031811D01*
X049135Y031735D01*
X049251Y031687D01*
X049375Y031671D01*
X049425D01*
X049549Y031687D01*
X049665Y031735D01*
X049764Y031811D01*
X04984Y03191D01*
X049888Y032026D01*
X049904Y03215D01*
X049888Y032274D01*
X04984Y03239D01*
X049764Y032489D01*
X049665Y032565D01*
X049549Y032613D01*
X049425Y032629D01*
D02*
G37*
G36*
X046425D02*
X046375D01*
X046251Y032613D01*
X046135Y032565D01*
X046036Y032489D01*
X04596Y03239D01*
X045912Y032274D01*
X045896Y03215D01*
X045912Y032026D01*
X04596Y03191D01*
X046036Y031811D01*
X046135Y031735D01*
X046251Y031687D01*
X046375Y031671D01*
X046425D01*
X046549Y031687D01*
X046665Y031735D01*
X046764Y031811D01*
X04684Y03191D01*
X046888Y032026D01*
X046904Y03215D01*
X046888Y032274D01*
X04684Y03239D01*
X046764Y032489D01*
X046665Y032565D01*
X046549Y032613D01*
X046425Y032629D01*
D02*
G37*
G36*
X030639Y038686D02*
X029635D01*
X029562Y038672D01*
X029499Y03863D01*
X029458Y038568D01*
X029443Y038494D01*
Y038317D01*
X029458Y038243D01*
X029499Y038181D01*
Y03813D01*
X029458Y038068D01*
X029443Y037994D01*
Y037817D01*
X029458Y037743D01*
X029499Y037681D01*
Y03763D01*
X029458Y037568D01*
X029443Y037494D01*
Y037317D01*
X029458Y037243D01*
X029499Y037181D01*
Y03713D01*
X029458Y037068D01*
X029443Y036994D01*
Y036817D01*
X029458Y036743D01*
X029499Y036681D01*
Y03663D01*
X029458Y036568D01*
X029443Y036494D01*
Y036317D01*
X029458Y036243D01*
X029499Y036181D01*
Y03613D01*
X029458Y036068D01*
X029443Y035994D01*
Y035817D01*
X029458Y035743D01*
X029499Y035681D01*
Y03563D01*
X029458Y035568D01*
X029443Y035494D01*
Y035317D01*
X029458Y035243D01*
X029499Y035181D01*
Y03513D01*
X029458Y035068D01*
X029443Y034994D01*
Y034817D01*
X029458Y034743D01*
X029499Y034681D01*
Y03463D01*
X029458Y034568D01*
X029443Y034494D01*
Y034317D01*
X029458Y034243D01*
X029499Y034181D01*
Y03413D01*
X029458Y034068D01*
X029443Y033994D01*
Y033817D01*
X029458Y033743D01*
X029499Y033681D01*
Y03363D01*
X029458Y033568D01*
X029443Y033494D01*
Y033317D01*
X029458Y033243D01*
X029499Y033181D01*
Y03313D01*
X029458Y033068D01*
X029443Y032994D01*
Y032817D01*
X029458Y032743D01*
X029499Y032681D01*
Y03263D01*
X029458Y032568D01*
X029443Y032494D01*
Y032317D01*
X029458Y032243D01*
X029499Y032181D01*
Y03213D01*
X029458Y032068D01*
X029443Y031994D01*
Y031817D01*
X029458Y031743D01*
X029499Y031681D01*
X029562Y031639D01*
X029635Y031625D01*
X030639D01*
X030713Y031639D01*
X030775Y031681D01*
X030817Y031743D01*
X030832Y031817D01*
Y031994D01*
X030817Y032068D01*
X030775Y03213D01*
Y032181D01*
X030817Y032243D01*
X030832Y032317D01*
Y032494D01*
X030817Y032568D01*
X030775Y03263D01*
Y032681D01*
X030817Y032743D01*
X030832Y032817D01*
Y032994D01*
X030817Y033068D01*
X030775Y03313D01*
Y033181D01*
X030817Y033243D01*
X030832Y033317D01*
Y033494D01*
X030817Y033568D01*
X030775Y03363D01*
Y033681D01*
X030817Y033743D01*
X030832Y033817D01*
Y033994D01*
X030817Y034068D01*
X030775Y03413D01*
Y034181D01*
X030817Y034243D01*
X030832Y034317D01*
Y034494D01*
X030817Y034568D01*
X030775Y03463D01*
Y034681D01*
X030817Y034743D01*
X030832Y034817D01*
Y034994D01*
X030817Y035068D01*
X030775Y03513D01*
Y035181D01*
X030817Y035243D01*
X030832Y035317D01*
Y035494D01*
X030817Y035568D01*
X030775Y03563D01*
Y035681D01*
X030817Y035743D01*
X030832Y035817D01*
Y035994D01*
X030817Y036068D01*
X030775Y03613D01*
Y036181D01*
X030817Y036243D01*
X030832Y036317D01*
Y036494D01*
X030817Y036568D01*
X030775Y03663D01*
Y036681D01*
X030817Y036743D01*
X030832Y036817D01*
Y036994D01*
X030817Y037068D01*
X030775Y03713D01*
Y037181D01*
X030817Y037243D01*
X030832Y037317D01*
Y037494D01*
X030817Y037568D01*
X030775Y03763D01*
Y037681D01*
X030817Y037743D01*
X030832Y037817D01*
Y037994D01*
X030817Y038068D01*
X030775Y03813D01*
Y038181D01*
X030817Y038243D01*
X030832Y038317D01*
Y038494D01*
X030817Y038568D01*
X030775Y03863D01*
X030713Y038672D01*
X030639Y038686D01*
D02*
G37*
G36*
X0124Y032803D02*
X0123D01*
X012173Y032791D01*
X01205Y032753D01*
X011937Y032693D01*
X011838Y032612D01*
X011757Y032513D01*
X011697Y0324D01*
X011659Y032277D01*
X011647Y03215D01*
X011659Y032023D01*
X011697Y0319D01*
X011757Y031787D01*
X011838Y031688D01*
X011937Y031607D01*
X01205Y031547D01*
X012173Y031509D01*
X0123Y031497D01*
X0124D01*
X012527Y031509D01*
X01265Y031547D01*
X012763Y031607D01*
X012862Y031688D01*
X012943Y031787D01*
X013003Y0319D01*
X013041Y032023D01*
X013053Y03215D01*
X013041Y032277D01*
X013003Y0324D01*
X012943Y032513D01*
X012862Y032612D01*
X012763Y032693D01*
X01265Y032753D01*
X012527Y032791D01*
X0124Y032803D01*
D02*
G37*
G36*
Y031303D02*
X0123D01*
X012173Y031291D01*
X01205Y031253D01*
X011937Y031193D01*
X011838Y031112D01*
X011757Y031013D01*
X011697Y0309D01*
X011659Y030777D01*
X011647Y03065D01*
X011659Y030523D01*
X011697Y0304D01*
X011757Y030287D01*
X011838Y030188D01*
X011937Y030107D01*
X01205Y030047D01*
X012173Y030009D01*
X0123Y029997D01*
X0124D01*
X012527Y030009D01*
X01265Y030047D01*
X012763Y030107D01*
X012862Y030188D01*
X012943Y030287D01*
X013003Y0304D01*
X013041Y030523D01*
X013053Y03065D01*
X013041Y030777D01*
X013003Y0309D01*
X012943Y031013D01*
X012862Y031112D01*
X012763Y031193D01*
X01265Y031253D01*
X012527Y031291D01*
X0124Y031303D01*
D02*
G37*
G36*
X0443Y030854D02*
X044183Y030838D01*
X044073Y030793D01*
X043979Y030721D01*
X043907Y030627D01*
X043862Y030517D01*
X043846Y0304D01*
X043862Y030283D01*
X043907Y030173D01*
X043979Y030079D01*
X044073Y030007D01*
X044183Y029962D01*
X0443Y029946D01*
X044417Y029962D01*
X044527Y030007D01*
X044621Y030079D01*
X044693Y030173D01*
X044738Y030283D01*
X044754Y0304D01*
X044738Y030517D01*
X044693Y030627D01*
X044621Y030721D01*
X044527Y030793D01*
X044417Y030838D01*
X0443Y030854D01*
D02*
G37*
G36*
X047192Y030662D02*
X046205D01*
Y029675D01*
X047192D01*
Y030662D01*
D02*
G37*
G36*
X060478Y030666D02*
X060349Y030649D01*
X060229Y0306D01*
X060126Y030521D01*
X060047Y030417D01*
X059997Y030297D01*
X05998Y030168D01*
X059997Y03004D01*
X060047Y02992D01*
X060126Y029816D01*
X060229Y029737D01*
X060349Y029688D01*
X060478Y029671D01*
X060607Y029688D01*
X060727Y029737D01*
X06083Y029816D01*
X060909Y02992D01*
X060959Y03004D01*
X060976Y030168D01*
X060959Y030297D01*
X060909Y030417D01*
X06083Y030521D01*
X060727Y0306D01*
X060607Y030649D01*
X060478Y030666D01*
D02*
G37*
G36*
X057722D02*
X057593Y030649D01*
X057473Y0306D01*
X05737Y030521D01*
X057291Y030417D01*
X057241Y030297D01*
X057224Y030168D01*
X057241Y03004D01*
X057291Y02992D01*
X05737Y029816D01*
X057473Y029737D01*
X057593Y029688D01*
X057722Y029671D01*
X057851Y029688D01*
X057971Y029737D01*
X058074Y029816D01*
X058153Y02992D01*
X058203Y03004D01*
X05822Y030168D01*
X058203Y030297D01*
X058153Y030417D01*
X058074Y030521D01*
X057971Y0306D01*
X057851Y030649D01*
X057722Y030666D01*
D02*
G37*
G36*
X054966D02*
X054837Y030649D01*
X054717Y0306D01*
X054614Y030521D01*
X054535Y030417D01*
X054485Y030297D01*
X054468Y030168D01*
X054485Y03004D01*
X054535Y02992D01*
X054614Y029816D01*
X054717Y029737D01*
X054837Y029688D01*
X054966Y029671D01*
X055095Y029688D01*
X055215Y029737D01*
X055318Y029816D01*
X055397Y02992D01*
X055447Y03004D01*
X055464Y030168D01*
X055447Y030297D01*
X055397Y030417D01*
X055318Y030521D01*
X055215Y0306D01*
X055095Y030649D01*
X054966Y030666D01*
D02*
G37*
G36*
X05221D02*
X052081Y030649D01*
X051961Y0306D01*
X051858Y030521D01*
X051779Y030417D01*
X051729Y030297D01*
X051712Y030168D01*
X051729Y03004D01*
X051779Y02992D01*
X051858Y029816D01*
X051961Y029737D01*
X052081Y029688D01*
X05221Y029671D01*
X052339Y029688D01*
X052459Y029737D01*
X052562Y029816D01*
X052641Y02992D01*
X052691Y03004D01*
X052708Y030168D01*
X052691Y030297D01*
X052641Y030417D01*
X052562Y030521D01*
X052459Y0306D01*
X052339Y030649D01*
X05221Y030666D01*
D02*
G37*
G36*
X049454D02*
X049325Y030649D01*
X049205Y0306D01*
X049102Y030521D01*
X049023Y030417D01*
X048973Y030297D01*
X048956Y030168D01*
X048973Y03004D01*
X049023Y02992D01*
X049102Y029816D01*
X049205Y029737D01*
X049325Y029688D01*
X049454Y029671D01*
X049583Y029688D01*
X049703Y029737D01*
X049806Y029816D01*
X049886Y02992D01*
X049935Y03004D01*
X049952Y030168D01*
X049935Y030297D01*
X049886Y030417D01*
X049806Y030521D01*
X049703Y0306D01*
X049583Y030649D01*
X049454Y030666D01*
D02*
G37*
G36*
X03925Y030149D02*
X039173Y030139D01*
X0391Y030109D01*
X039038Y030062D01*
X038991Y03D01*
X038961Y029927D01*
X038951Y02985D01*
X038961Y029773D01*
X038991Y0297D01*
X039038Y029638D01*
X0391Y029591D01*
X039173Y029561D01*
X03925Y029551D01*
X039327Y029561D01*
X0394Y029591D01*
X039462Y029638D01*
X039509Y0297D01*
X039539Y029773D01*
X039549Y02985D01*
X039539Y029927D01*
X039509Y03D01*
X039462Y030062D01*
X0394Y030109D01*
X039327Y030139D01*
X03925Y030149D01*
D02*
G37*
G36*
X036576Y030026D02*
X036499Y030015D01*
X036426Y029985D01*
X036364Y029938D01*
X036317Y029876D01*
X036287Y029804D01*
X036277Y029726D01*
X036287Y029649D01*
X036317Y029576D01*
X036364Y029514D01*
X036426Y029467D01*
X036499Y029437D01*
X036576Y029427D01*
X036654Y029437D01*
X036726Y029467D01*
X036788Y029514D01*
X036835Y029576D01*
X036865Y029649D01*
X036876Y029726D01*
X036865Y029804D01*
X036835Y029876D01*
X036788Y029938D01*
X036726Y029985D01*
X036654Y030015D01*
X036576Y030026D01*
D02*
G37*
G36*
X0182Y029903D02*
X018109Y029891D01*
X018023Y029856D01*
X01795Y0298D01*
X017894Y029727D01*
X017859Y029641D01*
X017847Y02955D01*
X017859Y029459D01*
X017894Y029373D01*
X01795Y0293D01*
X018023Y029244D01*
X018109Y029209D01*
X0182Y029197D01*
X018291Y029209D01*
X018377Y029244D01*
X01845Y0293D01*
X018506Y029373D01*
X018541Y029459D01*
X018553Y02955D01*
X018541Y029641D01*
X018506Y029727D01*
X01845Y0298D01*
X018377Y029856D01*
X018291Y029891D01*
X0182Y029903D01*
D02*
G37*
G36*
X0202Y029299D02*
X020123Y029289D01*
X02005Y029259D01*
X019988Y029212D01*
X019941Y02915D01*
X019911Y029077D01*
X019901Y029D01*
X019911Y028923D01*
X019941Y02885D01*
X019988Y028788D01*
X02005Y028741D01*
X020123Y028711D01*
X0202Y028701D01*
X020277Y028711D01*
X02035Y028741D01*
X020412Y028788D01*
X020459Y02885D01*
X020489Y028923D01*
X020499Y029D01*
X020489Y029077D01*
X020459Y02915D01*
X020412Y029212D01*
X02035Y029259D01*
X020277Y029289D01*
X0202Y029299D01*
D02*
G37*
G36*
X0443Y028854D02*
X044183Y028838D01*
X044073Y028793D01*
X043979Y028721D01*
X043907Y028627D01*
X043862Y028517D01*
X043846Y0284D01*
X043862Y028283D01*
X043907Y028173D01*
X043979Y028079D01*
X044073Y028007D01*
X044183Y027962D01*
X0443Y027946D01*
X044417Y027962D01*
X044527Y028007D01*
X044621Y028079D01*
X044693Y028173D01*
X044738Y028283D01*
X044754Y0284D01*
X044738Y028517D01*
X044693Y028627D01*
X044621Y028721D01*
X044527Y028793D01*
X044417Y028838D01*
X0443Y028854D01*
D02*
G37*
G36*
X043Y028728D02*
X042889Y028714D01*
X042786Y028671D01*
X042697Y028603D01*
X042629Y028514D01*
X042586Y028411D01*
X042572Y0283D01*
X042586Y028189D01*
X042629Y028086D01*
X042697Y027997D01*
X042786Y027929D01*
X042889Y027886D01*
X043Y027872D01*
X043111Y027886D01*
X043214Y027929D01*
X043303Y027997D01*
X043371Y028086D01*
X043414Y028189D01*
X043428Y0283D01*
X043414Y028411D01*
X043371Y028514D01*
X043303Y028603D01*
X043214Y028671D01*
X043111Y028714D01*
X043Y028728D01*
D02*
G37*
G36*
X0261Y028399D02*
X026023Y028389D01*
X02595Y028359D01*
X025888Y028312D01*
X025841Y02825D01*
X025811Y028177D01*
X025801Y0281D01*
X025811Y028023D01*
X025841Y02795D01*
X025888Y027888D01*
X02595Y027841D01*
X026023Y027811D01*
X0261Y027801D01*
X026177Y027811D01*
X02625Y027841D01*
X026312Y027888D01*
X026359Y02795D01*
X026389Y028023D01*
X026399Y0281D01*
X026389Y028177D01*
X026359Y02825D01*
X026312Y028312D01*
X02625Y028359D01*
X026177Y028389D01*
X0261Y028399D01*
D02*
G37*
G36*
X01575D02*
X015673Y028389D01*
X0156Y028359D01*
X015538Y028312D01*
X015491Y02825D01*
X015461Y028177D01*
X015451Y0281D01*
X015461Y028023D01*
X015491Y02795D01*
X015538Y027888D01*
X0156Y027841D01*
X015673Y027811D01*
X01575Y027801D01*
X015827Y027811D01*
X0159Y027841D01*
X015962Y027888D01*
X016009Y02795D01*
X016039Y028023D01*
X016049Y0281D01*
X016039Y028177D01*
X016009Y02825D01*
X015962Y028312D01*
X0159Y028359D01*
X015827Y028389D01*
X01575Y028399D01*
D02*
G37*
G36*
X050832Y028698D02*
X050703Y028681D01*
X050583Y028631D01*
X05048Y028552D01*
X050401Y028449D01*
X050351Y028329D01*
X050334Y0282D01*
X050351Y028071D01*
X050401Y027951D01*
X05048Y027848D01*
X050583Y027769D01*
X050703Y027719D01*
X050832Y027702D01*
X050961Y027719D01*
X051081Y027769D01*
X051184Y027848D01*
X051264Y027951D01*
X051313Y028071D01*
X05133Y0282D01*
X051313Y028329D01*
X051264Y028449D01*
X051184Y028552D01*
X051081Y028631D01*
X050961Y028681D01*
X050832Y028698D01*
D02*
G37*
G36*
X048076D02*
X047948Y028681D01*
X047827Y028631D01*
X047724Y028552D01*
X047645Y028449D01*
X047595Y028329D01*
X047578Y0282D01*
X047595Y028071D01*
X047645Y027951D01*
X047724Y027848D01*
X047827Y027769D01*
X047948Y027719D01*
X048076Y027702D01*
X048205Y027719D01*
X048325Y027769D01*
X048428Y027848D01*
X048508Y027951D01*
X048557Y028071D01*
X048574Y0282D01*
X048557Y028329D01*
X048508Y028449D01*
X048428Y028552D01*
X048325Y028631D01*
X048205Y028681D01*
X048076Y028698D01*
D02*
G37*
G36*
X03165Y027753D02*
X031559Y027741D01*
X031473Y027706D01*
X0314Y02765D01*
X031344Y027577D01*
X031309Y027491D01*
X031297Y0274D01*
X031309Y027309D01*
X031344Y027223D01*
X0314Y02715D01*
X031473Y027094D01*
X031559Y027059D01*
X03165Y027047D01*
X031741Y027059D01*
X031827Y027094D01*
X0319Y02715D01*
X031956Y027223D01*
X031991Y027309D01*
X032003Y0274D01*
X031991Y027491D01*
X031956Y027577D01*
X0319Y02765D01*
X031827Y027706D01*
X031741Y027741D01*
X03165Y027753D01*
D02*
G37*
G36*
X0419Y027103D02*
X041809Y027091D01*
X041723Y027056D01*
X04165Y027D01*
X041577Y027056D01*
X041491Y027091D01*
X0414Y027103D01*
X041309Y027091D01*
X041223Y027056D01*
X04115Y027D01*
X041094Y026927D01*
X041059Y026841D01*
X041047Y02675D01*
X041059Y026659D01*
X041094Y026573D01*
X041127Y026531D01*
X041141Y02645D01*
X041127Y026369D01*
X041094Y026327D01*
X041059Y026241D01*
X041047Y02615D01*
X041059Y026059D01*
X041094Y025973D01*
X04115Y0259D01*
X041223Y025844D01*
X041309Y025809D01*
X0414Y025797D01*
X041491Y025809D01*
X041577Y025844D01*
X04165Y0259D01*
X041723Y025844D01*
X041809Y025809D01*
X0419Y025797D01*
X041991Y025809D01*
X042077Y025844D01*
X04215Y0259D01*
X042206Y025973D01*
X042241Y026059D01*
X042253Y02615D01*
X042241Y026241D01*
X042206Y026327D01*
X042173Y026369D01*
X042159Y02645D01*
X042173Y026531D01*
X042206Y026573D01*
X042241Y026659D01*
X042253Y02675D01*
X042241Y026841D01*
X042206Y026927D01*
X04215Y027D01*
X042077Y027056D01*
X041991Y027091D01*
X0419Y027103D01*
D02*
G37*
G36*
X0199Y027449D02*
X019823Y027439D01*
X01975Y027409D01*
X019688Y027362D01*
X019641Y0273D01*
X019611Y027227D01*
X019601Y02715D01*
X019611Y027073D01*
X019641Y027D01*
X019688Y026938D01*
X01975Y026891D01*
X019823Y026861D01*
X0199Y026851D01*
X019977Y026861D01*
X02005Y026891D01*
X020112Y026938D01*
X020159Y027D01*
X020189Y027073D01*
X020199Y02715D01*
X020189Y027227D01*
X020159Y0273D01*
X020112Y027362D01*
X02005Y027409D01*
X019977Y027439D01*
X0199Y027449D01*
D02*
G37*
G36*
X0158D02*
X015723Y027439D01*
X01565Y027409D01*
X015588Y027362D01*
X015541Y0273D01*
X015511Y027227D01*
X015501Y02715D01*
X015511Y027073D01*
X015541Y027D01*
X015588Y026938D01*
X01565Y026891D01*
X015723Y026861D01*
X0158Y026851D01*
X015877Y026861D01*
X01595Y026891D01*
X016012Y026938D01*
X016059Y027D01*
X016089Y027073D01*
X016099Y02715D01*
X016089Y027227D01*
X016059Y0273D01*
X016012Y027362D01*
X01595Y027409D01*
X015877Y027439D01*
X0158Y027449D01*
D02*
G37*
G36*
X01145Y026899D02*
X011373Y026889D01*
X0113Y026859D01*
X011238Y026812D01*
X011191Y02675D01*
X011161Y026677D01*
X011151Y0266D01*
X011161Y026523D01*
X011191Y02645D01*
X011238Y026388D01*
X0113Y026341D01*
X011373Y026311D01*
X01145Y026301D01*
X011527Y026311D01*
X0116Y026341D01*
X011662Y026388D01*
X011709Y02645D01*
X011739Y026523D01*
X011749Y0266D01*
X011739Y026677D01*
X011709Y02675D01*
X011662Y026812D01*
X0116Y026859D01*
X011527Y026889D01*
X01145Y026899D01*
D02*
G37*
G36*
X01845Y026349D02*
X018373Y026339D01*
X0183Y026309D01*
X018238Y026262D01*
X018191Y0262D01*
X018161Y026127D01*
X018151Y02605D01*
X018161Y025973D01*
X018191Y0259D01*
X018238Y025838D01*
X0183Y025791D01*
X018373Y025761D01*
X01845Y025751D01*
X018527Y025761D01*
X0186Y025791D01*
X018662Y025838D01*
X018709Y0259D01*
X018739Y025973D01*
X018749Y02605D01*
X018739Y026127D01*
X018709Y0262D01*
X018662Y026262D01*
X0186Y026309D01*
X018527Y026339D01*
X01845Y026349D01*
D02*
G37*
G36*
X01745D02*
X017373Y026339D01*
X0173Y026309D01*
X017238Y026262D01*
X017191Y0262D01*
X017161Y026127D01*
X017151Y02605D01*
X017161Y025973D01*
X017191Y0259D01*
X017238Y025838D01*
X0173Y025791D01*
X017373Y025761D01*
X01745Y025751D01*
X017527Y025761D01*
X0176Y025791D01*
X017662Y025838D01*
X017709Y0259D01*
X017739Y025973D01*
X017749Y02605D01*
X017739Y026127D01*
X017709Y0262D01*
X017662Y026262D01*
X0176Y026309D01*
X017527Y026339D01*
X01745Y026349D01*
D02*
G37*
G36*
X01465D02*
X014573Y026339D01*
X0145Y026309D01*
X014438Y026262D01*
X014391Y0262D01*
X014361Y026127D01*
X014351Y02605D01*
X014361Y025973D01*
X014391Y0259D01*
X014438Y025838D01*
X0145Y025791D01*
X014573Y025761D01*
X01465Y025751D01*
X014727Y025761D01*
X0148Y025791D01*
X014862Y025838D01*
X014909Y0259D01*
X014939Y025973D01*
X014949Y02605D01*
X014939Y026127D01*
X014909Y0262D01*
X014862Y026262D01*
X0148Y026309D01*
X014727Y026339D01*
X01465Y026349D01*
D02*
G37*
G36*
X0365Y026253D02*
X036409Y026241D01*
X036323Y026206D01*
X03625Y02615D01*
X036194Y026077D01*
X036159Y025991D01*
X036147Y0259D01*
X036159Y025809D01*
X036194Y025723D01*
X03625Y02565D01*
X036323Y025594D01*
X036409Y025559D01*
X0365Y025547D01*
X036591Y025559D01*
X036677Y025594D01*
X03675Y02565D01*
X036806Y025723D01*
X036841Y025809D01*
X036853Y0259D01*
X036841Y025991D01*
X036806Y026077D01*
X03675Y02615D01*
X036677Y026206D01*
X036591Y026241D01*
X0365Y026253D01*
D02*
G37*
G36*
X02275Y026049D02*
X022673Y026039D01*
X0226Y026009D01*
X022538Y025962D01*
X022491Y0259D01*
X022461Y025827D01*
X022451Y02575D01*
X022461Y025673D01*
X022491Y0256D01*
X022538Y025538D01*
X0226Y025491D01*
X022673Y025461D01*
X02275Y025451D01*
X022827Y025461D01*
X0229Y025491D01*
X022962Y025538D01*
X023009Y0256D01*
X023039Y025673D01*
X023049Y02575D01*
X023039Y025827D01*
X023009Y0259D01*
X022962Y025962D01*
X0229Y026009D01*
X022827Y026039D01*
X02275Y026049D01*
D02*
G37*
G36*
X0165Y025949D02*
X016423Y025939D01*
X01635Y025909D01*
X016288Y025862D01*
X016241Y0258D01*
X016211Y025727D01*
X016201Y02565D01*
X016211Y025573D01*
X016241Y0255D01*
X016288Y025438D01*
X01635Y025391D01*
X016423Y025361D01*
X0165Y025351D01*
X016577Y025361D01*
X01665Y025391D01*
X016712Y025438D01*
X016759Y0255D01*
X016789Y025573D01*
X016799Y02565D01*
X016789Y025727D01*
X016759Y0258D01*
X016712Y025862D01*
X01665Y025909D01*
X016577Y025939D01*
X0165Y025949D01*
D02*
G37*
G36*
X0152Y025849D02*
X015123Y025839D01*
X01505Y025809D01*
X014988Y025762D01*
X014941Y0257D01*
X014911Y025627D01*
X014901Y02555D01*
X014911Y025473D01*
X014941Y0254D01*
X014988Y025338D01*
X01505Y025291D01*
X015123Y025261D01*
X0152Y025251D01*
X015277Y025261D01*
X01535Y025291D01*
X015412Y025338D01*
X015459Y0254D01*
X015489Y025473D01*
X015499Y02555D01*
X015489Y025627D01*
X015459Y0257D01*
X015412Y025762D01*
X01535Y025809D01*
X015277Y025839D01*
X0152Y025849D01*
D02*
G37*
G36*
X03335Y025753D02*
X033259Y025741D01*
X033173Y025706D01*
X0331Y02565D01*
X033044Y025577D01*
X033009Y025491D01*
X032997Y0254D01*
X033009Y025309D01*
X033044Y025223D01*
X0331Y02515D01*
X033173Y025094D01*
X033259Y025059D01*
X03335Y025047D01*
X033441Y025059D01*
X033527Y025094D01*
X0336Y02515D01*
X033656Y025223D01*
X033691Y025309D01*
X033703Y0254D01*
X033691Y025491D01*
X033656Y025577D01*
X0336Y02565D01*
X033527Y025706D01*
X033441Y025741D01*
X03335Y025753D01*
D02*
G37*
G36*
X0261Y025299D02*
X026023Y025289D01*
X02595Y025259D01*
X025888Y025212D01*
X025841Y02515D01*
X025811Y025077D01*
X025801Y025D01*
X025811Y024923D01*
X025841Y02485D01*
X025888Y024788D01*
X02595Y024741D01*
X026023Y024711D01*
X0261Y024701D01*
X026177Y024711D01*
X02625Y024741D01*
X026312Y024788D01*
X026359Y02485D01*
X026389Y024923D01*
X026399Y025D01*
X026389Y025077D01*
X026359Y02515D01*
X026312Y025212D01*
X02625Y025259D01*
X026177Y025289D01*
X0261Y025299D01*
D02*
G37*
G36*
X030639Y031186D02*
X029635D01*
X029562Y031172D01*
X029499Y03113D01*
X029458Y031068D01*
X029443Y030994D01*
Y030817D01*
X029458Y030743D01*
X029499Y030681D01*
Y03063D01*
X029458Y030568D01*
X029443Y030494D01*
Y030317D01*
X029458Y030243D01*
X029499Y030181D01*
Y03013D01*
X029458Y030068D01*
X029443Y029994D01*
Y029817D01*
X029458Y029743D01*
X029499Y029681D01*
Y02963D01*
X029458Y029568D01*
X029443Y029494D01*
Y029317D01*
X029458Y029243D01*
X029499Y029181D01*
Y02913D01*
X029458Y029068D01*
X029443Y028994D01*
Y028817D01*
X029458Y028743D01*
X029499Y028681D01*
Y02863D01*
X029458Y028568D01*
X029443Y028494D01*
Y028317D01*
X029458Y028243D01*
X029499Y028181D01*
Y02813D01*
X029458Y028068D01*
X029443Y027994D01*
Y027817D01*
X029458Y027743D01*
X029499Y027681D01*
Y02763D01*
X029458Y027568D01*
X029443Y027494D01*
Y027317D01*
X029458Y027243D01*
X029499Y027181D01*
Y02713D01*
X029458Y027068D01*
X029443Y026994D01*
Y026817D01*
X029458Y026743D01*
X029499Y026681D01*
Y02663D01*
X029458Y026568D01*
X029443Y026494D01*
Y026317D01*
X029458Y026243D01*
X029499Y026181D01*
Y02613D01*
X029458Y026068D01*
X029443Y025994D01*
Y025817D01*
X029458Y025743D01*
X029499Y025681D01*
Y02563D01*
X029458Y025568D01*
X029443Y025494D01*
Y025317D01*
X029458Y025243D01*
X029499Y025181D01*
Y02513D01*
X029458Y025068D01*
X029443Y024994D01*
Y024817D01*
X029458Y024743D01*
X029499Y024681D01*
X029562Y024639D01*
X029635Y024625D01*
X030639D01*
X030713Y024639D01*
X030775Y024681D01*
X030817Y024743D01*
X030832Y024817D01*
Y024994D01*
X030817Y025068D01*
X030775Y02513D01*
Y025181D01*
X030817Y025243D01*
X030832Y025317D01*
Y025494D01*
X030817Y025568D01*
X030775Y02563D01*
Y025681D01*
X030817Y025743D01*
X030832Y025817D01*
Y025994D01*
X030817Y026068D01*
X030775Y02613D01*
Y026181D01*
X030817Y026243D01*
X030832Y026317D01*
Y026494D01*
X030817Y026568D01*
X030775Y02663D01*
Y026681D01*
X030817Y026743D01*
X030832Y026817D01*
Y026994D01*
X030817Y027068D01*
X030775Y02713D01*
Y027181D01*
X030817Y027243D01*
X030832Y027317D01*
Y027494D01*
X030817Y027568D01*
X030775Y02763D01*
Y027681D01*
X030817Y027743D01*
X030832Y027817D01*
Y027994D01*
X030817Y028068D01*
X030775Y02813D01*
Y028181D01*
X030817Y028243D01*
X030832Y028317D01*
Y028494D01*
X030817Y028568D01*
X030775Y02863D01*
Y028681D01*
X030817Y028743D01*
X030832Y028817D01*
Y028994D01*
X030817Y029068D01*
X030775Y02913D01*
Y029181D01*
X030817Y029243D01*
X030832Y029317D01*
Y029494D01*
X030817Y029568D01*
X030775Y02963D01*
Y029681D01*
X030817Y029743D01*
X030832Y029817D01*
Y029994D01*
X030817Y030068D01*
X030775Y03013D01*
Y030181D01*
X030817Y030243D01*
X030832Y030317D01*
Y030494D01*
X030817Y030568D01*
X030775Y03063D01*
Y030681D01*
X030817Y030743D01*
X030832Y030817D01*
Y030994D01*
X030817Y031068D01*
X030775Y03113D01*
X030713Y031172D01*
X030639Y031186D01*
D02*
G37*
G36*
X013226Y024975D02*
X013148Y024965D01*
X013076Y024935D01*
X013014Y024888D01*
X012967Y024826D01*
X012937Y024753D01*
X012927Y024676D01*
X012937Y024598D01*
X012967Y024526D01*
X013014Y024464D01*
X013076Y024417D01*
X013148Y024387D01*
X013226Y024377D01*
X013303Y024387D01*
X013376Y024417D01*
X013438Y024464D01*
X013485Y024526D01*
X013515Y024598D01*
X013525Y024676D01*
X013515Y024753D01*
X013485Y024826D01*
X013438Y024888D01*
X013376Y024935D01*
X013303Y024965D01*
X013226Y024975D01*
D02*
G37*
G36*
X01445Y024949D02*
X014373Y024939D01*
X0143Y024909D01*
X014238Y024862D01*
X014191Y0248D01*
X014161Y024727D01*
X014151Y02465D01*
X014161Y024573D01*
X014191Y0245D01*
X014238Y024438D01*
X0143Y024391D01*
X014373Y024361D01*
X01445Y024351D01*
X014527Y024361D01*
X0146Y024391D01*
X014662Y024438D01*
X014709Y0245D01*
X014739Y024573D01*
X014749Y02465D01*
X014739Y024727D01*
X014709Y0248D01*
X014662Y024862D01*
X0146Y024909D01*
X014527Y024939D01*
X01445Y024949D01*
D02*
G37*
G36*
X04585Y024749D02*
X045773Y024739D01*
X0457Y024709D01*
X045638Y024662D01*
X045591Y0246D01*
X045561Y024527D01*
X045551Y02445D01*
X045561Y024373D01*
X045591Y0243D01*
X045638Y024238D01*
X0457Y024191D01*
X045773Y024161D01*
X04585Y024151D01*
X045927Y024161D01*
X046Y024191D01*
X046062Y024238D01*
X046109Y0243D01*
X046139Y024373D01*
X046149Y02445D01*
X046139Y024527D01*
X046109Y0246D01*
X046062Y024662D01*
X046Y024709D01*
X045927Y024739D01*
X04585Y024749D01*
D02*
G37*
G36*
X017444Y024705D02*
X017367Y024695D01*
X017294Y024665D01*
X017232Y024618D01*
X017185Y024556D01*
X017155Y024483D01*
X017145Y024406D01*
X017155Y024328D01*
X017185Y024256D01*
X017232Y024194D01*
X017294Y024147D01*
X017367Y024117D01*
X017444Y024106D01*
X017522Y024117D01*
X017594Y024147D01*
X017656Y024194D01*
X017703Y024256D01*
X017733Y024328D01*
X017744Y024406D01*
X017733Y024483D01*
X017703Y024556D01*
X017656Y024618D01*
X017594Y024665D01*
X017522Y024695D01*
X017444Y024705D01*
D02*
G37*
G36*
X03395Y024399D02*
X033873Y024389D01*
X0338Y024359D01*
X033738Y024312D01*
X033691Y02425D01*
X033661Y024177D01*
X033651Y0241D01*
X033661Y024023D01*
X033691Y02395D01*
X033738Y023888D01*
X0338Y023841D01*
X033873Y023811D01*
X03395Y023801D01*
X034027Y023811D01*
X0341Y023841D01*
X034162Y023888D01*
X034209Y02395D01*
X034239Y024023D01*
X034249Y0241D01*
X034239Y024177D01*
X034209Y02425D01*
X034162Y024312D01*
X0341Y024359D01*
X034027Y024389D01*
X03395Y024399D01*
D02*
G37*
G36*
X01925Y024349D02*
X019173Y024339D01*
X0191Y024309D01*
X019038Y024262D01*
X018991Y0242D01*
X018961Y024127D01*
X018951Y02405D01*
X018961Y023973D01*
X018991Y0239D01*
X019038Y023838D01*
X0191Y023791D01*
X019173Y023761D01*
X01925Y023751D01*
X019327Y023761D01*
X0194Y023791D01*
X019462Y023838D01*
X019509Y0239D01*
X019539Y023973D01*
X019549Y02405D01*
X019539Y024127D01*
X019509Y0242D01*
X019462Y024262D01*
X0194Y024309D01*
X019327Y024339D01*
X01925Y024349D01*
D02*
G37*
G36*
X02565Y024303D02*
X025559Y024291D01*
X025473Y024256D01*
X0254Y0242D01*
X025344Y024127D01*
X025309Y024041D01*
X025297Y02395D01*
X025309Y023859D01*
X025344Y023773D01*
X0254Y0237D01*
X025473Y023644D01*
X025559Y023609D01*
X02565Y023597D01*
X025741Y023609D01*
X025827Y023644D01*
X0259Y0237D01*
X025956Y023773D01*
X025991Y023859D01*
X026003Y02395D01*
X025991Y024041D01*
X025956Y024127D01*
X0259Y0242D01*
X025827Y024256D01*
X025741Y024291D01*
X02565Y024303D01*
D02*
G37*
G36*
X01615Y023949D02*
X016073Y023939D01*
X016Y023909D01*
X015938Y023862D01*
X015891Y0238D01*
X015861Y023727D01*
X015851Y02365D01*
X015861Y023573D01*
X015891Y0235D01*
X015938Y023438D01*
X016Y023391D01*
X016073Y023361D01*
X01615Y023351D01*
X016227Y023361D01*
X0163Y023391D01*
X016362Y023438D01*
X016409Y0235D01*
X016439Y023573D01*
X016449Y02365D01*
X016439Y023727D01*
X016409Y0238D01*
X016362Y023862D01*
X0163Y023909D01*
X016227Y023939D01*
X01615Y023949D01*
D02*
G37*
G36*
X0149Y023849D02*
X014823Y023839D01*
X01475Y023809D01*
X014688Y023762D01*
X014641Y0237D01*
X014611Y023627D01*
X014601Y02355D01*
X014611Y023473D01*
X014641Y0234D01*
X014688Y023338D01*
X01475Y023291D01*
X014823Y023261D01*
X0149Y023251D01*
X014977Y023261D01*
X01505Y023291D01*
X015112Y023338D01*
X015159Y0234D01*
X015189Y023473D01*
X015199Y02355D01*
X015189Y023627D01*
X015159Y0237D01*
X015112Y023762D01*
X01505Y023809D01*
X014977Y023839D01*
X0149Y023849D01*
D02*
G37*
G36*
X01145D02*
X011373Y023839D01*
X0113Y023809D01*
X011238Y023762D01*
X011191Y0237D01*
X011161Y023627D01*
X011151Y02355D01*
X011161Y023473D01*
X011191Y0234D01*
X011238Y023338D01*
X0113Y023291D01*
X011373Y023261D01*
X01145Y023251D01*
X011527Y023261D01*
X0116Y023291D01*
X011662Y023338D01*
X011709Y0234D01*
X011739Y023473D01*
X011749Y02355D01*
X011739Y023627D01*
X011709Y0237D01*
X011662Y023762D01*
X0116Y023809D01*
X011527Y023839D01*
X01145Y023849D01*
D02*
G37*
G36*
X0184Y0234D02*
X01735D01*
Y0232D01*
X0184Y0232D01*
Y0234D01*
D02*
G37*
G36*
X04835Y022604D02*
X048233Y022588D01*
X048123Y022543D01*
X048029Y022471D01*
X047957Y022377D01*
X047912Y022267D01*
X047896Y02215D01*
X047912Y022033D01*
X047957Y021923D01*
X048029Y021829D01*
X048123Y021757D01*
X048233Y021712D01*
X04835Y021696D01*
X048467Y021712D01*
X048577Y021757D01*
X048671Y021829D01*
X048743Y021923D01*
X048788Y022033D01*
X048804Y02215D01*
X048788Y022267D01*
X048743Y022377D01*
X048671Y022471D01*
X048577Y022543D01*
X048467Y022588D01*
X04835Y022604D01*
D02*
G37*
G36*
X04635D02*
X046233Y022588D01*
X046123Y022543D01*
X046029Y022471D01*
X045957Y022377D01*
X045912Y022267D01*
X045896Y02215D01*
X045912Y022033D01*
X045957Y021923D01*
X046029Y021829D01*
X046123Y021757D01*
X046233Y021712D01*
X04635Y021696D01*
X046467Y021712D01*
X046577Y021757D01*
X046671Y021829D01*
X046743Y021923D01*
X046788Y022033D01*
X046804Y02215D01*
X046788Y022267D01*
X046743Y022377D01*
X046671Y022471D01*
X046577Y022543D01*
X046467Y022588D01*
X04635Y022604D01*
D02*
G37*
G36*
X01945Y022243D02*
X019373Y022233D01*
X0193Y022203D01*
X019238Y022155D01*
X019191Y022093D01*
X019161Y022021D01*
X019151Y021944D01*
X019161Y021866D01*
X019191Y021794D01*
X019238Y021732D01*
X0193Y021684D01*
X019373Y021654D01*
X01945Y021644D01*
X019527Y021654D01*
X0196Y021684D01*
X019662Y021732D01*
X019709Y021794D01*
X019739Y021866D01*
X019749Y021944D01*
X019739Y022021D01*
X019709Y022093D01*
X019662Y022155D01*
X0196Y022203D01*
X019527Y022233D01*
X01945Y022243D01*
D02*
G37*
G36*
X0526Y022504D02*
X052483Y022488D01*
X052373Y022443D01*
X052279Y022371D01*
X052207Y022277D01*
X052162Y022167D01*
X052146Y02205D01*
X052162Y021933D01*
X052207Y021823D01*
X052279Y021729D01*
X052373Y021657D01*
X052483Y021612D01*
X0526Y021596D01*
X052717Y021612D01*
X052827Y021657D01*
X052921Y021729D01*
X052993Y021823D01*
X053038Y021933D01*
X053054Y02205D01*
X053038Y022167D01*
X052993Y022277D01*
X052921Y022371D01*
X052827Y022443D01*
X052717Y022488D01*
X0526Y022504D01*
D02*
G37*
G36*
X0506D02*
X050483Y022488D01*
X050373Y022443D01*
X050279Y022371D01*
X050207Y022277D01*
X050162Y022167D01*
X050146Y02205D01*
X050162Y021933D01*
X050207Y021823D01*
X050279Y021729D01*
X050373Y021657D01*
X050483Y021612D01*
X0506Y021596D01*
X050717Y021612D01*
X050827Y021657D01*
X050921Y021729D01*
X050993Y021823D01*
X051038Y021933D01*
X051054Y02205D01*
X051038Y022167D01*
X050993Y022277D01*
X050921Y022371D01*
X050827Y022443D01*
X050717Y022488D01*
X0506Y022504D01*
D02*
G37*
G36*
X0296Y021749D02*
X029523Y021739D01*
X02945Y021709D01*
X029388Y021662D01*
X029341Y0216D01*
X029311Y021527D01*
X029301Y02145D01*
X029311Y021373D01*
X029341Y0213D01*
X029388Y021238D01*
X02945Y021191D01*
X029523Y021161D01*
X0296Y021151D01*
X029677Y021161D01*
X02975Y021191D01*
X029812Y021238D01*
X029859Y0213D01*
X029889Y021373D01*
X029899Y02145D01*
X029889Y021527D01*
X029859Y0216D01*
X029812Y021662D01*
X02975Y021709D01*
X029677Y021739D01*
X0296Y021749D01*
D02*
G37*
G36*
X01695Y021649D02*
X016873Y021639D01*
X0168Y021609D01*
X016738Y021562D01*
X016691Y0215D01*
X016661Y021427D01*
X016651Y02135D01*
X016661Y021273D01*
X016691Y0212D01*
X016738Y021138D01*
X0168Y021091D01*
X016873Y021061D01*
X01695Y021051D01*
X017027Y021061D01*
X0171Y021091D01*
X017162Y021138D01*
X017209Y0212D01*
X017239Y021273D01*
X017249Y02135D01*
X017239Y021427D01*
X017209Y0215D01*
X017162Y021562D01*
X0171Y021609D01*
X017027Y021639D01*
X01695Y021649D01*
D02*
G37*
G36*
X0301Y021099D02*
X030023Y021089D01*
X02995Y021059D01*
X029888Y021012D01*
X029841Y02095D01*
X029811Y020877D01*
X029801Y0208D01*
X029811Y020723D01*
X029841Y02065D01*
X029888Y020588D01*
X02995Y020541D01*
X030023Y020511D01*
X0301Y020501D01*
X030177Y020511D01*
X03025Y020541D01*
X030312Y020588D01*
X030359Y02065D01*
X030389Y020723D01*
X030399Y0208D01*
X030389Y020877D01*
X030359Y02095D01*
X030312Y021012D01*
X03025Y021059D01*
X030177Y021089D01*
X0301Y021099D01*
D02*
G37*
G36*
X02565Y021153D02*
X025559Y021141D01*
X025473Y021106D01*
X0254Y02105D01*
X025344Y020977D01*
X025309Y020891D01*
X025297Y0208D01*
X025309Y020709D01*
X025344Y020623D01*
X0254Y02055D01*
X025473Y020494D01*
X025559Y020459D01*
X02565Y020447D01*
X025741Y020459D01*
X025827Y020494D01*
X0259Y02055D01*
X025956Y020623D01*
X025991Y020709D01*
X026003Y0208D01*
X025991Y020891D01*
X025956Y020977D01*
X0259Y02105D01*
X025827Y021106D01*
X025741Y021141D01*
X02565Y021153D01*
D02*
G37*
G36*
X02245Y021103D02*
X022359Y021091D01*
X022273Y021056D01*
X0222Y021D01*
X022144Y020927D01*
X022109Y020841D01*
X022097Y02075D01*
X022109Y020659D01*
X022144Y020573D01*
X0222Y0205D01*
X022273Y020444D01*
X022359Y020409D01*
X02245Y020397D01*
X022541Y020409D01*
X022627Y020444D01*
X0227Y0205D01*
X022756Y020573D01*
X022791Y020659D01*
X022803Y02075D01*
X022791Y020841D01*
X022756Y020927D01*
X0227Y021D01*
X022627Y021056D01*
X022541Y021091D01*
X02245Y021103D01*
D02*
G37*
G36*
X045025Y021175D02*
X044075D01*
Y020225D01*
X045025D01*
Y021175D01*
D02*
G37*
G36*
X0403Y025249D02*
X040223Y025239D01*
X04015Y025209D01*
X040088Y025162D01*
X040041Y0251D01*
X040011Y025027D01*
X040001Y02495D01*
X040011Y024873D01*
X040041Y0248D01*
X040088Y024738D01*
X040092Y024736D01*
X040104Y024723D01*
X040115Y02471D01*
X040124Y024698D01*
X040132Y024687D01*
X040138Y024677D01*
X040142Y024668D01*
X040145Y02466D01*
X040147Y024653D01*
X040147Y02465D01*
Y023363D01*
X039837Y023053D01*
X03375D01*
X033691Y023041D01*
X033642Y023008D01*
X033242Y022608D01*
X033209Y022559D01*
X033197Y0225D01*
Y020887D01*
X033196Y020881D01*
X033193Y020871D01*
X033188Y020859D01*
X03318Y020845D01*
X03317Y020829D01*
X033159Y020813D01*
X033124Y020772D01*
X033107Y020754D01*
X0331Y02075D01*
X033044Y020677D01*
X033009Y020591D01*
X032997Y0205D01*
X033009Y020409D01*
X033044Y020323D01*
X0331Y02025D01*
X033173Y020194D01*
X033259Y020159D01*
X03335Y020147D01*
X033441Y020159D01*
X033527Y020194D01*
X0336Y02025D01*
X033656Y020323D01*
X033691Y020409D01*
X033703Y0205D01*
X033691Y020591D01*
X033656Y020677D01*
X0336Y02075D01*
X033594Y020754D01*
X033557Y020794D01*
X033542Y020812D01*
X03353Y020829D01*
X03352Y020845D01*
X033512Y020859D01*
X033507Y020871D01*
X033504Y020881D01*
X033503Y020887D01*
Y022437D01*
X033813Y022747D01*
X0399D01*
X039959Y022759D01*
X040008Y022792D01*
X040408Y023192D01*
X040441Y023241D01*
X040453Y0233D01*
Y02465D01*
X040453Y024653D01*
X040455Y02466D01*
X040458Y024668D01*
X040462Y024677D01*
X040468Y024687D01*
X040476Y024698D01*
X040485Y02471D01*
X040496Y024723D01*
X040508Y024736D01*
X040512Y024738D01*
X040559Y0248D01*
X040589Y024873D01*
X040599Y02495D01*
X040589Y025027D01*
X040559Y0251D01*
X040512Y025162D01*
X04045Y025209D01*
X040377Y025239D01*
X0403Y025249D01*
D02*
G37*
G36*
X074257Y020916D02*
X074129Y0209D01*
X074008Y02085D01*
X073905Y020771D01*
X073826Y020667D01*
X073776Y020547D01*
X07376Y020419D01*
X073776Y02029D01*
X073826Y02017D01*
X073905Y020066D01*
X074008Y019987D01*
X074129Y019938D01*
X074257Y019921D01*
X074386Y019938D01*
X074506Y019987D01*
X07461Y020066D01*
X074689Y02017D01*
X074738Y02029D01*
X074755Y020419D01*
X074738Y020547D01*
X074689Y020667D01*
X07461Y020771D01*
X074506Y02085D01*
X074386Y0209D01*
X074257Y020916D01*
D02*
G37*
G36*
X071502D02*
X071373Y0209D01*
X071253Y02085D01*
X071149Y020771D01*
X07107Y020667D01*
X071021Y020547D01*
X071004Y020419D01*
X071021Y02029D01*
X07107Y02017D01*
X071149Y020066D01*
X071253Y019987D01*
X071373Y019938D01*
X071502Y019921D01*
X07163Y019938D01*
X071751Y019987D01*
X071854Y020066D01*
X071933Y02017D01*
X071983Y02029D01*
X072Y020419D01*
X071983Y020547D01*
X071933Y020667D01*
X071854Y020771D01*
X071751Y02085D01*
X07163Y0209D01*
X071502Y020916D01*
D02*
G37*
G36*
X068746D02*
X068617Y0209D01*
X068497Y02085D01*
X068394Y020771D01*
X068314Y020667D01*
X068265Y020547D01*
X068248Y020419D01*
X068265Y02029D01*
X068314Y02017D01*
X068394Y020066D01*
X068497Y019987D01*
X068617Y019938D01*
X068746Y019921D01*
X068875Y019938D01*
X068995Y019987D01*
X069098Y020066D01*
X069177Y02017D01*
X069227Y02029D01*
X069244Y020419D01*
X069227Y020547D01*
X069177Y020667D01*
X069098Y020771D01*
X068995Y02085D01*
X068875Y0209D01*
X068746Y020916D01*
D02*
G37*
G36*
X06599D02*
X065861Y0209D01*
X065741Y02085D01*
X065638Y020771D01*
X065559Y020667D01*
X065509Y020547D01*
X065492Y020419D01*
X065509Y02029D01*
X065559Y02017D01*
X065638Y020066D01*
X065741Y019987D01*
X065861Y019938D01*
X06599Y019921D01*
X066119Y019938D01*
X066239Y019987D01*
X066342Y020066D01*
X066421Y02017D01*
X066471Y02029D01*
X066488Y020419D01*
X066471Y020547D01*
X066421Y020667D01*
X066342Y020771D01*
X066239Y02085D01*
X066119Y0209D01*
X06599Y020916D01*
D02*
G37*
G36*
X060478D02*
X060349Y0209D01*
X060229Y02085D01*
X060126Y020771D01*
X060047Y020667D01*
X059997Y020547D01*
X05998Y020419D01*
X059997Y02029D01*
X060047Y02017D01*
X060126Y020066D01*
X060229Y019987D01*
X060349Y019938D01*
X060478Y019921D01*
X060607Y019938D01*
X060727Y019987D01*
X06083Y020066D01*
X060909Y02017D01*
X060959Y02029D01*
X060976Y020419D01*
X060959Y020547D01*
X060909Y020667D01*
X06083Y020771D01*
X060727Y02085D01*
X060607Y0209D01*
X060478Y020916D01*
D02*
G37*
G36*
X057722D02*
X057593Y0209D01*
X057473Y02085D01*
X05737Y020771D01*
X057291Y020667D01*
X057241Y020547D01*
X057224Y020419D01*
X057241Y02029D01*
X057291Y02017D01*
X05737Y020066D01*
X057473Y019987D01*
X057593Y019938D01*
X057722Y019921D01*
X057851Y019938D01*
X057971Y019987D01*
X058074Y020066D01*
X058153Y02017D01*
X058203Y02029D01*
X05822Y020419D01*
X058203Y020547D01*
X058153Y020667D01*
X058074Y020771D01*
X057971Y02085D01*
X057851Y0209D01*
X057722Y020916D01*
D02*
G37*
G36*
X054966D02*
X054837Y0209D01*
X054717Y02085D01*
X054614Y020771D01*
X054535Y020667D01*
X054485Y020547D01*
X054468Y020419D01*
X054485Y02029D01*
X054535Y02017D01*
X054614Y020066D01*
X054717Y019987D01*
X054837Y019938D01*
X054966Y019921D01*
X055095Y019938D01*
X055215Y019987D01*
X055318Y020066D01*
X055397Y02017D01*
X055447Y02029D01*
X055464Y020419D01*
X055447Y020547D01*
X055397Y020667D01*
X055318Y020771D01*
X055215Y02085D01*
X055095Y0209D01*
X054966Y020916D01*
D02*
G37*
G36*
X049454D02*
X049325Y0209D01*
X049205Y02085D01*
X049102Y020771D01*
X049023Y020667D01*
X048973Y020547D01*
X048956Y020419D01*
X048973Y02029D01*
X049023Y02017D01*
X049102Y020066D01*
X049205Y019987D01*
X049325Y019938D01*
X049454Y019921D01*
X049583Y019938D01*
X049703Y019987D01*
X049806Y020066D01*
X049886Y02017D01*
X049935Y02029D01*
X049952Y020419D01*
X049935Y020547D01*
X049886Y020667D01*
X049806Y020771D01*
X049703Y02085D01*
X049583Y0209D01*
X049454Y020916D01*
D02*
G37*
G36*
X0248Y020203D02*
X024709Y020191D01*
X024623Y020156D01*
X02455Y0201D01*
X024494Y020027D01*
X024459Y019941D01*
X024447Y01985D01*
X024459Y019759D01*
X024494Y019673D01*
X02455Y0196D01*
X024623Y019544D01*
X024709Y019509D01*
X0248Y019497D01*
X024891Y019509D01*
X024977Y019544D01*
X02505Y0196D01*
X025106Y019673D01*
X025141Y019759D01*
X025153Y01985D01*
X025141Y019941D01*
X025106Y020027D01*
X02505Y0201D01*
X024977Y020156D01*
X024891Y020191D01*
X0248Y020203D01*
D02*
G37*
G36*
X02957Y020536D02*
X02898D01*
X028877Y020523D01*
X028781Y020483D01*
X028698Y02042D01*
X028635Y020337D01*
X028595Y020241D01*
X028581Y020138D01*
Y019547D01*
X028595Y019444D01*
X028635Y019348D01*
X028698Y019265D01*
X028781Y019202D01*
X028877Y019162D01*
X02898Y019149D01*
X02957D01*
X029674Y019162D01*
X02977Y019202D01*
X029852Y019265D01*
X029916Y019348D01*
X029956Y019444D01*
X029969Y019547D01*
Y020138D01*
X029956Y020241D01*
X029916Y020337D01*
X029852Y02042D01*
X02977Y020483D01*
X029674Y020523D01*
X02957Y020536D01*
D02*
G37*
G36*
X0144Y019349D02*
X014323Y019339D01*
X01425Y019309D01*
X014188Y019262D01*
X014141Y0192D01*
X014111Y019127D01*
X014101Y01905D01*
X014111Y018973D01*
X014141Y0189D01*
X014188Y018838D01*
X01425Y018791D01*
X014323Y018761D01*
X0144Y018751D01*
X014477Y018761D01*
X01455Y018791D01*
X014612Y018838D01*
X014659Y0189D01*
X014689Y018973D01*
X014699Y01905D01*
X014689Y019127D01*
X014659Y0192D01*
X014612Y019262D01*
X01455Y019309D01*
X014477Y019339D01*
X0144Y019349D01*
D02*
G37*
G36*
X016361Y019338D02*
X016284Y019328D01*
X016212Y019298D01*
X016149Y019251D01*
X016102Y019188D01*
X016072Y019116D01*
X016062Y019039D01*
X016072Y018961D01*
X016102Y018889D01*
X016149Y018827D01*
X016212Y018779D01*
X016284Y01875D01*
X016361Y018739D01*
X016439Y01875D01*
X016511Y018779D01*
X016573Y018827D01*
X016621Y018889D01*
X01665Y018961D01*
X016661Y019039D01*
X01665Y019116D01*
X016621Y019188D01*
X016573Y019251D01*
X016511Y019298D01*
X016439Y019328D01*
X016361Y019338D01*
D02*
G37*
G36*
X04455Y019179D02*
X044426Y019163D01*
X04431Y019115D01*
X044211Y019039D01*
X044135Y01894D01*
X044087Y018824D01*
X044071Y0187D01*
X044087Y018576D01*
X044135Y01846D01*
X044211Y018361D01*
X04431Y018285D01*
X044426Y018237D01*
X04455Y018221D01*
X044674Y018237D01*
X04479Y018285D01*
X044889Y018361D01*
X044965Y01846D01*
X045013Y018576D01*
X045029Y0187D01*
X045013Y018824D01*
X044965Y01894D01*
X044889Y019039D01*
X04479Y019115D01*
X044674Y019163D01*
X04455Y019179D01*
D02*
G37*
G36*
X043575Y021175D02*
X042625D01*
Y020225D01*
X042818D01*
X04285Y020142D01*
X04285Y020107D01*
X042761Y020039D01*
X042685Y01994D01*
X042637Y019824D01*
X042621Y0197D01*
X042637Y019576D01*
X042685Y01946D01*
X042761Y019361D01*
X04286Y019285D01*
X042912Y019264D01*
Y019136D01*
X04286Y019115D01*
X042761Y019039D01*
X042685Y01894D01*
X042637Y018824D01*
X042621Y0187D01*
X042637Y018576D01*
X042685Y01846D01*
X042761Y018361D01*
X04286Y018285D01*
X042976Y018237D01*
X0431Y018221D01*
X043224Y018237D01*
X04334Y018285D01*
X043439Y018361D01*
X043515Y01846D01*
X043563Y018576D01*
X043579Y0187D01*
X043563Y018824D01*
X043515Y01894D01*
X043439Y019039D01*
X04334Y019115D01*
X043288Y019136D01*
Y019264D01*
X04334Y019285D01*
X043439Y019361D01*
X043515Y01946D01*
X043563Y019576D01*
X043579Y0197D01*
X043563Y019824D01*
X043515Y01994D01*
X043439Y020039D01*
X04335Y020107D01*
X04335Y020142D01*
X043382Y020225D01*
X043575D01*
Y021175D01*
D02*
G37*
G36*
X075635Y018948D02*
X075507Y018931D01*
X075386Y018881D01*
X075283Y018802D01*
X075204Y018699D01*
X075154Y018579D01*
X075137Y01845D01*
X075154Y018321D01*
X075204Y018201D01*
X075283Y018098D01*
X075386Y018019D01*
X075507Y017969D01*
X075635Y017952D01*
X075764Y017969D01*
X075884Y018019D01*
X075988Y018098D01*
X076067Y018201D01*
X076116Y018321D01*
X076133Y01845D01*
X076116Y018579D01*
X076067Y018699D01*
X075988Y018802D01*
X075884Y018881D01*
X075764Y018931D01*
X075635Y018948D01*
D02*
G37*
G36*
X061856D02*
X061727Y018931D01*
X061607Y018881D01*
X061504Y018802D01*
X061425Y018699D01*
X061375Y018579D01*
X061358Y01845D01*
X061375Y018321D01*
X061425Y018201D01*
X061504Y018098D01*
X061607Y018019D01*
X061727Y017969D01*
X061856Y017952D01*
X061985Y017969D01*
X062105Y018019D01*
X062208Y018098D01*
X062287Y018201D01*
X062337Y018321D01*
X062354Y01845D01*
X062337Y018579D01*
X062287Y018699D01*
X062208Y018802D01*
X062105Y018881D01*
X061985Y018931D01*
X061856Y018948D01*
D02*
G37*
G36*
X056344D02*
X056215Y018931D01*
X056095Y018881D01*
X055992Y018802D01*
X055913Y018699D01*
X055863Y018579D01*
X055846Y01845D01*
X055863Y018321D01*
X055913Y018201D01*
X055992Y018098D01*
X056095Y018019D01*
X056215Y017969D01*
X056344Y017952D01*
X056473Y017969D01*
X056593Y018019D01*
X056696Y018098D01*
X056775Y018201D01*
X056825Y018321D01*
X056842Y01845D01*
X056825Y018579D01*
X056775Y018699D01*
X056696Y018802D01*
X056593Y018881D01*
X056473Y018931D01*
X056344Y018948D01*
D02*
G37*
G36*
X053588D02*
X053459Y018931D01*
X053339Y018881D01*
X053236Y018802D01*
X053157Y018699D01*
X053107Y018579D01*
X05309Y01845D01*
X053107Y018321D01*
X053157Y018201D01*
X053236Y018098D01*
X053339Y018019D01*
X053459Y017969D01*
X053588Y017952D01*
X053717Y017969D01*
X053837Y018019D01*
X05394Y018098D01*
X054019Y018201D01*
X054069Y018321D01*
X054086Y01845D01*
X054069Y018579D01*
X054019Y018699D01*
X05394Y018802D01*
X053837Y018881D01*
X053717Y018931D01*
X053588Y018948D01*
D02*
G37*
G36*
X048076D02*
X047948Y018931D01*
X047827Y018881D01*
X047724Y018802D01*
X047645Y018699D01*
X047595Y018579D01*
X047578Y01845D01*
X047595Y018321D01*
X047645Y018201D01*
X047724Y018098D01*
X047827Y018019D01*
X047948Y017969D01*
X048076Y017952D01*
X048205Y017969D01*
X048325Y018019D01*
X048428Y018098D01*
X048508Y018201D01*
X048557Y018321D01*
X048574Y01845D01*
X048557Y018579D01*
X048508Y018699D01*
X048428Y018802D01*
X048325Y018881D01*
X048205Y018931D01*
X048076Y018948D01*
D02*
G37*
G36*
X0316Y018553D02*
X031509Y018541D01*
X031423Y018506D01*
X03135Y01845D01*
X031294Y018377D01*
X031259Y018291D01*
X031247Y0182D01*
X031259Y018109D01*
X031294Y018023D01*
X03135Y01795D01*
X031423Y017894D01*
X031509Y017859D01*
X0316Y017847D01*
X031691Y017859D01*
X031777Y017894D01*
X03185Y01795D01*
X031906Y018023D01*
X031941Y018109D01*
X031953Y0182D01*
X031941Y018291D01*
X031906Y018377D01*
X03185Y01845D01*
X031777Y018506D01*
X031691Y018541D01*
X0316Y018553D01*
D02*
G37*
G36*
X01145D02*
X011359Y018541D01*
X011273Y018506D01*
X0112Y01845D01*
X011144Y018377D01*
X011109Y018291D01*
X011097Y0182D01*
X011109Y018109D01*
X011144Y018023D01*
X0112Y01795D01*
X011273Y017894D01*
X011359Y017859D01*
X01145Y017847D01*
X011541Y017859D01*
X011627Y017894D01*
X0117Y01795D01*
X011756Y018023D01*
X011791Y018109D01*
X011803Y0182D01*
X011791Y018291D01*
X011756Y018377D01*
X0117Y01845D01*
X011627Y018506D01*
X011541Y018541D01*
X01145Y018553D01*
D02*
G37*
G36*
X0158Y017949D02*
X015723Y017939D01*
X01565Y017909D01*
X015588Y017862D01*
X015541Y0178D01*
X015511Y017727D01*
X015501Y01765D01*
X015511Y017573D01*
X015541Y0175D01*
X015588Y017438D01*
X01565Y017391D01*
X015723Y017361D01*
X0158Y017351D01*
X015877Y017361D01*
X01595Y017391D01*
X016012Y017438D01*
X016059Y0175D01*
X016089Y017573D01*
X016099Y01765D01*
X016089Y017727D01*
X016059Y0178D01*
X016012Y017862D01*
X01595Y017909D01*
X015877Y017939D01*
X0158Y017949D01*
D02*
G37*
G36*
X029586Y017939D02*
X029447Y017921D01*
X029317Y017867D01*
X029206Y017782D01*
X029121Y01767D01*
X029067Y017541D01*
X029049Y017402D01*
X029067Y017262D01*
X029121Y017133D01*
X029206Y017021D01*
X029317Y016936D01*
X029447Y016882D01*
X029586Y016864D01*
X029725Y016882D01*
X029855Y016936D01*
X029966Y017021D01*
X030052Y017133D01*
X030106Y017262D01*
X030124Y017402D01*
X030106Y017541D01*
X030052Y01767D01*
X029966Y017782D01*
X029855Y017867D01*
X029725Y017921D01*
X029586Y017939D01*
D02*
G37*
G36*
X015Y017599D02*
X014923Y017589D01*
X01485Y017559D01*
X014788Y017512D01*
X014741Y01745D01*
X014711Y017377D01*
X014701Y0173D01*
X014711Y017223D01*
X014741Y01715D01*
X014788Y017088D01*
X01485Y017041D01*
X014923Y017011D01*
X015Y017001D01*
X015101Y0169D01*
X015111Y016823D01*
X015141Y01675D01*
X015188Y016688D01*
X01525Y016641D01*
X015323Y016611D01*
X0154Y016601D01*
X015477Y016611D01*
X01555Y016641D01*
X015612Y016688D01*
X015659Y01675D01*
X015689Y016823D01*
X015699Y0169D01*
X015689Y016977D01*
X015659Y01705D01*
X015612Y017112D01*
X01555Y017159D01*
X015477Y017189D01*
X0154Y017199D01*
X015299Y0173D01*
X015289Y017377D01*
X015259Y01745D01*
X015212Y017512D01*
X01515Y017559D01*
X015077Y017589D01*
X015Y017599D01*
D02*
G37*
G36*
X04145Y016253D02*
X041359Y016241D01*
X041273Y016206D01*
X041231Y016173D01*
X04115Y016159D01*
X041069Y016173D01*
X041027Y016206D01*
X040941Y016241D01*
X04085Y016253D01*
X040759Y016241D01*
X040673Y016206D01*
X0406Y01615D01*
X040599Y016148D01*
X040451D01*
X04045Y01615D01*
X040377Y016206D01*
X040291Y016241D01*
X0402Y016253D01*
X040109Y016241D01*
X040023Y016206D01*
X039981Y016173D01*
X0399Y016159D01*
X039819Y016173D01*
X039777Y016206D01*
X039691Y016241D01*
X0396Y016253D01*
X039509Y016241D01*
X039423Y016206D01*
X03935Y01615D01*
X039294Y016077D01*
X039259Y015991D01*
X039247Y0159D01*
X039259Y015809D01*
X039294Y015723D01*
X03935Y01565D01*
X039423Y015594D01*
X039509Y015559D01*
X0396Y015547D01*
X039691Y015559D01*
X039777Y015594D01*
X039819Y015627D01*
X0399Y015641D01*
X039981Y015627D01*
X040023Y015594D01*
X040109Y015559D01*
X0402Y015547D01*
X040291Y015559D01*
X040377Y015594D01*
X04045Y01565D01*
X040451Y015652D01*
X040599D01*
X0406Y01565D01*
X040673Y015594D01*
X040759Y015559D01*
X04085Y015547D01*
X040941Y015559D01*
X041027Y015594D01*
X041069Y015627D01*
X04115Y015641D01*
X041231Y015627D01*
X041273Y015594D01*
X041359Y015559D01*
X04145Y015547D01*
X041541Y015559D01*
X041627Y015594D01*
X0417Y01565D01*
X041756Y015723D01*
X041791Y015809D01*
X041803Y0159D01*
X041791Y015991D01*
X041756Y016077D01*
X0417Y01615D01*
X041627Y016206D01*
X041541Y016241D01*
X04145Y016253D01*
D02*
G37*
G36*
X0277Y016653D02*
X027609Y016641D01*
X027523Y016606D01*
X02745Y01655D01*
X027394Y016477D01*
X027359Y016391D01*
X027347Y0163D01*
X027359Y016209D01*
X027394Y016123D01*
X02745Y01605D01*
X027523Y015994D01*
X027609Y015959D01*
X0277Y015947D01*
X027791Y015959D01*
X027877Y015994D01*
X02795Y01605D01*
X028006Y016123D01*
X028041Y016209D01*
X028053Y0163D01*
X028041Y016391D01*
X028006Y016477D01*
X02795Y01655D01*
X027877Y016606D01*
X027791Y016641D01*
X0277Y016653D01*
D02*
G37*
G36*
X05221Y020916D02*
X052081Y0209D01*
X051961Y02085D01*
X051858Y020771D01*
X051779Y020667D01*
X051729Y020547D01*
X051712Y020419D01*
X051729Y02029D01*
X051779Y02017D01*
X051858Y020066D01*
X05187Y020057D01*
X051933Y019991D01*
X05196Y019958D01*
X051983Y019927D01*
X052002Y019898D01*
X052017Y019871D01*
X052028Y019847D01*
X052034Y019827D01*
X052038Y019809D01*
Y016332D01*
X051329Y015622D01*
X05092D01*
X050875Y015731D01*
X050954Y015811D01*
X050991Y015866D01*
X051004Y015932D01*
Y017841D01*
X051008Y017858D01*
X051015Y017879D01*
X051026Y017903D01*
X05104Y017929D01*
X051059Y017958D01*
X051082Y017989D01*
X051143Y01806D01*
X051171Y018088D01*
X051184Y018098D01*
X051264Y018201D01*
X051313Y018321D01*
X05133Y01845D01*
X051313Y018579D01*
X051264Y018699D01*
X051184Y018802D01*
X051081Y018881D01*
X050961Y018931D01*
X050832Y018948D01*
X050703Y018931D01*
X050583Y018881D01*
X05048Y018802D01*
X050401Y018699D01*
X050351Y018579D01*
X050334Y01845D01*
X050351Y018321D01*
X050401Y018201D01*
X05048Y018098D01*
X050492Y018089D01*
X050555Y018023D01*
X050582Y01799D01*
X050605Y017958D01*
X050624Y017929D01*
X050639Y017903D01*
X05065Y017879D01*
X050656Y017858D01*
X05066Y017841D01*
Y016004D01*
X050529Y015872D01*
X0493D01*
X049234Y015859D01*
X049178Y015822D01*
X048679Y015322D01*
X037033D01*
X036984Y01544D01*
X037122Y015578D01*
X037159Y015634D01*
X037172Y0157D01*
Y019366D01*
X037172Y019369D01*
X037174Y019378D01*
X037177Y019387D01*
X03718Y019395D01*
X037184Y019403D01*
X037189Y019412D01*
X037194Y01942D01*
X037201Y019428D01*
X037209Y019436D01*
X037212Y019438D01*
X037259Y0195D01*
X037289Y019573D01*
X037299Y01965D01*
X037289Y019727D01*
X037259Y0198D01*
X037212Y019862D01*
X03715Y019909D01*
X037077Y019939D01*
X037Y019949D01*
X036923Y019939D01*
X03685Y019909D01*
X036788Y019862D01*
X036741Y0198D01*
X036711Y019727D01*
X036701Y01965D01*
X036711Y019573D01*
X036741Y0195D01*
X036788Y019438D01*
X036791Y019436D01*
X036799Y019428D01*
X036806Y01942D01*
X036811Y019412D01*
X036816Y019403D01*
X03682Y019395D01*
X036823Y019387D01*
X036826Y019378D01*
X036828Y019369D01*
X036828Y019366D01*
Y015771D01*
X036729Y015672D01*
X027248D01*
X027182Y015659D01*
X027126Y015622D01*
X023912Y012408D01*
X023904Y012402D01*
X02389Y012394D01*
X023875Y012387D01*
X023856Y012381D01*
X023835Y012376D01*
X023812Y012371D01*
X023752Y012366D01*
X023727Y012366D01*
X023717Y012367D01*
X023613Y012354D01*
X023517Y012314D01*
X023435Y01225D01*
X023371Y012168D01*
X023331Y012072D01*
X023318Y011968D01*
X023331Y011865D01*
X023371Y011769D01*
X023435Y011687D01*
X023517Y011623D01*
X023613Y011583D01*
X023717Y01157D01*
X02382Y011583D01*
X023916Y011623D01*
X023998Y011687D01*
X024062Y011769D01*
X024102Y011865D01*
X024115Y011968D01*
X024114Y011979D01*
X024114Y012005D01*
X024116Y012035D01*
X024119Y012062D01*
X024124Y012087D01*
X024129Y012108D01*
X024135Y012127D01*
X024142Y012142D01*
X02415Y012156D01*
X024156Y012164D01*
X027319Y015328D01*
X035567D01*
X035616Y01521D01*
X033729Y013323D01*
X033727Y013321D01*
X033719Y013316D01*
X033711Y013311D01*
X033703Y013307D01*
X033694Y013304D01*
X033685Y013302D01*
X033675Y0133D01*
X033665Y013299D01*
X033654Y013299D01*
X03365Y013299D01*
X033573Y013289D01*
X0335Y013259D01*
X033438Y013212D01*
X033391Y01315D01*
X033361Y013077D01*
X033351Y013D01*
X033361Y012923D01*
X033391Y01285D01*
X033438Y012788D01*
X0335Y012741D01*
X033573Y012711D01*
X03365Y012701D01*
X033727Y012711D01*
X0338Y012741D01*
X033867Y012646D01*
X033658Y012437D01*
X033647Y012429D01*
X033633Y012421D01*
X033615Y012414D01*
X033593Y012407D01*
X033569Y012401D01*
X033542Y012397D01*
X033474Y012391D01*
X033445Y012391D01*
X033433Y012392D01*
X033323Y012378D01*
X033221Y012335D01*
X033134Y012268D01*
X033066Y01218D01*
X033024Y012078D01*
X033009Y011968D01*
X033024Y011859D01*
X033066Y011757D01*
X033134Y011669D01*
X033221Y011602D01*
X033323Y011559D01*
X033433Y011545D01*
X033543Y011559D01*
X033645Y011602D01*
X033733Y011669D01*
X0338Y011757D01*
X033842Y011859D01*
X033857Y011968D01*
X033855Y011979D01*
X033858Y012046D01*
X033861Y012076D01*
X033866Y012104D01*
X033872Y012129D01*
X033878Y01215D01*
X033886Y012168D01*
X033894Y012183D01*
X033901Y012193D01*
X034013Y012305D01*
X034018Y0123D01*
X034018Y0123D01*
X034102Y012227D01*
X034095Y012218D01*
X034066Y01218D01*
X034024Y012078D01*
X034009Y011968D01*
X034024Y011859D01*
X034066Y011757D01*
X034134Y011669D01*
X034221Y011602D01*
X034323Y011559D01*
X034433Y011545D01*
X034543Y011559D01*
X034645Y011602D01*
X034733Y011669D01*
X0348Y011757D01*
X034842Y011859D01*
X034857Y011968D01*
X034842Y012078D01*
X0348Y01218D01*
X034733Y012268D01*
X034645Y012335D01*
X034543Y012378D01*
X034433Y012392D01*
X034323Y012378D01*
X034221Y012335D01*
X034184Y012307D01*
X034175Y0123D01*
X034097Y012389D01*
X036436Y014728D01*
X03693D01*
X036975Y014619D01*
X035729Y013373D01*
X035727Y013371D01*
X035719Y013366D01*
X035711Y013361D01*
X035703Y013357D01*
X035694Y013354D01*
X035685Y013352D01*
X035675Y01335D01*
X035665Y013349D01*
X035654Y013349D01*
X03565Y013349D01*
X035573Y013339D01*
X0355Y013309D01*
X035438Y013262D01*
X035391Y0132D01*
X035361Y013127D01*
X035351Y01305D01*
X035361Y012973D01*
X035391Y0129D01*
X035438Y012838D01*
X0355Y012791D01*
X035573Y012761D01*
X03565Y012751D01*
X035727Y012761D01*
X0358Y012791D01*
X035862Y012838D01*
X035909Y0129D01*
X035939Y012973D01*
X035949Y01305D01*
X035949Y013054D01*
X035949Y013065D01*
X03595Y013075D01*
X035952Y013085D01*
X035954Y013094D01*
X035957Y013103D01*
X035961Y013111D01*
X035966Y013119D01*
X035971Y013127D01*
X035973Y013129D01*
X037321Y014478D01*
X037545D01*
X03759Y014369D01*
X035658Y012437D01*
X035647Y012429D01*
X035633Y012421D01*
X035615Y012414D01*
X035593Y012407D01*
X035569Y012401D01*
X035542Y012397D01*
X035474Y012391D01*
X035445Y012391D01*
X035433Y012392D01*
X035323Y012378D01*
X035221Y012335D01*
X035134Y012268D01*
X035066Y01218D01*
X035024Y012078D01*
X035009Y011968D01*
X035024Y011859D01*
X035066Y011757D01*
X035134Y011669D01*
X035221Y011602D01*
X035323Y011559D01*
X035433Y011545D01*
X035543Y011559D01*
X035645Y011602D01*
X035733Y011669D01*
X0358Y011757D01*
X035842Y011859D01*
X035857Y011968D01*
X035855Y011979D01*
X035858Y012046D01*
X035861Y012076D01*
X035866Y012104D01*
X035872Y012129D01*
X035878Y01215D01*
X035886Y012168D01*
X035894Y012183D01*
X035901Y012193D01*
X036013Y012305D01*
X036018Y0123D01*
X036018Y0123D01*
X036102Y012227D01*
X036095Y012218D01*
X036066Y01218D01*
X036024Y012078D01*
X036009Y011968D01*
X036024Y011859D01*
X036066Y011757D01*
X036134Y011669D01*
X036221Y011602D01*
X036323Y011559D01*
X036433Y011545D01*
X036543Y011559D01*
X036645Y011602D01*
X036733Y011669D01*
X0368Y011757D01*
X036842Y011859D01*
X036857Y011968D01*
X036842Y012078D01*
X0368Y01218D01*
X036733Y012268D01*
X036645Y012335D01*
X036543Y012378D01*
X036433Y012392D01*
X036323Y012378D01*
X036221Y012335D01*
X036184Y012307D01*
X036175Y0123D01*
X036097Y012389D01*
X037936Y014228D01*
X03818D01*
X038225Y014119D01*
X037429Y013323D01*
X037427Y013321D01*
X037419Y013316D01*
X037411Y013311D01*
X037403Y013307D01*
X037394Y013304D01*
X037385Y013302D01*
X037375Y0133D01*
X037365Y013299D01*
X037354Y013299D01*
X03735Y013299D01*
X037273Y013289D01*
X0372Y013259D01*
X037138Y013212D01*
X037091Y01315D01*
X037061Y013077D01*
X037051Y013D01*
X037061Y012923D01*
X037091Y01285D01*
X037138Y012788D01*
X0372Y012741D01*
X037273Y012711D01*
X03735Y012701D01*
X037427Y012711D01*
X0375Y012741D01*
X037562Y012788D01*
X037609Y01285D01*
X037639Y012923D01*
X037649Y013D01*
X037649Y013004D01*
X037649Y013015D01*
X03765Y013025D01*
X037652Y013035D01*
X037654Y013044D01*
X037657Y013053D01*
X037661Y013061D01*
X037666Y013069D01*
X037671Y013077D01*
X037673Y013079D01*
X038571Y013978D01*
X039045D01*
X03909Y013869D01*
X037658Y012437D01*
X037647Y012429D01*
X037633Y012421D01*
X037615Y012414D01*
X037593Y012407D01*
X037569Y012401D01*
X037542Y012397D01*
X037474Y012391D01*
X037445Y012391D01*
X037433Y012392D01*
X037323Y012378D01*
X037221Y012335D01*
X037134Y012268D01*
X037066Y01218D01*
X037024Y012078D01*
X037009Y011968D01*
X037024Y011859D01*
X037066Y011757D01*
X037134Y011669D01*
X037221Y011602D01*
X037323Y011559D01*
X037433Y011545D01*
X037543Y011559D01*
X037645Y011602D01*
X037733Y011669D01*
X0378Y011757D01*
X037842Y011859D01*
X037857Y011968D01*
X037855Y011979D01*
X037858Y012046D01*
X037861Y012076D01*
X037866Y012104D01*
X037872Y012129D01*
X037878Y01215D01*
X037886Y012168D01*
X037894Y012183D01*
X037901Y012193D01*
X038013Y012305D01*
X038018Y0123D01*
X038018Y0123D01*
X038102Y012227D01*
X038095Y012218D01*
X038066Y01218D01*
X038024Y012078D01*
X038009Y011968D01*
X038024Y011859D01*
X038066Y011757D01*
X038134Y011669D01*
X038221Y011602D01*
X038323Y011559D01*
X038433Y011545D01*
X038543Y011559D01*
X038645Y011602D01*
X038733Y011669D01*
X0388Y011757D01*
X038842Y011859D01*
X038857Y011968D01*
X038842Y012078D01*
X0388Y01218D01*
X038733Y012268D01*
X038645Y012335D01*
X038543Y012378D01*
X038433Y012392D01*
X038323Y012378D01*
X038221Y012335D01*
X038184Y012307D01*
X038175Y0123D01*
X038097Y012389D01*
X039436Y013728D01*
X03963D01*
X039675Y013619D01*
X039379Y013323D01*
X039377Y013321D01*
X039369Y013316D01*
X039361Y013311D01*
X039353Y013307D01*
X039344Y013304D01*
X039335Y013302D01*
X039325Y0133D01*
X039315Y013299D01*
X039304Y013299D01*
X0393Y013299D01*
X039223Y013289D01*
X03915Y013259D01*
X039088Y013212D01*
X039041Y01315D01*
X039011Y013077D01*
X039001Y013D01*
X039011Y012923D01*
X039041Y01285D01*
X039088Y012788D01*
X03915Y012741D01*
X039223Y012711D01*
X0393Y012701D01*
X039377Y012711D01*
X03945Y012741D01*
X039512Y012788D01*
X039559Y01285D01*
X039589Y012923D01*
X039599Y013D01*
X039599Y013004D01*
X039599Y013015D01*
X0396Y013025D01*
X039602Y013035D01*
X039604Y013044D01*
X039607Y013053D01*
X039611Y013061D01*
X039616Y013069D01*
X039621Y013077D01*
X039623Y013079D01*
X040021Y013478D01*
X040545D01*
X04059Y013369D01*
X039658Y012437D01*
X039647Y012429D01*
X039633Y012421D01*
X039615Y012414D01*
X039593Y012407D01*
X039569Y012401D01*
X039542Y012397D01*
X039474Y012391D01*
X039445Y012391D01*
X039433Y012392D01*
X039323Y012378D01*
X039221Y012335D01*
X039134Y012268D01*
X039066Y01218D01*
X039024Y012078D01*
X039009Y011968D01*
X039024Y011859D01*
X039066Y011757D01*
X039134Y011669D01*
X039221Y011602D01*
X039323Y011559D01*
X039433Y011545D01*
X039543Y011559D01*
X039645Y011602D01*
X039733Y011669D01*
X0398Y011757D01*
X039842Y011859D01*
X039857Y011968D01*
X039855Y011979D01*
X039858Y012046D01*
X039861Y012076D01*
X039866Y012104D01*
X039872Y012129D01*
X039878Y01215D01*
X039886Y012168D01*
X039894Y012183D01*
X039901Y012193D01*
X040013Y012305D01*
X040018Y0123D01*
X040018Y0123D01*
X040102Y012227D01*
X040095Y012218D01*
X040066Y01218D01*
X040024Y012078D01*
X040009Y011968D01*
X040024Y011859D01*
X040066Y011757D01*
X040134Y011669D01*
X040221Y011602D01*
X040323Y011559D01*
X040433Y011545D01*
X040543Y011559D01*
X040645Y011602D01*
X040733Y011669D01*
X0408Y011757D01*
X040842Y011859D01*
X040857Y011968D01*
X040842Y012078D01*
X0408Y01218D01*
X040733Y012268D01*
X040645Y012335D01*
X040543Y012378D01*
X040433Y012392D01*
X040323Y012378D01*
X040221Y012335D01*
X040184Y012307D01*
X040175Y0123D01*
X040097Y012389D01*
X040869Y013161D01*
X040914Y013153D01*
X041011Y013077D01*
X041001Y013D01*
X041011Y012923D01*
X041041Y01285D01*
X041088Y012788D01*
X04115Y012741D01*
X041223Y012711D01*
X0413Y012701D01*
X041377Y012711D01*
X04145Y012741D01*
X041512Y012788D01*
X041559Y01285D01*
X041589Y012923D01*
X04159Y012927D01*
X04159Y012927D01*
X041594Y012928D01*
X041595Y012928D01*
X041982D01*
X042031Y01281D01*
X041658Y012437D01*
X041647Y012429D01*
X041633Y012421D01*
X041615Y012414D01*
X041593Y012407D01*
X041569Y012401D01*
X041542Y012397D01*
X041474Y012391D01*
X041445Y012391D01*
X041433Y012392D01*
X041323Y012378D01*
X041221Y012335D01*
X041134Y012268D01*
X041066Y01218D01*
X041024Y012078D01*
X041009Y011968D01*
X041024Y011859D01*
X041066Y011757D01*
X041134Y011669D01*
X041221Y011602D01*
X041323Y011559D01*
X041433Y011545D01*
X041543Y011559D01*
X041645Y011602D01*
X041733Y011669D01*
X0418Y011757D01*
X041842Y011859D01*
X041857Y011968D01*
X041855Y011979D01*
X041858Y012046D01*
X041861Y012076D01*
X041866Y012104D01*
X041872Y012129D01*
X041878Y01215D01*
X041886Y012168D01*
X041894Y012183D01*
X041901Y012193D01*
X042013Y012305D01*
X042018Y0123D01*
X042018Y0123D01*
X042102Y012227D01*
X042095Y012218D01*
X042066Y01218D01*
X042024Y012078D01*
X042009Y011968D01*
X042024Y011859D01*
X042066Y011757D01*
X042134Y011669D01*
X042221Y011602D01*
X042323Y011559D01*
X042433Y011545D01*
X042543Y011559D01*
X042645Y011602D01*
X042733Y011669D01*
X0428Y011757D01*
X042842Y011859D01*
X042857Y011968D01*
X042842Y012078D01*
X0428Y01218D01*
X042733Y012268D01*
X042645Y012335D01*
X042543Y012378D01*
X042433Y012392D01*
X042323Y012378D01*
X042221Y012335D01*
X042184Y012307D01*
X042175Y0123D01*
X042097Y012389D01*
X042336Y012628D01*
X0499D01*
X049966Y012641D01*
X050022Y012678D01*
X050621Y013278D01*
X050843D01*
X050867Y01316D01*
X050755Y013113D01*
X050583Y013008D01*
X05043Y012877D01*
X050299Y012724D01*
X050194Y012552D01*
X050116Y012366D01*
X050069Y01217D01*
X050054Y011968D01*
X050069Y011767D01*
X050116Y011571D01*
X050194Y011385D01*
X050299Y011213D01*
X05043Y01106D01*
X050583Y010929D01*
X050755Y010824D01*
X050941Y010746D01*
X051138Y010699D01*
X051339Y010683D01*
X05154Y010699D01*
X051736Y010746D01*
X051922Y010824D01*
X052094Y010929D01*
X052247Y01106D01*
X052378Y011213D01*
X052484Y011385D01*
X052561Y011571D01*
X052608Y011767D01*
X052624Y011968D01*
X052608Y01217D01*
X052561Y012366D01*
X052484Y012552D01*
X052378Y012724D01*
X052247Y012877D01*
X052094Y013008D01*
X051922Y013113D01*
X05181Y01316D01*
X051834Y013278D01*
X052179D01*
X054128Y011328D01*
X054184Y011291D01*
X05425Y011278D01*
X0721D01*
X072166Y011291D01*
X072222Y011328D01*
X073022Y012128D01*
X073059Y012184D01*
X073072Y01225D01*
Y014726D01*
X073073Y014733D01*
X073076Y014745D01*
X073081Y014758D01*
X073087Y014771D01*
X073095Y014785D01*
X073104Y0148D01*
X073116Y014816D01*
X07313Y014832D01*
X073144Y014846D01*
X07315Y01485D01*
X073206Y014923D01*
X073241Y015009D01*
X073253Y0151D01*
X073241Y015191D01*
X073206Y015277D01*
X07315Y01535D01*
X073077Y015406D01*
X072991Y015441D01*
X0729Y015453D01*
X072809Y015441D01*
X072723Y015406D01*
X07265Y01535D01*
X07264Y015337D01*
X072522Y015377D01*
Y017849D01*
X072571Y017898D01*
X072585Y017907D01*
X072605Y017917D01*
X072629Y017926D01*
X072658Y017935D01*
X072692Y017942D01*
X07273Y017947D01*
X072824Y017954D01*
X072863Y017954D01*
X07288Y017952D01*
X073008Y017969D01*
X073129Y018019D01*
X073232Y018098D01*
X073311Y018201D01*
X073361Y018321D01*
X073377Y01845D01*
X073361Y018579D01*
X073311Y018699D01*
X073232Y018802D01*
X073129Y018881D01*
X073008Y018931D01*
X07288Y018948D01*
X072751Y018931D01*
X072631Y018881D01*
X072527Y018802D01*
X072448Y018699D01*
X072399Y018579D01*
X072382Y01845D01*
X072384Y018435D01*
X072381Y018344D01*
X072377Y018302D01*
X072371Y018263D01*
X072364Y018229D01*
X072356Y0182D01*
X072347Y018175D01*
X072337Y018156D01*
X072327Y018141D01*
X072228Y018042D01*
X072191Y017986D01*
X072178Y01792D01*
Y012271D01*
X071879Y011972D01*
X069626D01*
X069591Y01204D01*
X069584Y01209D01*
X070372Y012878D01*
X070409Y012934D01*
X070422Y013D01*
Y014726D01*
X070423Y014733D01*
X070426Y014745D01*
X070431Y014758D01*
X070437Y014771D01*
X070444Y014785D01*
X070454Y0148D01*
X070466Y014816D01*
X07048Y014832D01*
X070494Y014846D01*
X0705Y01485D01*
X070556Y014923D01*
X070591Y015009D01*
X070603Y0151D01*
X070591Y015191D01*
X070556Y015277D01*
X0705Y01535D01*
X070427Y015406D01*
X070341Y015441D01*
X07025Y015453D01*
X070159Y015441D01*
X070121Y015426D01*
X070003Y01549D01*
Y016383D01*
X070245Y016625D01*
X070283Y016681D01*
X070296Y016747D01*
Y017841D01*
X070299Y017858D01*
X070306Y017879D01*
X070317Y017903D01*
X070332Y017929D01*
X070351Y017958D01*
X070373Y017989D01*
X070435Y01806D01*
X070462Y018088D01*
X070476Y018098D01*
X070555Y018201D01*
X070605Y018321D01*
X070622Y01845D01*
X070605Y018579D01*
X070555Y018699D01*
X070476Y018802D01*
X070373Y018881D01*
X070253Y018931D01*
X070124Y018948D01*
X069995Y018931D01*
X069875Y018881D01*
X069772Y018802D01*
X069692Y018699D01*
X069643Y018579D01*
X069626Y01845D01*
X069643Y018321D01*
X069692Y018201D01*
X069772Y018098D01*
X069784Y018089D01*
X069846Y018023D01*
X069873Y01799D01*
X069897Y017958D01*
X069916Y017929D01*
X06993Y017903D01*
X069941Y017879D01*
X069948Y017858D01*
X069951Y017841D01*
Y016818D01*
X069709Y016576D01*
X069672Y01652D01*
X069659Y016454D01*
Y013202D01*
X069179Y012722D01*
X066826D01*
X066791Y01279D01*
X066784Y01284D01*
X067422Y013478D01*
X067459Y013534D01*
X067472Y0136D01*
Y014726D01*
X067473Y014733D01*
X067476Y014745D01*
X067481Y014758D01*
X067487Y014771D01*
X067495Y014785D01*
X067504Y0148D01*
X067516Y014816D01*
X06753Y014832D01*
X067544Y014846D01*
X06755Y01485D01*
X067606Y014923D01*
X067641Y015009D01*
X067653Y0151D01*
X067641Y015191D01*
X067606Y015277D01*
X06755Y01535D01*
X067477Y015406D01*
X067391Y015441D01*
X0673Y015453D01*
X067209Y015441D01*
X067123Y015406D01*
X06705Y01535D01*
X066994Y015277D01*
X066959Y015191D01*
X066947Y0151D01*
X066959Y015009D01*
X066994Y014923D01*
X06705Y01485D01*
X067056Y014846D01*
X06707Y014832D01*
X067084Y014816D01*
X067096Y0148D01*
X067105Y014785D01*
X067113Y014771D01*
X067119Y014758D01*
X067124Y014745D01*
X067127Y014733D01*
X067128Y014726D01*
Y013671D01*
X066579Y013122D01*
X066275D01*
X066263Y01324D01*
X066266Y013241D01*
X066322Y013278D01*
X066672Y013628D01*
X066709Y013684D01*
X066722Y01375D01*
Y017561D01*
X067059Y017898D01*
X067074Y017907D01*
X067093Y017917D01*
X067117Y017926D01*
X067147Y017935D01*
X067181Y017942D01*
X067218Y017947D01*
X067312Y017954D01*
X067351Y017954D01*
X067368Y017952D01*
X067497Y017969D01*
X067617Y018019D01*
X06772Y018098D01*
X067799Y018201D01*
X067849Y018321D01*
X067866Y01845D01*
X067849Y018579D01*
X067799Y018699D01*
X06772Y018802D01*
X067617Y018881D01*
X067497Y018931D01*
X067368Y018948D01*
X067239Y018931D01*
X067119Y018881D01*
X067016Y018802D01*
X066936Y018699D01*
X066887Y018579D01*
X06687Y01845D01*
X066872Y018435D01*
X066869Y018344D01*
X066865Y018302D01*
X06686Y018263D01*
X066852Y018229D01*
X066844Y0182D01*
X066835Y018175D01*
X066825Y018156D01*
X066815Y018141D01*
X066428Y017754D01*
X066391Y017698D01*
X066378Y017632D01*
Y013821D01*
X066129Y013572D01*
X064576D01*
X064541Y01364D01*
X064534Y01369D01*
X064672Y013828D01*
X064709Y013884D01*
X064722Y01395D01*
Y014676D01*
X064723Y014683D01*
X064726Y014695D01*
X064731Y014708D01*
X064737Y014721D01*
X064745Y014735D01*
X064754Y01475D01*
X064766Y014766D01*
X06478Y014782D01*
X064794Y014796D01*
X0648Y0148D01*
X064856Y014873D01*
X064891Y014959D01*
X064903Y01505D01*
X064891Y015141D01*
X064856Y015227D01*
X0648Y0153D01*
X064727Y015356D01*
X064641Y015391D01*
X06455Y015403D01*
X064459Y015391D01*
X06439Y015363D01*
X06433Y015386D01*
X064272Y015427D01*
Y017867D01*
X064303Y017898D01*
X064318Y017907D01*
X064337Y017917D01*
X064361Y017926D01*
X064391Y017935D01*
X064425Y017942D01*
X064462Y017947D01*
X064556Y017954D01*
X064595Y017954D01*
X064612Y017952D01*
X064741Y017969D01*
X064861Y018019D01*
X064964Y018098D01*
X065043Y018201D01*
X065093Y018321D01*
X06511Y01845D01*
X065093Y018579D01*
X065043Y018699D01*
X064964Y018802D01*
X064861Y018881D01*
X064741Y018931D01*
X064612Y018948D01*
X064483Y018931D01*
X064363Y018881D01*
X06426Y018802D01*
X064181Y018699D01*
X064131Y018579D01*
X064114Y01845D01*
X064116Y018435D01*
X064113Y018344D01*
X064109Y018302D01*
X064104Y018263D01*
X064097Y018229D01*
X064088Y0182D01*
X064079Y018175D01*
X064069Y018156D01*
X064059Y018141D01*
X063978Y01806D01*
X063941Y018004D01*
X063928Y017938D01*
Y014421D01*
X063829Y014322D01*
X054521D01*
X053522Y015322D01*
X053466Y015359D01*
X0534Y015372D01*
X05172D01*
X051675Y015481D01*
X052332Y016138D01*
X052369Y016194D01*
X052382Y01626D01*
Y019809D01*
X052386Y019827D01*
X052393Y019847D01*
X052404Y019871D01*
X052418Y019898D01*
X052437Y019927D01*
X05246Y019957D01*
X052521Y020028D01*
X052549Y020056D01*
X052562Y020066D01*
X052641Y02017D01*
X052691Y02029D01*
X052708Y020419D01*
X052691Y020547D01*
X052641Y020667D01*
X052562Y020771D01*
X052459Y02085D01*
X052339Y0209D01*
X05221Y020916D01*
D02*
G37*
G36*
X078898Y017191D02*
X078697Y017175D01*
X078501Y017128D01*
X078314Y017051D01*
X078142Y016945D01*
X077989Y016814D01*
X077858Y016661D01*
X077753Y016489D01*
X077675Y016303D01*
X077628Y016107D01*
X077613Y015906D01*
X077628Y015704D01*
X077675Y015508D01*
X077753Y015322D01*
X077858Y01515D01*
X077989Y014997D01*
X078142Y014866D01*
X078314Y014761D01*
X078501Y014683D01*
X078697Y014636D01*
X078898Y01462D01*
X079099Y014636D01*
X079295Y014683D01*
X079481Y014761D01*
X079653Y014866D01*
X079806Y014997D01*
X079937Y01515D01*
X080043Y015322D01*
X08012Y015508D01*
X080167Y015704D01*
X080183Y015906D01*
X080167Y016107D01*
X08012Y016303D01*
X080043Y016489D01*
X079937Y016661D01*
X079806Y016814D01*
X079653Y016945D01*
X079481Y017051D01*
X079295Y017128D01*
X079099Y017175D01*
X078898Y017191D01*
D02*
G37*
G36*
X0585Y015253D02*
X058409Y015241D01*
X058323Y015206D01*
X05825Y01515D01*
X058194Y015077D01*
X058159Y014991D01*
X058147Y0149D01*
X058159Y014809D01*
X058194Y014723D01*
X05825Y01465D01*
X058323Y014594D01*
X058409Y014559D01*
X0585Y014547D01*
X058591Y014559D01*
X058677Y014594D01*
X05875Y01465D01*
X058806Y014723D01*
X058841Y014809D01*
X058853Y0149D01*
X058841Y014991D01*
X058806Y015077D01*
X05875Y01515D01*
X058677Y015206D01*
X058591Y015241D01*
X0585Y015253D01*
D02*
G37*
G36*
X0625Y015203D02*
X062409Y015191D01*
X062323Y015156D01*
X06225Y0151D01*
X062194Y015027D01*
X062159Y014941D01*
X062147Y01485D01*
X062159Y014759D01*
X062194Y014673D01*
X06225Y0146D01*
X062323Y014544D01*
X062409Y014509D01*
X0625Y014497D01*
X062591Y014509D01*
X062677Y014544D01*
X06275Y0146D01*
X062806Y014673D01*
X062841Y014759D01*
X062853Y01485D01*
X062841Y014941D01*
X062806Y015027D01*
X06275Y0151D01*
X062677Y015156D01*
X062591Y015191D01*
X0625Y015203D01*
D02*
G37*
G36*
X02075Y015053D02*
X020646Y01504D01*
X020548Y014999D01*
X020465Y014935D01*
X020401Y014852D01*
X02036Y014754D01*
X020347Y01465D01*
X02036Y014546D01*
X020401Y014448D01*
X020465Y014365D01*
X020548Y014301D01*
X020646Y01426D01*
X02075Y014247D01*
X020854Y01426D01*
X020952Y014301D01*
X021035Y014365D01*
X021099Y014448D01*
X02114Y014546D01*
X021153Y01465D01*
X02114Y014754D01*
X021099Y014852D01*
X021035Y014935D01*
X020952Y014999D01*
X020854Y01504D01*
X02075Y015053D01*
D02*
G37*
G36*
X01975D02*
X019646Y01504D01*
X019548Y014999D01*
X019465Y014935D01*
X019401Y014852D01*
X01936Y014754D01*
X019347Y01465D01*
X01936Y014546D01*
X019401Y014448D01*
X019465Y014365D01*
X019548Y014301D01*
X019646Y01426D01*
X01975Y014247D01*
X019854Y01426D01*
X019952Y014301D01*
X020035Y014365D01*
X020099Y014448D01*
X02014Y014546D01*
X020153Y01465D01*
X02014Y014754D01*
X020099Y014852D01*
X020035Y014935D01*
X019952Y014999D01*
X019854Y01504D01*
X01975Y015053D01*
D02*
G37*
G36*
X01875D02*
X018646Y01504D01*
X018548Y014999D01*
X018465Y014935D01*
X018401Y014852D01*
X01836Y014754D01*
X018347Y01465D01*
X01836Y014546D01*
X018401Y014448D01*
X018465Y014365D01*
X018548Y014301D01*
X018646Y01426D01*
X01875Y014247D01*
X018854Y01426D01*
X018952Y014301D01*
X019035Y014365D01*
X019099Y014448D01*
X01914Y014546D01*
X019153Y01465D01*
X01914Y014754D01*
X019099Y014852D01*
X019035Y014935D01*
X018952Y014999D01*
X018854Y01504D01*
X01875Y015053D01*
D02*
G37*
G36*
X02074Y014053D02*
X020636Y01404D01*
X020538Y013999D01*
X020455Y013935D01*
X020391Y013852D01*
X02035Y013754D01*
X020337Y01365D01*
X02035Y013546D01*
X020391Y013448D01*
X020455Y013365D01*
X020538Y013301D01*
X020636Y01326D01*
X02074Y013247D01*
X020844Y01326D01*
X020942Y013301D01*
X021025Y013365D01*
X021089Y013448D01*
X02113Y013546D01*
X021143Y01365D01*
X02113Y013754D01*
X021089Y013852D01*
X021025Y013935D01*
X020942Y013999D01*
X020844Y01404D01*
X02074Y014053D01*
D02*
G37*
G36*
X01975D02*
X019646Y01404D01*
X019548Y013999D01*
X019465Y013935D01*
X019401Y013852D01*
X01936Y013754D01*
X019347Y01365D01*
X01936Y013546D01*
X019401Y013448D01*
X019465Y013365D01*
X019548Y013301D01*
X019646Y01326D01*
X01975Y013247D01*
X019854Y01326D01*
X019952Y013301D01*
X020035Y013365D01*
X020099Y013448D01*
X02014Y013546D01*
X020153Y01365D01*
X02014Y013754D01*
X020099Y013852D01*
X020035Y013935D01*
X019952Y013999D01*
X019854Y01404D01*
X01975Y014053D01*
D02*
G37*
G36*
X01875D02*
X018646Y01404D01*
X018548Y013999D01*
X018465Y013935D01*
X018401Y013852D01*
X01836Y013754D01*
X018347Y01365D01*
X01836Y013546D01*
X018401Y013448D01*
X018465Y013365D01*
X018548Y013301D01*
X018646Y01326D01*
X01875Y013247D01*
X018854Y01326D01*
X018952Y013301D01*
X019035Y013365D01*
X019099Y013448D01*
X01914Y013546D01*
X019153Y01365D01*
X01914Y013754D01*
X019099Y013852D01*
X019035Y013935D01*
X018952Y013999D01*
X018854Y01404D01*
X01875Y014053D01*
D02*
G37*
G36*
X044483Y012386D02*
Y012019D01*
X04485D01*
X044842Y012078D01*
X0448Y01218D01*
X044733Y012268D01*
X044645Y012335D01*
X044543Y012378D01*
X044483Y012386D01*
D02*
G37*
G36*
X025767Y012361D02*
Y012019D01*
X026109D01*
X026102Y012072D01*
X026062Y012168D01*
X025998Y01225D01*
X025916Y012314D01*
X02582Y012354D01*
X025767Y012361D01*
D02*
G37*
G36*
X024767D02*
Y012019D01*
X025109D01*
X025102Y012072D01*
X025062Y012168D01*
X024998Y01225D01*
X024916Y012314D01*
X02482Y012354D01*
X024767Y012361D01*
D02*
G37*
G36*
X043483Y012386D02*
Y012019D01*
X04385D01*
X043842Y012078D01*
X0438Y01218D01*
X043733Y012268D01*
X043645Y012335D01*
X043543Y012378D01*
X043483Y012386D01*
D02*
G37*
G36*
X025667Y012361D02*
X025613Y012354D01*
X025517Y012314D01*
X025435Y01225D01*
X025371Y012168D01*
X025331Y012072D01*
X025324Y012019D01*
X025667D01*
Y012361D01*
D02*
G37*
G36*
X024667D02*
X024613Y012354D01*
X024517Y012314D01*
X024435Y01225D01*
X024371Y012168D01*
X024331Y012072D01*
X024324Y012019D01*
X024667D01*
Y012361D01*
D02*
G37*
G36*
X044383Y012386D02*
X044323Y012378D01*
X044221Y012335D01*
X044134Y012268D01*
X044066Y01218D01*
X044024Y012078D01*
X044016Y012019D01*
X044383D01*
Y012386D01*
D02*
G37*
G36*
X043383D02*
X043323Y012378D01*
X043221Y012335D01*
X043134Y012268D01*
X043066Y01218D01*
X043024Y012078D01*
X043016Y012019D01*
X043383D01*
Y012386D01*
D02*
G37*
G36*
X026109Y011918D02*
X025767D01*
Y011576D01*
X02582Y011583D01*
X025916Y011623D01*
X025998Y011687D01*
X026062Y011769D01*
X026102Y011865D01*
X026109Y011918D01*
D02*
G37*
G36*
X025109D02*
X024767D01*
Y011576D01*
X02482Y011583D01*
X024916Y011623D01*
X024998Y011687D01*
X025062Y011769D01*
X025102Y011865D01*
X025109Y011918D01*
D02*
G37*
G36*
X025667D02*
X025324D01*
X025331Y011865D01*
X025371Y011769D01*
X025435Y011687D01*
X025517Y011623D01*
X025613Y011583D01*
X025667Y011576D01*
Y011918D01*
D02*
G37*
G36*
X024667D02*
X024324D01*
X024331Y011865D01*
X024371Y011769D01*
X024435Y011687D01*
X024517Y011623D01*
X024613Y011583D01*
X024667Y011576D01*
Y011918D01*
D02*
G37*
G36*
X028112Y012364D02*
X027321D01*
Y011573D01*
X028112D01*
Y012364D01*
D02*
G37*
G36*
X026717Y012367D02*
X026613Y012354D01*
X026517Y012314D01*
X026435Y01225D01*
X026371Y012168D01*
X026331Y012072D01*
X026318Y011968D01*
X026331Y011865D01*
X026371Y011769D01*
X026435Y011687D01*
X026517Y011623D01*
X026613Y011583D01*
X026717Y01157D01*
X02682Y011583D01*
X026916Y011623D01*
X026998Y011687D01*
X027062Y011769D01*
X027102Y011865D01*
X027115Y011968D01*
X027102Y012072D01*
X027062Y012168D01*
X026998Y01225D01*
X026916Y012314D01*
X02682Y012354D01*
X026717Y012367D01*
D02*
G37*
G36*
X022717D02*
X022613Y012354D01*
X022517Y012314D01*
X022435Y01225D01*
X022371Y012168D01*
X022331Y012072D01*
X022318Y011968D01*
X022331Y011865D01*
X022371Y011769D01*
X022435Y011687D01*
X022517Y011623D01*
X022613Y011583D01*
X022717Y01157D01*
X02282Y011583D01*
X022916Y011623D01*
X022998Y011687D01*
X023062Y011769D01*
X023102Y011865D01*
X023115Y011968D01*
X023102Y012072D01*
X023062Y012168D01*
X022998Y01225D01*
X022916Y012314D01*
X02282Y012354D01*
X022717Y012367D01*
D02*
G37*
G36*
X021717D02*
X021613Y012354D01*
X021517Y012314D01*
X021435Y01225D01*
X021371Y012168D01*
X021331Y012072D01*
X021318Y011968D01*
X021331Y011865D01*
X021371Y011769D01*
X021435Y011687D01*
X021517Y011623D01*
X021613Y011583D01*
X021717Y01157D01*
X02182Y011583D01*
X021916Y011623D01*
X021998Y011687D01*
X022062Y011769D01*
X022102Y011865D01*
X022115Y011968D01*
X022102Y012072D01*
X022062Y012168D01*
X021998Y01225D01*
X021916Y012314D01*
X02182Y012354D01*
X021717Y012367D01*
D02*
G37*
G36*
X020717D02*
X020613Y012354D01*
X020517Y012314D01*
X020435Y01225D01*
X020371Y012168D01*
X020331Y012072D01*
X020318Y011968D01*
X020331Y011865D01*
X020371Y011769D01*
X020435Y011687D01*
X020517Y011623D01*
X020613Y011583D01*
X020717Y01157D01*
X02082Y011583D01*
X020916Y011623D01*
X020998Y011687D01*
X021062Y011769D01*
X021102Y011865D01*
X021115Y011968D01*
X021102Y012072D01*
X021062Y012168D01*
X020998Y01225D01*
X020916Y012314D01*
X02082Y012354D01*
X020717Y012367D01*
D02*
G37*
G36*
X019717D02*
X019613Y012354D01*
X019517Y012314D01*
X019435Y01225D01*
X019371Y012168D01*
X019331Y012072D01*
X019318Y011968D01*
X019331Y011865D01*
X019371Y011769D01*
X019435Y011687D01*
X019517Y011623D01*
X019613Y011583D01*
X019717Y01157D01*
X01982Y011583D01*
X019916Y011623D01*
X019998Y011687D01*
X020062Y011769D01*
X020102Y011865D01*
X020115Y011968D01*
X020102Y012072D01*
X020062Y012168D01*
X019998Y01225D01*
X019916Y012314D01*
X01982Y012354D01*
X019717Y012367D01*
D02*
G37*
G36*
X018717D02*
X018613Y012354D01*
X018517Y012314D01*
X018435Y01225D01*
X018371Y012168D01*
X018331Y012072D01*
X018318Y011968D01*
X018331Y011865D01*
X018371Y011769D01*
X018435Y011687D01*
X018517Y011623D01*
X018613Y011583D01*
X018717Y01157D01*
X01882Y011583D01*
X018916Y011623D01*
X018998Y011687D01*
X019062Y011769D01*
X019102Y011865D01*
X019115Y011968D01*
X019102Y012072D01*
X019062Y012168D01*
X018998Y01225D01*
X018916Y012314D01*
X01882Y012354D01*
X018717Y012367D01*
D02*
G37*
G36*
X04485Y011918D02*
X044483D01*
Y011551D01*
X044543Y011559D01*
X044645Y011602D01*
X044733Y011669D01*
X0448Y011757D01*
X044842Y011859D01*
X04485Y011918D01*
D02*
G37*
G36*
X04385D02*
X043483D01*
Y011551D01*
X043543Y011559D01*
X043645Y011602D01*
X043733Y011669D01*
X0438Y011757D01*
X043842Y011859D01*
X04385Y011918D01*
D02*
G37*
G36*
X044383D02*
X044016D01*
X044024Y011859D01*
X044066Y011757D01*
X044134Y011669D01*
X044221Y011602D01*
X044323Y011559D01*
X044383Y011551D01*
Y011918D01*
D02*
G37*
G36*
X043383D02*
X043016D01*
X043024Y011859D01*
X043066Y011757D01*
X043134Y011669D01*
X043221Y011602D01*
X043323Y011559D01*
X043383Y011551D01*
Y011918D01*
D02*
G37*
G36*
X045853Y012388D02*
X045013D01*
Y011549D01*
X045853D01*
Y012388D01*
D02*
G37*
G36*
X032433Y012392D02*
X032323Y012378D01*
X032221Y012335D01*
X032134Y012268D01*
X032066Y01218D01*
X032024Y012078D01*
X032009Y011968D01*
X032024Y011859D01*
X032066Y011757D01*
X032134Y011669D01*
X032221Y011602D01*
X032323Y011559D01*
X032433Y011545D01*
X032543Y011559D01*
X032645Y011602D01*
X032733Y011669D01*
X0328Y011757D01*
X032842Y011859D01*
X032857Y011968D01*
X032842Y012078D01*
X0328Y01218D01*
X032733Y012268D01*
X032645Y012335D01*
X032543Y012378D01*
X032433Y012392D01*
D02*
G37*
G36*
X011968Y013254D02*
X011767Y013238D01*
X011571Y013191D01*
X011385Y013113D01*
X011213Y013008D01*
X01106Y012877D01*
X010929Y012724D01*
X010824Y012552D01*
X010746Y012366D01*
X010699Y01217D01*
X010683Y011968D01*
X010699Y011767D01*
X010746Y011571D01*
X010824Y011385D01*
X010929Y011213D01*
X01106Y01106D01*
X011213Y010929D01*
X011385Y010824D01*
X011571Y010746D01*
X011767Y010699D01*
X011968Y010683D01*
X01217Y010699D01*
X012366Y010746D01*
X012552Y010824D01*
X012724Y010929D01*
X012877Y01106D01*
X013008Y011213D01*
X013113Y011385D01*
X013191Y011571D01*
X013238Y011767D01*
X013254Y011968D01*
X013238Y01217D01*
X013191Y012366D01*
X013113Y012552D01*
X013008Y012724D01*
X012877Y012877D01*
X012724Y013008D01*
X012552Y013113D01*
X012366Y013191D01*
X01217Y013238D01*
X011968Y013254D01*
D02*
G37*
%LPD*%
G36*
X026247Y051738D02*
X026255Y051608D01*
X026258Y051592D01*
X026262Y051579D01*
X026266Y05157D01*
X02627Y051564D01*
X02583D01*
X025834Y05157D01*
X025838Y051579D01*
X025842Y051592D01*
X025845Y051608D01*
X025847Y051628D01*
X025851Y051676D01*
X025853Y051773D01*
X026247D01*
X026247Y051738D01*
D02*
G37*
G36*
X028292Y051729D02*
X0283Y05153D01*
X027864Y051593D01*
X027871Y051599D01*
X027876Y051609D01*
X027882Y051622D01*
X027886Y051639D01*
X02789Y051658D01*
X027893Y051681D01*
X027897Y051736D01*
X027898Y051804D01*
X028292Y051729D01*
D02*
G37*
G36*
X03236Y051153D02*
X032358Y051144D01*
Y051134D01*
X03236Y051122D01*
X032366Y051108D01*
X032375Y051093D01*
X032386Y051077D01*
X0324Y051059D01*
X032437Y05102D01*
X032366Y050949D01*
X032346Y050969D01*
X032309Y051D01*
X032293Y051011D01*
X032278Y05102D01*
X032264Y051025D01*
X032252Y051028D01*
X032242D01*
X032232Y051025D01*
X032225Y05102D01*
X032366Y051161D01*
X03236Y051153D01*
D02*
G37*
G36*
X040368Y051288D02*
X040373Y051204D01*
X040378Y051167D01*
X040385Y051133D01*
X040393Y051103D01*
X040403Y051076D01*
X040414Y051052D01*
X040427Y051032D01*
X040442Y051015D01*
X040371Y050944D01*
X040354Y050959D01*
X040334Y050972D01*
X04031Y050983D01*
X040283Y050993D01*
X040252Y051001D01*
X040219Y051008D01*
X040182Y051013D01*
X040098Y051018D01*
X04005Y051019D01*
X040367Y051335D01*
X040368Y051288D01*
D02*
G37*
G36*
X039368D02*
X039373Y051204D01*
X039378Y051167D01*
X039385Y051133D01*
X039393Y051103D01*
X039403Y051076D01*
X039414Y051052D01*
X039427Y051032D01*
X039442Y051015D01*
X039371Y050944D01*
X039354Y050959D01*
X039334Y050972D01*
X03931Y050983D01*
X039283Y050993D01*
X039252Y051001D01*
X039219Y051008D01*
X039182Y051013D01*
X039098Y051018D01*
X03905Y051019D01*
X039367Y051335D01*
X039368Y051288D01*
D02*
G37*
G36*
X036368D02*
X036373Y051204D01*
X036378Y051167D01*
X036385Y051133D01*
X036393Y051103D01*
X036403Y051076D01*
X036414Y051052D01*
X036427Y051032D01*
X036442Y051015D01*
X036371Y050944D01*
X036354Y050959D01*
X036334Y050972D01*
X03631Y050983D01*
X036283Y050993D01*
X036252Y051001D01*
X036219Y051008D01*
X036182Y051013D01*
X036098Y051018D01*
X03605Y051019D01*
X036367Y051335D01*
X036368Y051288D01*
D02*
G37*
G36*
X035368D02*
X035373Y051204D01*
X035378Y051167D01*
X035385Y051133D01*
X035393Y051103D01*
X035403Y051076D01*
X035414Y051052D01*
X035427Y051032D01*
X035442Y051015D01*
X035371Y050944D01*
X035354Y050959D01*
X035334Y050972D01*
X03531Y050983D01*
X035283Y050993D01*
X035252Y051001D01*
X035219Y051008D01*
X035182Y051013D01*
X035098Y051018D01*
X03505Y051019D01*
X035367Y051335D01*
X035368Y051288D01*
D02*
G37*
G36*
X033368D02*
X033373Y051204D01*
X033378Y051167D01*
X033385Y051133D01*
X033393Y051103D01*
X033403Y051076D01*
X033414Y051052D01*
X033427Y051032D01*
X033442Y051015D01*
X033371Y050944D01*
X033354Y050959D01*
X033334Y050972D01*
X03331Y050983D01*
X033283Y050993D01*
X033252Y051001D01*
X033219Y051008D01*
X033182Y051013D01*
X033098Y051018D01*
X03305Y051019D01*
X033367Y051335D01*
X033368Y051288D01*
D02*
G37*
G36*
X032272Y050898D02*
X037597Y045572D01*
Y0447D01*
X037609Y044641D01*
X037642Y044592D01*
X038792Y043442D01*
X038841Y043409D01*
X0389Y043397D01*
X048037D01*
X048347Y043087D01*
Y04135D01*
X048349Y041342D01*
X04824Y041284D01*
X046962Y042562D01*
X0469Y042609D01*
X046827Y042639D01*
X04675Y042649D01*
X038935D01*
X038901Y042708D01*
X038887Y042768D01*
X038926Y042819D01*
X038958Y042896D01*
X038969Y042978D01*
X038958Y043061D01*
X038926Y043138D01*
X038876Y043204D01*
X03881Y043255D01*
X038733Y043287D01*
X03865Y043298D01*
X038567Y043287D01*
X03849Y043255D01*
X038424Y043204D01*
X038374Y043138D01*
X038342Y043061D01*
X038331Y042978D01*
X038341Y042899D01*
X038335Y042892D01*
X038239Y042834D01*
X031649Y049424D01*
Y050919D01*
X032221D01*
X032225Y050918D01*
X032228Y050919D01*
X032247D01*
X032272Y050898D01*
D02*
G37*
G36*
X041275Y05111D02*
X041238Y051054D01*
X041223Y051026D01*
X04121Y050999D01*
X0412Y050972D01*
X041192Y050946D01*
X041186Y05092D01*
X041183Y050894D01*
X041181Y050869D01*
X041081D01*
X04108Y050891D01*
X041076Y050912D01*
X041068Y050932D01*
X041058Y050951D01*
X041045Y050969D01*
X041028Y050985D01*
X041009Y051D01*
X040987Y051015D01*
X040962Y051028D01*
X040934Y051039D01*
X041297Y051138D01*
X041275Y05111D01*
D02*
G37*
G36*
X042238Y051077D02*
X042182Y051013D01*
X04216Y050983D01*
X042141Y050955D01*
X042125Y050928D01*
X042113Y050901D01*
X042104Y050877D01*
X042099Y050853D01*
X042097Y050831D01*
X041997D01*
X041996Y050853D01*
X04199Y050877D01*
X041982Y050901D01*
X041969Y050928D01*
X041954Y050955D01*
X041935Y050983D01*
X041912Y051013D01*
X041856Y051077D01*
X041823Y05111D01*
X042271D01*
X042238Y051077D01*
D02*
G37*
G36*
X060012Y050131D02*
X060005Y050137D01*
X059994Y050142D01*
X05998Y050146D01*
X059962Y05015D01*
X059942Y050154D01*
X059891Y050159D01*
X059828Y050161D01*
X059791Y050161D01*
Y050555D01*
X059828Y050555D01*
X059942Y050563D01*
X059962Y050566D01*
X05998Y05057D01*
X059994Y050575D01*
X060005Y05058D01*
X060012Y050586D01*
Y050131D01*
D02*
G37*
G36*
X059484Y05058D02*
X059494Y050575D01*
X059509Y05057D01*
X059526Y050566D01*
X059546Y050563D01*
X059597Y050558D01*
X059661Y050555D01*
X059697Y050555D01*
Y050161D01*
X059661Y050161D01*
X059546Y050154D01*
X059526Y05015D01*
X059509Y050146D01*
X059494Y050142D01*
X059484Y050137D01*
X059476Y050131D01*
Y050586D01*
X059484Y05058D01*
D02*
G37*
G36*
X047258Y04639D02*
X047261Y046382D01*
X047267Y046374D01*
X047275Y046368D01*
X047285Y046362D01*
X047297Y046358D01*
X047312Y046354D01*
X047329Y046352D01*
X047349Y04635D01*
X04737Y04635D01*
Y04625D01*
X047349Y046249D01*
X047329Y046248D01*
X047312Y046246D01*
X047297Y046242D01*
X047285Y046238D01*
X047275Y046232D01*
X047267Y046226D01*
X047261Y046218D01*
X047258Y04621D01*
X047256Y0462D01*
Y0464D01*
X047258Y04639D01*
D02*
G37*
G36*
X045858D02*
X045861Y046382D01*
X045867Y046374D01*
X045875Y046368D01*
X045885Y046362D01*
X045897Y046358D01*
X045912Y046354D01*
X045929Y046352D01*
X045949Y04635D01*
X04597Y04635D01*
Y04625D01*
X045949Y046249D01*
X045929Y046248D01*
X045912Y046246D01*
X045897Y046242D01*
X045885Y046238D01*
X045875Y046232D01*
X045867Y046226D01*
X045861Y046218D01*
X045858Y04621D01*
X045856Y0462D01*
Y0464D01*
X045858Y04639D01*
D02*
G37*
G36*
X046512Y04551D02*
X046526Y045497D01*
X04654Y045487D01*
X046552Y04548D01*
X046562Y045476D01*
X046572Y045474D01*
X04658Y045476D01*
X046587Y04548D01*
X046592Y045486D01*
X046596Y045496D01*
X046528Y045282D01*
X04653Y045293D01*
X046529Y045305D01*
X046527Y045319D01*
X046521Y045333D01*
X046514Y045348D01*
X046504Y045365D01*
X046491Y045382D01*
X046476Y045401D01*
X046438Y045441D01*
X046496Y045525D01*
X046512Y04551D01*
D02*
G37*
G36*
X045127Y0452D02*
X045126Y045209D01*
X045123Y045218D01*
X045118Y045226D01*
X045111Y045232D01*
X045102Y045237D01*
X045091Y045242D01*
X045078Y045245D01*
X045063Y045248D01*
X045045Y04525D01*
X045026Y04525D01*
Y04535D01*
X045045Y04535D01*
X045063Y045352D01*
X045078Y045354D01*
X045091Y045358D01*
X045102Y045363D01*
X045111Y045368D01*
X045118Y045374D01*
X045123Y045382D01*
X045126Y045391D01*
X045127Y0454D01*
Y0452D01*
D02*
G37*
G36*
X058059Y039712D02*
X058042Y039729D01*
X058025Y039744D01*
X058008Y039757D01*
X057991Y039768D01*
X057974Y039778D01*
X057958Y039786D01*
X057941Y039792D01*
X057924Y039796D01*
X057908Y039799D01*
X057892Y0398D01*
Y0399D01*
X057908Y039901D01*
X057924Y039904D01*
X057941Y039908D01*
X057958Y039914D01*
X057974Y039922D01*
X057991Y039932D01*
X058008Y039943D01*
X058025Y039956D01*
X058042Y039971D01*
X058059Y039988D01*
Y039712D01*
D02*
G37*
G36*
X059252Y038698D02*
X059256Y038675D01*
X059264Y038652D01*
X059275Y038628D01*
X059289Y038603D01*
X059306Y038577D01*
X059327Y038549D01*
X059377Y038492D01*
X059407Y038462D01*
X058993D01*
X059023Y038492D01*
X059073Y038549D01*
X059094Y038577D01*
X059111Y038603D01*
X059125Y038628D01*
X059136Y038652D01*
X059144Y038675D01*
X059148Y038698D01*
X05915Y038719D01*
X05925D01*
X059252Y038698D01*
D02*
G37*
G36*
X055947Y038587D02*
Y0347D01*
X055959Y034641D01*
X055992Y034592D01*
X056813Y033771D01*
X056772Y033656D01*
X05677Y033653D01*
X056563D01*
X053003Y037213D01*
Y038853D01*
X053089Y038937D01*
X053114Y038947D01*
X055587D01*
X055947Y038587D01*
D02*
G37*
G36*
X07431Y030769D02*
X074317Y030742D01*
X074328Y030712D01*
X074344Y03068D01*
X074364Y030647D01*
X074389Y030611D01*
X074418Y030574D01*
X07449Y030493D01*
X074533Y03045D01*
X073982D01*
X074025Y030493D01*
X074126Y030611D01*
X074151Y030647D01*
X074171Y03068D01*
X074187Y030712D01*
X074198Y030742D01*
X074205Y030769D01*
X074207Y030795D01*
X074307D01*
X07431Y030769D01*
D02*
G37*
G36*
X068798D02*
X068805Y030742D01*
X068816Y030712D01*
X068832Y03068D01*
X068852Y030647D01*
X068877Y030611D01*
X068906Y030574D01*
X068978Y030493D01*
X069021Y03045D01*
X06847D01*
X068513Y030493D01*
X068614Y030611D01*
X068639Y030647D01*
X06866Y03068D01*
X068675Y030712D01*
X068687Y030742D01*
X068693Y030769D01*
X068696Y030795D01*
X068796D01*
X068798Y030769D01*
D02*
G37*
G36*
X066042D02*
X066049Y030742D01*
X06606Y030712D01*
X066076Y03068D01*
X066096Y030647D01*
X066121Y030611D01*
X06615Y030574D01*
X066222Y030493D01*
X066265Y03045D01*
X065714D01*
X065757Y030493D01*
X065859Y030611D01*
X065883Y030647D01*
X065904Y03068D01*
X065919Y030712D01*
X065931Y030742D01*
X065938Y030769D01*
X06594Y030795D01*
X06604D01*
X066042Y030769D01*
D02*
G37*
G36*
X072932Y028801D02*
X072939Y028773D01*
X07295Y028743D01*
X072966Y028712D01*
X072986Y028678D01*
X073011Y028643D01*
X07304Y028605D01*
X073112Y028524D01*
X073155Y028481D01*
X072604D01*
X072647Y028524D01*
X072748Y028643D01*
X072773Y028678D01*
X072793Y028712D01*
X072809Y028743D01*
X072821Y028773D01*
X072827Y028801D01*
X07283Y028827D01*
X07293D01*
X072932Y028801D01*
D02*
G37*
G36*
X070176D02*
X070183Y028773D01*
X070194Y028743D01*
X07021Y028712D01*
X07023Y028678D01*
X070255Y028643D01*
X070284Y028605D01*
X070356Y028524D01*
X070399Y028481D01*
X069848D01*
X069891Y028524D01*
X069992Y028643D01*
X070017Y028678D01*
X070038Y028712D01*
X070053Y028743D01*
X070065Y028773D01*
X070071Y028801D01*
X070074Y028827D01*
X070174D01*
X070176Y028801D01*
D02*
G37*
G36*
X064664D02*
X064671Y028773D01*
X064682Y028743D01*
X064698Y028712D01*
X064718Y028678D01*
X064743Y028643D01*
X064772Y028605D01*
X064845Y028524D01*
X064887Y028481D01*
X064336D01*
X064379Y028524D01*
X064481Y028643D01*
X064505Y028678D01*
X064526Y028712D01*
X064542Y028743D01*
X064553Y028773D01*
X06456Y028801D01*
X064562Y028827D01*
X064662D01*
X064664Y028801D01*
D02*
G37*
G36*
X056542Y028735D02*
X056548Y028659D01*
X056554Y028625D01*
X056561Y028594D01*
X056569Y028566D01*
X05658Y02854D01*
X056591Y028518D01*
X056605Y028498D01*
X05662Y028481D01*
X056069D01*
X056083Y028498D01*
X056097Y028518D01*
X056109Y02854D01*
X056119Y028566D01*
X056128Y028594D01*
X056135Y028625D01*
X05614Y028659D01*
X056144Y028695D01*
X056147Y028777D01*
X056541D01*
X056542Y028735D01*
D02*
G37*
G36*
X061902Y028801D02*
X061909Y028773D01*
X06192Y028744D01*
X061936Y028712D01*
X061957Y028679D01*
X061982Y028644D01*
X062011Y028607D01*
X062084Y028528D01*
X062127Y028485D01*
X061576Y028477D01*
X061619Y028521D01*
X061719Y028641D01*
X061744Y028677D01*
X061764Y028711D01*
X06178Y028743D01*
X061791Y028773D01*
X061798Y0288D01*
X0618Y028826D01*
X0619Y028827D01*
X061902Y028801D01*
D02*
G37*
G36*
X040421Y024792D02*
X040406Y024775D01*
X040393Y024758D01*
X040382Y024741D01*
X040372Y024724D01*
X040364Y024708D01*
X040358Y024691D01*
X040354Y024674D01*
X040351Y024658D01*
X04035Y024641D01*
X04025D01*
X040249Y024658D01*
X040246Y024674D01*
X040242Y024691D01*
X040236Y024708D01*
X040228Y024724D01*
X040218Y024741D01*
X040207Y024758D01*
X040194Y024775D01*
X040179Y024792D01*
X040162Y024809D01*
X040438D01*
X040421Y024792D01*
D02*
G37*
G36*
X033401Y020876D02*
X033405Y020856D01*
X033411Y020836D01*
X03342Y020815D01*
X033431Y020794D01*
X033445Y020772D01*
X033461Y020749D01*
X03348Y020726D01*
X033525Y020679D01*
X033175D01*
X033199Y020703D01*
X033239Y020749D01*
X033255Y020772D01*
X033269Y020794D01*
X03328Y020815D01*
X033289Y020836D01*
X033295Y020856D01*
X033299Y020876D01*
X0333Y020895D01*
X0334D01*
X033401Y020876D01*
D02*
G37*
G36*
X052447Y020097D02*
X05238Y020021D01*
X052354Y019985D01*
X052331Y01995D01*
X052312Y019917D01*
X052298Y019884D01*
X052287Y019853D01*
X052281Y019823D01*
X052279Y019795D01*
X052141D01*
X052139Y019823D01*
X052133Y019853D01*
X052123Y019884D01*
X052108Y019917D01*
X05209Y01995D01*
X052067Y019985D01*
X05204Y020021D01*
X052009Y020059D01*
X051935Y020137D01*
X052486D01*
X052447Y020097D01*
D02*
G37*
G36*
X037125Y019496D02*
X037113Y019481D01*
X037103Y019466D01*
X037094Y019451D01*
X037086Y019435D01*
X03708Y019419D01*
X037075Y019402D01*
X037072Y019384D01*
X03707Y019366D01*
X037069Y019347D01*
X036931D01*
X03693Y019366D01*
X036928Y019384D01*
X036925Y019402D01*
X03692Y019419D01*
X036914Y019435D01*
X036906Y019451D01*
X036897Y019466D01*
X036887Y019481D01*
X036875Y019496D01*
X036862Y019509D01*
X037138D01*
X037125Y019496D01*
D02*
G37*
G36*
X072876Y018056D02*
X07282Y018056D01*
X072719Y018049D01*
X072675Y018042D01*
X072634Y018034D01*
X072597Y018023D01*
X072564Y01801D01*
X072534Y017996D01*
X072509Y017979D01*
X072487Y01796D01*
X07239Y018058D01*
X072408Y018079D01*
X072425Y018105D01*
X07244Y018134D01*
X072453Y018167D01*
X072463Y018204D01*
X072472Y018245D01*
X072478Y01829D01*
X072483Y018338D01*
X072486Y018446D01*
X072876Y018056D01*
D02*
G37*
G36*
X067364D02*
X067308Y018056D01*
X067207Y018049D01*
X067163Y018042D01*
X067122Y018034D01*
X067085Y018023D01*
X067052Y01801D01*
X067023Y017996D01*
X066997Y017979D01*
X066975Y01796D01*
X066878Y018058D01*
X066897Y018079D01*
X066913Y018105D01*
X066928Y018134D01*
X066941Y018167D01*
X066951Y018204D01*
X06696Y018245D01*
X066967Y01829D01*
X066971Y018338D01*
X066974Y018446D01*
X067364Y018056D01*
D02*
G37*
G36*
X064608D02*
X064552Y018056D01*
X064451Y018049D01*
X064407Y018042D01*
X064366Y018034D01*
X064329Y018023D01*
X064296Y01801D01*
X064267Y017996D01*
X064241Y017979D01*
X064219Y01796D01*
X064122Y018058D01*
X064141Y018079D01*
X064158Y018105D01*
X064172Y018134D01*
X064185Y018167D01*
X064196Y018204D01*
X064204Y018245D01*
X064211Y01829D01*
X064215Y018338D01*
X064218Y018446D01*
X064608Y018056D01*
D02*
G37*
G36*
X07036Y018129D02*
X070294Y018053D01*
X070267Y018017D01*
X070244Y017982D01*
X070226Y017948D01*
X070211Y017916D01*
X070201Y017885D01*
X070195Y017855D01*
X070193Y017826D01*
X070055D01*
X070053Y017855D01*
X070046Y017885D01*
X070036Y017916D01*
X070022Y017948D01*
X070003Y017982D01*
X06998Y018017D01*
X069953Y018053D01*
X069922Y01809D01*
X069848Y018169D01*
X070399D01*
X07036Y018129D01*
D02*
G37*
G36*
X051069D02*
X051002Y018053D01*
X050976Y018017D01*
X050953Y017982D01*
X050934Y017948D01*
X05092Y017916D01*
X050909Y017885D01*
X050903Y017855D01*
X050901Y017826D01*
X050763D01*
X050761Y017855D01*
X050755Y017885D01*
X050745Y017916D01*
X05073Y017948D01*
X050712Y017982D01*
X050689Y018017D01*
X050662Y018053D01*
X050631Y01809D01*
X050557Y018169D01*
X051108D01*
X051069Y018129D01*
D02*
G37*
G36*
X073055Y014901D02*
X073037Y01488D01*
X073021Y014859D01*
X073007Y014838D01*
X072995Y014817D01*
X072986Y014795D01*
X072978Y014774D01*
X072973Y014753D01*
X07297Y014731D01*
X072969Y01471D01*
X072831D01*
X07283Y014731D01*
X072827Y014753D01*
X072822Y014774D01*
X072814Y014795D01*
X072805Y014817D01*
X072793Y014838D01*
X072779Y014859D01*
X072763Y01488D01*
X072745Y014901D01*
X072725Y014921D01*
X073075D01*
X073055Y014901D01*
D02*
G37*
G36*
X070405D02*
X070387Y01488D01*
X070371Y014859D01*
X070357Y014838D01*
X070345Y014817D01*
X070336Y014795D01*
X070328Y014774D01*
X070323Y014753D01*
X07032Y014731D01*
X070319Y01471D01*
X070181D01*
X07018Y014731D01*
X070177Y014753D01*
X070172Y014774D01*
X070164Y014795D01*
X070155Y014817D01*
X070143Y014838D01*
X070129Y014859D01*
X070113Y01488D01*
X070095Y014901D01*
X070075Y014921D01*
X070425D01*
X070405Y014901D01*
D02*
G37*
G36*
X067455D02*
X067437Y01488D01*
X067421Y014859D01*
X067407Y014838D01*
X067395Y014817D01*
X067386Y014795D01*
X067378Y014774D01*
X067373Y014753D01*
X06737Y014731D01*
X067369Y01471D01*
X067231D01*
X06723Y014731D01*
X067227Y014753D01*
X067222Y014774D01*
X067214Y014795D01*
X067205Y014817D01*
X067193Y014838D01*
X067179Y014859D01*
X067163Y01488D01*
X067145Y014901D01*
X067125Y014921D01*
X067475D01*
X067455Y014901D01*
D02*
G37*
G36*
X064705Y014851D02*
X064687Y01483D01*
X064671Y014809D01*
X064657Y014788D01*
X064645Y014767D01*
X064636Y014745D01*
X064628Y014724D01*
X064623Y014703D01*
X06462Y014681D01*
X064619Y01466D01*
X064481D01*
X06448Y014681D01*
X064477Y014703D01*
X064472Y014724D01*
X064464Y014745D01*
X064455Y014767D01*
X064443Y014788D01*
X064429Y014809D01*
X064413Y01483D01*
X064395Y014851D01*
X064375Y014871D01*
X064725D01*
X064705Y014851D01*
D02*
G37*
G36*
X035913Y013215D02*
X0359Y013202D01*
X035889Y013187D01*
X035879Y013172D01*
X03587Y013157D01*
X035863Y013141D01*
X035857Y013124D01*
X035852Y013107D01*
X035849Y013089D01*
X035847Y013071D01*
X035847Y013052D01*
X035652Y013247D01*
X035671Y013247D01*
X035689Y013249D01*
X035707Y013252D01*
X035724Y013257D01*
X035741Y013263D01*
X035757Y01327D01*
X035772Y013279D01*
X035787Y013289D01*
X035802Y0133D01*
X035815Y013313D01*
X035913Y013215D01*
D02*
G37*
G36*
X039563Y013165D02*
X03955Y013152D01*
X039539Y013137D01*
X039529Y013122D01*
X03952Y013107D01*
X039513Y013091D01*
X039507Y013074D01*
X039502Y013057D01*
X039499Y013039D01*
X039497Y013021D01*
X039497Y013002D01*
X039302Y013197D01*
X039321Y013197D01*
X039339Y013199D01*
X039357Y013202D01*
X039374Y013207D01*
X039391Y013213D01*
X039407Y01322D01*
X039422Y013229D01*
X039437Y013239D01*
X039452Y01325D01*
X039465Y013263D01*
X039563Y013165D01*
D02*
G37*
G36*
X033913D02*
X0339Y013152D01*
X033889Y013137D01*
X033879Y013122D01*
X03387Y013107D01*
X033863Y013091D01*
X033857Y013074D01*
X033852Y013057D01*
X033849Y013039D01*
X033847Y013021D01*
X033847Y013002D01*
X033652Y013197D01*
X033671Y013197D01*
X033689Y013199D01*
X033707Y013202D01*
X033724Y013207D01*
X033741Y013213D01*
X033757Y01322D01*
X033772Y013229D01*
X033787Y013239D01*
X033802Y01325D01*
X033815Y013263D01*
X033913Y013165D01*
D02*
G37*
G36*
X037613Y013165D02*
X0376Y013152D01*
X037589Y013137D01*
X037579Y013122D01*
X03757Y013107D01*
X037563Y013091D01*
X037557Y013074D01*
X037552Y013057D01*
X037549Y013039D01*
X037547Y013021D01*
X037547Y013002D01*
X037352Y013197D01*
X037371Y013197D01*
X037389Y013199D01*
X037407Y013202D01*
X037424Y013207D01*
X037441Y013213D01*
X037457Y01322D01*
X037472Y013229D01*
X037487Y013239D01*
X037502Y01325D01*
X037515Y013263D01*
X037613Y013165D01*
D02*
G37*
G36*
X041373Y013184D02*
X041388Y013181D01*
X041424Y013176D01*
X04147Y013172D01*
X041588Y013169D01*
X041612Y013031D01*
X041593Y01303D01*
X041575Y013028D01*
X041559Y013024D01*
X041544Y013019D01*
X041531Y013012D01*
X04152Y013003D01*
X04151Y012993D01*
X041502Y012981D01*
X041496Y012968D01*
X041491Y012953D01*
X04136Y013187D01*
X041373Y013184D01*
D02*
G37*
G36*
X041839Y012277D02*
X041822Y012258D01*
X041807Y012236D01*
X041794Y012212D01*
X041783Y012186D01*
X041773Y012156D01*
X041766Y012125D01*
X04176Y01209D01*
X041756Y012053D01*
X041753Y011972D01*
X041436Y012288D01*
X041478Y012289D01*
X041555Y012295D01*
X041589Y012301D01*
X041621Y012309D01*
X04165Y012318D01*
X041677Y012329D01*
X041701Y012342D01*
X041722Y012357D01*
X041741Y012374D01*
X041839Y012277D01*
D02*
G37*
G36*
X039839D02*
X039822Y012258D01*
X039807Y012236D01*
X039794Y012212D01*
X039783Y012186D01*
X039773Y012156D01*
X039766Y012125D01*
X03976Y01209D01*
X039756Y012053D01*
X039753Y011972D01*
X039436Y012288D01*
X039478Y012289D01*
X039555Y012295D01*
X039589Y012301D01*
X039621Y012309D01*
X03965Y012318D01*
X039677Y012329D01*
X039701Y012342D01*
X039722Y012357D01*
X039741Y012374D01*
X039839Y012277D01*
D02*
G37*
G36*
X037839D02*
X037822Y012258D01*
X037807Y012236D01*
X037794Y012212D01*
X037783Y012186D01*
X037773Y012156D01*
X037766Y012125D01*
X03776Y01209D01*
X037756Y012053D01*
X037753Y011972D01*
X037436Y012288D01*
X037478Y012289D01*
X037555Y012295D01*
X037589Y012301D01*
X037621Y012309D01*
X03765Y012318D01*
X037677Y012329D01*
X037701Y012342D01*
X037722Y012357D01*
X037741Y012374D01*
X037839Y012277D01*
D02*
G37*
G36*
X035839D02*
X035822Y012258D01*
X035807Y012236D01*
X035794Y012212D01*
X035783Y012186D01*
X035773Y012156D01*
X035766Y012125D01*
X03576Y01209D01*
X035756Y012053D01*
X035753Y011972D01*
X035436Y012288D01*
X035478Y012289D01*
X035555Y012295D01*
X035589Y012301D01*
X035621Y012309D01*
X03565Y012318D01*
X035677Y012329D01*
X035701Y012342D01*
X035722Y012357D01*
X035741Y012374D01*
X035839Y012277D01*
D02*
G37*
G36*
X033839D02*
X033822Y012258D01*
X033807Y012236D01*
X033794Y012212D01*
X033783Y012186D01*
X033773Y012156D01*
X033766Y012125D01*
X03376Y01209D01*
X033756Y012053D01*
X033753Y011972D01*
X033436Y012288D01*
X033478Y012289D01*
X033555Y012295D01*
X033589Y012301D01*
X033621Y012309D01*
X03365Y012318D01*
X033677Y012329D01*
X033701Y012342D01*
X033722Y012357D01*
X033741Y012374D01*
X033839Y012277D01*
D02*
G37*
G36*
X024094Y012248D02*
X024078Y01223D01*
X024064Y01221D01*
X024051Y012188D01*
X02404Y012164D01*
X024031Y012137D01*
X024024Y012108D01*
X024018Y012077D01*
X024014Y012044D01*
X024012Y012009D01*
X024012Y011971D01*
X023719Y012264D01*
X023757Y012264D01*
X023825Y01227D01*
X023856Y012276D01*
X023885Y012283D01*
X023912Y012292D01*
X023936Y012303D01*
X023958Y012315D01*
X023978Y01233D01*
X023996Y012346D01*
X024094Y012248D01*
D02*
G37*
D16*
X041441Y04435D02*
X0485D01*
X0341Y051339D02*
X037668Y047771D01*
X03802D01*
X034047Y051339D02*
X0341D01*
X03802Y047771D02*
X041441Y04435D01*
X0551Y0323D02*
X0616D01*
X06185Y028206D02*
X061856Y0282D01*
X06185Y028206D02*
Y03205D01*
X0616Y0323D02*
X06185Y03205D01*
X0515Y0359D02*
Y03835D01*
X0485Y04135D02*
X0515Y03835D01*
X0485Y04135D02*
Y04315D01*
X03775Y0447D02*
X0389Y04355D01*
X03775Y0447D02*
Y045636D01*
X0389Y04355D02*
X0481D01*
X0515Y0359D02*
X0551Y0323D01*
X0481Y04355D02*
X0485Y04315D01*
X032047Y051339D02*
X03775Y045636D01*
X0399Y0229D02*
X0403Y0233D01*
Y02495D01*
X03375Y0229D02*
X0399D01*
X03335Y0205D02*
Y0225D01*
X03375Y0229D01*
X041561Y045825D02*
X046125D01*
X046799Y045401D02*
X0469Y0453D01*
X046549Y045401D02*
X046799D01*
X046125Y045825D02*
X046549Y045401D01*
X0461Y0463D02*
X0466Y0458D01*
X0455Y0463D02*
X0461D01*
X0489Y0414D02*
X051157Y039143D01*
X051158D01*
X05185Y038452D01*
X0489Y0414D02*
Y0434D01*
X05185Y03625D02*
Y038452D01*
X04925Y041643D02*
X05225Y038643D01*
X05255Y0368D02*
Y0388D01*
X0496Y04175D02*
Y04545D01*
X04925Y041643D02*
Y0436D01*
X05225Y0365D02*
Y038643D01*
X0496Y04175D02*
X05255Y0388D01*
X04985Y0419D02*
X05285Y0389D01*
Y03715D02*
Y0389D01*
X0531Y0391D02*
X05565D01*
X0502Y042D02*
X0531Y0391D01*
X04985Y0419D02*
Y0458D01*
X0502Y042D02*
Y04615D01*
X05185Y03625D02*
X0555Y0326D01*
X05225Y0365D02*
X05585Y0329D01*
X05285Y03715D02*
X0565Y0335D01*
X05255Y0368D02*
X05615Y0332D01*
X04835Y04395D02*
X0489Y0434D01*
X0485Y04435D02*
X04925Y0436D01*
X040436Y04395D02*
X04835D01*
X04925Y0458D02*
X0496Y04545D01*
X04935Y0463D02*
X04985Y0458D01*
X033047Y051339D02*
X040436Y04395D01*
X064612Y0282D02*
Y032138D01*
X06415Y0326D02*
X064612Y032138D01*
X0555Y0326D02*
X06415D01*
X05585Y0329D02*
X06535D01*
X06599Y03226D01*
Y030168D02*
Y03226D01*
X05085Y0423D02*
Y04645D01*
X04865Y04905D02*
X05115Y04655D01*
X04855Y04875D02*
X05085Y04645D01*
X05115Y0425D02*
Y04655D01*
Y0425D02*
X05335Y0403D01*
X05055Y04205D02*
Y0463D01*
X0484Y04845D02*
X05055Y0463D01*
Y04205D02*
X0531Y0395D01*
X05085Y0423D02*
X0533Y03985D01*
X04815Y0482D02*
X0502Y04615D01*
X05645Y03495D02*
Y03885D01*
X0565Y0335D02*
X0689D01*
X0561Y0347D02*
X05695Y03385D01*
X05645Y03495D02*
X0572Y0342D01*
X0729D01*
X0561Y0347D02*
Y03865D01*
X05695Y03385D02*
X07185D01*
X0683Y0332D02*
X068746Y032754D01*
X05615Y0332D02*
X0683D01*
X0689Y0335D02*
X070124Y032276D01*
X068746Y030168D02*
Y032754D01*
X070124Y0282D02*
Y032276D01*
X07185Y03385D02*
X07288Y03282D01*
Y0282D02*
Y03282D01*
X0466Y0458D02*
X04925D01*
X0469Y0463D02*
X04935D01*
X05565Y0391D02*
X0561Y03865D01*
X0558Y0395D02*
X05645Y03885D01*
X0531Y0395D02*
X0558D01*
X036047Y051339D02*
X041561Y045825D01*
X035047Y051339D02*
X041086Y0453D01*
X0455D01*
X039047Y051339D02*
X042186Y0482D01*
X04815D01*
X040047Y051339D02*
X042936Y04845D01*
X0484D01*
X042047Y050503D02*
X0435Y04905D01*
X04865D01*
X042047Y050503D02*
Y051339D01*
X074257Y030168D02*
Y032843D01*
X0729Y0342D02*
X074257Y032843D01*
X041131Y050869D02*
X04325Y04875D01*
X04855D01*
X041047Y051339D02*
X041131Y051254D01*
Y050869D02*
Y051254D01*
X0533Y03985D02*
X0582D01*
X0585Y0403D02*
X0592Y0396D01*
Y038251D02*
Y0396D01*
X05335Y0403D02*
X0585D01*
D90*
X037Y0157D02*
Y01965D01*
X0368Y0155D02*
X037Y0157D01*
X027248Y0155D02*
X0368D01*
X03365Y013D02*
X0358Y01515D01*
X03735Y013D02*
X03735D01*
X0385Y01415D02*
X0493D01*
X037865Y0144D02*
X04915D01*
X03565Y01305D02*
X03725Y01465D01*
X0358Y01515D02*
X04875D01*
X036365Y0149D02*
X04885D01*
X033433Y011968D02*
X036365Y0149D01*
X03725Y01465D02*
X049D01*
X035433Y011968D02*
X037865Y0144D01*
X03735Y013D02*
X0385Y01415D01*
X04875Y01515D02*
X0493Y0157D01*
Y01415D02*
X04985Y0147D01*
X04885Y0149D02*
X0494Y01545D01*
X049Y01465D02*
X04955Y0152D01*
X039365Y0139D02*
X04945D01*
X037433Y011968D02*
X039365Y0139D01*
X04945D02*
X05Y01445D01*
X04915Y0144D02*
X0497Y01495D01*
X023717Y011968D02*
X027248Y0155D01*
X0493Y0157D02*
X0506D01*
X050832Y015932D02*
Y01845D01*
X0506Y0157D02*
X050832Y015932D01*
X0494Y01545D02*
X0514D01*
X04955Y0152D02*
X0534D01*
X0497Y01495D02*
X05325D01*
X0514Y01545D02*
X05221Y01626D01*
X0393Y013D02*
X03995Y01365D01*
X0496D01*
X05015Y0142D01*
X042265Y0128D02*
X0499D01*
X041433Y011968D02*
X042265Y0128D01*
X0499D02*
X05055Y01345D01*
X0498Y0131D02*
X0504Y0137D01*
X0413Y013D02*
X041369D01*
X041469Y0131D01*
X0498D01*
X0729Y01225D02*
Y0151D01*
X05425Y01145D02*
X0721D01*
X0729Y01225D01*
X05225Y01345D02*
X05425Y01145D01*
X07195Y0118D02*
X07235Y0122D01*
X054334Y0118D02*
X07195D01*
X07235Y0122D02*
Y01792D01*
X052434Y0137D02*
X054334Y0118D01*
X06945Y0122D02*
X07025Y013D01*
X0526Y01395D02*
X05435Y0122D01*
X06945D01*
X05445Y01415D02*
X0639D01*
X0534Y0152D02*
X05445Y01415D01*
X0544Y0138D02*
X0644D01*
X05325Y01495D02*
X0544Y0138D01*
X04985Y0147D02*
X0531D01*
X0544Y0134D01*
X0503Y01395D02*
X0526D01*
X05015Y0142D02*
X0528D01*
X05445Y01255D02*
X06925D01*
X0528Y0142D02*
X05445Y01255D01*
X05055Y01345D02*
X05225D01*
X0504Y0137D02*
X052434D01*
X04975Y0134D02*
X0503Y01395D01*
X040865Y0134D02*
X04975D01*
X05445Y01295D02*
X06665D01*
X0544Y0134D02*
X0662D01*
X05295Y01445D02*
X05445Y01295D01*
X05Y01445D02*
X05295D01*
X05221Y01626D02*
Y020419D01*
X0641Y017938D02*
X064612Y01845D01*
X0639Y01415D02*
X0641Y01435D01*
Y017938D01*
X06455Y01395D02*
Y01505D01*
X0644Y0138D02*
X06455Y01395D01*
X0662Y0134D02*
X06655Y01375D01*
X06665Y01295D02*
X0673Y0136D01*
X06655Y017632D02*
X067368Y01845D01*
X06655Y01375D02*
Y017632D01*
X0673Y0136D02*
Y0151D01*
X069831Y016454D02*
X070124Y016747D01*
X07025Y013D02*
Y0151D01*
X06925Y01255D02*
X069831Y013131D01*
Y016454D01*
X070124Y016747D02*
Y01845D01*
X07235Y01792D02*
X07288Y01845D01*
X039433Y011968D02*
X040865Y0134D01*
D91*
X02705Y052419D02*
X027281Y05265D01*
X02705Y051339D02*
Y052419D01*
X027281Y05265D02*
X03085D01*
X058336Y04945D02*
X059244Y050358D01*
X044278Y04945D02*
X058336D01*
X044047Y049681D02*
Y051339D01*
Y049681D02*
X044278Y04945D01*
X035094Y040706D02*
X039644D01*
X040637Y039713D01*
X0308Y0476D02*
X036706Y041694D01*
X046206D02*
X0503Y0376D01*
X0336Y0422D02*
X035094Y040706D01*
X036706Y041694D02*
X046206D01*
X059244Y050358D02*
X060244D01*
X0336Y0422D02*
Y0433D01*
X03725Y02445D02*
X040637Y027837D01*
Y039713D01*
X02945Y04745D02*
X0336Y0433D01*
X02385Y047681D02*
Y052466D01*
Y047681D02*
X024081Y04745D01*
X02945D01*
X024081Y052696D02*
X025819D01*
X02385Y052466D02*
X024081Y052696D01*
X02605Y051339D02*
Y052466D01*
X025819Y052696D02*
X02605Y052466D01*
X028326Y0521D02*
X030569D01*
X0308Y051869D01*
Y0476D02*
Y051869D01*
X03085Y05265D02*
X03135Y05215D01*
X028095Y051869D02*
X028326Y0521D01*
X028095Y051384D02*
Y051869D01*
X03135Y0493D02*
Y05215D01*
Y0493D02*
X0383Y04235D01*
X02805Y051339D02*
X028095Y051384D01*
X04675Y04235D02*
X051Y0381D01*
X0383Y04235D02*
X04675D01*
X0503Y03525D02*
X05313Y03242D01*
X0503Y03525D02*
Y0376D01*
X05313Y03167D02*
X05315Y03165D01*
X05313Y03167D02*
Y03242D01*
X051Y03555D02*
X0549Y03165D01*
X051Y03555D02*
Y0381D01*
X0549Y03165D02*
X0556D01*
X056344Y0282D02*
Y030906D01*
X0556Y03165D02*
X056344Y030906D01*
D94*
X072024Y051398D02*
D03*
X059244Y050358D02*
D03*
X060244D02*
D03*
X061244D02*
D03*
X062244D02*
D03*
D96*
X033433Y011968D02*
D03*
X035433D02*
D03*
X037433D02*
D03*
X039433D02*
D03*
X041433D02*
D03*
X043433D02*
D03*
X044433D02*
D03*
X045047Y051339D02*
D03*
X044047D02*
D03*
X042047D02*
D03*
X041047D02*
D03*
X040047D02*
D03*
X039047D02*
D03*
X036047D02*
D03*
X035047D02*
D03*
X034047D02*
D03*
X033047D02*
D03*
D97*
X032047D02*
D03*
D101*
X07288Y01845D02*
D03*
X064612D02*
D03*
X067368D02*
D03*
X070124D02*
D03*
X05221Y020419D02*
D03*
X0591Y01845D02*
D03*
X050832D02*
D03*
X063234Y020419D02*
D03*
X061856Y0282D02*
D03*
X07288D02*
D03*
X064612D02*
D03*
X067368D02*
D03*
X070124D02*
D03*
X0591D02*
D03*
X053588D02*
D03*
X056344D02*
D03*
X063234Y030168D02*
D03*
X06599D02*
D03*
X068746D02*
D03*
X071502D02*
D03*
X075635Y0282D02*
D03*
X074257Y030168D02*
D03*
D102*
X046698Y020419D02*
D03*
D103*
X064119Y037692D02*
D03*
X054281D02*
D03*
D104*
X057019Y038251D02*
D03*
X0592D02*
D03*
X024717Y011968D02*
D03*
X023717D02*
D03*
X025717D02*
D03*
D105*
X02505Y051339D02*
D03*
X02605D02*
D03*
X02705D02*
D03*
X02805D02*
D03*
X02905D02*
D03*
D107*
X029275Y043465D02*
D03*
D108*
X030137Y031406D02*
D03*
D110*
X02075Y05135D02*
D03*
X01625D02*
D03*
D111*
X052913Y04725D02*
D03*
D113*
X0455Y0453D02*
D03*
D114*
X0469Y0463D02*
D03*
Y0453D02*
D03*
X0455Y0463D02*
D03*
D115*
X01265Y04955D02*
D03*
X04455Y0197D02*
D03*
D122*
X0376Y0373D02*
D03*
X07975Y0361D02*
D03*
X07965Y0422D02*
D03*
X0339Y0438D02*
D03*
X04175Y043D02*
D03*
X0386Y0412D02*
D03*
X03865Y04665D02*
D03*
X0385Y0176D02*
D03*
X037Y0211D02*
D03*
X032847Y0179D02*
D03*
X0333Y03305D02*
D03*
X0403Y02495D02*
D03*
X037Y01965D02*
D03*
X03735Y013D02*
D03*
X0413D02*
D03*
X0582Y03985D02*
D03*
X0393Y013D02*
D03*
X03565Y01305D02*
D03*
X03365Y013D02*
D03*
X0759Y0361D02*
D03*
D123*
Y04185D02*
D03*
X06455Y01505D02*
D03*
X0673Y0151D02*
D03*
X07025D02*
D03*
X0729D02*
D03*
X0769Y047D02*
D03*
X03335Y0205D02*
D03*
X03725Y02445D02*
D03*
X05315Y03165D02*
D03*
X06755Y0437D02*
D03*
X0699Y0378D02*
D03*
M02*
