G04*
G04 #@! TF.GenerationSoftware,Altium Limited,Altium Designer,20.1.7 (139)*
G04*
G04 Layer_Color=128*
%FSTAX24Y24*%
%MOIN*%
G70*
G04*
G04 #@! TF.SameCoordinates,F0BF9DC0-9546-437B-B132-7D81F4AFA61C*
G04*
G04*
G04 #@! TF.FilePolarity,Positive*
G04*
G01*
G75*
%ADD23R,0.0550X0.0394*%
%ADD25R,0.0394X0.0550*%
%ADD34R,0.0550X0.0500*%
%ADD35R,0.0354X0.0472*%
%ADD36R,0.0354X0.0472*%
%ADD125R,0.0866X0.0610*%
%ADD126R,0.0610X0.0866*%
%ADD127R,0.0630X0.2205*%
%ADD128R,0.0709X0.1378*%
%ADD129R,0.1378X0.0709*%
%ADD130R,0.0610X0.0886*%
%ADD131R,0.0500X0.0550*%
%ADD132R,0.0236X0.0492*%
%ADD133R,0.0787X0.0728*%
%ADD134R,0.0787X0.0315*%
%ADD135R,0.0472X0.0236*%
G04:AMPARAMS|DCode=136|XSize=19.7mil|YSize=19.7mil|CornerRadius=4.9mil|HoleSize=0mil|Usage=FLASHONLY|Rotation=90.000|XOffset=0mil|YOffset=0mil|HoleType=Round|Shape=RoundedRectangle|*
%AMROUNDEDRECTD136*
21,1,0.0197,0.0098,0,0,90.0*
21,1,0.0098,0.0197,0,0,90.0*
1,1,0.0098,0.0049,0.0049*
1,1,0.0098,0.0049,-0.0049*
1,1,0.0098,-0.0049,-0.0049*
1,1,0.0098,-0.0049,0.0049*
%
%ADD136ROUNDEDRECTD136*%
G04:AMPARAMS|DCode=137|XSize=19.7mil|YSize=19.7mil|CornerRadius=4.9mil|HoleSize=0mil|Usage=FLASHONLY|Rotation=0.000|XOffset=0mil|YOffset=0mil|HoleType=Round|Shape=RoundedRectangle|*
%AMROUNDEDRECTD137*
21,1,0.0197,0.0098,0,0,0.0*
21,1,0.0098,0.0197,0,0,0.0*
1,1,0.0098,0.0049,-0.0049*
1,1,0.0098,-0.0049,-0.0049*
1,1,0.0098,-0.0049,0.0049*
1,1,0.0098,0.0049,0.0049*
%
%ADD137ROUNDEDRECTD137*%
G04:AMPARAMS|DCode=138|XSize=11.8mil|YSize=60mil|CornerRadius=3mil|HoleSize=0mil|Usage=FLASHONLY|Rotation=90.000|XOffset=0mil|YOffset=0mil|HoleType=Round|Shape=RoundedRectangle|*
%AMROUNDEDRECTD138*
21,1,0.0118,0.0541,0,0,90.0*
21,1,0.0059,0.0600,0,0,90.0*
1,1,0.0059,0.0270,0.0030*
1,1,0.0059,0.0270,-0.0030*
1,1,0.0059,-0.0270,-0.0030*
1,1,0.0059,-0.0270,0.0030*
%
%ADD138ROUNDEDRECTD138*%
%ADD139R,0.0512X0.1063*%
%ADD140R,0.0236X0.0453*%
%ADD141R,0.0965X0.0610*%
%ADD142R,0.0600X0.0256*%
%ADD143R,0.0236X0.0472*%
%ADD144O,0.0512X0.0866*%
%ADD145R,0.0886X0.0610*%
%ADD146R,0.0256X0.0600*%
%ADD147R,0.0610X0.0965*%
%ADD148R,0.0177X0.0581*%
%ADD149R,0.0165X0.0217*%
%ADD150R,0.0709X0.1299*%
%ADD151R,0.0561X0.0177*%
%ADD155R,0.0774X0.0283*%
G36*
X0119Y026D02*
X0117Y0258D01*
X0114D01*
Y0262D01*
X0117D01*
X0119Y026D01*
D02*
G37*
G36*
Y0269D02*
X0117Y0267D01*
X0114D01*
Y0271D01*
X0117D01*
X0119Y0269D01*
D02*
G37*
G36*
X01595Y02875D02*
X01575Y02855D01*
X01555Y02875D01*
Y02905D01*
X01595D01*
Y02875D01*
D02*
G37*
G36*
X0184Y02995D02*
Y02965D01*
X018D01*
Y02995D01*
X0182Y03015D01*
X0184Y02995D01*
D02*
G37*
D23*
X07105Y03565D02*
D03*
Y03655D02*
D03*
X0139Y0419D02*
D03*
Y0428D02*
D03*
X04625Y0366D02*
D03*
Y0375D02*
D03*
X03845Y03485D02*
D03*
Y03575D02*
D03*
X07405Y03655D02*
D03*
Y03565D02*
D03*
X0731Y03655D02*
D03*
Y03565D02*
D03*
X0721Y03655D02*
D03*
Y03565D02*
D03*
X0472Y0366D02*
D03*
Y0375D02*
D03*
X04195Y02115D02*
D03*
Y02205D02*
D03*
X04095Y02115D02*
D03*
Y02205D02*
D03*
X04Y02115D02*
D03*
Y02205D02*
D03*
X04195Y02275D02*
D03*
Y02365D02*
D03*
X0379Y02355D02*
D03*
Y02445D02*
D03*
X02465Y02995D02*
D03*
Y02905D02*
D03*
X01855Y0208D02*
D03*
Y0199D02*
D03*
X01765Y0208D02*
D03*
Y0199D02*
D03*
X02095Y023D02*
D03*
Y0239D02*
D03*
X01645Y0459D02*
D03*
Y045D02*
D03*
X02155Y0184D02*
D03*
Y0193D02*
D03*
X02245Y0184D02*
D03*
Y0193D02*
D03*
X01995Y0239D02*
D03*
Y023D02*
D03*
D25*
X01635Y04105D02*
D03*
X01545D02*
D03*
X01575Y0439D02*
D03*
X01485D02*
D03*
X0409Y0323D02*
D03*
X0418D02*
D03*
X0394Y0278D02*
D03*
X0403D02*
D03*
X03785D02*
D03*
X03875D02*
D03*
X03785Y0291D02*
D03*
X03875D02*
D03*
X0379Y0304D02*
D03*
X0388D02*
D03*
X02275Y02295D02*
D03*
X02185D02*
D03*
X02275Y02205D02*
D03*
X02185D02*
D03*
X0393Y0364D02*
D03*
X0402D02*
D03*
X02295Y031D02*
D03*
X02385D02*
D03*
X02395Y0265D02*
D03*
X02305D02*
D03*
X02395Y0273D02*
D03*
X02305D02*
D03*
X0183Y02785D02*
D03*
X0174D02*
D03*
X0139Y02685D02*
D03*
X013D02*
D03*
X013Y0258D02*
D03*
X0139D02*
D03*
X0115Y0281D02*
D03*
X0124D02*
D03*
X01315Y02215D02*
D03*
X01405D02*
D03*
X01145D02*
D03*
X01235D02*
D03*
X0149Y02365D02*
D03*
X0158D02*
D03*
X0286Y02335D02*
D03*
X0277D02*
D03*
X0286Y02245D02*
D03*
X0277D02*
D03*
X02845Y03625D02*
D03*
X02755D02*
D03*
X02845Y03705D02*
D03*
X02755D02*
D03*
D34*
X037Y01875D02*
D03*
Y01965D02*
D03*
X0376Y0348D02*
D03*
Y0357D02*
D03*
X04125Y03505D02*
D03*
Y03595D02*
D03*
X0379Y0218D02*
D03*
Y0227D02*
D03*
X02095Y04295D02*
D03*
Y04205D02*
D03*
Y04465D02*
D03*
Y04375D02*
D03*
X0219D02*
D03*
Y04465D02*
D03*
X02215Y02865D02*
D03*
Y02955D02*
D03*
X0167Y01985D02*
D03*
Y02075D02*
D03*
X01945Y0199D02*
D03*
Y0208D02*
D03*
X0175Y02695D02*
D03*
Y02605D02*
D03*
X01845Y02695D02*
D03*
Y02605D02*
D03*
X01925Y02695D02*
D03*
Y02605D02*
D03*
D35*
X037Y0211D02*
D03*
D36*
X0358D02*
D03*
D125*
X040193Y01755D02*
D03*
X041807D02*
D03*
D126*
X06185Y024693D02*
D03*
Y026307D02*
D03*
X051Y016757D02*
D03*
Y015143D02*
D03*
X0673Y016707D02*
D03*
Y015093D02*
D03*
X06455Y016707D02*
D03*
Y015093D02*
D03*
X0702Y016757D02*
D03*
Y015143D02*
D03*
X0729Y016707D02*
D03*
Y015093D02*
D03*
X066Y02635D02*
D03*
Y024736D02*
D03*
X0645Y026357D02*
D03*
Y024743D02*
D03*
X06865Y026357D02*
D03*
Y024743D02*
D03*
X06035Y03555D02*
D03*
Y033936D02*
D03*
X04945Y016757D02*
D03*
Y015143D02*
D03*
X0568Y016657D02*
D03*
Y015043D02*
D03*
X0588Y033943D02*
D03*
Y035557D02*
D03*
X05775Y024693D02*
D03*
Y026307D02*
D03*
X06065Y014993D02*
D03*
Y016607D02*
D03*
X0745Y024743D02*
D03*
Y026357D02*
D03*
X07295Y024743D02*
D03*
Y026357D02*
D03*
X0479Y015143D02*
D03*
Y016757D02*
D03*
X0702Y024743D02*
D03*
Y026357D02*
D03*
D127*
X050849Y0244D02*
D03*
X04955D02*
D03*
X048251D02*
D03*
X037199Y04175D02*
D03*
X0359D02*
D03*
X034601D02*
D03*
D128*
X055Y03165D02*
D03*
X05315D02*
D03*
D129*
X05845Y016725D02*
D03*
Y014875D02*
D03*
X06245Y016725D02*
D03*
Y014875D02*
D03*
X0446Y031775D02*
D03*
Y033625D02*
D03*
D130*
X03575Y019475D02*
D03*
Y0179D02*
D03*
D131*
X04185Y01935D02*
D03*
X04095D02*
D03*
X039D02*
D03*
X0399D02*
D03*
X04425Y01745D02*
D03*
X04335D02*
D03*
X0392Y0323D02*
D03*
X0401D02*
D03*
X01765Y02165D02*
D03*
X01855D02*
D03*
X0403Y034D02*
D03*
X0394D02*
D03*
X0208Y04555D02*
D03*
X0199D02*
D03*
X0191D02*
D03*
X0182D02*
D03*
X01915Y042D02*
D03*
X01825D02*
D03*
X02295Y0319D02*
D03*
X02385D02*
D03*
X02395Y02815D02*
D03*
X02305D02*
D03*
X02865Y02465D02*
D03*
X02775D02*
D03*
X02865Y02545D02*
D03*
X02775D02*
D03*
X02865Y02625D02*
D03*
X02775D02*
D03*
X02865Y02705D02*
D03*
X02775D02*
D03*
X02865Y02785D02*
D03*
X02775D02*
D03*
Y02875D02*
D03*
X02865D02*
D03*
X02775Y02965D02*
D03*
X02865D02*
D03*
X02775Y03045D02*
D03*
X02865D02*
D03*
X02775Y03125D02*
D03*
X02865D02*
D03*
X02775Y03205D02*
D03*
X02865D02*
D03*
D132*
X036274Y047156D02*
D03*
X035526D02*
D03*
X0359Y047944D02*
D03*
X0153Y042713D02*
D03*
X014924Y041887D02*
D03*
X015676D02*
D03*
D133*
X03535Y045844D02*
D03*
X036452D02*
D03*
X03535Y04425D02*
D03*
X036452D02*
D03*
D134*
Y045047D02*
D03*
X03535D02*
D03*
D135*
X040292Y035674D02*
D03*
Y0353D02*
D03*
Y034926D02*
D03*
X039308D02*
D03*
Y0353D02*
D03*
Y035674D02*
D03*
X015708Y029826D02*
D03*
Y030574D02*
D03*
X016692Y0302D02*
D03*
D136*
X0122Y026D02*
D03*
X0115D02*
D03*
X0122Y0269D02*
D03*
X0115D02*
D03*
D137*
X01575Y02825D02*
D03*
Y02895D02*
D03*
X0182Y03045D02*
D03*
Y02975D02*
D03*
D138*
X01725Y0182D02*
D03*
X01685D02*
D03*
D139*
X018592Y0189D02*
D03*
X01745D02*
D03*
D140*
X079626Y046312D02*
D03*
X08D02*
D03*
X080374D02*
D03*
Y045288D02*
D03*
X08D02*
D03*
X079626D02*
D03*
D141*
X04101Y0264D02*
D03*
X0392D02*
D03*
D142*
X041068Y0228D02*
D03*
Y0233D02*
D03*
Y0238D02*
D03*
Y0243D02*
D03*
X038932D02*
D03*
Y0238D02*
D03*
Y0233D02*
D03*
Y0228D02*
D03*
D143*
X012324Y023508D02*
D03*
X011576D02*
D03*
X01195Y024492D02*
D03*
X023774Y030042D02*
D03*
X0234D02*
D03*
X023026D02*
D03*
Y029058D02*
D03*
X0234D02*
D03*
X023774D02*
D03*
X0136Y023408D02*
D03*
X013974Y024392D02*
D03*
X013226D02*
D03*
X01565Y024558D02*
D03*
X016024Y025542D02*
D03*
X015276D02*
D03*
D144*
X0334Y02145D02*
D03*
X0344D02*
D03*
Y01785D02*
D03*
X0334D02*
D03*
D145*
X042987Y03365D02*
D03*
X041413D02*
D03*
D146*
X0398Y03125D02*
D03*
X0403D02*
D03*
X0408D02*
D03*
X0413D02*
D03*
Y029115D02*
D03*
X0408D02*
D03*
X0403D02*
D03*
X0398D02*
D03*
D147*
X04335Y02411D02*
D03*
Y0223D02*
D03*
D148*
X016932Y025107D02*
D03*
X017188D02*
D03*
X017444D02*
D03*
X0177D02*
D03*
X017956D02*
D03*
X018212D02*
D03*
X018468D02*
D03*
Y022793D02*
D03*
X018212D02*
D03*
X017956D02*
D03*
X0177D02*
D03*
X017444D02*
D03*
X017188D02*
D03*
X016932D02*
D03*
D149*
X0158Y022955D02*
D03*
Y022345D02*
D03*
D150*
X01821Y0319D02*
D03*
X01569D02*
D03*
D151*
X01992Y04414D02*
D03*
Y043884D02*
D03*
Y043628D02*
D03*
Y043372D02*
D03*
Y043116D02*
D03*
Y04286D02*
D03*
X018179D02*
D03*
Y043116D02*
D03*
Y043372D02*
D03*
Y043628D02*
D03*
Y043884D02*
D03*
Y04414D02*
D03*
D155*
X036447Y046335D02*
D03*
X035347Y043785D02*
D03*
X036447D02*
D03*
M02*
