G04*
G04 #@! TF.GenerationSoftware,Altium Limited,Altium Designer,20.1.7 (139)*
G04*
G04 Layer_Color=65535*
%FSTAX24Y24*%
%MOIN*%
G70*
G04*
G04 #@! TF.SameCoordinates,F0BF9DC0-9546-437B-B132-7D81F4AFA61C*
G04*
G04*
G04 #@! TF.FilePolarity,Positive*
G04*
G01*
G75*
%ADD10C,0.0040*%
%ADD11C,0.0079*%
%ADD12C,0.0098*%
%ADD13C,0.0070*%
%ADD14C,0.0050*%
%ADD15C,0.0039*%
%ADD16C,0.0100*%
%ADD17C,0.0197*%
%ADD18C,0.0025*%
%ADD19C,0.0060*%
G36*
X01875Y01299D02*
X0185Y01274D01*
X019D01*
X01875Y01299D01*
D02*
G37*
G36*
X0451Y03801D02*
X04535Y03826D01*
X04485D01*
X0451Y03801D01*
D02*
G37*
G36*
X01619Y04864D02*
X01594Y04839D01*
X01644D01*
X01619Y04864D01*
D02*
G37*
G36*
X0195Y04976D02*
X01975Y05001D01*
X01925D01*
X0195Y04976D01*
D02*
G37*
G36*
X02074Y04864D02*
X02049Y04839D01*
X02099D01*
X02074Y04864D01*
D02*
G37*
G36*
X029735Y021099D02*
X029582Y02104D01*
Y020829D01*
X029735Y020774D01*
Y020704D01*
X029231Y020896D01*
Y020969D01*
X029735Y021175D01*
Y021099D01*
D02*
G37*
G36*
X029785Y042482D02*
X029531Y042303D01*
X02961Y042221D01*
X029785D01*
Y042154D01*
X029281D01*
Y042221D01*
X029531D01*
X029281Y04247D01*
Y042561D01*
X029485Y04235D01*
X029785Y042571D01*
Y042482D01*
D02*
G37*
%LPC*%
G36*
X029527Y021019D02*
X029389Y020967D01*
X029388D01*
X029386Y020966D01*
X029382Y020965D01*
X029378Y020963D01*
X029373Y020961D01*
X029366Y020959D01*
X029359Y020957D01*
X029352Y020954D01*
X029335Y020948D01*
X029317Y020942D01*
X0293Y020936D01*
X029283Y020931D01*
X029284D01*
X029285Y02093D01*
X029288D01*
X029291Y020929D01*
X029296Y020928D01*
X029301Y020927D01*
X029314Y020924D01*
X029328Y02092D01*
X029344Y020915D01*
X029362Y02091D01*
X02938Y020903D01*
X029527Y020849D01*
Y021019D01*
D02*
G37*
%LPD*%
D10*
X03437Y01785D02*
G03*
X03437Y01785I-00035J0D01*
G01*
Y03301D02*
G03*
X03437Y03301I-00035J0D01*
G01*
Y0368D02*
G03*
X03437Y0368I-00035J0D01*
G01*
Y02164D02*
G03*
X03437Y02164I-00035J0D01*
G01*
Y02543D02*
G03*
X03437Y02543I-00035J0D01*
G01*
X03565Y02153D02*
Y02187D01*
X03615Y02153D02*
Y02187D01*
X03608Y0383D02*
X03642D01*
X03608Y0378D02*
X03642D01*
X03377Y01785D02*
X03387D01*
Y0181D01*
Y01785D02*
X03412Y0181D01*
Y01785D02*
Y0181D01*
Y01785D02*
X03422D01*
X03387Y0176D02*
Y01785D01*
X03412Y0176D01*
Y01785D01*
X03422D01*
X03445Y01715D02*
X0352D01*
X03445Y01855D02*
X0352D01*
X03285D02*
X0336D01*
X03285Y01715D02*
X0336D01*
X0352D02*
Y01855D01*
X03285Y01715D02*
Y01855D01*
X03555Y03298D02*
Y03332D01*
X03605Y03298D02*
Y03332D01*
X04068Y01325D02*
X04102D01*
X04068Y01275D02*
X04102D01*
X03285Y03231D02*
Y03371D01*
X0352Y03231D02*
Y03371D01*
X03285Y03231D02*
X0336D01*
X03285Y03371D02*
X0336D01*
X03445D02*
X0352D01*
X03445Y03231D02*
X0352D01*
X03412Y03301D02*
X03422D01*
X03412Y03276D02*
Y03301D01*
X03387D02*
X03412Y03276D01*
X03387D02*
Y03301D01*
X03412D02*
X03422D01*
X03412D02*
Y03326D01*
X03387Y03301D02*
X03412Y03326D01*
X03387Y03301D02*
Y03326D01*
X03377Y03301D02*
X03387D01*
X03285Y0361D02*
Y0375D01*
X0352Y0361D02*
Y0375D01*
X03285Y0361D02*
X0336D01*
X03285Y0375D02*
X0336D01*
X03445D02*
X0352D01*
X03445Y0361D02*
X0352D01*
X03412Y0368D02*
X03422D01*
X03412Y03655D02*
Y0368D01*
X03387D02*
X03412Y03655D01*
X03387D02*
Y0368D01*
X03412D02*
X03422D01*
X03412D02*
Y03705D01*
X03387Y0368D02*
X03412Y03705D01*
X03387Y0368D02*
Y03705D01*
X03377Y0368D02*
X03387D01*
X03285Y02094D02*
Y02234D01*
X0352Y02094D02*
Y02234D01*
X03285Y02094D02*
X0336D01*
X03285Y02234D02*
X0336D01*
X03445D02*
X0352D01*
X03445Y02094D02*
X0352D01*
X03412Y02164D02*
X03422D01*
X03412Y02139D02*
Y02164D01*
X03387D02*
X03412Y02139D01*
X03387D02*
Y02164D01*
X03412D02*
X03422D01*
X03412D02*
Y02189D01*
X03387Y02164D02*
X03412Y02189D01*
X03387Y02164D02*
Y02189D01*
X03377Y02164D02*
X03387D01*
X03285Y02473D02*
Y02613D01*
X0352Y02473D02*
Y02613D01*
X03285Y02473D02*
X0336D01*
X03285Y02613D02*
X0336D01*
X03445D02*
X0352D01*
X03445Y02473D02*
X0352D01*
X03412Y02543D02*
X03422D01*
X03412Y02518D02*
Y02543D01*
X03387D02*
X03412Y02518D01*
X03387D02*
Y02543D01*
X03412D02*
X03422D01*
X03412D02*
Y02568D01*
X03387Y02543D02*
X03412Y02568D01*
X03387Y02543D02*
Y02568D01*
X03377Y02543D02*
X03387D01*
X07543Y04505D02*
X07577D01*
X07543Y04555D02*
X07577D01*
X07543Y04595D02*
X07577D01*
X07543Y04645D02*
X07577D01*
X0684Y04308D02*
Y04342D01*
X0689Y04308D02*
Y04342D01*
X07485Y03808D02*
Y03842D01*
X07435Y03808D02*
Y03842D01*
X06985Y04308D02*
Y04342D01*
X06935Y04308D02*
Y04342D01*
X03875Y03668D02*
Y03702D01*
X03825Y03668D02*
Y03702D01*
X0362Y01733D02*
Y01767D01*
X0357Y01733D02*
Y01767D01*
X0322Y0126D02*
X0339D01*
Y0134D01*
X0322D02*
X0339D01*
X0322Y0126D02*
Y0134D01*
X0342Y01265D02*
X0359D01*
Y01345D01*
X0342D02*
X0359D01*
X0342Y01265D02*
Y01345D01*
X03673Y01325D02*
X03707D01*
X03673Y01275D02*
X03707D01*
X03868Y01325D02*
X03902D01*
X03868Y01275D02*
X03902D01*
X03408Y0352D02*
X03442D01*
X03408Y0357D02*
X03442D01*
X03785Y03668D02*
Y03702D01*
X03735Y03668D02*
Y03702D01*
X03915Y04828D02*
Y04862D01*
X03965Y04828D02*
Y04862D01*
X03755Y04828D02*
Y04862D01*
X03805Y04828D02*
Y04862D01*
X0351Y04828D02*
Y04862D01*
X0356Y04828D02*
Y04862D01*
X0405Y04828D02*
Y04862D01*
X04Y04828D02*
Y04862D01*
X03725Y04828D02*
Y04862D01*
X03675Y04828D02*
Y04862D01*
X03425Y04823D02*
Y04857D01*
X03475Y04823D02*
Y04857D01*
X03253Y0452D02*
X03287D01*
X03253Y0447D02*
X03287D01*
X03253Y0461D02*
X03287D01*
X03253Y0456D02*
X03287D01*
X03253Y047D02*
X03287D01*
X03253Y0465D02*
X03287D01*
X0361Y02528D02*
Y02562D01*
X0356Y02528D02*
Y02562D01*
D11*
X075232Y040309D02*
G03*
X075232Y040388I0J000039D01*
G01*
D02*
G03*
X075232Y040309I0J-000039D01*
G01*
X061365Y04033D02*
G03*
X061444Y04033I000039J0D01*
G01*
D02*
G03*
X061365Y04033I-000039J0D01*
G01*
X045933Y011468D02*
Y012469D01*
X031933Y011468D02*
X045183D01*
X045933D01*
X031933Y012469D02*
X045933D01*
X031933Y011468D02*
Y012469D01*
X068965Y050398D02*
Y05263D01*
X077083D01*
Y049106D02*
Y05263D01*
X071024Y049106D02*
X077083D01*
X057244Y049087D02*
X068362D01*
Y05263D01*
X055244D02*
X068362D01*
X055244Y050358D02*
Y05263D01*
X031547Y050839D02*
Y051839D01*
X032297D02*
X045547D01*
X031547D02*
X032297D01*
X031547Y050839D02*
X045547D01*
Y051839D01*
X036367Y036257D02*
X036859D01*
X03623Y036275D02*
Y037425D01*
X03617D02*
X03623D01*
X03617Y036275D02*
Y037425D01*
Y036275D02*
X03623D01*
X034015Y028539D02*
X034035D01*
X034015Y02972D02*
X034035D01*
X034015Y028539D02*
Y02972D01*
X034035Y028539D02*
Y02972D01*
X02455Y051839D02*
X03055D01*
X02455Y049839D02*
Y051839D01*
Y049839D02*
X03055D01*
Y051839D01*
X02955Y050839D02*
X03055D01*
X02955D02*
Y051839D01*
X052413Y04475D02*
X053413D01*
X052413Y043652D02*
X053413D01*
X052413D02*
Y047849D01*
X053413Y043652D02*
Y047849D01*
X052413D02*
X053413D01*
X033087Y012941D02*
Y013059D01*
X032988Y013D02*
X033185Y013197D01*
X032988Y013D02*
X033185Y012803D01*
Y013197D01*
X033146Y012882D02*
Y013118D01*
X032949Y012803D02*
Y013197D01*
X035087Y012991D02*
Y013109D01*
X034988Y01305D02*
X035185Y013247D01*
X034988Y01305D02*
X035185Y012853D01*
Y013247D01*
X035146Y012932D02*
Y013168D01*
X034949Y012853D02*
Y013247D01*
X018217Y011468D02*
Y012469D01*
X028217D01*
Y011468D02*
Y012469D01*
X027467Y011468D02*
X028217D01*
X018217D02*
X027467D01*
X0353Y03013D02*
X036206D01*
X0353Y028565D02*
X036206D01*
Y028565D02*
Y030118D01*
X0353Y028565D02*
Y030128D01*
D12*
X033275Y02983D02*
G03*
X033275Y02983I-000049J0D01*
G01*
D13*
X01957Y051858D02*
G03*
X019364Y051546I-000358J000013D01*
G01*
X01507Y051858D02*
G03*
X014864Y051546I-000358J000013D01*
G01*
X012733Y047914D02*
G03*
X01265Y047908I-000083J000645D01*
G01*
X04779Y03406D02*
G03*
X04779Y03302I0J-00052D01*
G01*
X05082D02*
G03*
X05081Y03406I0J00052D01*
G01*
X04638Y03268D02*
G03*
X04639Y03164I0J-00052D01*
G01*
X04941Y03164D02*
G03*
X04941Y03268I0J00052D01*
G01*
X01895Y05163D02*
X01945Y05213D01*
X01875Y05035D02*
Y05235D01*
Y05035D02*
X01892D01*
Y05047D01*
X02261D01*
Y05035D02*
Y05047D01*
Y05035D02*
X02276D01*
Y05235D01*
X01875D02*
X02276D01*
X01445Y05163D02*
X01495Y05213D01*
X01425Y05035D02*
Y05235D01*
Y05035D02*
X01442D01*
Y05047D01*
X01811D01*
Y05035D02*
Y05047D01*
Y05035D02*
X01826D01*
Y05235D01*
X01425D02*
X01826D01*
X0139Y0473D02*
Y0498D01*
X0114Y0473D02*
X0139D01*
X0114D02*
Y0498D01*
X0139D01*
X0426Y03795D02*
X0456D01*
Y03695D02*
Y03795D01*
X0426Y03695D02*
X0456D01*
X0426D02*
Y03795D01*
X04465Y03696D02*
Y03795D01*
X01923Y01315D02*
Y01414D01*
X01825Y01315D02*
X02128D01*
X01825D02*
Y01415D01*
Y01515D01*
X02128D01*
Y01315D02*
Y01515D01*
X0478Y03406D02*
X0508D01*
X04781Y03302D02*
X0508D01*
X04916Y03326D02*
Y03381D01*
X04954Y03327D02*
Y03382D01*
X04832Y03355D02*
X04916D01*
X04954D02*
X05035D01*
X04685Y03215D02*
X04766D01*
X04804D02*
X04888D01*
X04766Y03188D02*
Y03243D01*
X04804Y03189D02*
Y03244D01*
X0464Y03268D02*
X04939D01*
X0464Y03164D02*
X0494D01*
X01664Y0487D02*
Y04969D01*
X01769Y0487D02*
Y0497D01*
X01569D02*
X01769D01*
X01569Y0487D02*
Y0497D01*
Y0487D02*
X01769D01*
X01905Y04871D02*
Y0497D01*
X018Y0487D02*
Y0497D01*
Y0487D02*
X02D01*
Y0497D01*
X018D02*
X02D01*
X02119Y0487D02*
Y04969D01*
X02224Y0487D02*
Y0497D01*
X02024D02*
X02224D01*
X02024Y0487D02*
Y0497D01*
Y0487D02*
X02224D01*
D14*
X03556Y0224D02*
X03623D01*
Y021D02*
Y0224D01*
X03556Y021D02*
X03623D01*
X03556D02*
Y0224D01*
X03695Y03772D02*
Y03839D01*
X03555Y03772D02*
X03695D01*
X03555D02*
Y03839D01*
X03695D01*
X03546Y03385D02*
X03613D01*
Y03245D02*
Y03385D01*
X03546Y03245D02*
X03613D01*
X03546D02*
Y03385D01*
X04015Y01266D02*
X04155D01*
Y01333D01*
X04015D02*
X04155D01*
X04015Y01266D02*
Y01333D01*
X0749Y04564D02*
X0763D01*
X0749Y04497D02*
Y04564D01*
Y04497D02*
X0763D01*
Y04564D01*
X0749Y04654D02*
X0763D01*
X0749Y04587D02*
Y04654D01*
Y04587D02*
X0763D01*
Y04654D01*
X06899Y04255D02*
Y04395D01*
X06832D02*
X06899D01*
X06832Y04255D02*
Y04395D01*
Y04255D02*
X06899D01*
X07427Y03748D02*
X07494D01*
X07427D02*
Y03901D01*
X07494D01*
Y03748D02*
Y03901D01*
X06926Y04255D02*
Y04395D01*
Y04255D02*
X06993D01*
Y04395D01*
X06926D02*
X06993D01*
X03817Y03615D02*
X03884D01*
X03817D02*
Y03755D01*
X03884D01*
Y03615D02*
Y03755D01*
X03562Y0168D02*
X03629D01*
X03562D02*
Y0182D01*
X03629D01*
Y0168D02*
Y0182D01*
X0362Y01266D02*
X0376D01*
Y01333D01*
X0362D02*
X0376D01*
X0362Y01266D02*
Y01333D01*
X03815Y01266D02*
X03955D01*
Y01333D01*
X03815D02*
X03955D01*
X03815Y01266D02*
Y01333D01*
X03355Y03579D02*
X03495D01*
X03355Y03512D02*
Y03579D01*
Y03512D02*
X03495D01*
Y03579D01*
X03726Y03615D02*
Y03755D01*
Y03615D02*
X03793D01*
Y03755D01*
X03726D02*
X03793D01*
X03974Y04768D02*
Y04921D01*
X03907D02*
X03974D01*
X03907Y04768D02*
Y04921D01*
Y04768D02*
X03974D01*
X03814D02*
Y04921D01*
X03747D02*
X03814D01*
X03747Y04768D02*
Y04921D01*
Y04768D02*
X03814D01*
X03569D02*
Y04921D01*
X03502D02*
X03569D01*
X03502Y04768D02*
Y04921D01*
Y04768D02*
X03569D01*
X03992Y04775D02*
X04059D01*
X03992D02*
Y04915D01*
X04059D01*
Y04775D02*
Y04915D01*
X03667Y04775D02*
X03734D01*
X03667D02*
Y04915D01*
X03734D01*
Y04775D02*
Y04915D01*
X03416Y0491D02*
X03483D01*
Y0477D02*
Y0491D01*
X03416Y0477D02*
X03483D01*
X03416D02*
Y0491D01*
X0334Y04462D02*
Y04529D01*
X032Y04462D02*
X0334D01*
X032D02*
Y04529D01*
X0334D01*
Y04552D02*
Y04619D01*
X032Y04552D02*
X0334D01*
X032D02*
Y04619D01*
X0334D01*
Y04642D02*
Y04709D01*
X032Y04642D02*
X0334D01*
X032D02*
Y04709D01*
X0334D01*
X03551Y02475D02*
Y02615D01*
Y02475D02*
X03618D01*
Y02615D01*
X03551D02*
X03618D01*
D15*
X080432Y036255D02*
X081432D01*
Y042043D01*
X080432D02*
X081432D01*
X076314Y036255D02*
X07907D01*
X076314Y042043D02*
X07907D01*
X053135Y035231D02*
Y040152D01*
Y035231D02*
X065265D01*
Y040152D01*
X053135D02*
X065265D01*
D16*
X045419Y0166D02*
Y021324D01*
Y0166D02*
X073669D01*
X045419Y021324D02*
X073669D01*
X076419D01*
Y0166D02*
Y021324D01*
X073669Y0166D02*
X076419D01*
X045419Y02635D02*
Y031074D01*
Y02635D02*
X073669D01*
X045419Y031074D02*
X073669D01*
X076419D01*
Y02635D02*
Y031074D01*
X073669Y02635D02*
X076419D01*
X030767Y016417D02*
Y04689D01*
X010137Y016417D02*
X030767D01*
X010137D02*
Y04689D01*
X030767D01*
X0463Y0447D02*
Y0479D01*
Y0447D02*
X0475D01*
Y0479D01*
X0463D02*
X0475D01*
X0425Y0213D02*
X0437D01*
Y0181D02*
Y0213D01*
X0425Y0181D02*
X0437D01*
X0425D02*
Y0213D01*
X04395D02*
X04515D01*
Y0181D02*
Y0213D01*
X04395Y0181D02*
X04515D01*
X04395D02*
Y0213D01*
X0449Y0447D02*
X0461D01*
X0449D02*
Y0479D01*
X0461D01*
Y0447D02*
Y0479D01*
X0577Y03445D02*
X0576Y03455D01*
X0574D01*
X0573Y03445D01*
Y03405D01*
X0574Y03395D01*
X0576D01*
X0577Y03405D01*
X0582Y03455D02*
X058D01*
X0579Y03445D01*
Y03405D01*
X058Y03395D01*
X0582D01*
X0583Y03405D01*
Y03445D01*
X0582Y03455D01*
X0585Y03395D02*
Y03455D01*
X058899Y03395D01*
Y03455D01*
X059499Y03445D02*
X059399Y03455D01*
X059199D01*
X059099Y03445D01*
Y03435D01*
X059199Y03425D01*
X059399D01*
X059499Y03415D01*
Y03405D01*
X059399Y03395D01*
X059199D01*
X059099Y03405D01*
X059999Y03455D02*
X059799D01*
X059699Y03445D01*
Y03405D01*
X059799Y03395D01*
X059999D01*
X060099Y03405D01*
Y03445D01*
X059999Y03455D01*
X060299D02*
Y03395D01*
X060699D01*
X061299Y03455D02*
X060899D01*
Y03395D01*
X061299D01*
X060899Y03425D02*
X061099D01*
X04635Y014813D02*
X04625Y014913D01*
Y015113D01*
X04635Y015213D01*
X04675D01*
X04685Y015113D01*
Y014913D01*
X04675Y014813D01*
X04635D01*
X04625Y015413D02*
X04665D01*
X04685Y015613D01*
X04665Y015813D01*
X04625D01*
X075431Y013413D02*
Y013014D01*
X076031D01*
Y013413D01*
X075731Y013014D02*
Y013214D01*
X076031Y013613D02*
X075631D01*
X075431Y013813D01*
X075631Y014013D01*
X076031D01*
X075731D01*
Y013613D01*
X076031Y014213D02*
X075431D01*
Y014513D01*
X075531Y014613D01*
X075731D01*
X075831Y014513D01*
Y014213D01*
Y014413D02*
X076031Y014613D01*
X075431Y014813D02*
Y015213D01*
Y015013D01*
X076031D01*
X075431Y015413D02*
X076031D01*
X075731D01*
Y015813D01*
X075431D01*
X076031D01*
X074681Y013713D02*
X074281D01*
X074081Y013913D01*
X074281Y014113D01*
X074681D01*
X074381D01*
Y013713D01*
X074081Y014313D02*
Y014513D01*
Y014413D01*
X074681D01*
Y014313D01*
Y014513D01*
Y015113D02*
X074081D01*
X074381Y014813D01*
Y015213D01*
Y015413D02*
Y015813D01*
X073231Y013713D02*
X072831D01*
X072631Y013913D01*
X072831Y014113D01*
X073231D01*
X072931D01*
Y013713D01*
X072631Y014313D02*
Y014513D01*
Y014413D01*
X073231D01*
Y014313D01*
Y014513D01*
Y015113D02*
X072631D01*
X072931Y014813D01*
Y015213D01*
Y015413D02*
Y015813D01*
X072731Y015613D02*
X073131D01*
X071931Y013713D02*
X071531D01*
X071331Y013913D01*
X071531Y014113D01*
X071931D01*
X071631D01*
Y013713D01*
X071331Y014313D02*
Y014513D01*
Y014413D01*
X071931D01*
Y014313D01*
Y014513D01*
X071431Y014813D02*
X071331Y014913D01*
Y015113D01*
X071431Y015213D01*
X071531D01*
X071631Y015113D01*
Y015013D01*
Y015113D01*
X071731Y015213D01*
X071831D01*
X071931Y015113D01*
Y014913D01*
X071831Y014813D01*
X071631Y015413D02*
Y015813D01*
X070481Y013713D02*
X070081D01*
X069881Y013913D01*
X070081Y014113D01*
X070481D01*
X070181D01*
Y013713D01*
X069881Y014313D02*
Y014513D01*
Y014413D01*
X070481D01*
Y014313D01*
Y014513D01*
X069981Y014813D02*
X069881Y014913D01*
Y015113D01*
X069981Y015213D01*
X070081D01*
X070181Y015113D01*
Y015013D01*
Y015113D01*
X070281Y015213D01*
X070381D01*
X070481Y015113D01*
Y014913D01*
X070381Y014813D01*
X070181Y015413D02*
Y015813D01*
X069981Y015613D02*
X070381D01*
X069131Y013713D02*
X068731D01*
X068531Y013913D01*
X068731Y014113D01*
X069131D01*
X068831D01*
Y013713D01*
X068531Y014313D02*
Y014513D01*
Y014413D01*
X069131D01*
Y014313D01*
Y014513D01*
Y015213D02*
Y014813D01*
X068731Y015213D01*
X068631D01*
X068531Y015113D01*
Y014913D01*
X068631Y014813D01*
X068831Y015413D02*
Y015813D01*
X067731Y013713D02*
X067331D01*
X067131Y013913D01*
X067331Y014113D01*
X067731D01*
X067431D01*
Y013713D01*
X067131Y014313D02*
Y014513D01*
Y014413D01*
X067731D01*
Y014313D01*
Y014513D01*
Y015213D02*
Y014813D01*
X067331Y015213D01*
X067231D01*
X067131Y015113D01*
Y014913D01*
X067231Y014813D01*
X067431Y015413D02*
Y015813D01*
X067231Y015613D02*
X067631D01*
X066381Y013813D02*
X065981D01*
X065781Y014013D01*
X065981Y014213D01*
X066381D01*
X066081D01*
Y013813D01*
X065781Y014413D02*
Y014613D01*
Y014513D01*
X066381D01*
Y014413D01*
Y014613D01*
Y014913D02*
Y015113D01*
Y015013D01*
X065781D01*
X065881Y014913D01*
X066081Y015413D02*
Y015813D01*
X064981Y013813D02*
X064581D01*
X064381Y014013D01*
X064581Y014213D01*
X064981D01*
X064681D01*
Y013813D01*
X064381Y014413D02*
Y014613D01*
Y014513D01*
X064981D01*
Y014413D01*
Y014613D01*
Y014913D02*
Y015113D01*
Y015013D01*
X064381D01*
X064481Y014913D01*
X064681Y015413D02*
Y015813D01*
X064481Y015613D02*
X064881D01*
X063131Y014813D02*
X063031Y014913D01*
Y015113D01*
X063131Y015213D01*
X063531D01*
X063631Y015113D01*
Y014913D01*
X063531Y014813D01*
X063131D01*
X063031Y015413D02*
X063431D01*
X063631Y015613D01*
X063431Y015813D01*
X063031D01*
X061681Y014213D02*
X062281D01*
Y014513D01*
X062181Y014613D01*
X061781D01*
X061681Y014513D01*
Y014213D01*
Y015113D02*
Y014913D01*
X061781Y014813D01*
X062181D01*
X062281Y014913D01*
Y015113D01*
X062181Y015213D01*
X061781D01*
X061681Y015113D01*
X062281Y015813D02*
Y015413D01*
X061881Y015813D01*
X061781D01*
X061681Y015713D01*
Y015513D01*
X061781Y015413D01*
X060281Y013014D02*
X060681D01*
X060881Y013214D01*
X060681Y013413D01*
X060281D01*
Y013613D02*
X060881D01*
Y013913D01*
X060781Y014013D01*
X060381D01*
X060281Y013913D01*
Y013613D01*
X060381Y014613D02*
X060281Y014513D01*
Y014313D01*
X060381Y014213D01*
X060781D01*
X060881Y014313D01*
Y014513D01*
X060781Y014613D01*
X060881Y015213D02*
Y014813D01*
X060481Y015213D01*
X060381D01*
X060281Y015113D01*
Y014913D01*
X060381Y014813D01*
X060581Y015413D02*
Y015813D01*
X060381Y015613D02*
X060781D01*
X058981Y014813D02*
X058881Y014913D01*
Y015113D01*
X058981Y015213D01*
X059381D01*
X059481Y015113D01*
Y014913D01*
X059381Y014813D01*
X058981D01*
X058881Y015413D02*
X059281D01*
X059481Y015613D01*
X059281Y015813D01*
X058881D01*
X057531Y014413D02*
X058131D01*
Y014713D01*
X058031Y014813D01*
X057631D01*
X057531Y014713D01*
Y014413D01*
Y015313D02*
Y015113D01*
X057631Y015013D01*
X058031D01*
X058131Y015113D01*
Y015313D01*
X058031Y015413D01*
X057631D01*
X057531Y015313D01*
X058131Y015613D02*
Y015813D01*
Y015713D01*
X057531D01*
X057631Y015613D01*
X056131Y013114D02*
X056531D01*
X056731Y013313D01*
X056531Y013513D01*
X056131D01*
Y013713D02*
X056731D01*
Y014013D01*
X056631Y014113D01*
X056231D01*
X056131Y014013D01*
Y013713D01*
X056231Y014713D02*
X056131Y014613D01*
Y014413D01*
X056231Y014313D01*
X056631D01*
X056731Y014413D01*
Y014613D01*
X056631Y014713D01*
X056731Y014913D02*
Y015113D01*
Y015013D01*
X056131D01*
X056231Y014913D01*
X056431Y015413D02*
Y015813D01*
X056231Y015613D02*
X056631D01*
X055381Y013114D02*
X054781D01*
Y013413D01*
X054881Y013513D01*
X055081D01*
X055181Y013413D01*
Y013114D01*
Y013313D02*
X055381Y013513D01*
Y013713D02*
X054981D01*
X054781Y013913D01*
X054981Y014113D01*
X055381D01*
X055081D01*
Y013713D01*
X054781Y014313D02*
Y014513D01*
Y014413D01*
X055381D01*
Y014313D01*
Y014513D01*
Y014813D02*
X054781D01*
X055381Y015213D01*
X054781D01*
X055081Y015413D02*
Y015813D01*
X053981Y013114D02*
X053381D01*
Y013413D01*
X053481Y013513D01*
X053681D01*
X053781Y013413D01*
Y013114D01*
Y013313D02*
X053981Y013513D01*
Y013713D02*
X053581D01*
X053381Y013913D01*
X053581Y014113D01*
X053981D01*
X053681D01*
Y013713D01*
X053381Y014313D02*
Y014513D01*
Y014413D01*
X053981D01*
Y014313D01*
Y014513D01*
Y014813D02*
X053381D01*
X053981Y015213D01*
X053381D01*
X053681Y015413D02*
Y015813D01*
X053481Y015613D02*
X053881D01*
X051981Y014213D02*
X052581D01*
X052381Y014413D01*
X052581Y014613D01*
X051981D01*
Y014813D02*
X052581D01*
Y015113D01*
X052481Y015213D01*
X052081D01*
X051981Y015113D01*
Y014813D01*
X052281Y015413D02*
Y015813D01*
X049281Y014613D02*
Y014213D01*
X049581D01*
X049481Y014413D01*
Y014513D01*
X049581Y014613D01*
X049781D01*
X049881Y014513D01*
Y014313D01*
X049781Y014213D01*
X049281Y014813D02*
X049681D01*
X049881Y015013D01*
X049681Y015213D01*
X049281D01*
X049581Y015413D02*
Y015813D01*
X049381Y015613D02*
X049781D01*
X047681Y013613D02*
X048281D01*
X048081Y013813D01*
X048281Y014013D01*
X047681D01*
X047781Y014613D02*
X047681Y014513D01*
Y014313D01*
X047781Y014213D01*
X047881D01*
X047981Y014313D01*
Y014513D01*
X048081Y014613D01*
X048181D01*
X048281Y014513D01*
Y014313D01*
X048181Y014213D01*
X048281Y014813D02*
X047681D01*
Y015113D01*
X047781Y015213D01*
X047981D01*
X048081Y015113D01*
Y014813D01*
X047981Y015413D02*
Y015813D01*
X047781Y015613D02*
X048181D01*
X050581Y014213D02*
X051181D01*
X050981Y014413D01*
X051181Y014613D01*
X050581D01*
Y014813D02*
X051181D01*
Y015113D01*
X051081Y015213D01*
X050681D01*
X050581Y015113D01*
Y014813D01*
X050881Y015413D02*
Y015813D01*
X050681Y015613D02*
X051081D01*
X051181Y023464D02*
X050581D01*
X051181Y023864D01*
X050581D01*
Y024064D02*
Y024464D01*
Y024264D01*
X051181D01*
X050681Y025063D02*
X050581Y024963D01*
Y024764D01*
X050681Y024664D01*
X051081D01*
X051181Y024764D01*
Y024963D01*
X051081Y025063D01*
X050881Y025263D02*
Y025663D01*
X04635Y0229D02*
X04675D01*
X04695Y0231D01*
X04675Y0233D01*
X04635D01*
Y0235D02*
X04695D01*
Y0238D01*
X04685Y0239D01*
X04675D01*
X04665Y0238D01*
Y0235D01*
Y0238D01*
X04655Y0239D01*
X04645D01*
X04635Y0238D01*
Y0235D01*
X04695Y0241D02*
X04655D01*
X04635Y0243D01*
X04655Y024499D01*
X04695D01*
X04665D01*
Y0241D01*
X04635Y024699D02*
Y025099D01*
Y024899D01*
X04695D01*
X04665Y025299D02*
Y025699D01*
X04645Y025499D02*
X04685D01*
X047681Y022864D02*
X048081D01*
X048281Y023064D01*
X048081Y023264D01*
X047681D01*
Y023464D02*
X048281D01*
Y023764D01*
X048181Y023864D01*
X048081D01*
X047981Y023764D01*
Y023464D01*
Y023764D01*
X047881Y023864D01*
X047781D01*
X047681Y023764D01*
Y023464D01*
X048281Y024064D02*
X047881D01*
X047681Y024264D01*
X047881Y024464D01*
X048281D01*
X047981D01*
Y024064D01*
X047681Y024664D02*
Y025063D01*
Y024864D01*
X048281D01*
X047981Y025263D02*
Y025663D01*
X049881Y023464D02*
X049281D01*
X049881Y023864D01*
X049281D01*
Y024064D02*
Y024464D01*
Y024264D01*
X049881D01*
X049381Y025063D02*
X049281Y024963D01*
Y024764D01*
X049381Y024664D01*
X049781D01*
X049881Y024764D01*
Y024963D01*
X049781Y025063D01*
X049581Y025263D02*
Y025663D01*
X049381Y025463D02*
X049781D01*
X051981Y023464D02*
X052381D01*
X052581Y023664D01*
X052381Y023864D01*
X051981D01*
X052081Y024464D02*
X051981Y024364D01*
Y024164D01*
X052081Y024064D01*
X052181D01*
X052281Y024164D01*
Y024364D01*
X052381Y024464D01*
X052481D01*
X052581Y024364D01*
Y024164D01*
X052481Y024064D01*
X052081Y025063D02*
X051981Y024963D01*
Y024764D01*
X052081Y024664D01*
X052181D01*
X052281Y024764D01*
Y024963D01*
X052381Y025063D01*
X052481D01*
X052581Y024963D01*
Y024764D01*
X052481Y024664D01*
X052281Y025263D02*
Y025663D01*
X052081Y025463D02*
X052481D01*
X053481Y024664D02*
X053381Y024764D01*
Y024963D01*
X053481Y025063D01*
X053881D01*
X053981Y024963D01*
Y024764D01*
X053881Y024664D01*
X053481D01*
X053381Y025263D02*
X053781D01*
X053981Y025463D01*
X053781Y025663D01*
X053381D01*
X055381Y022764D02*
Y022364D01*
X054981Y022764D01*
X054881D01*
X054781Y022664D01*
Y022464D01*
X054881Y022364D01*
X055381Y023264D02*
X054781D01*
X055081Y022964D01*
Y023364D01*
X054781Y023564D02*
X055181D01*
X055381Y023764D01*
X055181Y023964D01*
X054781D01*
X055381Y024164D02*
Y024364D01*
Y024264D01*
X054981D01*
Y024164D01*
X055381Y024664D02*
Y024963D01*
X055281Y025063D01*
X055181Y024963D01*
Y024764D01*
X055081Y024664D01*
X054981Y024764D01*
Y025063D01*
X055381Y025363D02*
Y025563D01*
X055281Y025663D01*
X055081D01*
X054981Y025563D01*
Y025363D01*
X055081Y025263D01*
X055281D01*
X055381Y025363D01*
X056231Y022964D02*
X056131Y023064D01*
Y023264D01*
X056231Y023364D01*
X056631D01*
X056731Y023264D01*
Y023064D01*
X056631Y022964D01*
X056231D01*
X056131Y023564D02*
X056531D01*
X056731Y023764D01*
X056531Y023964D01*
X056131D01*
X056731Y024164D02*
Y024364D01*
Y024264D01*
X056331D01*
Y024164D01*
X056731Y024664D02*
Y024963D01*
X056631Y025063D01*
X056531Y024963D01*
Y024764D01*
X056431Y024664D01*
X056331Y024764D01*
Y025063D01*
X056731Y025363D02*
Y025563D01*
X056631Y025663D01*
X056431D01*
X056331Y025563D01*
Y025363D01*
X056431Y025263D01*
X056631D01*
X056731Y025363D01*
X057531Y023864D02*
Y023464D01*
X058131D01*
Y023864D01*
X057831Y023464D02*
Y023664D01*
X057531Y024064D02*
X058131Y024464D01*
X057531D02*
X058131Y024064D01*
X057631Y025063D02*
X057531Y024963D01*
Y024764D01*
X057631Y024664D01*
X058031D01*
X058131Y024764D01*
Y024963D01*
X058031Y025063D01*
X057831Y025263D02*
Y025663D01*
X057631Y025463D02*
X058031D01*
X058981Y024664D02*
X058881Y024764D01*
Y024963D01*
X058981Y025063D01*
X059381D01*
X059481Y024963D01*
Y024764D01*
X059381Y024664D01*
X058981D01*
X058881Y025263D02*
X059281D01*
X059481Y025463D01*
X059281Y025663D01*
X058881D01*
X060881Y024164D02*
Y024364D01*
Y024264D01*
X060281D01*
X060381Y024164D01*
X060881Y025063D02*
Y024664D01*
X060481Y025063D01*
X060381D01*
X060281Y024963D01*
Y024764D01*
X060381Y024664D01*
X060281Y025263D02*
X060681D01*
X060881Y025463D01*
X060681Y025663D01*
X060281D01*
X061781Y022864D02*
X061681Y022764D01*
Y022564D01*
X061781Y022464D01*
X061881D01*
X061981Y022564D01*
Y022764D01*
X062081Y022864D01*
X062181D01*
X062281Y022764D01*
Y022564D01*
X062181Y022464D01*
X061681Y023064D02*
X062281D01*
Y023364D01*
X062181Y023464D01*
X061781D01*
X061681Y023364D01*
Y023064D01*
Y023664D02*
Y023864D01*
Y023764D01*
X062281D01*
Y023664D01*
Y023864D01*
X061981Y024164D02*
Y024564D01*
X062281Y024764D02*
Y024963D01*
Y024864D01*
X061681D01*
X061781Y024764D01*
X062281Y025663D02*
Y025263D01*
X061881Y025663D01*
X061781D01*
X061681Y025563D01*
Y025363D01*
X061781Y025263D01*
X063131Y024664D02*
X063031Y024764D01*
Y024963D01*
X063131Y025063D01*
X063531D01*
X063631Y024963D01*
Y024764D01*
X063531Y024664D01*
X063131D01*
X063031Y025263D02*
X063431D01*
X063631Y025463D01*
X063431Y025663D01*
X063031D01*
X064381Y024064D02*
Y024464D01*
Y024264D01*
X064981D01*
X064381Y024664D02*
X064981Y025063D01*
X064381D02*
X064981Y024664D01*
X064381Y025663D02*
Y025263D01*
X064681D01*
X064581Y025463D01*
Y025563D01*
X064681Y025663D01*
X064881D01*
X064981Y025563D01*
Y025363D01*
X064881Y025263D01*
X066381Y024064D02*
X065781D01*
Y024364D01*
X065881Y024464D01*
X066081D01*
X066181Y024364D01*
Y024064D01*
Y024264D02*
X066381Y024464D01*
X065781Y024664D02*
X066381Y025063D01*
X065781D02*
X066381Y024664D01*
X065781Y025663D02*
Y025263D01*
X066081D01*
X065981Y025463D01*
Y025563D01*
X066081Y025663D01*
X066281D01*
X066381Y025563D01*
Y025363D01*
X066281Y025263D01*
X067231Y024664D02*
X067131Y024764D01*
Y024963D01*
X067231Y025063D01*
X067631D01*
X067731Y024963D01*
Y024764D01*
X067631Y024664D01*
X067231D01*
X067131Y025263D02*
X067531D01*
X067731Y025463D01*
X067531Y025663D01*
X067131D01*
X068531Y022864D02*
Y023264D01*
Y023064D01*
X069131D01*
X068531Y023464D02*
X069131Y023864D01*
X068531D02*
X069131Y023464D01*
Y024464D02*
Y024064D01*
X068731Y024464D01*
X068631D01*
X068531Y024364D01*
Y024164D01*
X068631Y024064D01*
X069131Y024664D02*
X068731Y025063D01*
X069131Y025263D02*
X068731D01*
X068531Y025463D01*
X068731Y025663D01*
X069131D01*
X068831D01*
Y025263D01*
X070481Y022864D02*
X069881D01*
Y023164D01*
X069981Y023264D01*
X070181D01*
X070281Y023164D01*
Y022864D01*
Y023064D02*
X070481Y023264D01*
X069881Y023464D02*
X070481Y023864D01*
X069881D02*
X070481Y023464D01*
Y024464D02*
Y024064D01*
X070081Y024464D01*
X069981D01*
X069881Y024364D01*
Y024164D01*
X069981Y024064D01*
X070481Y024664D02*
X070081Y025063D01*
X069881Y025263D02*
X070481D01*
Y025563D01*
X070381Y025663D01*
X070281D01*
X070181Y025563D01*
Y025263D01*
Y025563D01*
X070081Y025663D01*
X069981D01*
X069881Y025563D01*
Y025263D01*
X071431Y024664D02*
X071331Y024764D01*
Y024963D01*
X071431Y025063D01*
X071831D01*
X071931Y024963D01*
Y024764D01*
X071831Y024664D01*
X071431D01*
X071331Y025263D02*
X071731D01*
X071931Y025463D01*
X071731Y025663D01*
X071331D01*
X072631Y024064D02*
Y024464D01*
Y024264D01*
X073231D01*
X072631Y024664D02*
X073231Y025063D01*
X072631D02*
X073231Y024664D01*
Y025563D02*
X072631D01*
X072931Y025263D01*
Y025663D01*
X074681Y024064D02*
X074081D01*
Y024364D01*
X074181Y024464D01*
X074381D01*
X074481Y024364D01*
Y024064D01*
Y024264D02*
X074681Y024464D01*
X074081Y024664D02*
X074681Y025063D01*
X074081D02*
X074681Y024664D01*
Y025563D02*
X074081D01*
X074381Y025263D01*
Y025663D01*
X075531Y024664D02*
X075431Y024764D01*
Y024963D01*
X075531Y025063D01*
X075931D01*
X076031Y024963D01*
Y024764D01*
X075931Y024664D01*
X075531D01*
X075431Y025263D02*
X075831D01*
X076031Y025463D01*
X075831Y025663D01*
X075431D01*
D17*
X0788Y0124D02*
X079125D01*
X07895Y013425D02*
Y0141D01*
X078137Y0134D02*
X079788D01*
X078425Y0129D02*
X0795D01*
D18*
X077333Y019789D02*
Y020398D01*
X077713Y020322D02*
Y020499D01*
X077688Y020195D02*
Y020499D01*
X077942Y020728D02*
Y020981D01*
X077739Y020423D02*
Y020499D01*
X077916Y020753D02*
Y021007D01*
X078272Y020575D02*
Y020728D01*
X078246Y020575D02*
Y020753D01*
X078195Y020575D02*
Y020753D01*
X07817Y020601D02*
Y020778D01*
X078145Y020601D02*
Y020778D01*
X078119Y020626D02*
Y020804D01*
X078094Y020626D02*
Y020829D01*
X078069Y020652D02*
Y020829D01*
X078043Y020652D02*
Y020855D01*
X078018Y020677D02*
Y02088D01*
X077992Y020677D02*
Y020905D01*
X077967Y020702D02*
Y020931D01*
X078221Y020575D02*
Y020753D01*
X078272Y020804D02*
Y020981D01*
X078246Y020829D02*
Y020981D01*
X078195Y020829D02*
Y021007D01*
X078221Y020829D02*
Y021007D01*
X077307Y019941D02*
Y020169D01*
X077942Y021616D02*
Y021844D01*
X077916Y021565D02*
Y021819D01*
X077891Y02154D02*
Y021819D01*
X077865Y021489D02*
Y021794D01*
X07784Y021413D02*
Y021768D01*
X077815Y021362D02*
Y021743D01*
X078297D02*
Y021921D01*
X078272Y021743D02*
Y021921D01*
X078246Y021743D02*
Y021921D01*
X078195Y021743D02*
Y021921D01*
X07817Y021743D02*
Y021921D01*
X078145Y021718D02*
Y021895D01*
X078119Y021718D02*
Y021895D01*
X078094Y021718D02*
Y021895D01*
X078069Y021692D02*
Y021895D01*
X078043Y021692D02*
Y021895D01*
X078018Y021667D02*
Y02187D01*
X077992Y021641D02*
Y02187D01*
X077967Y021641D02*
Y021844D01*
X078221Y021743D02*
Y021921D01*
X077942Y021337D02*
Y021464D01*
Y021108D02*
Y021261D01*
X077739Y021362D02*
Y021641D01*
X077713Y021362D02*
Y021591D01*
X077688Y021388D02*
Y02154D01*
Y021108D02*
Y021286D01*
X077916Y021337D02*
Y021388D01*
Y021185D02*
Y021261D01*
X077789Y021362D02*
Y021718D01*
X077764Y021362D02*
Y021692D01*
X078272Y021514D02*
Y021667D01*
Y021286D02*
Y021413D01*
Y021058D02*
Y02121D01*
X078246Y021514D02*
Y021667D01*
Y021286D02*
Y021413D01*
Y021058D02*
Y02121D01*
X078195Y021489D02*
Y021641D01*
Y021286D02*
Y021388D01*
Y021108D02*
Y02121D01*
X07817Y021464D02*
Y021641D01*
Y021286D02*
Y021337D01*
Y021134D02*
Y02121D01*
X078145Y021464D02*
Y021641D01*
X078119Y021438D02*
Y021641D01*
X078094Y021388D02*
Y021616D01*
X078069Y021337D02*
Y021616D01*
X078043Y021311D02*
Y021591D01*
X078018Y021311D02*
Y021565D01*
X077992Y021311D02*
Y02154D01*
X077967Y021337D02*
Y021514D01*
Y021058D02*
Y021261D01*
X078221Y021489D02*
Y021667D01*
Y021286D02*
Y021388D01*
Y021083D02*
Y02121D01*
X077739Y022733D02*
Y02319D01*
X077713Y022885D02*
Y023063D01*
X07784Y022555D02*
Y023342D01*
X077815Y02258D02*
Y023316D01*
X077789Y022631D02*
Y023291D01*
X077764Y022682D02*
Y023266D01*
X078297Y02286D02*
Y023367D01*
X078272Y02286D02*
Y023367D01*
X078246Y02286D02*
Y023367D01*
X078195Y02286D02*
Y023367D01*
X078221Y02286D02*
Y023367D01*
X07817Y022834D02*
Y023393D01*
X078145Y022809D02*
Y023393D01*
X078119Y022783D02*
Y023393D01*
X077739Y024256D02*
Y024535D01*
X077815Y024154D02*
Y024535D01*
X077789Y024179D02*
Y024535D01*
X077764Y02423D02*
Y024535D01*
X077713Y024357D02*
Y024459D01*
X078119Y024433D02*
Y024509D01*
X078094Y024662D02*
Y024687D01*
X078069Y024662D02*
Y024789D01*
X078043Y024662D02*
Y024865D01*
X077739Y023672D02*
Y024129D01*
X077789Y023672D02*
Y024129D01*
X077764Y023672D02*
Y024129D01*
X077739Y024992D02*
Y025601D01*
X07817Y025119D02*
Y025804D01*
X078145Y02522D02*
Y025804D01*
X078119Y025271D02*
Y025804D01*
X078094Y025296D02*
Y025804D01*
X078069Y025296D02*
Y025804D01*
X078043Y025296D02*
Y025804D01*
X078018Y025271D02*
Y025804D01*
X078195Y024992D02*
Y025778D01*
X077713Y025271D02*
Y025448D01*
X077333Y027454D02*
Y027504D01*
Y026997D02*
Y027073D01*
X077662Y026971D02*
Y027022D01*
Y027124D02*
Y027454D01*
X077637Y0272D02*
Y027479D01*
X077612Y027276D02*
Y027479D01*
X077586Y027327D02*
Y027479D01*
X077561Y027403D02*
Y027479D01*
X077713Y026997D02*
Y027454D01*
X077688Y027047D02*
Y027454D01*
X077637Y026971D02*
Y027073D01*
X077612Y026971D02*
Y027149D01*
X077586Y026971D02*
Y027225D01*
X077561Y026971D02*
Y027276D01*
X077536Y026971D02*
Y027352D01*
X07751Y026997D02*
Y027403D01*
X077485Y026997D02*
Y027479D01*
X077459Y026997D02*
Y027504D01*
X077434Y026997D02*
Y027504D01*
X077409Y026997D02*
Y027504D01*
X077383Y026997D02*
Y027504D01*
X077358Y026997D02*
Y027504D01*
X077713Y026692D02*
Y026844D01*
X077739Y026489D02*
Y027454D01*
X077789Y026337D02*
Y027428D01*
X077764Y026388D02*
Y027454D01*
X078297Y02687D02*
Y027352D01*
X078272Y02687D02*
Y027352D01*
X078246Y02687D02*
Y027352D01*
X078195Y026895D02*
Y027352D01*
X07817Y026895D02*
Y027377D01*
X078145Y026895D02*
Y027377D01*
X078119Y026895D02*
Y027377D01*
X078094Y026895D02*
Y027377D01*
X078069Y026895D02*
Y027377D01*
X078043Y02687D02*
Y027377D01*
X078221Y02687D02*
Y027352D01*
X078602Y01923D02*
Y01956D01*
X078576Y01923D02*
Y019433D01*
X078551Y01923D02*
Y019357D01*
X078525Y01923D02*
Y019306D01*
X078602Y019738D02*
Y020398D01*
X078348Y019789D02*
Y020398D01*
X078576Y019839D02*
Y020398D01*
X078551Y019865D02*
Y020398D01*
X078525Y019865D02*
Y020423D01*
X0785Y01989D02*
Y020423D01*
X078475Y01989D02*
Y020423D01*
X078449Y019865D02*
Y020423D01*
X078424Y019839D02*
Y020423D01*
X078398Y019839D02*
Y020398D01*
X078373Y019814D02*
Y020398D01*
X078779Y020652D02*
Y020931D01*
X078754Y020626D02*
Y02088D01*
X078728Y020626D02*
Y020855D01*
X078703Y020601D02*
Y020829D01*
X078678Y020601D02*
Y020804D01*
X078652Y020575D02*
Y020804D01*
X078627Y020575D02*
Y020778D01*
X078602Y02055D02*
Y020753D01*
X078576Y02055D02*
Y020753D01*
X078551Y02055D02*
Y020728D01*
X078525Y02055D02*
Y020728D01*
X0785Y02055D02*
Y020728D01*
X078475Y02055D02*
Y020728D01*
X078449Y020804D02*
Y020956D01*
Y02055D02*
Y020702D01*
X078424Y020804D02*
Y020956D01*
Y02055D02*
Y020702D01*
X078398Y020804D02*
Y020956D01*
Y02055D02*
Y020702D01*
X078373Y020804D02*
Y020956D01*
Y02055D02*
Y020702D01*
X078805Y020677D02*
Y020981D01*
X078525Y020804D02*
Y021007D01*
X0785Y020804D02*
Y020981D01*
X078475Y020804D02*
Y020981D01*
X078703Y021514D02*
Y021743D01*
X078678Y02154D02*
Y021768D01*
X078652Y021565D02*
Y021768D01*
X078627Y021591D02*
Y021794D01*
X078602Y021616D02*
Y021819D01*
X078576Y021616D02*
Y021819D01*
X078551Y021641D02*
Y021844D01*
X078525Y021667D02*
Y021844D01*
X0785Y021667D02*
Y02187D01*
X078475Y021692D02*
Y02187D01*
X078449Y021692D02*
Y02187D01*
X078424Y021718D02*
Y021895D01*
X078398Y021718D02*
Y021895D01*
X078982Y021159D02*
Y021311D01*
X078957Y021159D02*
Y021388D01*
X078931Y021159D02*
Y021464D01*
X078906Y021159D02*
Y021489D01*
X078881Y021159D02*
Y02154D01*
X078855Y021185D02*
Y021591D01*
X07883Y021261D02*
Y021616D01*
X078805Y021337D02*
Y021641D01*
X078779Y021388D02*
Y021667D01*
X078754Y021438D02*
Y021692D01*
X078728Y021464D02*
Y021718D01*
Y02121D02*
Y021311D01*
X078703Y02121D02*
Y021388D01*
X078678Y02121D02*
Y021413D01*
X078652Y02121D02*
Y021464D01*
X078627Y02121D02*
Y021489D01*
X078602Y021261D02*
Y021514D01*
X078576Y021311D02*
Y02154D01*
X078551Y021362D02*
Y021565D01*
X078525Y021388D02*
Y021591D01*
X0785Y021413D02*
Y021591D01*
Y021235D02*
Y021286D01*
Y021108D02*
Y021159D01*
X078475Y021438D02*
Y021616D01*
Y021235D02*
Y021337D01*
Y021083D02*
Y021159D01*
X078449Y021464D02*
Y021616D01*
Y021235D02*
Y021362D01*
Y021058D02*
Y021159D01*
X078424Y021464D02*
Y021641D01*
Y021261D02*
Y021388D01*
Y021058D02*
Y021185D01*
X078398Y021489D02*
Y021641D01*
Y021261D02*
Y021388D01*
X078957Y022758D02*
Y023266D01*
X078931Y022758D02*
Y023266D01*
X078906Y022758D02*
Y023266D01*
X078881Y022783D02*
Y023266D01*
X078855Y022783D02*
Y023266D01*
X07883Y022783D02*
Y023291D01*
X078805Y022783D02*
Y023291D01*
X078779Y022783D02*
Y023291D01*
X078754Y022783D02*
Y023291D01*
X078728Y022809D02*
Y023291D01*
X078703Y022809D02*
Y023291D01*
X078678Y022809D02*
Y023291D01*
X078652Y022809D02*
Y023316D01*
X078627Y022809D02*
Y023316D01*
X078602Y022809D02*
Y023316D01*
X078576Y022834D02*
Y023316D01*
X078551Y022834D02*
Y023316D01*
X078525Y022834D02*
Y023316D01*
X0785Y022834D02*
Y023316D01*
X078475Y022834D02*
Y023342D01*
X078449Y022834D02*
Y023342D01*
X078424Y022834D02*
Y023342D01*
X078398Y02286D02*
Y023342D01*
X078373Y02286D02*
Y023342D01*
X078348Y02286D02*
Y023342D01*
X078678Y024433D02*
Y024941D01*
X078652Y024433D02*
Y024915D01*
X078627Y024433D02*
Y024915D01*
X078602Y024433D02*
Y024915D01*
X078576Y024433D02*
Y024941D01*
X078957Y025169D02*
Y025677D01*
X078931Y025169D02*
Y025677D01*
X078906Y025195D02*
Y025677D01*
X078881Y025195D02*
Y025677D01*
X078855Y025195D02*
Y025677D01*
X07883Y025195D02*
Y025677D01*
X078805Y025195D02*
Y025702D01*
X078779Y02522D02*
Y025702D01*
X078754Y02522D02*
Y025702D01*
X078728Y02522D02*
Y025702D01*
X078703Y02522D02*
Y025702D01*
X078678Y02522D02*
Y025702D01*
X078652Y02522D02*
Y025702D01*
X078627Y025245D02*
Y025728D01*
X078602Y025245D02*
Y025728D01*
X078576Y025245D02*
Y025728D01*
X078551Y025245D02*
Y025728D01*
X078525Y025245D02*
Y025728D01*
X0785Y025245D02*
Y025728D01*
X078475Y025271D02*
Y025753D01*
X078449Y025271D02*
Y025753D01*
X078703Y025068D02*
Y025169D01*
X078982Y026311D02*
Y026489D01*
X078957Y026794D02*
Y02725D01*
X078931Y026794D02*
Y02725D01*
X078906Y026794D02*
Y02725D01*
X078881Y026794D02*
Y02725D01*
X078855Y026794D02*
Y027276D01*
X07883Y026794D02*
Y027276D01*
X078805Y026794D02*
Y027276D01*
X078779Y026819D02*
Y027276D01*
X078754Y026819D02*
Y027276D01*
X078728Y026819D02*
Y027276D01*
X078703Y026819D02*
Y027276D01*
X078678Y026819D02*
Y027276D01*
X078652Y026819D02*
Y027301D01*
X078627Y026819D02*
Y027301D01*
X078602Y026819D02*
Y027301D01*
X078576Y026844D02*
Y027301D01*
X078551Y026844D02*
Y027301D01*
X078525Y026844D02*
Y027301D01*
X0785Y026844D02*
Y027301D01*
X078475Y026844D02*
Y027327D01*
X078449Y026844D02*
Y027327D01*
X078424Y026844D02*
Y027327D01*
X078398Y026844D02*
Y027327D01*
X078373Y02687D02*
Y027327D01*
X078348Y02687D02*
Y027327D01*
X078602Y026667D02*
Y026743D01*
X078576Y026717D02*
Y026743D01*
X077662Y019408D02*
Y020499D01*
X077637Y019408D02*
Y020499D01*
X077612Y019433D02*
Y020499D01*
X077586Y019433D02*
Y020499D01*
X077536Y019484D02*
Y020499D01*
X07751Y019509D02*
Y020499D01*
X077485Y019509D02*
Y020499D01*
X077459Y019535D02*
Y020499D01*
X077434Y019586D02*
Y020499D01*
X077409Y019611D02*
Y020499D01*
X077383Y019636D02*
Y020499D01*
X077358Y019712D02*
Y020499D01*
X077561Y019459D02*
Y020499D01*
X077739Y022047D02*
Y022555D01*
X07784Y022047D02*
Y02253D01*
X077815Y022047D02*
Y02253D01*
X077789Y022047D02*
Y022555D01*
X077764Y022047D02*
Y022555D01*
X078297Y021971D02*
Y022479D01*
X078272Y021971D02*
Y022504D01*
X078246Y021971D02*
Y022504D01*
X078195Y021997D02*
Y022555D01*
X07817Y021997D02*
Y02258D01*
X078145Y021997D02*
Y022606D01*
X078119Y021997D02*
Y022682D01*
X078221Y021997D02*
Y02253D01*
X077713Y021032D02*
Y021286D01*
X077739Y020981D02*
Y021286D01*
X077891Y020778D02*
Y021058D01*
X077865Y020804D02*
Y021108D01*
X07784Y020829D02*
Y021185D01*
X077815Y020855D02*
Y021286D01*
X077789Y020905D02*
Y021286D01*
X077764Y020931D02*
Y021286D01*
X077992Y021007D02*
Y021235D01*
X07817Y020855D02*
Y021032D01*
X078145Y02088D02*
Y021058D01*
X078119Y02088D02*
Y021083D01*
X078094Y020905D02*
Y021134D01*
X078069Y020931D02*
Y021185D01*
X078043Y020956D02*
Y021235D01*
X078018Y020981D02*
Y021235D01*
X077942Y019408D02*
Y020017D01*
X077739Y019382D02*
Y019941D01*
X077713Y019382D02*
Y019992D01*
X077865Y019382D02*
Y019941D01*
X07784Y019382D02*
Y019941D01*
X077815Y019382D02*
Y019915D01*
X077789Y019382D02*
Y019915D01*
X077916Y019408D02*
Y019992D01*
X077891Y019408D02*
Y019966D01*
X077688Y019408D02*
Y020068D01*
X077764Y019382D02*
Y019915D01*
X077967Y019433D02*
Y020042D01*
X078297Y019712D02*
Y020372D01*
X078272Y019687D02*
Y020347D01*
X078246Y019662D02*
Y020347D01*
X078195Y019611D02*
Y020296D01*
X07817Y019586D02*
Y020271D01*
X078145Y01956D02*
Y020245D01*
X078119Y019535D02*
Y02022D01*
X078094Y019509D02*
Y020195D01*
X078069Y019484D02*
Y020169D01*
X078043Y019484D02*
Y020144D01*
X078221Y019636D02*
Y020322D01*
X078018Y019459D02*
Y020119D01*
X077992Y019433D02*
Y020093D01*
X077942Y026134D02*
Y027403D01*
X077916Y026159D02*
Y027403D01*
X077891Y026184D02*
Y027428D01*
X077865Y02621D02*
Y027428D01*
X078018Y026083D02*
Y027403D01*
X077992Y026083D02*
Y027403D01*
X077967Y026108D02*
Y027403D01*
X077942Y023646D02*
Y024509D01*
X077916Y023646D02*
Y024509D01*
X077891Y023646D02*
Y024535D01*
X077865Y023646D02*
Y024535D01*
X07784Y023646D02*
Y024535D01*
X078119Y023621D02*
Y024306D01*
X078094Y023621D02*
Y024509D01*
X078069Y023621D02*
Y024509D01*
X078043Y023621D02*
Y024509D01*
X078018Y023621D02*
Y024509D01*
X077992Y023646D02*
Y024509D01*
X077967Y023646D02*
Y024509D01*
X078297Y025956D02*
Y026438D01*
X078272Y025956D02*
Y026438D01*
X078246Y025956D02*
Y026464D01*
X078195Y025981D02*
Y026489D01*
X07817Y025981D02*
Y026514D01*
X078145Y026007D02*
Y02654D01*
X078119Y026007D02*
Y026565D01*
X078094Y026032D02*
Y026591D01*
X078069Y026058D02*
Y026641D01*
X078221Y025981D02*
Y026464D01*
X078043Y026058D02*
Y026768D01*
X07784Y026235D02*
Y027428D01*
X077815Y026286D02*
Y027428D01*
X077942Y024712D02*
Y025804D01*
X077916Y024712D02*
Y025804D01*
X077891Y024712D02*
Y025804D01*
X077865Y024712D02*
Y025778D01*
X07784Y024738D02*
Y025753D01*
X077815Y024738D02*
Y025753D01*
X077789Y024738D02*
Y025702D01*
X077764Y024839D02*
Y025677D01*
X078297Y024687D02*
Y025778D01*
X078272Y024738D02*
Y025778D01*
X078246Y024814D02*
Y025778D01*
X077992Y024687D02*
Y025804D01*
X077967Y024687D02*
Y025804D01*
X078221Y02489D02*
Y025778D01*
X078018Y024687D02*
Y024966D01*
X077815Y023646D02*
Y024129D01*
X078297Y023596D02*
Y024103D01*
X078272Y023596D02*
Y024103D01*
X078246Y023596D02*
Y024129D01*
X078195Y023621D02*
Y024179D01*
X07817Y023621D02*
Y024205D01*
X078145Y023621D02*
Y02423D01*
X078221Y023596D02*
Y024154D01*
X078627Y01923D02*
Y020398D01*
X078957Y021844D02*
Y022352D01*
X078931Y021844D02*
Y022352D01*
X078906Y021844D02*
Y022352D01*
X078881Y02187D02*
Y022377D01*
X078855Y02187D02*
Y022377D01*
X07883Y02187D02*
Y022377D01*
X078805Y02187D02*
Y022377D01*
X078779Y02187D02*
Y022377D01*
X078754Y021895D02*
Y022377D01*
X078728Y021895D02*
Y022377D01*
X078703Y021895D02*
Y022403D01*
X078678Y021895D02*
Y022403D01*
X078652Y021921D02*
Y022403D01*
X078627Y021921D02*
Y022403D01*
X078602Y021921D02*
Y022403D01*
X078576Y021921D02*
Y022403D01*
X078551Y021921D02*
Y022428D01*
X078525Y021946D02*
Y022428D01*
X0785Y021946D02*
Y022428D01*
X078475Y021946D02*
Y022428D01*
X078449Y021946D02*
Y022428D01*
X078424Y021946D02*
Y022454D01*
X078398Y021946D02*
Y022454D01*
X078373Y021971D02*
Y022454D01*
X078348Y021971D02*
Y022479D01*
X078728Y021007D02*
Y021134D01*
X078398Y021032D02*
Y021185D01*
X078373Y021032D02*
Y021159D01*
X078982Y020931D02*
Y021083D01*
X078957Y020855D02*
Y021083D01*
X078931Y020829D02*
Y021083D01*
X078906Y020778D02*
Y021083D01*
X078881Y020753D02*
Y021083D01*
X078855Y020702D02*
Y021108D01*
X07883Y020677D02*
Y021108D01*
X078703Y020956D02*
Y021134D01*
X078678Y020931D02*
Y021134D01*
X078652Y02088D02*
Y021134D01*
X078627Y02088D02*
Y021134D01*
X078602Y020855D02*
Y021108D01*
X078576Y020829D02*
Y021058D01*
X078551Y020829D02*
Y021032D01*
X078982Y019636D02*
Y019789D01*
X078957Y019357D02*
Y019992D01*
X078931Y01923D02*
Y020068D01*
X078906Y01923D02*
Y020119D01*
X078881Y01923D02*
Y020169D01*
X078855Y01923D02*
Y02022D01*
X07883Y01923D02*
Y020245D01*
X078805Y01923D02*
Y020271D01*
X078779Y01923D02*
Y020296D01*
X078754Y01923D02*
Y020322D01*
X078728Y01923D02*
Y020322D01*
X078703Y01923D02*
Y020347D01*
X078678Y01923D02*
Y020372D01*
X078652Y01923D02*
Y020372D01*
X078957Y02621D02*
Y026591D01*
X078931Y026134D02*
Y026667D01*
X078906Y026108D02*
Y026692D01*
X078881Y026083D02*
Y026692D01*
X078855Y026058D02*
Y026692D01*
X07883Y026032D02*
Y026692D01*
X078602Y025931D02*
Y026514D01*
X078576Y025931D02*
Y026489D01*
X078551Y025931D02*
Y026464D01*
X078525Y025931D02*
Y026438D01*
X0785Y025931D02*
Y026438D01*
X078475Y025931D02*
Y026413D01*
X078449Y025931D02*
Y026413D01*
X078424Y025931D02*
Y026413D01*
X078398Y025931D02*
Y026413D01*
X078373Y025931D02*
Y026413D01*
X078348Y025931D02*
Y026438D01*
X078805Y026007D02*
Y026717D01*
X078779Y025981D02*
Y026717D01*
X078754Y025981D02*
Y026717D01*
X078728Y025956D02*
Y026717D01*
X078703Y025956D02*
Y026743D01*
X078678Y025956D02*
Y026743D01*
X078652Y025931D02*
Y026743D01*
X078627Y025931D02*
Y026743D01*
X078424Y024509D02*
Y025753D01*
X078398Y024535D02*
Y025753D01*
X078373Y02456D02*
Y025753D01*
X078348Y024586D02*
Y025778D01*
X078982Y024789D02*
Y024966D01*
X078703Y024433D02*
Y024966D01*
X078551Y024459D02*
Y024966D01*
X078525Y024459D02*
Y025017D01*
X078957Y024636D02*
Y025068D01*
X078931Y02456D02*
Y025068D01*
X078906Y024535D02*
Y025093D01*
X078881Y024509D02*
Y025093D01*
X078855Y024484D02*
Y025093D01*
X07883Y024484D02*
Y025119D01*
X078805Y024459D02*
Y025119D01*
X078779Y024459D02*
Y025144D01*
X078754Y024433D02*
Y025144D01*
X078728Y024433D02*
Y025169D01*
X0785Y024484D02*
Y025068D01*
X078475Y024484D02*
Y025169D01*
X078449Y024509D02*
Y025245D01*
X078957Y023494D02*
Y023976D01*
X078931Y023494D02*
Y023976D01*
X078906Y023494D02*
Y023976D01*
X078881Y023494D02*
Y023976D01*
X078855Y023494D02*
Y024002D01*
X07883Y02352D02*
Y024002D01*
X078805Y02352D02*
Y024002D01*
X078779Y02352D02*
Y024002D01*
X078754Y02352D02*
Y024002D01*
X078728Y02352D02*
Y024002D01*
X078703Y023545D02*
Y024002D01*
X078678Y023545D02*
Y024002D01*
X078652Y023545D02*
Y024002D01*
X078627Y023545D02*
Y024027D01*
X078602Y023545D02*
Y024027D01*
X078576Y023545D02*
Y024027D01*
X078551Y02357D02*
Y024027D01*
X078525Y02357D02*
Y024027D01*
X0785Y02357D02*
Y024053D01*
X078475Y02357D02*
Y024053D01*
X078449Y02357D02*
Y024053D01*
X078424Y023596D02*
Y024053D01*
X078398Y023596D02*
Y024053D01*
X078373Y023596D02*
Y024078D01*
X078348Y023596D02*
Y024078D01*
X077942Y022022D02*
Y023393D01*
X077891Y022022D02*
Y023367D01*
X077865Y022022D02*
Y023367D01*
X077916Y022022D02*
Y023393D01*
X078094Y021997D02*
Y023393D01*
X078069Y021997D02*
Y023393D01*
X078043Y022022D02*
Y023393D01*
X078018Y022022D02*
Y023393D01*
X077992Y022022D02*
Y023393D01*
X077967Y022022D02*
Y023393D01*
X078322Y019738D02*
Y020372D01*
Y02286D02*
Y023342D01*
Y02687D02*
Y027352D01*
Y021971D02*
Y022479D01*
Y025931D02*
Y026438D01*
Y024636D02*
Y025778D01*
Y023596D02*
Y024078D01*
D19*
X03216Y02891D02*
X0321Y02885D01*
Y02873D01*
X03216Y02867D01*
X03222D01*
X03228Y02873D01*
Y02885D01*
X03234Y02891D01*
X0324D01*
X03246Y02885D01*
Y02873D01*
X0324Y02867D01*
X0321Y02903D02*
Y02927D01*
Y02915D01*
X03246D01*
Y02939D02*
X03222D01*
X0321Y02951D01*
X03222Y02963D01*
X03246D01*
X03228D01*
Y02939D01*
X0417Y01834D02*
Y01846D01*
Y0184D01*
X04206D01*
Y01834D01*
Y01846D01*
X04176Y01888D02*
X0417Y01882D01*
Y0187D01*
X04176Y01864D01*
X04182D01*
X04188Y0187D01*
Y01882D01*
X04194Y01888D01*
X042D01*
X04206Y01882D01*
Y0187D01*
X042Y01864D01*
X0417Y01918D02*
Y01906D01*
X04176Y019D01*
X042D01*
X04206Y01906D01*
Y01918D01*
X042Y01924D01*
X04176D01*
X0417Y01918D01*
X04098Y04971D02*
Y04995D01*
Y04983D01*
X04134D01*
X04098Y05007D02*
X04134Y05031D01*
X04098D02*
X04134Y05007D01*
Y05043D02*
Y05055D01*
Y05049D01*
X04098D01*
X04104Y05043D01*
X04204Y01966D02*
X04168D01*
X04204Y0199D01*
X04168D01*
Y0202D02*
Y02008D01*
X04174Y02002D01*
X04198D01*
X04204Y02008D01*
Y0202D01*
X04198Y02026D01*
X04174D01*
X04168Y0202D01*
X04204Y02038D02*
X04168D01*
X04204Y02062D01*
X04168D01*
Y02098D02*
Y02074D01*
X04204D01*
Y02098D01*
X04186Y02074D02*
Y02086D01*
X031884Y02086D02*
X031524D01*
Y02104D01*
X031584Y0211D01*
X031704D01*
X031764Y02104D01*
Y02086D01*
X031524Y02122D02*
X031884D01*
X031764Y02134D01*
X031884Y02146D01*
X031524D01*
X031884Y02158D02*
X031524D01*
Y02176D01*
X031584Y02182D01*
X031704D01*
X031764Y02176D01*
Y02158D01*
Y0217D02*
X031884Y02182D01*
X031584Y02218D02*
X031524Y02212D01*
Y022D01*
X031584Y02194D01*
X031644D01*
X031704Y022D01*
Y02212D01*
X031764Y02218D01*
X031824D01*
X031884Y02212D01*
Y022D01*
X031824Y02194D01*
X031584Y02254D02*
X031524Y02248D01*
Y02236D01*
X031584Y0223D01*
X031644D01*
X031704Y02236D01*
Y02248D01*
X031764Y02254D01*
X031824D01*
X031884Y02248D01*
Y02236D01*
X031824Y0223D01*
X0321Y0211D02*
Y02086D01*
X03228D01*
Y02098D01*
Y02086D01*
X03246D01*
Y02122D02*
X03222D01*
X0321Y02134D01*
X03222Y02146D01*
X03246D01*
X03228D01*
Y02122D01*
X0321Y02158D02*
X0324D01*
X03246Y02164D01*
Y02176D01*
X0324Y02182D01*
X0321D01*
Y02194D02*
X03246D01*
Y02218D01*
X0321Y0223D02*
Y02254D01*
Y02242D01*
X03246D01*
X031784Y02497D02*
X031424D01*
Y02515D01*
X031484Y02521D01*
X031604D01*
X031664Y02515D01*
Y02497D01*
X031424Y02533D02*
X031784D01*
X031664Y02545D01*
X031784Y02557D01*
X031424D01*
X031784Y02569D02*
X031424D01*
Y02587D01*
X031484Y02593D01*
X031604D01*
X031664Y02587D01*
Y02569D01*
Y02581D02*
X031784Y02593D01*
X032Y02485D02*
Y02461D01*
X03218D01*
Y02473D01*
Y02461D01*
X03236D01*
Y02497D02*
X03212D01*
X032Y02509D01*
X03212Y02521D01*
X03236D01*
X03218D01*
Y02497D01*
X032Y02533D02*
X0323D01*
X03236Y02539D01*
Y02551D01*
X0323Y02557D01*
X032D01*
Y02569D02*
X03236D01*
Y02593D01*
X032Y02605D02*
Y02629D01*
Y02617D01*
X03236D01*
X044386Y046319D02*
X044026D01*
Y046499D01*
X044086Y046559D01*
X044206D01*
X044266Y046499D01*
Y046319D01*
Y046439D02*
X044386Y046559D01*
X044086Y046919D02*
X044026Y046859D01*
Y046739D01*
X044086Y046679D01*
X044146D01*
X044206Y046739D01*
Y046859D01*
X044266Y046919D01*
X044326D01*
X044386Y046859D01*
Y046739D01*
X044326Y046679D01*
X044386Y047219D02*
X044026D01*
X044206Y047039D01*
Y047279D01*
X044086Y047399D02*
X044026Y047459D01*
Y047578D01*
X044086Y047638D01*
X044146D01*
X044206Y047578D01*
X044266Y047638D01*
X044326D01*
X044386Y047578D01*
Y047459D01*
X044326Y047399D01*
X044266D01*
X044206Y047459D01*
X044146Y047399D01*
X044086D01*
X044206Y047459D02*
Y047578D01*
X044026Y047998D02*
Y047758D01*
X044206D01*
X044146Y047878D01*
Y047938D01*
X044206Y047998D01*
X044326D01*
X044386Y047938D01*
Y047818D01*
X044326Y047758D01*
X01615Y04816D02*
X01609Y04822D01*
X01597D01*
X01591Y04816D01*
Y0481D01*
X01597Y04804D01*
X01609D01*
X01615Y04798D01*
Y04792D01*
X01609Y04786D01*
X01597D01*
X01591Y04792D01*
X01627Y04822D02*
Y04786D01*
X01651D01*
X01687Y04822D02*
X01663D01*
Y04786D01*
X01687D01*
X01663Y04804D02*
X01675D01*
X01723Y04822D02*
X01699D01*
Y04786D01*
X01723D01*
X01699Y04804D02*
X01711D01*
X01735Y04786D02*
Y04822D01*
X017529D01*
X017589Y04816D01*
Y04804D01*
X017529Y04798D01*
X01735D01*
X017709D02*
X017949D01*
X017709Y0481D02*
X017949D01*
X018069Y04816D02*
X018129Y04822D01*
X018249D01*
X018309Y04816D01*
Y04792D01*
X018249Y04786D01*
X018129D01*
X018069Y04792D01*
Y04816D01*
X04411Y04473D02*
X04405Y04467D01*
Y04455D01*
X04411Y04449D01*
X04435D01*
X04441Y04455D01*
Y04467D01*
X04435Y04473D01*
X04405Y04503D02*
Y04491D01*
X04411Y04485D01*
X04435D01*
X04441Y04491D01*
Y04503D01*
X04435Y04509D01*
X04411D01*
X04405Y04503D01*
X04441Y04521D02*
X04405D01*
X04417Y04533D01*
X04405Y04545D01*
X04441D01*
Y04581D02*
Y04557D01*
X04417Y04581D01*
X04411D01*
X04405Y04575D01*
Y04563D01*
X04411Y04557D01*
X03205Y03252D02*
X03235D01*
X03241Y03258D01*
Y0327D01*
X03235Y03276D01*
X03205D01*
X03211Y03312D02*
X03205Y03306D01*
Y03294D01*
X03211Y03288D01*
X03217D01*
X03223Y03294D01*
Y03306D01*
X03229Y03312D01*
X03235D01*
X03241Y03306D01*
Y03294D01*
X03235Y03288D01*
X03205Y03324D02*
X03241D01*
Y03342D01*
X03235Y03348D01*
X03229D01*
X03223Y03342D01*
Y03324D01*
Y03342D01*
X03217Y03348D01*
X03211D01*
X03205Y03342D01*
Y03324D01*
X01091Y04734D02*
X01055D01*
Y04752D01*
X01061Y04758D01*
X01073D01*
X01079Y04752D01*
Y04734D01*
X01055Y0477D02*
X01091D01*
Y04788D01*
X01085Y04794D01*
X01079D01*
X01073Y04788D01*
Y0477D01*
Y04788D01*
X01067Y04794D01*
X01061D01*
X01055Y04788D01*
Y0477D01*
Y04842D02*
Y04866D01*
Y04854D01*
X01091D01*
X01055Y04878D02*
Y048899D01*
Y04884D01*
X01091D01*
Y04878D01*
Y048899D01*
Y049079D02*
X01055D01*
X01067Y049199D01*
X01055Y049319D01*
X01091D01*
X01055Y049679D02*
Y049439D01*
X01091D01*
Y049679D01*
X01073Y049439D02*
Y049559D01*
X01091Y049799D02*
X01055D01*
Y049979D01*
X01061Y050039D01*
X01073D01*
X01079Y049979D01*
Y049799D01*
Y049919D02*
X01091Y050039D01*
X03834Y04949D02*
X03798D01*
X03816Y04931D01*
Y04955D01*
X03804Y04967D02*
X03798Y04973D01*
Y04985D01*
X03804Y04991D01*
X0381D01*
X03816Y04985D01*
X03822Y04991D01*
X03828D01*
X03834Y04985D01*
Y04973D01*
X03828Y04967D01*
X03822D01*
X03816Y04973D01*
X0381Y04967D01*
X03804D01*
X03816Y04973D02*
Y04985D01*
X03798Y05027D02*
Y05003D01*
X03816D01*
X0381Y05015D01*
Y05021D01*
X03816Y05027D01*
X03828D01*
X03834Y05021D01*
Y05009D01*
X03828Y05003D01*
X03834Y05039D02*
X0381D01*
X03798Y05051D01*
X0381Y05063D01*
X03834D01*
X03816D01*
Y05039D01*
X03256Y01697D02*
X0322D01*
Y01715D01*
X03226Y01721D01*
X03238D01*
X03244Y01715D01*
Y01697D01*
X0322Y01733D02*
X03256D01*
X03244Y01745D01*
X03256Y01757D01*
X0322D01*
X03256Y01769D02*
X0322D01*
Y01787D01*
X03226Y01793D01*
X03238D01*
X03244Y01787D01*
Y01769D01*
Y01781D02*
X03256Y01793D01*
X03241Y03642D02*
X03205D01*
X03241Y03666D01*
X03205D01*
Y03702D02*
Y03678D01*
X03241D01*
Y03702D01*
X03223Y03678D02*
Y0369D01*
X03205Y03714D02*
Y03738D01*
Y03726D01*
X03241D01*
X04239Y04971D02*
X04203D01*
Y04989D01*
X04209Y04995D01*
X04221D01*
X04227Y04989D01*
Y04971D01*
Y04983D02*
X04239Y04995D01*
X04203Y05007D02*
X04239Y05031D01*
X04203D02*
X04239Y05007D01*
Y05043D02*
Y05055D01*
Y05049D01*
X04203D01*
X04209Y05043D01*
X04039Y04961D02*
X04003D01*
Y04979D01*
X04009Y04985D01*
X04021D01*
X04027Y04979D01*
Y04961D01*
Y04973D02*
X04039Y04985D01*
X04003Y04997D02*
X04039Y05021D01*
X04003D02*
X04039Y04997D01*
Y05051D02*
X04003D01*
X04021Y05033D01*
Y05057D01*
X03893Y04961D02*
Y04985D01*
Y04973D01*
X03929D01*
X03893Y04997D02*
X03929Y05021D01*
X03893D02*
X03929Y04997D01*
Y05051D02*
X03893D01*
X03911Y05033D01*
Y05057D01*
X03107Y01212D02*
X03101Y01218D01*
X03089D01*
X03083Y01212D01*
Y01188D01*
X03089Y01182D01*
X03101D01*
X03107Y01188D01*
X03119Y01182D02*
Y01218D01*
X03143Y01182D01*
Y01218D01*
X03155Y01182D02*
X03167D01*
X03161D01*
Y01218D01*
X03155Y01212D01*
X06926Y04963D02*
X06914D01*
X0692D01*
Y04933D01*
X06914Y04927D01*
X06908D01*
X06902Y04933D01*
X06962Y04927D02*
X06938D01*
X06962Y04951D01*
Y04957D01*
X06956Y04963D01*
X06944D01*
X06938Y04957D01*
X06974D02*
X0698Y04963D01*
X06992D01*
X06998Y04957D01*
Y04933D01*
X06992Y04927D01*
X0698D01*
X06974Y04933D01*
Y04957D01*
X05534Y04958D02*
X05522D01*
X05528D01*
Y04928D01*
X05522Y04922D01*
X05516D01*
X0551Y04928D01*
X0557Y04922D02*
X05546D01*
X0557Y04946D01*
Y04952D01*
X05564Y04958D01*
X05552D01*
X05546Y04952D01*
X03181Y05237D02*
X03175Y05243D01*
X03163D01*
X03157Y05237D01*
Y05213D01*
X03163Y05207D01*
X03175D01*
X03181Y05213D01*
X03193Y05207D02*
Y05243D01*
X03217Y05207D01*
Y05243D01*
X03253Y05207D02*
X03229D01*
X03253Y05231D01*
Y05237D01*
X03247Y05243D01*
X03235D01*
X03229Y05237D01*
X07306Y04673D02*
Y04637D01*
X0733D01*
X07342D02*
X07354D01*
X07348D01*
Y04673D01*
X07342Y04667D01*
X0776Y04874D02*
X07748D01*
X07754D01*
Y04844D01*
X07748Y04838D01*
X07742D01*
X07736Y04844D01*
X07772Y04874D02*
X07796D01*
Y04868D01*
X07772Y04844D01*
Y04838D01*
X03457Y02262D02*
Y02298D01*
X03475D01*
X03481Y02292D01*
Y0228D01*
X03475Y02274D01*
X03457D01*
X03469D02*
X03481Y02262D01*
X03517D02*
X03493D01*
X03517Y02286D01*
Y02292D01*
X03511Y02298D01*
X03499D01*
X03493Y02292D01*
X03529D02*
X03535Y02298D01*
X03547D01*
X03553Y02292D01*
Y02286D01*
X03547Y0228D01*
X03553Y02274D01*
Y02268D01*
X03547Y02262D01*
X03535D01*
X03529Y02268D01*
Y02274D01*
X03535Y0228D01*
X03529Y02286D01*
Y02292D01*
X03535Y0228D02*
X03547D01*
X03575Y03558D02*
Y03582D01*
X03569Y03588D01*
X03557D01*
X03551Y03582D01*
Y03558D01*
X03557Y03552D01*
X03569D01*
X03563Y03564D02*
X03575Y03552D01*
X03569D02*
X03575Y03558D01*
X03587Y03552D02*
X03599D01*
X03593D01*
Y03588D01*
X03587Y03582D01*
X03447Y03802D02*
Y03838D01*
X03465D01*
X03471Y03832D01*
Y0382D01*
X03465Y03814D01*
X03447D01*
X03459D02*
X03471Y03802D01*
X03507Y03838D02*
X03495Y03832D01*
X03483Y0382D01*
Y03808D01*
X03489Y03802D01*
X03501D01*
X03507Y03808D01*
Y03814D01*
X03501Y0382D01*
X03483D01*
X03543Y03838D02*
X03519D01*
Y0382D01*
X03531Y03826D01*
X03537D01*
X03543Y0382D01*
Y03808D01*
X03537Y03802D01*
X03525D01*
X03519Y03808D01*
X019556Y01049D02*
X019796D01*
X019916Y01061D01*
X019796Y01073D01*
X019556D01*
X019916Y01109D02*
Y01085D01*
X019676Y01109D01*
X019616D01*
X019556Y01103D01*
Y01091D01*
X019616Y01085D01*
X01853Y01026D02*
X01889D01*
Y01044D01*
X01883Y0105D01*
X01859D01*
X01853Y01044D01*
Y01026D01*
Y0108D02*
Y01068D01*
X01859Y01062D01*
X01883D01*
X01889Y01068D01*
Y0108D01*
X01883Y01086D01*
X01859D01*
X01853Y0108D01*
X01889Y01122D02*
Y01098D01*
X01865Y01122D01*
X01859D01*
X01853Y01116D01*
Y01104D01*
X01859Y01098D01*
X0329Y01693D02*
Y01657D01*
X03314D01*
X0335Y01693D02*
X03326D01*
Y01657D01*
X0335D01*
X03326Y01675D02*
X03338D01*
X03362Y01693D02*
Y01657D01*
X0338D01*
X03386Y01663D01*
Y01687D01*
X0338Y01693D01*
X03362D01*
X03398Y01657D02*
X0341D01*
X03404D01*
Y01693D01*
X03398Y01687D01*
X03522Y03412D02*
Y03448D01*
X0354D01*
X03546Y03442D01*
Y0343D01*
X0354Y03424D01*
X03522D01*
X03534D02*
X03546Y03412D01*
X03582Y03448D02*
X0357Y03442D01*
X03558Y0343D01*
Y03418D01*
X03564Y03412D01*
X03576D01*
X03582Y03418D01*
Y03424D01*
X03576Y0343D01*
X03558D01*
X03612Y03412D02*
Y03448D01*
X03594Y0343D01*
X03618D01*
X04293Y04991D02*
X04329D01*
Y05009D01*
X04323Y05015D01*
X04299D01*
X04293Y05009D01*
Y04991D01*
Y05051D02*
Y05027D01*
X04329D01*
Y05051D01*
X04311Y05027D02*
Y05039D01*
X034215Y049641D02*
X033855D01*
Y049821D01*
X033915Y049881D01*
X034035D01*
X034095Y049821D01*
Y049641D01*
Y049761D02*
X034215Y049881D01*
X033855Y050001D02*
X034215Y050241D01*
X033855D02*
X034215Y050001D01*
X033855Y050601D02*
Y050361D01*
X034035D01*
X033975Y050481D01*
Y050541D01*
X034035Y050601D01*
X034155D01*
X034215Y050541D01*
Y050421D01*
X034155Y050361D01*
X032905Y049591D02*
Y049831D01*
Y049711D01*
X033265D01*
X032905Y049951D02*
X033265Y050191D01*
X032905D02*
X033265Y049951D01*
X032905Y050551D02*
Y050311D01*
X033085D01*
X033025Y050431D01*
Y050491D01*
X033085Y050551D01*
X033205D01*
X033265Y050491D01*
Y050371D01*
X033205Y050311D01*
X030525Y038964D02*
Y039083D01*
Y039024D01*
X030165D01*
X030225Y038964D01*
X030525Y024253D02*
Y024014D01*
X030285Y024253D01*
X030225D01*
X030165Y024193D01*
Y024074D01*
X030225Y024014D01*
Y024373D02*
X030165Y024433D01*
Y024553D01*
X030225Y024613D01*
X030285D01*
X030345Y024553D01*
X030405Y024613D01*
X030465D01*
X030525Y024553D01*
Y024433D01*
X030465Y024373D01*
X030405D01*
X030345Y024433D01*
X030285Y024373D01*
X030225D01*
X030345Y024433D02*
Y024553D01*
X0705Y03747D02*
X07044Y03753D01*
X07032D01*
X07026Y03747D01*
Y03741D01*
X07032Y03735D01*
X07044D01*
X0705Y03729D01*
Y03723D01*
X07044Y03717D01*
X07032D01*
X07026Y03723D01*
X07062Y03753D02*
Y03717D01*
X0708D01*
X07086Y03723D01*
Y03747D01*
X0708Y03753D01*
X07062D01*
X07098Y03711D02*
X07122D01*
X07134Y03717D02*
Y03753D01*
X07146Y03741D01*
X07158Y03753D01*
Y03717D01*
X0717Y03753D02*
X07182D01*
X07176D01*
Y03717D01*
X0717D01*
X07182D01*
X072239Y03747D02*
X072179Y03753D01*
X072059D01*
X071999Y03747D01*
Y03741D01*
X072059Y03735D01*
X072179D01*
X072239Y03729D01*
Y03723D01*
X072179Y03717D01*
X072059D01*
X071999Y03723D01*
X072539Y03753D02*
X072419D01*
X072359Y03747D01*
Y03723D01*
X072419Y03717D01*
X072539D01*
X072599Y03723D01*
Y03747D01*
X072539Y03753D01*
X07175Y03837D02*
X07169Y03843D01*
X07157D01*
X07151Y03837D01*
Y03831D01*
X07157Y03825D01*
X07169D01*
X07175Y03819D01*
Y03813D01*
X07169Y03807D01*
X07157D01*
X07151Y03813D01*
X07187Y03843D02*
Y03807D01*
X07205D01*
X07211Y03813D01*
Y03837D01*
X07205Y03843D01*
X07187D01*
X07223Y03801D02*
X07247D01*
X07283Y03837D02*
X07277Y03843D01*
X07265D01*
X07259Y03837D01*
Y03831D01*
X07265Y03825D01*
X07277D01*
X07283Y03819D01*
Y03813D01*
X07277Y03807D01*
X07265D01*
X07259Y03813D01*
X073189Y03837D02*
X073129Y03843D01*
X07301D01*
X07295Y03837D01*
Y03813D01*
X07301Y03807D01*
X073129D01*
X073189Y03813D01*
X073309Y03843D02*
Y03807D01*
Y03819D01*
X073549Y03843D01*
X073369Y03825D01*
X073549Y03807D01*
X0696Y03917D02*
X06954Y03923D01*
X06942D01*
X06936Y03917D01*
Y03911D01*
X06942Y03905D01*
X06954D01*
X0696Y03899D01*
Y03893D01*
X06954Y03887D01*
X06942D01*
X06936Y03893D01*
X06972Y03923D02*
Y03887D01*
X0699D01*
X06996Y03893D01*
Y03917D01*
X0699Y03923D01*
X06972D01*
X07008Y03881D02*
X07032D01*
X07044Y03887D02*
Y03923D01*
X07056Y03911D01*
X07068Y03923D01*
Y03887D01*
X070979Y03923D02*
X07086D01*
X0708Y03917D01*
Y03893D01*
X07086Y03887D01*
X070979D01*
X071039Y03893D01*
Y03917D01*
X070979Y03923D01*
X071399Y03917D02*
X071339Y03923D01*
X071219D01*
X071159Y03917D01*
Y03911D01*
X071219Y03905D01*
X071339D01*
X071399Y03899D01*
Y03893D01*
X071339Y03887D01*
X071219D01*
X071159Y03893D01*
X071519Y03923D02*
X071639D01*
X071579D01*
Y03887D01*
X071519D01*
X071639D01*
X06905Y03987D02*
X06899Y03993D01*
X06887D01*
X06881Y03987D01*
Y03981D01*
X06887Y03975D01*
X06899D01*
X06905Y03969D01*
Y03963D01*
X06899Y03957D01*
X06887D01*
X06881Y03963D01*
X06917Y03993D02*
Y03957D01*
X06935D01*
X06941Y03963D01*
Y03987D01*
X06935Y03993D01*
X06917D01*
X06953Y03951D02*
X06977D01*
X07013Y03987D02*
X07007Y03993D01*
X06995D01*
X06989Y03987D01*
Y03963D01*
X06995Y03957D01*
X07007D01*
X07013Y03963D01*
X070489Y03987D02*
X070429Y03993D01*
X07031D01*
X07025Y03987D01*
Y03981D01*
X07031Y03975D01*
X070429D01*
X070489Y03969D01*
Y03963D01*
X070429Y03957D01*
X07031D01*
X07025Y03963D01*
X079615Y01946D02*
X07954Y019385D01*
Y019235D01*
X079615Y01916D01*
X07969D01*
X079765Y019235D01*
Y019385D01*
X07984Y01946D01*
X079915D01*
X07999Y019385D01*
Y019235D01*
X079915Y01916D01*
X07999Y01961D02*
X07954D01*
Y019835D01*
X079615Y01991D01*
X079765D01*
X07984Y019835D01*
Y01961D01*
Y01976D02*
X07999Y01991D01*
X079765Y02006D02*
Y02036D01*
X07954Y02051D02*
X07999D01*
Y020734D01*
X079915Y020809D01*
X079615D01*
X07954Y020734D01*
Y02051D01*
Y020959D02*
X07999D01*
Y021259D01*
X079765Y021409D02*
Y021709D01*
X07954Y022159D02*
Y021859D01*
X07999D01*
Y022159D01*
X079765Y021859D02*
Y022009D01*
X07999Y022609D02*
Y022309D01*
X07969Y022609D01*
X079615D01*
X07954Y022534D01*
Y022384D01*
X079615Y022309D01*
X079765Y022759D02*
Y023059D01*
X07954Y023209D02*
Y023509D01*
Y023359D01*
X07999D01*
Y023734D02*
Y023883D01*
X079915Y023958D01*
X079765D01*
X07969Y023883D01*
Y023734D01*
X079765Y023659D01*
X079915D01*
X07999Y023734D01*
X08014Y024108D02*
X07969D01*
Y024333D01*
X079765Y024408D01*
X079915D01*
X07999Y024333D01*
Y024108D01*
X07954Y024558D02*
X07984D01*
X07999Y024708D01*
X07984Y024858D01*
X07954D01*
X07999Y025008D02*
Y025158D01*
Y025083D01*
X07954D01*
X079615Y025008D01*
X079765Y025383D02*
Y025683D01*
X07999Y026133D02*
Y025833D01*
X07969Y026133D01*
X079615D01*
X07954Y026058D01*
Y025908D01*
X079615Y025833D01*
X07999Y026508D02*
X07954D01*
X079765Y026283D01*
Y026583D01*
X07999Y026733D02*
Y026883D01*
Y026808D01*
X07954D01*
X079615Y026733D01*
X07999Y027107D02*
Y027257D01*
Y027182D01*
X07954D01*
X079615Y027107D01*
X07999Y027782D02*
Y027482D01*
X07969Y027782D01*
X079615D01*
X07954Y027707D01*
Y027557D01*
X079615Y027482D01*
X07999Y027932D02*
Y028082D01*
Y028007D01*
X07954D01*
X079615Y027932D01*
X11644Y03916D02*
X11614D01*
X11599Y03931D01*
X11614Y03946D01*
X11644D01*
X116215D01*
Y03916D01*
X11599Y03961D02*
Y03976D01*
Y039685D01*
X11644D01*
Y03961D01*
Y03976D01*
Y039985D02*
X11599D01*
X11644Y040285D01*
X11599D01*
X116065Y040435D02*
X11599Y04051D01*
Y04066D01*
X116065Y040734D01*
X11614D01*
X116215Y04066D01*
Y040585D01*
Y04066D01*
X11629Y040734D01*
X116365D01*
X11644Y04066D01*
Y04051D01*
X116365Y040435D01*
X116215Y040884D02*
Y041184D01*
X11504Y03911D02*
X11474D01*
X11459Y03926D01*
X11474Y03941D01*
X11504D01*
X114815D01*
Y03911D01*
X11459Y03956D02*
Y03971D01*
Y039635D01*
X11504D01*
Y03956D01*
Y03971D01*
Y039935D02*
X11459D01*
X11504Y040235D01*
X11459D01*
X114665Y040385D02*
X11459Y04046D01*
Y04061D01*
X114665Y040684D01*
X11474D01*
X114815Y04061D01*
Y040535D01*
Y04061D01*
X11489Y040684D01*
X114965D01*
X11504Y04061D01*
Y04046D01*
X114965Y040385D01*
X114815Y040834D02*
Y041134D01*
X114665Y040984D02*
X114965D01*
X03498Y04961D02*
Y04985D01*
Y04973D01*
X03534D01*
X03498Y04997D02*
X03534Y05021D01*
X03498D02*
X03534Y04997D01*
Y05057D02*
Y05033D01*
X0351Y05057D01*
X03504D01*
X03498Y05051D01*
Y05039D01*
X03504Y05033D01*
X03629Y04966D02*
X03593D01*
Y04984D01*
X03599Y0499D01*
X03611D01*
X03617Y04984D01*
Y04966D01*
Y04978D02*
X03629Y0499D01*
X03593Y05002D02*
X03629Y05026D01*
X03593D02*
X03629Y05002D01*
Y05062D02*
Y05038D01*
X03605Y05062D01*
X03599D01*
X03593Y05056D01*
Y05044D01*
X03599Y05038D01*
X03729Y04949D02*
X03693D01*
X03711Y04931D01*
Y04955D01*
X03699Y04967D02*
X03693Y04973D01*
Y04985D01*
X03699Y04991D01*
X03705D01*
X03711Y04985D01*
X03717Y04991D01*
X03723D01*
X03729Y04985D01*
Y04973D01*
X03723Y04967D01*
X03717D01*
X03711Y04973D01*
X03705Y04967D01*
X03699D01*
X03711Y04973D02*
Y04985D01*
X03693Y05027D02*
Y05003D01*
X03711D01*
X03705Y05015D01*
Y05021D01*
X03711Y05027D01*
X03723D01*
X03729Y05021D01*
Y05009D01*
X03723Y05003D01*
X03693Y05039D02*
X03729D01*
Y05057D01*
X03723Y05063D01*
X03717D01*
X03711Y05057D01*
Y05039D01*
Y05057D01*
X03705Y05063D01*
X03699D01*
X03693Y05057D01*
Y05039D01*
X04429Y04966D02*
Y04978D01*
Y04972D01*
X04393D01*
X04399Y04966D01*
X04429Y0502D02*
Y04996D01*
X04405Y0502D01*
X04399D01*
X04393Y05014D01*
Y05002D01*
X04399Y04996D01*
X04393Y05032D02*
X04417D01*
X04429Y05044D01*
X04417Y05056D01*
X04393D01*
X03189Y04915D02*
X03183Y04909D01*
Y04897D01*
X03189Y04891D01*
X03195D01*
X03201Y04897D01*
Y04909D01*
X03207Y04915D01*
X03213D01*
X03219Y04909D01*
Y04897D01*
X03213Y04891D01*
X03183Y04927D02*
X03219D01*
Y04945D01*
X03213Y04951D01*
X03189D01*
X03183Y04945D01*
Y04927D01*
Y04963D02*
Y04975D01*
Y04969D01*
X03219D01*
Y04963D01*
Y04975D01*
Y04993D02*
Y05005D01*
Y04999D01*
X03183D01*
X03189Y04993D01*
X03219Y050469D02*
Y05023D01*
X03195Y050469D01*
X03189D01*
X03183Y05041D01*
Y05029D01*
X03189Y05023D01*
X04499Y04985D02*
X04493Y04979D01*
Y04967D01*
X04499Y04961D01*
X04523D01*
X04529Y04967D01*
Y04979D01*
X04523Y04985D01*
X04511D01*
Y04973D01*
X04529Y04997D02*
X04493D01*
X04529Y05021D01*
X04493D01*
Y05033D02*
X04529D01*
Y05051D01*
X04523Y05057D01*
X04499D01*
X04493Y05051D01*
Y05033D01*
X027623Y010341D02*
X027563Y010401D01*
Y010521D01*
X027623Y010581D01*
X027683D01*
X027743Y010521D01*
Y010461D01*
Y010521D01*
X027803Y010581D01*
X027863D01*
X027923Y010521D01*
Y010401D01*
X027863Y010341D01*
X027563Y010701D02*
X027803D01*
X027923Y010821D01*
X027803Y010941D01*
X027563D01*
X027623Y01106D02*
X027563Y01112D01*
Y01124D01*
X027623Y0113D01*
X027683D01*
X027743Y01124D01*
Y01118D01*
Y01124D01*
X027803Y0113D01*
X027863D01*
X027923Y01124D01*
Y01112D01*
X027863Y01106D01*
X026613Y010581D02*
Y010341D01*
X026793D01*
X026733Y010461D01*
Y010521D01*
X026793Y010581D01*
X026913D01*
X026973Y010521D01*
Y010401D01*
X026913Y010341D01*
X026613Y010701D02*
X026853D01*
X026973Y010821D01*
X026853Y010941D01*
X026613D01*
X025655Y010455D02*
X025595Y010395D01*
Y010275D01*
X025655Y010215D01*
X025895D01*
X025955Y010275D01*
Y010395D01*
X025895Y010455D01*
X025775D01*
Y010335D01*
X025955Y010575D02*
X025595D01*
X025955Y010815D01*
X025595D01*
Y010935D02*
X025955D01*
Y011115D01*
X025895Y011175D01*
X025655D01*
X025595Y011115D01*
Y010935D01*
X024605Y010455D02*
X024545Y010395D01*
Y010275D01*
X024605Y010215D01*
X024845D01*
X024905Y010275D01*
Y010395D01*
X024845Y010455D01*
X024725D01*
Y010335D01*
X024905Y010575D02*
X024545D01*
X024905Y010815D01*
X024545D01*
Y010935D02*
X024905D01*
Y011115D01*
X024845Y011175D01*
X024605D01*
X024545Y011115D01*
Y010935D01*
X02384Y01026D02*
X02348D01*
Y01044D01*
X02354Y0105D01*
X02366D01*
X02372Y01044D01*
Y01026D01*
Y01038D02*
X02384Y0105D01*
Y01062D02*
X02348D01*
X02384Y01086D01*
X02348D01*
X02366Y01098D02*
Y01122D01*
X02354Y0111D02*
X02378D01*
X02253Y01031D02*
X02289D01*
Y01049D01*
X02283Y01055D01*
X02259D01*
X02253Y01049D01*
Y01031D01*
Y01067D02*
Y01079D01*
Y01073D01*
X02289D01*
Y01067D01*
Y01079D01*
X02259Y01097D02*
X02253Y01103D01*
Y01115D01*
X02259Y01121D01*
X02283D01*
X02289Y01115D01*
Y01103D01*
X02283Y01097D01*
X02259D01*
X02053Y01036D02*
X02089D01*
Y01054D01*
X02083Y0106D01*
X02059D01*
X02053Y01054D01*
Y01036D01*
Y0109D02*
Y01078D01*
X02059Y01072D01*
X02083D01*
X02089Y01078D01*
Y0109D01*
X02083Y01096D01*
X02059D01*
X02053Y0109D01*
X02089Y01108D02*
Y0112D01*
Y01114D01*
X02053D01*
X02059Y01108D01*
X02153Y01051D02*
X02177D01*
X02189Y01063D01*
X02177Y01075D01*
X02153D01*
X02189Y01087D02*
Y01099D01*
Y01093D01*
X02153D01*
X02159Y01087D01*
X04534Y01026D02*
X04528Y01032D01*
Y01044D01*
X04534Y0105D01*
X0454D01*
X04546Y01044D01*
Y01038D01*
Y01044D01*
X04552Y0105D01*
X04558D01*
X04564Y01044D01*
Y01032D01*
X04558Y01026D01*
X04528Y01062D02*
X04552D01*
X04564Y01074D01*
X04552Y01086D01*
X04528D01*
X04534Y01098D02*
X04528Y01104D01*
Y01116D01*
X04534Y01122D01*
X0454D01*
X04546Y01116D01*
Y0111D01*
Y01116D01*
X04552Y01122D01*
X04558D01*
X04564Y01116D01*
Y01104D01*
X04558Y01098D01*
X04434Y0105D02*
X04428Y01044D01*
Y01032D01*
X04434Y01026D01*
X04458D01*
X04464Y01032D01*
Y01044D01*
X04458Y0105D01*
X04446D01*
Y01038D01*
X04464Y01062D02*
X04428D01*
X04464Y01086D01*
X04428D01*
Y01098D02*
X04464D01*
Y01116D01*
X04458Y01122D01*
X04434D01*
X04428Y01116D01*
Y01098D01*
X04318Y01031D02*
Y01007D01*
X04354D01*
Y01031D01*
X04336Y01007D02*
Y01019D01*
X04318Y01043D02*
X04354Y010669D01*
X04318D02*
X04354Y01043D01*
X04324Y011029D02*
X04318Y010969D01*
Y010849D01*
X04324Y010789D01*
X04348D01*
X04354Y010849D01*
Y010969D01*
X04348Y011029D01*
X04336Y011149D02*
Y011389D01*
X04154Y010157D02*
X0413D01*
X04118Y010277D01*
X0413Y010397D01*
X04154D01*
X04136D01*
Y010157D01*
X04118Y010517D02*
Y010637D01*
Y010577D01*
X04154D01*
Y010517D01*
Y010637D01*
Y010997D02*
X04118D01*
X04136Y010817D01*
Y011057D01*
Y011177D02*
Y011417D01*
X040477Y010134D02*
X040238D01*
X040118Y010254D01*
X040238Y010374D01*
X040477D01*
X040297D01*
Y010134D01*
X040118Y010494D02*
Y010614D01*
Y010554D01*
X040477D01*
Y010494D01*
Y010614D01*
Y010974D02*
X040118D01*
X040297Y010794D01*
Y011034D01*
Y011154D02*
Y011394D01*
X040178Y011274D02*
X040417D01*
X03949Y010157D02*
X03925D01*
X03913Y010277D01*
X03925Y010397D01*
X03949D01*
X03931D01*
Y010157D01*
X03913Y010517D02*
Y010637D01*
Y010577D01*
X03949D01*
Y010517D01*
Y010637D01*
X03919Y010817D02*
X03913Y010877D01*
Y010997D01*
X03919Y011057D01*
X03925D01*
X03931Y010997D01*
Y010937D01*
Y010997D01*
X03937Y011057D01*
X03943D01*
X03949Y010997D01*
Y010877D01*
X03943Y010817D01*
X03931Y011177D02*
Y011417D01*
X038527Y010134D02*
X038288D01*
X038168Y010254D01*
X038288Y010374D01*
X038527D01*
X038347D01*
Y010134D01*
X038168Y010494D02*
Y010614D01*
Y010554D01*
X038527D01*
Y010494D01*
Y010614D01*
X038228Y010794D02*
X038168Y010854D01*
Y010974D01*
X038228Y011034D01*
X038288D01*
X038347Y010974D01*
Y010914D01*
Y010974D01*
X038407Y011034D01*
X038467D01*
X038527Y010974D01*
Y010854D01*
X038467Y010794D01*
X038347Y011154D02*
Y011394D01*
X038228Y011274D02*
X038467D01*
X03739Y010157D02*
X03715D01*
X03703Y010277D01*
X03715Y010397D01*
X03739D01*
X03721D01*
Y010157D01*
X03703Y010517D02*
Y010637D01*
Y010577D01*
X03739D01*
Y010517D01*
Y010637D01*
Y011057D02*
Y010817D01*
X03715Y011057D01*
X03709D01*
X03703Y010997D01*
Y010877D01*
X03709Y010817D01*
X03721Y011177D02*
Y011417D01*
X036427Y010134D02*
X036188D01*
X036068Y010254D01*
X036188Y010374D01*
X036427D01*
X036247D01*
Y010134D01*
X036068Y010494D02*
Y010614D01*
Y010554D01*
X036427D01*
Y010494D01*
Y010614D01*
Y011034D02*
Y010794D01*
X036188Y011034D01*
X036128D01*
X036068Y010974D01*
Y010854D01*
X036128Y010794D01*
X036247Y011154D02*
Y011394D01*
X036128Y011274D02*
X036367D01*
X03539Y010157D02*
X03515D01*
X03503Y010277D01*
X03515Y010397D01*
X03539D01*
X03521D01*
Y010157D01*
X03503Y010517D02*
Y010637D01*
Y010577D01*
X03539D01*
Y010517D01*
Y010637D01*
Y010817D02*
Y010937D01*
Y010877D01*
X03503D01*
X03509Y010817D01*
X03521Y011117D02*
Y011357D01*
X034427Y010134D02*
X034188D01*
X034068Y010254D01*
X034188Y010374D01*
X034427D01*
X034248D01*
Y010134D01*
X034068Y010494D02*
Y010614D01*
Y010554D01*
X034427D01*
Y010494D01*
Y010614D01*
Y010794D02*
Y010914D01*
Y010854D01*
X034068D01*
X034128Y010794D01*
X034248Y011094D02*
Y011334D01*
X034128Y011214D02*
X034367D01*
X033527Y010157D02*
X033288D01*
X033168Y010277D01*
X033288Y010397D01*
X033527D01*
X033347D01*
Y010157D01*
X033168Y010517D02*
Y010637D01*
Y010577D01*
X033527D01*
Y010517D01*
Y010637D01*
X033168Y011057D02*
X033228Y010937D01*
X033347Y010817D01*
X033467D01*
X033527Y010877D01*
Y010997D01*
X033467Y011057D01*
X033407D01*
X033347Y010997D01*
Y010817D01*
Y011177D02*
Y011417D01*
X03259Y010134D02*
X03235D01*
X03223Y010254D01*
X03235Y010374D01*
X03259D01*
X03241D01*
Y010134D01*
X03223Y010494D02*
Y010614D01*
Y010554D01*
X03259D01*
Y010494D01*
Y010614D01*
X03223Y011034D02*
X03229Y010914D01*
X03241Y010794D01*
X03253D01*
X03259Y010854D01*
Y010974D01*
X03253Y011034D01*
X03247D01*
X03241Y010974D01*
Y010794D01*
Y011154D02*
Y011394D01*
X03229Y011274D02*
X03253D01*
X042176Y010286D02*
Y010046D01*
X042536D01*
Y010286D01*
X042356Y010046D02*
Y010166D01*
X042176Y010406D02*
X042536Y010646D01*
X042176D02*
X042536Y010406D01*
X042236Y011006D02*
X042176Y010946D01*
Y010826D01*
X042236Y010766D01*
X042476D01*
X042536Y010826D01*
Y010946D01*
X042476Y011006D01*
X042356Y011126D02*
Y011366D01*
X042236Y011246D02*
X042476D01*
X04543Y02163D02*
Y02199D01*
X04561D01*
X04567Y02193D01*
Y02181D01*
X04561Y02175D01*
X04543D01*
X04603Y02163D02*
X04579D01*
X04603Y02187D01*
Y02193D01*
X04597Y02199D01*
X04585D01*
X04579Y02193D01*
X04543Y03138D02*
Y03174D01*
X04561D01*
X04567Y03168D01*
Y03156D01*
X04561Y0315D01*
X04543D01*
X04579Y03138D02*
X04591D01*
X04585D01*
Y03174D01*
X04579Y03168D01*
X04018Y01361D02*
Y01397D01*
X04036D01*
X04042Y01391D01*
Y01379D01*
X04036Y01373D01*
X04018D01*
X0403D02*
X04042Y01361D01*
X04078Y01397D02*
X04066Y01391D01*
X04054Y01379D01*
Y01367D01*
X0406Y01361D01*
X04072D01*
X04078Y01367D01*
Y01373D01*
X04072Y01379D01*
X04054D01*
X04114Y01397D02*
X04102Y01391D01*
X0409Y01379D01*
Y01367D01*
X04096Y01361D01*
X04108D01*
X04114Y01367D01*
Y01373D01*
X04108Y01379D01*
X0409D01*
X032888Y03435D02*
Y03399D01*
X033128D01*
X033488Y03435D02*
X033248D01*
Y03399D01*
X033488D01*
X033248Y03417D02*
X033368D01*
X033608Y03435D02*
Y03399D01*
X033788D01*
X033848Y03405D01*
Y03429D01*
X033788Y03435D01*
X033608D01*
X034208D02*
X034088Y03429D01*
X033968Y03417D01*
Y03405D01*
X034028Y03399D01*
X034148D01*
X034208Y03405D01*
Y03411D01*
X034148Y03417D01*
X033968D01*
X033025Y03082D02*
Y03046D01*
X033265D01*
X033625Y03082D02*
X033385D01*
Y03046D01*
X033625D01*
X033385Y03064D02*
X033505D01*
X033745Y03082D02*
Y03046D01*
X033925D01*
X033985Y03052D01*
Y03076D01*
X033925Y03082D01*
X033745D01*
X034345D02*
X034105D01*
Y03064D01*
X034225Y0307D01*
X034285D01*
X034345Y03064D01*
Y03052D01*
X034285Y03046D01*
X034165D01*
X034105Y03052D01*
X05302Y04134D02*
X05296Y0414D01*
X05284D01*
X05278Y04134D01*
Y0411D01*
X05284Y04104D01*
X05296D01*
X05302Y0411D01*
X05332Y0414D02*
X0532D01*
X05314Y04134D01*
Y0411D01*
X0532Y04104D01*
X05332D01*
X05338Y0411D01*
Y04134D01*
X05332Y0414D01*
X0535Y04104D02*
Y0414D01*
X05362Y04128D01*
X05374Y0414D01*
Y04104D01*
X05386D02*
X05398D01*
X05392D01*
Y0414D01*
X05386Y04134D01*
X07492Y04672D02*
Y04708D01*
X0751D01*
X07516Y04702D01*
Y0469D01*
X0751Y04684D01*
X07492D01*
X07504D02*
X07516Y04672D01*
X07546D02*
Y04708D01*
X07528Y0469D01*
X07552D01*
X07588Y04708D02*
X07564D01*
Y0469D01*
X07576Y04696D01*
X07582D01*
X07588Y0469D01*
Y04678D01*
X07582Y04672D01*
X0757D01*
X07564Y04678D01*
X07492Y04442D02*
Y04478D01*
X0751D01*
X07516Y04472D01*
Y0446D01*
X0751Y04454D01*
X07492D01*
X07504D02*
X07516Y04442D01*
X07546D02*
Y04478D01*
X07528Y0446D01*
X07552D01*
X07564Y04472D02*
X0757Y04478D01*
X07582D01*
X07588Y04472D01*
Y04466D01*
X07582Y0446D01*
X07576D01*
X07582D01*
X07588Y04454D01*
Y04448D01*
X07582Y04442D01*
X0757D01*
X07564Y04448D01*
X06792Y04417D02*
Y04453D01*
X0681D01*
X06816Y04447D01*
Y04435D01*
X0681Y04429D01*
X06792D01*
X06804D02*
X06816Y04417D01*
X06846D02*
Y04453D01*
X06828Y04435D01*
X06852D01*
X06888Y04417D02*
X06864D01*
X06888Y04441D01*
Y04447D01*
X06882Y04453D01*
X0687D01*
X06864Y04447D01*
X0693Y04424D02*
Y0446D01*
X06948D01*
X06954Y04454D01*
Y04442D01*
X06948Y04436D01*
X0693D01*
X06942D02*
X06954Y04424D01*
X06984D02*
Y0446D01*
X06966Y04442D01*
X0699D01*
X07002Y04424D02*
X07014D01*
X07008D01*
Y0446D01*
X07002Y04454D01*
X05267Y04845D02*
X05261Y04851D01*
X05249D01*
X05243Y04845D01*
Y04821D01*
X05249Y04815D01*
X05261D01*
X05267Y04821D01*
X05279Y04845D02*
X05285Y04851D01*
X05297D01*
X05303Y04845D01*
Y04839D01*
X05297Y04833D01*
X05291D01*
X05297D01*
X05303Y04827D01*
Y04821D01*
X05297Y04815D01*
X05285D01*
X05279Y04821D01*
X05339Y04851D02*
X05327Y04845D01*
X05315Y04833D01*
Y04821D01*
X05321Y04815D01*
X05333D01*
X05339Y04821D01*
Y04827D01*
X05333Y04833D01*
X05315D01*
X0373Y03784D02*
Y0382D01*
X03748D01*
X03754Y03814D01*
Y03802D01*
X03748Y03796D01*
X0373D01*
X03742D02*
X03754Y03784D01*
X03784D02*
Y0382D01*
X03766Y03802D01*
X0379D01*
X03802Y03814D02*
X03808Y0382D01*
X0382D01*
X03826Y03814D01*
Y0379D01*
X0382Y03784D01*
X03808D01*
X03802Y0379D01*
Y03814D01*
X03852Y03782D02*
Y03818D01*
X0387D01*
X03876Y03812D01*
Y038D01*
X0387Y03794D01*
X03852D01*
X03864D02*
X03876Y03782D01*
X03888Y03812D02*
X03894Y03818D01*
X03906D01*
X03912Y03812D01*
Y03806D01*
X03906Y038D01*
X039D01*
X03906D01*
X03912Y03794D01*
Y03788D01*
X03906Y03782D01*
X03894D01*
X03888Y03788D01*
X03924D02*
X0393Y03782D01*
X03942D01*
X03948Y03788D01*
Y03812D01*
X03942Y03818D01*
X0393D01*
X03924Y03812D01*
Y03806D01*
X0393Y038D01*
X03948D01*
X0753Y04347D02*
X07518D01*
X07524D01*
Y04317D01*
X07518Y04311D01*
X07512D01*
X07506Y04317D01*
X0756Y04311D02*
Y04347D01*
X07542Y04329D01*
X07566D01*
X03237Y03527D02*
Y03563D01*
X03255D01*
X03261Y03557D01*
Y03545D01*
X03255Y03539D01*
X03237D01*
X03249D02*
X03261Y03527D01*
X03273Y03557D02*
X03279Y03563D01*
X03291D01*
X03297Y03557D01*
Y03551D01*
X03291Y03545D01*
X03285D01*
X03291D01*
X03297Y03539D01*
Y03533D01*
X03291Y03527D01*
X03279D01*
X03273Y03533D01*
X03327Y03527D02*
Y03563D01*
X03309Y03545D01*
X03333D01*
X03921Y03633D02*
Y03597D01*
X03939D01*
X03945Y03603D01*
Y03627D01*
X03939Y03633D01*
X03921D01*
X03957Y03597D02*
X03969D01*
X03963D01*
Y03633D01*
X03957Y03627D01*
X03289Y02677D02*
Y02641D01*
X03313D01*
X03349Y02677D02*
X03325D01*
Y02641D01*
X03349D01*
X03325Y02659D02*
X03337D01*
X03361Y02677D02*
Y02641D01*
X03379D01*
X03385Y02647D01*
Y02671D01*
X03379Y02677D01*
X03361D01*
X03421Y02641D02*
X03397D01*
X03421Y02665D01*
Y02671D01*
X03415Y02677D01*
X03403D01*
X03397Y02671D01*
X02481Y0525D02*
X02469D01*
X02475D01*
Y0522D01*
X02469Y05214D01*
X02463D01*
X02457Y0522D01*
X02493Y05244D02*
X02499Y0525D01*
X02511D01*
X02517Y05244D01*
Y05238D01*
X02511Y05232D01*
X02505D01*
X02511D01*
X02517Y05226D01*
Y0522D01*
X02511Y05214D01*
X02499D01*
X02493Y0522D01*
X03554Y02644D02*
Y0268D01*
X03572D01*
X03578Y02674D01*
Y02662D01*
X03572Y02656D01*
X03554D01*
X03566D02*
X03578Y02644D01*
X0359D02*
X03602D01*
X03596D01*
Y0268D01*
X0359Y02674D01*
X0362Y0268D02*
X03644D01*
Y02674D01*
X0362Y0265D01*
Y02644D01*
X01878Y05299D02*
Y05275D01*
X0189Y05263D01*
X01902Y05275D01*
Y05299D01*
X01914Y05263D02*
Y05299D01*
X01932D01*
X01938Y05293D01*
Y05281D01*
X01932Y05275D01*
X01914D01*
X01926D02*
X01938Y05263D01*
X0195Y05287D02*
Y05263D01*
Y05275D01*
X01956Y05281D01*
X01962Y05287D01*
X01968D01*
X01992D02*
X02004D01*
X0201Y05281D01*
Y05263D01*
X01992D01*
X01986Y05269D01*
X01992Y05275D01*
X0201D01*
X02022Y05263D02*
Y05287D01*
X0204D01*
X02046Y05281D01*
Y05263D01*
X0207Y05251D02*
X02076D01*
X02082Y05257D01*
Y05287D01*
X02064D01*
X02058Y05281D01*
Y05269D01*
X02064Y05263D01*
X02082D01*
X02112D02*
X021D01*
X02094Y05269D01*
Y05281D01*
X021Y05287D01*
X02112D01*
X02118Y05281D01*
Y05275D01*
X02094D01*
X0213Y05263D02*
X02142D01*
X02136D01*
Y05299D01*
X0213Y05293D01*
X01428Y05299D02*
Y05275D01*
X0144Y05263D01*
X01452Y05275D01*
Y05299D01*
X01464Y05263D02*
Y05299D01*
X01482D01*
X01488Y05293D01*
Y05281D01*
X01482Y05275D01*
X01464D01*
X01476D02*
X01488Y05263D01*
X015Y05251D02*
Y05287D01*
X01518D01*
X01524Y05281D01*
Y05269D01*
X01518Y05263D01*
X015D01*
X01554D02*
X01542D01*
X01536Y05269D01*
Y05281D01*
X01542Y05287D01*
X01554D01*
X0156Y05281D01*
Y05275D01*
X01536D01*
X01572Y05287D02*
Y05263D01*
Y05275D01*
X01578Y05281D01*
X01584Y05287D01*
X0159D01*
X01608Y05263D02*
X0162D01*
X01614D01*
Y05287D01*
X01608D01*
X01644Y05263D02*
X01656D01*
X01662Y05269D01*
Y05281D01*
X01656Y05287D01*
X01644D01*
X01638Y05281D01*
Y05269D01*
X01644Y05263D01*
X01698Y05299D02*
Y05263D01*
X0168D01*
X01674Y05269D01*
Y05281D01*
X0168Y05287D01*
X01698D01*
X0171Y05263D02*
X01722D01*
X01716D01*
Y05299D01*
X0171Y05293D01*
X01423Y0476D02*
X01417Y04754D01*
Y04742D01*
X01423Y04736D01*
X01429D01*
X01435Y04742D01*
Y04754D01*
X01441Y0476D01*
X01447D01*
X01453Y04754D01*
Y04742D01*
X01447Y04736D01*
X01453Y04772D02*
Y04784D01*
Y04778D01*
X01417D01*
X01423Y04772D01*
X03818Y01362D02*
Y01398D01*
X03836D01*
X03842Y01392D01*
Y0138D01*
X03836Y01374D01*
X03818D01*
X0383D02*
X03842Y01362D01*
X03854D02*
X03866D01*
X0386D01*
Y01398D01*
X03854Y01392D01*
X03884Y01362D02*
X03896D01*
X0389D01*
Y01398D01*
X03884Y01392D01*
X03914Y01362D02*
X03926D01*
X0392D01*
Y01398D01*
X03914Y01392D01*
X03624Y01362D02*
Y01398D01*
X03642D01*
X03648Y01392D01*
Y0138D01*
X03642Y01374D01*
X03624D01*
X03636D02*
X03648Y01362D01*
X0366D02*
X03672D01*
X03666D01*
Y01398D01*
X0366Y01392D01*
X0369Y01362D02*
X03702D01*
X03696D01*
Y01398D01*
X0369Y01392D01*
X0372D02*
X03726Y01398D01*
X03738D01*
X03744Y01392D01*
Y01368D01*
X03738Y01362D01*
X03726D01*
X0372Y01368D01*
Y01392D01*
X03608Y0184D02*
X03572D01*
Y01858D01*
X03578Y01864D01*
X0359D01*
X03596Y01858D01*
Y0184D01*
Y01852D02*
X03608Y01864D01*
Y01876D02*
Y01888D01*
Y01882D01*
X03572D01*
X03578Y01876D01*
X03572Y0193D02*
X03578Y01918D01*
X0359Y01906D01*
X03602D01*
X03608Y01912D01*
Y01924D01*
X03602Y0193D01*
X03596D01*
X0359Y01924D01*
Y01906D01*
X035323Y030426D02*
Y030786D01*
X035503D01*
X035563Y030726D01*
Y030606D01*
X035503Y030546D01*
X035323D01*
X035443D02*
X035563Y030426D01*
X035683D02*
X035803D01*
X035743D01*
Y030786D01*
X035683Y030726D01*
X036222Y030786D02*
X035983D01*
Y030606D01*
X036102Y030666D01*
X036162D01*
X036222Y030606D01*
Y030486D01*
X036162Y030426D01*
X036043D01*
X035983Y030486D01*
X0363Y04717D02*
Y04753D01*
X03648D01*
X03654Y04747D01*
Y04735D01*
X03648Y04729D01*
X0363D01*
X03642D02*
X03654Y04717D01*
X03666D02*
X03678D01*
X03672D01*
Y04753D01*
X03666Y04747D01*
X03714Y04717D02*
Y04753D01*
X03696Y04735D01*
X0372D01*
X03295Y04867D02*
Y04903D01*
X03313D01*
X03319Y04897D01*
Y04885D01*
X03313Y04879D01*
X03295D01*
X03307D02*
X03319Y04867D01*
X03331D02*
X03343D01*
X03337D01*
Y04903D01*
X03331Y04897D01*
X03361D02*
X03367Y04903D01*
X03379D01*
X03385Y04897D01*
Y04891D01*
X03379Y04885D01*
X03373D01*
X03379D01*
X03385Y04879D01*
Y04873D01*
X03379Y04867D01*
X03367D01*
X03361Y04873D01*
X0336Y04572D02*
Y04608D01*
X03378D01*
X03384Y04602D01*
Y0459D01*
X03378Y04584D01*
X0336D01*
X03372D02*
X03384Y04572D01*
X03396D02*
X03408D01*
X03402D01*
Y04608D01*
X03396Y04602D01*
X0345Y04572D02*
X03426D01*
X0345Y04596D01*
Y04602D01*
X03444Y04608D01*
X03432D01*
X03426Y04602D01*
X03356Y04482D02*
Y04518D01*
X03374D01*
X0338Y04512D01*
Y045D01*
X03374Y04494D01*
X03356D01*
X03368D02*
X0338Y04482D01*
X03392D02*
X03404D01*
X03398D01*
Y04518D01*
X03392Y04512D01*
X03422Y04482D02*
X03434D01*
X03428D01*
Y04518D01*
X03422Y04512D01*
X04005Y04717D02*
Y04753D01*
X04023D01*
X04029Y04747D01*
Y04735D01*
X04023Y04729D01*
X04005D01*
X04017D02*
X04029Y04717D01*
X04041Y04747D02*
X04047Y04753D01*
X04059D01*
X04065Y04747D01*
Y04741D01*
X04059Y04735D01*
X04065Y04729D01*
Y04723D01*
X04059Y04717D01*
X04047D01*
X04041Y04723D01*
Y04729D01*
X04047Y04735D01*
X04041Y04741D01*
Y04747D01*
X04047Y04735D02*
X04059D01*
X0336Y04657D02*
Y04693D01*
X03378D01*
X03384Y04687D01*
Y04675D01*
X03378Y04669D01*
X0336D01*
X03372D02*
X03384Y04657D01*
X03396Y04693D02*
X0342D01*
Y04687D01*
X03396Y04663D01*
Y04657D01*
X03289Y03814D02*
Y03778D01*
X03313D01*
X03349Y03814D02*
X03325D01*
Y03778D01*
X03349D01*
X03325Y03796D02*
X03337D01*
X03361Y03814D02*
Y03778D01*
X03379D01*
X03385Y03784D01*
Y03808D01*
X03379Y03814D01*
X03361D01*
X03415Y03778D02*
Y03814D01*
X03397Y03796D01*
X03421D01*
X032888Y02298D02*
Y02262D01*
X033128D01*
X033488Y02298D02*
X033248D01*
Y02262D01*
X033488D01*
X033248Y0228D02*
X033368D01*
X033608Y02298D02*
Y02262D01*
X033788D01*
X033848Y02268D01*
Y02292D01*
X033788Y02298D01*
X033608D01*
X033968Y02292D02*
X034028Y02298D01*
X034148D01*
X034208Y02292D01*
Y02286D01*
X034148Y0228D01*
X034088D01*
X034148D01*
X034208Y02274D01*
Y02268D01*
X034148Y02262D01*
X034028D01*
X033968Y02268D01*
X0442Y02197D02*
X04408D01*
X04414D01*
Y02167D01*
X04408Y02161D01*
X04402D01*
X04396Y02167D01*
X04432Y02161D02*
Y02197D01*
X0445D01*
X04456Y02191D01*
Y02179D01*
X0445Y02173D01*
X04432D01*
X04486Y02161D02*
Y02197D01*
X04468Y02179D01*
X04492D01*
X04655Y04857D02*
X04643D01*
X04649D01*
Y04827D01*
X04643Y04821D01*
X04637D01*
X04631Y04827D01*
X04667Y04821D02*
Y04857D01*
X04685D01*
X04691Y04851D01*
Y04839D01*
X04685Y04833D01*
X04667D01*
X04703Y04851D02*
X04709Y04857D01*
X04721D01*
X04727Y04851D01*
Y04845D01*
X04721Y04839D01*
X04715D01*
X04721D01*
X04727Y04833D01*
Y04827D01*
X04721Y04821D01*
X04709D01*
X04703Y04827D01*
X04261Y01768D02*
X04249D01*
X04255D01*
Y01738D01*
X04249Y01732D01*
X04243D01*
X04237Y01738D01*
X04273Y01732D02*
Y01768D01*
X04291D01*
X04297Y01762D01*
Y0175D01*
X04291Y01744D01*
X04273D01*
X04333Y01732D02*
X04309D01*
X04333Y01756D01*
Y01762D01*
X04327Y01768D01*
X04315D01*
X04309Y01762D01*
X04515Y04857D02*
X04503D01*
X04509D01*
Y04827D01*
X04503Y04821D01*
X04497D01*
X04491Y04827D01*
X04527Y04821D02*
Y04857D01*
X04545D01*
X04551Y04851D01*
Y04839D01*
X04545Y04833D01*
X04527D01*
X04563Y04821D02*
X04575D01*
X04569D01*
Y04857D01*
X04563Y04851D01*
X04495Y038811D02*
X04483D01*
X04489D01*
Y038512D01*
X04483Y038452D01*
X04477D01*
X04471Y038512D01*
X04507Y038452D02*
X04519D01*
X04513D01*
Y038811D01*
X04507Y038751D01*
X04561Y038452D02*
X04537D01*
X04561Y038691D01*
Y038751D01*
X04555Y038811D01*
X04543D01*
X04537Y038751D01*
X01826Y05063D02*
X01814D01*
X0182D01*
Y05033D01*
X01814Y05027D01*
X01808D01*
X01802Y05033D01*
X01838D02*
X01844Y05027D01*
X01856D01*
X01862Y05033D01*
Y05057D01*
X01856Y05063D01*
X01844D01*
X01838Y05057D01*
Y05051D01*
X01844Y05045D01*
X01862D01*
X01596Y05036D02*
X01584D01*
X0159D01*
Y05006D01*
X01584Y05D01*
X01578D01*
X01572Y05006D01*
X01608Y0503D02*
X01614Y05036D01*
X01626D01*
X01632Y0503D01*
Y05024D01*
X01626Y05018D01*
X01632Y05012D01*
Y05006D01*
X01626Y05D01*
X01614D01*
X01608Y05006D01*
Y05012D01*
X01614Y05018D01*
X01608Y05024D01*
Y0503D01*
X01614Y05018D02*
X01626D01*
X0205Y05036D02*
X02038D01*
X02044D01*
Y05006D01*
X02038Y05D01*
X02032D01*
X02026Y05006D01*
X02086Y05036D02*
X02074Y0503D01*
X02062Y05018D01*
Y05006D01*
X02068Y05D01*
X0208D01*
X02086Y05006D01*
Y05012D01*
X0208Y05018D01*
X02062D01*
X01852Y0158D02*
X0184D01*
X01846D01*
Y0155D01*
X0184Y01544D01*
X01834D01*
X01828Y0155D01*
X01888Y0158D02*
X01864D01*
Y01562D01*
X01876Y01568D01*
X01882D01*
X01888Y01562D01*
Y0155D01*
X01882Y01544D01*
X0187D01*
X01864Y0155D01*
X03424Y01409D02*
Y01373D01*
X03442D01*
X03448Y01379D01*
Y01403D01*
X03442Y01409D01*
X03424D01*
X0346D02*
X03472D01*
X03466D01*
Y01373D01*
X0346D01*
X03472D01*
X03508Y01409D02*
X03496D01*
X0349Y01403D01*
Y01379D01*
X03496Y01373D01*
X03508D01*
X03514Y01379D01*
Y01403D01*
X03508Y01409D01*
X0355Y01373D02*
X03526D01*
X0355Y01397D01*
Y01403D01*
X03544Y01409D01*
X03532D01*
X03526Y01403D01*
X03224Y01404D02*
Y01368D01*
X03242D01*
X03248Y01374D01*
Y01398D01*
X03242Y01404D01*
X03224D01*
X0326D02*
X03272D01*
X03266D01*
Y01368D01*
X0326D01*
X03272D01*
X03308Y01404D02*
X03296D01*
X0329Y01398D01*
Y01374D01*
X03296Y01368D01*
X03308D01*
X03314Y01374D01*
Y01398D01*
X03308Y01404D01*
X03326Y01368D02*
X03338D01*
X03332D01*
Y01404D01*
X03326Y01398D01*
X01716Y01192D02*
X0171Y01198D01*
X01698D01*
X01692Y01192D01*
Y01168D01*
X01698Y01162D01*
X0171D01*
X01716Y01168D01*
X01728Y01162D02*
Y01198D01*
X01752Y01162D01*
Y01198D01*
X01764Y01192D02*
X0177Y01198D01*
X01782D01*
X01788Y01192D01*
Y01186D01*
X01782Y0118D01*
X01776D01*
X01782D01*
X01788Y01174D01*
Y01168D01*
X01782Y01162D01*
X0177D01*
X01764Y01168D01*
X04753Y03465D02*
X04747Y03471D01*
X04735D01*
X04729Y03465D01*
Y03441D01*
X04735Y03435D01*
X04747D01*
X04753Y03441D01*
X04765Y03465D02*
X04771Y03471D01*
X04783D01*
X04789Y03465D01*
Y03459D01*
X04783Y03453D01*
X04777D01*
X04783D01*
X04789Y03447D01*
Y03441D01*
X04783Y03435D01*
X04771D01*
X04765Y03441D01*
X04825Y03471D02*
X04801D01*
Y03453D01*
X04813Y03459D01*
X04819D01*
X04825Y03453D01*
Y03441D01*
X04819Y03435D01*
X04807D01*
X04801Y03441D01*
X04613Y03328D02*
X04607Y03334D01*
X04595D01*
X04589Y03328D01*
Y03304D01*
X04595Y03298D01*
X04607D01*
X04613Y03304D01*
X04649Y03298D02*
X04625D01*
X04649Y03322D01*
Y03328D01*
X04643Y03334D01*
X04631D01*
X04625Y03328D01*
X04661Y03304D02*
X04667Y03298D01*
X04679D01*
X04685Y03304D01*
Y03328D01*
X04679Y03334D01*
X04667D01*
X04661Y03328D01*
Y03322D01*
X04667Y03316D01*
X04685D01*
X07429Y03712D02*
X07423Y03718D01*
X07411D01*
X07405Y03712D01*
Y03688D01*
X07411Y03682D01*
X07423D01*
X07429Y03688D01*
X07441Y03682D02*
X07453D01*
X07447D01*
Y03718D01*
X07441Y03712D01*
X07471Y03688D02*
X07477Y03682D01*
X07489D01*
X07495Y03688D01*
Y03712D01*
X07489Y03718D01*
X07477D01*
X07471Y03712D01*
Y03706D01*
X07477Y037D01*
X07495D01*
X03759Y04747D02*
X03753Y04753D01*
X03741D01*
X03735Y04747D01*
Y04723D01*
X03741Y04717D01*
X03753D01*
X03759Y04723D01*
X03771Y04717D02*
X03783D01*
X03777D01*
Y04753D01*
X03771Y04747D01*
X03825Y04753D02*
X03813Y04747D01*
X03801Y04735D01*
Y04723D01*
X03807Y04717D01*
X03819D01*
X03825Y04723D01*
Y04729D01*
X03819Y04735D01*
X03801D01*
X03514Y04742D02*
X03508Y04748D01*
X03496D01*
X0349Y04742D01*
Y04718D01*
X03496Y04712D01*
X03508D01*
X03514Y04718D01*
X03526Y04712D02*
X03538D01*
X03532D01*
Y04748D01*
X03526Y04742D01*
X0358Y04748D02*
X03556D01*
Y0473D01*
X03568Y04736D01*
X03574D01*
X0358Y0473D01*
Y04718D01*
X03574Y04712D01*
X03562D01*
X03556Y04718D01*
X03899Y04747D02*
X03893Y04753D01*
X03881D01*
X03875Y04747D01*
Y04723D01*
X03881Y04717D01*
X03893D01*
X03899Y04723D01*
X03911Y04717D02*
X03923D01*
X03917D01*
Y04753D01*
X03911Y04747D01*
X03941D02*
X03947Y04753D01*
X03959D01*
X03965Y04747D01*
Y04741D01*
X03959Y04735D01*
X03953D01*
X03959D01*
X03965Y04729D01*
Y04723D01*
X03959Y04717D01*
X03947D01*
X03941Y04723D01*
M02*
