G04*
G04 #@! TF.GenerationSoftware,Altium Limited,Altium Designer,20.1.7 (139)*
G04*
G04 Layer_Color=8388736*
%FSTAX24Y24*%
%MOIN*%
G70*
G04*
G04 #@! TF.SameCoordinates,F0BF9DC0-9546-437B-B132-7D81F4AFA61C*
G04*
G04*
G04 #@! TF.FilePolarity,Negative*
G04*
G01*
G75*
%ADD39R,0.0395X0.0237*%
%ADD40R,0.1064X0.0867*%
%ADD41R,0.0966X0.0277*%
%ADD42R,0.0630X0.0474*%
%ADD43R,0.0572X0.0316*%
%ADD44R,0.0474X0.0630*%
%ADD45R,0.0680X0.1080*%
%ADD46R,0.1458X0.1064*%
%ADD47R,0.0867X0.0671*%
%ADD48R,0.0946X0.0356*%
%ADD49R,0.0631X0.0552*%
%ADD50R,0.0946X0.0552*%
%ADD51R,0.0631X0.0710*%
%ADD52R,0.0671X0.0434*%
%ADD53R,0.0630X0.0580*%
%ADD54R,0.0434X0.0552*%
%ADD55R,0.0434X0.0552*%
%ADD56R,0.0395X0.0316*%
%ADD57R,0.0671X0.0592*%
%ADD58C,0.0730*%
%ADD59R,0.0730X0.0730*%
%ADD60C,0.0720*%
%ADD61R,0.0720X0.0720*%
%ADD62R,0.0730X0.0730*%
%ADD63C,0.0780*%
%ADD64C,0.0080*%
%ADD65C,0.0277*%
%ADD66C,0.0867*%
%ADD67R,0.0867X0.0867*%
%ADD68C,0.2029*%
%ADD69C,0.0671*%
%ADD70C,0.0710*%
%ADD71R,0.0710X0.0710*%
G04:AMPARAMS|DCode=72|XSize=126.1mil|YSize=126.1mil|CornerRadius=33.5mil|HoleSize=0mil|Usage=FLASHONLY|Rotation=90.000|XOffset=0mil|YOffset=0mil|HoleType=Round|Shape=RoundedRectangle|*
%AMROUNDEDRECTD72*
21,1,0.1261,0.0591,0,0,90.0*
21,1,0.0591,0.1261,0,0,90.0*
1,1,0.0671,0.0295,0.0295*
1,1,0.0671,0.0295,-0.0295*
1,1,0.0671,-0.0295,-0.0295*
1,1,0.0671,-0.0295,0.0295*
%
%ADD72ROUNDEDRECTD72*%
G04:AMPARAMS|DCode=73|XSize=43.4mil|YSize=126.1mil|CornerRadius=12.9mil|HoleSize=0mil|Usage=FLASHONLY|Rotation=90.000|XOffset=0mil|YOffset=0mil|HoleType=Round|Shape=RoundedRectangle|*
%AMROUNDEDRECTD73*
21,1,0.0434,0.1004,0,0,90.0*
21,1,0.0177,0.1261,0,0,90.0*
1,1,0.0257,0.0502,0.0089*
1,1,0.0257,0.0502,-0.0089*
1,1,0.0257,-0.0502,-0.0089*
1,1,0.0257,-0.0502,0.0089*
%
%ADD73ROUNDEDRECTD73*%
%ADD74R,0.0730X0.0980*%
%ADD75O,0.0730X0.0980*%
%ADD76C,0.0678*%
%ADD77R,0.0678X0.0678*%
%ADD78R,0.0830X0.0830*%
%ADD79O,0.0830X0.0710*%
%ADD80C,0.0830*%
%ADD81C,0.2442*%
%ADD82O,0.0730X0.0830*%
%ADD83C,0.0680*%
%ADD84R,0.0671X0.0671*%
%ADD85O,0.0880X0.0830*%
%ADD86O,0.1280X0.1180*%
%ADD87C,0.0474*%
%ADD88C,0.0580*%
%ADD89C,0.0552*%
D39*
X073146Y045593D02*
D03*
Y045907D02*
D03*
X073854D02*
D03*
Y045593D02*
D03*
D40*
X077925Y044138D02*
D03*
X080185Y044137D02*
D03*
Y04768D02*
D03*
X077925Y047682D02*
D03*
D41*
X077805Y04529D02*
D03*
X0778Y0456D02*
D03*
X077795Y04591D02*
D03*
X07779Y04622D02*
D03*
X077785Y04653D02*
D03*
D42*
X0359Y02215D02*
D03*
Y02125D02*
D03*
X0358Y0336D02*
D03*
Y0327D02*
D03*
X06865Y0437D02*
D03*
Y0428D02*
D03*
X0696Y0428D02*
D03*
Y0437D02*
D03*
X0385Y0364D02*
D03*
Y0373D02*
D03*
X03595Y01705D02*
D03*
Y01795D02*
D03*
X0376Y0364D02*
D03*
Y0373D02*
D03*
X04025Y048D02*
D03*
Y0489D02*
D03*
X037Y048D02*
D03*
Y0489D02*
D03*
X0345Y04885D02*
D03*
Y04795D02*
D03*
X03585Y025D02*
D03*
Y0259D02*
D03*
D43*
X035787Y03685D02*
D03*
X036613Y037226D02*
D03*
Y036474D02*
D03*
D44*
X0367Y03805D02*
D03*
X0358D02*
D03*
X0413Y013D02*
D03*
X0404D02*
D03*
X07515Y0453D02*
D03*
X07605D02*
D03*
X07515Y0462D02*
D03*
X07605D02*
D03*
X03735Y013D02*
D03*
X03645D02*
D03*
X0393D02*
D03*
X0384D02*
D03*
X0338Y03545D02*
D03*
X0347D02*
D03*
X03315Y04495D02*
D03*
X03225D02*
D03*
X03315Y04585D02*
D03*
X03225D02*
D03*
X03315Y04675D02*
D03*
X03225D02*
D03*
D45*
X03335Y01785D02*
D03*
X0347D02*
D03*
Y03301D02*
D03*
X03335D02*
D03*
X0347Y0368D02*
D03*
X03335D02*
D03*
X0347Y02164D02*
D03*
X03335D02*
D03*
X0347Y02543D02*
D03*
X03335D02*
D03*
D46*
X03865Y041305D02*
D03*
Y04662D02*
D03*
D47*
X0355Y043963D02*
D03*
Y042978D02*
D03*
Y044947D02*
D03*
X0418D02*
D03*
Y042978D02*
D03*
D48*
X075606Y03655D02*
D03*
Y036983D02*
D03*
Y037417D02*
D03*
Y03785D02*
D03*
Y038283D02*
D03*
Y038716D02*
D03*
Y039149D02*
D03*
Y039582D02*
D03*
Y040015D02*
D03*
D49*
X07592Y036098D02*
D03*
D50*
X0797D02*
D03*
Y0422D02*
D03*
D51*
X07592Y041846D02*
D03*
D52*
X034635Y02885D02*
D03*
Y029408D02*
D03*
X033415Y028851D02*
D03*
Y029408D02*
D03*
D53*
X0746Y0378D02*
D03*
Y0387D02*
D03*
X0394Y0489D02*
D03*
Y048D02*
D03*
X0378Y0489D02*
D03*
Y048D02*
D03*
X03535Y0489D02*
D03*
Y048D02*
D03*
D54*
X03365Y013D02*
D03*
X03565Y01305D02*
D03*
D55*
X03245Y013D02*
D03*
X03445Y01305D02*
D03*
D56*
X03925Y036685D02*
D03*
Y037315D02*
D03*
D57*
X035753Y029726D02*
D03*
Y028978D02*
D03*
D58*
X043Y0283D02*
D03*
X075024Y051398D02*
D03*
Y050398D02*
D03*
X074024Y051398D02*
D03*
Y050398D02*
D03*
X073024Y051398D02*
D03*
Y050398D02*
D03*
X072024Y051398D02*
D03*
Y050398D02*
D03*
X071024Y051398D02*
D03*
X057244Y051358D02*
D03*
X058244Y050358D02*
D03*
Y051358D02*
D03*
X059244Y050358D02*
D03*
Y051358D02*
D03*
X060244Y050358D02*
D03*
Y051358D02*
D03*
X061244Y050358D02*
D03*
Y051358D02*
D03*
X062244Y050358D02*
D03*
Y051358D02*
D03*
X063244Y050358D02*
D03*
Y051358D02*
D03*
X064244Y050358D02*
D03*
Y051358D02*
D03*
X065244Y050358D02*
D03*
Y051358D02*
D03*
X066244Y050358D02*
D03*
Y051358D02*
D03*
D59*
X043Y0324D02*
D03*
D60*
X032433Y011968D02*
D03*
X033433D02*
D03*
X034433D02*
D03*
X035433D02*
D03*
X036433D02*
D03*
X037433D02*
D03*
X038433D02*
D03*
X039433D02*
D03*
X040433D02*
D03*
X041433D02*
D03*
X042433D02*
D03*
X043433D02*
D03*
X044433D02*
D03*
X045047Y051339D02*
D03*
X044047D02*
D03*
X043047D02*
D03*
X042047D02*
D03*
X041047D02*
D03*
X040047D02*
D03*
X039047D02*
D03*
X038047D02*
D03*
X037047D02*
D03*
X036047D02*
D03*
X035047D02*
D03*
X034047D02*
D03*
X033047D02*
D03*
D61*
X045433Y011968D02*
D03*
X032047Y051339D02*
D03*
D62*
X071024Y050398D02*
D03*
X057244Y050358D02*
D03*
D63*
X0506Y02205D02*
D03*
X0526D02*
D03*
X04835Y02215D02*
D03*
X04635D02*
D03*
X0443Y0284D02*
D03*
Y0304D02*
D03*
D64*
X03865Y042978D02*
D03*
Y04475D02*
D03*
X029586Y045906D02*
D03*
Y017402D02*
D03*
D65*
X079857Y04035D02*
D03*
Y037208D02*
D03*
X0779Y045923D02*
D03*
Y045613D02*
D03*
D66*
X061856Y01845D02*
D03*
X07288D02*
D03*
X064612D02*
D03*
X067368D02*
D03*
X070124D02*
D03*
X05221Y020419D02*
D03*
X054966D02*
D03*
X049454D02*
D03*
X048076Y01845D02*
D03*
X0591D02*
D03*
X050832D02*
D03*
X053588D02*
D03*
X056344D02*
D03*
X057722Y020419D02*
D03*
X063234D02*
D03*
X06599D02*
D03*
X068746D02*
D03*
X071502D02*
D03*
X060478D02*
D03*
X075635Y01845D02*
D03*
X074257Y020419D02*
D03*
X061856Y0282D02*
D03*
X07288D02*
D03*
X064612D02*
D03*
X067368D02*
D03*
X070124D02*
D03*
X05221Y030168D02*
D03*
X054966D02*
D03*
X049454D02*
D03*
X048076Y0282D02*
D03*
X0591D02*
D03*
X050832D02*
D03*
X053588D02*
D03*
X056344D02*
D03*
X057722Y030168D02*
D03*
X063234D02*
D03*
X06599D02*
D03*
X068746D02*
D03*
X071502D02*
D03*
X060478D02*
D03*
X075635Y0282D02*
D03*
X074257Y030168D02*
D03*
D67*
X046698Y020419D02*
D03*
Y030168D02*
D03*
D68*
X064119Y037692D02*
D03*
X054281D02*
D03*
D69*
X057564Y037133D02*
D03*
X058655D02*
D03*
X059745D02*
D03*
X060836D02*
D03*
X057019Y038251D02*
D03*
X058109D02*
D03*
X0592D02*
D03*
X060291D02*
D03*
X061381D02*
D03*
X026717Y011968D02*
D03*
X024717D02*
D03*
X023717D02*
D03*
X022717D02*
D03*
X021717D02*
D03*
X020717D02*
D03*
X019717D02*
D03*
X018717D02*
D03*
X025717D02*
D03*
D70*
X02505Y051339D02*
D03*
X02605D02*
D03*
X02705D02*
D03*
X02805D02*
D03*
X02905D02*
D03*
X02505Y050339D02*
D03*
X02605D02*
D03*
X02705D02*
D03*
X02805D02*
D03*
X02905D02*
D03*
X03005D02*
D03*
D71*
Y051339D02*
D03*
D72*
X029275Y043465D02*
D03*
Y019843D02*
D03*
D73*
X030137Y037906D02*
D03*
Y037406D02*
D03*
Y036406D02*
D03*
Y034906D02*
D03*
Y033906D02*
D03*
Y033406D02*
D03*
Y032406D02*
D03*
Y030906D02*
D03*
Y029906D02*
D03*
Y029406D02*
D03*
Y028406D02*
D03*
Y026906D02*
D03*
Y025906D02*
D03*
Y025406D02*
D03*
Y038406D02*
D03*
Y036906D02*
D03*
Y035906D02*
D03*
Y035406D02*
D03*
Y034406D02*
D03*
Y032906D02*
D03*
Y031906D02*
D03*
Y031406D02*
D03*
Y030406D02*
D03*
Y028906D02*
D03*
Y027906D02*
D03*
Y027406D02*
D03*
Y026406D02*
D03*
Y024906D02*
D03*
D74*
X01975Y05135D02*
D03*
X01525D02*
D03*
D75*
X02075D02*
D03*
X02175D02*
D03*
X01625D02*
D03*
X01725D02*
D03*
D76*
X052913Y04725D02*
D03*
Y04625D02*
D03*
Y04525D02*
D03*
D77*
Y04425D02*
D03*
D78*
X0469Y0473D02*
D03*
X0431Y0207D02*
D03*
X04455D02*
D03*
X0455Y0453D02*
D03*
D79*
X0469Y0463D02*
D03*
Y0453D02*
D03*
X0455Y0473D02*
D03*
Y0463D02*
D03*
D80*
X01265Y04955D02*
D03*
Y04755D02*
D03*
X0431Y0187D02*
D03*
Y0197D02*
D03*
X04455Y0187D02*
D03*
Y0197D02*
D03*
D81*
X051339Y011968D02*
D03*
X078898Y015906D02*
D03*
X011968Y011968D02*
D03*
Y051339D02*
D03*
X078898D02*
D03*
X051339D02*
D03*
D82*
X04311Y03745D02*
D03*
X04409D02*
D03*
X0451D02*
D03*
X01619Y0492D02*
D03*
X0172D02*
D03*
X0195D02*
D03*
X01849D02*
D03*
X02074D02*
D03*
X02175D02*
D03*
D83*
X01975Y01465D02*
D03*
X02075D02*
D03*
X01875D02*
D03*
X02074Y01365D02*
D03*
X01975D02*
D03*
X01875D02*
D03*
D84*
X027717Y011968D02*
D03*
D85*
X0478Y03355D02*
D03*
X0508D02*
D03*
X0464Y03215D02*
D03*
X0494D02*
D03*
D86*
X01235Y03065D02*
D03*
Y03215D02*
D03*
D87*
X01705Y04045D02*
D03*
X0376Y0373D02*
D03*
X07975Y0361D02*
D03*
X07965Y0422D02*
D03*
X0339Y0438D02*
D03*
X04175Y043D02*
D03*
X0386Y0412D02*
D03*
X03865Y04665D02*
D03*
X0385Y0176D02*
D03*
X037Y0211D02*
D03*
X032847Y0179D02*
D03*
X0333Y03305D02*
D03*
X03685Y03525D02*
D03*
X0403Y02495D02*
D03*
X04585Y02445D02*
D03*
X04625Y03595D02*
D03*
X03395Y0241D02*
D03*
X06295Y04035D02*
D03*
X03925Y0377D02*
D03*
Y02985D02*
D03*
X0301Y0208D02*
D03*
X0296Y02145D02*
D03*
X037Y01965D02*
D03*
X02755Y0354D02*
D03*
X01415Y0439D02*
D03*
X06215Y0489D02*
D03*
X03735Y013D02*
D03*
X0413D02*
D03*
X0764Y04445D02*
D03*
X027303Y044D02*
D03*
X02775Y0435D02*
D03*
X0582Y03985D02*
D03*
X03645Y0336D02*
D03*
X0634Y04075D02*
D03*
X062588Y041138D02*
D03*
X03555Y03685D02*
D03*
X036576Y029726D02*
D03*
X0338Y0348D02*
D03*
X016963Y041887D02*
D03*
X02485Y0486D02*
D03*
X02575Y049247D02*
D03*
X03335Y0368D02*
D03*
X057769Y041481D02*
D03*
X0587Y04185D02*
D03*
X06135Y0422D02*
D03*
X05975Y043D02*
D03*
X0571Y04345D02*
D03*
X06075Y0426D02*
D03*
X0393Y013D02*
D03*
X03565Y01305D02*
D03*
X03365Y013D02*
D03*
X0759Y0361D02*
D03*
X07395Y0383D02*
D03*
X072051Y039199D02*
D03*
X073017Y037167D02*
D03*
X071032Y039582D02*
D03*
X01945Y021944D02*
D03*
X01695Y02135D02*
D03*
X016361Y019039D02*
D03*
X023494Y03655D02*
D03*
X01645Y04325D02*
D03*
X0202Y029D02*
D03*
X0261Y0281D02*
D03*
X01575D02*
D03*
X0261Y025D02*
D03*
X017444Y024406D02*
D03*
X0165Y0439D02*
D03*
X063745Y049353D02*
D03*
X06492Y04943D02*
D03*
X0149Y02355D02*
D03*
X01145D02*
D03*
X01615Y02365D02*
D03*
X02275Y02575D02*
D03*
X01145Y0266D02*
D03*
X013226Y024676D02*
D03*
X0199Y02715D02*
D03*
X0165Y02565D02*
D03*
X015Y0173D02*
D03*
X0154Y0169D02*
D03*
X0158Y01765D02*
D03*
X01465Y02605D02*
D03*
X0144Y01905D02*
D03*
X0158Y02715D02*
D03*
X01445Y02465D02*
D03*
X01925Y02405D02*
D03*
X01745Y02605D02*
D03*
X01845D02*
D03*
X0152Y02555D02*
D03*
D88*
X03315Y04105D02*
D03*
X04285Y0407D02*
D03*
X0759Y04185D02*
D03*
X04085Y0159D02*
D03*
X0625Y01485D02*
D03*
X0585Y0149D02*
D03*
X04145Y0159D02*
D03*
X0402D02*
D03*
X0396D02*
D03*
X06455Y01505D02*
D03*
X0673Y0151D02*
D03*
X07025D02*
D03*
X0729D02*
D03*
X0322Y0422D02*
D03*
X0769Y047D02*
D03*
X0779Y04405D02*
D03*
X03335Y0205D02*
D03*
Y0254D02*
D03*
X0365Y0259D02*
D03*
X03725Y02445D02*
D03*
X037797Y03395D02*
D03*
Y03335D02*
D03*
X03835D02*
D03*
Y03395D02*
D03*
X0372Y04235D02*
D03*
X0346D02*
D03*
X05315Y03165D02*
D03*
X03165Y0274D02*
D03*
X02355Y03965D02*
D03*
X0414Y02615D02*
D03*
Y02675D02*
D03*
X0419D02*
D03*
Y02615D02*
D03*
X080185Y044085D02*
D03*
Y047685D02*
D03*
X077907Y0477D02*
D03*
X06755Y0437D02*
D03*
X0689Y0389D02*
D03*
X07035Y03565D02*
D03*
X0699Y0378D02*
D03*
X0277Y0163D02*
D03*
X0193Y03425D02*
D03*
X0182Y02955D02*
D03*
X02245Y02075D02*
D03*
X02565Y0208D02*
D03*
Y02395D02*
D03*
X0248Y01985D02*
D03*
X0316Y0182D02*
D03*
X01145D02*
D03*
D89*
X078941Y046776D02*
D03*
Y045044D02*
D03*
M02*
