G04*
G04 #@! TF.GenerationSoftware,Altium Limited,Altium Designer,20.1.7 (139)*
G04*
G04 Layer_Physical_Order=2*
G04 Layer_Color=16711680*
%FSTAX24Y24*%
%MOIN*%
G70*
G04*
G04 #@! TF.SameCoordinates,32A48367-B763-4124-948E-770BFEAF10EB*
G04*
G04*
G04 #@! TF.FilePolarity,Positive*
G04*
G01*
G75*
%ADD16C,0.0079*%
%ADD17C,0.0100*%
%ADD27R,0.0394X0.0550*%
%ADD31C,0.0600*%
%ADD57C,0.0315*%
%ADD61C,0.0512*%
%ADD62O,0.0860X0.0600*%
%ADD63C,0.1100*%
%ADD64O,0.1200X0.1100*%
%ADD65C,0.0598*%
%ADD66R,0.0598X0.0598*%
%ADD67O,0.0750X0.0650*%
%ADD68O,0.0709X0.0650*%
%ADD69R,0.0900X0.0650*%
%ADD70O,0.0900X0.0650*%
%ADD71O,0.0650X0.0750*%
%ADD72C,0.0500*%
G36*
X017648Y04595D02*
X017614Y04595D01*
X017552Y045945D01*
X017525Y045941D01*
X0175Y045935D01*
X017477Y045928D01*
X017456Y045919D01*
X017437Y045909D01*
X01742Y045898D01*
X017406Y045885D01*
X017335Y045956D01*
X017348Y04597D01*
X017359Y045987D01*
X017369Y046006D01*
X017378Y046027D01*
X017385Y04605D01*
X017391Y046075D01*
X017395Y046102D01*
X017398Y046132D01*
X0174Y046198D01*
X017648Y04595D01*
D02*
G37*
G36*
X017251Y044626D02*
X017255Y044606D01*
X017261Y044586D01*
X01727Y044565D01*
X017281Y044544D01*
X017295Y044522D01*
X017311Y044499D01*
X01733Y044476D01*
X017375Y044429D01*
X017025D01*
X017049Y044453D01*
X017089Y044499D01*
X017105Y044522D01*
X017119Y044544D01*
X01713Y044565D01*
X017139Y044586D01*
X017145Y044606D01*
X017149Y044626D01*
X01715Y044645D01*
X01725D01*
X017251Y044626D01*
D02*
G37*
G36*
X0213Y04305D02*
X02025D01*
Y0463D01*
X017987D01*
X017956Y046377D01*
X0179Y04645D01*
X017827Y046506D01*
X017741Y046541D01*
X01765Y046553D01*
X017559Y046541D01*
X017473Y046506D01*
X0174Y04645D01*
X017344Y046377D01*
X017313Y0463D01*
X010153D01*
Y049847D01*
X0213D01*
Y04305D01*
D02*
G37*
G36*
X034697Y04125D02*
X010153D01*
Y046198D01*
X017249D01*
X017296Y046148D01*
X017296Y046139D01*
X017294Y046116D01*
X01729Y046094D01*
X017286Y046076D01*
X017282Y046061D01*
X017277Y046049D01*
X017272Y04604D01*
X017268Y046035D01*
X017092Y045858D01*
X017059Y045809D01*
X017047Y04575D01*
Y044637D01*
X017046Y044631D01*
X017043Y044621D01*
X017038Y044609D01*
X01703Y044595D01*
X01702Y044579D01*
X017009Y044563D01*
X016974Y044522D01*
X016957Y044504D01*
X01695Y0445D01*
X016894Y044427D01*
X016859Y044341D01*
X016847Y04425D01*
X016859Y044159D01*
X016894Y044073D01*
X01695Y044D01*
X017023Y043944D01*
X017109Y043909D01*
X0172Y043897D01*
X017291Y043909D01*
X017377Y043944D01*
X01745Y044D01*
X017506Y044073D01*
X017541Y044159D01*
X017553Y04425D01*
X017541Y044341D01*
X017506Y044427D01*
X01745Y0445D01*
X017444Y044504D01*
X017407Y044544D01*
X017392Y044562D01*
X01738Y044579D01*
X01737Y044595D01*
X017362Y044609D01*
X017357Y044621D01*
X017354Y044631D01*
X017353Y044637D01*
Y045687D01*
X017485Y045818D01*
X01749Y045822D01*
X017499Y045827D01*
X017511Y045831D01*
X017526Y045836D01*
X017544Y04584D01*
X017564Y045844D01*
X017618Y045848D01*
X017642Y045848D01*
X01765Y045847D01*
X017741Y045859D01*
X017827Y045894D01*
X0179Y04595D01*
X017956Y046023D01*
X017991Y046109D01*
X018003Y046198D01*
X020148D01*
Y04305D01*
X020156Y043011D01*
X020178Y042978D01*
X020211Y042956D01*
X02025Y042948D01*
X020369D01*
X020373Y042944D01*
X020459Y042909D01*
X02055Y042897D01*
X020641Y042909D01*
X020727Y042944D01*
X020731Y042948D01*
X0213D01*
X021339Y042956D01*
X021372Y042978D01*
X021394Y043011D01*
X021402Y04305D01*
Y049847D01*
X034697D01*
Y04125D01*
D02*
G37*
G36*
Y021653D02*
X010153D01*
Y022848D01*
X010831D01*
X010848Y022832D01*
X010786Y022675D01*
X01055D01*
Y021825D01*
X01165D01*
Y021934D01*
X011651Y021942D01*
X011652Y021946D01*
X011654Y021949D01*
X01166Y021954D01*
X011673Y021962D01*
X011694Y021971D01*
X011724Y021979D01*
X011763Y021985D01*
X011809Y021989D01*
X011855Y02199D01*
X01717D01*
X017237Y021999D01*
X0173Y022025D01*
X017354Y022066D01*
X017734Y022446D01*
X017775Y0225D01*
X017801Y022563D01*
X01781Y02263D01*
Y023148D01*
X017811Y023205D01*
X017815Y023263D01*
X017822Y023313D01*
X017831Y023352D01*
X017841Y023382D01*
X017842Y023384D01*
X017882Y023401D01*
X017965Y023465D01*
X018135D01*
X018218Y023401D01*
X018316Y02336D01*
X01842Y023347D01*
X01868D01*
X018784Y02336D01*
X018882Y023401D01*
X018965Y023465D01*
X019029Y023548D01*
X01907Y023646D01*
X019083Y02375D01*
X01907Y023854D01*
X019029Y023952D01*
X018965Y024035D01*
X018882Y024099D01*
X018784Y02414D01*
X01868Y024153D01*
X01842D01*
X018316Y02414D01*
X018218Y024099D01*
X018135Y024035D01*
X017965D01*
X017882Y024099D01*
X017842Y024116D01*
X017841Y024118D01*
X017831Y024148D01*
X017822Y024186D01*
X017815Y024259D01*
X017815Y024263D01*
X017822Y024313D01*
X017831Y024352D01*
X017841Y024382D01*
X017842Y024384D01*
X017882Y024401D01*
X017965Y024465D01*
X018135D01*
X018218Y024401D01*
X018316Y02436D01*
X01842Y024347D01*
X01868D01*
X018784Y02436D01*
X018882Y024401D01*
X018965Y024465D01*
X019029Y024548D01*
X01907Y024646D01*
X019083Y02475D01*
X01907Y024854D01*
X019029Y024952D01*
X018965Y025035D01*
X018882Y025099D01*
X018784Y02514D01*
X01868Y025153D01*
X01842D01*
X018316Y02514D01*
X018218Y025099D01*
X018135Y025035D01*
X017965D01*
X017882Y025099D01*
X017784Y02514D01*
X01768Y025153D01*
X01742D01*
X017316Y02514D01*
X017218Y025099D01*
X017135Y025035D01*
X017071Y024952D01*
X01703Y024854D01*
X017017Y02475D01*
X01703Y024646D01*
X017071Y024548D01*
X017135Y024465D01*
X017218Y024401D01*
X017258Y024384D01*
X017259Y024382D01*
X017269Y024352D01*
X017278Y024314D01*
X017285Y024241D01*
X017285Y024237D01*
X017278Y024187D01*
X017269Y024148D01*
X017259Y024118D01*
X017258Y024116D01*
X017218Y024099D01*
X017135Y024035D01*
X017071Y023952D01*
X01703Y023854D01*
X017017Y02375D01*
X01703Y023646D01*
X017071Y023548D01*
X017135Y023465D01*
X017218Y023401D01*
X017258Y023384D01*
X017259Y023382D01*
X017269Y023352D01*
X017278Y023314D01*
X017289Y023203D01*
X01729Y023148D01*
Y022738D01*
X017062Y02251D01*
X01292D01*
X012874Y022512D01*
X012834Y022519D01*
X012802Y02253D01*
X012778Y022543D01*
X012759Y022559D01*
X012743Y022578D01*
X01273Y022602D01*
X012719Y022634D01*
X012712Y022674D01*
X01271Y02272D01*
Y02825D01*
X012701Y028317D01*
X012675Y02838D01*
X012634Y028434D01*
X01258Y028475D01*
X012517Y028501D01*
X01245Y02851D01*
X011723D01*
X011629Y028514D01*
X011587Y028519D01*
X011547Y028526D01*
X01151Y028534D01*
X011477Y028544D01*
X011447Y028556D01*
X01142Y028569D01*
X011396Y028584D01*
X011371Y028602D01*
X011364Y028606D01*
X011344Y028621D01*
X01124Y028664D01*
X011191Y028671D01*
Y028829D01*
X01124Y028836D01*
X011344Y028879D01*
X011432Y028947D01*
X011501Y029036D01*
X011543Y029139D01*
X011558Y02925D01*
X011543Y029361D01*
X011501Y029464D01*
X011432Y029553D01*
X011344Y029621D01*
X01124Y029664D01*
X011129Y029679D01*
X011071D01*
X011052Y029695D01*
Y032279D01*
X011195Y032309D01*
X011209Y032306D01*
X011228Y032278D01*
X011261Y032256D01*
X0113Y032248D01*
X015037Y032248D01*
X01505Y032248D01*
X01505Y032248D01*
X015089Y032256D01*
X015122Y032278D01*
X015144Y032311D01*
X015152Y03235D01*
X015152Y03235D01*
X015152Y032363D01*
X015152Y038548D01*
X024348Y038548D01*
X024348Y036635D01*
X024203Y036575D01*
X023962Y036815D01*
X023959Y03682D01*
X023954Y036829D01*
X023949Y036842D01*
X023944Y036857D01*
X02394Y036875D01*
X023937Y036895D01*
X023933Y036949D01*
X023933Y036973D01*
X023934Y036981D01*
X023922Y037072D01*
X023886Y037157D01*
X023835Y037224D01*
X023844Y037298D01*
X023847Y037317D01*
X023877Y037393D01*
X023964Y037429D01*
X024053Y037497D01*
X024121Y037586D01*
X024164Y037689D01*
X024179Y0378D01*
Y0379D01*
X024164Y038011D01*
X024121Y038114D01*
X024053Y038203D01*
X023964Y038271D01*
X023861Y038314D01*
X02375Y038329D01*
X023639Y038314D01*
X023536Y038271D01*
X023447Y038203D01*
X023379Y038114D01*
X023336Y038011D01*
X023326Y037933D01*
X023324Y037923D01*
X023166D01*
X023164Y037933D01*
X023154Y038011D01*
X023111Y038114D01*
X023043Y038203D01*
X022954Y038271D01*
X022851Y038314D01*
X02274Y038329D01*
X022629Y038314D01*
X022526Y038271D01*
X022437Y038203D01*
X022369Y038114D01*
X022326Y038011D01*
X022311Y0379D01*
Y0378D01*
X022326Y037689D01*
X022369Y037586D01*
X022437Y037497D01*
X022526Y037429D01*
X022587Y037403D01*
Y03341D01*
X022599Y033351D01*
X022632Y033302D01*
X022942Y032992D01*
X022991Y032959D01*
X02305Y032947D01*
X023239D01*
X023275Y032901D01*
X0233Y03275D01*
X023244Y032677D01*
X023209Y032591D01*
X023197Y0325D01*
X023209Y032409D01*
X023244Y032323D01*
X0233Y03225D01*
X023373Y032194D01*
X023459Y032159D01*
X02355Y032147D01*
X023641Y032159D01*
X023727Y032194D01*
X0238Y03225D01*
X023878Y032256D01*
X026098Y030035D01*
X025994Y029917D01*
X025952Y029949D01*
X025854Y02999D01*
X02575Y030003D01*
X025646Y02999D01*
X025548Y029949D01*
X025465Y029885D01*
X025401Y029802D01*
X02536Y029704D01*
X025347Y0296D01*
X02536Y029496D01*
X025401Y029398D01*
X025433Y029356D01*
X025315Y029252D01*
X022058Y032508D01*
X022009Y032541D01*
X02195Y032553D01*
X020237D01*
X020231Y032554D01*
X020221Y032557D01*
X020209Y032562D01*
X020195Y03257D01*
X020179Y03258D01*
X020163Y032591D01*
X020122Y032626D01*
X020104Y032643D01*
X0201Y03265D01*
X020027Y032706D01*
X019941Y032741D01*
X01985Y032753D01*
X019759Y032741D01*
X019673Y032706D01*
X0196Y03265D01*
X01945D01*
X019377Y032706D01*
X019291Y032741D01*
X0192Y032753D01*
X019109Y032741D01*
X019023Y032706D01*
X01895Y03265D01*
X018894Y032577D01*
X018859Y032491D01*
X018847Y0324D01*
X018859Y032309D01*
X018894Y032223D01*
X018935Y03217D01*
X01894Y032083D01*
Y0258D01*
X018949Y025733D01*
X018975Y02567D01*
X019016Y025616D01*
X020816Y023816D01*
X02087Y023775D01*
X020933Y023749D01*
X021Y02374D01*
X03277D01*
X032828Y023739D01*
X032889Y023735D01*
X032941Y023728D01*
X032983Y023719D01*
X033014Y023709D01*
X03302Y023705D01*
X033057Y023637D01*
X033138Y023538D01*
X033237Y023457D01*
X03335Y023397D01*
X033473Y023359D01*
X0336Y023347D01*
X0337D01*
X033827Y023359D01*
X03395Y023397D01*
X034063Y023457D01*
X034162Y023538D01*
X034243Y023637D01*
X034303Y02375D01*
X034341Y023873D01*
X034353Y024D01*
X034341Y024127D01*
X034303Y02425D01*
X034243Y024363D01*
X034162Y024462D01*
X034063Y024543D01*
X03395Y024603D01*
X033827Y024641D01*
X0337Y024653D01*
X0336D01*
X033473Y024641D01*
X03335Y024603D01*
X033237Y024543D01*
X033138Y024462D01*
X033057Y024363D01*
X03302Y024295D01*
X033014Y024291D01*
X032983Y024281D01*
X032942Y024272D01*
X032827Y024261D01*
X03277Y02426D01*
X021108D01*
X01946Y025908D01*
Y032068D01*
X01946Y032075D01*
X019557Y032127D01*
X019584Y032134D01*
X019619Y032136D01*
X019673Y032094D01*
X019759Y032059D01*
X01985Y032047D01*
X019941Y032059D01*
X020027Y032094D01*
X0201Y03215D01*
X020104Y032156D01*
X020144Y032193D01*
X020162Y032208D01*
X020179Y03222D01*
X020195Y03223D01*
X020209Y032238D01*
X020221Y032243D01*
X020231Y032246D01*
X020237Y032247D01*
X021887D01*
X023677Y030457D01*
X023654Y030267D01*
X023604Y030236D01*
X023587Y030239D01*
X023571Y030243D01*
X023559Y030248D01*
X02355Y030252D01*
X023547Y030254D01*
X0233Y0305D01*
X023254Y030531D01*
X0232Y030542D01*
X021043D01*
X021039Y030543D01*
X02103Y030546D01*
X021018Y030552D01*
X021003Y03056D01*
X020986Y030571D01*
X020969Y030585D01*
X020924Y030624D01*
X020904Y030643D01*
X0209Y03065D01*
X020827Y030706D01*
X020741Y030741D01*
X02065Y030753D01*
X020559Y030741D01*
X020473Y030706D01*
X0204Y03065D01*
X020344Y030577D01*
X020309Y030491D01*
X020297Y0304D01*
X020309Y030309D01*
X020344Y030223D01*
X0204Y03015D01*
X020473Y030094D01*
X020559Y030059D01*
X02065Y030047D01*
X020741Y030059D01*
X020827Y030094D01*
X0209Y03015D01*
X020904Y030157D01*
X020924Y030176D01*
X020969Y030215D01*
X020986Y030229D01*
X021003Y03024D01*
X021018Y030248D01*
X02103Y030254D01*
X021039Y030257D01*
X021043Y030258D01*
X023141D01*
X023346Y030053D01*
X023348Y03005D01*
X023352Y030041D01*
X023357Y030029D01*
X023361Y030013D01*
X023365Y029993D01*
X023368Y029971D01*
X023372Y029912D01*
X023372Y029884D01*
X023371Y029876D01*
X023383Y029785D01*
X023418Y029699D01*
X023474Y029626D01*
X023548Y02957D01*
X023633Y029535D01*
X023724Y029523D01*
X023815Y029535D01*
X023901Y02957D01*
X023974Y029626D01*
X02403Y029699D01*
X024065Y029785D01*
X024072Y029839D01*
X024168Y029891D01*
X024233Y029901D01*
X025311Y028823D01*
X025316Y028815D01*
X025322Y028803D01*
X025328Y028786D01*
X025334Y028765D01*
X025339Y028741D01*
X025343Y028713D01*
X025348Y028643D01*
X025348Y028611D01*
X025347Y0286D01*
X02536Y028496D01*
X025401Y028398D01*
X025465Y028315D01*
X025548Y028251D01*
X025646Y02821D01*
X02575Y028197D01*
X025761Y028198D01*
X025796Y028198D01*
X025872Y028194D01*
X025901Y02819D01*
X025928Y028185D01*
X025949Y02818D01*
X025966Y028174D01*
X025978Y028169D01*
X025984Y028165D01*
X026099Y02805D01*
X026034Y027892D01*
X023472D01*
X023329Y02801D01*
X023314Y028121D01*
X023271Y028224D01*
X023203Y028313D01*
X023114Y028381D01*
X023011Y028424D01*
X0229Y028439D01*
X0228D01*
X022689Y028424D01*
X022586Y028381D01*
X022497Y028313D01*
X022429Y028224D01*
X022386Y028121D01*
X022371Y02801D01*
X022386Y027899D01*
X022429Y027796D01*
X022497Y027707D01*
X022586Y027639D01*
X022689Y027596D01*
X022767Y027586D01*
X022777Y027584D01*
Y027426D01*
X022767Y027424D01*
X022689Y027414D01*
X022586Y027371D01*
X022497Y027303D01*
X022429Y027214D01*
X022386Y027111D01*
X022371Y027D01*
X022386Y026889D01*
X022429Y026786D01*
X022497Y026697D01*
X022586Y026629D01*
X022689Y026586D01*
X0228Y026571D01*
X0229D01*
X023011Y026586D01*
X023114Y026629D01*
X023203Y026697D01*
X023271Y026786D01*
X023314Y026889D01*
X023329Y027D01*
X023314Y027111D01*
X023271Y027214D01*
X023203Y027303D01*
X023114Y027371D01*
X023011Y027414D01*
X022933Y027424D01*
X022923Y027426D01*
Y027584D01*
X022933Y027586D01*
X023011Y027596D01*
X023114Y027639D01*
X02315Y027666D01*
X023166Y02765D01*
X023212Y027619D01*
X023267Y027608D01*
X023267Y027608D01*
X028578D01*
X028632Y027619D01*
X028678Y02765D01*
X029246Y028217D01*
X029403Y028175D01*
Y028175D01*
X029997D01*
Y028342D01*
X030006Y028353D01*
X030041Y028439D01*
X030053Y02853D01*
X030041Y028621D01*
X030006Y028707D01*
X029997Y028718D01*
Y028925D01*
X029997D01*
X030015Y029075D01*
X030047D01*
Y029825D01*
X029815D01*
X029737Y029982D01*
X029769Y030025D01*
X030047D01*
Y030775D01*
X029599D01*
X029533Y030932D01*
X029643Y031042D01*
X02967Y031066D01*
X02968Y031074D01*
X029683Y031075D01*
X029683D01*
X029686Y031074D01*
X02969Y031075D01*
X030047D01*
Y031825D01*
X029453D01*
Y031306D01*
X02945Y031293D01*
Y031253D01*
X029443Y031244D01*
X02855Y03035D01*
X028519Y030304D01*
X028508Y03025D01*
Y029409D01*
X028341Y029242D01*
X028178D01*
X028099Y029398D01*
X02814Y029496D01*
X028153Y0296D01*
X02814Y029704D01*
X028099Y029802D01*
X028035Y029885D01*
X028026Y029892D01*
X028004Y029914D01*
X027958Y029968D01*
X027946Y029983D01*
X027947Y029985D01*
X027951Y029998D01*
X02795Y030005D01*
X027952Y030011D01*
X027949Y030024D01*
X027948Y030038D01*
X027945Y030044D01*
X027944Y03005D01*
X027936Y030061D01*
X02793Y030074D01*
X027925Y030078D01*
X027922Y030083D01*
X02791Y030091D01*
X027903Y030097D01*
X027903Y030101D01*
Y03285D01*
X027891Y032909D01*
X027858Y032958D01*
X026996Y03382D01*
X026977Y033833D01*
X027002Y033988D01*
X027003Y03399D01*
X027368D01*
X027428Y033989D01*
X027461Y033987D01*
X02747Y033986D01*
X027523Y033944D01*
X027609Y033909D01*
X0277Y033897D01*
X027791Y033909D01*
X027877Y033944D01*
X02795Y034D01*
X028006Y034073D01*
X028041Y034159D01*
X028053Y03425D01*
X028041Y034341D01*
X028006Y034427D01*
X02795Y0345D01*
X027877Y034556D01*
X027791Y034591D01*
X0277Y034603D01*
X027609Y034591D01*
X027523Y034556D01*
X02747Y034515D01*
X027383Y03451D01*
X025998D01*
X02598Y034543D01*
X025956Y034667D01*
X026Y0347D01*
X026056Y034773D01*
X026091Y034859D01*
X026103Y03495D01*
X026091Y035041D01*
X026056Y035127D01*
X026Y0352D01*
X025927Y035256D01*
X025841Y035291D01*
X02575Y035303D01*
X025659Y035291D01*
X025573Y035256D01*
X02552Y035215D01*
X025433Y03521D01*
X023782D01*
X023722Y035211D01*
X023689Y035213D01*
X02368Y035214D01*
X023627Y035256D01*
X023541Y035291D01*
X02345Y035303D01*
X023359Y035291D01*
X023273Y035256D01*
X0232Y0352D01*
X023144Y035127D01*
X023109Y035041D01*
X023097Y03495D01*
X023109Y034859D01*
X023144Y034773D01*
X0232Y0347D01*
X023273Y034644D01*
X023359Y034609D01*
X02345Y034597D01*
X023541Y034609D01*
X023627Y034644D01*
X02368Y034685D01*
X023767Y03469D01*
X024452D01*
X02447Y034657D01*
X024494Y034533D01*
X02445Y0345D01*
X024394Y034427D01*
X024359Y034341D01*
X024347Y03425D01*
X024359Y034159D01*
X024394Y034073D01*
X024434Y034022D01*
X024413Y033938D01*
X024368Y033865D01*
X023875D01*
X023869Y033866D01*
X023859Y033869D01*
X023847Y033874D01*
X023833Y033881D01*
X023817Y033891D01*
X0238Y033903D01*
X02376Y033938D01*
X023742Y033955D01*
X023738Y033961D01*
X023664Y034018D01*
X023579Y034053D01*
X023488Y034065D01*
X023397Y034053D01*
X023311Y034018D01*
X023238Y033961D01*
X023182Y033888D01*
X023147Y033803D01*
X023135Y033712D01*
X023147Y03362D01*
X023182Y033535D01*
X023238Y033462D01*
X023295Y033419D01*
X023295Y033419D01*
X023306Y033398D01*
X023307Y033395D01*
X023257Y033287D01*
X023096Y033271D01*
X022893Y033473D01*
Y037403D01*
X022954Y037429D01*
X023043Y037497D01*
X023111Y037586D01*
X023154Y037689D01*
X023164Y037767D01*
X023166Y037777D01*
X023324D01*
X023326Y037767D01*
X023336Y037689D01*
X023379Y037586D01*
X023447Y037497D01*
X023471Y037478D01*
X023477Y037432D01*
X023444Y037303D01*
X023404Y037286D01*
X023331Y03723D01*
X023275Y037157D01*
X02324Y037072D01*
X023228Y036981D01*
X02324Y036889D01*
X023275Y036804D01*
X023331Y036731D01*
X023404Y036675D01*
X023489Y03664D01*
X023581Y036628D01*
X023587Y036629D01*
X023642Y036627D01*
X023665Y036624D01*
X023686Y036621D01*
X023705Y036617D01*
X02372Y036612D01*
X023732Y036607D01*
X023741Y036602D01*
X023746Y036599D01*
X024753Y035592D01*
X024803Y035559D01*
X024861Y035547D01*
X028137D01*
X028597Y035087D01*
Y034487D01*
X028596Y034481D01*
X028593Y034471D01*
X028588Y034459D01*
X02858Y034445D01*
X02857Y034429D01*
X028559Y034413D01*
X028524Y034372D01*
X028507Y034354D01*
X0285Y03435D01*
X028444Y034277D01*
X028409Y034191D01*
X028397Y0341D01*
X028409Y034009D01*
X028444Y033923D01*
X0285Y03385D01*
X028573Y033794D01*
X028659Y033759D01*
X02875Y033747D01*
X028841Y033759D01*
X028927Y033794D01*
X029Y03385D01*
X029056Y033923D01*
X029091Y034009D01*
X029103Y0341D01*
X029091Y034191D01*
X029056Y034277D01*
X029Y03435D01*
X028994Y034354D01*
X028957Y034394D01*
X028942Y034412D01*
X02893Y034429D01*
X02892Y034445D01*
X028912Y034459D01*
X028907Y034471D01*
X028904Y034481D01*
X028903Y034487D01*
Y03515D01*
X028891Y035209D01*
X028858Y035258D01*
X028308Y035808D01*
X028259Y035841D01*
X0282Y035853D01*
X024925D01*
X024625Y036153D01*
X024685Y036298D01*
X027197D01*
X02725Y036291D01*
X027303Y036298D01*
X02755D01*
X027589Y036306D01*
X027622Y036328D01*
X027644Y036361D01*
X027652Y0364D01*
Y037D01*
X027644Y037039D01*
X027622Y037072D01*
X027589Y037094D01*
X02755Y037102D01*
X025252D01*
Y038779D01*
X025395Y038809D01*
X025409Y038806D01*
X025428Y038778D01*
X025461Y038756D01*
X0255Y038748D01*
X0262D01*
X026239Y038756D01*
X026272Y038778D01*
X026294Y038811D01*
X026302Y03885D01*
Y039001D01*
X026459Y039032D01*
X026479Y038986D01*
X026547Y038897D01*
X026636Y038829D01*
X026739Y038786D01*
X02685Y038771D01*
X026961Y038786D01*
X027064Y038829D01*
X027153Y038897D01*
X027221Y038986D01*
X027264Y039089D01*
X027279Y0392D01*
Y0393D01*
X027264Y039411D01*
X027221Y039514D01*
X027153Y039603D01*
X027064Y039671D01*
X026961Y039714D01*
X02685Y039729D01*
X026739Y039714D01*
X026636Y039671D01*
X026547Y039603D01*
X026479Y039514D01*
X026459Y039468D01*
X026302Y039499D01*
Y04075D01*
X033484D01*
X033492Y040593D01*
X033473Y040591D01*
X03335Y040553D01*
X033237Y040493D01*
X033138Y040412D01*
X033057Y040313D01*
X032997Y0402D01*
X032959Y040077D01*
X032947Y03995D01*
X032959Y039823D01*
X032997Y0397D01*
X033057Y039587D01*
X033138Y039488D01*
X033237Y039407D01*
X03335Y039347D01*
X033473Y039309D01*
X0336Y039297D01*
X0337D01*
X033827Y039309D01*
X03395Y039347D01*
X034063Y039407D01*
X034162Y039488D01*
X034243Y039587D01*
X034303Y0397D01*
X034341Y039823D01*
X034353Y03995D01*
X034341Y040077D01*
X034303Y0402D01*
X034243Y040313D01*
X034162Y040412D01*
X034063Y040493D01*
X03395Y040553D01*
X033827Y040591D01*
X033808Y040593D01*
X033816Y04075D01*
X034697D01*
Y021653D01*
D02*
G37*
G36*
X0262Y03885D02*
X0255D01*
Y0396D01*
X0136D01*
Y03595D01*
X01095D01*
Y035205D01*
X010947Y035199D01*
X01091Y035077D01*
X010897Y034949D01*
X01091Y034822D01*
X010947Y034699D01*
X01095Y034694D01*
Y033194D01*
X010913Y033073D01*
X010901Y032946D01*
X010913Y032819D01*
X01095Y032698D01*
Y02966D01*
X010856Y029621D01*
X010768Y029553D01*
X010699Y029464D01*
X010657Y029361D01*
X010642Y02925D01*
X010657Y029139D01*
X010699Y029036D01*
X010768Y028947D01*
X010856Y028879D01*
X01095Y02884D01*
Y02866D01*
X010856Y028621D01*
X010768Y028553D01*
X010699Y028464D01*
X010657Y028361D01*
X010642Y02825D01*
X010657Y028139D01*
X010699Y028036D01*
X010768Y027947D01*
X010856Y027879D01*
X01095Y02784D01*
Y0276D01*
X0116D01*
Y0269D01*
X01075D01*
Y02653D01*
X010699Y026464D01*
X010657Y026361D01*
X010642Y02625D01*
X010657Y026139D01*
X010699Y026036D01*
X01075Y02597D01*
Y0256D01*
X01155D01*
Y02495D01*
X01075D01*
Y02453D01*
X010699Y024464D01*
X010657Y024361D01*
X010642Y02425D01*
X010657Y024139D01*
X010699Y024036D01*
X01075Y02397D01*
Y0236D01*
X01155D01*
Y02355D01*
X0116D01*
Y02295D01*
X010153D01*
Y0396D01*
Y04075D01*
X0262D01*
Y03885D01*
D02*
G37*
G36*
X02283Y037492D02*
X022822Y037489D01*
X022814Y037483D01*
X022808Y037475D01*
X022802Y037465D01*
X022798Y037452D01*
X022794Y037437D01*
X022792Y03742D01*
X022791Y037401D01*
X02279Y03738D01*
X02269D01*
X022689Y037401D01*
X022688Y03742D01*
X022686Y037437D01*
X022682Y037452D01*
X022678Y037465D01*
X022672Y037475D01*
X022666Y037483D01*
X022658Y037489D01*
X02265Y037492D01*
X02264Y037493D01*
X02284D01*
X02283Y037492D01*
D02*
G37*
G36*
X023831Y036944D02*
X023836Y036883D01*
X02384Y036856D01*
X023846Y03683D01*
X023853Y036807D01*
X023862Y036786D01*
X023871Y036768D01*
X023883Y036751D01*
X023895Y036737D01*
X023825Y036666D01*
X02381Y036679D01*
X023794Y03669D01*
X023775Y0367D01*
X023754Y036708D01*
X023731Y036715D01*
X023706Y036721D01*
X023678Y036726D01*
X023649Y036729D01*
X023583Y036731D01*
X023831Y036978D01*
X023831Y036944D01*
D02*
G37*
G36*
X02515Y037D02*
X02755D01*
Y0364D01*
X02445D01*
X02445Y03865D01*
X01505Y03865D01*
X01505Y03235D01*
X0113Y03235D01*
Y0336D01*
X01385D01*
Y03935D01*
X02515D01*
Y037D01*
D02*
G37*
G36*
X025571Y034775D02*
X025567Y034778D01*
X025559Y034781D01*
X025549Y034784D01*
X025537Y034786D01*
X025521Y034788D01*
X025483Y034791D01*
X025406Y034793D01*
Y035107D01*
X025434Y035108D01*
X025537Y035114D01*
X025549Y035116D01*
X025559Y035119D01*
X025567Y035122D01*
X025571Y035125D01*
Y034775D01*
D02*
G37*
G36*
X023633Y035122D02*
X023641Y035119D01*
X023651Y035116D01*
X023663Y035114D01*
X023679Y035112D01*
X023717Y035109D01*
X023794Y035107D01*
Y034793D01*
X023766Y034792D01*
X023663Y034786D01*
X023651Y034784D01*
X023641Y034781D01*
X023633Y034778D01*
X023629Y034775D01*
Y035125D01*
X023633Y035122D01*
D02*
G37*
G36*
X028801Y034476D02*
X028805Y034456D01*
X028811Y034436D01*
X02882Y034415D01*
X028831Y034394D01*
X028845Y034372D01*
X028861Y034349D01*
X02888Y034326D01*
X028925Y034279D01*
X028575D01*
X028599Y034303D01*
X028639Y034349D01*
X028655Y034372D01*
X028669Y034394D01*
X02868Y034415D01*
X028689Y034436D01*
X028695Y034456D01*
X028699Y034476D01*
X0287Y034495D01*
X0288D01*
X028801Y034476D01*
D02*
G37*
G36*
X027521Y034075D02*
X027517Y034078D01*
X027509Y034081D01*
X027499Y034084D01*
X027487Y034086D01*
X027471Y034088D01*
X027433Y034091D01*
X027356Y034093D01*
Y034407D01*
X027384Y034408D01*
X027487Y034414D01*
X027499Y034416D01*
X027509Y034419D01*
X027517Y034422D01*
X027521Y034425D01*
Y034075D01*
D02*
G37*
G36*
X024883Y034422D02*
X024891Y034419D01*
X024901Y034416D01*
X024913Y034414D01*
X024929Y034412D01*
X024967Y034409D01*
X025044Y034407D01*
Y034093D01*
X025016Y034092D01*
X024913Y034086D01*
X024901Y034084D01*
X024891Y034081D01*
X024883Y034078D01*
X024879Y034075D01*
Y034425D01*
X024883Y034422D01*
D02*
G37*
G36*
X023691Y033863D02*
X023737Y033823D01*
X02376Y033807D01*
X023782Y033793D01*
X023803Y033782D01*
X023824Y033773D01*
X023844Y033767D01*
X023864Y033763D01*
X023883Y033762D01*
Y033662D01*
X023864Y033661D01*
X023844Y033657D01*
X023824Y033651D01*
X023803Y033642D01*
X023782Y033631D01*
X02376Y033617D01*
X023737Y033601D01*
X023714Y033582D01*
X023666Y033537D01*
Y033887D01*
X023691Y033863D01*
D02*
G37*
G36*
X023521Y032925D02*
X023497Y032949D01*
X023451Y032989D01*
X023428Y033005D01*
X023406Y033019D01*
X023385Y03303D01*
X023364Y033039D01*
X023344Y033045D01*
X023324Y033049D01*
X023305Y03305D01*
Y03315D01*
X023324Y033151D01*
X023344Y033155D01*
X023364Y033161D01*
X023385Y03317D01*
X023406Y033181D01*
X023428Y033195D01*
X023451Y033211D01*
X023474Y03323D01*
X023521Y033275D01*
Y032925D01*
D02*
G37*
G36*
X023953Y033103D02*
X023975Y033011D01*
X023984Y032985D01*
X023993Y032962D01*
X024003Y032941D01*
X024013Y032923D01*
X024024Y032907D01*
X024035Y032894D01*
X023977Y032811D01*
X023961Y032824D01*
X023944Y032836D01*
X023926Y032845D01*
X023905Y032852D01*
X023883Y032858D01*
X023859Y032861D01*
X023833Y032862D01*
X023805Y032861D01*
X023775Y032859D01*
X023744Y032854D01*
X023947Y033139D01*
X023953Y033103D01*
D02*
G37*
G36*
X026271Y032643D02*
X026247Y032666D01*
X026201Y032706D01*
X026178Y032723D01*
X026156Y032736D01*
X026135Y032748D01*
X026114Y032756D01*
X026094Y032763D01*
X026074Y032766D01*
X026055Y032768D01*
Y032868D01*
X026074Y032869D01*
X026094Y032873D01*
X026114Y032879D01*
X026135Y032888D01*
X026156Y032899D01*
X026178Y032913D01*
X026201Y032929D01*
X026224Y032948D01*
X026271Y032993D01*
Y032643D01*
D02*
G37*
G36*
X023794Y032558D02*
X023799Y03255D01*
X023805Y032542D01*
X023812Y032536D01*
X023821Y03253D01*
X023831Y032525D01*
X023842Y032522D01*
X023854Y032519D01*
X023868Y032518D01*
X023883Y032517D01*
Y032417D01*
X023865Y032417D01*
X023849Y032415D01*
X023834Y032413D01*
X02382Y03241D01*
X023808Y032406D01*
X023797Y032401D01*
X023787Y032395D01*
X023778Y032388D01*
X023771Y03238D01*
X023764Y032372D01*
X023791Y032568D01*
X023794Y032558D01*
D02*
G37*
G36*
X020053Y032551D02*
X020099Y032511D01*
X020122Y032495D01*
X020144Y032481D01*
X020165Y03247D01*
X020186Y032461D01*
X020206Y032455D01*
X020226Y032451D01*
X020245Y03245D01*
Y03235D01*
X020226Y032349D01*
X020206Y032345D01*
X020186Y032339D01*
X020165Y03233D01*
X020144Y032319D01*
X020122Y032305D01*
X020099Y032289D01*
X020076Y03227D01*
X020029Y032225D01*
Y032575D01*
X020053Y032551D01*
D02*
G37*
G36*
X019372Y032217D02*
X019369Y032209D01*
X019366Y032199D01*
X019364Y032187D01*
X019362Y032171D01*
X019359Y032133D01*
X019357Y032056D01*
X019043D01*
X019042Y032084D01*
X019036Y032187D01*
X019034Y032199D01*
X019031Y032209D01*
X019028Y032217D01*
X019025Y032221D01*
X019375D01*
X019372Y032217D01*
D02*
G37*
G36*
X029688Y031176D02*
X02968Y031179D01*
X029671Y03118D01*
X029661Y031178D01*
X029649Y031174D01*
X029636Y031167D01*
X029621Y031157D01*
X029605Y031145D01*
X029569Y031113D01*
X029548Y031093D01*
X029499Y031154D01*
X029515Y031171D01*
X029541Y031202D01*
X02955Y031215D01*
X029557Y031227D01*
X029561Y031237D01*
X029563Y031246D01*
X029563Y031254D01*
X02956Y031261D01*
X029554Y031266D01*
X029688Y031176D01*
D02*
G37*
G36*
X020855Y030549D02*
X020904Y030506D01*
X020927Y030488D01*
X02095Y030473D01*
X020971Y030461D01*
X020991Y030452D01*
X021011Y030445D01*
X021029Y030441D01*
X021047Y030439D01*
Y030361D01*
X021029Y030359D01*
X021011Y030355D01*
X020991Y030348D01*
X020971Y030339D01*
X02095Y030327D01*
X020927Y030312D01*
X020904Y030294D01*
X020855Y030251D01*
X020829Y030225D01*
Y030575D01*
X020855Y030549D01*
D02*
G37*
G36*
X029688Y030126D02*
X02968Y030129D01*
X029671Y03013D01*
X029661Y030128D01*
X029649Y030124D01*
X029636Y030117D01*
X029621Y030107D01*
X029605Y030095D01*
X029569Y030063D01*
X029548Y030043D01*
X029499Y030104D01*
X029515Y030121D01*
X029541Y030152D01*
X02955Y030165D01*
X029557Y030177D01*
X029561Y030187D01*
X029563Y030196D01*
X029563Y030204D01*
X02956Y030211D01*
X029554Y030216D01*
X029688Y030126D01*
D02*
G37*
G36*
X023485Y030173D02*
X023501Y030163D01*
X023519Y030154D01*
X02354Y030146D01*
X023564Y03014D01*
X02359Y030134D01*
X023619Y03013D01*
X023685Y030126D01*
X023722Y030126D01*
X023474Y029878D01*
X023474Y029915D01*
X02347Y029981D01*
X023466Y03001D01*
X02346Y030036D01*
X023454Y03006D01*
X023446Y030081D01*
X023437Y030099D01*
X023427Y030115D01*
X023416Y030129D01*
X023471Y030184D01*
X023485Y030173D01*
D02*
G37*
G36*
X027801Y030104D02*
X027802Y030084D01*
X027804Y030067D01*
X027808Y030052D01*
X027812Y030039D01*
X027818Y030029D01*
X027824Y030021D01*
X027832Y030015D01*
X02784Y030012D01*
X02785Y030011D01*
X027814D01*
X027814Y030008D01*
X027826Y029984D01*
X02784Y029958D01*
X027858Y029931D01*
X027878Y029904D01*
X02793Y029845D01*
X02796Y029814D01*
X02754D01*
X02757Y029845D01*
X027622Y029904D01*
X027642Y029931D01*
X02766Y029958D01*
X027674Y029984D01*
X027686Y030008D01*
X027686Y030011D01*
X02765D01*
X02766Y030012D01*
X027668Y030015D01*
X027676Y030021D01*
X027682Y030029D01*
X027688Y030039D01*
X027692Y030052D01*
X027696Y030067D01*
X027698Y030084D01*
X027699Y030104D01*
X0277Y030125D01*
X0278D01*
X027801Y030104D01*
D02*
G37*
G36*
X026465Y029958D02*
X026485Y029945D01*
X026507Y029934D01*
X026532Y029925D01*
X02656Y029917D01*
X026592Y02991D01*
X026626Y029906D01*
X026704Y0299D01*
X026747Y0299D01*
X02645Y029603D01*
X02645Y029646D01*
X026444Y029724D01*
X02644Y029758D01*
X026433Y02979D01*
X026425Y029818D01*
X026416Y029843D01*
X026405Y029865D01*
X026392Y029885D01*
X026378Y029901D01*
X026449Y029972D01*
X026465Y029958D01*
D02*
G37*
G36*
X02705Y029551D02*
X027059Y029433D01*
X027065Y029401D01*
X027072Y029372D01*
X027081Y029346D01*
X027091Y029324D01*
X027103Y029306D01*
X027115Y02929D01*
X02706Y029235D01*
X027044Y029247D01*
X027026Y029259D01*
X027004Y029269D01*
X026978Y029278D01*
X026949Y029285D01*
X026917Y029291D01*
X026881Y029295D01*
X026799Y0293D01*
X026753Y0293D01*
X02705Y029597D01*
X02705Y029551D01*
D02*
G37*
G36*
X029688Y029176D02*
X02968Y029179D01*
X029671Y02918D01*
X029661Y029178D01*
X029649Y029174D01*
X029636Y029167D01*
X029621Y029157D01*
X029605Y029145D01*
X029569Y029113D01*
X029548Y029093D01*
X029499Y029154D01*
X029515Y029171D01*
X029541Y029202D01*
X02955Y029215D01*
X029557Y029227D01*
X029561Y029237D01*
X029563Y029246D01*
X029563Y029254D01*
X02956Y029261D01*
X029554Y029266D01*
X029688Y029176D01*
D02*
G37*
G36*
X025465Y028958D02*
X025485Y028945D01*
X025507Y028934D01*
X025532Y028925D01*
X02556Y028917D01*
X025592Y02891D01*
X025626Y028906D01*
X025704Y0289D01*
X025747Y0289D01*
X02545Y028603D01*
X02545Y028646D01*
X025444Y028724D01*
X02544Y028758D01*
X025433Y02879D01*
X025425Y028818D01*
X025416Y028843D01*
X025405Y028865D01*
X025392Y028885D01*
X025378Y028901D01*
X025449Y028972D01*
X025465Y028958D01*
D02*
G37*
G36*
X02605Y028551D02*
X026059Y028433D01*
X026065Y028401D01*
X026072Y028372D01*
X026081Y028346D01*
X026091Y028324D01*
X026103Y028306D01*
X026115Y02829D01*
X02606Y028235D01*
X026044Y028247D01*
X026026Y028259D01*
X026004Y028269D01*
X025978Y028278D01*
X025949Y028285D01*
X025917Y028291D01*
X025881Y028295D01*
X025799Y0283D01*
X025753Y0283D01*
X02605Y028597D01*
X02605Y028551D01*
D02*
G37*
G36*
X011339Y028499D02*
X011371Y02848D01*
X011406Y028463D01*
X011443Y028448D01*
X011483Y028436D01*
X011526Y028426D01*
X011572Y028418D01*
X011621Y028412D01*
X011727Y028407D01*
Y028093D01*
X011673Y028091D01*
X011572Y028082D01*
X011526Y028074D01*
X011483Y028064D01*
X011443Y028052D01*
X011406Y028037D01*
X011371Y02802D01*
X011339Y028001D01*
X01131Y027979D01*
Y028521D01*
X011339Y028499D01*
D02*
G37*
G36*
X023206Y027911D02*
X023204Y027903D01*
X023204Y027895D01*
X023206Y027886D01*
X02321Y027876D01*
X023215Y027866D01*
X023221Y027856D01*
X02323Y027845D01*
X02324Y027833D01*
X023251Y027821D01*
X023209Y027752D01*
X023197Y027764D01*
X023186Y027773D01*
X023176Y02778D01*
X023166Y027786D01*
X023158Y02779D01*
X02315Y027791D01*
X023143Y027791D01*
X023137Y027789D01*
X023131Y027785D01*
X023127Y027779D01*
X023209Y027918D01*
X023206Y027911D01*
D02*
G37*
G36*
X017834Y024512D02*
X017808Y024501D01*
X017784Y024482D01*
X017764Y024456D01*
X017747Y024422D01*
X017733Y02438D01*
X017722Y024331D01*
X017714Y024274D01*
X017713Y024257D01*
X017722Y024169D01*
X017733Y02412D01*
X017747Y024078D01*
X017764Y024044D01*
X017784Y024018D01*
X017808Y023999D01*
X017834Y023988D01*
X017864Y023984D01*
X017236D01*
X017266Y023988D01*
X017292Y023999D01*
X017316Y024018D01*
X017336Y024044D01*
X017353Y024078D01*
X017367Y02412D01*
X017378Y024169D01*
X017386Y024226D01*
X017387Y024243D01*
X017378Y024331D01*
X017367Y02438D01*
X017353Y024422D01*
X017336Y024456D01*
X017316Y024482D01*
X017292Y024501D01*
X017266Y024512D01*
X017236Y024516D01*
X017864D01*
X017834Y024512D01*
D02*
G37*
G36*
X03315Y023686D02*
X033146Y023715D01*
X033135Y023742D01*
X033115Y023766D01*
X033088Y023786D01*
X033052Y023803D01*
X033009Y023817D01*
X032958Y023828D01*
X0329Y023836D01*
X032833Y023841D01*
X032758Y023843D01*
Y024157D01*
X032833Y024159D01*
X032958Y024172D01*
X033009Y024183D01*
X033052Y024197D01*
X033088Y024214D01*
X033115Y024234D01*
X033135Y024258D01*
X033146Y024285D01*
X03315Y024314D01*
Y023686D01*
D02*
G37*
G36*
X017834Y023512D02*
X017808Y023501D01*
X017784Y023482D01*
X017764Y023456D01*
X017747Y023422D01*
X017733Y02338D01*
X017722Y023331D01*
X017714Y023274D01*
X017709Y023209D01*
X017707Y023138D01*
X017393D01*
X017391Y023209D01*
X017378Y023331D01*
X017367Y02338D01*
X017353Y023422D01*
X017336Y023456D01*
X017316Y023482D01*
X017292Y023501D01*
X017266Y023512D01*
X017236Y023516D01*
X017864D01*
X017834Y023512D01*
D02*
G37*
G36*
X012611Y022663D02*
X01262Y022609D01*
X012636Y022562D01*
X012658Y022521D01*
X012686Y022486D01*
X012721Y022458D01*
X012762Y022436D01*
X012809Y02242D01*
X012863Y022411D01*
X012922Y022407D01*
X01245Y022093D01*
X011978Y022407D01*
X012037Y022411D01*
X012091Y02242D01*
X012138Y022436D01*
X012179Y022458D01*
X012214Y022486D01*
X012242Y022521D01*
X012264Y022562D01*
X01228Y022609D01*
X012289Y022663D01*
X012293Y022722D01*
X012607D01*
X012611Y022663D01*
D02*
G37*
G36*
X011551Y022535D02*
X01156Y022508D01*
X011576Y022485D01*
X011598Y022464D01*
X011627Y022447D01*
X011661Y022433D01*
X011703Y022422D01*
X01175Y022414D01*
X011804Y022409D01*
X011864Y022407D01*
Y022093D01*
X011804Y022091D01*
X01175Y022086D01*
X011703Y022078D01*
X011661Y022067D01*
X011627Y022053D01*
X011598Y022036D01*
X011576Y022015D01*
X01156Y021992D01*
X011551Y021965D01*
X011548Y021935D01*
Y022565D01*
X011551Y022535D01*
D02*
G37*
%LPC*%
G36*
X034299Y049349D02*
X033501D01*
Y048551D01*
X034299D01*
Y049349D01*
D02*
G37*
G36*
X0266Y049203D02*
X026509Y049191D01*
X026423Y049156D01*
X02635Y0491D01*
X026294Y049027D01*
X026259Y048941D01*
X026247Y04885D01*
X026248Y048842D01*
X026248Y048814D01*
X026244Y048755D01*
X026241Y048733D01*
X026237Y048713D01*
X026233Y048697D01*
X026228Y048685D01*
X026224Y048676D01*
X026222Y048673D01*
X0217Y04415D01*
X021669Y044104D01*
X021658Y04405D01*
Y042859D01*
X021641Y042842D01*
X018809D01*
X018792Y042859D01*
Y043257D01*
X018793Y043261D01*
X018796Y04327D01*
X018802Y043282D01*
X01881Y043297D01*
X018821Y043314D01*
X018835Y043331D01*
X018874Y043376D01*
X018893Y043396D01*
X0189Y0434D01*
X018956Y043473D01*
X018991Y043559D01*
X019003Y04365D01*
X018991Y043741D01*
X018956Y043827D01*
X0189Y0439D01*
X018827Y043956D01*
X018741Y043991D01*
X01865Y044003D01*
X018559Y043991D01*
X018473Y043956D01*
X0184Y0439D01*
X018344Y043827D01*
X018309Y043741D01*
X018297Y04365D01*
X018309Y043559D01*
X018344Y043473D01*
X0184Y0434D01*
X018407Y043396D01*
X018426Y043376D01*
X018465Y043331D01*
X018479Y043314D01*
X01849Y043297D01*
X018498Y043282D01*
X018504Y04327D01*
X018507Y043261D01*
X018508Y043257D01*
Y0428D01*
X018519Y042746D01*
X01855Y0427D01*
X01865Y0426D01*
X018696Y042569D01*
X01875Y042558D01*
X0217D01*
X021754Y042569D01*
X0218Y0426D01*
X0219Y0427D01*
X021931Y042746D01*
X021942Y0428D01*
Y043991D01*
X026423Y048472D01*
X026426Y048474D01*
X026435Y048478D01*
X026447Y048483D01*
X026463Y048487D01*
X026483Y048491D01*
X026505Y048494D01*
X026564Y048498D01*
X026592Y048498D01*
X0266Y048497D01*
X026691Y048509D01*
X026777Y048544D01*
X02685Y0486D01*
X026906Y048673D01*
X026941Y048759D01*
X026953Y04885D01*
X026941Y048941D01*
X026906Y049027D01*
X02685Y0491D01*
X026777Y049156D01*
X026691Y049191D01*
X0266Y049203D01*
D02*
G37*
G36*
X02995Y048353D02*
X029859Y048341D01*
X029773Y048306D01*
X0297Y04825D01*
X029644Y048177D01*
X029609Y048091D01*
X029597Y048D01*
X029609Y047909D01*
X029644Y047823D01*
X0297Y04775D01*
X029773Y047694D01*
X029859Y047659D01*
X02995Y047647D01*
X030041Y047659D01*
X030127Y047694D01*
X0302Y04775D01*
X030256Y047823D01*
X030291Y047909D01*
X030303Y048D01*
X030291Y048091D01*
X030256Y048177D01*
X0302Y04825D01*
X030127Y048306D01*
X030041Y048341D01*
X02995Y048353D01*
D02*
G37*
G36*
X0339Y048353D02*
X033796Y048339D01*
X033699Y048299D01*
X033615Y048235D01*
X033551Y048151D01*
X033511Y048054D01*
X033497Y04795D01*
X033511Y047846D01*
X033551Y047749D01*
X033615Y047665D01*
X033699Y047601D01*
X033796Y047561D01*
X0339Y047547D01*
X034004Y047561D01*
X034101Y047601D01*
X034185Y047665D01*
X034249Y047749D01*
X034289Y047846D01*
X034303Y04795D01*
X034289Y048054D01*
X034249Y048151D01*
X034185Y048235D01*
X034101Y048299D01*
X034004Y048339D01*
X0339Y048353D01*
D02*
G37*
G36*
X02995Y047303D02*
X029859Y047291D01*
X029773Y047256D01*
X0297Y0472D01*
X029644Y047127D01*
X029609Y047041D01*
X029597Y04695D01*
X029609Y046859D01*
X029644Y046773D01*
X0297Y0467D01*
X029773Y046644D01*
X029859Y046609D01*
X02995Y046597D01*
X030041Y046609D01*
X030127Y046644D01*
X0302Y0467D01*
X030256Y046773D01*
X030291Y046859D01*
X030303Y04695D01*
X030291Y047041D01*
X030256Y047127D01*
X0302Y0472D01*
X030127Y047256D01*
X030041Y047291D01*
X02995Y047303D01*
D02*
G37*
G36*
X0339Y047353D02*
X033796Y047339D01*
X033699Y047299D01*
X033615Y047235D01*
X033551Y047151D01*
X033511Y047054D01*
X033497Y04695D01*
X033511Y046846D01*
X033551Y046749D01*
X033615Y046665D01*
X033699Y046601D01*
X033796Y046561D01*
X0339Y046547D01*
X034004Y046561D01*
X034101Y046601D01*
X034185Y046665D01*
X034249Y046749D01*
X034289Y046846D01*
X034303Y04695D01*
X034289Y047054D01*
X034249Y047151D01*
X034185Y047235D01*
X034101Y047299D01*
X034004Y047339D01*
X0339Y047353D01*
D02*
G37*
G36*
X03Y046303D02*
X029909Y046291D01*
X029823Y046256D01*
X02975Y0462D01*
X029694Y046127D01*
X029685Y046103D01*
X02665D01*
X026591Y046091D01*
X026542Y046058D01*
X024465Y043981D01*
X024441Y043991D01*
X02435Y044003D01*
X024259Y043991D01*
X024173Y043956D01*
X0241Y0439D01*
X024044Y043827D01*
X024009Y043741D01*
X023997Y04365D01*
X024009Y043559D01*
X024044Y043473D01*
X0241Y0434D01*
X024173Y043344D01*
X024259Y043309D01*
X02435Y043297D01*
X024441Y043309D01*
X024527Y043344D01*
X0246Y0434D01*
X024656Y043473D01*
X024691Y043559D01*
X024703Y04365D01*
X024691Y043741D01*
X024681Y043765D01*
X026713Y045797D01*
X029685D01*
X029694Y045773D01*
X02975Y0457D01*
X029823Y045644D01*
X029909Y045609D01*
X03Y045597D01*
X030091Y045609D01*
X030177Y045644D01*
X03025Y0457D01*
X030306Y045773D01*
X030341Y045859D01*
X030353Y04595D01*
X030341Y046041D01*
X030306Y046127D01*
X03025Y0462D01*
X030177Y046256D01*
X030091Y046291D01*
X03Y046303D01*
D02*
G37*
G36*
X0339Y046353D02*
X033796Y046339D01*
X033699Y046299D01*
X033615Y046235D01*
X033551Y046151D01*
X033511Y046054D01*
X033497Y04595D01*
X033511Y045846D01*
X033551Y045749D01*
X033615Y045665D01*
X033699Y045601D01*
X033796Y045561D01*
X0339Y045547D01*
X034004Y045561D01*
X034101Y045601D01*
X034185Y045665D01*
X034249Y045749D01*
X034289Y045846D01*
X034303Y04595D01*
X034289Y046054D01*
X034249Y046151D01*
X034185Y046235D01*
X034101Y046299D01*
X034004Y046339D01*
X0339Y046353D01*
D02*
G37*
G36*
X0337Y044403D02*
D01*
Y0438D01*
X034348D01*
X034341Y043877D01*
X034303Y044D01*
X034243Y044113D01*
X034162Y044212D01*
X034063Y044293D01*
X03395Y044353D01*
X033827Y044391D01*
X0337Y044403D01*
D02*
G37*
G36*
X0336D02*
X033473Y044391D01*
X03335Y044353D01*
X033237Y044293D01*
X033138Y044212D01*
X033057Y044113D01*
X032997Y044D01*
X032959Y043877D01*
X032952Y0438D01*
X0336D01*
Y044403D01*
D02*
G37*
G36*
X0267Y044303D02*
X026609Y044291D01*
X026524Y044256D01*
X02645Y0442D01*
X026394Y044127D01*
X026359Y044041D01*
X026347Y04395D01*
X026359Y043859D01*
X026394Y043774D01*
X02645Y0437D01*
X026524Y043644D01*
X026609Y043609D01*
X0267Y043597D01*
X026791Y043609D01*
X026877Y043644D01*
X02695Y0437D01*
X027006Y043774D01*
X027041Y043859D01*
X027053Y04395D01*
X027041Y044041D01*
X027006Y044127D01*
X02695Y0442D01*
X026877Y044256D01*
X026791Y044291D01*
X0267Y044303D01*
D02*
G37*
G36*
X034348Y0437D02*
X0337D01*
Y043097D01*
X033827Y043109D01*
X03395Y043147D01*
X034063Y043207D01*
X034162Y043288D01*
X034243Y043387D01*
X034303Y0435D01*
X034341Y043623D01*
X034348Y0437D01*
D02*
G37*
G36*
X0336D02*
X032952D01*
X032959Y043623D01*
X032997Y0435D01*
X033057Y043387D01*
X033138Y043288D01*
X033237Y043207D01*
X03335Y043147D01*
X033473Y043109D01*
X0336Y043097D01*
D01*
Y0437D01*
D02*
G37*
G36*
X011504Y043599D02*
X011377Y043587D01*
X011254Y043549D01*
X011141Y043489D01*
X011042Y043408D01*
X010961Y043309D01*
X0109Y043196D01*
X010863Y043073D01*
X010851Y042946D01*
X010863Y042819D01*
X0109Y042696D01*
X010961Y042583D01*
X011042Y042484D01*
X011141Y042403D01*
X011254Y042343D01*
X011377Y042305D01*
X011504Y042293D01*
X011631Y042305D01*
X011754Y042343D01*
X011867Y042403D01*
X011966Y042484D01*
X012047Y042583D01*
X012107Y042696D01*
X012145Y042819D01*
X012157Y042946D01*
X012145Y043073D01*
X012107Y043196D01*
X012047Y043309D01*
X011966Y043408D01*
X011867Y043489D01*
X011754Y043549D01*
X011631Y043587D01*
X011504Y043599D01*
D02*
G37*
G36*
X0225Y044153D02*
X022409Y044141D01*
X022323Y044106D01*
X02225Y04405D01*
X022194Y043977D01*
X022159Y043891D01*
X022147Y0438D01*
X022159Y043709D01*
X022194Y043623D01*
X02225Y04355D01*
X022302Y043511D01*
X022307Y043506D01*
X022322Y043495D01*
X022323Y043494D01*
X022324Y043494D01*
X02233Y04349D01*
X022348Y043476D01*
X022362Y043463D01*
X022374Y043451D01*
X022383Y043439D01*
X022389Y04343D01*
X022393Y043421D01*
X022396Y043413D01*
X022397Y043408D01*
Y042229D01*
X019809D01*
X019804Y04223D01*
X019791Y042233D01*
X019778Y042237D01*
X019645Y042295D01*
X01963Y042303D01*
X019627Y042306D01*
X019619Y042309D01*
X019613Y042312D01*
X019613Y042312D01*
X019613Y042312D01*
X019608Y042313D01*
X019541Y042341D01*
X01945Y042353D01*
X019359Y042341D01*
X019273Y042306D01*
X0192Y04225D01*
X019144Y042177D01*
X019109Y042091D01*
X019097Y042D01*
X019109Y041909D01*
X019144Y041823D01*
X0192Y04175D01*
X019273Y041694D01*
X019359Y041659D01*
X01945Y041647D01*
X019541Y041659D01*
X019627Y041694D01*
X0197Y04175D01*
X019756Y041823D01*
X019762Y041838D01*
X019763Y04184D01*
X019776Y041863D01*
X019787Y04188D01*
X019797Y041893D01*
X019807Y041904D01*
X019815Y041912D01*
X019823Y041917D01*
X019829Y04192D01*
X019835Y041923D01*
X01984Y041924D01*
X029332D01*
X029338Y041923D01*
X02935Y041919D01*
X029366Y041914D01*
X029383Y041907D01*
X029429Y041885D01*
X029484Y041855D01*
X029514Y041836D01*
X029515Y041836D01*
X029523Y04183D01*
X029609Y041794D01*
X0297Y041782D01*
X029791Y041794D01*
X029877Y04183D01*
X029885Y041836D01*
X029886Y041836D01*
X029916Y041855D01*
X029971Y041885D01*
X030017Y041907D01*
X030034Y041914D01*
X03005Y041919D01*
X030062Y041923D01*
X030068Y041924D01*
X033022D01*
X033027Y041923D01*
X033037Y041922D01*
X033039Y041921D01*
X033057Y041887D01*
X033138Y041788D01*
X033237Y041707D01*
X03335Y041647D01*
X033473Y041609D01*
X0336Y041597D01*
X0337D01*
X033827Y041609D01*
X03395Y041647D01*
X034063Y041707D01*
X034162Y041788D01*
X034243Y041887D01*
X034303Y042D01*
X034341Y042123D01*
X034353Y04225D01*
X034341Y042377D01*
X034303Y0425D01*
X034243Y042613D01*
X034162Y042712D01*
X034063Y042793D01*
X03395Y042853D01*
X033827Y042891D01*
X0337Y042903D01*
X0336D01*
X033473Y042891D01*
X03335Y042853D01*
X033237Y042793D01*
X033138Y042712D01*
X033057Y042613D01*
X032997Y0425D01*
X032959Y042377D01*
X032947Y04225D01*
X032928Y042229D01*
X030092D01*
X030086Y042231D01*
X030079Y042233D01*
X030072Y042237D01*
X030062Y042243D01*
X030052Y042251D01*
X030041Y042263D01*
X030028Y042277D01*
X030015Y042295D01*
X030008Y042307D01*
X030006Y042312D01*
X02995Y042385D01*
X029877Y042441D01*
X029791Y042476D01*
X0297Y042488D01*
X029609Y042476D01*
X029523Y042441D01*
X02945Y042385D01*
X029394Y042312D01*
X029392Y042307D01*
X029385Y042295D01*
X029372Y042277D01*
X029359Y042263D01*
X029348Y042251D01*
X029338Y042243D01*
X029328Y042237D01*
X029321Y042233D01*
X029314Y042231D01*
X029308Y042229D01*
X022703D01*
Y043428D01*
X022704Y043434D01*
X022707Y043445D01*
X022721Y043481D01*
X022729Y043498D01*
X022774Y043576D01*
X022792Y043604D01*
X022794Y043608D01*
X022806Y043623D01*
X022841Y043709D01*
X022853Y0438D01*
X022841Y043891D01*
X022806Y043977D01*
X02275Y04405D01*
X022677Y044106D01*
X022591Y044141D01*
X0225Y044153D01*
D02*
G37*
%LPD*%
G36*
X026597Y0486D02*
X026561Y0486D01*
X026495Y048596D01*
X026466Y048592D01*
X02644Y048586D01*
X026416Y04858D01*
X026395Y048572D01*
X026377Y048563D01*
X026361Y048553D01*
X026347Y048542D01*
X026292Y048597D01*
X026303Y048611D01*
X026313Y048627D01*
X026322Y048645D01*
X02633Y048666D01*
X026336Y04869D01*
X026342Y048716D01*
X026346Y048745D01*
X02635Y048811D01*
X02635Y048847D01*
X026597Y0486D01*
D02*
G37*
G36*
X018799Y043445D02*
X018756Y043396D01*
X018738Y043373D01*
X018723Y04335D01*
X018711Y043329D01*
X018702Y043309D01*
X018695Y043289D01*
X018691Y043271D01*
X018689Y043253D01*
X018611D01*
X018609Y043271D01*
X018605Y043289D01*
X018598Y043309D01*
X018589Y043329D01*
X018577Y04335D01*
X018562Y043373D01*
X018544Y043396D01*
X018501Y043445D01*
X018475Y043471D01*
X018825D01*
X018799Y043445D01*
D02*
G37*
G36*
X022687Y043629D02*
X022639Y043546D01*
X022627Y043521D01*
X02261Y043476D01*
X022604Y043456D01*
X022601Y043438D01*
X0226Y043421D01*
X0225Y0434D01*
X022499Y04342D01*
X022495Y04344D01*
X022488Y04346D01*
X022478Y04348D01*
X022466Y043499D01*
X022451Y043518D01*
X022433Y043536D01*
X022413Y043554D01*
X02239Y043572D01*
X022364Y04359D01*
X022707Y04366D01*
X022687Y043629D01*
D02*
G37*
G36*
X029931Y042237D02*
X029948Y042214D01*
X029966Y042194D01*
X029984Y042176D01*
X030002Y042161D01*
X030021Y042148D01*
X03004Y042139D01*
X030059Y042132D01*
X030079Y042128D01*
X0301Y042127D01*
X030075Y042027D01*
X030059Y042025D01*
X030041Y042022D01*
X030021Y042017D01*
X029999Y04201D01*
X029976Y042001D01*
X029924Y041976D01*
X029865Y041943D01*
X029832Y041923D01*
X0297Y042053D01*
X029568Y041923D01*
X029535Y041943D01*
X029476Y041976D01*
X029424Y042001D01*
X029401Y04201D01*
X029379Y042017D01*
X029359Y042022D01*
X029341Y042025D01*
X029325Y042027D01*
X0293Y042127D01*
X029321Y042128D01*
X029341Y042132D01*
X02936Y042139D01*
X029379Y042148D01*
X029398Y042161D01*
X029416Y042176D01*
X029434Y042194D01*
X029452Y042214D01*
X029469Y042237D01*
X029485Y042263D01*
X0297Y042053D01*
X029915Y042263D01*
X029931Y042237D01*
D02*
G37*
G36*
X022601Y042208D02*
X022604Y042191D01*
X022609Y042176D01*
X022616Y042163D01*
X022625Y042152D01*
X022636Y042143D01*
X022649Y042136D01*
X022664Y042131D01*
X022681Y042128D01*
X0227Y042127D01*
X02255Y042027D01*
X0224Y042127D01*
X022419Y042128D01*
X022436Y042131D01*
X022451Y042136D01*
X022464Y042143D01*
X022475Y042152D01*
X022484Y042163D01*
X022491Y042176D01*
X022496Y042191D01*
X022499Y042208D01*
X0225Y042227D01*
X0226D01*
X022601Y042208D01*
D02*
G37*
G36*
X033125Y041977D02*
X033121Y041987D01*
X033114Y041995D01*
X033106Y042002D01*
X033097Y042009D01*
X033085Y042014D01*
X033071Y042019D01*
X033056Y042022D01*
X033039Y042025D01*
X03302Y042026D01*
X032999Y042027D01*
X032965Y042127D01*
X032986Y042127D01*
X033004Y042129D01*
X033019Y042131D01*
X033032Y042135D01*
X033042Y042139D01*
X03305Y042145D01*
X033055Y042151D01*
X033058Y042159D01*
X033059Y042167D01*
X033056Y042177D01*
X033125Y041977D01*
D02*
G37*
G36*
X019601Y042203D02*
X019743Y042142D01*
X019764Y042135D01*
X019784Y04213D01*
X019801Y042127D01*
X019816Y042127D01*
X019849Y042027D01*
X019828Y042025D01*
X019808Y042021D01*
X019788Y042014D01*
X01977Y042004D01*
X019752Y041992D01*
X019735Y041977D01*
X019718Y041959D01*
X019703Y041938D01*
X019688Y041914D01*
X019674Y041888D01*
X019566Y042221D01*
X019601Y042203D01*
D02*
G37*
%LPC*%
G36*
X0337Y039103D02*
X0336D01*
X033473Y039091D01*
X03335Y039053D01*
X033237Y038993D01*
X033138Y038912D01*
X033057Y038813D01*
X032997Y0387D01*
X032959Y038577D01*
X032947Y03845D01*
X032959Y038323D01*
X032997Y0382D01*
X033057Y038087D01*
X033138Y037988D01*
X033237Y037907D01*
X03335Y037847D01*
X033473Y037809D01*
X0336Y037797D01*
X0337D01*
X033827Y037809D01*
X03395Y037847D01*
X034063Y037907D01*
X034162Y037988D01*
X034243Y038087D01*
X034303Y0382D01*
X034341Y038323D01*
X034353Y03845D01*
X034341Y038577D01*
X034303Y0387D01*
X034243Y038813D01*
X034162Y038912D01*
X034063Y038993D01*
X03395Y039053D01*
X033827Y039091D01*
X0337Y039103D01*
D02*
G37*
G36*
X02115Y038203D02*
X021059Y038191D01*
X020973Y038156D01*
X0209Y0381D01*
X020844Y038027D01*
X020809Y037941D01*
X020797Y03785D01*
X020809Y037759D01*
X020844Y037673D01*
X020753Y037534D01*
X020733Y037524D01*
X020733Y037524D01*
X020691Y037541D01*
X0206Y037553D01*
X020509Y037541D01*
X020423Y037506D01*
X02035Y03745D01*
X020294Y037377D01*
X020259Y037291D01*
X020247Y0372D01*
X020259Y037109D01*
X020294Y037023D01*
X02035Y03695D01*
X020423Y036894D01*
X020509Y036859D01*
X0206Y036847D01*
X020691Y036859D01*
X020733Y036876D01*
X020852Y03682D01*
X02089Y036783D01*
Y03615D01*
X020899Y036083D01*
X020925Y03602D01*
X020966Y035966D01*
X021631Y035301D01*
X021673Y035258D01*
X021695Y035233D01*
X0217Y035226D01*
X021709Y035159D01*
X021744Y035073D01*
X0218Y035D01*
X021873Y034944D01*
X021959Y034909D01*
X02205Y034897D01*
X022141Y034909D01*
X022227Y034944D01*
X0223Y035D01*
X022356Y035073D01*
X022391Y035159D01*
X022403Y03525D01*
X022391Y035341D01*
X022356Y035427D01*
X0223Y0355D01*
X022227Y035556D01*
X022141Y035591D01*
X022075Y0356D01*
X022009Y035658D01*
X02141Y036258D01*
Y037518D01*
X021411Y037578D01*
X021413Y037611D01*
X021414Y03762D01*
X021456Y037673D01*
X021491Y037759D01*
X021503Y03785D01*
X021491Y037941D01*
X021456Y038027D01*
X0214Y0381D01*
X021327Y038156D01*
X021241Y038191D01*
X02115Y038203D01*
D02*
G37*
G36*
X034299Y036499D02*
X033501D01*
Y035701D01*
X034299D01*
Y036499D01*
D02*
G37*
G36*
X0339Y035503D02*
X033796Y035489D01*
X033699Y035449D01*
X033615Y035385D01*
X033551Y035301D01*
X033511Y035204D01*
X033497Y0351D01*
X033511Y034996D01*
X033551Y034899D01*
X033615Y034815D01*
X033699Y034751D01*
X033796Y034711D01*
X0339Y034697D01*
X034004Y034711D01*
X034101Y034751D01*
X034185Y034815D01*
X034249Y034899D01*
X034289Y034996D01*
X034303Y0351D01*
X034289Y035204D01*
X034249Y035301D01*
X034185Y035385D01*
X034101Y035449D01*
X034004Y035489D01*
X0339Y035503D01*
D02*
G37*
G36*
Y034503D02*
X033796Y034489D01*
X033699Y034449D01*
X033615Y034385D01*
X033551Y034301D01*
X033511Y034204D01*
X033497Y0341D01*
X033511Y033996D01*
X033551Y033899D01*
X033615Y033815D01*
X033699Y033751D01*
X033796Y033711D01*
X0339Y033697D01*
X034004Y033711D01*
X034101Y033751D01*
X034185Y033815D01*
X034249Y033899D01*
X034289Y033996D01*
X034303Y0341D01*
X034289Y034204D01*
X034249Y034301D01*
X034185Y034385D01*
X034101Y034449D01*
X034004Y034489D01*
X0339Y034503D01*
D02*
G37*
G36*
X034354Y032025D02*
X033254D01*
Y031603D01*
X030947D01*
Y031825D01*
X030353D01*
Y031075D01*
X030947D01*
Y031297D01*
X033254D01*
Y031175D01*
X033584D01*
X033595Y031018D01*
X033568Y031014D01*
X033465Y030971D01*
X033376Y030903D01*
X033308Y030814D01*
X033283Y030753D01*
X030947D01*
X030947Y030775D01*
X030846Y030776D01*
X030842Y030775D01*
X030789Y030775D01*
X030353D01*
Y030025D01*
X030947D01*
Y030447D01*
X033283D01*
X033308Y030386D01*
X033376Y030297D01*
X033465Y030229D01*
X033568Y030186D01*
X033618Y030179D01*
Y030021D01*
X033568Y030014D01*
X033465Y029971D01*
X033376Y029903D01*
X033308Y029814D01*
X033283Y029753D01*
X030947D01*
Y029825D01*
X030353D01*
Y029082D01*
X030353Y029075D01*
X030335Y028925D01*
X030303D01*
Y028175D01*
X030897D01*
Y028447D01*
X033283D01*
X033308Y028386D01*
X033376Y028297D01*
X033465Y028229D01*
X033568Y028186D01*
X033679Y028171D01*
X033929D01*
X03404Y028186D01*
X034144Y028229D01*
X034232Y028297D01*
X034301Y028386D01*
X034343Y028489D01*
X034358Y0286D01*
X034343Y028711D01*
X034301Y028814D01*
X034232Y028903D01*
X034144Y028971D01*
X03404Y029014D01*
X033991Y029021D01*
Y029179D01*
X03404Y029186D01*
X034144Y029229D01*
X034232Y029297D01*
X034301Y029386D01*
X034343Y029489D01*
X034358Y0296D01*
X034343Y029711D01*
X034301Y029814D01*
X034232Y029903D01*
X034144Y029971D01*
X03404Y030014D01*
X033991Y030021D01*
Y030179D01*
X03404Y030186D01*
X034144Y030229D01*
X034232Y030297D01*
X034301Y030386D01*
X034343Y030489D01*
X034358Y0306D01*
X034343Y030711D01*
X034301Y030814D01*
X034232Y030903D01*
X034144Y030971D01*
X03404Y031014D01*
X034014Y031018D01*
X034024Y031175D01*
X034354D01*
Y032025D01*
D02*
G37*
G36*
X0337Y026153D02*
X0336D01*
X033473Y026141D01*
X03335Y026103D01*
X033237Y026043D01*
X033138Y025962D01*
X033057Y025863D01*
X032997Y02575D01*
X032959Y025627D01*
X032947Y0255D01*
X032959Y025373D01*
X032997Y02525D01*
X033057Y025137D01*
X033138Y025038D01*
X033237Y024957D01*
X03335Y024897D01*
X033473Y024859D01*
X0336Y024847D01*
X0337D01*
X033827Y024859D01*
X03395Y024897D01*
X034063Y024957D01*
X034162Y025038D01*
X034243Y025137D01*
X034303Y02525D01*
X034341Y025373D01*
X034353Y0255D01*
X034341Y025627D01*
X034303Y02575D01*
X034243Y025863D01*
X034162Y025962D01*
X034063Y026043D01*
X03395Y026103D01*
X033827Y026141D01*
X0337Y026153D01*
D02*
G37*
%LPD*%
G36*
X021322Y037667D02*
X021319Y037659D01*
X021316Y037649D01*
X021314Y037637D01*
X021312Y037621D01*
X021309Y037583D01*
X021307Y037506D01*
X020993D01*
X020992Y037534D01*
X020986Y037637D01*
X020984Y037649D01*
X020981Y037659D01*
X020978Y037667D01*
X020975Y037671D01*
X021325D01*
X021322Y037667D01*
D02*
G37*
G36*
X021938Y035585D02*
X022015Y035517D01*
X022026Y035509D01*
X022034Y035504D01*
X022042Y035501D01*
X022048Y0355D01*
X0218Y035252D01*
X021799Y035258D01*
X021796Y035266D01*
X021791Y035274D01*
X021783Y035285D01*
X021774Y035297D01*
X021749Y035326D01*
X021695Y035382D01*
X021918Y035605D01*
X021938Y035585D01*
D02*
G37*
G36*
X033357Y03135D02*
X033356Y03136D01*
X033353Y031368D01*
X033348Y031376D01*
X033341Y031382D01*
X033331Y031388D01*
X03332Y031392D01*
X033307Y031395D01*
X033292Y031398D01*
X033275Y0314D01*
X033256Y0314D01*
Y0315D01*
X033275Y0315D01*
X033292Y031502D01*
X033307Y031504D01*
X03332Y031508D01*
X033331Y031512D01*
X033341Y031518D01*
X033348Y031525D01*
X033353Y031532D01*
X033356Y031541D01*
X033357Y03155D01*
Y03135D01*
D02*
G37*
G36*
X030845Y031541D02*
X030848Y031532D01*
X030854Y031525D01*
X030861Y031518D01*
X03087Y031512D01*
X030881Y031508D01*
X030894Y031504D01*
X030909Y031502D01*
X030926Y0315D01*
X030946Y0315D01*
Y0314D01*
X030926Y0314D01*
X030909Y031398D01*
X030894Y031395D01*
X030881Y031392D01*
X03087Y031388D01*
X030861Y031382D01*
X030854Y031376D01*
X030848Y031368D01*
X030845Y03136D01*
X030844Y03135D01*
Y03155D01*
X030845Y031541D01*
D02*
G37*
G36*
X033372Y0305D02*
X033371Y03051D01*
X033368Y030518D01*
X033362Y030526D01*
X033354Y030532D01*
X033344Y030538D01*
X033332Y030542D01*
X033317Y030546D01*
X0333Y030548D01*
X03328Y030549D01*
X033259Y03055D01*
Y03065D01*
X03328Y03065D01*
X0333Y030652D01*
X033317Y030654D01*
X033332Y030658D01*
X033344Y030662D01*
X033354Y030668D01*
X033362Y030674D01*
X033368Y030682D01*
X033371Y03069D01*
X033372Y0307D01*
Y0305D01*
D02*
G37*
G36*
X030847Y030669D02*
X03085Y030665D01*
X030855Y030662D01*
X030862Y030659D01*
X030871Y030656D01*
X030882Y030654D01*
X030895Y030652D01*
X030927Y03065D01*
X030946Y03065D01*
Y03055D01*
X030926Y030549D01*
X030909Y030548D01*
X030894Y030545D01*
X030881Y030542D01*
X03087Y030538D01*
X030861Y030532D01*
X030854Y030526D01*
X030849Y030518D01*
X030846Y03051D01*
X030844Y0305D01*
X030846Y030674D01*
X030847Y030669D01*
D02*
G37*
G36*
X033372Y0295D02*
X033371Y02951D01*
X033368Y029518D01*
X033362Y029526D01*
X033354Y029532D01*
X033344Y029538D01*
X033332Y029542D01*
X033317Y029546D01*
X0333Y029548D01*
X03328Y02955D01*
X033259Y02955D01*
Y02965D01*
X03328Y02965D01*
X0333Y029652D01*
X033317Y029654D01*
X033332Y029658D01*
X033344Y029662D01*
X033354Y029668D01*
X033362Y029674D01*
X033368Y029682D01*
X033371Y02969D01*
X033372Y0297D01*
Y0295D01*
D02*
G37*
G36*
X030845Y02969D02*
X030848Y029682D01*
X030854Y029674D01*
X030861Y029668D01*
X03087Y029662D01*
X030881Y029658D01*
X030894Y029655D01*
X030909Y029652D01*
X030926Y02965D01*
X030946Y02965D01*
Y02955D01*
X030926Y02955D01*
X030909Y029548D01*
X030894Y029546D01*
X030881Y029542D01*
X03087Y029537D01*
X030861Y029532D01*
X030854Y029525D01*
X030848Y029518D01*
X030845Y029509D01*
X030844Y0295D01*
Y0297D01*
X030845Y02969D01*
D02*
G37*
G36*
X033372Y0285D02*
X033371Y02851D01*
X033368Y028518D01*
X033362Y028526D01*
X033354Y028532D01*
X033344Y028538D01*
X033332Y028542D01*
X033317Y028546D01*
X0333Y028548D01*
X03328Y028549D01*
X033259Y02855D01*
Y02865D01*
X03328Y028651D01*
X0333Y028652D01*
X033317Y028654D01*
X033332Y028658D01*
X033344Y028662D01*
X033354Y028668D01*
X033362Y028674D01*
X033368Y028682D01*
X033371Y02869D01*
X033372Y0287D01*
Y0285D01*
D02*
G37*
G36*
X030795Y028691D02*
X030798Y028682D01*
X030804Y028674D01*
X030811Y028668D01*
X03082Y028663D01*
X030831Y028658D01*
X030844Y028654D01*
X030859Y028652D01*
X030876Y028651D01*
X030896Y02865D01*
Y02855D01*
X030876Y028549D01*
X030859Y028548D01*
X030844Y028545D01*
X030831Y028542D01*
X03082Y028537D01*
X030811Y028532D01*
X030804Y028526D01*
X030798Y028518D01*
X030795Y02851D01*
X030794Y0285D01*
Y0287D01*
X030795Y028691D01*
D02*
G37*
D16*
X0293Y028472D02*
Y0289D01*
X029592Y029293D02*
X02975Y02945D01*
X029592Y029193D02*
Y029293D01*
X0293Y0289D02*
X029592Y029193D01*
X029Y02875D02*
Y02955D01*
X029592Y030243D02*
X02975Y0304D01*
X029592Y030143D02*
Y030243D01*
X029Y02955D02*
X029592Y030143D01*
X02865Y02935D02*
Y03025D01*
X029592Y031293D02*
X02975Y03145D01*
X029592Y031193D02*
Y031293D01*
X02865Y03025D02*
X029592Y031193D01*
X0284Y0291D02*
X02865Y02935D01*
X02825Y028D02*
X029Y02875D01*
X02635Y028D02*
X02825D01*
X028578Y02775D02*
X0293Y028472D01*
X02285Y02801D02*
X023007D01*
X023267Y02775D01*
X028578D01*
X02575Y0286D02*
X02635Y028D01*
X02725Y0291D02*
X0284D01*
X02675Y0296D02*
X02725Y0291D01*
X02065Y0304D02*
X0232D01*
X023724Y029876D01*
X0218Y04405D02*
X0266Y04885D01*
X0218Y0428D02*
Y04405D01*
X0217Y0427D02*
X0218Y0428D01*
X01875Y0427D02*
X0217D01*
X01865Y0428D02*
X01875Y0427D01*
X01865Y0428D02*
Y04365D01*
D17*
X023759Y0331D02*
X024041Y032818D01*
X02305Y0331D02*
X023759D01*
X02274Y03341D02*
X02305Y0331D01*
X02274Y03341D02*
Y0381D01*
X02355Y0325D02*
X023583Y032467D01*
X023883D01*
X02675Y0296D01*
X02195Y0324D02*
X02575Y0286D01*
X01985Y0324D02*
X02195D01*
X0306Y02855D02*
X03065Y0286D01*
X033804D01*
X03065Y02945D02*
Y029453D01*
X030797Y0296D01*
X033804D01*
X03065Y0304D02*
Y030453D01*
X030797Y0306D01*
X033804D01*
X03065Y03145D02*
X033654D01*
X033804Y0316D01*
X024041Y032818D02*
X02645D01*
X02875Y0341D02*
Y03515D01*
X0282Y0357D02*
X02875Y03515D01*
X024861Y0357D02*
X0282D01*
X023581Y036981D02*
X024861Y0357D01*
X023488Y033712D02*
X026888D01*
X02775Y0296D02*
Y03285D01*
X026888Y033712D02*
X02775Y03285D01*
X02435Y04365D02*
X02665Y04595D01*
X03D01*
X0172Y04425D02*
Y04575D01*
X01765Y0462D01*
X0225Y0438D02*
X02255Y04375D01*
Y042077D02*
X033477D01*
X019527D02*
X02255D01*
Y04375D01*
X033477Y042077D02*
X03365Y04225D01*
X01945Y042D02*
X019527Y042077D01*
D27*
X0297Y02855D02*
D03*
X0306D02*
D03*
X02975Y02945D02*
D03*
X03065D02*
D03*
X02975Y0304D02*
D03*
X03065D02*
D03*
X02975Y03145D02*
D03*
X03065D02*
D03*
D31*
X02675Y0296D02*
D03*
X02775D02*
D03*
X02575D02*
D03*
X02774Y0286D02*
D03*
X02675D02*
D03*
X02575D02*
D03*
D57*
X01245Y02225D02*
X01717D01*
X0111D02*
X01245D01*
Y02825D01*
X0111D02*
X01245D01*
X02115Y03615D02*
Y03785D01*
Y03615D02*
X02205Y03525D01*
X021Y024D02*
X03365D01*
X0192Y0258D02*
X021Y024D01*
X0192Y0258D02*
Y0324D01*
X0247Y03425D02*
X0277D01*
X02345Y03495D02*
X02575D01*
X01755Y02263D02*
Y02375D01*
X01717Y02225D02*
X01755Y02263D01*
Y02375D02*
Y02475D01*
X010975Y02225D02*
X0111D01*
X010975Y02825D02*
X0111D01*
D61*
X02725Y03665D02*
D03*
D62*
X01855Y02375D02*
D03*
Y02475D02*
D03*
X01755Y02375D02*
D03*
Y02475D02*
D03*
D63*
X01155Y03895D02*
D03*
X011554Y032946D02*
D03*
X011551Y034949D02*
D03*
X01155Y03695D02*
D03*
X0115Y04895D02*
D03*
X011504Y042946D02*
D03*
X011501Y044949D02*
D03*
X0115Y04695D02*
D03*
D64*
X03365Y024D02*
D03*
Y0255D02*
D03*
Y04375D02*
D03*
Y04225D02*
D03*
Y03995D02*
D03*
Y03845D02*
D03*
D65*
X0339Y0331D02*
D03*
Y0341D02*
D03*
Y0351D02*
D03*
Y04595D02*
D03*
Y04695D02*
D03*
Y04795D02*
D03*
D66*
Y0361D02*
D03*
Y04895D02*
D03*
D67*
X02285Y02801D02*
D03*
Y027D02*
D03*
D68*
X0111Y02925D02*
D03*
Y02725D02*
D03*
Y02525D02*
D03*
Y02425D02*
D03*
Y02325D02*
D03*
Y02625D02*
D03*
Y02825D02*
D03*
D69*
Y02225D02*
D03*
X033804Y0316D02*
D03*
D70*
Y0276D02*
D03*
Y0306D02*
D03*
Y0296D02*
D03*
Y0286D02*
D03*
D71*
X02685Y03925D02*
D03*
X02584D02*
D03*
X02375Y03785D02*
D03*
X02274D02*
D03*
D72*
X0249Y0305D02*
D03*
X02335Y0357D02*
D03*
Y0361D02*
D03*
X0133Y03135D02*
D03*
X0126D02*
D03*
X0119D02*
D03*
X01625Y03625D02*
D03*
X01565D02*
D03*
X0204Y036D02*
D03*
Y03545D02*
D03*
Y0349D02*
D03*
X0264Y036658D02*
D03*
X0268D02*
D03*
X0206Y0372D02*
D03*
X02115Y03785D02*
D03*
X02205Y03525D02*
D03*
X02645Y032818D02*
D03*
X0297Y02853D02*
D03*
X01985Y0324D02*
D03*
X0277Y03425D02*
D03*
X0247D02*
D03*
X02875Y0341D02*
D03*
X02575Y03495D02*
D03*
X023581Y036981D02*
D03*
X02345Y03495D02*
D03*
X0237Y0331D02*
D03*
X0192Y0324D02*
D03*
X023488Y033712D02*
D03*
X02355Y0325D02*
D03*
X02065Y0304D02*
D03*
X023724Y029876D02*
D03*
X02435Y04365D02*
D03*
X0267Y04395D02*
D03*
X03Y04595D02*
D03*
X02995Y04695D02*
D03*
Y048D02*
D03*
X0266Y04885D02*
D03*
X0172Y04425D02*
D03*
X01765Y0462D02*
D03*
X0225Y0438D02*
D03*
X02055Y04325D02*
D03*
X01865Y04365D02*
D03*
X0297Y042135D02*
D03*
X01945Y042D02*
D03*
M02*
