G04*
G04 #@! TF.GenerationSoftware,Altium Limited,Altium Designer,20.1.7 (139)*
G04*
G04 Layer_Color=16711935*
%FSTAX24Y24*%
%MOIN*%
G70*
G04*
G04 #@! TF.SameCoordinates,32A48367-B763-4124-948E-770BFEAF10EB*
G04*
G04*
G04 #@! TF.FilePolarity,Positive*
G04*
G01*
G75*
%ADD18C,0.0039*%
D18*
X020658Y043856D02*
X021642D01*
X020658D02*
Y044644D01*
X021642D01*
Y043856D02*
Y044644D01*
X021396Y043856D02*
X021642Y044102D01*
X022791Y029669D02*
X023165Y030043D01*
Y029669D02*
Y030831D01*
X022535D02*
X023165D01*
X022535Y029669D02*
Y030831D01*
Y029669D02*
X023165D01*
X02216Y032616D02*
X022416Y032872D01*
Y032616D02*
Y034584D01*
X020684D02*
X022416D01*
X020684Y032616D02*
Y034584D01*
Y032616D02*
X022416D01*
X019891Y027669D02*
X020265Y028043D01*
Y027669D02*
Y028831D01*
X019635D02*
X020265D01*
X019635Y027669D02*
Y028831D01*
Y027669D02*
X020265D01*
X019735Y026557D02*
X020109Y026931D01*
X019735Y025769D02*
Y026931D01*
Y025769D02*
X020365D01*
Y026931D01*
X019735D02*
X020365D01*
X019014Y030243D02*
X019486D01*
X019014D02*
Y030557D01*
X019486D01*
Y030243D02*
Y030557D01*
X019378Y030243D02*
X019486Y030351D01*
X025619Y036835D02*
Y037465D01*
X026781D01*
Y036835D02*
Y037465D01*
X025619Y036835D02*
X026781D01*
X025619Y037209D02*
X025993Y036835D01*
M02*
