M48
;Layer_Color=9474304
;FILE_FORMAT=2:4
INCH,LZ
;TYPE=PLATED
T1F00S00C0.0280
T2F00S00C0.0300
T3F00S00C0.0360
T4F00S00C0.0402
T5F00S00C0.0420
T6F00S00C0.0500
T7F00S00C0.0600
%
T01
X02065Y0304
X023724Y029876
X0249Y0305
X0297Y02853
X0133Y03135
X0126
X0119
X0192Y0324
X01985
X0204Y0349
Y03545
Y036
X0206Y0372
X02115Y03785
X023581Y036981
X02335Y0361
Y0357
X02345Y03495
X023488Y033712
X0237Y0331
X02355Y0325
X0247Y03425
X02575Y03495
X0264Y036658
X0268
X0277Y03425
X02875Y0341
X02645Y032818
X02205Y03525
X01625Y03625
X01565
X0172Y04425
X01865Y04365
X02055Y04325
X01945Y042
X0225Y0438
X02435Y04365
X0267Y04395
X0297Y042135
X03Y04595
X01765Y0462
X0266Y04885
X02995Y048
Y04695
T02
X02725Y03665
T03
X033804Y0276
Y0286
Y0296
Y0306
X02775Y0296
X02675
X02575
Y0286
X02675
X02774
X02285Y02801
Y027
X01855Y02475
Y02375
X01755
Y02475
X02274Y03785
X02375
X02584Y03925
X02685
X033804Y0316
T04
X0339Y0331
Y0341
Y0351
Y0361
Y04595
Y04695
Y04795
Y04895
T05
X0111Y02225
Y02325
Y02425
Y02525
Y02625
Y02725
Y02825
Y02925
T06
X011554Y032946
X011551Y034949
X01155Y03695
Y03895
X011504Y042946
X011501Y044949
X0115Y04695
Y04895
T07
X03365Y024
Y0255
Y03845
Y03995
Y04225
Y04375
M30
