G04*
G04 #@! TF.GenerationSoftware,Altium Limited,Altium Designer,20.1.7 (139)*
G04*
G04 Layer_Color=2752767*
%FSTAX24Y24*%
%MOIN*%
G70*
G04*
G04 #@! TF.SameCoordinates,32A48367-B763-4124-948E-770BFEAF10EB*
G04*
G04*
G04 #@! TF.FilePolarity,Positive*
G04*
G01*
G75*
%ADD74C,0.0020*%
%ADD75C,0.0027*%
D74*
X02717Y03657D02*
Y03673D01*
X02733D01*
Y03657D01*
X02717D01*
X01155Y03887D02*
X01147Y03903D01*
X01163D01*
X01155Y03887D01*
X011554Y032866D02*
X011474Y033026D01*
X011634D01*
X011554Y032866D01*
X011551Y034869D02*
X011471Y035029D01*
X011631D01*
X011551Y034869D01*
X01155Y03687D02*
X01147Y03703D01*
X01163D01*
X01155Y03687D01*
X03365Y02392D02*
X03369Y02396D01*
X03373D01*
X03369Y024D01*
X03373Y02404D01*
X03369D01*
X03365Y02408D01*
X03361Y02404D01*
X03357D01*
X03361Y024D01*
X03357Y02396D01*
X03361D01*
X03365Y02392D01*
Y02542D02*
X03369Y02546D01*
X03373D01*
X03369Y0255D01*
X03373Y02554D01*
X03369D01*
X03365Y02558D01*
X03361Y02554D01*
X03357D01*
X03361Y0255D01*
X03357Y02546D01*
X03361D01*
X03365Y02542D01*
X03382Y03302D02*
X03386Y0331D01*
X03382Y03318D01*
X0339Y03314D01*
X03398Y03318D01*
X03394Y0331D01*
X03398Y03302D01*
X0339Y03306D01*
X03382Y03302D01*
Y03402D02*
X03386Y0341D01*
X03382Y03418D01*
X0339Y03414D01*
X03398Y03418D01*
X03394Y0341D01*
X03398Y03402D01*
X0339Y03406D01*
X03382Y03402D01*
Y03502D02*
X03386Y0351D01*
X03382Y03518D01*
X0339Y03514D01*
X03398Y03518D01*
X03394Y0351D01*
X03398Y03502D01*
X0339Y03506D01*
X03382Y03502D01*
Y03602D02*
X03386Y0361D01*
X03382Y03618D01*
X0339Y03614D01*
X03398Y03618D01*
X03394Y0361D01*
X03398Y03602D01*
X0339Y03606D01*
X03382Y03602D01*
Y04587D02*
X03386Y04595D01*
X03382Y04603D01*
X0339Y04599D01*
X03398Y04603D01*
X03394Y04595D01*
X03398Y04587D01*
X0339Y04591D01*
X03382Y04587D01*
Y04687D02*
X03386Y04695D01*
X03382Y04703D01*
X0339Y04699D01*
X03398Y04703D01*
X03394Y04695D01*
X03398Y04687D01*
X0339Y04691D01*
X03382Y04687D01*
Y04787D02*
X03386Y04795D01*
X03382Y04803D01*
X0339Y04799D01*
X03398Y04803D01*
X03394Y04795D01*
X03398Y04787D01*
X0339Y04791D01*
X03382Y04787D01*
Y04887D02*
X03386Y04895D01*
X03382Y04903D01*
X0339Y04899D01*
X03398Y04903D01*
X03394Y04895D01*
X03398Y04887D01*
X0339Y04891D01*
X03382Y04887D01*
X0115D02*
X01142Y04903D01*
X01158D01*
X0115Y04887D01*
X011504Y042866D02*
X011424Y043026D01*
X011584D01*
X011504Y042866D01*
X011501Y044869D02*
X011421Y045029D01*
X011581D01*
X011501Y044869D01*
X0115Y04687D02*
X01142Y04703D01*
X01158D01*
X0115Y04687D01*
X03365Y04367D02*
X03369Y04371D01*
X03373D01*
X03369Y04375D01*
X03373Y04379D01*
X03369D01*
X03365Y04383D01*
X03361Y04379D01*
X03357D01*
X03361Y04375D01*
X03357Y04371D01*
X03361D01*
X03365Y04367D01*
Y04217D02*
X03369Y04221D01*
X03373D01*
X03369Y04225D01*
X03373Y04229D01*
X03369D01*
X03365Y04233D01*
X03361Y04229D01*
X03357D01*
X03361Y04225D01*
X03357Y04221D01*
X03361D01*
X03365Y04217D01*
X01106Y02921D02*
Y02917D01*
X01114D01*
Y02921D01*
X01118D01*
Y02929D01*
X01114D01*
Y02933D01*
X01106D01*
Y02929D01*
X01102D01*
Y02921D01*
X01106D01*
Y02721D02*
Y02717D01*
X01114D01*
Y02721D01*
X01118D01*
Y02729D01*
X01114D01*
Y02733D01*
X01106D01*
Y02729D01*
X01102D01*
Y02721D01*
X01106D01*
Y02521D02*
Y02517D01*
X01114D01*
Y02521D01*
X01118D01*
Y02529D01*
X01114D01*
Y02533D01*
X01106D01*
Y02529D01*
X01102D01*
Y02521D01*
X01106D01*
Y02421D02*
Y02417D01*
X01114D01*
Y02421D01*
X01118D01*
Y02429D01*
X01114D01*
Y02433D01*
X01106D01*
Y02429D01*
X01102D01*
Y02421D01*
X01106D01*
Y02321D02*
Y02317D01*
X01114D01*
Y02321D01*
X01118D01*
Y02329D01*
X01114D01*
Y02333D01*
X01106D01*
Y02329D01*
X01102D01*
Y02321D01*
X01106D01*
Y02221D02*
Y02217D01*
X01114D01*
Y02221D01*
X01118D01*
Y02229D01*
X01114D01*
Y02233D01*
X01106D01*
Y02229D01*
X01102D01*
Y02221D01*
X01106D01*
Y02621D02*
Y02617D01*
X01114D01*
Y02621D01*
X01118D01*
Y02629D01*
X01114D01*
Y02633D01*
X01106D01*
Y02629D01*
X01102D01*
Y02621D01*
X01106D01*
Y02821D02*
Y02817D01*
X01114D01*
Y02821D01*
X01118D01*
Y02829D01*
X01114D01*
Y02833D01*
X01106D01*
Y02829D01*
X01102D01*
Y02821D01*
X01106D01*
X03365Y03987D02*
X03369Y03991D01*
X03373D01*
X03369Y03995D01*
X03373Y03999D01*
X03369D01*
X03365Y04003D01*
X03361Y03999D01*
X03357D01*
X03361Y03995D01*
X03357Y03991D01*
X03361D01*
X03365Y03987D01*
Y03837D02*
X03369Y03841D01*
X03373D01*
X03369Y03845D01*
X03373Y03849D01*
X03369D01*
X03365Y03853D01*
X03361Y03849D01*
X03357D01*
X03361Y03845D01*
X03357Y03841D01*
X03361D01*
X03365Y03837D01*
X02482Y03042D02*
X02486D01*
X0249Y03046D01*
X02494Y03042D01*
X02498D01*
Y03046D01*
X02494Y0305D01*
X02498Y03054D01*
Y03058D01*
X02494D01*
X0249Y03054D01*
X02486Y03058D01*
X02482D01*
Y03054D01*
X02486Y0305D01*
X02482Y03046D01*
Y03042D01*
X02327Y03562D02*
X02331D01*
X02335Y03566D01*
X02339Y03562D01*
X02343D01*
Y03566D01*
X02339Y0357D01*
X02343Y03574D01*
Y03578D01*
X02339D01*
X02335Y03574D01*
X02331Y03578D01*
X02327D01*
Y03574D01*
X02331Y0357D01*
X02327Y03566D01*
Y03562D01*
Y03602D02*
X02331D01*
X02335Y03606D01*
X02339Y03602D01*
X02343D01*
Y03606D01*
X02339Y0361D01*
X02343Y03614D01*
Y03618D01*
X02339D01*
X02335Y03614D01*
X02331Y03618D01*
X02327D01*
Y03614D01*
X02331Y0361D01*
X02327Y03606D01*
Y03602D01*
X01322Y03127D02*
X01326D01*
X0133Y03131D01*
X01334Y03127D01*
X01338D01*
Y03131D01*
X01334Y03135D01*
X01338Y03139D01*
Y03143D01*
X01334D01*
X0133Y03139D01*
X01326Y03143D01*
X01322D01*
Y03139D01*
X01326Y03135D01*
X01322Y03131D01*
Y03127D01*
X01252D02*
X01256D01*
X0126Y03131D01*
X01264Y03127D01*
X01268D01*
Y03131D01*
X01264Y03135D01*
X01268Y03139D01*
Y03143D01*
X01264D01*
X0126Y03139D01*
X01256Y03143D01*
X01252D01*
Y03139D01*
X01256Y03135D01*
X01252Y03131D01*
Y03127D01*
X01182D02*
X01186D01*
X0119Y03131D01*
X01194Y03127D01*
X01198D01*
Y03131D01*
X01194Y03135D01*
X01198Y03139D01*
Y03143D01*
X01194D01*
X0119Y03139D01*
X01186Y03143D01*
X01182D01*
Y03139D01*
X01186Y03135D01*
X01182Y03131D01*
Y03127D01*
X01617Y03617D02*
X01621D01*
X01625Y03621D01*
X01629Y03617D01*
X01633D01*
Y03621D01*
X01629Y03625D01*
X01633Y03629D01*
Y03633D01*
X01629D01*
X01625Y03629D01*
X01621Y03633D01*
X01617D01*
Y03629D01*
X01621Y03625D01*
X01617Y03621D01*
Y03617D01*
X01557D02*
X01561D01*
X01565Y03621D01*
X01569Y03617D01*
X01573D01*
Y03621D01*
X01569Y03625D01*
X01573Y03629D01*
Y03633D01*
X01569D01*
X01565Y03629D01*
X01561Y03633D01*
X01557D01*
Y03629D01*
X01561Y03625D01*
X01557Y03621D01*
Y03617D01*
X02032Y03592D02*
X02036D01*
X0204Y03596D01*
X02044Y03592D01*
X02048D01*
Y03596D01*
X02044Y036D01*
X02048Y03604D01*
Y03608D01*
X02044D01*
X0204Y03604D01*
X02036Y03608D01*
X02032D01*
Y03604D01*
X02036Y036D01*
X02032Y03596D01*
Y03592D01*
Y03537D02*
X02036D01*
X0204Y03541D01*
X02044Y03537D01*
X02048D01*
Y03541D01*
X02044Y03545D01*
X02048Y03549D01*
Y03553D01*
X02044D01*
X0204Y03549D01*
X02036Y03553D01*
X02032D01*
Y03549D01*
X02036Y03545D01*
X02032Y03541D01*
Y03537D01*
Y03482D02*
X02036D01*
X0204Y03486D01*
X02044Y03482D01*
X02048D01*
Y03486D01*
X02044Y0349D01*
X02048Y03494D01*
Y03498D01*
X02044D01*
X0204Y03494D01*
X02036Y03498D01*
X02032D01*
Y03494D01*
X02036Y0349D01*
X02032Y03486D01*
Y03482D01*
X02632Y036578D02*
X02636D01*
X0264Y036618D01*
X02644Y036578D01*
X02648D01*
Y036618D01*
X02644Y036658D01*
X02648Y036698D01*
Y036738D01*
X02644D01*
X0264Y036698D01*
X02636Y036738D01*
X02632D01*
Y036698D01*
X02636Y036658D01*
X02632Y036618D01*
Y036578D01*
X02672D02*
X02676D01*
X0268Y036618D01*
X02684Y036578D01*
X02688D01*
Y036618D01*
X02684Y036658D01*
X02688Y036698D01*
Y036738D01*
X02684D01*
X0268Y036698D01*
X02676Y036738D01*
X02672D01*
Y036698D01*
X02676Y036658D01*
X02672Y036618D01*
Y036578D01*
X02052Y03712D02*
X02056D01*
X0206Y03716D01*
X02064Y03712D01*
X02068D01*
Y03716D01*
X02064Y0372D01*
X02068Y03724D01*
Y03728D01*
X02064D01*
X0206Y03724D01*
X02056Y03728D01*
X02052D01*
Y03724D01*
X02056Y0372D01*
X02052Y03716D01*
Y03712D01*
X02107Y03777D02*
X02111D01*
X02115Y03781D01*
X02119Y03777D01*
X02123D01*
Y03781D01*
X02119Y03785D01*
X02123Y03789D01*
Y03793D01*
X02119D01*
X02115Y03789D01*
X02111Y03793D01*
X02107D01*
Y03789D01*
X02111Y03785D01*
X02107Y03781D01*
Y03777D01*
X02197Y03517D02*
X02201D01*
X02205Y03521D01*
X02209Y03517D01*
X02213D01*
Y03521D01*
X02209Y03525D01*
X02213Y03529D01*
Y03533D01*
X02209D01*
X02205Y03529D01*
X02201Y03533D01*
X02197D01*
Y03529D01*
X02201Y03525D01*
X02197Y03521D01*
Y03517D01*
X02637Y032738D02*
X02641D01*
X02645Y032778D01*
X02649Y032738D01*
X02653D01*
Y032778D01*
X02649Y032818D01*
X02653Y032858D01*
Y032898D01*
X02649D01*
X02645Y032858D01*
X02641Y032898D01*
X02637D01*
Y032858D01*
X02641Y032818D01*
X02637Y032778D01*
Y032738D01*
X02962Y02845D02*
X02966D01*
X0297Y02849D01*
X02974Y02845D01*
X02978D01*
Y02849D01*
X02974Y02853D01*
X02978Y02857D01*
Y02861D01*
X02974D01*
X0297Y02857D01*
X02966Y02861D01*
X02962D01*
Y02857D01*
X02966Y02853D01*
X02962Y02849D01*
Y02845D01*
X01977Y03232D02*
X01981D01*
X01985Y03236D01*
X01989Y03232D01*
X01993D01*
Y03236D01*
X01989Y0324D01*
X01993Y03244D01*
Y03248D01*
X01989D01*
X01985Y03244D01*
X01981Y03248D01*
X01977D01*
Y03244D01*
X01981Y0324D01*
X01977Y03236D01*
Y03232D01*
X02762Y03417D02*
X02766D01*
X0277Y03421D01*
X02774Y03417D01*
X02778D01*
Y03421D01*
X02774Y03425D01*
X02778Y03429D01*
Y03433D01*
X02774D01*
X0277Y03429D01*
X02766Y03433D01*
X02762D01*
Y03429D01*
X02766Y03425D01*
X02762Y03421D01*
Y03417D01*
X02462D02*
X02466D01*
X0247Y03421D01*
X02474Y03417D01*
X02478D01*
Y03421D01*
X02474Y03425D01*
X02478Y03429D01*
Y03433D01*
X02474D01*
X0247Y03429D01*
X02466Y03433D01*
X02462D01*
Y03429D01*
X02466Y03425D01*
X02462Y03421D01*
Y03417D01*
X02867Y03402D02*
X02871D01*
X02875Y03406D01*
X02879Y03402D01*
X02883D01*
Y03406D01*
X02879Y0341D01*
X02883Y03414D01*
Y03418D01*
X02879D01*
X02875Y03414D01*
X02871Y03418D01*
X02867D01*
Y03414D01*
X02871Y0341D01*
X02867Y03406D01*
Y03402D01*
X02567Y03487D02*
X02571D01*
X02575Y03491D01*
X02579Y03487D01*
X02583D01*
Y03491D01*
X02579Y03495D01*
X02583Y03499D01*
Y03503D01*
X02579D01*
X02575Y03499D01*
X02571Y03503D01*
X02567D01*
Y03499D01*
X02571Y03495D01*
X02567Y03491D01*
Y03487D01*
X023501Y036901D02*
X023541D01*
X023581Y036941D01*
X023621Y036901D01*
X023661D01*
Y036941D01*
X023621Y036981D01*
X023661Y037021D01*
Y037061D01*
X023621D01*
X023581Y037021D01*
X023541Y037061D01*
X023501D01*
Y037021D01*
X023541Y036981D01*
X023501Y036941D01*
Y036901D01*
X02337Y03487D02*
X02341D01*
X02345Y03491D01*
X02349Y03487D01*
X02353D01*
Y03491D01*
X02349Y03495D01*
X02353Y03499D01*
Y03503D01*
X02349D01*
X02345Y03499D01*
X02341Y03503D01*
X02337D01*
Y03499D01*
X02341Y03495D01*
X02337Y03491D01*
Y03487D01*
X02362Y03302D02*
X02366D01*
X0237Y03306D01*
X02374Y03302D01*
X02378D01*
Y03306D01*
X02374Y0331D01*
X02378Y03314D01*
Y03318D01*
X02374D01*
X0237Y03314D01*
X02366Y03318D01*
X02362D01*
Y03314D01*
X02366Y0331D01*
X02362Y03306D01*
Y03302D01*
X01912Y03232D02*
X01916D01*
X0192Y03236D01*
X01924Y03232D01*
X01928D01*
Y03236D01*
X01924Y0324D01*
X01928Y03244D01*
Y03248D01*
X01924D01*
X0192Y03244D01*
X01916Y03248D01*
X01912D01*
Y03244D01*
X01916Y0324D01*
X01912Y03236D01*
Y03232D01*
X023408Y033632D02*
X023448D01*
X023488Y033672D01*
X023528Y033632D01*
X023568D01*
Y033672D01*
X023528Y033712D01*
X023568Y033752D01*
Y033792D01*
X023528D01*
X023488Y033752D01*
X023448Y033792D01*
X023408D01*
Y033752D01*
X023448Y033712D01*
X023408Y033672D01*
Y033632D01*
X02347Y03242D02*
X02351D01*
X02355Y03246D01*
X02359Y03242D01*
X02363D01*
Y03246D01*
X02359Y0325D01*
X02363Y03254D01*
Y03258D01*
X02359D01*
X02355Y03254D01*
X02351Y03258D01*
X02347D01*
Y03254D01*
X02351Y0325D01*
X02347Y03246D01*
Y03242D01*
X02057Y03032D02*
X02061D01*
X02065Y03036D01*
X02069Y03032D01*
X02073D01*
Y03036D01*
X02069Y0304D01*
X02073Y03044D01*
Y03048D01*
X02069D01*
X02065Y03044D01*
X02061Y03048D01*
X02057D01*
Y03044D01*
X02061Y0304D01*
X02057Y03036D01*
Y03032D01*
X023644Y029796D02*
X023684D01*
X023724Y029836D01*
X023764Y029796D01*
X023804D01*
Y029836D01*
X023764Y029876D01*
X023804Y029916D01*
Y029956D01*
X023764D01*
X023724Y029916D01*
X023684Y029956D01*
X023644D01*
Y029916D01*
X023684Y029876D01*
X023644Y029836D01*
Y029796D01*
X02427Y04357D02*
X02431D01*
X02435Y04361D01*
X02439Y04357D01*
X02443D01*
Y04361D01*
X02439Y04365D01*
X02443Y04369D01*
Y04373D01*
X02439D01*
X02435Y04369D01*
X02431Y04373D01*
X02427D01*
Y04369D01*
X02431Y04365D01*
X02427Y04361D01*
Y04357D01*
X02662Y04387D02*
X02666D01*
X0267Y04391D01*
X02674Y04387D01*
X02678D01*
Y04391D01*
X02674Y04395D01*
X02678Y04399D01*
Y04403D01*
X02674D01*
X0267Y04399D01*
X02666Y04403D01*
X02662D01*
Y04399D01*
X02666Y04395D01*
X02662Y04391D01*
Y04387D01*
X02992Y04587D02*
X02996D01*
X03Y04591D01*
X03004Y04587D01*
X03008D01*
Y04591D01*
X03004Y04595D01*
X03008Y04599D01*
Y04603D01*
X03004D01*
X03Y04599D01*
X02996Y04603D01*
X02992D01*
Y04599D01*
X02996Y04595D01*
X02992Y04591D01*
Y04587D01*
X02987Y04687D02*
X02991D01*
X02995Y04691D01*
X02999Y04687D01*
X03003D01*
Y04691D01*
X02999Y04695D01*
X03003Y04699D01*
Y04703D01*
X02999D01*
X02995Y04699D01*
X02991Y04703D01*
X02987D01*
Y04699D01*
X02991Y04695D01*
X02987Y04691D01*
Y04687D01*
Y04792D02*
X02991D01*
X02995Y04796D01*
X02999Y04792D01*
X03003D01*
Y04796D01*
X02999Y048D01*
X03003Y04804D01*
Y04808D01*
X02999D01*
X02995Y04804D01*
X02991Y04808D01*
X02987D01*
Y04804D01*
X02991Y048D01*
X02987Y04796D01*
Y04792D01*
X02652Y04877D02*
X02656D01*
X0266Y04881D01*
X02664Y04877D01*
X02668D01*
Y04881D01*
X02664Y04885D01*
X02668Y04889D01*
Y04893D01*
X02664D01*
X0266Y04889D01*
X02656Y04893D01*
X02652D01*
Y04889D01*
X02656Y04885D01*
X02652Y04881D01*
Y04877D01*
X01712Y04417D02*
X01716D01*
X0172Y04421D01*
X01724Y04417D01*
X01728D01*
Y04421D01*
X01724Y04425D01*
X01728Y04429D01*
Y04433D01*
X01724D01*
X0172Y04429D01*
X01716Y04433D01*
X01712D01*
Y04429D01*
X01716Y04425D01*
X01712Y04421D01*
Y04417D01*
X01757Y04612D02*
X01761D01*
X01765Y04616D01*
X01769Y04612D01*
X01773D01*
Y04616D01*
X01769Y0462D01*
X01773Y04624D01*
Y04628D01*
X01769D01*
X01765Y04624D01*
X01761Y04628D01*
X01757D01*
Y04624D01*
X01761Y0462D01*
X01757Y04616D01*
Y04612D01*
X02242Y04372D02*
X02246D01*
X0225Y04376D01*
X02254Y04372D01*
X02258D01*
Y04376D01*
X02254Y0438D01*
X02258Y04384D01*
Y04388D01*
X02254D01*
X0225Y04384D01*
X02246Y04388D01*
X02242D01*
Y04384D01*
X02246Y0438D01*
X02242Y04376D01*
Y04372D01*
X02047Y04317D02*
X02051D01*
X02055Y04321D01*
X02059Y04317D01*
X02063D01*
Y04321D01*
X02059Y04325D01*
X02063Y04329D01*
Y04333D01*
X02059D01*
X02055Y04329D01*
X02051Y04333D01*
X02047D01*
Y04329D01*
X02051Y04325D01*
X02047Y04321D01*
Y04317D01*
X01857Y04357D02*
X01861D01*
X01865Y04361D01*
X01869Y04357D01*
X01873D01*
Y04361D01*
X01869Y04365D01*
X01873Y04369D01*
Y04373D01*
X01869D01*
X01865Y04369D01*
X01861Y04373D01*
X01857D01*
Y04369D01*
X01861Y04365D01*
X01857Y04361D01*
Y04357D01*
X02962Y042055D02*
X02966D01*
X0297Y042095D01*
X02974Y042055D01*
X02978D01*
Y042095D01*
X02974Y042135D01*
X02978Y042175D01*
Y042215D01*
X02974D01*
X0297Y042175D01*
X02966Y042215D01*
X02962D01*
Y042175D01*
X02966Y042135D01*
X02962Y042095D01*
Y042055D01*
X01937Y04192D02*
X01941D01*
X01945Y04196D01*
X01949Y04192D01*
X01953D01*
Y04196D01*
X01949Y042D01*
X01953Y04204D01*
Y04208D01*
X01949D01*
X01945Y04204D01*
X01941Y04208D01*
X01937D01*
Y04204D01*
X01941Y042D01*
X01937Y04196D01*
Y04192D01*
D75*
X02683Y0296D02*
G03*
X02683Y0296I-00008J0D01*
G01*
X02783D02*
G03*
X02783Y0296I-00008J0D01*
G01*
X02583D02*
G03*
X02583Y0296I-00008J0D01*
G01*
X02782Y0286D02*
G03*
X02782Y0286I-00008J0D01*
G01*
X02683D02*
G03*
X02683Y0286I-00008J0D01*
G01*
X02583D02*
G03*
X02583Y0286I-00008J0D01*
G01*
X01863Y02375D02*
G03*
X01863Y02375I-00008J0D01*
G01*
Y02475D02*
G03*
X01863Y02475I-00008J0D01*
G01*
X01763Y02375D02*
G03*
X01763Y02375I-00008J0D01*
G01*
Y02475D02*
G03*
X01763Y02475I-00008J0D01*
G01*
X02293Y02801D02*
G03*
X02293Y02801I-00008J0D01*
G01*
Y027D02*
G03*
X02293Y027I-00008J0D01*
G01*
X033884Y0276D02*
G03*
X033884Y0276I-00008J0D01*
G01*
Y0316D02*
G03*
X033884Y0316I-00008J0D01*
G01*
Y0306D02*
G03*
X033884Y0306I-00008J0D01*
G01*
Y0296D02*
G03*
X033884Y0296I-00008J0D01*
G01*
Y0286D02*
G03*
X033884Y0286I-00008J0D01*
G01*
X02693Y03925D02*
G03*
X02693Y03925I-00008J0D01*
G01*
X02592D02*
G03*
X02592Y03925I-00008J0D01*
G01*
X02383Y03785D02*
G03*
X02383Y03785I-00008J0D01*
G01*
X02282D02*
G03*
X02282Y03785I-00008J0D01*
G01*
M02*
