G04*
G04 #@! TF.GenerationSoftware,Altium Limited,Altium Designer,20.1.7 (139)*
G04*
G04 Layer_Color=8388736*
%FSTAX24Y24*%
%MOIN*%
G70*
G04*
G04 #@! TF.SameCoordinates,32A48367-B763-4124-948E-770BFEAF10EB*
G04*
G04*
G04 #@! TF.FilePolarity,Negative*
G04*
G01*
G75*
%ADD31C,0.0600*%
%ADD32R,0.0434X0.0159*%
%ADD33R,0.0631X0.0671*%
%ADD34R,0.0580X0.0630*%
%ADD35R,0.0552X0.0316*%
%ADD36R,0.0630X0.0580*%
%ADD37R,0.0661X0.0257*%
%ADD38R,0.0630X0.0474*%
G04:AMPARAMS|DCode=39|XSize=19.8mil|YSize=68mil|CornerRadius=7mil|HoleSize=0mil|Usage=FLASHONLY|Rotation=0.000|XOffset=0mil|YOffset=0mil|HoleType=Round|Shape=RoundedRectangle|*
%AMROUNDEDRECTD39*
21,1,0.0198,0.0541,0,0,0.0*
21,1,0.0059,0.0680,0,0,0.0*
1,1,0.0139,0.0030,-0.0270*
1,1,0.0139,-0.0030,-0.0270*
1,1,0.0139,-0.0030,0.0270*
1,1,0.0139,0.0030,0.0270*
%
%ADD39ROUNDEDRECTD39*%
%ADD40R,0.0474X0.0630*%
%ADD41R,0.0297X0.0245*%
%ADD42R,0.1379X0.0789*%
%ADD43R,0.0316X0.0552*%
%ADD44C,0.0592*%
%ADD45C,0.0680*%
%ADD46O,0.0940X0.0680*%
%ADD47C,0.1180*%
%ADD48O,0.1280X0.1180*%
%ADD49C,0.0678*%
%ADD50R,0.0678X0.0678*%
%ADD51O,0.0830X0.0730*%
%ADD52O,0.0789X0.0730*%
%ADD53R,0.0980X0.0730*%
%ADD54O,0.0980X0.0730*%
%ADD55O,0.0730X0.0830*%
%ADD56C,0.0580*%
D31*
X01555Y0335D02*
D03*
Y03475D02*
D03*
X016169Y044786D02*
D03*
Y043186D02*
D03*
D32*
X020658Y044565D02*
D03*
X020579Y044407D02*
D03*
Y04425D02*
D03*
Y044093D02*
D03*
Y043935D02*
D03*
X021721D02*
D03*
Y044093D02*
D03*
Y04425D02*
D03*
Y044407D02*
D03*
Y044565D02*
D03*
D33*
X02115Y04425D02*
D03*
D34*
X0222Y0316D02*
D03*
X0213D02*
D03*
X0174Y0326D02*
D03*
X0183D02*
D03*
X0174Y03545D02*
D03*
X0183D02*
D03*
X02955Y0488D02*
D03*
X03045D02*
D03*
D35*
X022358Y03025D02*
D03*
X023342Y030624D02*
D03*
Y029876D02*
D03*
X019458Y02825D02*
D03*
X020442Y028624D02*
D03*
Y027876D02*
D03*
X020542Y02635D02*
D03*
X019558Y025976D02*
D03*
Y026724D02*
D03*
D36*
X01925Y03355D02*
D03*
Y03445D02*
D03*
X01955Y0442D02*
D03*
Y0451D02*
D03*
X02055Y0433D02*
D03*
Y0424D02*
D03*
X0227Y03525D02*
D03*
Y03615D02*
D03*
X02415Y03425D02*
D03*
Y03515D02*
D03*
D37*
X020393Y032832D02*
D03*
Y033088D02*
D03*
Y033344D02*
D03*
Y0336D02*
D03*
Y033856D02*
D03*
Y034112D02*
D03*
Y034368D02*
D03*
X022707D02*
D03*
Y034112D02*
D03*
Y033856D02*
D03*
Y0336D02*
D03*
Y033344D02*
D03*
Y033088D02*
D03*
Y032832D02*
D03*
D38*
X01645Y03445D02*
D03*
Y03355D02*
D03*
X01835Y02865D02*
D03*
Y02775D02*
D03*
Y0268D02*
D03*
Y0259D02*
D03*
X02055Y02315D02*
D03*
Y02405D02*
D03*
X02865Y04395D02*
D03*
Y04485D02*
D03*
X0276Y04395D02*
D03*
Y04485D02*
D03*
X01945Y0423D02*
D03*
Y0432D02*
D03*
X0179Y04425D02*
D03*
Y04515D02*
D03*
X0297Y04225D02*
D03*
Y04315D02*
D03*
X02035Y0295D02*
D03*
Y0304D02*
D03*
X02675Y03175D02*
D03*
Y03085D02*
D03*
X0257Y03175D02*
D03*
Y03085D02*
D03*
D39*
X01505Y03325D02*
D03*
Y03285D02*
D03*
D40*
X0196Y0249D02*
D03*
X0205D02*
D03*
X02945Y0341D02*
D03*
X03035D02*
D03*
X02875Y03515D02*
D03*
X02785D02*
D03*
X02875Y0341D02*
D03*
X02785D02*
D03*
X0174Y03355D02*
D03*
X0183D02*
D03*
X0174Y0345D02*
D03*
X0183D02*
D03*
X0277Y0468D02*
D03*
X0286D02*
D03*
X0277Y0478D02*
D03*
X0286D02*
D03*
X0277Y0488D02*
D03*
X0286D02*
D03*
X01795Y0462D02*
D03*
X01885D02*
D03*
X03035Y03515D02*
D03*
X02945D02*
D03*
X01325Y02925D02*
D03*
X01415D02*
D03*
X0287Y0308D02*
D03*
X0278D02*
D03*
D41*
X019555Y0304D02*
D03*
X018945D02*
D03*
D42*
X02875Y03674D02*
D03*
Y03926D02*
D03*
D43*
X025826Y036658D02*
D03*
X026574D02*
D03*
X0262Y037642D02*
D03*
D44*
X02725Y03665D02*
D03*
D45*
X02675Y0296D02*
D03*
X02775D02*
D03*
X02575D02*
D03*
X02774Y0286D02*
D03*
X02675D02*
D03*
X02575D02*
D03*
D46*
X01855Y02375D02*
D03*
Y02475D02*
D03*
X01755Y02375D02*
D03*
Y02475D02*
D03*
D47*
X01155Y03895D02*
D03*
X011554Y032946D02*
D03*
X011551Y034949D02*
D03*
X01155Y03695D02*
D03*
X0115Y04895D02*
D03*
X011504Y042946D02*
D03*
X011501Y044949D02*
D03*
X0115Y04695D02*
D03*
D48*
X03365Y024D02*
D03*
Y0255D02*
D03*
Y04375D02*
D03*
Y04225D02*
D03*
Y03995D02*
D03*
Y03845D02*
D03*
D49*
X0339Y0331D02*
D03*
Y0341D02*
D03*
Y0351D02*
D03*
Y04595D02*
D03*
Y04695D02*
D03*
Y04795D02*
D03*
D50*
Y0361D02*
D03*
Y04895D02*
D03*
D51*
X02285Y02801D02*
D03*
Y027D02*
D03*
D52*
X0111Y02925D02*
D03*
Y02725D02*
D03*
Y02525D02*
D03*
Y02425D02*
D03*
Y02325D02*
D03*
Y02625D02*
D03*
Y02825D02*
D03*
D53*
Y02225D02*
D03*
X033804Y0316D02*
D03*
D54*
Y0276D02*
D03*
Y0306D02*
D03*
Y0296D02*
D03*
Y0286D02*
D03*
D55*
X02685Y03925D02*
D03*
X02584D02*
D03*
X02375Y03785D02*
D03*
X02274D02*
D03*
D56*
X0249Y0305D02*
D03*
X02335Y0357D02*
D03*
Y0361D02*
D03*
X0133Y03135D02*
D03*
X0126D02*
D03*
X0119D02*
D03*
X01625Y03625D02*
D03*
X01565D02*
D03*
X0204Y036D02*
D03*
Y03545D02*
D03*
Y0349D02*
D03*
X0264Y036658D02*
D03*
X0268D02*
D03*
X0206Y0372D02*
D03*
X02115Y03785D02*
D03*
X02205Y03525D02*
D03*
X02645Y032818D02*
D03*
X0297Y02853D02*
D03*
X01985Y0324D02*
D03*
X0277Y03425D02*
D03*
X0247D02*
D03*
X02875Y0341D02*
D03*
X02575Y03495D02*
D03*
X023581Y036981D02*
D03*
X02345Y03495D02*
D03*
X0237Y0331D02*
D03*
X0192Y0324D02*
D03*
X023488Y033712D02*
D03*
X02355Y0325D02*
D03*
X02065Y0304D02*
D03*
X023724Y029876D02*
D03*
X02435Y04365D02*
D03*
X0267Y04395D02*
D03*
X03Y04595D02*
D03*
X02995Y04695D02*
D03*
Y048D02*
D03*
X0266Y04885D02*
D03*
X0172Y04425D02*
D03*
X01765Y0462D02*
D03*
X0225Y0438D02*
D03*
X02055Y04325D02*
D03*
X01865Y04365D02*
D03*
X0297Y042135D02*
D03*
X01945Y042D02*
D03*
M02*
